<?xml version="1.0" encoding="utf-8"?>
<svg xmlns="http://www.w3.org/2000/svg" xmlns:xlink="http://www.w3.org/1999/xlink" width="300" height="300" viewBox="0 0 300 300">

	<g id="qr">
		<rect fill="#ffffffff" x="0" y="0" width="300" height="300" />
		<circle cx="23" cy="23" r="3" fill="#000000ff"/>
		<circle cx="23" cy="30" r="3" fill="#000000ff"/>
		<circle cx="23" cy="37" r="3" fill="#000000ff"/>
		<circle cx="23" cy="44" r="3" fill="#000000ff"/>
		<circle cx="23" cy="51" r="3" fill="#000000ff"/>
		<circle cx="23" cy="58" r="3" fill="#000000ff"/>
		<circle cx="23" cy="65" r="3" fill="#000000ff"/>
		<circle cx="23" cy="86" r="3" fill="#000000ff"/>
		<circle cx="23" cy="107" r="3" fill="#000000ff"/>
		<circle cx="23" cy="149" r="3" fill="#000000ff"/>
		<circle cx="23" cy="184" r="3" fill="#000000ff"/>
		<circle cx="23" cy="198" r="3" fill="#000000ff"/>
		<circle cx="23" cy="205" r="3" fill="#000000ff"/>
		<circle cx="23" cy="212" r="3" fill="#000000ff"/>
		<circle cx="23" cy="219" r="3" fill="#000000ff"/>
		<circle cx="23" cy="233" r="3" fill="#000000ff"/>
		<circle cx="23" cy="240" r="3" fill="#000000ff"/>
		<circle cx="23" cy="247" r="3" fill="#000000ff"/>
		<circle cx="23" cy="254" r="3" fill="#000000ff"/>
		<circle cx="23" cy="261" r="3" fill="#000000ff"/>
		<circle cx="23" cy="268" r="3" fill="#000000ff"/>
		<circle cx="23" cy="275" r="3" fill="#000000ff"/>
		<circle cx="30" cy="23" r="3" fill="#000000ff"/>
		<circle cx="30" cy="65" r="3" fill="#000000ff"/>
		<circle cx="30" cy="121" r="3" fill="#000000ff"/>
		<circle cx="30" cy="128" r="3" fill="#000000ff"/>
		<circle cx="30" cy="149" r="3" fill="#000000ff"/>
		<circle cx="30" cy="177" r="3" fill="#000000ff"/>
		<circle cx="30" cy="184" r="3" fill="#000000ff"/>
		<circle cx="30" cy="198" r="3" fill="#000000ff"/>
		<circle cx="30" cy="233" r="3" fill="#000000ff"/>
		<circle cx="30" cy="275" r="3" fill="#000000ff"/>
		<circle cx="37" cy="23" r="3" fill="#000000ff"/>
		<circle cx="37" cy="37" r="3" fill="#000000ff"/>
		<circle cx="37" cy="44" r="3" fill="#000000ff"/>
		<circle cx="37" cy="51" r="3" fill="#000000ff"/>
		<circle cx="37" cy="65" r="3" fill="#000000ff"/>
		<circle cx="37" cy="79" r="3" fill="#000000ff"/>
		<circle cx="37" cy="93" r="3" fill="#000000ff"/>
		<circle cx="37" cy="107" r="3" fill="#000000ff"/>
		<circle cx="37" cy="121" r="3" fill="#000000ff"/>
		<circle cx="37" cy="142" r="3" fill="#000000ff"/>
		<circle cx="37" cy="156" r="3" fill="#000000ff"/>
		<circle cx="37" cy="163" r="3" fill="#000000ff"/>
		<circle cx="37" cy="170" r="3" fill="#000000ff"/>
		<circle cx="37" cy="177" r="3" fill="#000000ff"/>
		<circle cx="37" cy="205" r="3" fill="#000000ff"/>
		<circle cx="37" cy="212" r="3" fill="#000000ff"/>
		<circle cx="37" cy="219" r="3" fill="#000000ff"/>
		<circle cx="37" cy="233" r="3" fill="#000000ff"/>
		<circle cx="37" cy="247" r="3" fill="#000000ff"/>
		<circle cx="37" cy="254" r="3" fill="#000000ff"/>
		<circle cx="37" cy="261" r="3" fill="#000000ff"/>
		<circle cx="37" cy="275" r="3" fill="#000000ff"/>
		<circle cx="44" cy="23" r="3" fill="#000000ff"/>
		<circle cx="44" cy="37" r="3" fill="#000000ff"/>
		<circle cx="44" cy="44" r="3" fill="#000000ff"/>
		<circle cx="44" cy="51" r="3" fill="#000000ff"/>
		<circle cx="44" cy="65" r="3" fill="#000000ff"/>
		<circle cx="44" cy="79" r="3" fill="#000000ff"/>
		<circle cx="44" cy="107" r="3" fill="#000000ff"/>
		<circle cx="44" cy="114" r="3" fill="#000000ff"/>
		<circle cx="44" cy="121" r="3" fill="#000000ff"/>
		<circle cx="44" cy="128" r="3" fill="#000000ff"/>
		<circle cx="44" cy="142" r="3" fill="#000000ff"/>
		<circle cx="44" cy="149" r="3" fill="#000000ff"/>
		<circle cx="44" cy="163" r="3" fill="#000000ff"/>
		<circle cx="44" cy="198" r="3" fill="#000000ff"/>
		<circle cx="44" cy="212" r="3" fill="#000000ff"/>
		<circle cx="44" cy="233" r="3" fill="#000000ff"/>
		<circle cx="44" cy="247" r="3" fill="#000000ff"/>
		<circle cx="44" cy="254" r="3" fill="#000000ff"/>
		<circle cx="44" cy="261" r="3" fill="#000000ff"/>
		<circle cx="44" cy="275" r="3" fill="#000000ff"/>
		<circle cx="51" cy="23" r="3" fill="#000000ff"/>
		<circle cx="51" cy="37" r="3" fill="#000000ff"/>
		<circle cx="51" cy="44" r="3" fill="#000000ff"/>
		<circle cx="51" cy="51" r="3" fill="#000000ff"/>
		<circle cx="51" cy="65" r="3" fill="#000000ff"/>
		<circle cx="51" cy="79" r="3" fill="#000000ff"/>
		<circle cx="51" cy="86" r="3" fill="#000000ff"/>
		<circle cx="51" cy="93" r="3" fill="#000000ff"/>
		<circle cx="51" cy="100" r="3" fill="#000000ff"/>
		<circle cx="51" cy="107" r="3" fill="#000000ff"/>
		<circle cx="51" cy="114" r="3" fill="#000000ff"/>
		<circle cx="51" cy="121" r="3" fill="#000000ff"/>
		<circle cx="51" cy="128" r="3" fill="#000000ff"/>
		<circle cx="51" cy="142" r="3" fill="#000000ff"/>
		<circle cx="51" cy="177" r="3" fill="#000000ff"/>
		<circle cx="51" cy="198" r="3" fill="#000000ff"/>
		<circle cx="51" cy="205" r="3" fill="#000000ff"/>
		<circle cx="51" cy="212" r="3" fill="#000000ff"/>
		<circle cx="51" cy="219" r="3" fill="#000000ff"/>
		<circle cx="51" cy="233" r="3" fill="#000000ff"/>
		<circle cx="51" cy="247" r="3" fill="#000000ff"/>
		<circle cx="51" cy="254" r="3" fill="#000000ff"/>
		<circle cx="51" cy="261" r="3" fill="#000000ff"/>
		<circle cx="51" cy="275" r="3" fill="#000000ff"/>
		<circle cx="58" cy="23" r="3" fill="#000000ff"/>
		<circle cx="58" cy="65" r="3" fill="#000000ff"/>
		<circle cx="58" cy="93" r="3" fill="#000000ff"/>
		<circle cx="58" cy="100" r="3" fill="#000000ff"/>
		<circle cx="58" cy="114" r="3" fill="#000000ff"/>
		<circle cx="58" cy="121" r="3" fill="#000000ff"/>
		<circle cx="58" cy="128" r="3" fill="#000000ff"/>
		<circle cx="58" cy="135" r="3" fill="#000000ff"/>
		<circle cx="58" cy="142" r="3" fill="#000000ff"/>
		<circle cx="58" cy="170" r="3" fill="#000000ff"/>
		<circle cx="58" cy="184" r="3" fill="#000000ff"/>
		<circle cx="58" cy="198" r="3" fill="#000000ff"/>
		<circle cx="58" cy="233" r="3" fill="#000000ff"/>
		<circle cx="58" cy="275" r="3" fill="#000000ff"/>
		<circle cx="65" cy="23" r="3" fill="#000000ff"/>
		<circle cx="65" cy="30" r="3" fill="#000000ff"/>
		<circle cx="65" cy="37" r="3" fill="#000000ff"/>
		<circle cx="65" cy="44" r="3" fill="#000000ff"/>
		<circle cx="65" cy="51" r="3" fill="#000000ff"/>
		<circle cx="65" cy="58" r="3" fill="#000000ff"/>
		<circle cx="65" cy="65" r="3" fill="#000000ff"/>
		<circle cx="65" cy="79" r="3" fill="#000000ff"/>
		<circle cx="65" cy="93" r="3" fill="#000000ff"/>
		<circle cx="65" cy="107" r="3" fill="#000000ff"/>
		<circle cx="65" cy="121" r="3" fill="#000000ff"/>
		<circle cx="65" cy="135" r="3" fill="#000000ff"/>
		<circle cx="65" cy="149" r="3" fill="#000000ff"/>
		<circle cx="65" cy="163" r="3" fill="#000000ff"/>
		<circle cx="65" cy="177" r="3" fill="#000000ff"/>
		<circle cx="65" cy="191" r="3" fill="#000000ff"/>
		<circle cx="65" cy="205" r="3" fill="#000000ff"/>
		<circle cx="65" cy="219" r="3" fill="#000000ff"/>
		<circle cx="65" cy="233" r="3" fill="#000000ff"/>
		<circle cx="65" cy="240" r="3" fill="#000000ff"/>
		<circle cx="65" cy="247" r="3" fill="#000000ff"/>
		<circle cx="65" cy="254" r="3" fill="#000000ff"/>
		<circle cx="65" cy="261" r="3" fill="#000000ff"/>
		<circle cx="65" cy="268" r="3" fill="#000000ff"/>
		<circle cx="65" cy="275" r="3" fill="#000000ff"/>
		<circle cx="72" cy="93" r="3" fill="#000000ff"/>
		<circle cx="72" cy="128" r="3" fill="#000000ff"/>
		<circle cx="72" cy="149" r="3" fill="#000000ff"/>
		<circle cx="72" cy="163" r="3" fill="#000000ff"/>
		<circle cx="72" cy="184" r="3" fill="#000000ff"/>
		<circle cx="72" cy="198" r="3" fill="#000000ff"/>
		<circle cx="72" cy="212" r="3" fill="#000000ff"/>
		<circle cx="72" cy="219" r="3" fill="#000000ff"/>
		<circle cx="79" cy="23" r="3" fill="#000000ff"/>
		<circle cx="79" cy="30" r="3" fill="#000000ff"/>
		<circle cx="79" cy="37" r="3" fill="#000000ff"/>
		<circle cx="79" cy="58" r="3" fill="#000000ff"/>
		<circle cx="79" cy="65" r="3" fill="#000000ff"/>
		<circle cx="79" cy="72" r="3" fill="#000000ff"/>
		<circle cx="79" cy="79" r="3" fill="#000000ff"/>
		<circle cx="79" cy="93" r="3" fill="#000000ff"/>
		<circle cx="79" cy="107" r="3" fill="#000000ff"/>
		<circle cx="79" cy="121" r="3" fill="#000000ff"/>
		<circle cx="79" cy="128" r="3" fill="#000000ff"/>
		<circle cx="79" cy="135" r="3" fill="#000000ff"/>
		<circle cx="79" cy="142" r="3" fill="#000000ff"/>
		<circle cx="79" cy="149" r="3" fill="#000000ff"/>
		<circle cx="79" cy="156" r="3" fill="#000000ff"/>
		<circle cx="79" cy="191" r="3" fill="#000000ff"/>
		<circle cx="79" cy="198" r="3" fill="#000000ff"/>
		<circle cx="79" cy="205" r="3" fill="#000000ff"/>
		<circle cx="79" cy="219" r="3" fill="#000000ff"/>
		<circle cx="79" cy="226" r="3" fill="#000000ff"/>
		<circle cx="79" cy="247" r="3" fill="#000000ff"/>
		<circle cx="79" cy="254" r="3" fill="#000000ff"/>
		<circle cx="79" cy="261" r="3" fill="#000000ff"/>
		<circle cx="86" cy="37" r="3" fill="#000000ff"/>
		<circle cx="86" cy="58" r="3" fill="#000000ff"/>
		<circle cx="86" cy="72" r="3" fill="#000000ff"/>
		<circle cx="86" cy="86" r="3" fill="#000000ff"/>
		<circle cx="86" cy="93" r="3" fill="#000000ff"/>
		<circle cx="86" cy="100" r="3" fill="#000000ff"/>
		<circle cx="86" cy="107" r="3" fill="#000000ff"/>
		<circle cx="86" cy="121" r="3" fill="#000000ff"/>
		<circle cx="86" cy="128" r="3" fill="#000000ff"/>
		<circle cx="86" cy="149" r="3" fill="#000000ff"/>
		<circle cx="86" cy="163" r="3" fill="#000000ff"/>
		<circle cx="86" cy="170" r="3" fill="#000000ff"/>
		<circle cx="86" cy="177" r="3" fill="#000000ff"/>
		<circle cx="86" cy="184" r="3" fill="#000000ff"/>
		<circle cx="86" cy="191" r="3" fill="#000000ff"/>
		<circle cx="86" cy="198" r="3" fill="#000000ff"/>
		<circle cx="86" cy="226" r="3" fill="#000000ff"/>
		<circle cx="86" cy="247" r="3" fill="#000000ff"/>
		<circle cx="93" cy="30" r="3" fill="#000000ff"/>
		<circle cx="93" cy="37" r="3" fill="#000000ff"/>
		<circle cx="93" cy="44" r="3" fill="#000000ff"/>
		<circle cx="93" cy="51" r="3" fill="#000000ff"/>
		<circle cx="93" cy="58" r="3" fill="#000000ff"/>
		<circle cx="93" cy="65" r="3" fill="#000000ff"/>
		<circle cx="93" cy="72" r="3" fill="#000000ff"/>
		<circle cx="93" cy="79" r="3" fill="#000000ff"/>
		<circle cx="93" cy="93" r="3" fill="#000000ff"/>
		<circle cx="93" cy="100" r="3" fill="#000000ff"/>
		<circle cx="93" cy="107" r="3" fill="#000000ff"/>
		<circle cx="93" cy="114" r="3" fill="#000000ff"/>
		<circle cx="93" cy="128" r="3" fill="#000000ff"/>
		<circle cx="93" cy="135" r="3" fill="#000000ff"/>
		<circle cx="93" cy="149" r="3" fill="#000000ff"/>
		<circle cx="93" cy="156" r="3" fill="#000000ff"/>
		<circle cx="93" cy="177" r="3" fill="#000000ff"/>
		<circle cx="93" cy="191" r="3" fill="#000000ff"/>
		<circle cx="93" cy="198" r="3" fill="#000000ff"/>
		<circle cx="93" cy="219" r="3" fill="#000000ff"/>
		<circle cx="93" cy="226" r="3" fill="#000000ff"/>
		<circle cx="93" cy="233" r="3" fill="#000000ff"/>
		<circle cx="93" cy="240" r="3" fill="#000000ff"/>
		<circle cx="93" cy="254" r="3" fill="#000000ff"/>
		<circle cx="93" cy="268" r="3" fill="#000000ff"/>
		<circle cx="100" cy="37" r="3" fill="#000000ff"/>
		<circle cx="100" cy="44" r="3" fill="#000000ff"/>
		<circle cx="100" cy="51" r="3" fill="#000000ff"/>
		<circle cx="100" cy="72" r="3" fill="#000000ff"/>
		<circle cx="100" cy="79" r="3" fill="#000000ff"/>
		<circle cx="100" cy="93" r="3" fill="#000000ff"/>
		<circle cx="100" cy="114" r="3" fill="#000000ff"/>
		<circle cx="100" cy="121" r="3" fill="#000000ff"/>
		<circle cx="100" cy="128" r="3" fill="#000000ff"/>
		<circle cx="100" cy="156" r="3" fill="#000000ff"/>
		<circle cx="100" cy="170" r="3" fill="#000000ff"/>
		<circle cx="100" cy="198" r="3" fill="#000000ff"/>
		<circle cx="100" cy="205" r="3" fill="#000000ff"/>
		<circle cx="100" cy="219" r="3" fill="#000000ff"/>
		<circle cx="100" cy="226" r="3" fill="#000000ff"/>
		<circle cx="107" cy="30" r="3" fill="#000000ff"/>
		<circle cx="107" cy="37" r="3" fill="#000000ff"/>
		<circle cx="107" cy="44" r="3" fill="#000000ff"/>
		<circle cx="107" cy="51" r="3" fill="#000000ff"/>
		<circle cx="107" cy="65" r="3" fill="#000000ff"/>
		<circle cx="107" cy="72" r="3" fill="#000000ff"/>
		<circle cx="107" cy="79" r="3" fill="#000000ff"/>
		<circle cx="107" cy="86" r="3" fill="#000000ff"/>
		<circle cx="107" cy="114" r="3" fill="#000000ff"/>
		<circle cx="107" cy="121" r="3" fill="#000000ff"/>
		<circle cx="107" cy="128" r="3" fill="#000000ff"/>
		<circle cx="107" cy="149" r="3" fill="#000000ff"/>
		<circle cx="107" cy="177" r="3" fill="#000000ff"/>
		<circle cx="107" cy="184" r="3" fill="#000000ff"/>
		<circle cx="107" cy="191" r="3" fill="#000000ff"/>
		<circle cx="107" cy="219" r="3" fill="#000000ff"/>
		<circle cx="107" cy="233" r="3" fill="#000000ff"/>
		<circle cx="107" cy="247" r="3" fill="#000000ff"/>
		<circle cx="107" cy="254" r="3" fill="#000000ff"/>
		<circle cx="107" cy="261" r="3" fill="#000000ff"/>
		<circle cx="107" cy="268" r="3" fill="#000000ff"/>
		<circle cx="107" cy="275" r="3" fill="#000000ff"/>
		<circle cx="114" cy="51" r="3" fill="#000000ff"/>
		<circle cx="114" cy="79" r="3" fill="#000000ff"/>
		<circle cx="114" cy="86" r="3" fill="#000000ff"/>
		<circle cx="114" cy="100" r="3" fill="#000000ff"/>
		<circle cx="114" cy="107" r="3" fill="#000000ff"/>
		<circle cx="114" cy="128" r="3" fill="#000000ff"/>
		<circle cx="114" cy="135" r="3" fill="#000000ff"/>
		<circle cx="114" cy="149" r="3" fill="#000000ff"/>
		<circle cx="114" cy="156" r="3" fill="#000000ff"/>
		<circle cx="114" cy="163" r="3" fill="#000000ff"/>
		<circle cx="114" cy="170" r="3" fill="#000000ff"/>
		<circle cx="114" cy="177" r="3" fill="#000000ff"/>
		<circle cx="114" cy="184" r="3" fill="#000000ff"/>
		<circle cx="114" cy="191" r="3" fill="#000000ff"/>
		<circle cx="114" cy="212" r="3" fill="#000000ff"/>
		<circle cx="114" cy="240" r="3" fill="#000000ff"/>
		<circle cx="114" cy="247" r="3" fill="#000000ff"/>
		<circle cx="114" cy="261" r="3" fill="#000000ff"/>
		<circle cx="114" cy="275" r="3" fill="#000000ff"/>
		<circle cx="121" cy="37" r="3" fill="#000000ff"/>
		<circle cx="121" cy="44" r="3" fill="#000000ff"/>
		<circle cx="121" cy="58" r="3" fill="#000000ff"/>
		<circle cx="121" cy="65" r="3" fill="#000000ff"/>
		<circle cx="121" cy="72" r="3" fill="#000000ff"/>
		<circle cx="121" cy="86" r="3" fill="#000000ff"/>
		<circle cx="121" cy="107" r="3" fill="#000000ff"/>
		<circle cx="121" cy="114" r="3" fill="#000000ff"/>
		<circle cx="121" cy="121" r="3" fill="#000000ff"/>
		<circle cx="121" cy="128" r="3" fill="#000000ff"/>
		<circle cx="121" cy="142" r="3" fill="#000000ff"/>
		<circle cx="121" cy="177" r="3" fill="#000000ff"/>
		<circle cx="121" cy="191" r="3" fill="#000000ff"/>
		<circle cx="121" cy="198" r="3" fill="#000000ff"/>
		<circle cx="121" cy="205" r="3" fill="#000000ff"/>
		<circle cx="121" cy="226" r="3" fill="#000000ff"/>
		<circle cx="121" cy="247" r="3" fill="#000000ff"/>
		<circle cx="121" cy="254" r="3" fill="#000000ff"/>
		<circle cx="121" cy="275" r="3" fill="#000000ff"/>
		<circle cx="128" cy="23" r="3" fill="#000000ff"/>
		<circle cx="128" cy="37" r="3" fill="#000000ff"/>
		<circle cx="128" cy="79" r="3" fill="#000000ff"/>
		<circle cx="128" cy="86" r="3" fill="#000000ff"/>
		<circle cx="128" cy="93" r="3" fill="#000000ff"/>
		<circle cx="128" cy="107" r="3" fill="#000000ff"/>
		<circle cx="128" cy="121" r="3" fill="#000000ff"/>
		<circle cx="128" cy="128" r="3" fill="#000000ff"/>
		<circle cx="128" cy="135" r="3" fill="#000000ff"/>
		<circle cx="128" cy="149" r="3" fill="#000000ff"/>
		<circle cx="128" cy="163" r="3" fill="#000000ff"/>
		<circle cx="128" cy="177" r="3" fill="#000000ff"/>
		<circle cx="128" cy="184" r="3" fill="#000000ff"/>
		<circle cx="128" cy="205" r="3" fill="#000000ff"/>
		<circle cx="128" cy="212" r="3" fill="#000000ff"/>
		<circle cx="128" cy="240" r="3" fill="#000000ff"/>
		<circle cx="128" cy="261" r="3" fill="#000000ff"/>
		<circle cx="135" cy="37" r="3" fill="#000000ff"/>
		<circle cx="135" cy="65" r="3" fill="#000000ff"/>
		<circle cx="135" cy="79" r="3" fill="#000000ff"/>
		<circle cx="135" cy="114" r="3" fill="#000000ff"/>
		<circle cx="135" cy="128" r="3" fill="#000000ff"/>
		<circle cx="135" cy="135" r="3" fill="#000000ff"/>
		<circle cx="135" cy="149" r="3" fill="#000000ff"/>
		<circle cx="135" cy="156" r="3" fill="#000000ff"/>
		<circle cx="135" cy="163" r="3" fill="#000000ff"/>
		<circle cx="135" cy="170" r="3" fill="#000000ff"/>
		<circle cx="135" cy="177" r="3" fill="#000000ff"/>
		<circle cx="135" cy="198" r="3" fill="#000000ff"/>
		<circle cx="135" cy="219" r="3" fill="#000000ff"/>
		<circle cx="135" cy="226" r="3" fill="#000000ff"/>
		<circle cx="135" cy="233" r="3" fill="#000000ff"/>
		<circle cx="135" cy="247" r="3" fill="#000000ff"/>
		<circle cx="135" cy="275" r="3" fill="#000000ff"/>
		<circle cx="142" cy="30" r="3" fill="#000000ff"/>
		<circle cx="142" cy="58" r="3" fill="#000000ff"/>
		<circle cx="142" cy="72" r="3" fill="#000000ff"/>
		<circle cx="142" cy="107" r="3" fill="#000000ff"/>
		<circle cx="142" cy="121" r="3" fill="#000000ff"/>
		<circle cx="142" cy="128" r="3" fill="#000000ff"/>
		<circle cx="142" cy="135" r="3" fill="#000000ff"/>
		<circle cx="142" cy="142" r="3" fill="#000000ff"/>
		<circle cx="142" cy="170" r="3" fill="#000000ff"/>
		<circle cx="142" cy="177" r="3" fill="#000000ff"/>
		<circle cx="142" cy="184" r="3" fill="#000000ff"/>
		<circle cx="142" cy="191" r="3" fill="#000000ff"/>
		<circle cx="142" cy="205" r="3" fill="#000000ff"/>
		<circle cx="142" cy="212" r="3" fill="#000000ff"/>
		<circle cx="142" cy="219" r="3" fill="#000000ff"/>
		<circle cx="142" cy="226" r="3" fill="#000000ff"/>
		<circle cx="142" cy="247" r="3" fill="#000000ff"/>
		<circle cx="149" cy="30" r="3" fill="#000000ff"/>
		<circle cx="149" cy="44" r="3" fill="#000000ff"/>
		<circle cx="149" cy="58" r="3" fill="#000000ff"/>
		<circle cx="149" cy="65" r="3" fill="#000000ff"/>
		<circle cx="149" cy="79" r="3" fill="#000000ff"/>
		<circle cx="149" cy="93" r="3" fill="#000000ff"/>
		<circle cx="149" cy="100" r="3" fill="#000000ff"/>
		<circle cx="149" cy="128" r="3" fill="#000000ff"/>
		<circle cx="149" cy="135" r="3" fill="#000000ff"/>
		<circle cx="149" cy="184" r="3" fill="#000000ff"/>
		<circle cx="149" cy="205" r="3" fill="#000000ff"/>
		<circle cx="149" cy="212" r="3" fill="#000000ff"/>
		<circle cx="149" cy="219" r="3" fill="#000000ff"/>
		<circle cx="149" cy="226" r="3" fill="#000000ff"/>
		<circle cx="149" cy="233" r="3" fill="#000000ff"/>
		<circle cx="149" cy="254" r="3" fill="#000000ff"/>
		<circle cx="149" cy="261" r="3" fill="#000000ff"/>
		<circle cx="149" cy="268" r="3" fill="#000000ff"/>
		<circle cx="156" cy="30" r="3" fill="#000000ff"/>
		<circle cx="156" cy="44" r="3" fill="#000000ff"/>
		<circle cx="156" cy="51" r="3" fill="#000000ff"/>
		<circle cx="156" cy="86" r="3" fill="#000000ff"/>
		<circle cx="156" cy="93" r="3" fill="#000000ff"/>
		<circle cx="156" cy="100" r="3" fill="#000000ff"/>
		<circle cx="156" cy="170" r="3" fill="#000000ff"/>
		<circle cx="156" cy="177" r="3" fill="#000000ff"/>
		<circle cx="156" cy="191" r="3" fill="#000000ff"/>
		<circle cx="156" cy="205" r="3" fill="#000000ff"/>
		<circle cx="156" cy="212" r="3" fill="#000000ff"/>
		<circle cx="156" cy="219" r="3" fill="#000000ff"/>
		<circle cx="156" cy="233" r="3" fill="#000000ff"/>
		<circle cx="156" cy="240" r="3" fill="#000000ff"/>
		<circle cx="156" cy="247" r="3" fill="#000000ff"/>
		<circle cx="156" cy="261" r="3" fill="#000000ff"/>
		<circle cx="156" cy="275" r="3" fill="#000000ff"/>
		<circle cx="163" cy="30" r="3" fill="#000000ff"/>
		<circle cx="163" cy="44" r="3" fill="#000000ff"/>
		<circle cx="163" cy="58" r="3" fill="#000000ff"/>
		<circle cx="163" cy="65" r="3" fill="#000000ff"/>
		<circle cx="163" cy="72" r="3" fill="#000000ff"/>
		<circle cx="163" cy="107" r="3" fill="#000000ff"/>
		<circle cx="163" cy="149" r="3" fill="#000000ff"/>
		<circle cx="163" cy="156" r="3" fill="#000000ff"/>
		<circle cx="163" cy="163" r="3" fill="#000000ff"/>
		<circle cx="163" cy="170" r="3" fill="#000000ff"/>
		<circle cx="163" cy="219" r="3" fill="#000000ff"/>
		<circle cx="163" cy="268" r="3" fill="#000000ff"/>
		<circle cx="170" cy="23" r="3" fill="#000000ff"/>
		<circle cx="170" cy="37" r="3" fill="#000000ff"/>
		<circle cx="170" cy="51" r="3" fill="#000000ff"/>
		<circle cx="170" cy="58" r="3" fill="#000000ff"/>
		<circle cx="170" cy="72" r="3" fill="#000000ff"/>
		<circle cx="170" cy="79" r="3" fill="#000000ff"/>
		<circle cx="170" cy="107" r="3" fill="#000000ff"/>
		<circle cx="170" cy="121" r="3" fill="#000000ff"/>
		<circle cx="170" cy="135" r="3" fill="#000000ff"/>
		<circle cx="170" cy="142" r="3" fill="#000000ff"/>
		<circle cx="170" cy="156" r="3" fill="#000000ff"/>
		<circle cx="170" cy="163" r="3" fill="#000000ff"/>
		<circle cx="170" cy="170" r="3" fill="#000000ff"/>
		<circle cx="170" cy="184" r="3" fill="#000000ff"/>
		<circle cx="170" cy="191" r="3" fill="#000000ff"/>
		<circle cx="170" cy="205" r="3" fill="#000000ff"/>
		<circle cx="170" cy="212" r="3" fill="#000000ff"/>
		<circle cx="170" cy="219" r="3" fill="#000000ff"/>
		<circle cx="170" cy="240" r="3" fill="#000000ff"/>
		<circle cx="170" cy="247" r="3" fill="#000000ff"/>
		<circle cx="170" cy="261" r="3" fill="#000000ff"/>
		<circle cx="170" cy="268" r="3" fill="#000000ff"/>
		<circle cx="177" cy="44" r="3" fill="#000000ff"/>
		<circle cx="177" cy="51" r="3" fill="#000000ff"/>
		<circle cx="177" cy="65" r="3" fill="#000000ff"/>
		<circle cx="177" cy="107" r="3" fill="#000000ff"/>
		<circle cx="177" cy="114" r="3" fill="#000000ff"/>
		<circle cx="177" cy="128" r="3" fill="#000000ff"/>
		<circle cx="177" cy="142" r="3" fill="#000000ff"/>
		<circle cx="177" cy="184" r="3" fill="#000000ff"/>
		<circle cx="177" cy="191" r="3" fill="#000000ff"/>
		<circle cx="177" cy="247" r="3" fill="#000000ff"/>
		<circle cx="177" cy="268" r="3" fill="#000000ff"/>
		<circle cx="177" cy="275" r="3" fill="#000000ff"/>
		<circle cx="184" cy="23" r="3" fill="#000000ff"/>
		<circle cx="184" cy="30" r="3" fill="#000000ff"/>
		<circle cx="184" cy="44" r="3" fill="#000000ff"/>
		<circle cx="184" cy="86" r="3" fill="#000000ff"/>
		<circle cx="184" cy="100" r="3" fill="#000000ff"/>
		<circle cx="184" cy="107" r="3" fill="#000000ff"/>
		<circle cx="184" cy="121" r="3" fill="#000000ff"/>
		<circle cx="184" cy="128" r="3" fill="#000000ff"/>
		<circle cx="184" cy="135" r="3" fill="#000000ff"/>
		<circle cx="184" cy="142" r="3" fill="#000000ff"/>
		<circle cx="184" cy="170" r="3" fill="#000000ff"/>
		<circle cx="184" cy="177" r="3" fill="#000000ff"/>
		<circle cx="184" cy="191" r="3" fill="#000000ff"/>
		<circle cx="184" cy="205" r="3" fill="#000000ff"/>
		<circle cx="184" cy="254" r="3" fill="#000000ff"/>
		<circle cx="184" cy="261" r="3" fill="#000000ff"/>
		<circle cx="184" cy="268" r="3" fill="#000000ff"/>
		<circle cx="191" cy="23" r="3" fill="#000000ff"/>
		<circle cx="191" cy="44" r="3" fill="#000000ff"/>
		<circle cx="191" cy="51" r="3" fill="#000000ff"/>
		<circle cx="191" cy="65" r="3" fill="#000000ff"/>
		<circle cx="191" cy="100" r="3" fill="#000000ff"/>
		<circle cx="191" cy="121" r="3" fill="#000000ff"/>
		<circle cx="191" cy="128" r="3" fill="#000000ff"/>
		<circle cx="191" cy="135" r="3" fill="#000000ff"/>
		<circle cx="191" cy="142" r="3" fill="#000000ff"/>
		<circle cx="191" cy="156" r="3" fill="#000000ff"/>
		<circle cx="191" cy="170" r="3" fill="#000000ff"/>
		<circle cx="191" cy="184" r="3" fill="#000000ff"/>
		<circle cx="191" cy="191" r="3" fill="#000000ff"/>
		<circle cx="191" cy="198" r="3" fill="#000000ff"/>
		<circle cx="191" cy="205" r="3" fill="#000000ff"/>
		<circle cx="191" cy="233" r="3" fill="#000000ff"/>
		<circle cx="191" cy="261" r="3" fill="#000000ff"/>
		<circle cx="191" cy="275" r="3" fill="#000000ff"/>
		<circle cx="198" cy="30" r="3" fill="#000000ff"/>
		<circle cx="198" cy="58" r="3" fill="#000000ff"/>
		<circle cx="198" cy="72" r="3" fill="#000000ff"/>
		<circle cx="198" cy="93" r="3" fill="#000000ff"/>
		<circle cx="198" cy="100" r="3" fill="#000000ff"/>
		<circle cx="198" cy="107" r="3" fill="#000000ff"/>
		<circle cx="198" cy="121" r="3" fill="#000000ff"/>
		<circle cx="198" cy="135" r="3" fill="#000000ff"/>
		<circle cx="198" cy="177" r="3" fill="#000000ff"/>
		<circle cx="198" cy="191" r="3" fill="#000000ff"/>
		<circle cx="198" cy="205" r="3" fill="#000000ff"/>
		<circle cx="198" cy="219" r="3" fill="#000000ff"/>
		<circle cx="198" cy="233" r="3" fill="#000000ff"/>
		<circle cx="198" cy="240" r="3" fill="#000000ff"/>
		<circle cx="198" cy="247" r="3" fill="#000000ff"/>
		<circle cx="205" cy="30" r="3" fill="#000000ff"/>
		<circle cx="205" cy="51" r="3" fill="#000000ff"/>
		<circle cx="205" cy="65" r="3" fill="#000000ff"/>
		<circle cx="205" cy="72" r="3" fill="#000000ff"/>
		<circle cx="205" cy="86" r="3" fill="#000000ff"/>
		<circle cx="205" cy="107" r="3" fill="#000000ff"/>
		<circle cx="205" cy="114" r="3" fill="#000000ff"/>
		<circle cx="205" cy="121" r="3" fill="#000000ff"/>
		<circle cx="205" cy="142" r="3" fill="#000000ff"/>
		<circle cx="205" cy="149" r="3" fill="#000000ff"/>
		<circle cx="205" cy="170" r="3" fill="#000000ff"/>
		<circle cx="205" cy="184" r="3" fill="#000000ff"/>
		<circle cx="205" cy="198" r="3" fill="#000000ff"/>
		<circle cx="205" cy="205" r="3" fill="#000000ff"/>
		<circle cx="205" cy="212" r="3" fill="#000000ff"/>
		<circle cx="205" cy="219" r="3" fill="#000000ff"/>
		<circle cx="205" cy="226" r="3" fill="#000000ff"/>
		<circle cx="205" cy="233" r="3" fill="#000000ff"/>
		<circle cx="205" cy="247" r="3" fill="#000000ff"/>
		<circle cx="205" cy="254" r="3" fill="#000000ff"/>
		<circle cx="205" cy="261" r="3" fill="#000000ff"/>
		<circle cx="205" cy="268" r="3" fill="#000000ff"/>
		<circle cx="212" cy="44" r="3" fill="#000000ff"/>
		<circle cx="212" cy="79" r="3" fill="#000000ff"/>
		<circle cx="212" cy="86" r="3" fill="#000000ff"/>
		<circle cx="212" cy="100" r="3" fill="#000000ff"/>
		<circle cx="212" cy="107" r="3" fill="#000000ff"/>
		<circle cx="212" cy="121" r="3" fill="#000000ff"/>
		<circle cx="212" cy="135" r="3" fill="#000000ff"/>
		<circle cx="212" cy="142" r="3" fill="#000000ff"/>
		<circle cx="212" cy="149" r="3" fill="#000000ff"/>
		<circle cx="212" cy="163" r="3" fill="#000000ff"/>
		<circle cx="212" cy="191" r="3" fill="#000000ff"/>
		<circle cx="212" cy="205" r="3" fill="#000000ff"/>
		<circle cx="212" cy="219" r="3" fill="#000000ff"/>
		<circle cx="212" cy="233" r="3" fill="#000000ff"/>
		<circle cx="212" cy="240" r="3" fill="#000000ff"/>
		<circle cx="212" cy="261" r="3" fill="#000000ff"/>
		<circle cx="212" cy="275" r="3" fill="#000000ff"/>
		<circle cx="219" cy="23" r="3" fill="#000000ff"/>
		<circle cx="219" cy="44" r="3" fill="#000000ff"/>
		<circle cx="219" cy="51" r="3" fill="#000000ff"/>
		<circle cx="219" cy="65" r="3" fill="#000000ff"/>
		<circle cx="219" cy="86" r="3" fill="#000000ff"/>
		<circle cx="219" cy="100" r="3" fill="#000000ff"/>
		<circle cx="219" cy="107" r="3" fill="#000000ff"/>
		<circle cx="219" cy="114" r="3" fill="#000000ff"/>
		<circle cx="219" cy="121" r="3" fill="#000000ff"/>
		<circle cx="219" cy="128" r="3" fill="#000000ff"/>
		<circle cx="219" cy="135" r="3" fill="#000000ff"/>
		<circle cx="219" cy="149" r="3" fill="#000000ff"/>
		<circle cx="219" cy="156" r="3" fill="#000000ff"/>
		<circle cx="219" cy="177" r="3" fill="#000000ff"/>
		<circle cx="219" cy="191" r="3" fill="#000000ff"/>
		<circle cx="219" cy="212" r="3" fill="#000000ff"/>
		<circle cx="219" cy="219" r="3" fill="#000000ff"/>
		<circle cx="219" cy="226" r="3" fill="#000000ff"/>
		<circle cx="219" cy="233" r="3" fill="#000000ff"/>
		<circle cx="219" cy="240" r="3" fill="#000000ff"/>
		<circle cx="219" cy="247" r="3" fill="#000000ff"/>
		<circle cx="219" cy="254" r="3" fill="#000000ff"/>
		<circle cx="226" cy="79" r="3" fill="#000000ff"/>
		<circle cx="226" cy="93" r="3" fill="#000000ff"/>
		<circle cx="226" cy="100" r="3" fill="#000000ff"/>
		<circle cx="226" cy="107" r="3" fill="#000000ff"/>
		<circle cx="226" cy="135" r="3" fill="#000000ff"/>
		<circle cx="226" cy="149" r="3" fill="#000000ff"/>
		<circle cx="226" cy="156" r="3" fill="#000000ff"/>
		<circle cx="226" cy="170" r="3" fill="#000000ff"/>
		<circle cx="226" cy="177" r="3" fill="#000000ff"/>
		<circle cx="226" cy="184" r="3" fill="#000000ff"/>
		<circle cx="226" cy="191" r="3" fill="#000000ff"/>
		<circle cx="226" cy="198" r="3" fill="#000000ff"/>
		<circle cx="226" cy="205" r="3" fill="#000000ff"/>
		<circle cx="226" cy="212" r="3" fill="#000000ff"/>
		<circle cx="226" cy="219" r="3" fill="#000000ff"/>
		<circle cx="226" cy="247" r="3" fill="#000000ff"/>
		<circle cx="226" cy="268" r="3" fill="#000000ff"/>
		<circle cx="226" cy="275" r="3" fill="#000000ff"/>
		<circle cx="233" cy="23" r="3" fill="#000000ff"/>
		<circle cx="233" cy="30" r="3" fill="#000000ff"/>
		<circle cx="233" cy="37" r="3" fill="#000000ff"/>
		<circle cx="233" cy="44" r="3" fill="#000000ff"/>
		<circle cx="233" cy="51" r="3" fill="#000000ff"/>
		<circle cx="233" cy="58" r="3" fill="#000000ff"/>
		<circle cx="233" cy="65" r="3" fill="#000000ff"/>
		<circle cx="233" cy="79" r="3" fill="#000000ff"/>
		<circle cx="233" cy="93" r="3" fill="#000000ff"/>
		<circle cx="233" cy="107" r="3" fill="#000000ff"/>
		<circle cx="233" cy="114" r="3" fill="#000000ff"/>
		<circle cx="233" cy="121" r="3" fill="#000000ff"/>
		<circle cx="233" cy="149" r="3" fill="#000000ff"/>
		<circle cx="233" cy="156" r="3" fill="#000000ff"/>
		<circle cx="233" cy="163" r="3" fill="#000000ff"/>
		<circle cx="233" cy="177" r="3" fill="#000000ff"/>
		<circle cx="233" cy="184" r="3" fill="#000000ff"/>
		<circle cx="233" cy="191" r="3" fill="#000000ff"/>
		<circle cx="233" cy="198" r="3" fill="#000000ff"/>
		<circle cx="233" cy="205" r="3" fill="#000000ff"/>
		<circle cx="233" cy="219" r="3" fill="#000000ff"/>
		<circle cx="233" cy="233" r="3" fill="#000000ff"/>
		<circle cx="233" cy="247" r="3" fill="#000000ff"/>
		<circle cx="233" cy="254" r="3" fill="#000000ff"/>
		<circle cx="233" cy="261" r="3" fill="#000000ff"/>
		<circle cx="233" cy="268" r="3" fill="#000000ff"/>
		<circle cx="240" cy="23" r="3" fill="#000000ff"/>
		<circle cx="240" cy="65" r="3" fill="#000000ff"/>
		<circle cx="240" cy="79" r="3" fill="#000000ff"/>
		<circle cx="240" cy="93" r="3" fill="#000000ff"/>
		<circle cx="240" cy="100" r="3" fill="#000000ff"/>
		<circle cx="240" cy="114" r="3" fill="#000000ff"/>
		<circle cx="240" cy="128" r="3" fill="#000000ff"/>
		<circle cx="240" cy="142" r="3" fill="#000000ff"/>
		<circle cx="240" cy="156" r="3" fill="#000000ff"/>
		<circle cx="240" cy="170" r="3" fill="#000000ff"/>
		<circle cx="240" cy="177" r="3" fill="#000000ff"/>
		<circle cx="240" cy="184" r="3" fill="#000000ff"/>
		<circle cx="240" cy="205" r="3" fill="#000000ff"/>
		<circle cx="240" cy="219" r="3" fill="#000000ff"/>
		<circle cx="240" cy="247" r="3" fill="#000000ff"/>
		<circle cx="240" cy="254" r="3" fill="#000000ff"/>
		<circle cx="240" cy="261" r="3" fill="#000000ff"/>
		<circle cx="247" cy="23" r="3" fill="#000000ff"/>
		<circle cx="247" cy="37" r="3" fill="#000000ff"/>
		<circle cx="247" cy="44" r="3" fill="#000000ff"/>
		<circle cx="247" cy="51" r="3" fill="#000000ff"/>
		<circle cx="247" cy="65" r="3" fill="#000000ff"/>
		<circle cx="247" cy="93" r="3" fill="#000000ff"/>
		<circle cx="247" cy="107" r="3" fill="#000000ff"/>
		<circle cx="247" cy="135" r="3" fill="#000000ff"/>
		<circle cx="247" cy="142" r="3" fill="#000000ff"/>
		<circle cx="247" cy="149" r="3" fill="#000000ff"/>
		<circle cx="247" cy="177" r="3" fill="#000000ff"/>
		<circle cx="247" cy="198" r="3" fill="#000000ff"/>
		<circle cx="247" cy="205" r="3" fill="#000000ff"/>
		<circle cx="247" cy="219" r="3" fill="#000000ff"/>
		<circle cx="247" cy="226" r="3" fill="#000000ff"/>
		<circle cx="247" cy="233" r="3" fill="#000000ff"/>
		<circle cx="247" cy="240" r="3" fill="#000000ff"/>
		<circle cx="247" cy="247" r="3" fill="#000000ff"/>
		<circle cx="247" cy="254" r="3" fill="#000000ff"/>
		<circle cx="247" cy="261" r="3" fill="#000000ff"/>
		<circle cx="247" cy="268" r="3" fill="#000000ff"/>
		<circle cx="254" cy="23" r="3" fill="#000000ff"/>
		<circle cx="254" cy="37" r="3" fill="#000000ff"/>
		<circle cx="254" cy="44" r="3" fill="#000000ff"/>
		<circle cx="254" cy="51" r="3" fill="#000000ff"/>
		<circle cx="254" cy="65" r="3" fill="#000000ff"/>
		<circle cx="254" cy="86" r="3" fill="#000000ff"/>
		<circle cx="254" cy="100" r="3" fill="#000000ff"/>
		<circle cx="254" cy="114" r="3" fill="#000000ff"/>
		<circle cx="254" cy="121" r="3" fill="#000000ff"/>
		<circle cx="254" cy="128" r="3" fill="#000000ff"/>
		<circle cx="254" cy="156" r="3" fill="#000000ff"/>
		<circle cx="254" cy="163" r="3" fill="#000000ff"/>
		<circle cx="254" cy="184" r="3" fill="#000000ff"/>
		<circle cx="254" cy="191" r="3" fill="#000000ff"/>
		<circle cx="254" cy="198" r="3" fill="#000000ff"/>
		<circle cx="254" cy="233" r="3" fill="#000000ff"/>
		<circle cx="254" cy="240" r="3" fill="#000000ff"/>
		<circle cx="254" cy="247" r="3" fill="#000000ff"/>
		<circle cx="254" cy="261" r="3" fill="#000000ff"/>
		<circle cx="254" cy="268" r="3" fill="#000000ff"/>
		<circle cx="261" cy="23" r="3" fill="#000000ff"/>
		<circle cx="261" cy="37" r="3" fill="#000000ff"/>
		<circle cx="261" cy="44" r="3" fill="#000000ff"/>
		<circle cx="261" cy="51" r="3" fill="#000000ff"/>
		<circle cx="261" cy="65" r="3" fill="#000000ff"/>
		<circle cx="261" cy="79" r="3" fill="#000000ff"/>
		<circle cx="261" cy="93" r="3" fill="#000000ff"/>
		<circle cx="261" cy="121" r="3" fill="#000000ff"/>
		<circle cx="261" cy="128" r="3" fill="#000000ff"/>
		<circle cx="261" cy="135" r="3" fill="#000000ff"/>
		<circle cx="261" cy="149" r="3" fill="#000000ff"/>
		<circle cx="261" cy="156" r="3" fill="#000000ff"/>
		<circle cx="261" cy="177" r="3" fill="#000000ff"/>
		<circle cx="261" cy="191" r="3" fill="#000000ff"/>
		<circle cx="261" cy="205" r="3" fill="#000000ff"/>
		<circle cx="261" cy="219" r="3" fill="#000000ff"/>
		<circle cx="261" cy="233" r="3" fill="#000000ff"/>
		<circle cx="261" cy="240" r="3" fill="#000000ff"/>
		<circle cx="261" cy="261" r="3" fill="#000000ff"/>
		<circle cx="261" cy="268" r="3" fill="#000000ff"/>
		<circle cx="268" cy="23" r="3" fill="#000000ff"/>
		<circle cx="268" cy="65" r="3" fill="#000000ff"/>
		<circle cx="268" cy="79" r="3" fill="#000000ff"/>
		<circle cx="268" cy="86" r="3" fill="#000000ff"/>
		<circle cx="268" cy="93" r="3" fill="#000000ff"/>
		<circle cx="268" cy="114" r="3" fill="#000000ff"/>
		<circle cx="268" cy="135" r="3" fill="#000000ff"/>
		<circle cx="268" cy="149" r="3" fill="#000000ff"/>
		<circle cx="268" cy="170" r="3" fill="#000000ff"/>
		<circle cx="268" cy="177" r="3" fill="#000000ff"/>
		<circle cx="268" cy="191" r="3" fill="#000000ff"/>
		<circle cx="268" cy="198" r="3" fill="#000000ff"/>
		<circle cx="268" cy="205" r="3" fill="#000000ff"/>
		<circle cx="268" cy="219" r="3" fill="#000000ff"/>
		<circle cx="268" cy="226" r="3" fill="#000000ff"/>
		<circle cx="268" cy="233" r="3" fill="#000000ff"/>
		<circle cx="268" cy="247" r="3" fill="#000000ff"/>
		<circle cx="268" cy="254" r="3" fill="#000000ff"/>
		<circle cx="268" cy="268" r="3" fill="#000000ff"/>
		<circle cx="268" cy="275" r="3" fill="#000000ff"/>
		<circle cx="275" cy="23" r="3" fill="#000000ff"/>
		<circle cx="275" cy="30" r="3" fill="#000000ff"/>
		<circle cx="275" cy="37" r="3" fill="#000000ff"/>
		<circle cx="275" cy="44" r="3" fill="#000000ff"/>
		<circle cx="275" cy="51" r="3" fill="#000000ff"/>
		<circle cx="275" cy="58" r="3" fill="#000000ff"/>
		<circle cx="275" cy="65" r="3" fill="#000000ff"/>
		<circle cx="275" cy="79" r="3" fill="#000000ff"/>
		<circle cx="275" cy="107" r="3" fill="#000000ff"/>
		<circle cx="275" cy="114" r="3" fill="#000000ff"/>
		<circle cx="275" cy="135" r="3" fill="#000000ff"/>
		<circle cx="275" cy="142" r="3" fill="#000000ff"/>
		<circle cx="275" cy="149" r="3" fill="#000000ff"/>
		<circle cx="275" cy="177" r="3" fill="#000000ff"/>
		<circle cx="275" cy="191" r="3" fill="#000000ff"/>
		<circle cx="275" cy="198" r="3" fill="#000000ff"/>
		<circle cx="275" cy="219" r="3" fill="#000000ff"/>
		<circle cx="275" cy="226" r="3" fill="#000000ff"/>
		<circle cx="275" cy="233" r="3" fill="#000000ff"/>
		<circle cx="275" cy="247" r="3" fill="#000000ff"/>
		<circle cx="275" cy="254" r="3" fill="#000000ff"/>
		<circle cx="275" cy="261" r="3" fill="#000000ff"/>
		<circle cx="275" cy="275" r="3" fill="#000000ff"/>

	</g>
</svg>