<?xml version="1.0" encoding="utf-8"?>
<svg xmlns="http://www.w3.org/2000/svg" xmlns:xlink="http://www.w3.org/1999/xlink" width="500" height="500" viewBox="0 0 500 500">

	<symbol id="ten" viewBox="0 0 1024 1024"><path d="M128 416h768v192H128z" fill="#ee0000" p-id="2440"></path><path d="M896 640H128a32 32 0 0 1-32-32v-192a32 32 0 0 1 32-32h768a32 32 0 0 1 32 32v192a32 32 0 0 1-32 32zM160 576h704v-128H160z" fill="#ee0000" p-id="2441"></path><path d="M416 896V128h192v768z" fill="#ee0000" p-id="2442"></path><path d="M608 928h-192a32 32 0 0 1-32-32V128a32 32 0 0 1 32-32h192a32 32 0 0 1 32 32v768a32 32 0 0 1-32 32z m-160-64h128V160h-128z" fill="#ee0000" p-id="2443"></path></symbol>
	<g id="qr">
		<rect fill="#ffffffff" x="0" y="0" width="500" height="500" />
		<rect fill="#000000ff" x="28" y="28" width="12" height="12" />
		<rect fill="#000000ff" x="28" y="40" width="12" height="12" />
		<rect fill="#000000ff" x="28" y="52" width="12" height="12" />
		<rect fill="#000000ff" x="28" y="64" width="12" height="12" />
		<rect fill="#000000ff" x="28" y="76" width="12" height="12" />
		<rect fill="#000000ff" x="28" y="88" width="12" height="12" />
		<rect fill="#000000ff" x="28" y="100" width="12" height="12" />
		<rect fill="#000000ff" x="28" y="388" width="12" height="12" />
		<rect fill="#000000ff" x="28" y="400" width="12" height="12" />
		<rect fill="#000000ff" x="28" y="412" width="12" height="12" />
		<rect fill="#000000ff" x="28" y="424" width="12" height="12" />
		<rect fill="#000000ff" x="28" y="436" width="12" height="12" />
		<rect fill="#000000ff" x="28" y="448" width="12" height="12" />
		<rect fill="#000000ff" x="28" y="460" width="12" height="12" />
		<rect fill="#000000ff" x="40" y="28" width="12" height="12" />
		<rect fill="#000000ff" x="40" y="100" width="12" height="12" />
		<rect fill="#000000ff" x="40" y="388" width="12" height="12" />
		<rect fill="#000000ff" x="40" y="460" width="12" height="12" />
		<rect fill="#000000ff" x="52" y="28" width="12" height="12" />
		<rect fill="#000000ff" x="52" y="52" width="12" height="12" />
		<rect fill="#000000ff" x="52" y="64" width="12" height="12" />
		<rect fill="#000000ff" x="52" y="76" width="12" height="12" />
		<rect fill="#000000ff" x="52" y="100" width="12" height="12" />
		<rect fill="#000000ff" x="52" y="388" width="12" height="12" />
		<rect fill="#000000ff" x="52" y="412" width="12" height="12" />
		<rect fill="#000000ff" x="52" y="424" width="12" height="12" />
		<rect fill="#000000ff" x="52" y="436" width="12" height="12" />
		<rect fill="#000000ff" x="52" y="460" width="12" height="12" />
		<rect fill="#000000ff" x="64" y="28" width="12" height="12" />
		<rect fill="#000000ff" x="64" y="52" width="12" height="12" />
		<rect fill="#000000ff" x="64" y="64" width="12" height="12" />
		<rect fill="#000000ff" x="64" y="76" width="12" height="12" />
		<rect fill="#000000ff" x="64" y="100" width="12" height="12" />
		<rect fill="#000000ff" x="64" y="388" width="12" height="12" />
		<rect fill="#000000ff" x="64" y="412" width="12" height="12" />
		<rect fill="#000000ff" x="64" y="424" width="12" height="12" />
		<rect fill="#000000ff" x="64" y="436" width="12" height="12" />
		<rect fill="#000000ff" x="64" y="460" width="12" height="12" />
		<rect fill="#000000ff" x="76" y="28" width="12" height="12" />
		<rect fill="#000000ff" x="76" y="52" width="12" height="12" />
		<rect fill="#000000ff" x="76" y="64" width="12" height="12" />
		<rect fill="#000000ff" x="76" y="76" width="12" height="12" />
		<rect fill="#000000ff" x="76" y="100" width="12" height="12" />
		<rect fill="#000000ff" x="76" y="388" width="12" height="12" />
		<rect fill="#000000ff" x="76" y="412" width="12" height="12" />
		<rect fill="#000000ff" x="76" y="424" width="12" height="12" />
		<rect fill="#000000ff" x="76" y="436" width="12" height="12" />
		<rect fill="#000000ff" x="76" y="460" width="12" height="12" />
		<rect fill="#000000ff" x="88" y="28" width="12" height="12" />
		<rect fill="#000000ff" x="88" y="100" width="12" height="12" />
		<rect fill="#000000ff" x="88" y="388" width="12" height="12" />
		<rect fill="#000000ff" x="88" y="460" width="12" height="12" />
		<rect fill="#000000ff" x="100" y="28" width="12" height="12" />
		<rect fill="#000000ff" x="100" y="40" width="12" height="12" />
		<rect fill="#000000ff" x="100" y="52" width="12" height="12" />
		<rect fill="#000000ff" x="100" y="64" width="12" height="12" />
		<rect fill="#000000ff" x="100" y="76" width="12" height="12" />
		<rect fill="#000000ff" x="100" y="88" width="12" height="12" />
		<rect fill="#000000ff" x="100" y="100" width="12" height="12" />
		<rect fill="#000000ff" x="100" y="388" width="12" height="12" />
		<rect fill="#000000ff" x="100" y="400" width="12" height="12" />
		<rect fill="#000000ff" x="100" y="412" width="12" height="12" />
		<rect fill="#000000ff" x="100" y="424" width="12" height="12" />
		<rect fill="#000000ff" x="100" y="436" width="12" height="12" />
		<rect fill="#000000ff" x="100" y="448" width="12" height="12" />
		<rect fill="#000000ff" x="100" y="460" width="12" height="12" />
		<rect fill="#000000ff" x="364" y="364" width="12" height="12" />
		<rect fill="#000000ff" x="364" y="376" width="12" height="12" />
		<rect fill="#000000ff" x="364" y="388" width="12" height="12" />
		<rect fill="#000000ff" x="364" y="400" width="12" height="12" />
		<rect fill="#000000ff" x="364" y="412" width="12" height="12" />
		<rect fill="#000000ff" x="376" y="364" width="12" height="12" />
		<rect fill="#000000ff" x="376" y="412" width="12" height="12" />
		<rect fill="#000000ff" x="388" y="28" width="12" height="12" />
		<rect fill="#000000ff" x="388" y="40" width="12" height="12" />
		<rect fill="#000000ff" x="388" y="52" width="12" height="12" />
		<rect fill="#000000ff" x="388" y="64" width="12" height="12" />
		<rect fill="#000000ff" x="388" y="76" width="12" height="12" />
		<rect fill="#000000ff" x="388" y="88" width="12" height="12" />
		<rect fill="#000000ff" x="388" y="100" width="12" height="12" />
		<rect fill="#000000ff" x="388" y="364" width="12" height="12" />
		<rect fill="#000000ff" x="388" y="388" width="12" height="12" />
		<rect fill="#000000ff" x="388" y="412" width="12" height="12" />
		<rect fill="#000000ff" x="400" y="28" width="12" height="12" />
		<rect fill="#000000ff" x="400" y="100" width="12" height="12" />
		<rect fill="#000000ff" x="400" y="364" width="12" height="12" />
		<rect fill="#000000ff" x="400" y="412" width="12" height="12" />
		<rect fill="#000000ff" x="412" y="28" width="12" height="12" />
		<rect fill="#000000ff" x="412" y="52" width="12" height="12" />
		<rect fill="#000000ff" x="412" y="64" width="12" height="12" />
		<rect fill="#000000ff" x="412" y="76" width="12" height="12" />
		<rect fill="#000000ff" x="412" y="100" width="12" height="12" />
		<rect fill="#000000ff" x="412" y="364" width="12" height="12" />
		<rect fill="#000000ff" x="412" y="376" width="12" height="12" />
		<rect fill="#000000ff" x="412" y="388" width="12" height="12" />
		<rect fill="#000000ff" x="412" y="400" width="12" height="12" />
		<rect fill="#000000ff" x="412" y="412" width="12" height="12" />
		<rect fill="#000000ff" x="424" y="28" width="12" height="12" />
		<rect fill="#000000ff" x="424" y="52" width="12" height="12" />
		<rect fill="#000000ff" x="424" y="64" width="12" height="12" />
		<rect fill="#000000ff" x="424" y="76" width="12" height="12" />
		<rect fill="#000000ff" x="424" y="100" width="12" height="12" />
		<rect fill="#000000ff" x="436" y="28" width="12" height="12" />
		<rect fill="#000000ff" x="436" y="52" width="12" height="12" />
		<rect fill="#000000ff" x="436" y="64" width="12" height="12" />
		<rect fill="#000000ff" x="436" y="76" width="12" height="12" />
		<rect fill="#000000ff" x="436" y="100" width="12" height="12" />
		<rect fill="#000000ff" x="448" y="28" width="12" height="12" />
		<rect fill="#000000ff" x="448" y="100" width="12" height="12" />
		<rect fill="#000000ff" x="460" y="28" width="12" height="12" />
		<rect fill="#000000ff" x="460" y="40" width="12" height="12" />
		<rect fill="#000000ff" x="460" y="52" width="12" height="12" />
		<rect fill="#000000ff" x="460" y="64" width="12" height="12" />
		<rect fill="#000000ff" x="460" y="76" width="12" height="12" />
		<rect fill="#000000ff" x="460" y="88" width="12" height="12" />
		<rect fill="#000000ff" x="460" y="100" width="12" height="12" />
		<use xlink:href="#ten" x="52" y="184" width="36" height="36" />
		<use xlink:href="#ten" x="112" y="196" width="36" height="36" />
		<use xlink:href="#ten" x="112" y="232" width="36" height="36" />
		<use xlink:href="#ten" x="112" y="316" width="36" height="36" />
		<use xlink:href="#ten" x="124" y="136" width="36" height="36" />
		<use xlink:href="#ten" x="136" y="40" width="36" height="36" />
		<use xlink:href="#ten" x="136" y="100" width="36" height="36" />
		<use xlink:href="#ten" x="136" y="364" width="36" height="36" />
		<use xlink:href="#ten" x="160" y="112" width="36" height="36" />
		<use xlink:href="#ten" x="172" y="280" width="36" height="36" />
		<use xlink:href="#ten" x="196" y="196" width="36" height="36" />
		<use xlink:href="#ten" x="220" y="208" width="36" height="36" />
		<use xlink:href="#ten" x="220" y="352" width="36" height="36" />
		<use xlink:href="#ten" x="292" y="196" width="36" height="36" />
		<use xlink:href="#ten" x="304" y="304" width="36" height="36" />
		<use xlink:href="#ten" x="328" y="328" width="36" height="36" />
		<use xlink:href="#ten" x="352" y="160" width="36" height="36" />
		<use xlink:href="#ten" x="364" y="280" width="36" height="36" />
		<use xlink:href="#ten" x="376" y="244" width="36" height="36" />
		<use xlink:href="#ten" x="400" y="424" width="36" height="36" />
		<polygon points="34.0,136.6 30.4,147.88 39.4,140.68 28.6,140.68 37.6,147.88 "  style="fill:#ff0000ff;fill-rule:nonzero;" />
		<polygon points="34.0,172.6 30.4,183.88 39.4,176.68 28.6,176.68 37.6,183.88 "  style="fill:#ff0000ff;fill-rule:nonzero;" />
		<polygon points="34.0,244.6 30.4,255.88 39.4,248.68 28.6,248.68 37.6,255.88 "  style="fill:#ff0000ff;fill-rule:nonzero;" />
		<polygon points="34.0,304.6 30.4,315.88 39.4,308.68 28.6,308.68 37.6,315.88 "  style="fill:#ff0000ff;fill-rule:nonzero;" />
		<polygon points="34.0,328.6 30.4,339.88 39.4,332.68 28.6,332.68 37.6,339.88 "  style="fill:#ff0000ff;fill-rule:nonzero;" />
		<polygon points="34.0,340.6 30.4,351.88 39.4,344.68 28.6,344.68 37.6,351.88 "  style="fill:#ff0000ff;fill-rule:nonzero;" />
		<polygon points="34.0,352.6 30.4,363.88 39.4,356.68 28.6,356.68 37.6,363.88 "  style="fill:#ff0000ff;fill-rule:nonzero;" />
		<polygon points="34.0,364.6 30.4,375.88 39.4,368.68 28.6,368.68 37.6,375.88 "  style="fill:#ff0000ff;fill-rule:nonzero;" />
		<polygon points="46.0,196.6 42.4,207.88 51.4,200.68 40.6,200.68 49.6,207.88 "  style="fill:#ff0000ff;fill-rule:nonzero;" />
		<polygon points="46.0,208.6 42.4,219.88 51.4,212.68 40.6,212.68 49.6,219.88 "  style="fill:#ff0000ff;fill-rule:nonzero;" />
		<polygon points="46.0,244.6 42.4,255.88 51.4,248.68 40.6,248.68 49.6,255.88 "  style="fill:#ff0000ff;fill-rule:nonzero;" />
		<polygon points="46.0,292.6 42.4,303.88 51.4,296.68 40.6,296.68 49.6,303.88 "  style="fill:#ff0000ff;fill-rule:nonzero;" />
		<polygon points="46.0,304.6 42.4,315.88 51.4,308.68 40.6,308.68 49.6,315.88 "  style="fill:#ff0000ff;fill-rule:nonzero;" />
		<polygon points="46.0,328.6 42.4,339.88 51.4,332.68 40.6,332.68 49.6,339.88 "  style="fill:#ff0000ff;fill-rule:nonzero;" />
		<polygon points="58.0,124.6 54.4,135.88 63.4,128.68 52.6,128.68 61.6,135.88 "  style="fill:#ff0000ff;fill-rule:nonzero;" />
		<polygon points="58.0,148.6 54.4,159.88 63.4,152.68 52.6,152.68 61.6,159.88 "  style="fill:#ff0000ff;fill-rule:nonzero;" />
		<polygon points="58.0,172.6 54.4,183.88 63.4,176.68 52.6,176.68 61.6,183.88 "  style="fill:#ff0000ff;fill-rule:nonzero;" />
		<polygon points="58.0,232.6 54.4,243.88 63.4,236.68 52.6,236.68 61.6,243.88 "  style="fill:#ff0000ff;fill-rule:nonzero;" />
		<polygon points="58.0,256.6 54.4,267.88 63.4,260.68 52.6,260.68 61.6,267.88 "  style="fill:#ff0000ff;fill-rule:nonzero;" />
		<polygon points="58.0,268.6 54.4,279.88 63.4,272.68 52.6,272.68 61.6,279.88 "  style="fill:#ff0000ff;fill-rule:nonzero;" />
		<polygon points="58.0,280.6 54.4,291.88 63.4,284.68 52.6,284.68 61.6,291.88 "  style="fill:#ff0000ff;fill-rule:nonzero;" />
		<polygon points="58.0,292.6 54.4,303.88 63.4,296.68 52.6,296.68 61.6,303.88 "  style="fill:#ff0000ff;fill-rule:nonzero;" />
		<polygon points="58.0,340.6 54.4,351.88 63.4,344.68 52.6,344.68 61.6,351.88 "  style="fill:#ff0000ff;fill-rule:nonzero;" />
		<polygon points="58.0,352.6 54.4,363.88 63.4,356.68 52.6,356.68 61.6,363.88 "  style="fill:#ff0000ff;fill-rule:nonzero;" />
		<polygon points="58.0,364.6 54.4,375.88 63.4,368.68 52.6,368.68 61.6,375.88 "  style="fill:#ff0000ff;fill-rule:nonzero;" />
		<polygon points="70.0,124.6 66.4,135.88 75.4,128.68 64.6,128.68 73.6,135.88 "  style="fill:#ff0000ff;fill-rule:nonzero;" />
		<polygon points="70.0,172.6 66.4,183.88 75.4,176.68 64.6,176.68 73.6,183.88 "  style="fill:#ff0000ff;fill-rule:nonzero;" />
		<polygon points="70.0,232.6 66.4,243.88 75.4,236.68 64.6,236.68 73.6,243.88 "  style="fill:#ff0000ff;fill-rule:nonzero;" />
		<polygon points="70.0,244.6 66.4,255.88 75.4,248.68 64.6,248.68 73.6,255.88 "  style="fill:#ff0000ff;fill-rule:nonzero;" />
		<polygon points="70.0,268.6 66.4,279.88 75.4,272.68 64.6,272.68 73.6,279.88 "  style="fill:#ff0000ff;fill-rule:nonzero;" />
		<polygon points="70.0,328.6 66.4,339.88 75.4,332.68 64.6,332.68 73.6,339.88 "  style="fill:#ff0000ff;fill-rule:nonzero;" />
		<polygon points="70.0,352.6 66.4,363.88 75.4,356.68 64.6,356.68 73.6,363.88 "  style="fill:#ff0000ff;fill-rule:nonzero;" />
		<polygon points="82.0,124.6 78.4,135.88 87.4,128.68 76.6,128.68 85.6,135.88 "  style="fill:#ff0000ff;fill-rule:nonzero;" />
		<polygon points="82.0,136.6 78.4,147.88 87.4,140.68 76.6,140.68 85.6,147.88 "  style="fill:#ff0000ff;fill-rule:nonzero;" />
		<polygon points="82.0,148.6 78.4,159.88 87.4,152.68 76.6,152.68 85.6,159.88 "  style="fill:#ff0000ff;fill-rule:nonzero;" />
		<polygon points="82.0,160.6 78.4,171.88 87.4,164.68 76.6,164.68 85.6,171.88 "  style="fill:#ff0000ff;fill-rule:nonzero;" />
		<polygon points="82.0,172.6 78.4,183.88 87.4,176.68 76.6,176.68 85.6,183.88 "  style="fill:#ff0000ff;fill-rule:nonzero;" />
		<polygon points="82.0,184.6 78.4,195.88 87.4,188.68 76.6,188.68 85.6,195.88 "  style="fill:#ff0000ff;fill-rule:nonzero;" />
		<polygon points="82.0,208.6 78.4,219.88 87.4,212.68 76.6,212.68 85.6,219.88 "  style="fill:#ff0000ff;fill-rule:nonzero;" />
		<polygon points="82.0,232.6 78.4,243.88 87.4,236.68 76.6,236.68 85.6,243.88 "  style="fill:#ff0000ff;fill-rule:nonzero;" />
		<polygon points="82.0,292.6 78.4,303.88 87.4,296.68 76.6,296.68 85.6,303.88 "  style="fill:#ff0000ff;fill-rule:nonzero;" />
		<polygon points="82.0,328.6 78.4,339.88 87.4,332.68 76.6,332.68 85.6,339.88 "  style="fill:#ff0000ff;fill-rule:nonzero;" />
		<polygon points="82.0,340.6 78.4,351.88 87.4,344.68 76.6,344.68 85.6,351.88 "  style="fill:#ff0000ff;fill-rule:nonzero;" />
		<polygon points="82.0,352.6 78.4,363.88 87.4,356.68 76.6,356.68 85.6,363.88 "  style="fill:#ff0000ff;fill-rule:nonzero;" />
		<polygon points="82.0,364.6 78.4,375.88 87.4,368.68 76.6,368.68 85.6,375.88 "  style="fill:#ff0000ff;fill-rule:nonzero;" />
		<polygon points="94.0,148.6 90.4,159.88 99.4,152.68 88.6,152.68 97.6,159.88 "  style="fill:#ff0000ff;fill-rule:nonzero;" />
		<polygon points="94.0,160.6 90.4,171.88 99.4,164.68 88.6,164.68 97.6,171.88 "  style="fill:#ff0000ff;fill-rule:nonzero;" />
		<polygon points="94.0,184.6 90.4,195.88 99.4,188.68 88.6,188.68 97.6,195.88 "  style="fill:#ff0000ff;fill-rule:nonzero;" />
		<polygon points="94.0,196.6 90.4,207.88 99.4,200.68 88.6,200.68 97.6,207.88 "  style="fill:#ff0000ff;fill-rule:nonzero;" />
		<polygon points="94.0,208.6 90.4,219.88 99.4,212.68 88.6,212.68 97.6,219.88 "  style="fill:#ff0000ff;fill-rule:nonzero;" />
		<polygon points="94.0,220.6 90.4,231.88 99.4,224.68 88.6,224.68 97.6,231.88 "  style="fill:#ff0000ff;fill-rule:nonzero;" />
		<polygon points="94.0,232.6 90.4,243.88 99.4,236.68 88.6,236.68 97.6,243.88 "  style="fill:#ff0000ff;fill-rule:nonzero;" />
		<polygon points="94.0,280.6 90.4,291.88 99.4,284.68 88.6,284.68 97.6,291.88 "  style="fill:#ff0000ff;fill-rule:nonzero;" />
		<polygon points="94.0,304.6 90.4,315.88 99.4,308.68 88.6,308.68 97.6,315.88 "  style="fill:#ff0000ff;fill-rule:nonzero;" />
		<polygon points="94.0,328.6 90.4,339.88 99.4,332.68 88.6,332.68 97.6,339.88 "  style="fill:#ff0000ff;fill-rule:nonzero;" />
		<polygon points="106.0,124.6 102.4,135.88 111.4,128.68 100.6,128.68 109.6,135.88 "  style="fill:#ff0000ff;fill-rule:nonzero;" />
		<polygon points="106.0,148.6 102.4,159.88 111.4,152.68 100.6,152.68 109.6,159.88 "  style="fill:#ff0000ff;fill-rule:nonzero;" />
		<polygon points="106.0,172.6 102.4,183.88 111.4,176.68 100.6,176.68 109.6,183.88 "  style="fill:#ff0000ff;fill-rule:nonzero;" />
		<polygon points="106.0,196.6 102.4,207.88 111.4,200.68 100.6,200.68 109.6,207.88 "  style="fill:#ff0000ff;fill-rule:nonzero;" />
		<polygon points="106.0,220.6 102.4,231.88 111.4,224.68 100.6,224.68 109.6,231.88 "  style="fill:#ff0000ff;fill-rule:nonzero;" />
		<polygon points="106.0,244.6 102.4,255.88 111.4,248.68 100.6,248.68 109.6,255.88 "  style="fill:#ff0000ff;fill-rule:nonzero;" />
		<polygon points="106.0,268.6 102.4,279.88 111.4,272.68 100.6,272.68 109.6,279.88 "  style="fill:#ff0000ff;fill-rule:nonzero;" />
		<polygon points="106.0,292.6 102.4,303.88 111.4,296.68 100.6,296.68 109.6,303.88 "  style="fill:#ff0000ff;fill-rule:nonzero;" />
		<polygon points="106.0,316.6 102.4,327.88 111.4,320.68 100.6,320.68 109.6,327.88 "  style="fill:#ff0000ff;fill-rule:nonzero;" />
		<polygon points="106.0,340.6 102.4,351.88 111.4,344.68 100.6,344.68 109.6,351.88 "  style="fill:#ff0000ff;fill-rule:nonzero;" />
		<polygon points="106.0,364.6 102.4,375.88 111.4,368.68 100.6,368.68 109.6,375.88 "  style="fill:#ff0000ff;fill-rule:nonzero;" />
		<polygon points="118.0,148.6 114.4,159.88 123.4,152.68 112.6,152.68 121.6,159.88 "  style="fill:#ff0000ff;fill-rule:nonzero;" />
		<polygon points="118.0,268.6 114.4,279.88 123.4,272.68 112.6,272.68 121.6,279.88 "  style="fill:#ff0000ff;fill-rule:nonzero;" />
		<polygon points="118.0,304.6 114.4,315.88 123.4,308.68 112.6,308.68 121.6,315.88 "  style="fill:#ff0000ff;fill-rule:nonzero;" />
		<polygon points="118.0,352.6 114.4,363.88 123.4,356.68 112.6,356.68 121.6,363.88 "  style="fill:#ff0000ff;fill-rule:nonzero;" />
		<polygon points="118.0,364.6 114.4,375.88 123.4,368.68 112.6,368.68 121.6,375.88 "  style="fill:#ff0000ff;fill-rule:nonzero;" />
		<polygon points="130.0,28.6 126.4,39.88 135.4,32.68 124.6,32.68 133.6,39.88 "  style="fill:#ff0000ff;fill-rule:nonzero;" />
		<polygon points="130.0,40.6 126.4,51.88 135.4,44.68 124.6,44.68 133.6,51.88 "  style="fill:#ff0000ff;fill-rule:nonzero;" />
		<polygon points="130.0,52.6 126.4,63.88 135.4,56.68 124.6,56.68 133.6,63.88 "  style="fill:#ff0000ff;fill-rule:nonzero;" />
		<polygon points="130.0,88.6 126.4,99.88 135.4,92.68 124.6,92.68 133.6,99.88 "  style="fill:#ff0000ff;fill-rule:nonzero;" />
		<polygon points="130.0,100.6 126.4,111.88 135.4,104.68 124.6,104.68 133.6,111.88 "  style="fill:#ff0000ff;fill-rule:nonzero;" />
		<polygon points="130.0,112.6 126.4,123.88 135.4,116.68 124.6,116.68 133.6,123.88 "  style="fill:#ff0000ff;fill-rule:nonzero;" />
		<polygon points="130.0,124.6 126.4,135.88 135.4,128.68 124.6,128.68 133.6,135.88 "  style="fill:#ff0000ff;fill-rule:nonzero;" />
		<polygon points="130.0,172.6 126.4,183.88 135.4,176.68 124.6,176.68 133.6,183.88 "  style="fill:#ff0000ff;fill-rule:nonzero;" />
		<polygon points="130.0,364.6 126.4,375.88 135.4,368.68 124.6,368.68 133.6,375.88 "  style="fill:#ff0000ff;fill-rule:nonzero;" />
		<polygon points="130.0,376.6 126.4,387.88 135.4,380.68 124.6,380.68 133.6,387.88 "  style="fill:#ff0000ff;fill-rule:nonzero;" />
		<polygon points="130.0,412.6 126.4,423.88 135.4,416.68 124.6,416.68 133.6,423.88 "  style="fill:#ff0000ff;fill-rule:nonzero;" />
		<polygon points="130.0,424.6 126.4,435.88 135.4,428.68 124.6,428.68 133.6,435.88 "  style="fill:#ff0000ff;fill-rule:nonzero;" />
		<polygon points="130.0,436.6 126.4,447.88 135.4,440.68 124.6,440.68 133.6,447.88 "  style="fill:#ff0000ff;fill-rule:nonzero;" />
		<polygon points="142.0,88.6 138.4,99.88 147.4,92.68 136.6,92.68 145.6,99.88 "  style="fill:#ff0000ff;fill-rule:nonzero;" />
		<polygon points="142.0,172.6 138.4,183.88 147.4,176.68 136.6,176.68 145.6,183.88 "  style="fill:#ff0000ff;fill-rule:nonzero;" />
		<polygon points="142.0,196.6 138.4,207.88 147.4,200.68 136.6,200.68 145.6,207.88 "  style="fill:#ff0000ff;fill-rule:nonzero;" />
		<polygon points="142.0,268.6 138.4,279.88 147.4,272.68 136.6,272.68 145.6,279.88 "  style="fill:#ff0000ff;fill-rule:nonzero;" />
		<polygon points="142.0,280.6 138.4,291.88 147.4,284.68 136.6,284.68 145.6,291.88 "  style="fill:#ff0000ff;fill-rule:nonzero;" />
		<polygon points="142.0,292.6 138.4,303.88 147.4,296.68 136.6,296.68 145.6,303.88 "  style="fill:#ff0000ff;fill-rule:nonzero;" />
		<polygon points="142.0,304.6 138.4,315.88 147.4,308.68 136.6,308.68 145.6,315.88 "  style="fill:#ff0000ff;fill-rule:nonzero;" />
		<polygon points="142.0,316.6 138.4,327.88 147.4,320.68 136.6,320.68 145.6,327.88 "  style="fill:#ff0000ff;fill-rule:nonzero;" />
		<polygon points="142.0,412.6 138.4,423.88 147.4,416.68 136.6,416.68 145.6,423.88 "  style="fill:#ff0000ff;fill-rule:nonzero;" />
		<polygon points="154.0,76.6 150.4,87.88 159.4,80.68 148.6,80.68 157.6,87.88 "  style="fill:#ff0000ff;fill-rule:nonzero;" />
		<polygon points="154.0,88.6 150.4,99.88 159.4,92.68 148.6,92.68 157.6,99.88 "  style="fill:#ff0000ff;fill-rule:nonzero;" />
		<polygon points="154.0,160.6 150.4,171.88 159.4,164.68 148.6,164.68 157.6,171.88 "  style="fill:#ff0000ff;fill-rule:nonzero;" />
		<polygon points="154.0,172.6 150.4,183.88 159.4,176.68 148.6,176.68 157.6,183.88 "  style="fill:#ff0000ff;fill-rule:nonzero;" />
		<polygon points="154.0,184.6 150.4,195.88 159.4,188.68 148.6,188.68 157.6,195.88 "  style="fill:#ff0000ff;fill-rule:nonzero;" />
		<polygon points="154.0,208.6 150.4,219.88 159.4,212.68 148.6,212.68 157.6,219.88 "  style="fill:#ff0000ff;fill-rule:nonzero;" />
		<polygon points="154.0,220.6 150.4,231.88 159.4,224.68 148.6,224.68 157.6,231.88 "  style="fill:#ff0000ff;fill-rule:nonzero;" />
		<polygon points="154.0,244.6 150.4,255.88 159.4,248.68 148.6,248.68 157.6,255.88 "  style="fill:#ff0000ff;fill-rule:nonzero;" />
		<polygon points="154.0,256.6 150.4,267.88 159.4,260.68 148.6,260.68 157.6,267.88 "  style="fill:#ff0000ff;fill-rule:nonzero;" />
		<polygon points="154.0,292.6 150.4,303.88 159.4,296.68 148.6,296.68 157.6,303.88 "  style="fill:#ff0000ff;fill-rule:nonzero;" />
		<polygon points="154.0,316.6 150.4,327.88 159.4,320.68 148.6,320.68 157.6,327.88 "  style="fill:#ff0000ff;fill-rule:nonzero;" />
		<polygon points="154.0,328.6 150.4,339.88 159.4,332.68 148.6,332.68 157.6,339.88 "  style="fill:#ff0000ff;fill-rule:nonzero;" />
		<polygon points="154.0,400.6 150.4,411.88 159.4,404.68 148.6,404.68 157.6,411.88 "  style="fill:#ff0000ff;fill-rule:nonzero;" />
		<polygon points="154.0,424.6 150.4,435.88 159.4,428.68 148.6,428.68 157.6,435.88 "  style="fill:#ff0000ff;fill-rule:nonzero;" />
		<polygon points="154.0,448.6 150.4,459.88 159.4,452.68 148.6,452.68 157.6,459.88 "  style="fill:#ff0000ff;fill-rule:nonzero;" />
		<polygon points="166.0,64.6 162.4,75.88 171.4,68.68 160.6,68.68 169.6,75.88 "  style="fill:#ff0000ff;fill-rule:nonzero;" />
		<polygon points="166.0,76.6 162.4,87.88 171.4,80.68 160.6,80.68 169.6,87.88 "  style="fill:#ff0000ff;fill-rule:nonzero;" />
		<polygon points="166.0,148.6 162.4,159.88 171.4,152.68 160.6,152.68 169.6,159.88 "  style="fill:#ff0000ff;fill-rule:nonzero;" />
		<polygon points="166.0,184.6 162.4,195.88 171.4,188.68 160.6,188.68 169.6,195.88 "  style="fill:#ff0000ff;fill-rule:nonzero;" />
		<polygon points="166.0,196.6 162.4,207.88 171.4,200.68 160.6,200.68 169.6,207.88 "  style="fill:#ff0000ff;fill-rule:nonzero;" />
		<polygon points="166.0,208.6 162.4,219.88 171.4,212.68 160.6,212.68 169.6,219.88 "  style="fill:#ff0000ff;fill-rule:nonzero;" />
		<polygon points="166.0,256.6 162.4,267.88 171.4,260.68 160.6,260.68 169.6,267.88 "  style="fill:#ff0000ff;fill-rule:nonzero;" />
		<polygon points="166.0,280.6 162.4,291.88 171.4,284.68 160.6,284.68 169.6,291.88 "  style="fill:#ff0000ff;fill-rule:nonzero;" />
		<polygon points="166.0,328.6 162.4,339.88 171.4,332.68 160.6,332.68 169.6,339.88 "  style="fill:#ff0000ff;fill-rule:nonzero;" />
		<polygon points="166.0,340.6 162.4,351.88 171.4,344.68 160.6,344.68 169.6,351.88 "  style="fill:#ff0000ff;fill-rule:nonzero;" />
		<polygon points="166.0,364.6 162.4,375.88 171.4,368.68 160.6,368.68 169.6,375.88 "  style="fill:#ff0000ff;fill-rule:nonzero;" />
		<polygon points="178.0,40.6 174.4,51.88 183.4,44.68 172.6,44.68 181.6,51.88 "  style="fill:#ff0000ff;fill-rule:nonzero;" />
		<polygon points="178.0,52.6 174.4,63.88 183.4,56.68 172.6,56.68 181.6,63.88 "  style="fill:#ff0000ff;fill-rule:nonzero;" />
		<polygon points="178.0,64.6 174.4,75.88 183.4,68.68 172.6,68.68 181.6,75.88 "  style="fill:#ff0000ff;fill-rule:nonzero;" />
		<polygon points="178.0,76.6 174.4,87.88 183.4,80.68 172.6,80.68 181.6,87.88 "  style="fill:#ff0000ff;fill-rule:nonzero;" />
		<polygon points="178.0,100.6 174.4,111.88 183.4,104.68 172.6,104.68 181.6,111.88 "  style="fill:#ff0000ff;fill-rule:nonzero;" />
		<polygon points="178.0,184.6 174.4,195.88 183.4,188.68 172.6,188.68 181.6,195.88 "  style="fill:#ff0000ff;fill-rule:nonzero;" />
		<polygon points="178.0,196.6 174.4,207.88 183.4,200.68 172.6,200.68 181.6,207.88 "  style="fill:#ff0000ff;fill-rule:nonzero;" />
		<polygon points="178.0,208.6 174.4,219.88 183.4,212.68 172.6,212.68 181.6,219.88 "  style="fill:#ff0000ff;fill-rule:nonzero;" />
		<polygon points="178.0,244.6 174.4,255.88 183.4,248.68 172.6,248.68 181.6,255.88 "  style="fill:#ff0000ff;fill-rule:nonzero;" />
		<polygon points="178.0,304.6 174.4,315.88 183.4,308.68 172.6,308.68 181.6,315.88 "  style="fill:#ff0000ff;fill-rule:nonzero;" />
		<polygon points="178.0,316.6 174.4,327.88 183.4,320.68 172.6,320.68 181.6,327.88 "  style="fill:#ff0000ff;fill-rule:nonzero;" />
		<polygon points="178.0,364.6 174.4,375.88 183.4,368.68 172.6,368.68 181.6,375.88 "  style="fill:#ff0000ff;fill-rule:nonzero;" />
		<polygon points="178.0,388.6 174.4,399.88 183.4,392.68 172.6,392.68 181.6,399.88 "  style="fill:#ff0000ff;fill-rule:nonzero;" />
		<polygon points="178.0,412.6 174.4,423.88 183.4,416.68 172.6,416.68 181.6,423.88 "  style="fill:#ff0000ff;fill-rule:nonzero;" />
		<polygon points="178.0,424.6 174.4,435.88 183.4,428.68 172.6,428.68 181.6,435.88 "  style="fill:#ff0000ff;fill-rule:nonzero;" />
		<polygon points="178.0,436.6 174.4,447.88 183.4,440.68 172.6,440.68 181.6,447.88 "  style="fill:#ff0000ff;fill-rule:nonzero;" />
		<polygon points="178.0,448.6 174.4,459.88 183.4,452.68 172.6,452.68 181.6,459.88 "  style="fill:#ff0000ff;fill-rule:nonzero;" />
		<polygon points="178.0,460.6 174.4,471.88 183.4,464.68 172.6,464.68 181.6,471.88 "  style="fill:#ff0000ff;fill-rule:nonzero;" />
		<polygon points="190.0,76.6 186.4,87.88 195.4,80.68 184.6,80.68 193.6,87.88 "  style="fill:#ff0000ff;fill-rule:nonzero;" />
		<polygon points="190.0,136.6 186.4,147.88 195.4,140.68 184.6,140.68 193.6,147.88 "  style="fill:#ff0000ff;fill-rule:nonzero;" />
		<polygon points="190.0,160.6 186.4,171.88 195.4,164.68 184.6,164.68 193.6,171.88 "  style="fill:#ff0000ff;fill-rule:nonzero;" />
		<polygon points="190.0,172.6 186.4,183.88 195.4,176.68 184.6,176.68 193.6,183.88 "  style="fill:#ff0000ff;fill-rule:nonzero;" />
		<polygon points="190.0,208.6 186.4,219.88 195.4,212.68 184.6,212.68 193.6,219.88 "  style="fill:#ff0000ff;fill-rule:nonzero;" />
		<polygon points="190.0,220.6 186.4,231.88 195.4,224.68 184.6,224.68 193.6,231.88 "  style="fill:#ff0000ff;fill-rule:nonzero;" />
		<polygon points="190.0,244.6 186.4,255.88 195.4,248.68 184.6,248.68 193.6,255.88 "  style="fill:#ff0000ff;fill-rule:nonzero;" />
		<polygon points="190.0,256.6 186.4,267.88 195.4,260.68 184.6,260.68 193.6,267.88 "  style="fill:#ff0000ff;fill-rule:nonzero;" />
		<polygon points="190.0,268.6 186.4,279.88 195.4,272.68 184.6,272.68 193.6,279.88 "  style="fill:#ff0000ff;fill-rule:nonzero;" />
		<polygon points="190.0,316.6 186.4,327.88 195.4,320.68 184.6,320.68 193.6,327.88 "  style="fill:#ff0000ff;fill-rule:nonzero;" />
		<polygon points="190.0,352.6 186.4,363.88 195.4,356.68 184.6,356.68 193.6,363.88 "  style="fill:#ff0000ff;fill-rule:nonzero;" />
		<polygon points="190.0,400.6 186.4,411.88 195.4,404.68 184.6,404.68 193.6,411.88 "  style="fill:#ff0000ff;fill-rule:nonzero;" />
		<polygon points="190.0,412.6 186.4,423.88 195.4,416.68 184.6,416.68 193.6,423.88 "  style="fill:#ff0000ff;fill-rule:nonzero;" />
		<polygon points="190.0,436.6 186.4,447.88 195.4,440.68 184.6,440.68 193.6,447.88 "  style="fill:#ff0000ff;fill-rule:nonzero;" />
		<polygon points="190.0,460.6 186.4,471.88 195.4,464.68 184.6,464.68 193.6,471.88 "  style="fill:#ff0000ff;fill-rule:nonzero;" />
		<polygon points="202.0,52.6 198.4,63.88 207.4,56.68 196.6,56.68 205.6,63.88 "  style="fill:#ff0000ff;fill-rule:nonzero;" />
		<polygon points="202.0,64.6 198.4,75.88 207.4,68.68 196.6,68.68 205.6,75.88 "  style="fill:#ff0000ff;fill-rule:nonzero;" />
		<polygon points="202.0,88.6 198.4,99.88 207.4,92.68 196.6,92.68 205.6,99.88 "  style="fill:#ff0000ff;fill-rule:nonzero;" />
		<polygon points="202.0,100.6 198.4,111.88 207.4,104.68 196.6,104.68 205.6,111.88 "  style="fill:#ff0000ff;fill-rule:nonzero;" />
		<polygon points="202.0,112.6 198.4,123.88 207.4,116.68 196.6,116.68 205.6,123.88 "  style="fill:#ff0000ff;fill-rule:nonzero;" />
		<polygon points="202.0,136.6 198.4,147.88 207.4,140.68 196.6,140.68 205.6,147.88 "  style="fill:#ff0000ff;fill-rule:nonzero;" />
		<polygon points="202.0,172.6 198.4,183.88 207.4,176.68 196.6,176.68 205.6,183.88 "  style="fill:#ff0000ff;fill-rule:nonzero;" />
		<polygon points="202.0,184.6 198.4,195.88 207.4,188.68 196.6,188.68 205.6,195.88 "  style="fill:#ff0000ff;fill-rule:nonzero;" />
		<polygon points="202.0,196.6 198.4,207.88 207.4,200.68 196.6,200.68 205.6,207.88 "  style="fill:#ff0000ff;fill-rule:nonzero;" />
		<polygon points="202.0,232.6 198.4,243.88 207.4,236.68 196.6,236.68 205.6,243.88 "  style="fill:#ff0000ff;fill-rule:nonzero;" />
		<polygon points="202.0,316.6 198.4,327.88 207.4,320.68 196.6,320.68 205.6,327.88 "  style="fill:#ff0000ff;fill-rule:nonzero;" />
		<polygon points="202.0,328.6 198.4,339.88 207.4,332.68 196.6,332.68 205.6,339.88 "  style="fill:#ff0000ff;fill-rule:nonzero;" />
		<polygon points="202.0,340.6 198.4,351.88 207.4,344.68 196.6,344.68 205.6,351.88 "  style="fill:#ff0000ff;fill-rule:nonzero;" />
		<polygon points="202.0,376.6 198.4,387.88 207.4,380.68 196.6,380.68 205.6,387.88 "  style="fill:#ff0000ff;fill-rule:nonzero;" />
		<polygon points="202.0,412.6 198.4,423.88 207.4,416.68 196.6,416.68 205.6,423.88 "  style="fill:#ff0000ff;fill-rule:nonzero;" />
		<polygon points="202.0,424.6 198.4,435.88 207.4,428.68 196.6,428.68 205.6,435.88 "  style="fill:#ff0000ff;fill-rule:nonzero;" />
		<polygon points="202.0,460.6 198.4,471.88 207.4,464.68 196.6,464.68 205.6,471.88 "  style="fill:#ff0000ff;fill-rule:nonzero;" />
		<polygon points="214.0,28.6 210.4,39.88 219.4,32.68 208.6,32.68 217.6,39.88 "  style="fill:#ff0000ff;fill-rule:nonzero;" />
		<polygon points="214.0,52.6 210.4,63.88 219.4,56.68 208.6,56.68 217.6,63.88 "  style="fill:#ff0000ff;fill-rule:nonzero;" />
		<polygon points="214.0,124.6 210.4,135.88 219.4,128.68 208.6,128.68 217.6,135.88 "  style="fill:#ff0000ff;fill-rule:nonzero;" />
		<polygon points="214.0,136.6 210.4,147.88 219.4,140.68 208.6,140.68 217.6,147.88 "  style="fill:#ff0000ff;fill-rule:nonzero;" />
		<polygon points="214.0,148.6 210.4,159.88 219.4,152.68 208.6,152.68 217.6,159.88 "  style="fill:#ff0000ff;fill-rule:nonzero;" />
		<polygon points="214.0,172.6 210.4,183.88 219.4,176.68 208.6,176.68 217.6,183.88 "  style="fill:#ff0000ff;fill-rule:nonzero;" />
		<polygon points="214.0,244.6 210.4,255.88 219.4,248.68 208.6,248.68 217.6,255.88 "  style="fill:#ff0000ff;fill-rule:nonzero;" />
		<polygon points="214.0,268.6 210.4,279.88 219.4,272.68 208.6,272.68 217.6,279.88 "  style="fill:#ff0000ff;fill-rule:nonzero;" />
		<polygon points="214.0,292.6 210.4,303.88 219.4,296.68 208.6,296.68 217.6,303.88 "  style="fill:#ff0000ff;fill-rule:nonzero;" />
		<polygon points="214.0,304.6 210.4,315.88 219.4,308.68 208.6,308.68 217.6,315.88 "  style="fill:#ff0000ff;fill-rule:nonzero;" />
		<polygon points="214.0,340.6 210.4,351.88 219.4,344.68 208.6,344.68 217.6,351.88 "  style="fill:#ff0000ff;fill-rule:nonzero;" />
		<polygon points="214.0,352.6 210.4,363.88 219.4,356.68 208.6,356.68 217.6,363.88 "  style="fill:#ff0000ff;fill-rule:nonzero;" />
		<polygon points="214.0,400.6 210.4,411.88 219.4,404.68 208.6,404.68 217.6,411.88 "  style="fill:#ff0000ff;fill-rule:nonzero;" />
		<polygon points="214.0,436.6 210.4,447.88 219.4,440.68 208.6,440.68 217.6,447.88 "  style="fill:#ff0000ff;fill-rule:nonzero;" />
		<polygon points="226.0,52.6 222.4,63.88 231.4,56.68 220.6,56.68 229.6,63.88 "  style="fill:#ff0000ff;fill-rule:nonzero;" />
		<polygon points="226.0,100.6 222.4,111.88 231.4,104.68 220.6,104.68 229.6,111.88 "  style="fill:#ff0000ff;fill-rule:nonzero;" />
		<polygon points="226.0,124.6 222.4,135.88 231.4,128.68 220.6,128.68 229.6,135.88 "  style="fill:#ff0000ff;fill-rule:nonzero;" />
		<polygon points="226.0,184.6 222.4,195.88 231.4,188.68 220.6,188.68 229.6,195.88 "  style="fill:#ff0000ff;fill-rule:nonzero;" />
		<polygon points="226.0,244.6 222.4,255.88 231.4,248.68 220.6,248.68 229.6,255.88 "  style="fill:#ff0000ff;fill-rule:nonzero;" />
		<polygon points="226.0,256.6 222.4,267.88 231.4,260.68 220.6,260.68 229.6,267.88 "  style="fill:#ff0000ff;fill-rule:nonzero;" />
		<polygon points="226.0,268.6 222.4,279.88 231.4,272.68 220.6,272.68 229.6,279.88 "  style="fill:#ff0000ff;fill-rule:nonzero;" />
		<polygon points="226.0,280.6 222.4,291.88 231.4,284.68 220.6,284.68 229.6,291.88 "  style="fill:#ff0000ff;fill-rule:nonzero;" />
		<polygon points="226.0,292.6 222.4,303.88 231.4,296.68 220.6,296.68 229.6,303.88 "  style="fill:#ff0000ff;fill-rule:nonzero;" />
		<polygon points="226.0,328.6 222.4,339.88 231.4,332.68 220.6,332.68 229.6,339.88 "  style="fill:#ff0000ff;fill-rule:nonzero;" />
		<polygon points="226.0,376.6 222.4,387.88 231.4,380.68 220.6,380.68 229.6,387.88 "  style="fill:#ff0000ff;fill-rule:nonzero;" />
		<polygon points="226.0,388.6 222.4,399.88 231.4,392.68 220.6,392.68 229.6,399.88 "  style="fill:#ff0000ff;fill-rule:nonzero;" />
		<polygon points="226.0,412.6 222.4,423.88 231.4,416.68 220.6,416.68 229.6,423.88 "  style="fill:#ff0000ff;fill-rule:nonzero;" />
		<polygon points="226.0,460.6 222.4,471.88 231.4,464.68 220.6,464.68 229.6,471.88 "  style="fill:#ff0000ff;fill-rule:nonzero;" />
		<polygon points="238.0,40.6 234.4,51.88 243.4,44.68 232.6,44.68 241.6,51.88 "  style="fill:#ff0000ff;fill-rule:nonzero;" />
		<polygon points="238.0,88.6 234.4,99.88 243.4,92.68 232.6,92.68 241.6,99.88 "  style="fill:#ff0000ff;fill-rule:nonzero;" />
		<polygon points="238.0,112.6 234.4,123.88 243.4,116.68 232.6,116.68 241.6,123.88 "  style="fill:#ff0000ff;fill-rule:nonzero;" />
		<polygon points="238.0,172.6 234.4,183.88 243.4,176.68 232.6,176.68 241.6,183.88 "  style="fill:#ff0000ff;fill-rule:nonzero;" />
		<polygon points="238.0,196.6 234.4,207.88 243.4,200.68 232.6,200.68 241.6,207.88 "  style="fill:#ff0000ff;fill-rule:nonzero;" />
		<polygon points="238.0,280.6 234.4,291.88 243.4,284.68 232.6,284.68 241.6,291.88 "  style="fill:#ff0000ff;fill-rule:nonzero;" />
		<polygon points="238.0,292.6 234.4,303.88 243.4,296.68 232.6,296.68 241.6,303.88 "  style="fill:#ff0000ff;fill-rule:nonzero;" />
		<polygon points="238.0,304.6 234.4,315.88 243.4,308.68 232.6,308.68 241.6,315.88 "  style="fill:#ff0000ff;fill-rule:nonzero;" />
		<polygon points="238.0,316.6 234.4,327.88 243.4,320.68 232.6,320.68 241.6,327.88 "  style="fill:#ff0000ff;fill-rule:nonzero;" />
		<polygon points="238.0,340.6 234.4,351.88 243.4,344.68 232.6,344.68 241.6,351.88 "  style="fill:#ff0000ff;fill-rule:nonzero;" />
		<polygon points="238.0,412.6 234.4,423.88 243.4,416.68 232.6,416.68 241.6,423.88 "  style="fill:#ff0000ff;fill-rule:nonzero;" />
		<polygon points="250.0,40.6 246.4,51.88 255.4,44.68 244.6,44.68 253.6,51.88 "  style="fill:#ff0000ff;fill-rule:nonzero;" />
		<polygon points="250.0,64.6 246.4,75.88 255.4,68.68 244.6,68.68 253.6,75.88 "  style="fill:#ff0000ff;fill-rule:nonzero;" />
		<polygon points="250.0,88.6 246.4,99.88 255.4,92.68 244.6,92.68 253.6,99.88 "  style="fill:#ff0000ff;fill-rule:nonzero;" />
		<polygon points="250.0,100.6 246.4,111.88 255.4,104.68 244.6,104.68 253.6,111.88 "  style="fill:#ff0000ff;fill-rule:nonzero;" />
		<polygon points="250.0,124.6 246.4,135.88 255.4,128.68 244.6,128.68 253.6,135.88 "  style="fill:#ff0000ff;fill-rule:nonzero;" />
		<polygon points="250.0,148.6 246.4,159.88 255.4,152.68 244.6,152.68 253.6,159.88 "  style="fill:#ff0000ff;fill-rule:nonzero;" />
		<polygon points="250.0,160.6 246.4,171.88 255.4,164.68 244.6,164.68 253.6,171.88 "  style="fill:#ff0000ff;fill-rule:nonzero;" />
		<polygon points="250.0,208.6 246.4,219.88 255.4,212.68 244.6,212.68 253.6,219.88 "  style="fill:#ff0000ff;fill-rule:nonzero;" />
		<polygon points="250.0,304.6 246.4,315.88 255.4,308.68 244.6,308.68 253.6,315.88 "  style="fill:#ff0000ff;fill-rule:nonzero;" />
		<polygon points="250.0,340.6 246.4,351.88 255.4,344.68 244.6,344.68 253.6,351.88 "  style="fill:#ff0000ff;fill-rule:nonzero;" />
		<polygon points="250.0,352.6 246.4,363.88 255.4,356.68 244.6,356.68 253.6,363.88 "  style="fill:#ff0000ff;fill-rule:nonzero;" />
		<polygon points="250.0,376.6 246.4,387.88 255.4,380.68 244.6,380.68 253.6,387.88 "  style="fill:#ff0000ff;fill-rule:nonzero;" />
		<polygon points="250.0,388.6 246.4,399.88 255.4,392.68 244.6,392.68 253.6,399.88 "  style="fill:#ff0000ff;fill-rule:nonzero;" />
		<polygon points="250.0,424.6 246.4,435.88 255.4,428.68 244.6,428.68 253.6,435.88 "  style="fill:#ff0000ff;fill-rule:nonzero;" />
		<polygon points="250.0,436.6 246.4,447.88 255.4,440.68 244.6,440.68 253.6,447.88 "  style="fill:#ff0000ff;fill-rule:nonzero;" />
		<polygon points="250.0,448.6 246.4,459.88 255.4,452.68 244.6,452.68 253.6,459.88 "  style="fill:#ff0000ff;fill-rule:nonzero;" />
		<polygon points="262.0,40.6 258.4,51.88 267.4,44.68 256.6,44.68 265.6,51.88 "  style="fill:#ff0000ff;fill-rule:nonzero;" />
		<polygon points="262.0,64.6 258.4,75.88 267.4,68.68 256.6,68.68 265.6,75.88 "  style="fill:#ff0000ff;fill-rule:nonzero;" />
		<polygon points="262.0,76.6 258.4,87.88 267.4,80.68 256.6,80.68 265.6,87.88 "  style="fill:#ff0000ff;fill-rule:nonzero;" />
		<polygon points="262.0,136.6 258.4,147.88 267.4,140.68 256.6,140.68 265.6,147.88 "  style="fill:#ff0000ff;fill-rule:nonzero;" />
		<polygon points="262.0,148.6 258.4,159.88 267.4,152.68 256.6,152.68 265.6,159.88 "  style="fill:#ff0000ff;fill-rule:nonzero;" />
		<polygon points="262.0,160.6 258.4,171.88 267.4,164.68 256.6,164.68 265.6,171.88 "  style="fill:#ff0000ff;fill-rule:nonzero;" />
		<polygon points="262.0,280.6 258.4,291.88 267.4,284.68 256.6,284.68 265.6,291.88 "  style="fill:#ff0000ff;fill-rule:nonzero;" />
		<polygon points="262.0,292.6 258.4,303.88 267.4,296.68 256.6,296.68 265.6,303.88 "  style="fill:#ff0000ff;fill-rule:nonzero;" />
		<polygon points="262.0,316.6 258.4,327.88 267.4,320.68 256.6,320.68 265.6,327.88 "  style="fill:#ff0000ff;fill-rule:nonzero;" />
		<polygon points="262.0,340.6 258.4,351.88 267.4,344.68 256.6,344.68 265.6,351.88 "  style="fill:#ff0000ff;fill-rule:nonzero;" />
		<polygon points="262.0,352.6 258.4,363.88 267.4,356.68 256.6,356.68 265.6,363.88 "  style="fill:#ff0000ff;fill-rule:nonzero;" />
		<polygon points="262.0,364.6 258.4,375.88 267.4,368.68 256.6,368.68 265.6,375.88 "  style="fill:#ff0000ff;fill-rule:nonzero;" />
		<polygon points="262.0,388.6 258.4,399.88 267.4,392.68 256.6,392.68 265.6,399.88 "  style="fill:#ff0000ff;fill-rule:nonzero;" />
		<polygon points="262.0,400.6 258.4,411.88 267.4,404.68 256.6,404.68 265.6,411.88 "  style="fill:#ff0000ff;fill-rule:nonzero;" />
		<polygon points="262.0,412.6 258.4,423.88 267.4,416.68 256.6,416.68 265.6,423.88 "  style="fill:#ff0000ff;fill-rule:nonzero;" />
		<polygon points="262.0,436.6 258.4,447.88 267.4,440.68 256.6,440.68 265.6,447.88 "  style="fill:#ff0000ff;fill-rule:nonzero;" />
		<polygon points="262.0,460.6 258.4,471.88 267.4,464.68 256.6,464.68 265.6,471.88 "  style="fill:#ff0000ff;fill-rule:nonzero;" />
		<polygon points="274.0,40.6 270.4,51.88 279.4,44.68 268.6,44.68 277.6,51.88 "  style="fill:#ff0000ff;fill-rule:nonzero;" />
		<polygon points="274.0,64.6 270.4,75.88 279.4,68.68 268.6,68.68 277.6,75.88 "  style="fill:#ff0000ff;fill-rule:nonzero;" />
		<polygon points="274.0,88.6 270.4,99.88 279.4,92.68 268.6,92.68 277.6,99.88 "  style="fill:#ff0000ff;fill-rule:nonzero;" />
		<polygon points="274.0,100.6 270.4,111.88 279.4,104.68 268.6,104.68 277.6,111.88 "  style="fill:#ff0000ff;fill-rule:nonzero;" />
		<polygon points="274.0,112.6 270.4,123.88 279.4,116.68 268.6,116.68 277.6,123.88 "  style="fill:#ff0000ff;fill-rule:nonzero;" />
		<polygon points="274.0,172.6 270.4,183.88 279.4,176.68 268.6,176.68 277.6,183.88 "  style="fill:#ff0000ff;fill-rule:nonzero;" />
		<polygon points="274.0,244.6 270.4,255.88 279.4,248.68 268.6,248.68 277.6,255.88 "  style="fill:#ff0000ff;fill-rule:nonzero;" />
		<polygon points="274.0,256.6 270.4,267.88 279.4,260.68 268.6,260.68 277.6,267.88 "  style="fill:#ff0000ff;fill-rule:nonzero;" />
		<polygon points="274.0,268.6 270.4,279.88 279.4,272.68 268.6,272.68 277.6,279.88 "  style="fill:#ff0000ff;fill-rule:nonzero;" />
		<polygon points="274.0,280.6 270.4,291.88 279.4,284.68 268.6,284.68 277.6,291.88 "  style="fill:#ff0000ff;fill-rule:nonzero;" />
		<polygon points="274.0,364.6 270.4,375.88 279.4,368.68 268.6,368.68 277.6,375.88 "  style="fill:#ff0000ff;fill-rule:nonzero;" />
		<polygon points="274.0,448.6 270.4,459.88 279.4,452.68 268.6,452.68 277.6,459.88 "  style="fill:#ff0000ff;fill-rule:nonzero;" />
		<polygon points="286.0,28.6 282.4,39.88 291.4,32.68 280.6,32.68 289.6,39.88 "  style="fill:#ff0000ff;fill-rule:nonzero;" />
		<polygon points="286.0,52.6 282.4,63.88 291.4,56.68 280.6,56.68 289.6,63.88 "  style="fill:#ff0000ff;fill-rule:nonzero;" />
		<polygon points="286.0,76.6 282.4,87.88 291.4,80.68 280.6,80.68 289.6,87.88 "  style="fill:#ff0000ff;fill-rule:nonzero;" />
		<polygon points="286.0,88.6 282.4,99.88 291.4,92.68 280.6,92.68 289.6,99.88 "  style="fill:#ff0000ff;fill-rule:nonzero;" />
		<polygon points="286.0,112.6 282.4,123.88 291.4,116.68 280.6,116.68 289.6,123.88 "  style="fill:#ff0000ff;fill-rule:nonzero;" />
		<polygon points="286.0,124.6 282.4,135.88 291.4,128.68 280.6,128.68 289.6,135.88 "  style="fill:#ff0000ff;fill-rule:nonzero;" />
		<polygon points="286.0,172.6 282.4,183.88 291.4,176.68 280.6,176.68 289.6,183.88 "  style="fill:#ff0000ff;fill-rule:nonzero;" />
		<polygon points="286.0,196.6 282.4,207.88 291.4,200.68 280.6,200.68 289.6,207.88 "  style="fill:#ff0000ff;fill-rule:nonzero;" />
		<polygon points="286.0,220.6 282.4,231.88 291.4,224.68 280.6,224.68 289.6,231.88 "  style="fill:#ff0000ff;fill-rule:nonzero;" />
		<polygon points="286.0,232.6 282.4,243.88 291.4,236.68 280.6,236.68 289.6,243.88 "  style="fill:#ff0000ff;fill-rule:nonzero;" />
		<polygon points="286.0,256.6 282.4,267.88 291.4,260.68 280.6,260.68 289.6,267.88 "  style="fill:#ff0000ff;fill-rule:nonzero;" />
		<polygon points="286.0,268.6 282.4,279.88 291.4,272.68 280.6,272.68 289.6,279.88 "  style="fill:#ff0000ff;fill-rule:nonzero;" />
		<polygon points="286.0,280.6 282.4,291.88 291.4,284.68 280.6,284.68 289.6,291.88 "  style="fill:#ff0000ff;fill-rule:nonzero;" />
		<polygon points="286.0,304.6 282.4,315.88 291.4,308.68 280.6,308.68 289.6,315.88 "  style="fill:#ff0000ff;fill-rule:nonzero;" />
		<polygon points="286.0,316.6 282.4,327.88 291.4,320.68 280.6,320.68 289.6,327.88 "  style="fill:#ff0000ff;fill-rule:nonzero;" />
		<polygon points="286.0,340.6 282.4,351.88 291.4,344.68 280.6,344.68 289.6,351.88 "  style="fill:#ff0000ff;fill-rule:nonzero;" />
		<polygon points="286.0,352.6 282.4,363.88 291.4,356.68 280.6,356.68 289.6,363.88 "  style="fill:#ff0000ff;fill-rule:nonzero;" />
		<polygon points="286.0,364.6 282.4,375.88 291.4,368.68 280.6,368.68 289.6,375.88 "  style="fill:#ff0000ff;fill-rule:nonzero;" />
		<polygon points="286.0,400.6 282.4,411.88 291.4,404.68 280.6,404.68 289.6,411.88 "  style="fill:#ff0000ff;fill-rule:nonzero;" />
		<polygon points="286.0,412.6 282.4,423.88 291.4,416.68 280.6,416.68 289.6,423.88 "  style="fill:#ff0000ff;fill-rule:nonzero;" />
		<polygon points="286.0,436.6 282.4,447.88 291.4,440.68 280.6,440.68 289.6,447.88 "  style="fill:#ff0000ff;fill-rule:nonzero;" />
		<polygon points="286.0,448.6 282.4,459.88 291.4,452.68 280.6,452.68 289.6,459.88 "  style="fill:#ff0000ff;fill-rule:nonzero;" />
		<polygon points="298.0,64.6 294.4,75.88 303.4,68.68 292.6,68.68 301.6,75.88 "  style="fill:#ff0000ff;fill-rule:nonzero;" />
		<polygon points="298.0,76.6 294.4,87.88 303.4,80.68 292.6,80.68 301.6,87.88 "  style="fill:#ff0000ff;fill-rule:nonzero;" />
		<polygon points="298.0,100.6 294.4,111.88 303.4,104.68 292.6,104.68 301.6,111.88 "  style="fill:#ff0000ff;fill-rule:nonzero;" />
		<polygon points="298.0,172.6 294.4,183.88 303.4,176.68 292.6,176.68 301.6,183.88 "  style="fill:#ff0000ff;fill-rule:nonzero;" />
		<polygon points="298.0,184.6 294.4,195.88 303.4,188.68 292.6,188.68 301.6,195.88 "  style="fill:#ff0000ff;fill-rule:nonzero;" />
		<polygon points="298.0,232.6 294.4,243.88 303.4,236.68 292.6,236.68 301.6,243.88 "  style="fill:#ff0000ff;fill-rule:nonzero;" />
		<polygon points="298.0,304.6 294.4,315.88 303.4,308.68 292.6,308.68 301.6,315.88 "  style="fill:#ff0000ff;fill-rule:nonzero;" />
		<polygon points="298.0,316.6 294.4,327.88 303.4,320.68 292.6,320.68 301.6,327.88 "  style="fill:#ff0000ff;fill-rule:nonzero;" />
		<polygon points="298.0,412.6 294.4,423.88 303.4,416.68 292.6,416.68 301.6,423.88 "  style="fill:#ff0000ff;fill-rule:nonzero;" />
		<polygon points="298.0,448.6 294.4,459.88 303.4,452.68 292.6,452.68 301.6,459.88 "  style="fill:#ff0000ff;fill-rule:nonzero;" />
		<polygon points="298.0,460.6 294.4,471.88 303.4,464.68 292.6,464.68 301.6,471.88 "  style="fill:#ff0000ff;fill-rule:nonzero;" />
		<polygon points="310.0,28.6 306.4,39.88 315.4,32.68 304.6,32.68 313.6,39.88 "  style="fill:#ff0000ff;fill-rule:nonzero;" />
		<polygon points="310.0,40.6 306.4,51.88 315.4,44.68 304.6,44.68 313.6,51.88 "  style="fill:#ff0000ff;fill-rule:nonzero;" />
		<polygon points="310.0,64.6 306.4,75.88 315.4,68.68 304.6,68.68 313.6,75.88 "  style="fill:#ff0000ff;fill-rule:nonzero;" />
		<polygon points="310.0,136.6 306.4,147.88 315.4,140.68 304.6,140.68 313.6,147.88 "  style="fill:#ff0000ff;fill-rule:nonzero;" />
		<polygon points="310.0,160.6 306.4,171.88 315.4,164.68 304.6,164.68 313.6,171.88 "  style="fill:#ff0000ff;fill-rule:nonzero;" />
		<polygon points="310.0,172.6 306.4,183.88 315.4,176.68 304.6,176.68 313.6,183.88 "  style="fill:#ff0000ff;fill-rule:nonzero;" />
		<polygon points="310.0,232.6 306.4,243.88 315.4,236.68 304.6,236.68 313.6,243.88 "  style="fill:#ff0000ff;fill-rule:nonzero;" />
		<polygon points="310.0,280.6 306.4,291.88 315.4,284.68 304.6,284.68 313.6,291.88 "  style="fill:#ff0000ff;fill-rule:nonzero;" />
		<polygon points="310.0,292.6 306.4,303.88 315.4,296.68 304.6,296.68 313.6,303.88 "  style="fill:#ff0000ff;fill-rule:nonzero;" />
		<polygon points="310.0,340.6 306.4,351.88 315.4,344.68 304.6,344.68 313.6,351.88 "  style="fill:#ff0000ff;fill-rule:nonzero;" />
		<polygon points="310.0,424.6 306.4,435.88 315.4,428.68 304.6,428.68 313.6,435.88 "  style="fill:#ff0000ff;fill-rule:nonzero;" />
		<polygon points="310.0,436.6 306.4,447.88 315.4,440.68 304.6,440.68 313.6,447.88 "  style="fill:#ff0000ff;fill-rule:nonzero;" />
		<polygon points="310.0,448.6 306.4,459.88 315.4,452.68 304.6,452.68 313.6,459.88 "  style="fill:#ff0000ff;fill-rule:nonzero;" />
		<polygon points="322.0,28.6 318.4,39.88 327.4,32.68 316.6,32.68 325.6,39.88 "  style="fill:#ff0000ff;fill-rule:nonzero;" />
		<polygon points="322.0,64.6 318.4,75.88 327.4,68.68 316.6,68.68 325.6,75.88 "  style="fill:#ff0000ff;fill-rule:nonzero;" />
		<polygon points="322.0,76.6 318.4,87.88 327.4,80.68 316.6,80.68 325.6,87.88 "  style="fill:#ff0000ff;fill-rule:nonzero;" />
		<polygon points="322.0,100.6 318.4,111.88 327.4,104.68 316.6,104.68 325.6,111.88 "  style="fill:#ff0000ff;fill-rule:nonzero;" />
		<polygon points="322.0,160.6 318.4,171.88 327.4,164.68 316.6,164.68 325.6,171.88 "  style="fill:#ff0000ff;fill-rule:nonzero;" />
		<polygon points="322.0,196.6 318.4,207.88 327.4,200.68 316.6,200.68 325.6,207.88 "  style="fill:#ff0000ff;fill-rule:nonzero;" />
		<polygon points="322.0,220.6 318.4,231.88 327.4,224.68 316.6,224.68 325.6,231.88 "  style="fill:#ff0000ff;fill-rule:nonzero;" />
		<polygon points="322.0,232.6 318.4,243.88 327.4,236.68 316.6,236.68 325.6,243.88 "  style="fill:#ff0000ff;fill-rule:nonzero;" />
		<polygon points="322.0,256.6 318.4,267.88 327.4,260.68 316.6,260.68 325.6,267.88 "  style="fill:#ff0000ff;fill-rule:nonzero;" />
		<polygon points="322.0,280.6 318.4,291.88 327.4,284.68 316.6,284.68 325.6,291.88 "  style="fill:#ff0000ff;fill-rule:nonzero;" />
		<polygon points="322.0,340.6 318.4,351.88 327.4,344.68 316.6,344.68 325.6,351.88 "  style="fill:#ff0000ff;fill-rule:nonzero;" />
		<polygon points="322.0,388.6 318.4,399.88 327.4,392.68 316.6,392.68 325.6,399.88 "  style="fill:#ff0000ff;fill-rule:nonzero;" />
		<polygon points="322.0,436.6 318.4,447.88 327.4,440.68 316.6,440.68 325.6,447.88 "  style="fill:#ff0000ff;fill-rule:nonzero;" />
		<polygon points="322.0,460.6 318.4,471.88 327.4,464.68 316.6,464.68 325.6,471.88 "  style="fill:#ff0000ff;fill-rule:nonzero;" />
		<polygon points="334.0,40.6 330.4,51.88 339.4,44.68 328.6,44.68 337.6,51.88 "  style="fill:#ff0000ff;fill-rule:nonzero;" />
		<polygon points="334.0,88.6 330.4,99.88 339.4,92.68 328.6,92.68 337.6,99.88 "  style="fill:#ff0000ff;fill-rule:nonzero;" />
		<polygon points="334.0,112.6 330.4,123.88 339.4,116.68 328.6,116.68 337.6,123.88 "  style="fill:#ff0000ff;fill-rule:nonzero;" />
		<polygon points="334.0,148.6 330.4,159.88 339.4,152.68 328.6,152.68 337.6,159.88 "  style="fill:#ff0000ff;fill-rule:nonzero;" />
		<polygon points="334.0,160.6 330.4,171.88 339.4,164.68 328.6,164.68 337.6,171.88 "  style="fill:#ff0000ff;fill-rule:nonzero;" />
		<polygon points="334.0,172.6 330.4,183.88 339.4,176.68 328.6,176.68 337.6,183.88 "  style="fill:#ff0000ff;fill-rule:nonzero;" />
		<polygon points="334.0,196.6 330.4,207.88 339.4,200.68 328.6,200.68 337.6,207.88 "  style="fill:#ff0000ff;fill-rule:nonzero;" />
		<polygon points="334.0,220.6 330.4,231.88 339.4,224.68 328.6,224.68 337.6,231.88 "  style="fill:#ff0000ff;fill-rule:nonzero;" />
		<polygon points="334.0,292.6 330.4,303.88 339.4,296.68 328.6,296.68 337.6,303.88 "  style="fill:#ff0000ff;fill-rule:nonzero;" />
		<polygon points="334.0,364.6 330.4,375.88 339.4,368.68 328.6,368.68 337.6,375.88 "  style="fill:#ff0000ff;fill-rule:nonzero;" />
		<polygon points="334.0,388.6 330.4,399.88 339.4,392.68 328.6,392.68 337.6,399.88 "  style="fill:#ff0000ff;fill-rule:nonzero;" />
		<polygon points="334.0,400.6 330.4,411.88 339.4,404.68 328.6,404.68 337.6,411.88 "  style="fill:#ff0000ff;fill-rule:nonzero;" />
		<polygon points="334.0,412.6 330.4,423.88 339.4,416.68 328.6,416.68 337.6,423.88 "  style="fill:#ff0000ff;fill-rule:nonzero;" />
		<polygon points="346.0,40.6 342.4,51.88 351.4,44.68 340.6,44.68 349.6,51.88 "  style="fill:#ff0000ff;fill-rule:nonzero;" />
		<polygon points="346.0,76.6 342.4,87.88 351.4,80.68 340.6,80.68 349.6,87.88 "  style="fill:#ff0000ff;fill-rule:nonzero;" />
		<polygon points="346.0,100.6 342.4,111.88 351.4,104.68 340.6,104.68 349.6,111.88 "  style="fill:#ff0000ff;fill-rule:nonzero;" />
		<polygon points="346.0,112.6 342.4,123.88 351.4,116.68 340.6,116.68 349.6,123.88 "  style="fill:#ff0000ff;fill-rule:nonzero;" />
		<polygon points="346.0,136.6 342.4,147.88 351.4,140.68 340.6,140.68 349.6,147.88 "  style="fill:#ff0000ff;fill-rule:nonzero;" />
		<polygon points="346.0,172.6 342.4,183.88 351.4,176.68 340.6,176.68 349.6,183.88 "  style="fill:#ff0000ff;fill-rule:nonzero;" />
		<polygon points="346.0,184.6 342.4,195.88 351.4,188.68 340.6,188.68 349.6,195.88 "  style="fill:#ff0000ff;fill-rule:nonzero;" />
		<polygon points="346.0,196.6 342.4,207.88 351.4,200.68 340.6,200.68 349.6,207.88 "  style="fill:#ff0000ff;fill-rule:nonzero;" />
		<polygon points="346.0,232.6 342.4,243.88 351.4,236.68 340.6,236.68 349.6,243.88 "  style="fill:#ff0000ff;fill-rule:nonzero;" />
		<polygon points="346.0,244.6 342.4,255.88 351.4,248.68 340.6,248.68 349.6,255.88 "  style="fill:#ff0000ff;fill-rule:nonzero;" />
		<polygon points="346.0,280.6 342.4,291.88 351.4,284.68 340.6,284.68 349.6,291.88 "  style="fill:#ff0000ff;fill-rule:nonzero;" />
		<polygon points="346.0,304.6 342.4,315.88 351.4,308.68 340.6,308.68 349.6,315.88 "  style="fill:#ff0000ff;fill-rule:nonzero;" />
		<polygon points="346.0,364.6 342.4,375.88 351.4,368.68 340.6,368.68 349.6,375.88 "  style="fill:#ff0000ff;fill-rule:nonzero;" />
		<polygon points="346.0,376.6 342.4,387.88 351.4,380.68 340.6,380.68 349.6,387.88 "  style="fill:#ff0000ff;fill-rule:nonzero;" />
		<polygon points="346.0,388.6 342.4,399.88 351.4,392.68 340.6,392.68 349.6,399.88 "  style="fill:#ff0000ff;fill-rule:nonzero;" />
		<polygon points="346.0,412.6 342.4,423.88 351.4,416.68 340.6,416.68 349.6,423.88 "  style="fill:#ff0000ff;fill-rule:nonzero;" />
		<polygon points="346.0,424.6 342.4,435.88 351.4,428.68 340.6,428.68 349.6,435.88 "  style="fill:#ff0000ff;fill-rule:nonzero;" />
		<polygon points="346.0,436.6 342.4,447.88 351.4,440.68 340.6,440.68 349.6,447.88 "  style="fill:#ff0000ff;fill-rule:nonzero;" />
		<polygon points="346.0,448.6 342.4,459.88 351.4,452.68 340.6,452.68 349.6,459.88 "  style="fill:#ff0000ff;fill-rule:nonzero;" />
		<polygon points="358.0,64.6 354.4,75.88 363.4,68.68 352.6,68.68 361.6,75.88 "  style="fill:#ff0000ff;fill-rule:nonzero;" />
		<polygon points="358.0,124.6 354.4,135.88 363.4,128.68 352.6,128.68 361.6,135.88 "  style="fill:#ff0000ff;fill-rule:nonzero;" />
		<polygon points="358.0,136.6 354.4,147.88 363.4,140.68 352.6,140.68 361.6,147.88 "  style="fill:#ff0000ff;fill-rule:nonzero;" />
		<polygon points="358.0,160.6 354.4,171.88 363.4,164.68 352.6,164.68 361.6,171.88 "  style="fill:#ff0000ff;fill-rule:nonzero;" />
		<polygon points="358.0,196.6 354.4,207.88 363.4,200.68 352.6,200.68 361.6,207.88 "  style="fill:#ff0000ff;fill-rule:nonzero;" />
		<polygon points="358.0,220.6 354.4,231.88 363.4,224.68 352.6,224.68 361.6,231.88 "  style="fill:#ff0000ff;fill-rule:nonzero;" />
		<polygon points="358.0,232.6 354.4,243.88 363.4,236.68 352.6,236.68 361.6,243.88 "  style="fill:#ff0000ff;fill-rule:nonzero;" />
		<polygon points="358.0,244.6 354.4,255.88 363.4,248.68 352.6,248.68 361.6,255.88 "  style="fill:#ff0000ff;fill-rule:nonzero;" />
		<polygon points="358.0,268.6 354.4,279.88 363.4,272.68 352.6,272.68 361.6,279.88 "  style="fill:#ff0000ff;fill-rule:nonzero;" />
		<polygon points="358.0,316.6 354.4,327.88 363.4,320.68 352.6,320.68 361.6,327.88 "  style="fill:#ff0000ff;fill-rule:nonzero;" />
		<polygon points="358.0,364.6 354.4,375.88 363.4,368.68 352.6,368.68 361.6,375.88 "  style="fill:#ff0000ff;fill-rule:nonzero;" />
		<polygon points="358.0,388.6 354.4,399.88 363.4,392.68 352.6,392.68 361.6,399.88 "  style="fill:#ff0000ff;fill-rule:nonzero;" />
		<polygon points="358.0,400.6 354.4,411.88 363.4,404.68 352.6,404.68 361.6,411.88 "  style="fill:#ff0000ff;fill-rule:nonzero;" />
		<polygon points="358.0,436.6 354.4,447.88 363.4,440.68 352.6,440.68 361.6,447.88 "  style="fill:#ff0000ff;fill-rule:nonzero;" />
		<polygon points="358.0,460.6 354.4,471.88 363.4,464.68 352.6,464.68 361.6,471.88 "  style="fill:#ff0000ff;fill-rule:nonzero;" />
		<polygon points="370.0,28.6 366.4,39.88 375.4,32.68 364.6,32.68 373.6,39.88 "  style="fill:#ff0000ff;fill-rule:nonzero;" />
		<polygon points="370.0,64.6 366.4,75.88 375.4,68.68 364.6,68.68 373.6,75.88 "  style="fill:#ff0000ff;fill-rule:nonzero;" />
		<polygon points="370.0,76.6 366.4,87.88 375.4,80.68 364.6,80.68 373.6,87.88 "  style="fill:#ff0000ff;fill-rule:nonzero;" />
		<polygon points="370.0,100.6 366.4,111.88 375.4,104.68 364.6,104.68 373.6,111.88 "  style="fill:#ff0000ff;fill-rule:nonzero;" />
		<polygon points="370.0,136.6 366.4,147.88 375.4,140.68 364.6,140.68 373.6,147.88 "  style="fill:#ff0000ff;fill-rule:nonzero;" />
		<polygon points="370.0,196.6 366.4,207.88 375.4,200.68 364.6,200.68 373.6,207.88 "  style="fill:#ff0000ff;fill-rule:nonzero;" />
		<polygon points="370.0,208.6 366.4,219.88 375.4,212.68 364.6,212.68 373.6,219.88 "  style="fill:#ff0000ff;fill-rule:nonzero;" />
		<polygon points="370.0,220.6 366.4,231.88 375.4,224.68 364.6,224.68 373.6,231.88 "  style="fill:#ff0000ff;fill-rule:nonzero;" />
		<polygon points="370.0,244.6 366.4,255.88 375.4,248.68 364.6,248.68 373.6,255.88 "  style="fill:#ff0000ff;fill-rule:nonzero;" />
		<polygon points="370.0,256.6 366.4,267.88 375.4,260.68 364.6,260.68 373.6,267.88 "  style="fill:#ff0000ff;fill-rule:nonzero;" />
		<polygon points="370.0,316.6 366.4,327.88 375.4,320.68 364.6,320.68 373.6,327.88 "  style="fill:#ff0000ff;fill-rule:nonzero;" />
		<polygon points="370.0,352.6 366.4,363.88 375.4,356.68 364.6,356.68 373.6,363.88 "  style="fill:#ff0000ff;fill-rule:nonzero;" />
		<polygon points="370.0,424.6 366.4,435.88 375.4,428.68 364.6,428.68 373.6,435.88 "  style="fill:#ff0000ff;fill-rule:nonzero;" />
		<polygon points="382.0,124.6 378.4,135.88 387.4,128.68 376.6,128.68 385.6,135.88 "  style="fill:#ff0000ff;fill-rule:nonzero;" />
		<polygon points="382.0,148.6 378.4,159.88 387.4,152.68 376.6,152.68 385.6,159.88 "  style="fill:#ff0000ff;fill-rule:nonzero;" />
		<polygon points="382.0,160.6 378.4,171.88 387.4,164.68 376.6,164.68 385.6,171.88 "  style="fill:#ff0000ff;fill-rule:nonzero;" />
		<polygon points="382.0,220.6 378.4,231.88 387.4,224.68 376.6,224.68 385.6,231.88 "  style="fill:#ff0000ff;fill-rule:nonzero;" />
		<polygon points="382.0,244.6 378.4,255.88 387.4,248.68 376.6,248.68 385.6,255.88 "  style="fill:#ff0000ff;fill-rule:nonzero;" />
		<polygon points="382.0,316.6 378.4,327.88 387.4,320.68 376.6,320.68 385.6,327.88 "  style="fill:#ff0000ff;fill-rule:nonzero;" />
		<polygon points="382.0,328.6 378.4,339.88 387.4,332.68 376.6,332.68 385.6,339.88 "  style="fill:#ff0000ff;fill-rule:nonzero;" />
		<polygon points="382.0,340.6 378.4,351.88 387.4,344.68 376.6,344.68 385.6,351.88 "  style="fill:#ff0000ff;fill-rule:nonzero;" />
		<polygon points="382.0,352.6 378.4,363.88 387.4,356.68 376.6,356.68 385.6,363.88 "  style="fill:#ff0000ff;fill-rule:nonzero;" />
		<polygon points="382.0,448.6 378.4,459.88 387.4,452.68 376.6,452.68 385.6,459.88 "  style="fill:#ff0000ff;fill-rule:nonzero;" />
		<polygon points="382.0,460.6 378.4,471.88 387.4,464.68 376.6,464.68 385.6,471.88 "  style="fill:#ff0000ff;fill-rule:nonzero;" />
		<polygon points="394.0,124.6 390.4,135.88 399.4,128.68 388.6,128.68 397.6,135.88 "  style="fill:#ff0000ff;fill-rule:nonzero;" />
		<polygon points="394.0,148.6 390.4,159.88 399.4,152.68 388.6,152.68 397.6,159.88 "  style="fill:#ff0000ff;fill-rule:nonzero;" />
		<polygon points="394.0,172.6 390.4,183.88 399.4,176.68 388.6,176.68 397.6,183.88 "  style="fill:#ff0000ff;fill-rule:nonzero;" />
		<polygon points="394.0,184.6 390.4,195.88 399.4,188.68 388.6,188.68 397.6,195.88 "  style="fill:#ff0000ff;fill-rule:nonzero;" />
		<polygon points="394.0,196.6 390.4,207.88 399.4,200.68 388.6,200.68 397.6,207.88 "  style="fill:#ff0000ff;fill-rule:nonzero;" />
		<polygon points="394.0,304.6 390.4,315.88 399.4,308.68 388.6,308.68 397.6,315.88 "  style="fill:#ff0000ff;fill-rule:nonzero;" />
		<polygon points="394.0,316.6 390.4,327.88 399.4,320.68 388.6,320.68 397.6,327.88 "  style="fill:#ff0000ff;fill-rule:nonzero;" />
		<polygon points="394.0,328.6 390.4,339.88 399.4,332.68 388.6,332.68 397.6,339.88 "  style="fill:#ff0000ff;fill-rule:nonzero;" />
		<polygon points="394.0,340.6 390.4,351.88 399.4,344.68 388.6,344.68 397.6,351.88 "  style="fill:#ff0000ff;fill-rule:nonzero;" />
		<polygon points="394.0,424.6 390.4,435.88 399.4,428.68 388.6,428.68 397.6,435.88 "  style="fill:#ff0000ff;fill-rule:nonzero;" />
		<polygon points="394.0,436.6 390.4,447.88 399.4,440.68 388.6,440.68 397.6,447.88 "  style="fill:#ff0000ff;fill-rule:nonzero;" />
		<polygon points="394.0,448.6 390.4,459.88 399.4,452.68 388.6,452.68 397.6,459.88 "  style="fill:#ff0000ff;fill-rule:nonzero;" />
		<polygon points="406.0,124.6 402.4,135.88 411.4,128.68 400.6,128.68 409.6,135.88 "  style="fill:#ff0000ff;fill-rule:nonzero;" />
		<polygon points="406.0,148.6 402.4,159.88 411.4,152.68 400.6,152.68 409.6,159.88 "  style="fill:#ff0000ff;fill-rule:nonzero;" />
		<polygon points="406.0,160.6 402.4,171.88 411.4,164.68 400.6,164.68 409.6,171.88 "  style="fill:#ff0000ff;fill-rule:nonzero;" />
		<polygon points="406.0,184.6 402.4,195.88 411.4,188.68 400.6,188.68 409.6,195.88 "  style="fill:#ff0000ff;fill-rule:nonzero;" />
		<polygon points="406.0,208.6 402.4,219.88 411.4,212.68 400.6,212.68 409.6,219.88 "  style="fill:#ff0000ff;fill-rule:nonzero;" />
		<polygon points="406.0,232.6 402.4,243.88 411.4,236.68 400.6,236.68 409.6,243.88 "  style="fill:#ff0000ff;fill-rule:nonzero;" />
		<polygon points="406.0,280.6 402.4,291.88 411.4,284.68 400.6,284.68 409.6,291.88 "  style="fill:#ff0000ff;fill-rule:nonzero;" />
		<polygon points="406.0,292.6 402.4,303.88 411.4,296.68 400.6,296.68 409.6,303.88 "  style="fill:#ff0000ff;fill-rule:nonzero;" />
		<polygon points="406.0,304.6 402.4,315.88 411.4,308.68 400.6,308.68 409.6,315.88 "  style="fill:#ff0000ff;fill-rule:nonzero;" />
		<polygon points="406.0,340.6 402.4,351.88 411.4,344.68 400.6,344.68 409.6,351.88 "  style="fill:#ff0000ff;fill-rule:nonzero;" />
		<polygon points="406.0,424.6 402.4,435.88 411.4,428.68 400.6,428.68 409.6,435.88 "  style="fill:#ff0000ff;fill-rule:nonzero;" />
		<polygon points="418.0,148.6 414.4,159.88 423.4,152.68 412.6,152.68 421.6,159.88 "  style="fill:#ff0000ff;fill-rule:nonzero;" />
		<polygon points="418.0,172.6 414.4,183.88 423.4,176.68 412.6,176.68 421.6,183.88 "  style="fill:#ff0000ff;fill-rule:nonzero;" />
		<polygon points="418.0,220.6 414.4,231.88 423.4,224.68 412.6,224.68 421.6,231.88 "  style="fill:#ff0000ff;fill-rule:nonzero;" />
		<polygon points="418.0,232.6 414.4,243.88 423.4,236.68 412.6,236.68 421.6,243.88 "  style="fill:#ff0000ff;fill-rule:nonzero;" />
		<polygon points="418.0,244.6 414.4,255.88 423.4,248.68 412.6,248.68 421.6,255.88 "  style="fill:#ff0000ff;fill-rule:nonzero;" />
		<polygon points="418.0,292.6 414.4,303.88 423.4,296.68 412.6,296.68 421.6,303.88 "  style="fill:#ff0000ff;fill-rule:nonzero;" />
		<polygon points="418.0,328.6 414.4,339.88 423.4,332.68 412.6,332.68 421.6,339.88 "  style="fill:#ff0000ff;fill-rule:nonzero;" />
		<polygon points="418.0,340.6 414.4,351.88 423.4,344.68 412.6,344.68 421.6,351.88 "  style="fill:#ff0000ff;fill-rule:nonzero;" />
		<polygon points="430.0,136.6 426.4,147.88 435.4,140.68 424.6,140.68 433.6,147.88 "  style="fill:#ff0000ff;fill-rule:nonzero;" />
		<polygon points="430.0,160.6 426.4,171.88 435.4,164.68 424.6,164.68 433.6,171.88 "  style="fill:#ff0000ff;fill-rule:nonzero;" />
		<polygon points="430.0,184.6 426.4,195.88 435.4,188.68 424.6,188.68 433.6,195.88 "  style="fill:#ff0000ff;fill-rule:nonzero;" />
		<polygon points="430.0,196.6 426.4,207.88 435.4,200.68 424.6,200.68 433.6,207.88 "  style="fill:#ff0000ff;fill-rule:nonzero;" />
		<polygon points="430.0,208.6 426.4,219.88 435.4,212.68 424.6,212.68 433.6,219.88 "  style="fill:#ff0000ff;fill-rule:nonzero;" />
		<polygon points="430.0,256.6 426.4,267.88 435.4,260.68 424.6,260.68 433.6,267.88 "  style="fill:#ff0000ff;fill-rule:nonzero;" />
		<polygon points="430.0,268.6 426.4,279.88 435.4,272.68 424.6,272.68 433.6,279.88 "  style="fill:#ff0000ff;fill-rule:nonzero;" />
		<polygon points="430.0,304.6 426.4,315.88 435.4,308.68 424.6,308.68 433.6,315.88 "  style="fill:#ff0000ff;fill-rule:nonzero;" />
		<polygon points="430.0,316.6 426.4,327.88 435.4,320.68 424.6,320.68 433.6,327.88 "  style="fill:#ff0000ff;fill-rule:nonzero;" />
		<polygon points="430.0,328.6 426.4,339.88 435.4,332.68 424.6,332.68 433.6,339.88 "  style="fill:#ff0000ff;fill-rule:nonzero;" />
		<polygon points="430.0,388.6 426.4,399.88 435.4,392.68 424.6,392.68 433.6,399.88 "  style="fill:#ff0000ff;fill-rule:nonzero;" />
		<polygon points="430.0,400.6 426.4,411.88 435.4,404.68 424.6,404.68 433.6,411.88 "  style="fill:#ff0000ff;fill-rule:nonzero;" />
		<polygon points="430.0,412.6 426.4,423.88 435.4,416.68 424.6,416.68 433.6,423.88 "  style="fill:#ff0000ff;fill-rule:nonzero;" />
		<polygon points="430.0,448.6 426.4,459.88 435.4,452.68 424.6,452.68 433.6,459.88 "  style="fill:#ff0000ff;fill-rule:nonzero;" />
		<polygon points="442.0,124.6 438.4,135.88 447.4,128.68 436.6,128.68 445.6,135.88 "  style="fill:#ff0000ff;fill-rule:nonzero;" />
		<polygon points="442.0,148.6 438.4,159.88 447.4,152.68 436.6,152.68 445.6,159.88 "  style="fill:#ff0000ff;fill-rule:nonzero;" />
		<polygon points="442.0,196.6 438.4,207.88 447.4,200.68 436.6,200.68 445.6,207.88 "  style="fill:#ff0000ff;fill-rule:nonzero;" />
		<polygon points="442.0,208.6 438.4,219.88 447.4,212.68 436.6,212.68 445.6,219.88 "  style="fill:#ff0000ff;fill-rule:nonzero;" />
		<polygon points="442.0,220.6 438.4,231.88 447.4,224.68 436.6,224.68 445.6,231.88 "  style="fill:#ff0000ff;fill-rule:nonzero;" />
		<polygon points="442.0,244.6 438.4,255.88 447.4,248.68 436.6,248.68 445.6,255.88 "  style="fill:#ff0000ff;fill-rule:nonzero;" />
		<polygon points="442.0,256.6 438.4,267.88 447.4,260.68 436.6,260.68 445.6,267.88 "  style="fill:#ff0000ff;fill-rule:nonzero;" />
		<polygon points="442.0,292.6 438.4,303.88 447.4,296.68 436.6,296.68 445.6,303.88 "  style="fill:#ff0000ff;fill-rule:nonzero;" />
		<polygon points="442.0,316.6 438.4,327.88 447.4,320.68 436.6,320.68 445.6,327.88 "  style="fill:#ff0000ff;fill-rule:nonzero;" />
		<polygon points="442.0,340.6 438.4,351.88 447.4,344.68 436.6,344.68 445.6,351.88 "  style="fill:#ff0000ff;fill-rule:nonzero;" />
		<polygon points="442.0,364.6 438.4,375.88 447.4,368.68 436.6,368.68 445.6,375.88 "  style="fill:#ff0000ff;fill-rule:nonzero;" />
		<polygon points="442.0,388.6 438.4,399.88 447.4,392.68 436.6,392.68 445.6,399.88 "  style="fill:#ff0000ff;fill-rule:nonzero;" />
		<polygon points="442.0,400.6 438.4,411.88 447.4,404.68 436.6,404.68 445.6,411.88 "  style="fill:#ff0000ff;fill-rule:nonzero;" />
		<polygon points="442.0,436.6 438.4,447.88 447.4,440.68 436.6,440.68 445.6,447.88 "  style="fill:#ff0000ff;fill-rule:nonzero;" />
		<polygon points="442.0,448.6 438.4,459.88 447.4,452.68 436.6,452.68 445.6,459.88 "  style="fill:#ff0000ff;fill-rule:nonzero;" />
		<polygon points="454.0,124.6 450.4,135.88 459.4,128.68 448.6,128.68 457.6,135.88 "  style="fill:#ff0000ff;fill-rule:nonzero;" />
		<polygon points="454.0,136.6 450.4,147.88 459.4,140.68 448.6,140.68 457.6,147.88 "  style="fill:#ff0000ff;fill-rule:nonzero;" />
		<polygon points="454.0,148.6 450.4,159.88 459.4,152.68 448.6,152.68 457.6,159.88 "  style="fill:#ff0000ff;fill-rule:nonzero;" />
		<polygon points="454.0,184.6 450.4,195.88 459.4,188.68 448.6,188.68 457.6,195.88 "  style="fill:#ff0000ff;fill-rule:nonzero;" />
		<polygon points="454.0,220.6 450.4,231.88 459.4,224.68 448.6,224.68 457.6,231.88 "  style="fill:#ff0000ff;fill-rule:nonzero;" />
		<polygon points="454.0,244.6 450.4,255.88 459.4,248.68 448.6,248.68 457.6,255.88 "  style="fill:#ff0000ff;fill-rule:nonzero;" />
		<polygon points="454.0,280.6 450.4,291.88 459.4,284.68 448.6,284.68 457.6,291.88 "  style="fill:#ff0000ff;fill-rule:nonzero;" />
		<polygon points="454.0,292.6 450.4,303.88 459.4,296.68 448.6,296.68 457.6,303.88 "  style="fill:#ff0000ff;fill-rule:nonzero;" />
		<polygon points="454.0,316.6 450.4,327.88 459.4,320.68 448.6,320.68 457.6,327.88 "  style="fill:#ff0000ff;fill-rule:nonzero;" />
		<polygon points="454.0,328.6 450.4,339.88 459.4,332.68 448.6,332.68 457.6,339.88 "  style="fill:#ff0000ff;fill-rule:nonzero;" />
		<polygon points="454.0,340.6 450.4,351.88 459.4,344.68 448.6,344.68 457.6,351.88 "  style="fill:#ff0000ff;fill-rule:nonzero;" />
		<polygon points="454.0,364.6 450.4,375.88 459.4,368.68 448.6,368.68 457.6,375.88 "  style="fill:#ff0000ff;fill-rule:nonzero;" />
		<polygon points="454.0,376.6 450.4,387.88 459.4,380.68 448.6,380.68 457.6,387.88 "  style="fill:#ff0000ff;fill-rule:nonzero;" />
		<polygon points="454.0,388.6 450.4,399.88 459.4,392.68 448.6,392.68 457.6,399.88 "  style="fill:#ff0000ff;fill-rule:nonzero;" />
		<polygon points="454.0,412.6 450.4,423.88 459.4,416.68 448.6,416.68 457.6,423.88 "  style="fill:#ff0000ff;fill-rule:nonzero;" />
		<polygon points="454.0,424.6 450.4,435.88 459.4,428.68 448.6,428.68 457.6,435.88 "  style="fill:#ff0000ff;fill-rule:nonzero;" />
		<polygon points="454.0,448.6 450.4,459.88 459.4,452.68 448.6,452.68 457.6,459.88 "  style="fill:#ff0000ff;fill-rule:nonzero;" />
		<polygon points="454.0,460.6 450.4,471.88 459.4,464.68 448.6,464.68 457.6,471.88 "  style="fill:#ff0000ff;fill-rule:nonzero;" />
		<polygon points="466.0,124.6 462.4,135.88 471.4,128.68 460.6,128.68 469.6,135.88 "  style="fill:#ff0000ff;fill-rule:nonzero;" />
		<polygon points="466.0,172.6 462.4,183.88 471.4,176.68 460.6,176.68 469.6,183.88 "  style="fill:#ff0000ff;fill-rule:nonzero;" />
		<polygon points="466.0,184.6 462.4,195.88 471.4,188.68 460.6,188.68 469.6,195.88 "  style="fill:#ff0000ff;fill-rule:nonzero;" />
		<polygon points="466.0,220.6 462.4,231.88 471.4,224.68 460.6,224.68 469.6,231.88 "  style="fill:#ff0000ff;fill-rule:nonzero;" />
		<polygon points="466.0,232.6 462.4,243.88 471.4,236.68 460.6,236.68 469.6,243.88 "  style="fill:#ff0000ff;fill-rule:nonzero;" />
		<polygon points="466.0,244.6 462.4,255.88 471.4,248.68 460.6,248.68 469.6,255.88 "  style="fill:#ff0000ff;fill-rule:nonzero;" />
		<polygon points="466.0,292.6 462.4,303.88 471.4,296.68 460.6,296.68 469.6,303.88 "  style="fill:#ff0000ff;fill-rule:nonzero;" />
		<polygon points="466.0,316.6 462.4,327.88 471.4,320.68 460.6,320.68 469.6,327.88 "  style="fill:#ff0000ff;fill-rule:nonzero;" />
		<polygon points="466.0,328.6 462.4,339.88 471.4,332.68 460.6,332.68 469.6,339.88 "  style="fill:#ff0000ff;fill-rule:nonzero;" />
		<polygon points="466.0,364.6 462.4,375.88 471.4,368.68 460.6,368.68 469.6,375.88 "  style="fill:#ff0000ff;fill-rule:nonzero;" />
		<polygon points="466.0,376.6 462.4,387.88 471.4,380.68 460.6,380.68 469.6,387.88 "  style="fill:#ff0000ff;fill-rule:nonzero;" />
		<polygon points="466.0,388.6 462.4,399.88 471.4,392.68 460.6,392.68 469.6,399.88 "  style="fill:#ff0000ff;fill-rule:nonzero;" />
		<polygon points="466.0,412.6 462.4,423.88 471.4,416.68 460.6,416.68 469.6,423.88 "  style="fill:#ff0000ff;fill-rule:nonzero;" />
		<polygon points="466.0,424.6 462.4,435.88 471.4,428.68 460.6,428.68 469.6,435.88 "  style="fill:#ff0000ff;fill-rule:nonzero;" />
		<polygon points="466.0,436.6 462.4,447.88 471.4,440.68 460.6,440.68 469.6,447.88 "  style="fill:#ff0000ff;fill-rule:nonzero;" />
		<polygon points="466.0,460.6 462.4,471.88 471.4,464.68 460.6,464.68 469.6,471.88 "  style="fill:#ff0000ff;fill-rule:nonzero;" />

	</g>
</svg>