<?xml version="1.0" encoding="utf-8"?>
<svg xmlns="http://www.w3.org/2000/svg" xmlns:xlink="http://www.w3.org/1999/xlink" width="300" height="300" viewBox="0 0 300 300">

	<g id="qr">
		<rect fill="#ffffffff" x="0" y="0" width="300" height="300" />
		<polygon points="22.3,20 24.6,20 26.9,23.45 24.6,26.9 22.3,26.9 20,23.45 "  style="fill:#000000ff;fill-rule:nonzero;" />
		<polygon points="22.3,27 24.6,27 26.9,30.45 24.6,33.9 22.3,33.9 20,30.45 "  style="fill:#000000ff;fill-rule:nonzero;" />
		<polygon points="22.3,34 24.6,34 26.9,37.45 24.6,40.9 22.3,40.9 20,37.45 "  style="fill:#000000ff;fill-rule:nonzero;" />
		<polygon points="22.3,41 24.6,41 26.9,44.45 24.6,47.9 22.3,47.9 20,44.45 "  style="fill:#000000ff;fill-rule:nonzero;" />
		<polygon points="22.3,48 24.6,48 26.9,51.45 24.6,54.9 22.3,54.9 20,51.45 "  style="fill:#000000ff;fill-rule:nonzero;" />
		<polygon points="22.3,55 24.6,55 26.9,58.45 24.6,61.9 22.3,61.9 20,58.45 "  style="fill:#000000ff;fill-rule:nonzero;" />
		<polygon points="22.3,62 24.6,62 26.9,65.45 24.6,68.9 22.3,68.9 20,65.45 "  style="fill:#000000ff;fill-rule:nonzero;" />
		<polygon points="22.3,83 24.6,83 26.9,86.45 24.6,89.9 22.3,89.9 20,86.45 "  style="fill:#000000ff;fill-rule:nonzero;" />
		<polygon points="22.3,104 24.6,104 26.9,107.45 24.6,110.9 22.3,110.9 20,107.45 "  style="fill:#000000ff;fill-rule:nonzero;" />
		<polygon points="22.3,146 24.6,146 26.9,149.45 24.6,152.9 22.3,152.9 20,149.45 "  style="fill:#000000ff;fill-rule:nonzero;" />
		<polygon points="22.3,181 24.6,181 26.9,184.45 24.6,187.9 22.3,187.9 20,184.45 "  style="fill:#000000ff;fill-rule:nonzero;" />
		<polygon points="22.3,195 24.6,195 26.9,198.45 24.6,201.9 22.3,201.9 20,198.45 "  style="fill:#000000ff;fill-rule:nonzero;" />
		<polygon points="22.3,202 24.6,202 26.9,205.45 24.6,208.9 22.3,208.9 20,205.45 "  style="fill:#000000ff;fill-rule:nonzero;" />
		<polygon points="22.3,209 24.6,209 26.9,212.45 24.6,215.9 22.3,215.9 20,212.45 "  style="fill:#000000ff;fill-rule:nonzero;" />
		<polygon points="22.3,216 24.6,216 26.9,219.45 24.6,222.9 22.3,222.9 20,219.45 "  style="fill:#000000ff;fill-rule:nonzero;" />
		<polygon points="22.3,230 24.6,230 26.9,233.45 24.6,236.9 22.3,236.9 20,233.45 "  style="fill:#000000ff;fill-rule:nonzero;" />
		<polygon points="22.3,237 24.6,237 26.9,240.45 24.6,243.9 22.3,243.9 20,240.45 "  style="fill:#000000ff;fill-rule:nonzero;" />
		<polygon points="22.3,244 24.6,244 26.9,247.45 24.6,250.9 22.3,250.9 20,247.45 "  style="fill:#000000ff;fill-rule:nonzero;" />
		<polygon points="22.3,251 24.6,251 26.9,254.45 24.6,257.9 22.3,257.9 20,254.45 "  style="fill:#000000ff;fill-rule:nonzero;" />
		<polygon points="22.3,258 24.6,258 26.9,261.45 24.6,264.9 22.3,264.9 20,261.45 "  style="fill:#000000ff;fill-rule:nonzero;" />
		<polygon points="22.3,265 24.6,265 26.9,268.45 24.6,271.9 22.3,271.9 20,268.45 "  style="fill:#000000ff;fill-rule:nonzero;" />
		<polygon points="22.3,272 24.6,272 26.9,275.45 24.6,278.9 22.3,278.9 20,275.45 "  style="fill:#000000ff;fill-rule:nonzero;" />
		<polygon points="29.3,20 31.6,20 33.9,23.45 31.6,26.9 29.3,26.9 27,23.45 "  style="fill:#000000ff;fill-rule:nonzero;" />
		<polygon points="29.3,62 31.6,62 33.9,65.45 31.6,68.9 29.3,68.9 27,65.45 "  style="fill:#000000ff;fill-rule:nonzero;" />
		<polygon points="29.3,118 31.6,118 33.9,121.45 31.6,124.9 29.3,124.9 27,121.45 "  style="fill:#000000ff;fill-rule:nonzero;" />
		<polygon points="29.3,125 31.6,125 33.9,128.45 31.6,131.9 29.3,131.9 27,128.45 "  style="fill:#000000ff;fill-rule:nonzero;" />
		<polygon points="29.3,146 31.6,146 33.9,149.45 31.6,152.9 29.3,152.9 27,149.45 "  style="fill:#000000ff;fill-rule:nonzero;" />
		<polygon points="29.3,174 31.6,174 33.9,177.45 31.6,180.9 29.3,180.9 27,177.45 "  style="fill:#000000ff;fill-rule:nonzero;" />
		<polygon points="29.3,181 31.6,181 33.9,184.45 31.6,187.9 29.3,187.9 27,184.45 "  style="fill:#000000ff;fill-rule:nonzero;" />
		<polygon points="29.3,195 31.6,195 33.9,198.45 31.6,201.9 29.3,201.9 27,198.45 "  style="fill:#000000ff;fill-rule:nonzero;" />
		<polygon points="29.3,230 31.6,230 33.9,233.45 31.6,236.9 29.3,236.9 27,233.45 "  style="fill:#000000ff;fill-rule:nonzero;" />
		<polygon points="29.3,272 31.6,272 33.9,275.45 31.6,278.9 29.3,278.9 27,275.45 "  style="fill:#000000ff;fill-rule:nonzero;" />
		<polygon points="36.3,20 38.6,20 40.9,23.45 38.6,26.9 36.3,26.9 34,23.45 "  style="fill:#000000ff;fill-rule:nonzero;" />
		<polygon points="36.3,34 38.6,34 40.9,37.45 38.6,40.9 36.3,40.9 34,37.45 "  style="fill:#000000ff;fill-rule:nonzero;" />
		<polygon points="36.3,41 38.6,41 40.9,44.45 38.6,47.9 36.3,47.9 34,44.45 "  style="fill:#000000ff;fill-rule:nonzero;" />
		<polygon points="36.3,48 38.6,48 40.9,51.45 38.6,54.9 36.3,54.9 34,51.45 "  style="fill:#000000ff;fill-rule:nonzero;" />
		<polygon points="36.3,62 38.6,62 40.9,65.45 38.6,68.9 36.3,68.9 34,65.45 "  style="fill:#000000ff;fill-rule:nonzero;" />
		<polygon points="36.3,76 38.6,76 40.9,79.45 38.6,82.9 36.3,82.9 34,79.45 "  style="fill:#000000ff;fill-rule:nonzero;" />
		<polygon points="36.3,90 38.6,90 40.9,93.45 38.6,96.9 36.3,96.9 34,93.45 "  style="fill:#000000ff;fill-rule:nonzero;" />
		<polygon points="36.3,104 38.6,104 40.9,107.45 38.6,110.9 36.3,110.9 34,107.45 "  style="fill:#000000ff;fill-rule:nonzero;" />
		<polygon points="36.3,118 38.6,118 40.9,121.45 38.6,124.9 36.3,124.9 34,121.45 "  style="fill:#000000ff;fill-rule:nonzero;" />
		<polygon points="36.3,139 38.6,139 40.9,142.45 38.6,145.9 36.3,145.9 34,142.45 "  style="fill:#000000ff;fill-rule:nonzero;" />
		<polygon points="36.3,153 38.6,153 40.9,156.45 38.6,159.9 36.3,159.9 34,156.45 "  style="fill:#000000ff;fill-rule:nonzero;" />
		<polygon points="36.3,160 38.6,160 40.9,163.45 38.6,166.9 36.3,166.9 34,163.45 "  style="fill:#000000ff;fill-rule:nonzero;" />
		<polygon points="36.3,167 38.6,167 40.9,170.45 38.6,173.9 36.3,173.9 34,170.45 "  style="fill:#000000ff;fill-rule:nonzero;" />
		<polygon points="36.3,174 38.6,174 40.9,177.45 38.6,180.9 36.3,180.9 34,177.45 "  style="fill:#000000ff;fill-rule:nonzero;" />
		<polygon points="36.3,202 38.6,202 40.9,205.45 38.6,208.9 36.3,208.9 34,205.45 "  style="fill:#000000ff;fill-rule:nonzero;" />
		<polygon points="36.3,209 38.6,209 40.9,212.45 38.6,215.9 36.3,215.9 34,212.45 "  style="fill:#000000ff;fill-rule:nonzero;" />
		<polygon points="36.3,216 38.6,216 40.9,219.45 38.6,222.9 36.3,222.9 34,219.45 "  style="fill:#000000ff;fill-rule:nonzero;" />
		<polygon points="36.3,230 38.6,230 40.9,233.45 38.6,236.9 36.3,236.9 34,233.45 "  style="fill:#000000ff;fill-rule:nonzero;" />
		<polygon points="36.3,244 38.6,244 40.9,247.45 38.6,250.9 36.3,250.9 34,247.45 "  style="fill:#000000ff;fill-rule:nonzero;" />
		<polygon points="36.3,251 38.6,251 40.9,254.45 38.6,257.9 36.3,257.9 34,254.45 "  style="fill:#000000ff;fill-rule:nonzero;" />
		<polygon points="36.3,258 38.6,258 40.9,261.45 38.6,264.9 36.3,264.9 34,261.45 "  style="fill:#000000ff;fill-rule:nonzero;" />
		<polygon points="36.3,272 38.6,272 40.9,275.45 38.6,278.9 36.3,278.9 34,275.45 "  style="fill:#000000ff;fill-rule:nonzero;" />
		<polygon points="43.3,20 45.6,20 47.9,23.45 45.6,26.9 43.3,26.9 41,23.45 "  style="fill:#000000ff;fill-rule:nonzero;" />
		<polygon points="43.3,34 45.6,34 47.9,37.45 45.6,40.9 43.3,40.9 41,37.45 "  style="fill:#000000ff;fill-rule:nonzero;" />
		<polygon points="43.3,41 45.6,41 47.9,44.45 45.6,47.9 43.3,47.9 41,44.45 "  style="fill:#000000ff;fill-rule:nonzero;" />
		<polygon points="43.3,48 45.6,48 47.9,51.45 45.6,54.9 43.3,54.9 41,51.45 "  style="fill:#000000ff;fill-rule:nonzero;" />
		<polygon points="43.3,62 45.6,62 47.9,65.45 45.6,68.9 43.3,68.9 41,65.45 "  style="fill:#000000ff;fill-rule:nonzero;" />
		<polygon points="43.3,76 45.6,76 47.9,79.45 45.6,82.9 43.3,82.9 41,79.45 "  style="fill:#000000ff;fill-rule:nonzero;" />
		<polygon points="43.3,104 45.6,104 47.9,107.45 45.6,110.9 43.3,110.9 41,107.45 "  style="fill:#000000ff;fill-rule:nonzero;" />
		<polygon points="43.3,111 45.6,111 47.9,114.45 45.6,117.9 43.3,117.9 41,114.45 "  style="fill:#000000ff;fill-rule:nonzero;" />
		<polygon points="43.3,118 45.6,118 47.9,121.45 45.6,124.9 43.3,124.9 41,121.45 "  style="fill:#000000ff;fill-rule:nonzero;" />
		<polygon points="43.3,125 45.6,125 47.9,128.45 45.6,131.9 43.3,131.9 41,128.45 "  style="fill:#000000ff;fill-rule:nonzero;" />
		<polygon points="43.3,139 45.6,139 47.9,142.45 45.6,145.9 43.3,145.9 41,142.45 "  style="fill:#000000ff;fill-rule:nonzero;" />
		<polygon points="43.3,146 45.6,146 47.9,149.45 45.6,152.9 43.3,152.9 41,149.45 "  style="fill:#000000ff;fill-rule:nonzero;" />
		<polygon points="43.3,160 45.6,160 47.9,163.45 45.6,166.9 43.3,166.9 41,163.45 "  style="fill:#000000ff;fill-rule:nonzero;" />
		<polygon points="43.3,195 45.6,195 47.9,198.45 45.6,201.9 43.3,201.9 41,198.45 "  style="fill:#000000ff;fill-rule:nonzero;" />
		<polygon points="43.3,209 45.6,209 47.9,212.45 45.6,215.9 43.3,215.9 41,212.45 "  style="fill:#000000ff;fill-rule:nonzero;" />
		<polygon points="43.3,230 45.6,230 47.9,233.45 45.6,236.9 43.3,236.9 41,233.45 "  style="fill:#000000ff;fill-rule:nonzero;" />
		<polygon points="43.3,244 45.6,244 47.9,247.45 45.6,250.9 43.3,250.9 41,247.45 "  style="fill:#000000ff;fill-rule:nonzero;" />
		<polygon points="43.3,251 45.6,251 47.9,254.45 45.6,257.9 43.3,257.9 41,254.45 "  style="fill:#000000ff;fill-rule:nonzero;" />
		<polygon points="43.3,258 45.6,258 47.9,261.45 45.6,264.9 43.3,264.9 41,261.45 "  style="fill:#000000ff;fill-rule:nonzero;" />
		<polygon points="43.3,272 45.6,272 47.9,275.45 45.6,278.9 43.3,278.9 41,275.45 "  style="fill:#000000ff;fill-rule:nonzero;" />
		<polygon points="50.3,20 52.6,20 54.9,23.45 52.6,26.9 50.3,26.9 48,23.45 "  style="fill:#000000ff;fill-rule:nonzero;" />
		<polygon points="50.3,34 52.6,34 54.9,37.45 52.6,40.9 50.3,40.9 48,37.45 "  style="fill:#000000ff;fill-rule:nonzero;" />
		<polygon points="50.3,41 52.6,41 54.9,44.45 52.6,47.9 50.3,47.9 48,44.45 "  style="fill:#000000ff;fill-rule:nonzero;" />
		<polygon points="50.3,48 52.6,48 54.9,51.45 52.6,54.9 50.3,54.9 48,51.45 "  style="fill:#000000ff;fill-rule:nonzero;" />
		<polygon points="50.3,62 52.6,62 54.9,65.45 52.6,68.9 50.3,68.9 48,65.45 "  style="fill:#000000ff;fill-rule:nonzero;" />
		<polygon points="50.3,76 52.6,76 54.9,79.45 52.6,82.9 50.3,82.9 48,79.45 "  style="fill:#000000ff;fill-rule:nonzero;" />
		<polygon points="50.3,83 52.6,83 54.9,86.45 52.6,89.9 50.3,89.9 48,86.45 "  style="fill:#000000ff;fill-rule:nonzero;" />
		<polygon points="50.3,90 52.6,90 54.9,93.45 52.6,96.9 50.3,96.9 48,93.45 "  style="fill:#000000ff;fill-rule:nonzero;" />
		<polygon points="50.3,97 52.6,97 54.9,100.45 52.6,103.9 50.3,103.9 48,100.45 "  style="fill:#000000ff;fill-rule:nonzero;" />
		<polygon points="50.3,104 52.6,104 54.9,107.45 52.6,110.9 50.3,110.9 48,107.45 "  style="fill:#000000ff;fill-rule:nonzero;" />
		<polygon points="50.3,111 52.6,111 54.9,114.45 52.6,117.9 50.3,117.9 48,114.45 "  style="fill:#000000ff;fill-rule:nonzero;" />
		<polygon points="50.3,118 52.6,118 54.9,121.45 52.6,124.9 50.3,124.9 48,121.45 "  style="fill:#000000ff;fill-rule:nonzero;" />
		<polygon points="50.3,125 52.6,125 54.9,128.45 52.6,131.9 50.3,131.9 48,128.45 "  style="fill:#000000ff;fill-rule:nonzero;" />
		<polygon points="50.3,139 52.6,139 54.9,142.45 52.6,145.9 50.3,145.9 48,142.45 "  style="fill:#000000ff;fill-rule:nonzero;" />
		<polygon points="50.3,174 52.6,174 54.9,177.45 52.6,180.9 50.3,180.9 48,177.45 "  style="fill:#000000ff;fill-rule:nonzero;" />
		<polygon points="50.3,195 52.6,195 54.9,198.45 52.6,201.9 50.3,201.9 48,198.45 "  style="fill:#000000ff;fill-rule:nonzero;" />
		<polygon points="50.3,202 52.6,202 54.9,205.45 52.6,208.9 50.3,208.9 48,205.45 "  style="fill:#000000ff;fill-rule:nonzero;" />
		<polygon points="50.3,209 52.6,209 54.9,212.45 52.6,215.9 50.3,215.9 48,212.45 "  style="fill:#000000ff;fill-rule:nonzero;" />
		<polygon points="50.3,216 52.6,216 54.9,219.45 52.6,222.9 50.3,222.9 48,219.45 "  style="fill:#000000ff;fill-rule:nonzero;" />
		<polygon points="50.3,230 52.6,230 54.9,233.45 52.6,236.9 50.3,236.9 48,233.45 "  style="fill:#000000ff;fill-rule:nonzero;" />
		<polygon points="50.3,244 52.6,244 54.9,247.45 52.6,250.9 50.3,250.9 48,247.45 "  style="fill:#000000ff;fill-rule:nonzero;" />
		<polygon points="50.3,251 52.6,251 54.9,254.45 52.6,257.9 50.3,257.9 48,254.45 "  style="fill:#000000ff;fill-rule:nonzero;" />
		<polygon points="50.3,258 52.6,258 54.9,261.45 52.6,264.9 50.3,264.9 48,261.45 "  style="fill:#000000ff;fill-rule:nonzero;" />
		<polygon points="50.3,272 52.6,272 54.9,275.45 52.6,278.9 50.3,278.9 48,275.45 "  style="fill:#000000ff;fill-rule:nonzero;" />
		<polygon points="57.3,20 59.6,20 61.9,23.45 59.6,26.9 57.3,26.9 55,23.45 "  style="fill:#000000ff;fill-rule:nonzero;" />
		<polygon points="57.3,62 59.6,62 61.9,65.45 59.6,68.9 57.3,68.9 55,65.45 "  style="fill:#000000ff;fill-rule:nonzero;" />
		<polygon points="57.3,90 59.6,90 61.9,93.45 59.6,96.9 57.3,96.9 55,93.45 "  style="fill:#000000ff;fill-rule:nonzero;" />
		<polygon points="57.3,97 59.6,97 61.9,100.45 59.6,103.9 57.3,103.9 55,100.45 "  style="fill:#000000ff;fill-rule:nonzero;" />
		<polygon points="57.3,111 59.6,111 61.9,114.45 59.6,117.9 57.3,117.9 55,114.45 "  style="fill:#000000ff;fill-rule:nonzero;" />
		<polygon points="57.3,118 59.6,118 61.9,121.45 59.6,124.9 57.3,124.9 55,121.45 "  style="fill:#000000ff;fill-rule:nonzero;" />
		<polygon points="57.3,125 59.6,125 61.9,128.45 59.6,131.9 57.3,131.9 55,128.45 "  style="fill:#000000ff;fill-rule:nonzero;" />
		<polygon points="57.3,132 59.6,132 61.9,135.45 59.6,138.9 57.3,138.9 55,135.45 "  style="fill:#000000ff;fill-rule:nonzero;" />
		<polygon points="57.3,139 59.6,139 61.9,142.45 59.6,145.9 57.3,145.9 55,142.45 "  style="fill:#000000ff;fill-rule:nonzero;" />
		<polygon points="57.3,167 59.6,167 61.9,170.45 59.6,173.9 57.3,173.9 55,170.45 "  style="fill:#000000ff;fill-rule:nonzero;" />
		<polygon points="57.3,181 59.6,181 61.9,184.45 59.6,187.9 57.3,187.9 55,184.45 "  style="fill:#000000ff;fill-rule:nonzero;" />
		<polygon points="57.3,195 59.6,195 61.9,198.45 59.6,201.9 57.3,201.9 55,198.45 "  style="fill:#000000ff;fill-rule:nonzero;" />
		<polygon points="57.3,230 59.6,230 61.9,233.45 59.6,236.9 57.3,236.9 55,233.45 "  style="fill:#000000ff;fill-rule:nonzero;" />
		<polygon points="57.3,272 59.6,272 61.9,275.45 59.6,278.9 57.3,278.9 55,275.45 "  style="fill:#000000ff;fill-rule:nonzero;" />
		<polygon points="64.3,20 66.6,20 68.9,23.45 66.6,26.9 64.3,26.9 62,23.45 "  style="fill:#000000ff;fill-rule:nonzero;" />
		<polygon points="64.3,27 66.6,27 68.9,30.45 66.6,33.9 64.3,33.9 62,30.45 "  style="fill:#000000ff;fill-rule:nonzero;" />
		<polygon points="64.3,34 66.6,34 68.9,37.45 66.6,40.9 64.3,40.9 62,37.45 "  style="fill:#000000ff;fill-rule:nonzero;" />
		<polygon points="64.3,41 66.6,41 68.9,44.45 66.6,47.9 64.3,47.9 62,44.45 "  style="fill:#000000ff;fill-rule:nonzero;" />
		<polygon points="64.3,48 66.6,48 68.9,51.45 66.6,54.9 64.3,54.9 62,51.45 "  style="fill:#000000ff;fill-rule:nonzero;" />
		<polygon points="64.3,55 66.6,55 68.9,58.45 66.6,61.9 64.3,61.9 62,58.45 "  style="fill:#000000ff;fill-rule:nonzero;" />
		<polygon points="64.3,62 66.6,62 68.9,65.45 66.6,68.9 64.3,68.9 62,65.45 "  style="fill:#000000ff;fill-rule:nonzero;" />
		<polygon points="64.3,76 66.6,76 68.9,79.45 66.6,82.9 64.3,82.9 62,79.45 "  style="fill:#000000ff;fill-rule:nonzero;" />
		<polygon points="64.3,90 66.6,90 68.9,93.45 66.6,96.9 64.3,96.9 62,93.45 "  style="fill:#000000ff;fill-rule:nonzero;" />
		<polygon points="64.3,104 66.6,104 68.9,107.45 66.6,110.9 64.3,110.9 62,107.45 "  style="fill:#000000ff;fill-rule:nonzero;" />
		<polygon points="64.3,118 66.6,118 68.9,121.45 66.6,124.9 64.3,124.9 62,121.45 "  style="fill:#000000ff;fill-rule:nonzero;" />
		<polygon points="64.3,132 66.6,132 68.9,135.45 66.6,138.9 64.3,138.9 62,135.45 "  style="fill:#000000ff;fill-rule:nonzero;" />
		<polygon points="64.3,146 66.6,146 68.9,149.45 66.6,152.9 64.3,152.9 62,149.45 "  style="fill:#000000ff;fill-rule:nonzero;" />
		<polygon points="64.3,160 66.6,160 68.9,163.45 66.6,166.9 64.3,166.9 62,163.45 "  style="fill:#000000ff;fill-rule:nonzero;" />
		<polygon points="64.3,174 66.6,174 68.9,177.45 66.6,180.9 64.3,180.9 62,177.45 "  style="fill:#000000ff;fill-rule:nonzero;" />
		<polygon points="64.3,188 66.6,188 68.9,191.45 66.6,194.9 64.3,194.9 62,191.45 "  style="fill:#000000ff;fill-rule:nonzero;" />
		<polygon points="64.3,202 66.6,202 68.9,205.45 66.6,208.9 64.3,208.9 62,205.45 "  style="fill:#000000ff;fill-rule:nonzero;" />
		<polygon points="64.3,216 66.6,216 68.9,219.45 66.6,222.9 64.3,222.9 62,219.45 "  style="fill:#000000ff;fill-rule:nonzero;" />
		<polygon points="64.3,230 66.6,230 68.9,233.45 66.6,236.9 64.3,236.9 62,233.45 "  style="fill:#000000ff;fill-rule:nonzero;" />
		<polygon points="64.3,237 66.6,237 68.9,240.45 66.6,243.9 64.3,243.9 62,240.45 "  style="fill:#000000ff;fill-rule:nonzero;" />
		<polygon points="64.3,244 66.6,244 68.9,247.45 66.6,250.9 64.3,250.9 62,247.45 "  style="fill:#000000ff;fill-rule:nonzero;" />
		<polygon points="64.3,251 66.6,251 68.9,254.45 66.6,257.9 64.3,257.9 62,254.45 "  style="fill:#000000ff;fill-rule:nonzero;" />
		<polygon points="64.3,258 66.6,258 68.9,261.45 66.6,264.9 64.3,264.9 62,261.45 "  style="fill:#000000ff;fill-rule:nonzero;" />
		<polygon points="64.3,265 66.6,265 68.9,268.45 66.6,271.9 64.3,271.9 62,268.45 "  style="fill:#000000ff;fill-rule:nonzero;" />
		<polygon points="64.3,272 66.6,272 68.9,275.45 66.6,278.9 64.3,278.9 62,275.45 "  style="fill:#000000ff;fill-rule:nonzero;" />
		<polygon points="71.3,90 73.6,90 75.9,93.45 73.6,96.9 71.3,96.9 69,93.45 "  style="fill:#000000ff;fill-rule:nonzero;" />
		<polygon points="71.3,125 73.6,125 75.9,128.45 73.6,131.9 71.3,131.9 69,128.45 "  style="fill:#000000ff;fill-rule:nonzero;" />
		<polygon points="71.3,146 73.6,146 75.9,149.45 73.6,152.9 71.3,152.9 69,149.45 "  style="fill:#000000ff;fill-rule:nonzero;" />
		<polygon points="71.3,160 73.6,160 75.9,163.45 73.6,166.9 71.3,166.9 69,163.45 "  style="fill:#000000ff;fill-rule:nonzero;" />
		<polygon points="71.3,181 73.6,181 75.9,184.45 73.6,187.9 71.3,187.9 69,184.45 "  style="fill:#000000ff;fill-rule:nonzero;" />
		<polygon points="71.3,195 73.6,195 75.9,198.45 73.6,201.9 71.3,201.9 69,198.45 "  style="fill:#000000ff;fill-rule:nonzero;" />
		<polygon points="71.3,209 73.6,209 75.9,212.45 73.6,215.9 71.3,215.9 69,212.45 "  style="fill:#000000ff;fill-rule:nonzero;" />
		<polygon points="71.3,216 73.6,216 75.9,219.45 73.6,222.9 71.3,222.9 69,219.45 "  style="fill:#000000ff;fill-rule:nonzero;" />
		<polygon points="78.3,20 80.6,20 82.9,23.45 80.6,26.9 78.3,26.9 76,23.45 "  style="fill:#000000ff;fill-rule:nonzero;" />
		<polygon points="78.3,27 80.6,27 82.9,30.45 80.6,33.9 78.3,33.9 76,30.45 "  style="fill:#000000ff;fill-rule:nonzero;" />
		<polygon points="78.3,34 80.6,34 82.9,37.45 80.6,40.9 78.3,40.9 76,37.45 "  style="fill:#000000ff;fill-rule:nonzero;" />
		<polygon points="78.3,55 80.6,55 82.9,58.45 80.6,61.9 78.3,61.9 76,58.45 "  style="fill:#000000ff;fill-rule:nonzero;" />
		<polygon points="78.3,62 80.6,62 82.9,65.45 80.6,68.9 78.3,68.9 76,65.45 "  style="fill:#000000ff;fill-rule:nonzero;" />
		<polygon points="78.3,69 80.6,69 82.9,72.45 80.6,75.9 78.3,75.9 76,72.45 "  style="fill:#000000ff;fill-rule:nonzero;" />
		<polygon points="78.3,76 80.6,76 82.9,79.45 80.6,82.9 78.3,82.9 76,79.45 "  style="fill:#000000ff;fill-rule:nonzero;" />
		<polygon points="78.3,90 80.6,90 82.9,93.45 80.6,96.9 78.3,96.9 76,93.45 "  style="fill:#000000ff;fill-rule:nonzero;" />
		<polygon points="78.3,104 80.6,104 82.9,107.45 80.6,110.9 78.3,110.9 76,107.45 "  style="fill:#000000ff;fill-rule:nonzero;" />
		<polygon points="78.3,118 80.6,118 82.9,121.45 80.6,124.9 78.3,124.9 76,121.45 "  style="fill:#000000ff;fill-rule:nonzero;" />
		<polygon points="78.3,125 80.6,125 82.9,128.45 80.6,131.9 78.3,131.9 76,128.45 "  style="fill:#000000ff;fill-rule:nonzero;" />
		<polygon points="78.3,132 80.6,132 82.9,135.45 80.6,138.9 78.3,138.9 76,135.45 "  style="fill:#000000ff;fill-rule:nonzero;" />
		<polygon points="78.3,139 80.6,139 82.9,142.45 80.6,145.9 78.3,145.9 76,142.45 "  style="fill:#000000ff;fill-rule:nonzero;" />
		<polygon points="78.3,146 80.6,146 82.9,149.45 80.6,152.9 78.3,152.9 76,149.45 "  style="fill:#000000ff;fill-rule:nonzero;" />
		<polygon points="78.3,153 80.6,153 82.9,156.45 80.6,159.9 78.3,159.9 76,156.45 "  style="fill:#000000ff;fill-rule:nonzero;" />
		<polygon points="78.3,188 80.6,188 82.9,191.45 80.6,194.9 78.3,194.9 76,191.45 "  style="fill:#000000ff;fill-rule:nonzero;" />
		<polygon points="78.3,195 80.6,195 82.9,198.45 80.6,201.9 78.3,201.9 76,198.45 "  style="fill:#000000ff;fill-rule:nonzero;" />
		<polygon points="78.3,202 80.6,202 82.9,205.45 80.6,208.9 78.3,208.9 76,205.45 "  style="fill:#000000ff;fill-rule:nonzero;" />
		<polygon points="78.3,216 80.6,216 82.9,219.45 80.6,222.9 78.3,222.9 76,219.45 "  style="fill:#000000ff;fill-rule:nonzero;" />
		<polygon points="78.3,223 80.6,223 82.9,226.45 80.6,229.9 78.3,229.9 76,226.45 "  style="fill:#000000ff;fill-rule:nonzero;" />
		<polygon points="78.3,244 80.6,244 82.9,247.45 80.6,250.9 78.3,250.9 76,247.45 "  style="fill:#000000ff;fill-rule:nonzero;" />
		<polygon points="78.3,251 80.6,251 82.9,254.45 80.6,257.9 78.3,257.9 76,254.45 "  style="fill:#000000ff;fill-rule:nonzero;" />
		<polygon points="78.3,258 80.6,258 82.9,261.45 80.6,264.9 78.3,264.9 76,261.45 "  style="fill:#000000ff;fill-rule:nonzero;" />
		<polygon points="85.3,34 87.6,34 89.9,37.45 87.6,40.9 85.3,40.9 83,37.45 "  style="fill:#000000ff;fill-rule:nonzero;" />
		<polygon points="85.3,55 87.6,55 89.9,58.45 87.6,61.9 85.3,61.9 83,58.45 "  style="fill:#000000ff;fill-rule:nonzero;" />
		<polygon points="85.3,69 87.6,69 89.9,72.45 87.6,75.9 85.3,75.9 83,72.45 "  style="fill:#000000ff;fill-rule:nonzero;" />
		<polygon points="85.3,83 87.6,83 89.9,86.45 87.6,89.9 85.3,89.9 83,86.45 "  style="fill:#000000ff;fill-rule:nonzero;" />
		<polygon points="85.3,90 87.6,90 89.9,93.45 87.6,96.9 85.3,96.9 83,93.45 "  style="fill:#000000ff;fill-rule:nonzero;" />
		<polygon points="85.3,97 87.6,97 89.9,100.45 87.6,103.9 85.3,103.9 83,100.45 "  style="fill:#000000ff;fill-rule:nonzero;" />
		<polygon points="85.3,104 87.6,104 89.9,107.45 87.6,110.9 85.3,110.9 83,107.45 "  style="fill:#000000ff;fill-rule:nonzero;" />
		<polygon points="85.3,118 87.6,118 89.9,121.45 87.6,124.9 85.3,124.9 83,121.45 "  style="fill:#000000ff;fill-rule:nonzero;" />
		<polygon points="85.3,125 87.6,125 89.9,128.45 87.6,131.9 85.3,131.9 83,128.45 "  style="fill:#000000ff;fill-rule:nonzero;" />
		<polygon points="85.3,146 87.6,146 89.9,149.45 87.6,152.9 85.3,152.9 83,149.45 "  style="fill:#000000ff;fill-rule:nonzero;" />
		<polygon points="85.3,160 87.6,160 89.9,163.45 87.6,166.9 85.3,166.9 83,163.45 "  style="fill:#000000ff;fill-rule:nonzero;" />
		<polygon points="85.3,167 87.6,167 89.9,170.45 87.6,173.9 85.3,173.9 83,170.45 "  style="fill:#000000ff;fill-rule:nonzero;" />
		<polygon points="85.3,174 87.6,174 89.9,177.45 87.6,180.9 85.3,180.9 83,177.45 "  style="fill:#000000ff;fill-rule:nonzero;" />
		<polygon points="85.3,181 87.6,181 89.9,184.45 87.6,187.9 85.3,187.9 83,184.45 "  style="fill:#000000ff;fill-rule:nonzero;" />
		<polygon points="85.3,188 87.6,188 89.9,191.45 87.6,194.9 85.3,194.9 83,191.45 "  style="fill:#000000ff;fill-rule:nonzero;" />
		<polygon points="85.3,195 87.6,195 89.9,198.45 87.6,201.9 85.3,201.9 83,198.45 "  style="fill:#000000ff;fill-rule:nonzero;" />
		<polygon points="85.3,223 87.6,223 89.9,226.45 87.6,229.9 85.3,229.9 83,226.45 "  style="fill:#000000ff;fill-rule:nonzero;" />
		<polygon points="85.3,244 87.6,244 89.9,247.45 87.6,250.9 85.3,250.9 83,247.45 "  style="fill:#000000ff;fill-rule:nonzero;" />
		<polygon points="92.3,27 94.6,27 96.9,30.45 94.6,33.9 92.3,33.9 90,30.45 "  style="fill:#000000ff;fill-rule:nonzero;" />
		<polygon points="92.3,34 94.6,34 96.9,37.45 94.6,40.9 92.3,40.9 90,37.45 "  style="fill:#000000ff;fill-rule:nonzero;" />
		<polygon points="92.3,41 94.6,41 96.9,44.45 94.6,47.9 92.3,47.9 90,44.45 "  style="fill:#000000ff;fill-rule:nonzero;" />
		<polygon points="92.3,48 94.6,48 96.9,51.45 94.6,54.9 92.3,54.9 90,51.45 "  style="fill:#000000ff;fill-rule:nonzero;" />
		<polygon points="92.3,55 94.6,55 96.9,58.45 94.6,61.9 92.3,61.9 90,58.45 "  style="fill:#000000ff;fill-rule:nonzero;" />
		<polygon points="92.3,62 94.6,62 96.9,65.45 94.6,68.9 92.3,68.9 90,65.45 "  style="fill:#000000ff;fill-rule:nonzero;" />
		<polygon points="92.3,69 94.6,69 96.9,72.45 94.6,75.9 92.3,75.9 90,72.45 "  style="fill:#000000ff;fill-rule:nonzero;" />
		<polygon points="92.3,76 94.6,76 96.9,79.45 94.6,82.9 92.3,82.9 90,79.45 "  style="fill:#000000ff;fill-rule:nonzero;" />
		<polygon points="92.3,90 94.6,90 96.9,93.45 94.6,96.9 92.3,96.9 90,93.45 "  style="fill:#000000ff;fill-rule:nonzero;" />
		<polygon points="92.3,97 94.6,97 96.9,100.45 94.6,103.9 92.3,103.9 90,100.45 "  style="fill:#000000ff;fill-rule:nonzero;" />
		<polygon points="92.3,104 94.6,104 96.9,107.45 94.6,110.9 92.3,110.9 90,107.45 "  style="fill:#000000ff;fill-rule:nonzero;" />
		<polygon points="92.3,111 94.6,111 96.9,114.45 94.6,117.9 92.3,117.9 90,114.45 "  style="fill:#000000ff;fill-rule:nonzero;" />
		<polygon points="92.3,125 94.6,125 96.9,128.45 94.6,131.9 92.3,131.9 90,128.45 "  style="fill:#000000ff;fill-rule:nonzero;" />
		<polygon points="92.3,132 94.6,132 96.9,135.45 94.6,138.9 92.3,138.9 90,135.45 "  style="fill:#000000ff;fill-rule:nonzero;" />
		<polygon points="92.3,146 94.6,146 96.9,149.45 94.6,152.9 92.3,152.9 90,149.45 "  style="fill:#000000ff;fill-rule:nonzero;" />
		<polygon points="92.3,153 94.6,153 96.9,156.45 94.6,159.9 92.3,159.9 90,156.45 "  style="fill:#000000ff;fill-rule:nonzero;" />
		<polygon points="92.3,174 94.6,174 96.9,177.45 94.6,180.9 92.3,180.9 90,177.45 "  style="fill:#000000ff;fill-rule:nonzero;" />
		<polygon points="92.3,188 94.6,188 96.9,191.45 94.6,194.9 92.3,194.9 90,191.45 "  style="fill:#000000ff;fill-rule:nonzero;" />
		<polygon points="92.3,195 94.6,195 96.9,198.45 94.6,201.9 92.3,201.9 90,198.45 "  style="fill:#000000ff;fill-rule:nonzero;" />
		<polygon points="92.3,216 94.6,216 96.9,219.45 94.6,222.9 92.3,222.9 90,219.45 "  style="fill:#000000ff;fill-rule:nonzero;" />
		<polygon points="92.3,223 94.6,223 96.9,226.45 94.6,229.9 92.3,229.9 90,226.45 "  style="fill:#000000ff;fill-rule:nonzero;" />
		<polygon points="92.3,230 94.6,230 96.9,233.45 94.6,236.9 92.3,236.9 90,233.45 "  style="fill:#000000ff;fill-rule:nonzero;" />
		<polygon points="92.3,237 94.6,237 96.9,240.45 94.6,243.9 92.3,243.9 90,240.45 "  style="fill:#000000ff;fill-rule:nonzero;" />
		<polygon points="92.3,251 94.6,251 96.9,254.45 94.6,257.9 92.3,257.9 90,254.45 "  style="fill:#000000ff;fill-rule:nonzero;" />
		<polygon points="92.3,265 94.6,265 96.9,268.45 94.6,271.9 92.3,271.9 90,268.45 "  style="fill:#000000ff;fill-rule:nonzero;" />
		<polygon points="99.3,34 101.6,34 103.9,37.45 101.6,40.9 99.3,40.9 97,37.45 "  style="fill:#000000ff;fill-rule:nonzero;" />
		<polygon points="99.3,41 101.6,41 103.9,44.45 101.6,47.9 99.3,47.9 97,44.45 "  style="fill:#000000ff;fill-rule:nonzero;" />
		<polygon points="99.3,48 101.6,48 103.9,51.45 101.6,54.9 99.3,54.9 97,51.45 "  style="fill:#000000ff;fill-rule:nonzero;" />
		<polygon points="99.3,69 101.6,69 103.9,72.45 101.6,75.9 99.3,75.9 97,72.45 "  style="fill:#000000ff;fill-rule:nonzero;" />
		<polygon points="99.3,76 101.6,76 103.9,79.45 101.6,82.9 99.3,82.9 97,79.45 "  style="fill:#000000ff;fill-rule:nonzero;" />
		<polygon points="99.3,90 101.6,90 103.9,93.45 101.6,96.9 99.3,96.9 97,93.45 "  style="fill:#000000ff;fill-rule:nonzero;" />
		<polygon points="99.3,111 101.6,111 103.9,114.45 101.6,117.9 99.3,117.9 97,114.45 "  style="fill:#000000ff;fill-rule:nonzero;" />
		<polygon points="99.3,118 101.6,118 103.9,121.45 101.6,124.9 99.3,124.9 97,121.45 "  style="fill:#000000ff;fill-rule:nonzero;" />
		<polygon points="99.3,125 101.6,125 103.9,128.45 101.6,131.9 99.3,131.9 97,128.45 "  style="fill:#000000ff;fill-rule:nonzero;" />
		<polygon points="99.3,153 101.6,153 103.9,156.45 101.6,159.9 99.3,159.9 97,156.45 "  style="fill:#000000ff;fill-rule:nonzero;" />
		<polygon points="99.3,167 101.6,167 103.9,170.45 101.6,173.9 99.3,173.9 97,170.45 "  style="fill:#000000ff;fill-rule:nonzero;" />
		<polygon points="99.3,195 101.6,195 103.9,198.45 101.6,201.9 99.3,201.9 97,198.45 "  style="fill:#000000ff;fill-rule:nonzero;" />
		<polygon points="99.3,202 101.6,202 103.9,205.45 101.6,208.9 99.3,208.9 97,205.45 "  style="fill:#000000ff;fill-rule:nonzero;" />
		<polygon points="99.3,216 101.6,216 103.9,219.45 101.6,222.9 99.3,222.9 97,219.45 "  style="fill:#000000ff;fill-rule:nonzero;" />
		<polygon points="99.3,223 101.6,223 103.9,226.45 101.6,229.9 99.3,229.9 97,226.45 "  style="fill:#000000ff;fill-rule:nonzero;" />
		<polygon points="106.3,27 108.6,27 110.9,30.45 108.6,33.9 106.3,33.9 104,30.45 "  style="fill:#000000ff;fill-rule:nonzero;" />
		<polygon points="106.3,34 108.6,34 110.9,37.45 108.6,40.9 106.3,40.9 104,37.45 "  style="fill:#000000ff;fill-rule:nonzero;" />
		<polygon points="106.3,41 108.6,41 110.9,44.45 108.6,47.9 106.3,47.9 104,44.45 "  style="fill:#000000ff;fill-rule:nonzero;" />
		<polygon points="106.3,48 108.6,48 110.9,51.45 108.6,54.9 106.3,54.9 104,51.45 "  style="fill:#000000ff;fill-rule:nonzero;" />
		<polygon points="106.3,62 108.6,62 110.9,65.45 108.6,68.9 106.3,68.9 104,65.45 "  style="fill:#000000ff;fill-rule:nonzero;" />
		<polygon points="106.3,69 108.6,69 110.9,72.45 108.6,75.9 106.3,75.9 104,72.45 "  style="fill:#000000ff;fill-rule:nonzero;" />
		<polygon points="106.3,76 108.6,76 110.9,79.45 108.6,82.9 106.3,82.9 104,79.45 "  style="fill:#000000ff;fill-rule:nonzero;" />
		<polygon points="106.3,83 108.6,83 110.9,86.45 108.6,89.9 106.3,89.9 104,86.45 "  style="fill:#000000ff;fill-rule:nonzero;" />
		<polygon points="106.3,111 108.6,111 110.9,114.45 108.6,117.9 106.3,117.9 104,114.45 "  style="fill:#000000ff;fill-rule:nonzero;" />
		<polygon points="106.3,118 108.6,118 110.9,121.45 108.6,124.9 106.3,124.9 104,121.45 "  style="fill:#000000ff;fill-rule:nonzero;" />
		<polygon points="106.3,125 108.6,125 110.9,128.45 108.6,131.9 106.3,131.9 104,128.45 "  style="fill:#000000ff;fill-rule:nonzero;" />
		<polygon points="106.3,146 108.6,146 110.9,149.45 108.6,152.9 106.3,152.9 104,149.45 "  style="fill:#000000ff;fill-rule:nonzero;" />
		<polygon points="106.3,174 108.6,174 110.9,177.45 108.6,180.9 106.3,180.9 104,177.45 "  style="fill:#000000ff;fill-rule:nonzero;" />
		<polygon points="106.3,181 108.6,181 110.9,184.45 108.6,187.9 106.3,187.9 104,184.45 "  style="fill:#000000ff;fill-rule:nonzero;" />
		<polygon points="106.3,188 108.6,188 110.9,191.45 108.6,194.9 106.3,194.9 104,191.45 "  style="fill:#000000ff;fill-rule:nonzero;" />
		<polygon points="106.3,216 108.6,216 110.9,219.45 108.6,222.9 106.3,222.9 104,219.45 "  style="fill:#000000ff;fill-rule:nonzero;" />
		<polygon points="106.3,230 108.6,230 110.9,233.45 108.6,236.9 106.3,236.9 104,233.45 "  style="fill:#000000ff;fill-rule:nonzero;" />
		<polygon points="106.3,244 108.6,244 110.9,247.45 108.6,250.9 106.3,250.9 104,247.45 "  style="fill:#000000ff;fill-rule:nonzero;" />
		<polygon points="106.3,251 108.6,251 110.9,254.45 108.6,257.9 106.3,257.9 104,254.45 "  style="fill:#000000ff;fill-rule:nonzero;" />
		<polygon points="106.3,258 108.6,258 110.9,261.45 108.6,264.9 106.3,264.9 104,261.45 "  style="fill:#000000ff;fill-rule:nonzero;" />
		<polygon points="106.3,265 108.6,265 110.9,268.45 108.6,271.9 106.3,271.9 104,268.45 "  style="fill:#000000ff;fill-rule:nonzero;" />
		<polygon points="106.3,272 108.6,272 110.9,275.45 108.6,278.9 106.3,278.9 104,275.45 "  style="fill:#000000ff;fill-rule:nonzero;" />
		<polygon points="113.3,48 115.6,48 117.9,51.45 115.6,54.9 113.3,54.9 111,51.45 "  style="fill:#000000ff;fill-rule:nonzero;" />
		<polygon points="113.3,76 115.6,76 117.9,79.45 115.6,82.9 113.3,82.9 111,79.45 "  style="fill:#000000ff;fill-rule:nonzero;" />
		<polygon points="113.3,83 115.6,83 117.9,86.45 115.6,89.9 113.3,89.9 111,86.45 "  style="fill:#000000ff;fill-rule:nonzero;" />
		<polygon points="113.3,97 115.6,97 117.9,100.45 115.6,103.9 113.3,103.9 111,100.45 "  style="fill:#000000ff;fill-rule:nonzero;" />
		<polygon points="113.3,104 115.6,104 117.9,107.45 115.6,110.9 113.3,110.9 111,107.45 "  style="fill:#000000ff;fill-rule:nonzero;" />
		<polygon points="113.3,125 115.6,125 117.9,128.45 115.6,131.9 113.3,131.9 111,128.45 "  style="fill:#000000ff;fill-rule:nonzero;" />
		<polygon points="113.3,132 115.6,132 117.9,135.45 115.6,138.9 113.3,138.9 111,135.45 "  style="fill:#000000ff;fill-rule:nonzero;" />
		<polygon points="113.3,146 115.6,146 117.9,149.45 115.6,152.9 113.3,152.9 111,149.45 "  style="fill:#000000ff;fill-rule:nonzero;" />
		<polygon points="113.3,153 115.6,153 117.9,156.45 115.6,159.9 113.3,159.9 111,156.45 "  style="fill:#000000ff;fill-rule:nonzero;" />
		<polygon points="113.3,160 115.6,160 117.9,163.45 115.6,166.9 113.3,166.9 111,163.45 "  style="fill:#000000ff;fill-rule:nonzero;" />
		<polygon points="113.3,167 115.6,167 117.9,170.45 115.6,173.9 113.3,173.9 111,170.45 "  style="fill:#000000ff;fill-rule:nonzero;" />
		<polygon points="113.3,174 115.6,174 117.9,177.45 115.6,180.9 113.3,180.9 111,177.45 "  style="fill:#000000ff;fill-rule:nonzero;" />
		<polygon points="113.3,181 115.6,181 117.9,184.45 115.6,187.9 113.3,187.9 111,184.45 "  style="fill:#000000ff;fill-rule:nonzero;" />
		<polygon points="113.3,188 115.6,188 117.9,191.45 115.6,194.9 113.3,194.9 111,191.45 "  style="fill:#000000ff;fill-rule:nonzero;" />
		<polygon points="113.3,209 115.6,209 117.9,212.45 115.6,215.9 113.3,215.9 111,212.45 "  style="fill:#000000ff;fill-rule:nonzero;" />
		<polygon points="113.3,237 115.6,237 117.9,240.45 115.6,243.9 113.3,243.9 111,240.45 "  style="fill:#000000ff;fill-rule:nonzero;" />
		<polygon points="113.3,244 115.6,244 117.9,247.45 115.6,250.9 113.3,250.9 111,247.45 "  style="fill:#000000ff;fill-rule:nonzero;" />
		<polygon points="113.3,258 115.6,258 117.9,261.45 115.6,264.9 113.3,264.9 111,261.45 "  style="fill:#000000ff;fill-rule:nonzero;" />
		<polygon points="113.3,272 115.6,272 117.9,275.45 115.6,278.9 113.3,278.9 111,275.45 "  style="fill:#000000ff;fill-rule:nonzero;" />
		<polygon points="120.3,34 122.6,34 124.9,37.45 122.6,40.9 120.3,40.9 118,37.45 "  style="fill:#000000ff;fill-rule:nonzero;" />
		<polygon points="120.3,41 122.6,41 124.9,44.45 122.6,47.9 120.3,47.9 118,44.45 "  style="fill:#000000ff;fill-rule:nonzero;" />
		<polygon points="120.3,55 122.6,55 124.9,58.45 122.6,61.9 120.3,61.9 118,58.45 "  style="fill:#000000ff;fill-rule:nonzero;" />
		<polygon points="120.3,62 122.6,62 124.9,65.45 122.6,68.9 120.3,68.9 118,65.45 "  style="fill:#000000ff;fill-rule:nonzero;" />
		<polygon points="120.3,69 122.6,69 124.9,72.45 122.6,75.9 120.3,75.9 118,72.45 "  style="fill:#000000ff;fill-rule:nonzero;" />
		<polygon points="120.3,83 122.6,83 124.9,86.45 122.6,89.9 120.3,89.9 118,86.45 "  style="fill:#000000ff;fill-rule:nonzero;" />
		<polygon points="120.3,104 122.6,104 124.9,107.45 122.6,110.9 120.3,110.9 118,107.45 "  style="fill:#000000ff;fill-rule:nonzero;" />
		<polygon points="120.3,111 122.6,111 124.9,114.45 122.6,117.9 120.3,117.9 118,114.45 "  style="fill:#000000ff;fill-rule:nonzero;" />
		<polygon points="120.3,118 122.6,118 124.9,121.45 122.6,124.9 120.3,124.9 118,121.45 "  style="fill:#000000ff;fill-rule:nonzero;" />
		<polygon points="120.3,125 122.6,125 124.9,128.45 122.6,131.9 120.3,131.9 118,128.45 "  style="fill:#000000ff;fill-rule:nonzero;" />
		<polygon points="120.3,139 122.6,139 124.9,142.45 122.6,145.9 120.3,145.9 118,142.45 "  style="fill:#000000ff;fill-rule:nonzero;" />
		<polygon points="120.3,174 122.6,174 124.9,177.45 122.6,180.9 120.3,180.9 118,177.45 "  style="fill:#000000ff;fill-rule:nonzero;" />
		<polygon points="120.3,188 122.6,188 124.9,191.45 122.6,194.9 120.3,194.9 118,191.45 "  style="fill:#000000ff;fill-rule:nonzero;" />
		<polygon points="120.3,195 122.6,195 124.9,198.45 122.6,201.9 120.3,201.9 118,198.45 "  style="fill:#000000ff;fill-rule:nonzero;" />
		<polygon points="120.3,202 122.6,202 124.9,205.45 122.6,208.9 120.3,208.9 118,205.45 "  style="fill:#000000ff;fill-rule:nonzero;" />
		<polygon points="120.3,223 122.6,223 124.9,226.45 122.6,229.9 120.3,229.9 118,226.45 "  style="fill:#000000ff;fill-rule:nonzero;" />
		<polygon points="120.3,244 122.6,244 124.9,247.45 122.6,250.9 120.3,250.9 118,247.45 "  style="fill:#000000ff;fill-rule:nonzero;" />
		<polygon points="120.3,251 122.6,251 124.9,254.45 122.6,257.9 120.3,257.9 118,254.45 "  style="fill:#000000ff;fill-rule:nonzero;" />
		<polygon points="120.3,272 122.6,272 124.9,275.45 122.6,278.9 120.3,278.9 118,275.45 "  style="fill:#000000ff;fill-rule:nonzero;" />
		<polygon points="127.3,20 129.6,20 131.9,23.45 129.6,26.9 127.3,26.9 125,23.45 "  style="fill:#000000ff;fill-rule:nonzero;" />
		<polygon points="127.3,34 129.6,34 131.9,37.45 129.6,40.9 127.3,40.9 125,37.45 "  style="fill:#000000ff;fill-rule:nonzero;" />
		<polygon points="127.3,76 129.6,76 131.9,79.45 129.6,82.9 127.3,82.9 125,79.45 "  style="fill:#000000ff;fill-rule:nonzero;" />
		<polygon points="127.3,83 129.6,83 131.9,86.45 129.6,89.9 127.3,89.9 125,86.45 "  style="fill:#000000ff;fill-rule:nonzero;" />
		<polygon points="127.3,90 129.6,90 131.9,93.45 129.6,96.9 127.3,96.9 125,93.45 "  style="fill:#000000ff;fill-rule:nonzero;" />
		<polygon points="127.3,104 129.6,104 131.9,107.45 129.6,110.9 127.3,110.9 125,107.45 "  style="fill:#000000ff;fill-rule:nonzero;" />
		<polygon points="127.3,118 129.6,118 131.9,121.45 129.6,124.9 127.3,124.9 125,121.45 "  style="fill:#000000ff;fill-rule:nonzero;" />
		<polygon points="127.3,125 129.6,125 131.9,128.45 129.6,131.9 127.3,131.9 125,128.45 "  style="fill:#000000ff;fill-rule:nonzero;" />
		<polygon points="127.3,132 129.6,132 131.9,135.45 129.6,138.9 127.3,138.9 125,135.45 "  style="fill:#000000ff;fill-rule:nonzero;" />
		<polygon points="127.3,146 129.6,146 131.9,149.45 129.6,152.9 127.3,152.9 125,149.45 "  style="fill:#000000ff;fill-rule:nonzero;" />
		<polygon points="127.3,160 129.6,160 131.9,163.45 129.6,166.9 127.3,166.9 125,163.45 "  style="fill:#000000ff;fill-rule:nonzero;" />
		<polygon points="127.3,174 129.6,174 131.9,177.45 129.6,180.9 127.3,180.9 125,177.45 "  style="fill:#000000ff;fill-rule:nonzero;" />
		<polygon points="127.3,181 129.6,181 131.9,184.45 129.6,187.9 127.3,187.9 125,184.45 "  style="fill:#000000ff;fill-rule:nonzero;" />
		<polygon points="127.3,202 129.6,202 131.9,205.45 129.6,208.9 127.3,208.9 125,205.45 "  style="fill:#000000ff;fill-rule:nonzero;" />
		<polygon points="127.3,209 129.6,209 131.9,212.45 129.6,215.9 127.3,215.9 125,212.45 "  style="fill:#000000ff;fill-rule:nonzero;" />
		<polygon points="127.3,237 129.6,237 131.9,240.45 129.6,243.9 127.3,243.9 125,240.45 "  style="fill:#000000ff;fill-rule:nonzero;" />
		<polygon points="127.3,258 129.6,258 131.9,261.45 129.6,264.9 127.3,264.9 125,261.45 "  style="fill:#000000ff;fill-rule:nonzero;" />
		<polygon points="134.3,34 136.6,34 138.9,37.45 136.6,40.9 134.3,40.9 132,37.45 "  style="fill:#000000ff;fill-rule:nonzero;" />
		<polygon points="134.3,62 136.6,62 138.9,65.45 136.6,68.9 134.3,68.9 132,65.45 "  style="fill:#000000ff;fill-rule:nonzero;" />
		<polygon points="134.3,76 136.6,76 138.9,79.45 136.6,82.9 134.3,82.9 132,79.45 "  style="fill:#000000ff;fill-rule:nonzero;" />
		<polygon points="134.3,111 136.6,111 138.9,114.45 136.6,117.9 134.3,117.9 132,114.45 "  style="fill:#000000ff;fill-rule:nonzero;" />
		<polygon points="134.3,125 136.6,125 138.9,128.45 136.6,131.9 134.3,131.9 132,128.45 "  style="fill:#000000ff;fill-rule:nonzero;" />
		<polygon points="134.3,132 136.6,132 138.9,135.45 136.6,138.9 134.3,138.9 132,135.45 "  style="fill:#000000ff;fill-rule:nonzero;" />
		<polygon points="134.3,146 136.6,146 138.9,149.45 136.6,152.9 134.3,152.9 132,149.45 "  style="fill:#000000ff;fill-rule:nonzero;" />
		<polygon points="134.3,153 136.6,153 138.9,156.45 136.6,159.9 134.3,159.9 132,156.45 "  style="fill:#000000ff;fill-rule:nonzero;" />
		<polygon points="134.3,160 136.6,160 138.9,163.45 136.6,166.9 134.3,166.9 132,163.45 "  style="fill:#000000ff;fill-rule:nonzero;" />
		<polygon points="134.3,167 136.6,167 138.9,170.45 136.6,173.9 134.3,173.9 132,170.45 "  style="fill:#000000ff;fill-rule:nonzero;" />
		<polygon points="134.3,174 136.6,174 138.9,177.45 136.6,180.9 134.3,180.9 132,177.45 "  style="fill:#000000ff;fill-rule:nonzero;" />
		<polygon points="134.3,195 136.6,195 138.9,198.45 136.6,201.9 134.3,201.9 132,198.45 "  style="fill:#000000ff;fill-rule:nonzero;" />
		<polygon points="134.3,216 136.6,216 138.9,219.45 136.6,222.9 134.3,222.9 132,219.45 "  style="fill:#000000ff;fill-rule:nonzero;" />
		<polygon points="134.3,223 136.6,223 138.9,226.45 136.6,229.9 134.3,229.9 132,226.45 "  style="fill:#000000ff;fill-rule:nonzero;" />
		<polygon points="134.3,230 136.6,230 138.9,233.45 136.6,236.9 134.3,236.9 132,233.45 "  style="fill:#000000ff;fill-rule:nonzero;" />
		<polygon points="134.3,244 136.6,244 138.9,247.45 136.6,250.9 134.3,250.9 132,247.45 "  style="fill:#000000ff;fill-rule:nonzero;" />
		<polygon points="134.3,272 136.6,272 138.9,275.45 136.6,278.9 134.3,278.9 132,275.45 "  style="fill:#000000ff;fill-rule:nonzero;" />
		<polygon points="141.3,27 143.6,27 145.9,30.45 143.6,33.9 141.3,33.9 139,30.45 "  style="fill:#000000ff;fill-rule:nonzero;" />
		<polygon points="141.3,55 143.6,55 145.9,58.45 143.6,61.9 141.3,61.9 139,58.45 "  style="fill:#000000ff;fill-rule:nonzero;" />
		<polygon points="141.3,69 143.6,69 145.9,72.45 143.6,75.9 141.3,75.9 139,72.45 "  style="fill:#000000ff;fill-rule:nonzero;" />
		<polygon points="141.3,104 143.6,104 145.9,107.45 143.6,110.9 141.3,110.9 139,107.45 "  style="fill:#000000ff;fill-rule:nonzero;" />
		<polygon points="141.3,118 143.6,118 145.9,121.45 143.6,124.9 141.3,124.9 139,121.45 "  style="fill:#000000ff;fill-rule:nonzero;" />
		<polygon points="141.3,125 143.6,125 145.9,128.45 143.6,131.9 141.3,131.9 139,128.45 "  style="fill:#000000ff;fill-rule:nonzero;" />
		<polygon points="141.3,132 143.6,132 145.9,135.45 143.6,138.9 141.3,138.9 139,135.45 "  style="fill:#000000ff;fill-rule:nonzero;" />
		<polygon points="141.3,139 143.6,139 145.9,142.45 143.6,145.9 141.3,145.9 139,142.45 "  style="fill:#000000ff;fill-rule:nonzero;" />
		<polygon points="141.3,167 143.6,167 145.9,170.45 143.6,173.9 141.3,173.9 139,170.45 "  style="fill:#000000ff;fill-rule:nonzero;" />
		<polygon points="141.3,174 143.6,174 145.9,177.45 143.6,180.9 141.3,180.9 139,177.45 "  style="fill:#000000ff;fill-rule:nonzero;" />
		<polygon points="141.3,181 143.6,181 145.9,184.45 143.6,187.9 141.3,187.9 139,184.45 "  style="fill:#000000ff;fill-rule:nonzero;" />
		<polygon points="141.3,188 143.6,188 145.9,191.45 143.6,194.9 141.3,194.9 139,191.45 "  style="fill:#000000ff;fill-rule:nonzero;" />
		<polygon points="141.3,202 143.6,202 145.9,205.45 143.6,208.9 141.3,208.9 139,205.45 "  style="fill:#000000ff;fill-rule:nonzero;" />
		<polygon points="141.3,209 143.6,209 145.9,212.45 143.6,215.9 141.3,215.9 139,212.45 "  style="fill:#000000ff;fill-rule:nonzero;" />
		<polygon points="141.3,216 143.6,216 145.9,219.45 143.6,222.9 141.3,222.9 139,219.45 "  style="fill:#000000ff;fill-rule:nonzero;" />
		<polygon points="141.3,223 143.6,223 145.9,226.45 143.6,229.9 141.3,229.9 139,226.45 "  style="fill:#000000ff;fill-rule:nonzero;" />
		<polygon points="141.3,244 143.6,244 145.9,247.45 143.6,250.9 141.3,250.9 139,247.45 "  style="fill:#000000ff;fill-rule:nonzero;" />
		<polygon points="148.3,27 150.6,27 152.9,30.45 150.6,33.9 148.3,33.9 146,30.45 "  style="fill:#000000ff;fill-rule:nonzero;" />
		<polygon points="148.3,41 150.6,41 152.9,44.45 150.6,47.9 148.3,47.9 146,44.45 "  style="fill:#000000ff;fill-rule:nonzero;" />
		<polygon points="148.3,55 150.6,55 152.9,58.45 150.6,61.9 148.3,61.9 146,58.45 "  style="fill:#000000ff;fill-rule:nonzero;" />
		<polygon points="148.3,62 150.6,62 152.9,65.45 150.6,68.9 148.3,68.9 146,65.45 "  style="fill:#000000ff;fill-rule:nonzero;" />
		<polygon points="148.3,76 150.6,76 152.9,79.45 150.6,82.9 148.3,82.9 146,79.45 "  style="fill:#000000ff;fill-rule:nonzero;" />
		<polygon points="148.3,90 150.6,90 152.9,93.45 150.6,96.9 148.3,96.9 146,93.45 "  style="fill:#000000ff;fill-rule:nonzero;" />
		<polygon points="148.3,97 150.6,97 152.9,100.45 150.6,103.9 148.3,103.9 146,100.45 "  style="fill:#000000ff;fill-rule:nonzero;" />
		<polygon points="148.3,125 150.6,125 152.9,128.45 150.6,131.9 148.3,131.9 146,128.45 "  style="fill:#000000ff;fill-rule:nonzero;" />
		<polygon points="148.3,132 150.6,132 152.9,135.45 150.6,138.9 148.3,138.9 146,135.45 "  style="fill:#000000ff;fill-rule:nonzero;" />
		<polygon points="148.3,181 150.6,181 152.9,184.45 150.6,187.9 148.3,187.9 146,184.45 "  style="fill:#000000ff;fill-rule:nonzero;" />
		<polygon points="148.3,202 150.6,202 152.9,205.45 150.6,208.9 148.3,208.9 146,205.45 "  style="fill:#000000ff;fill-rule:nonzero;" />
		<polygon points="148.3,209 150.6,209 152.9,212.45 150.6,215.9 148.3,215.9 146,212.45 "  style="fill:#000000ff;fill-rule:nonzero;" />
		<polygon points="148.3,216 150.6,216 152.9,219.45 150.6,222.9 148.3,222.9 146,219.45 "  style="fill:#000000ff;fill-rule:nonzero;" />
		<polygon points="148.3,223 150.6,223 152.9,226.45 150.6,229.9 148.3,229.9 146,226.45 "  style="fill:#000000ff;fill-rule:nonzero;" />
		<polygon points="148.3,230 150.6,230 152.9,233.45 150.6,236.9 148.3,236.9 146,233.45 "  style="fill:#000000ff;fill-rule:nonzero;" />
		<polygon points="148.3,251 150.6,251 152.9,254.45 150.6,257.9 148.3,257.9 146,254.45 "  style="fill:#000000ff;fill-rule:nonzero;" />
		<polygon points="148.3,258 150.6,258 152.9,261.45 150.6,264.9 148.3,264.9 146,261.45 "  style="fill:#000000ff;fill-rule:nonzero;" />
		<polygon points="148.3,265 150.6,265 152.9,268.45 150.6,271.9 148.3,271.9 146,268.45 "  style="fill:#000000ff;fill-rule:nonzero;" />
		<polygon points="155.3,27 157.6,27 159.9,30.45 157.6,33.9 155.3,33.9 153,30.45 "  style="fill:#000000ff;fill-rule:nonzero;" />
		<polygon points="155.3,41 157.6,41 159.9,44.45 157.6,47.9 155.3,47.9 153,44.45 "  style="fill:#000000ff;fill-rule:nonzero;" />
		<polygon points="155.3,48 157.6,48 159.9,51.45 157.6,54.9 155.3,54.9 153,51.45 "  style="fill:#000000ff;fill-rule:nonzero;" />
		<polygon points="155.3,83 157.6,83 159.9,86.45 157.6,89.9 155.3,89.9 153,86.45 "  style="fill:#000000ff;fill-rule:nonzero;" />
		<polygon points="155.3,90 157.6,90 159.9,93.45 157.6,96.9 155.3,96.9 153,93.45 "  style="fill:#000000ff;fill-rule:nonzero;" />
		<polygon points="155.3,97 157.6,97 159.9,100.45 157.6,103.9 155.3,103.9 153,100.45 "  style="fill:#000000ff;fill-rule:nonzero;" />
		<polygon points="155.3,167 157.6,167 159.9,170.45 157.6,173.9 155.3,173.9 153,170.45 "  style="fill:#000000ff;fill-rule:nonzero;" />
		<polygon points="155.3,174 157.6,174 159.9,177.45 157.6,180.9 155.3,180.9 153,177.45 "  style="fill:#000000ff;fill-rule:nonzero;" />
		<polygon points="155.3,188 157.6,188 159.9,191.45 157.6,194.9 155.3,194.9 153,191.45 "  style="fill:#000000ff;fill-rule:nonzero;" />
		<polygon points="155.3,202 157.6,202 159.9,205.45 157.6,208.9 155.3,208.9 153,205.45 "  style="fill:#000000ff;fill-rule:nonzero;" />
		<polygon points="155.3,209 157.6,209 159.9,212.45 157.6,215.9 155.3,215.9 153,212.45 "  style="fill:#000000ff;fill-rule:nonzero;" />
		<polygon points="155.3,216 157.6,216 159.9,219.45 157.6,222.9 155.3,222.9 153,219.45 "  style="fill:#000000ff;fill-rule:nonzero;" />
		<polygon points="155.3,230 157.6,230 159.9,233.45 157.6,236.9 155.3,236.9 153,233.45 "  style="fill:#000000ff;fill-rule:nonzero;" />
		<polygon points="155.3,237 157.6,237 159.9,240.45 157.6,243.9 155.3,243.9 153,240.45 "  style="fill:#000000ff;fill-rule:nonzero;" />
		<polygon points="155.3,244 157.6,244 159.9,247.45 157.6,250.9 155.3,250.9 153,247.45 "  style="fill:#000000ff;fill-rule:nonzero;" />
		<polygon points="155.3,258 157.6,258 159.9,261.45 157.6,264.9 155.3,264.9 153,261.45 "  style="fill:#000000ff;fill-rule:nonzero;" />
		<polygon points="155.3,272 157.6,272 159.9,275.45 157.6,278.9 155.3,278.9 153,275.45 "  style="fill:#000000ff;fill-rule:nonzero;" />
		<polygon points="162.3,27 164.6,27 166.9,30.45 164.6,33.9 162.3,33.9 160,30.45 "  style="fill:#000000ff;fill-rule:nonzero;" />
		<polygon points="162.3,41 164.6,41 166.9,44.45 164.6,47.9 162.3,47.9 160,44.45 "  style="fill:#000000ff;fill-rule:nonzero;" />
		<polygon points="162.3,55 164.6,55 166.9,58.45 164.6,61.9 162.3,61.9 160,58.45 "  style="fill:#000000ff;fill-rule:nonzero;" />
		<polygon points="162.3,62 164.6,62 166.9,65.45 164.6,68.9 162.3,68.9 160,65.45 "  style="fill:#000000ff;fill-rule:nonzero;" />
		<polygon points="162.3,69 164.6,69 166.9,72.45 164.6,75.9 162.3,75.9 160,72.45 "  style="fill:#000000ff;fill-rule:nonzero;" />
		<polygon points="162.3,104 164.6,104 166.9,107.45 164.6,110.9 162.3,110.9 160,107.45 "  style="fill:#000000ff;fill-rule:nonzero;" />
		<polygon points="162.3,146 164.6,146 166.9,149.45 164.6,152.9 162.3,152.9 160,149.45 "  style="fill:#000000ff;fill-rule:nonzero;" />
		<polygon points="162.3,153 164.6,153 166.9,156.45 164.6,159.9 162.3,159.9 160,156.45 "  style="fill:#000000ff;fill-rule:nonzero;" />
		<polygon points="162.3,160 164.6,160 166.9,163.45 164.6,166.9 162.3,166.9 160,163.45 "  style="fill:#000000ff;fill-rule:nonzero;" />
		<polygon points="162.3,167 164.6,167 166.9,170.45 164.6,173.9 162.3,173.9 160,170.45 "  style="fill:#000000ff;fill-rule:nonzero;" />
		<polygon points="162.3,216 164.6,216 166.9,219.45 164.6,222.9 162.3,222.9 160,219.45 "  style="fill:#000000ff;fill-rule:nonzero;" />
		<polygon points="162.3,265 164.6,265 166.9,268.45 164.6,271.9 162.3,271.9 160,268.45 "  style="fill:#000000ff;fill-rule:nonzero;" />
		<polygon points="169.3,20 171.6,20 173.9,23.45 171.6,26.9 169.3,26.9 167,23.45 "  style="fill:#000000ff;fill-rule:nonzero;" />
		<polygon points="169.3,34 171.6,34 173.9,37.45 171.6,40.9 169.3,40.9 167,37.45 "  style="fill:#000000ff;fill-rule:nonzero;" />
		<polygon points="169.3,48 171.6,48 173.9,51.45 171.6,54.9 169.3,54.9 167,51.45 "  style="fill:#000000ff;fill-rule:nonzero;" />
		<polygon points="169.3,55 171.6,55 173.9,58.45 171.6,61.9 169.3,61.9 167,58.45 "  style="fill:#000000ff;fill-rule:nonzero;" />
		<polygon points="169.3,69 171.6,69 173.9,72.45 171.6,75.9 169.3,75.9 167,72.45 "  style="fill:#000000ff;fill-rule:nonzero;" />
		<polygon points="169.3,76 171.6,76 173.9,79.45 171.6,82.9 169.3,82.9 167,79.45 "  style="fill:#000000ff;fill-rule:nonzero;" />
		<polygon points="169.3,104 171.6,104 173.9,107.45 171.6,110.9 169.3,110.9 167,107.45 "  style="fill:#000000ff;fill-rule:nonzero;" />
		<polygon points="169.3,118 171.6,118 173.9,121.45 171.6,124.9 169.3,124.9 167,121.45 "  style="fill:#000000ff;fill-rule:nonzero;" />
		<polygon points="169.3,132 171.6,132 173.9,135.45 171.6,138.9 169.3,138.9 167,135.45 "  style="fill:#000000ff;fill-rule:nonzero;" />
		<polygon points="169.3,139 171.6,139 173.9,142.45 171.6,145.9 169.3,145.9 167,142.45 "  style="fill:#000000ff;fill-rule:nonzero;" />
		<polygon points="169.3,153 171.6,153 173.9,156.45 171.6,159.9 169.3,159.9 167,156.45 "  style="fill:#000000ff;fill-rule:nonzero;" />
		<polygon points="169.3,160 171.6,160 173.9,163.45 171.6,166.9 169.3,166.9 167,163.45 "  style="fill:#000000ff;fill-rule:nonzero;" />
		<polygon points="169.3,167 171.6,167 173.9,170.45 171.6,173.9 169.3,173.9 167,170.45 "  style="fill:#000000ff;fill-rule:nonzero;" />
		<polygon points="169.3,181 171.6,181 173.9,184.45 171.6,187.9 169.3,187.9 167,184.45 "  style="fill:#000000ff;fill-rule:nonzero;" />
		<polygon points="169.3,188 171.6,188 173.9,191.45 171.6,194.9 169.3,194.9 167,191.45 "  style="fill:#000000ff;fill-rule:nonzero;" />
		<polygon points="169.3,202 171.6,202 173.9,205.45 171.6,208.9 169.3,208.9 167,205.45 "  style="fill:#000000ff;fill-rule:nonzero;" />
		<polygon points="169.3,209 171.6,209 173.9,212.45 171.6,215.9 169.3,215.9 167,212.45 "  style="fill:#000000ff;fill-rule:nonzero;" />
		<polygon points="169.3,216 171.6,216 173.9,219.45 171.6,222.9 169.3,222.9 167,219.45 "  style="fill:#000000ff;fill-rule:nonzero;" />
		<polygon points="169.3,237 171.6,237 173.9,240.45 171.6,243.9 169.3,243.9 167,240.45 "  style="fill:#000000ff;fill-rule:nonzero;" />
		<polygon points="169.3,244 171.6,244 173.9,247.45 171.6,250.9 169.3,250.9 167,247.45 "  style="fill:#000000ff;fill-rule:nonzero;" />
		<polygon points="169.3,258 171.6,258 173.9,261.45 171.6,264.9 169.3,264.9 167,261.45 "  style="fill:#000000ff;fill-rule:nonzero;" />
		<polygon points="169.3,265 171.6,265 173.9,268.45 171.6,271.9 169.3,271.9 167,268.45 "  style="fill:#000000ff;fill-rule:nonzero;" />
		<polygon points="176.3,41 178.6,41 180.9,44.45 178.6,47.9 176.3,47.9 174,44.45 "  style="fill:#000000ff;fill-rule:nonzero;" />
		<polygon points="176.3,48 178.6,48 180.9,51.45 178.6,54.9 176.3,54.9 174,51.45 "  style="fill:#000000ff;fill-rule:nonzero;" />
		<polygon points="176.3,62 178.6,62 180.9,65.45 178.6,68.9 176.3,68.9 174,65.45 "  style="fill:#000000ff;fill-rule:nonzero;" />
		<polygon points="176.3,104 178.6,104 180.9,107.45 178.6,110.9 176.3,110.9 174,107.45 "  style="fill:#000000ff;fill-rule:nonzero;" />
		<polygon points="176.3,111 178.6,111 180.9,114.45 178.6,117.9 176.3,117.9 174,114.45 "  style="fill:#000000ff;fill-rule:nonzero;" />
		<polygon points="176.3,125 178.6,125 180.9,128.45 178.6,131.9 176.3,131.9 174,128.45 "  style="fill:#000000ff;fill-rule:nonzero;" />
		<polygon points="176.3,139 178.6,139 180.9,142.45 178.6,145.9 176.3,145.9 174,142.45 "  style="fill:#000000ff;fill-rule:nonzero;" />
		<polygon points="176.3,181 178.6,181 180.9,184.45 178.6,187.9 176.3,187.9 174,184.45 "  style="fill:#000000ff;fill-rule:nonzero;" />
		<polygon points="176.3,188 178.6,188 180.9,191.45 178.6,194.9 176.3,194.9 174,191.45 "  style="fill:#000000ff;fill-rule:nonzero;" />
		<polygon points="176.3,244 178.6,244 180.9,247.45 178.6,250.9 176.3,250.9 174,247.45 "  style="fill:#000000ff;fill-rule:nonzero;" />
		<polygon points="176.3,265 178.6,265 180.9,268.45 178.6,271.9 176.3,271.9 174,268.45 "  style="fill:#000000ff;fill-rule:nonzero;" />
		<polygon points="176.3,272 178.6,272 180.9,275.45 178.6,278.9 176.3,278.9 174,275.45 "  style="fill:#000000ff;fill-rule:nonzero;" />
		<polygon points="183.3,20 185.6,20 187.9,23.45 185.6,26.9 183.3,26.9 181,23.45 "  style="fill:#000000ff;fill-rule:nonzero;" />
		<polygon points="183.3,27 185.6,27 187.9,30.45 185.6,33.9 183.3,33.9 181,30.45 "  style="fill:#000000ff;fill-rule:nonzero;" />
		<polygon points="183.3,41 185.6,41 187.9,44.45 185.6,47.9 183.3,47.9 181,44.45 "  style="fill:#000000ff;fill-rule:nonzero;" />
		<polygon points="183.3,83 185.6,83 187.9,86.45 185.6,89.9 183.3,89.9 181,86.45 "  style="fill:#000000ff;fill-rule:nonzero;" />
		<polygon points="183.3,97 185.6,97 187.9,100.45 185.6,103.9 183.3,103.9 181,100.45 "  style="fill:#000000ff;fill-rule:nonzero;" />
		<polygon points="183.3,104 185.6,104 187.9,107.45 185.6,110.9 183.3,110.9 181,107.45 "  style="fill:#000000ff;fill-rule:nonzero;" />
		<polygon points="183.3,118 185.6,118 187.9,121.45 185.6,124.9 183.3,124.9 181,121.45 "  style="fill:#000000ff;fill-rule:nonzero;" />
		<polygon points="183.3,125 185.6,125 187.9,128.45 185.6,131.9 183.3,131.9 181,128.45 "  style="fill:#000000ff;fill-rule:nonzero;" />
		<polygon points="183.3,132 185.6,132 187.9,135.45 185.6,138.9 183.3,138.9 181,135.45 "  style="fill:#000000ff;fill-rule:nonzero;" />
		<polygon points="183.3,139 185.6,139 187.9,142.45 185.6,145.9 183.3,145.9 181,142.45 "  style="fill:#000000ff;fill-rule:nonzero;" />
		<polygon points="183.3,167 185.6,167 187.9,170.45 185.6,173.9 183.3,173.9 181,170.45 "  style="fill:#000000ff;fill-rule:nonzero;" />
		<polygon points="183.3,174 185.6,174 187.9,177.45 185.6,180.9 183.3,180.9 181,177.45 "  style="fill:#000000ff;fill-rule:nonzero;" />
		<polygon points="183.3,188 185.6,188 187.9,191.45 185.6,194.9 183.3,194.9 181,191.45 "  style="fill:#000000ff;fill-rule:nonzero;" />
		<polygon points="183.3,202 185.6,202 187.9,205.45 185.6,208.9 183.3,208.9 181,205.45 "  style="fill:#000000ff;fill-rule:nonzero;" />
		<polygon points="183.3,251 185.6,251 187.9,254.45 185.6,257.9 183.3,257.9 181,254.45 "  style="fill:#000000ff;fill-rule:nonzero;" />
		<polygon points="183.3,258 185.6,258 187.9,261.45 185.6,264.9 183.3,264.9 181,261.45 "  style="fill:#000000ff;fill-rule:nonzero;" />
		<polygon points="183.3,265 185.6,265 187.9,268.45 185.6,271.9 183.3,271.9 181,268.45 "  style="fill:#000000ff;fill-rule:nonzero;" />
		<polygon points="190.3,20 192.6,20 194.9,23.45 192.6,26.9 190.3,26.9 188,23.45 "  style="fill:#000000ff;fill-rule:nonzero;" />
		<polygon points="190.3,41 192.6,41 194.9,44.45 192.6,47.9 190.3,47.9 188,44.45 "  style="fill:#000000ff;fill-rule:nonzero;" />
		<polygon points="190.3,48 192.6,48 194.9,51.45 192.6,54.9 190.3,54.9 188,51.45 "  style="fill:#000000ff;fill-rule:nonzero;" />
		<polygon points="190.3,62 192.6,62 194.9,65.45 192.6,68.9 190.3,68.9 188,65.45 "  style="fill:#000000ff;fill-rule:nonzero;" />
		<polygon points="190.3,97 192.6,97 194.9,100.45 192.6,103.9 190.3,103.9 188,100.45 "  style="fill:#000000ff;fill-rule:nonzero;" />
		<polygon points="190.3,118 192.6,118 194.9,121.45 192.6,124.9 190.3,124.9 188,121.45 "  style="fill:#000000ff;fill-rule:nonzero;" />
		<polygon points="190.3,125 192.6,125 194.9,128.45 192.6,131.9 190.3,131.9 188,128.45 "  style="fill:#000000ff;fill-rule:nonzero;" />
		<polygon points="190.3,132 192.6,132 194.9,135.45 192.6,138.9 190.3,138.9 188,135.45 "  style="fill:#000000ff;fill-rule:nonzero;" />
		<polygon points="190.3,139 192.6,139 194.9,142.45 192.6,145.9 190.3,145.9 188,142.45 "  style="fill:#000000ff;fill-rule:nonzero;" />
		<polygon points="190.3,153 192.6,153 194.9,156.45 192.6,159.9 190.3,159.9 188,156.45 "  style="fill:#000000ff;fill-rule:nonzero;" />
		<polygon points="190.3,167 192.6,167 194.9,170.45 192.6,173.9 190.3,173.9 188,170.45 "  style="fill:#000000ff;fill-rule:nonzero;" />
		<polygon points="190.3,181 192.6,181 194.9,184.45 192.6,187.9 190.3,187.9 188,184.45 "  style="fill:#000000ff;fill-rule:nonzero;" />
		<polygon points="190.3,188 192.6,188 194.9,191.45 192.6,194.9 190.3,194.9 188,191.45 "  style="fill:#000000ff;fill-rule:nonzero;" />
		<polygon points="190.3,195 192.6,195 194.9,198.45 192.6,201.9 190.3,201.9 188,198.45 "  style="fill:#000000ff;fill-rule:nonzero;" />
		<polygon points="190.3,202 192.6,202 194.9,205.45 192.6,208.9 190.3,208.9 188,205.45 "  style="fill:#000000ff;fill-rule:nonzero;" />
		<polygon points="190.3,230 192.6,230 194.9,233.45 192.6,236.9 190.3,236.9 188,233.45 "  style="fill:#000000ff;fill-rule:nonzero;" />
		<polygon points="190.3,258 192.6,258 194.9,261.45 192.6,264.9 190.3,264.9 188,261.45 "  style="fill:#000000ff;fill-rule:nonzero;" />
		<polygon points="190.3,272 192.6,272 194.9,275.45 192.6,278.9 190.3,278.9 188,275.45 "  style="fill:#000000ff;fill-rule:nonzero;" />
		<polygon points="197.3,27 199.6,27 201.9,30.45 199.6,33.9 197.3,33.9 195,30.45 "  style="fill:#000000ff;fill-rule:nonzero;" />
		<polygon points="197.3,55 199.6,55 201.9,58.45 199.6,61.9 197.3,61.9 195,58.45 "  style="fill:#000000ff;fill-rule:nonzero;" />
		<polygon points="197.3,69 199.6,69 201.9,72.45 199.6,75.9 197.3,75.9 195,72.45 "  style="fill:#000000ff;fill-rule:nonzero;" />
		<polygon points="197.3,90 199.6,90 201.9,93.45 199.6,96.9 197.3,96.9 195,93.45 "  style="fill:#000000ff;fill-rule:nonzero;" />
		<polygon points="197.3,97 199.6,97 201.9,100.45 199.6,103.9 197.3,103.9 195,100.45 "  style="fill:#000000ff;fill-rule:nonzero;" />
		<polygon points="197.3,104 199.6,104 201.9,107.45 199.6,110.9 197.3,110.9 195,107.45 "  style="fill:#000000ff;fill-rule:nonzero;" />
		<polygon points="197.3,118 199.6,118 201.9,121.45 199.6,124.9 197.3,124.9 195,121.45 "  style="fill:#000000ff;fill-rule:nonzero;" />
		<polygon points="197.3,132 199.6,132 201.9,135.45 199.6,138.9 197.3,138.9 195,135.45 "  style="fill:#000000ff;fill-rule:nonzero;" />
		<polygon points="197.3,174 199.6,174 201.9,177.45 199.6,180.9 197.3,180.9 195,177.45 "  style="fill:#000000ff;fill-rule:nonzero;" />
		<polygon points="197.3,188 199.6,188 201.9,191.45 199.6,194.9 197.3,194.9 195,191.45 "  style="fill:#000000ff;fill-rule:nonzero;" />
		<polygon points="197.3,202 199.6,202 201.9,205.45 199.6,208.9 197.3,208.9 195,205.45 "  style="fill:#000000ff;fill-rule:nonzero;" />
		<polygon points="197.3,216 199.6,216 201.9,219.45 199.6,222.9 197.3,222.9 195,219.45 "  style="fill:#000000ff;fill-rule:nonzero;" />
		<polygon points="197.3,230 199.6,230 201.9,233.45 199.6,236.9 197.3,236.9 195,233.45 "  style="fill:#000000ff;fill-rule:nonzero;" />
		<polygon points="197.3,237 199.6,237 201.9,240.45 199.6,243.9 197.3,243.9 195,240.45 "  style="fill:#000000ff;fill-rule:nonzero;" />
		<polygon points="197.3,244 199.6,244 201.9,247.45 199.6,250.9 197.3,250.9 195,247.45 "  style="fill:#000000ff;fill-rule:nonzero;" />
		<polygon points="204.3,27 206.6,27 208.9,30.45 206.6,33.9 204.3,33.9 202,30.45 "  style="fill:#000000ff;fill-rule:nonzero;" />
		<polygon points="204.3,48 206.6,48 208.9,51.45 206.6,54.9 204.3,54.9 202,51.45 "  style="fill:#000000ff;fill-rule:nonzero;" />
		<polygon points="204.3,62 206.6,62 208.9,65.45 206.6,68.9 204.3,68.9 202,65.45 "  style="fill:#000000ff;fill-rule:nonzero;" />
		<polygon points="204.3,69 206.6,69 208.9,72.45 206.6,75.9 204.3,75.9 202,72.45 "  style="fill:#000000ff;fill-rule:nonzero;" />
		<polygon points="204.3,83 206.6,83 208.9,86.45 206.6,89.9 204.3,89.9 202,86.45 "  style="fill:#000000ff;fill-rule:nonzero;" />
		<polygon points="204.3,104 206.6,104 208.9,107.45 206.6,110.9 204.3,110.9 202,107.45 "  style="fill:#000000ff;fill-rule:nonzero;" />
		<polygon points="204.3,111 206.6,111 208.9,114.45 206.6,117.9 204.3,117.9 202,114.45 "  style="fill:#000000ff;fill-rule:nonzero;" />
		<polygon points="204.3,118 206.6,118 208.9,121.45 206.6,124.9 204.3,124.9 202,121.45 "  style="fill:#000000ff;fill-rule:nonzero;" />
		<polygon points="204.3,139 206.6,139 208.9,142.45 206.6,145.9 204.3,145.9 202,142.45 "  style="fill:#000000ff;fill-rule:nonzero;" />
		<polygon points="204.3,146 206.6,146 208.9,149.45 206.6,152.9 204.3,152.9 202,149.45 "  style="fill:#000000ff;fill-rule:nonzero;" />
		<polygon points="204.3,167 206.6,167 208.9,170.45 206.6,173.9 204.3,173.9 202,170.45 "  style="fill:#000000ff;fill-rule:nonzero;" />
		<polygon points="204.3,181 206.6,181 208.9,184.45 206.6,187.9 204.3,187.9 202,184.45 "  style="fill:#000000ff;fill-rule:nonzero;" />
		<polygon points="204.3,195 206.6,195 208.9,198.45 206.6,201.9 204.3,201.9 202,198.45 "  style="fill:#000000ff;fill-rule:nonzero;" />
		<polygon points="204.3,202 206.6,202 208.9,205.45 206.6,208.9 204.3,208.9 202,205.45 "  style="fill:#000000ff;fill-rule:nonzero;" />
		<polygon points="204.3,209 206.6,209 208.9,212.45 206.6,215.9 204.3,215.9 202,212.45 "  style="fill:#000000ff;fill-rule:nonzero;" />
		<polygon points="204.3,216 206.6,216 208.9,219.45 206.6,222.9 204.3,222.9 202,219.45 "  style="fill:#000000ff;fill-rule:nonzero;" />
		<polygon points="204.3,223 206.6,223 208.9,226.45 206.6,229.9 204.3,229.9 202,226.45 "  style="fill:#000000ff;fill-rule:nonzero;" />
		<polygon points="204.3,230 206.6,230 208.9,233.45 206.6,236.9 204.3,236.9 202,233.45 "  style="fill:#000000ff;fill-rule:nonzero;" />
		<polygon points="204.3,244 206.6,244 208.9,247.45 206.6,250.9 204.3,250.9 202,247.45 "  style="fill:#000000ff;fill-rule:nonzero;" />
		<polygon points="204.3,251 206.6,251 208.9,254.45 206.6,257.9 204.3,257.9 202,254.45 "  style="fill:#000000ff;fill-rule:nonzero;" />
		<polygon points="204.3,258 206.6,258 208.9,261.45 206.6,264.9 204.3,264.9 202,261.45 "  style="fill:#000000ff;fill-rule:nonzero;" />
		<polygon points="204.3,265 206.6,265 208.9,268.45 206.6,271.9 204.3,271.9 202,268.45 "  style="fill:#000000ff;fill-rule:nonzero;" />
		<polygon points="211.3,41 213.6,41 215.9,44.45 213.6,47.9 211.3,47.9 209,44.45 "  style="fill:#000000ff;fill-rule:nonzero;" />
		<polygon points="211.3,76 213.6,76 215.9,79.45 213.6,82.9 211.3,82.9 209,79.45 "  style="fill:#000000ff;fill-rule:nonzero;" />
		<polygon points="211.3,83 213.6,83 215.9,86.45 213.6,89.9 211.3,89.9 209,86.45 "  style="fill:#000000ff;fill-rule:nonzero;" />
		<polygon points="211.3,97 213.6,97 215.9,100.45 213.6,103.9 211.3,103.9 209,100.45 "  style="fill:#000000ff;fill-rule:nonzero;" />
		<polygon points="211.3,104 213.6,104 215.9,107.45 213.6,110.9 211.3,110.9 209,107.45 "  style="fill:#000000ff;fill-rule:nonzero;" />
		<polygon points="211.3,118 213.6,118 215.9,121.45 213.6,124.9 211.3,124.9 209,121.45 "  style="fill:#000000ff;fill-rule:nonzero;" />
		<polygon points="211.3,132 213.6,132 215.9,135.45 213.6,138.9 211.3,138.9 209,135.45 "  style="fill:#000000ff;fill-rule:nonzero;" />
		<polygon points="211.3,139 213.6,139 215.9,142.45 213.6,145.9 211.3,145.9 209,142.45 "  style="fill:#000000ff;fill-rule:nonzero;" />
		<polygon points="211.3,146 213.6,146 215.9,149.45 213.6,152.9 211.3,152.9 209,149.45 "  style="fill:#000000ff;fill-rule:nonzero;" />
		<polygon points="211.3,160 213.6,160 215.9,163.45 213.6,166.9 211.3,166.9 209,163.45 "  style="fill:#000000ff;fill-rule:nonzero;" />
		<polygon points="211.3,188 213.6,188 215.9,191.45 213.6,194.9 211.3,194.9 209,191.45 "  style="fill:#000000ff;fill-rule:nonzero;" />
		<polygon points="211.3,202 213.6,202 215.9,205.45 213.6,208.9 211.3,208.9 209,205.45 "  style="fill:#000000ff;fill-rule:nonzero;" />
		<polygon points="211.3,216 213.6,216 215.9,219.45 213.6,222.9 211.3,222.9 209,219.45 "  style="fill:#000000ff;fill-rule:nonzero;" />
		<polygon points="211.3,230 213.6,230 215.9,233.45 213.6,236.9 211.3,236.9 209,233.45 "  style="fill:#000000ff;fill-rule:nonzero;" />
		<polygon points="211.3,237 213.6,237 215.9,240.45 213.6,243.9 211.3,243.9 209,240.45 "  style="fill:#000000ff;fill-rule:nonzero;" />
		<polygon points="211.3,258 213.6,258 215.9,261.45 213.6,264.9 211.3,264.9 209,261.45 "  style="fill:#000000ff;fill-rule:nonzero;" />
		<polygon points="211.3,272 213.6,272 215.9,275.45 213.6,278.9 211.3,278.9 209,275.45 "  style="fill:#000000ff;fill-rule:nonzero;" />
		<polygon points="218.3,20 220.6,20 222.9,23.45 220.6,26.9 218.3,26.9 216,23.45 "  style="fill:#000000ff;fill-rule:nonzero;" />
		<polygon points="218.3,41 220.6,41 222.9,44.45 220.6,47.9 218.3,47.9 216,44.45 "  style="fill:#000000ff;fill-rule:nonzero;" />
		<polygon points="218.3,48 220.6,48 222.9,51.45 220.6,54.9 218.3,54.9 216,51.45 "  style="fill:#000000ff;fill-rule:nonzero;" />
		<polygon points="218.3,62 220.6,62 222.9,65.45 220.6,68.9 218.3,68.9 216,65.45 "  style="fill:#000000ff;fill-rule:nonzero;" />
		<polygon points="218.3,83 220.6,83 222.9,86.45 220.6,89.9 218.3,89.9 216,86.45 "  style="fill:#000000ff;fill-rule:nonzero;" />
		<polygon points="218.3,97 220.6,97 222.9,100.45 220.6,103.9 218.3,103.9 216,100.45 "  style="fill:#000000ff;fill-rule:nonzero;" />
		<polygon points="218.3,104 220.6,104 222.9,107.45 220.6,110.9 218.3,110.9 216,107.45 "  style="fill:#000000ff;fill-rule:nonzero;" />
		<polygon points="218.3,111 220.6,111 222.9,114.45 220.6,117.9 218.3,117.9 216,114.45 "  style="fill:#000000ff;fill-rule:nonzero;" />
		<polygon points="218.3,118 220.6,118 222.9,121.45 220.6,124.9 218.3,124.9 216,121.45 "  style="fill:#000000ff;fill-rule:nonzero;" />
		<polygon points="218.3,125 220.6,125 222.9,128.45 220.6,131.9 218.3,131.9 216,128.45 "  style="fill:#000000ff;fill-rule:nonzero;" />
		<polygon points="218.3,132 220.6,132 222.9,135.45 220.6,138.9 218.3,138.9 216,135.45 "  style="fill:#000000ff;fill-rule:nonzero;" />
		<polygon points="218.3,146 220.6,146 222.9,149.45 220.6,152.9 218.3,152.9 216,149.45 "  style="fill:#000000ff;fill-rule:nonzero;" />
		<polygon points="218.3,153 220.6,153 222.9,156.45 220.6,159.9 218.3,159.9 216,156.45 "  style="fill:#000000ff;fill-rule:nonzero;" />
		<polygon points="218.3,174 220.6,174 222.9,177.45 220.6,180.9 218.3,180.9 216,177.45 "  style="fill:#000000ff;fill-rule:nonzero;" />
		<polygon points="218.3,188 220.6,188 222.9,191.45 220.6,194.9 218.3,194.9 216,191.45 "  style="fill:#000000ff;fill-rule:nonzero;" />
		<polygon points="218.3,209 220.6,209 222.9,212.45 220.6,215.9 218.3,215.9 216,212.45 "  style="fill:#000000ff;fill-rule:nonzero;" />
		<polygon points="218.3,216 220.6,216 222.9,219.45 220.6,222.9 218.3,222.9 216,219.45 "  style="fill:#000000ff;fill-rule:nonzero;" />
		<polygon points="218.3,223 220.6,223 222.9,226.45 220.6,229.9 218.3,229.9 216,226.45 "  style="fill:#000000ff;fill-rule:nonzero;" />
		<polygon points="218.3,230 220.6,230 222.9,233.45 220.6,236.9 218.3,236.9 216,233.45 "  style="fill:#000000ff;fill-rule:nonzero;" />
		<polygon points="218.3,237 220.6,237 222.9,240.45 220.6,243.9 218.3,243.9 216,240.45 "  style="fill:#000000ff;fill-rule:nonzero;" />
		<polygon points="218.3,244 220.6,244 222.9,247.45 220.6,250.9 218.3,250.9 216,247.45 "  style="fill:#000000ff;fill-rule:nonzero;" />
		<polygon points="218.3,251 220.6,251 222.9,254.45 220.6,257.9 218.3,257.9 216,254.45 "  style="fill:#000000ff;fill-rule:nonzero;" />
		<polygon points="225.3,76 227.6,76 229.9,79.45 227.6,82.9 225.3,82.9 223,79.45 "  style="fill:#000000ff;fill-rule:nonzero;" />
		<polygon points="225.3,90 227.6,90 229.9,93.45 227.6,96.9 225.3,96.9 223,93.45 "  style="fill:#000000ff;fill-rule:nonzero;" />
		<polygon points="225.3,97 227.6,97 229.9,100.45 227.6,103.9 225.3,103.9 223,100.45 "  style="fill:#000000ff;fill-rule:nonzero;" />
		<polygon points="225.3,104 227.6,104 229.9,107.45 227.6,110.9 225.3,110.9 223,107.45 "  style="fill:#000000ff;fill-rule:nonzero;" />
		<polygon points="225.3,132 227.6,132 229.9,135.45 227.6,138.9 225.3,138.9 223,135.45 "  style="fill:#000000ff;fill-rule:nonzero;" />
		<polygon points="225.3,146 227.6,146 229.9,149.45 227.6,152.9 225.3,152.9 223,149.45 "  style="fill:#000000ff;fill-rule:nonzero;" />
		<polygon points="225.3,153 227.6,153 229.9,156.45 227.6,159.9 225.3,159.9 223,156.45 "  style="fill:#000000ff;fill-rule:nonzero;" />
		<polygon points="225.3,167 227.6,167 229.9,170.45 227.6,173.9 225.3,173.9 223,170.45 "  style="fill:#000000ff;fill-rule:nonzero;" />
		<polygon points="225.3,174 227.6,174 229.9,177.45 227.6,180.9 225.3,180.9 223,177.45 "  style="fill:#000000ff;fill-rule:nonzero;" />
		<polygon points="225.3,181 227.6,181 229.9,184.45 227.6,187.9 225.3,187.9 223,184.45 "  style="fill:#000000ff;fill-rule:nonzero;" />
		<polygon points="225.3,188 227.6,188 229.9,191.45 227.6,194.9 225.3,194.9 223,191.45 "  style="fill:#000000ff;fill-rule:nonzero;" />
		<polygon points="225.3,195 227.6,195 229.9,198.45 227.6,201.9 225.3,201.9 223,198.45 "  style="fill:#000000ff;fill-rule:nonzero;" />
		<polygon points="225.3,202 227.6,202 229.9,205.45 227.6,208.9 225.3,208.9 223,205.45 "  style="fill:#000000ff;fill-rule:nonzero;" />
		<polygon points="225.3,209 227.6,209 229.9,212.45 227.6,215.9 225.3,215.9 223,212.45 "  style="fill:#000000ff;fill-rule:nonzero;" />
		<polygon points="225.3,216 227.6,216 229.9,219.45 227.6,222.9 225.3,222.9 223,219.45 "  style="fill:#000000ff;fill-rule:nonzero;" />
		<polygon points="225.3,244 227.6,244 229.9,247.45 227.6,250.9 225.3,250.9 223,247.45 "  style="fill:#000000ff;fill-rule:nonzero;" />
		<polygon points="225.3,265 227.6,265 229.9,268.45 227.6,271.9 225.3,271.9 223,268.45 "  style="fill:#000000ff;fill-rule:nonzero;" />
		<polygon points="225.3,272 227.6,272 229.9,275.45 227.6,278.9 225.3,278.9 223,275.45 "  style="fill:#000000ff;fill-rule:nonzero;" />
		<polygon points="232.3,20 234.6,20 236.9,23.45 234.6,26.9 232.3,26.9 230,23.45 "  style="fill:#000000ff;fill-rule:nonzero;" />
		<polygon points="232.3,27 234.6,27 236.9,30.45 234.6,33.9 232.3,33.9 230,30.45 "  style="fill:#000000ff;fill-rule:nonzero;" />
		<polygon points="232.3,34 234.6,34 236.9,37.45 234.6,40.9 232.3,40.9 230,37.45 "  style="fill:#000000ff;fill-rule:nonzero;" />
		<polygon points="232.3,41 234.6,41 236.9,44.45 234.6,47.9 232.3,47.9 230,44.45 "  style="fill:#000000ff;fill-rule:nonzero;" />
		<polygon points="232.3,48 234.6,48 236.9,51.45 234.6,54.9 232.3,54.9 230,51.45 "  style="fill:#000000ff;fill-rule:nonzero;" />
		<polygon points="232.3,55 234.6,55 236.9,58.45 234.6,61.9 232.3,61.9 230,58.45 "  style="fill:#000000ff;fill-rule:nonzero;" />
		<polygon points="232.3,62 234.6,62 236.9,65.45 234.6,68.9 232.3,68.9 230,65.45 "  style="fill:#000000ff;fill-rule:nonzero;" />
		<polygon points="232.3,76 234.6,76 236.9,79.45 234.6,82.9 232.3,82.9 230,79.45 "  style="fill:#000000ff;fill-rule:nonzero;" />
		<polygon points="232.3,90 234.6,90 236.9,93.45 234.6,96.9 232.3,96.9 230,93.45 "  style="fill:#000000ff;fill-rule:nonzero;" />
		<polygon points="232.3,104 234.6,104 236.9,107.45 234.6,110.9 232.3,110.9 230,107.45 "  style="fill:#000000ff;fill-rule:nonzero;" />
		<polygon points="232.3,111 234.6,111 236.9,114.45 234.6,117.9 232.3,117.9 230,114.45 "  style="fill:#000000ff;fill-rule:nonzero;" />
		<polygon points="232.3,118 234.6,118 236.9,121.45 234.6,124.9 232.3,124.9 230,121.45 "  style="fill:#000000ff;fill-rule:nonzero;" />
		<polygon points="232.3,146 234.6,146 236.9,149.45 234.6,152.9 232.3,152.9 230,149.45 "  style="fill:#000000ff;fill-rule:nonzero;" />
		<polygon points="232.3,153 234.6,153 236.9,156.45 234.6,159.9 232.3,159.9 230,156.45 "  style="fill:#000000ff;fill-rule:nonzero;" />
		<polygon points="232.3,160 234.6,160 236.9,163.45 234.6,166.9 232.3,166.9 230,163.45 "  style="fill:#000000ff;fill-rule:nonzero;" />
		<polygon points="232.3,174 234.6,174 236.9,177.45 234.6,180.9 232.3,180.9 230,177.45 "  style="fill:#000000ff;fill-rule:nonzero;" />
		<polygon points="232.3,181 234.6,181 236.9,184.45 234.6,187.9 232.3,187.9 230,184.45 "  style="fill:#000000ff;fill-rule:nonzero;" />
		<polygon points="232.3,188 234.6,188 236.9,191.45 234.6,194.9 232.3,194.9 230,191.45 "  style="fill:#000000ff;fill-rule:nonzero;" />
		<polygon points="232.3,195 234.6,195 236.9,198.45 234.6,201.9 232.3,201.9 230,198.45 "  style="fill:#000000ff;fill-rule:nonzero;" />
		<polygon points="232.3,202 234.6,202 236.9,205.45 234.6,208.9 232.3,208.9 230,205.45 "  style="fill:#000000ff;fill-rule:nonzero;" />
		<polygon points="232.3,216 234.6,216 236.9,219.45 234.6,222.9 232.3,222.9 230,219.45 "  style="fill:#000000ff;fill-rule:nonzero;" />
		<polygon points="232.3,230 234.6,230 236.9,233.45 234.6,236.9 232.3,236.9 230,233.45 "  style="fill:#000000ff;fill-rule:nonzero;" />
		<polygon points="232.3,244 234.6,244 236.9,247.45 234.6,250.9 232.3,250.9 230,247.45 "  style="fill:#000000ff;fill-rule:nonzero;" />
		<polygon points="232.3,251 234.6,251 236.9,254.45 234.6,257.9 232.3,257.9 230,254.45 "  style="fill:#000000ff;fill-rule:nonzero;" />
		<polygon points="232.3,258 234.6,258 236.9,261.45 234.6,264.9 232.3,264.9 230,261.45 "  style="fill:#000000ff;fill-rule:nonzero;" />
		<polygon points="232.3,265 234.6,265 236.9,268.45 234.6,271.9 232.3,271.9 230,268.45 "  style="fill:#000000ff;fill-rule:nonzero;" />
		<polygon points="239.3,20 241.6,20 243.9,23.45 241.6,26.9 239.3,26.9 237,23.45 "  style="fill:#000000ff;fill-rule:nonzero;" />
		<polygon points="239.3,62 241.6,62 243.9,65.45 241.6,68.9 239.3,68.9 237,65.45 "  style="fill:#000000ff;fill-rule:nonzero;" />
		<polygon points="239.3,76 241.6,76 243.9,79.45 241.6,82.9 239.3,82.9 237,79.45 "  style="fill:#000000ff;fill-rule:nonzero;" />
		<polygon points="239.3,90 241.6,90 243.9,93.45 241.6,96.9 239.3,96.9 237,93.45 "  style="fill:#000000ff;fill-rule:nonzero;" />
		<polygon points="239.3,97 241.6,97 243.9,100.45 241.6,103.9 239.3,103.9 237,100.45 "  style="fill:#000000ff;fill-rule:nonzero;" />
		<polygon points="239.3,111 241.6,111 243.9,114.45 241.6,117.9 239.3,117.9 237,114.45 "  style="fill:#000000ff;fill-rule:nonzero;" />
		<polygon points="239.3,125 241.6,125 243.9,128.45 241.6,131.9 239.3,131.9 237,128.45 "  style="fill:#000000ff;fill-rule:nonzero;" />
		<polygon points="239.3,139 241.6,139 243.9,142.45 241.6,145.9 239.3,145.9 237,142.45 "  style="fill:#000000ff;fill-rule:nonzero;" />
		<polygon points="239.3,153 241.6,153 243.9,156.45 241.6,159.9 239.3,159.9 237,156.45 "  style="fill:#000000ff;fill-rule:nonzero;" />
		<polygon points="239.3,167 241.6,167 243.9,170.45 241.6,173.9 239.3,173.9 237,170.45 "  style="fill:#000000ff;fill-rule:nonzero;" />
		<polygon points="239.3,174 241.6,174 243.9,177.45 241.6,180.9 239.3,180.9 237,177.45 "  style="fill:#000000ff;fill-rule:nonzero;" />
		<polygon points="239.3,181 241.6,181 243.9,184.45 241.6,187.9 239.3,187.9 237,184.45 "  style="fill:#000000ff;fill-rule:nonzero;" />
		<polygon points="239.3,202 241.6,202 243.9,205.45 241.6,208.9 239.3,208.9 237,205.45 "  style="fill:#000000ff;fill-rule:nonzero;" />
		<polygon points="239.3,216 241.6,216 243.9,219.45 241.6,222.9 239.3,222.9 237,219.45 "  style="fill:#000000ff;fill-rule:nonzero;" />
		<polygon points="239.3,244 241.6,244 243.9,247.45 241.6,250.9 239.3,250.9 237,247.45 "  style="fill:#000000ff;fill-rule:nonzero;" />
		<polygon points="239.3,251 241.6,251 243.9,254.45 241.6,257.9 239.3,257.9 237,254.45 "  style="fill:#000000ff;fill-rule:nonzero;" />
		<polygon points="239.3,258 241.6,258 243.9,261.45 241.6,264.9 239.3,264.9 237,261.45 "  style="fill:#000000ff;fill-rule:nonzero;" />
		<polygon points="246.3,20 248.6,20 250.9,23.45 248.6,26.9 246.3,26.9 244,23.45 "  style="fill:#000000ff;fill-rule:nonzero;" />
		<polygon points="246.3,34 248.6,34 250.9,37.45 248.6,40.9 246.3,40.9 244,37.45 "  style="fill:#000000ff;fill-rule:nonzero;" />
		<polygon points="246.3,41 248.6,41 250.9,44.45 248.6,47.9 246.3,47.9 244,44.45 "  style="fill:#000000ff;fill-rule:nonzero;" />
		<polygon points="246.3,48 248.6,48 250.9,51.45 248.6,54.9 246.3,54.9 244,51.45 "  style="fill:#000000ff;fill-rule:nonzero;" />
		<polygon points="246.3,62 248.6,62 250.9,65.45 248.6,68.9 246.3,68.9 244,65.45 "  style="fill:#000000ff;fill-rule:nonzero;" />
		<polygon points="246.3,90 248.6,90 250.9,93.45 248.6,96.9 246.3,96.9 244,93.45 "  style="fill:#000000ff;fill-rule:nonzero;" />
		<polygon points="246.3,104 248.6,104 250.9,107.45 248.6,110.9 246.3,110.9 244,107.45 "  style="fill:#000000ff;fill-rule:nonzero;" />
		<polygon points="246.3,132 248.6,132 250.9,135.45 248.6,138.9 246.3,138.9 244,135.45 "  style="fill:#000000ff;fill-rule:nonzero;" />
		<polygon points="246.3,139 248.6,139 250.9,142.45 248.6,145.9 246.3,145.9 244,142.45 "  style="fill:#000000ff;fill-rule:nonzero;" />
		<polygon points="246.3,146 248.6,146 250.9,149.45 248.6,152.9 246.3,152.9 244,149.45 "  style="fill:#000000ff;fill-rule:nonzero;" />
		<polygon points="246.3,174 248.6,174 250.9,177.45 248.6,180.9 246.3,180.9 244,177.45 "  style="fill:#000000ff;fill-rule:nonzero;" />
		<polygon points="246.3,195 248.6,195 250.9,198.45 248.6,201.9 246.3,201.9 244,198.45 "  style="fill:#000000ff;fill-rule:nonzero;" />
		<polygon points="246.3,202 248.6,202 250.9,205.45 248.6,208.9 246.3,208.9 244,205.45 "  style="fill:#000000ff;fill-rule:nonzero;" />
		<polygon points="246.3,216 248.6,216 250.9,219.45 248.6,222.9 246.3,222.9 244,219.45 "  style="fill:#000000ff;fill-rule:nonzero;" />
		<polygon points="246.3,223 248.6,223 250.9,226.45 248.6,229.9 246.3,229.9 244,226.45 "  style="fill:#000000ff;fill-rule:nonzero;" />
		<polygon points="246.3,230 248.6,230 250.9,233.45 248.6,236.9 246.3,236.9 244,233.45 "  style="fill:#000000ff;fill-rule:nonzero;" />
		<polygon points="246.3,237 248.6,237 250.9,240.45 248.6,243.9 246.3,243.9 244,240.45 "  style="fill:#000000ff;fill-rule:nonzero;" />
		<polygon points="246.3,244 248.6,244 250.9,247.45 248.6,250.9 246.3,250.9 244,247.45 "  style="fill:#000000ff;fill-rule:nonzero;" />
		<polygon points="246.3,251 248.6,251 250.9,254.45 248.6,257.9 246.3,257.9 244,254.45 "  style="fill:#000000ff;fill-rule:nonzero;" />
		<polygon points="246.3,258 248.6,258 250.9,261.45 248.6,264.9 246.3,264.9 244,261.45 "  style="fill:#000000ff;fill-rule:nonzero;" />
		<polygon points="246.3,265 248.6,265 250.9,268.45 248.6,271.9 246.3,271.9 244,268.45 "  style="fill:#000000ff;fill-rule:nonzero;" />
		<polygon points="253.3,20 255.6,20 257.9,23.45 255.6,26.9 253.3,26.9 251,23.45 "  style="fill:#000000ff;fill-rule:nonzero;" />
		<polygon points="253.3,34 255.6,34 257.9,37.45 255.6,40.9 253.3,40.9 251,37.45 "  style="fill:#000000ff;fill-rule:nonzero;" />
		<polygon points="253.3,41 255.6,41 257.9,44.45 255.6,47.9 253.3,47.9 251,44.45 "  style="fill:#000000ff;fill-rule:nonzero;" />
		<polygon points="253.3,48 255.6,48 257.9,51.45 255.6,54.9 253.3,54.9 251,51.45 "  style="fill:#000000ff;fill-rule:nonzero;" />
		<polygon points="253.3,62 255.6,62 257.9,65.45 255.6,68.9 253.3,68.9 251,65.45 "  style="fill:#000000ff;fill-rule:nonzero;" />
		<polygon points="253.3,83 255.6,83 257.9,86.45 255.6,89.9 253.3,89.9 251,86.45 "  style="fill:#000000ff;fill-rule:nonzero;" />
		<polygon points="253.3,97 255.6,97 257.9,100.45 255.6,103.9 253.3,103.9 251,100.45 "  style="fill:#000000ff;fill-rule:nonzero;" />
		<polygon points="253.3,111 255.6,111 257.9,114.45 255.6,117.9 253.3,117.9 251,114.45 "  style="fill:#000000ff;fill-rule:nonzero;" />
		<polygon points="253.3,118 255.6,118 257.9,121.45 255.6,124.9 253.3,124.9 251,121.45 "  style="fill:#000000ff;fill-rule:nonzero;" />
		<polygon points="253.3,125 255.6,125 257.9,128.45 255.6,131.9 253.3,131.9 251,128.45 "  style="fill:#000000ff;fill-rule:nonzero;" />
		<polygon points="253.3,153 255.6,153 257.9,156.45 255.6,159.9 253.3,159.9 251,156.45 "  style="fill:#000000ff;fill-rule:nonzero;" />
		<polygon points="253.3,160 255.6,160 257.9,163.45 255.6,166.9 253.3,166.9 251,163.45 "  style="fill:#000000ff;fill-rule:nonzero;" />
		<polygon points="253.3,181 255.6,181 257.9,184.45 255.6,187.9 253.3,187.9 251,184.45 "  style="fill:#000000ff;fill-rule:nonzero;" />
		<polygon points="253.3,188 255.6,188 257.9,191.45 255.6,194.9 253.3,194.9 251,191.45 "  style="fill:#000000ff;fill-rule:nonzero;" />
		<polygon points="253.3,195 255.6,195 257.9,198.45 255.6,201.9 253.3,201.9 251,198.45 "  style="fill:#000000ff;fill-rule:nonzero;" />
		<polygon points="253.3,230 255.6,230 257.9,233.45 255.6,236.9 253.3,236.9 251,233.45 "  style="fill:#000000ff;fill-rule:nonzero;" />
		<polygon points="253.3,237 255.6,237 257.9,240.45 255.6,243.9 253.3,243.9 251,240.45 "  style="fill:#000000ff;fill-rule:nonzero;" />
		<polygon points="253.3,244 255.6,244 257.9,247.45 255.6,250.9 253.3,250.9 251,247.45 "  style="fill:#000000ff;fill-rule:nonzero;" />
		<polygon points="253.3,258 255.6,258 257.9,261.45 255.6,264.9 253.3,264.9 251,261.45 "  style="fill:#000000ff;fill-rule:nonzero;" />
		<polygon points="253.3,265 255.6,265 257.9,268.45 255.6,271.9 253.3,271.9 251,268.45 "  style="fill:#000000ff;fill-rule:nonzero;" />
		<polygon points="260.3,20 262.6,20 264.9,23.45 262.6,26.9 260.3,26.9 258,23.45 "  style="fill:#000000ff;fill-rule:nonzero;" />
		<polygon points="260.3,34 262.6,34 264.9,37.45 262.6,40.9 260.3,40.9 258,37.45 "  style="fill:#000000ff;fill-rule:nonzero;" />
		<polygon points="260.3,41 262.6,41 264.9,44.45 262.6,47.9 260.3,47.9 258,44.45 "  style="fill:#000000ff;fill-rule:nonzero;" />
		<polygon points="260.3,48 262.6,48 264.9,51.45 262.6,54.9 260.3,54.9 258,51.45 "  style="fill:#000000ff;fill-rule:nonzero;" />
		<polygon points="260.3,62 262.6,62 264.9,65.45 262.6,68.9 260.3,68.9 258,65.45 "  style="fill:#000000ff;fill-rule:nonzero;" />
		<polygon points="260.3,76 262.6,76 264.9,79.45 262.6,82.9 260.3,82.9 258,79.45 "  style="fill:#000000ff;fill-rule:nonzero;" />
		<polygon points="260.3,90 262.6,90 264.9,93.45 262.6,96.9 260.3,96.9 258,93.45 "  style="fill:#000000ff;fill-rule:nonzero;" />
		<polygon points="260.3,118 262.6,118 264.9,121.45 262.6,124.9 260.3,124.9 258,121.45 "  style="fill:#000000ff;fill-rule:nonzero;" />
		<polygon points="260.3,125 262.6,125 264.9,128.45 262.6,131.9 260.3,131.9 258,128.45 "  style="fill:#000000ff;fill-rule:nonzero;" />
		<polygon points="260.3,132 262.6,132 264.9,135.45 262.6,138.9 260.3,138.9 258,135.45 "  style="fill:#000000ff;fill-rule:nonzero;" />
		<polygon points="260.3,146 262.6,146 264.9,149.45 262.6,152.9 260.3,152.9 258,149.45 "  style="fill:#000000ff;fill-rule:nonzero;" />
		<polygon points="260.3,153 262.6,153 264.9,156.45 262.6,159.9 260.3,159.9 258,156.45 "  style="fill:#000000ff;fill-rule:nonzero;" />
		<polygon points="260.3,174 262.6,174 264.9,177.45 262.6,180.9 260.3,180.9 258,177.45 "  style="fill:#000000ff;fill-rule:nonzero;" />
		<polygon points="260.3,188 262.6,188 264.9,191.45 262.6,194.9 260.3,194.9 258,191.45 "  style="fill:#000000ff;fill-rule:nonzero;" />
		<polygon points="260.3,202 262.6,202 264.9,205.45 262.6,208.9 260.3,208.9 258,205.45 "  style="fill:#000000ff;fill-rule:nonzero;" />
		<polygon points="260.3,216 262.6,216 264.9,219.45 262.6,222.9 260.3,222.9 258,219.45 "  style="fill:#000000ff;fill-rule:nonzero;" />
		<polygon points="260.3,230 262.6,230 264.9,233.45 262.6,236.9 260.3,236.9 258,233.45 "  style="fill:#000000ff;fill-rule:nonzero;" />
		<polygon points="260.3,237 262.6,237 264.9,240.45 262.6,243.9 260.3,243.9 258,240.45 "  style="fill:#000000ff;fill-rule:nonzero;" />
		<polygon points="260.3,258 262.6,258 264.9,261.45 262.6,264.9 260.3,264.9 258,261.45 "  style="fill:#000000ff;fill-rule:nonzero;" />
		<polygon points="260.3,265 262.6,265 264.9,268.45 262.6,271.9 260.3,271.9 258,268.45 "  style="fill:#000000ff;fill-rule:nonzero;" />
		<polygon points="267.3,20 269.6,20 271.9,23.45 269.6,26.9 267.3,26.9 265,23.45 "  style="fill:#000000ff;fill-rule:nonzero;" />
		<polygon points="267.3,62 269.6,62 271.9,65.45 269.6,68.9 267.3,68.9 265,65.45 "  style="fill:#000000ff;fill-rule:nonzero;" />
		<polygon points="267.3,76 269.6,76 271.9,79.45 269.6,82.9 267.3,82.9 265,79.45 "  style="fill:#000000ff;fill-rule:nonzero;" />
		<polygon points="267.3,83 269.6,83 271.9,86.45 269.6,89.9 267.3,89.9 265,86.45 "  style="fill:#000000ff;fill-rule:nonzero;" />
		<polygon points="267.3,90 269.6,90 271.9,93.45 269.6,96.9 267.3,96.9 265,93.45 "  style="fill:#000000ff;fill-rule:nonzero;" />
		<polygon points="267.3,111 269.6,111 271.9,114.45 269.6,117.9 267.3,117.9 265,114.45 "  style="fill:#000000ff;fill-rule:nonzero;" />
		<polygon points="267.3,132 269.6,132 271.9,135.45 269.6,138.9 267.3,138.9 265,135.45 "  style="fill:#000000ff;fill-rule:nonzero;" />
		<polygon points="267.3,146 269.6,146 271.9,149.45 269.6,152.9 267.3,152.9 265,149.45 "  style="fill:#000000ff;fill-rule:nonzero;" />
		<polygon points="267.3,167 269.6,167 271.9,170.45 269.6,173.9 267.3,173.9 265,170.45 "  style="fill:#000000ff;fill-rule:nonzero;" />
		<polygon points="267.3,174 269.6,174 271.9,177.45 269.6,180.9 267.3,180.9 265,177.45 "  style="fill:#000000ff;fill-rule:nonzero;" />
		<polygon points="267.3,188 269.6,188 271.9,191.45 269.6,194.9 267.3,194.9 265,191.45 "  style="fill:#000000ff;fill-rule:nonzero;" />
		<polygon points="267.3,195 269.6,195 271.9,198.45 269.6,201.9 267.3,201.9 265,198.45 "  style="fill:#000000ff;fill-rule:nonzero;" />
		<polygon points="267.3,202 269.6,202 271.9,205.45 269.6,208.9 267.3,208.9 265,205.45 "  style="fill:#000000ff;fill-rule:nonzero;" />
		<polygon points="267.3,216 269.6,216 271.9,219.45 269.6,222.9 267.3,222.9 265,219.45 "  style="fill:#000000ff;fill-rule:nonzero;" />
		<polygon points="267.3,223 269.6,223 271.9,226.45 269.6,229.9 267.3,229.9 265,226.45 "  style="fill:#000000ff;fill-rule:nonzero;" />
		<polygon points="267.3,230 269.6,230 271.9,233.45 269.6,236.9 267.3,236.9 265,233.45 "  style="fill:#000000ff;fill-rule:nonzero;" />
		<polygon points="267.3,244 269.6,244 271.9,247.45 269.6,250.9 267.3,250.9 265,247.45 "  style="fill:#000000ff;fill-rule:nonzero;" />
		<polygon points="267.3,251 269.6,251 271.9,254.45 269.6,257.9 267.3,257.9 265,254.45 "  style="fill:#000000ff;fill-rule:nonzero;" />
		<polygon points="267.3,265 269.6,265 271.9,268.45 269.6,271.9 267.3,271.9 265,268.45 "  style="fill:#000000ff;fill-rule:nonzero;" />
		<polygon points="267.3,272 269.6,272 271.9,275.45 269.6,278.9 267.3,278.9 265,275.45 "  style="fill:#000000ff;fill-rule:nonzero;" />
		<polygon points="274.3,20 276.6,20 278.9,23.45 276.6,26.9 274.3,26.9 272,23.45 "  style="fill:#000000ff;fill-rule:nonzero;" />
		<polygon points="274.3,27 276.6,27 278.9,30.45 276.6,33.9 274.3,33.9 272,30.45 "  style="fill:#000000ff;fill-rule:nonzero;" />
		<polygon points="274.3,34 276.6,34 278.9,37.45 276.6,40.9 274.3,40.9 272,37.45 "  style="fill:#000000ff;fill-rule:nonzero;" />
		<polygon points="274.3,41 276.6,41 278.9,44.45 276.6,47.9 274.3,47.9 272,44.45 "  style="fill:#000000ff;fill-rule:nonzero;" />
		<polygon points="274.3,48 276.6,48 278.9,51.45 276.6,54.9 274.3,54.9 272,51.45 "  style="fill:#000000ff;fill-rule:nonzero;" />
		<polygon points="274.3,55 276.6,55 278.9,58.45 276.6,61.9 274.3,61.9 272,58.45 "  style="fill:#000000ff;fill-rule:nonzero;" />
		<polygon points="274.3,62 276.6,62 278.9,65.45 276.6,68.9 274.3,68.9 272,65.45 "  style="fill:#000000ff;fill-rule:nonzero;" />
		<polygon points="274.3,76 276.6,76 278.9,79.45 276.6,82.9 274.3,82.9 272,79.45 "  style="fill:#000000ff;fill-rule:nonzero;" />
		<polygon points="274.3,104 276.6,104 278.9,107.45 276.6,110.9 274.3,110.9 272,107.45 "  style="fill:#000000ff;fill-rule:nonzero;" />
		<polygon points="274.3,111 276.6,111 278.9,114.45 276.6,117.9 274.3,117.9 272,114.45 "  style="fill:#000000ff;fill-rule:nonzero;" />
		<polygon points="274.3,132 276.6,132 278.9,135.45 276.6,138.9 274.3,138.9 272,135.45 "  style="fill:#000000ff;fill-rule:nonzero;" />
		<polygon points="274.3,139 276.6,139 278.9,142.45 276.6,145.9 274.3,145.9 272,142.45 "  style="fill:#000000ff;fill-rule:nonzero;" />
		<polygon points="274.3,146 276.6,146 278.9,149.45 276.6,152.9 274.3,152.9 272,149.45 "  style="fill:#000000ff;fill-rule:nonzero;" />
		<polygon points="274.3,174 276.6,174 278.9,177.45 276.6,180.9 274.3,180.9 272,177.45 "  style="fill:#000000ff;fill-rule:nonzero;" />
		<polygon points="274.3,188 276.6,188 278.9,191.45 276.6,194.9 274.3,194.9 272,191.45 "  style="fill:#000000ff;fill-rule:nonzero;" />
		<polygon points="274.3,195 276.6,195 278.9,198.45 276.6,201.9 274.3,201.9 272,198.45 "  style="fill:#000000ff;fill-rule:nonzero;" />
		<polygon points="274.3,216 276.6,216 278.9,219.45 276.6,222.9 274.3,222.9 272,219.45 "  style="fill:#000000ff;fill-rule:nonzero;" />
		<polygon points="274.3,223 276.6,223 278.9,226.45 276.6,229.9 274.3,229.9 272,226.45 "  style="fill:#000000ff;fill-rule:nonzero;" />
		<polygon points="274.3,230 276.6,230 278.9,233.45 276.6,236.9 274.3,236.9 272,233.45 "  style="fill:#000000ff;fill-rule:nonzero;" />
		<polygon points="274.3,244 276.6,244 278.9,247.45 276.6,250.9 274.3,250.9 272,247.45 "  style="fill:#000000ff;fill-rule:nonzero;" />
		<polygon points="274.3,251 276.6,251 278.9,254.45 276.6,257.9 274.3,257.9 272,254.45 "  style="fill:#000000ff;fill-rule:nonzero;" />
		<polygon points="274.3,258 276.6,258 278.9,261.45 276.6,264.9 274.3,264.9 272,261.45 "  style="fill:#000000ff;fill-rule:nonzero;" />
		<polygon points="274.3,272 276.6,272 278.9,275.45 276.6,278.9 274.3,278.9 272,275.45 "  style="fill:#000000ff;fill-rule:nonzero;" />

	</g>
</svg>