<?xml version="1.0" encoding="utf-8"?>
<svg xmlns="http://www.w3.org/2000/svg" xmlns:xlink="http://www.w3.org/1999/xlink" width="500" height="500" viewBox="0 0 500 500">

	<g id="qr">
		<rect fill="#ffffffff" x="0" y="0" width="500" height="500" />
		<rect fill="#000000ff" x="18" y="18" width="16" height="16" />
		<rect fill="#000000ff" x="18" y="34" width="16" height="16" />
		<rect fill="#000000ff" x="18" y="50" width="16" height="16" />
		<rect fill="#000000ff" x="18" y="66" width="16" height="16" />
		<rect fill="#000000ff" x="18" y="82" width="16" height="16" />
		<rect fill="#000000ff" x="18" y="98" width="16" height="16" />
		<rect fill="#000000ff" x="18" y="114" width="16" height="16" />
		<rect fill="#000000ff" x="18" y="146" width="16" height="16" />
		<rect fill="#000000ff" x="18" y="162" width="16" height="16" />
		<rect fill="#000000ff" x="18" y="178" width="16" height="16" />
		<rect fill="#000000ff" x="18" y="210" width="16" height="16" />
		<rect fill="#000000ff" x="18" y="226" width="16" height="16" />
		<rect fill="#000000ff" x="18" y="290" width="16" height="16" />
		<rect fill="#000000ff" x="18" y="338" width="16" height="16" />
		<rect fill="#000000ff" x="18" y="370" width="16" height="16" />
		<rect fill="#000000ff" x="18" y="386" width="16" height="16" />
		<rect fill="#000000ff" x="18" y="402" width="16" height="16" />
		<rect fill="#000000ff" x="18" y="418" width="16" height="16" />
		<rect fill="#000000ff" x="18" y="434" width="16" height="16" />
		<rect fill="#000000ff" x="18" y="450" width="16" height="16" />
		<rect fill="#000000ff" x="18" y="466" width="16" height="16" />
		<rect fill="#000000ff" x="34" y="18" width="16" height="16" />
		<rect fill="#000000ff" x="34" y="114" width="16" height="16" />
		<rect fill="#000000ff" x="34" y="146" width="16" height="16" />
		<rect fill="#000000ff" x="34" y="178" width="16" height="16" />
		<rect fill="#000000ff" x="34" y="194" width="16" height="16" />
		<rect fill="#000000ff" x="34" y="210" width="16" height="16" />
		<rect fill="#000000ff" x="34" y="226" width="16" height="16" />
		<rect fill="#000000ff" x="34" y="242" width="16" height="16" />
		<rect fill="#000000ff" x="34" y="274" width="16" height="16" />
		<rect fill="#000000ff" x="34" y="338" width="16" height="16" />
		<rect fill="#000000ff" x="34" y="370" width="16" height="16" />
		<rect fill="#000000ff" x="34" y="466" width="16" height="16" />
		<rect fill="#000000ff" x="50" y="18" width="16" height="16" />
		<rect fill="#000000ff" x="50" y="50" width="16" height="16" />
		<rect fill="#000000ff" x="50" y="66" width="16" height="16" />
		<rect fill="#000000ff" x="50" y="82" width="16" height="16" />
		<rect fill="#000000ff" x="50" y="114" width="16" height="16" />
		<rect fill="#000000ff" x="50" y="162" width="16" height="16" />
		<rect fill="#000000ff" x="50" y="178" width="16" height="16" />
		<rect fill="#000000ff" x="50" y="194" width="16" height="16" />
		<rect fill="#000000ff" x="50" y="210" width="16" height="16" />
		<rect fill="#000000ff" x="50" y="242" width="16" height="16" />
		<rect fill="#000000ff" x="50" y="258" width="16" height="16" />
		<rect fill="#000000ff" x="50" y="274" width="16" height="16" />
		<rect fill="#000000ff" x="50" y="322" width="16" height="16" />
		<rect fill="#000000ff" x="50" y="370" width="16" height="16" />
		<rect fill="#000000ff" x="50" y="402" width="16" height="16" />
		<rect fill="#000000ff" x="50" y="418" width="16" height="16" />
		<rect fill="#000000ff" x="50" y="434" width="16" height="16" />
		<rect fill="#000000ff" x="50" y="466" width="16" height="16" />
		<rect fill="#000000ff" x="66" y="18" width="16" height="16" />
		<rect fill="#000000ff" x="66" y="50" width="16" height="16" />
		<rect fill="#000000ff" x="66" y="66" width="16" height="16" />
		<rect fill="#000000ff" x="66" y="82" width="16" height="16" />
		<rect fill="#000000ff" x="66" y="114" width="16" height="16" />
		<rect fill="#000000ff" x="66" y="162" width="16" height="16" />
		<rect fill="#000000ff" x="66" y="194" width="16" height="16" />
		<rect fill="#000000ff" x="66" y="226" width="16" height="16" />
		<rect fill="#000000ff" x="66" y="258" width="16" height="16" />
		<rect fill="#000000ff" x="66" y="338" width="16" height="16" />
		<rect fill="#000000ff" x="66" y="370" width="16" height="16" />
		<rect fill="#000000ff" x="66" y="402" width="16" height="16" />
		<rect fill="#000000ff" x="66" y="418" width="16" height="16" />
		<rect fill="#000000ff" x="66" y="434" width="16" height="16" />
		<rect fill="#000000ff" x="66" y="466" width="16" height="16" />
		<rect fill="#000000ff" x="82" y="18" width="16" height="16" />
		<rect fill="#000000ff" x="82" y="50" width="16" height="16" />
		<rect fill="#000000ff" x="82" y="66" width="16" height="16" />
		<rect fill="#000000ff" x="82" y="82" width="16" height="16" />
		<rect fill="#000000ff" x="82" y="114" width="16" height="16" />
		<rect fill="#000000ff" x="82" y="146" width="16" height="16" />
		<rect fill="#000000ff" x="82" y="178" width="16" height="16" />
		<rect fill="#000000ff" x="82" y="194" width="16" height="16" />
		<rect fill="#000000ff" x="82" y="274" width="16" height="16" />
		<rect fill="#000000ff" x="82" y="322" width="16" height="16" />
		<rect fill="#000000ff" x="82" y="338" width="16" height="16" />
		<rect fill="#000000ff" x="82" y="370" width="16" height="16" />
		<rect fill="#000000ff" x="82" y="402" width="16" height="16" />
		<rect fill="#000000ff" x="82" y="418" width="16" height="16" />
		<rect fill="#000000ff" x="82" y="434" width="16" height="16" />
		<rect fill="#000000ff" x="82" y="466" width="16" height="16" />
		<rect fill="#000000ff" x="98" y="18" width="16" height="16" />
		<rect fill="#000000ff" x="98" y="114" width="16" height="16" />
		<rect fill="#000000ff" x="98" y="146" width="16" height="16" />
		<rect fill="#000000ff" x="98" y="162" width="16" height="16" />
		<rect fill="#000000ff" x="98" y="178" width="16" height="16" />
		<rect fill="#000000ff" x="98" y="226" width="16" height="16" />
		<rect fill="#000000ff" x="98" y="258" width="16" height="16" />
		<rect fill="#000000ff" x="98" y="306" width="16" height="16" />
		<rect fill="#000000ff" x="98" y="322" width="16" height="16" />
		<rect fill="#000000ff" x="98" y="370" width="16" height="16" />
		<rect fill="#000000ff" x="98" y="466" width="16" height="16" />
		<rect fill="#000000ff" x="114" y="18" width="16" height="16" />
		<rect fill="#000000ff" x="114" y="34" width="16" height="16" />
		<rect fill="#000000ff" x="114" y="50" width="16" height="16" />
		<rect fill="#000000ff" x="114" y="66" width="16" height="16" />
		<rect fill="#000000ff" x="114" y="82" width="16" height="16" />
		<rect fill="#000000ff" x="114" y="98" width="16" height="16" />
		<rect fill="#000000ff" x="114" y="114" width="16" height="16" />
		<rect fill="#000000ff" x="114" y="146" width="16" height="16" />
		<rect fill="#000000ff" x="114" y="178" width="16" height="16" />
		<rect fill="#000000ff" x="114" y="210" width="16" height="16" />
		<rect fill="#000000ff" x="114" y="242" width="16" height="16" />
		<rect fill="#000000ff" x="114" y="274" width="16" height="16" />
		<rect fill="#000000ff" x="114" y="306" width="16" height="16" />
		<rect fill="#000000ff" x="114" y="338" width="16" height="16" />
		<rect fill="#000000ff" x="114" y="370" width="16" height="16" />
		<rect fill="#000000ff" x="114" y="386" width="16" height="16" />
		<rect fill="#000000ff" x="114" y="402" width="16" height="16" />
		<rect fill="#000000ff" x="114" y="418" width="16" height="16" />
		<rect fill="#000000ff" x="114" y="434" width="16" height="16" />
		<rect fill="#000000ff" x="114" y="450" width="16" height="16" />
		<rect fill="#000000ff" x="114" y="466" width="16" height="16" />
		<rect fill="#000000ff" x="130" y="242" width="16" height="16" />
		<rect fill="#000000ff" x="130" y="290" width="16" height="16" />
		<rect fill="#000000ff" x="130" y="322" width="16" height="16" />
		<rect fill="#000000ff" x="130" y="338" width="16" height="16" />
		<rect fill="#000000ff" x="146" y="18" width="16" height="16" />
		<rect fill="#000000ff" x="146" y="34" width="16" height="16" />
		<rect fill="#000000ff" x="146" y="50" width="16" height="16" />
		<rect fill="#000000ff" x="146" y="66" width="16" height="16" />
		<rect fill="#000000ff" x="146" y="98" width="16" height="16" />
		<rect fill="#000000ff" x="146" y="114" width="16" height="16" />
		<rect fill="#000000ff" x="146" y="162" width="16" height="16" />
		<rect fill="#000000ff" x="146" y="178" width="16" height="16" />
		<rect fill="#000000ff" x="146" y="194" width="16" height="16" />
		<rect fill="#000000ff" x="146" y="226" width="16" height="16" />
		<rect fill="#000000ff" x="146" y="290" width="16" height="16" />
		<rect fill="#000000ff" x="146" y="322" width="16" height="16" />
		<rect fill="#000000ff" x="146" y="338" width="16" height="16" />
		<rect fill="#000000ff" x="146" y="354" width="16" height="16" />
		<rect fill="#000000ff" x="146" y="386" width="16" height="16" />
		<rect fill="#000000ff" x="146" y="402" width="16" height="16" />
		<rect fill="#000000ff" x="146" y="450" width="16" height="16" />
		<rect fill="#000000ff" x="146" y="466" width="16" height="16" />
		<rect fill="#000000ff" x="162" y="50" width="16" height="16" />
		<rect fill="#000000ff" x="162" y="66" width="16" height="16" />
		<rect fill="#000000ff" x="162" y="82" width="16" height="16" />
		<rect fill="#000000ff" x="162" y="98" width="16" height="16" />
		<rect fill="#000000ff" x="162" y="178" width="16" height="16" />
		<rect fill="#000000ff" x="162" y="194" width="16" height="16" />
		<rect fill="#000000ff" x="162" y="242" width="16" height="16" />
		<rect fill="#000000ff" x="162" y="258" width="16" height="16" />
		<rect fill="#000000ff" x="162" y="322" width="16" height="16" />
		<rect fill="#000000ff" x="162" y="338" width="16" height="16" />
		<rect fill="#000000ff" x="162" y="354" width="16" height="16" />
		<rect fill="#000000ff" x="162" y="386" width="16" height="16" />
		<rect fill="#000000ff" x="162" y="418" width="16" height="16" />
		<rect fill="#000000ff" x="178" y="66" width="16" height="16" />
		<rect fill="#000000ff" x="178" y="82" width="16" height="16" />
		<rect fill="#000000ff" x="178" y="98" width="16" height="16" />
		<rect fill="#000000ff" x="178" y="114" width="16" height="16" />
		<rect fill="#000000ff" x="178" y="130" width="16" height="16" />
		<rect fill="#000000ff" x="178" y="146" width="16" height="16" />
		<rect fill="#000000ff" x="178" y="178" width="16" height="16" />
		<rect fill="#000000ff" x="178" y="226" width="16" height="16" />
		<rect fill="#000000ff" x="178" y="242" width="16" height="16" />
		<rect fill="#000000ff" x="178" y="290" width="16" height="16" />
		<rect fill="#000000ff" x="178" y="322" width="16" height="16" />
		<rect fill="#000000ff" x="178" y="370" width="16" height="16" />
		<rect fill="#000000ff" x="178" y="402" width="16" height="16" />
		<rect fill="#000000ff" x="178" y="418" width="16" height="16" />
		<rect fill="#000000ff" x="178" y="434" width="16" height="16" />
		<rect fill="#000000ff" x="178" y="466" width="16" height="16" />
		<rect fill="#000000ff" x="194" y="34" width="16" height="16" />
		<rect fill="#000000ff" x="194" y="130" width="16" height="16" />
		<rect fill="#000000ff" x="194" y="338" width="16" height="16" />
		<rect fill="#000000ff" x="194" y="370" width="16" height="16" />
		<rect fill="#000000ff" x="194" y="386" width="16" height="16" />
		<rect fill="#000000ff" x="194" y="450" width="16" height="16" />
		<rect fill="#000000ff" x="210" y="34" width="16" height="16" />
		<rect fill="#000000ff" x="210" y="50" width="16" height="16" />
		<rect fill="#000000ff" x="210" y="66" width="16" height="16" />
		<rect fill="#000000ff" x="210" y="82" width="16" height="16" />
		<rect fill="#000000ff" x="210" y="114" width="16" height="16" />
		<rect fill="#000000ff" x="210" y="146" width="16" height="16" />
		<rect fill="#000000ff" x="210" y="322" width="16" height="16" />
		<rect fill="#000000ff" x="210" y="338" width="16" height="16" />
		<rect fill="#000000ff" x="210" y="354" width="16" height="16" />
		<rect fill="#000000ff" x="210" y="402" width="16" height="16" />
		<rect fill="#000000ff" x="210" y="418" width="16" height="16" />
		<rect fill="#000000ff" x="210" y="450" width="16" height="16" />
		<rect fill="#000000ff" x="226" y="18" width="16" height="16" />
		<rect fill="#000000ff" x="226" y="66" width="16" height="16" />
		<rect fill="#000000ff" x="226" y="82" width="16" height="16" />
		<rect fill="#000000ff" x="226" y="98" width="16" height="16" />
		<rect fill="#000000ff" x="226" y="146" width="16" height="16" />
		<rect fill="#000000ff" x="226" y="162" width="16" height="16" />
		<rect fill="#000000ff" x="226" y="178" width="16" height="16" />
		<rect fill="#000000ff" x="226" y="306" width="16" height="16" />
		<rect fill="#000000ff" x="226" y="322" width="16" height="16" />
		<rect fill="#000000ff" x="226" y="338" width="16" height="16" />
		<rect fill="#000000ff" x="226" y="354" width="16" height="16" />
		<rect fill="#000000ff" x="226" y="370" width="16" height="16" />
		<rect fill="#000000ff" x="226" y="418" width="16" height="16" />
		<rect fill="#000000ff" x="226" y="434" width="16" height="16" />
		<rect fill="#000000ff" x="226" y="450" width="16" height="16" />
		<rect fill="#000000ff" x="242" y="18" width="16" height="16" />
		<rect fill="#000000ff" x="242" y="50" width="16" height="16" />
		<rect fill="#000000ff" x="242" y="82" width="16" height="16" />
		<rect fill="#000000ff" x="242" y="114" width="16" height="16" />
		<rect fill="#000000ff" x="242" y="130" width="16" height="16" />
		<rect fill="#000000ff" x="242" y="178" width="16" height="16" />
		<rect fill="#000000ff" x="242" y="322" width="16" height="16" />
		<rect fill="#000000ff" x="242" y="338" width="16" height="16" />
		<rect fill="#000000ff" x="242" y="386" width="16" height="16" />
		<rect fill="#000000ff" x="242" y="402" width="16" height="16" />
		<rect fill="#000000ff" x="242" y="434" width="16" height="16" />
		<rect fill="#000000ff" x="258" y="34" width="16" height="16" />
		<rect fill="#000000ff" x="258" y="66" width="16" height="16" />
		<rect fill="#000000ff" x="258" y="82" width="16" height="16" />
		<rect fill="#000000ff" x="258" y="178" width="16" height="16" />
		<rect fill="#000000ff" x="258" y="306" width="16" height="16" />
		<rect fill="#000000ff" x="258" y="322" width="16" height="16" />
		<rect fill="#000000ff" x="258" y="370" width="16" height="16" />
		<rect fill="#000000ff" x="258" y="386" width="16" height="16" />
		<rect fill="#000000ff" x="258" y="434" width="16" height="16" />
		<rect fill="#000000ff" x="258" y="450" width="16" height="16" />
		<rect fill="#000000ff" x="274" y="34" width="16" height="16" />
		<rect fill="#000000ff" x="274" y="50" width="16" height="16" />
		<rect fill="#000000ff" x="274" y="82" width="16" height="16" />
		<rect fill="#000000ff" x="274" y="98" width="16" height="16" />
		<rect fill="#000000ff" x="274" y="114" width="16" height="16" />
		<rect fill="#000000ff" x="274" y="130" width="16" height="16" />
		<rect fill="#000000ff" x="274" y="146" width="16" height="16" />
		<rect fill="#000000ff" x="274" y="306" width="16" height="16" />
		<rect fill="#000000ff" x="274" y="402" width="16" height="16" />
		<rect fill="#000000ff" x="274" y="434" width="16" height="16" />
		<rect fill="#000000ff" x="274" y="466" width="16" height="16" />
		<rect fill="#000000ff" x="290" y="34" width="16" height="16" />
		<rect fill="#000000ff" x="290" y="50" width="16" height="16" />
		<rect fill="#000000ff" x="290" y="98" width="16" height="16" />
		<rect fill="#000000ff" x="290" y="146" width="16" height="16" />
		<rect fill="#000000ff" x="290" y="178" width="16" height="16" />
		<rect fill="#000000ff" x="290" y="386" width="16" height="16" />
		<rect fill="#000000ff" x="290" y="402" width="16" height="16" />
		<rect fill="#000000ff" x="290" y="450" width="16" height="16" />
		<rect fill="#000000ff" x="306" y="50" width="16" height="16" />
		<rect fill="#000000ff" x="306" y="82" width="16" height="16" />
		<rect fill="#000000ff" x="306" y="98" width="16" height="16" />
		<rect fill="#000000ff" x="306" y="114" width="16" height="16" />
		<rect fill="#000000ff" x="306" y="178" width="16" height="16" />
		<rect fill="#000000ff" x="306" y="226" width="16" height="16" />
		<rect fill="#000000ff" x="306" y="242" width="16" height="16" />
		<rect fill="#000000ff" x="306" y="258" width="16" height="16" />
		<rect fill="#000000ff" x="306" y="274" width="16" height="16" />
		<rect fill="#000000ff" x="306" y="322" width="16" height="16" />
		<rect fill="#000000ff" x="306" y="338" width="16" height="16" />
		<rect fill="#000000ff" x="306" y="370" width="16" height="16" />
		<rect fill="#000000ff" x="306" y="386" width="16" height="16" />
		<rect fill="#000000ff" x="306" y="434" width="16" height="16" />
		<rect fill="#000000ff" x="306" y="466" width="16" height="16" />
		<rect fill="#000000ff" x="322" y="50" width="16" height="16" />
		<rect fill="#000000ff" x="322" y="82" width="16" height="16" />
		<rect fill="#000000ff" x="322" y="130" width="16" height="16" />
		<rect fill="#000000ff" x="322" y="146" width="16" height="16" />
		<rect fill="#000000ff" x="322" y="178" width="16" height="16" />
		<rect fill="#000000ff" x="322" y="194" width="16" height="16" />
		<rect fill="#000000ff" x="322" y="210" width="16" height="16" />
		<rect fill="#000000ff" x="322" y="258" width="16" height="16" />
		<rect fill="#000000ff" x="322" y="274" width="16" height="16" />
		<rect fill="#000000ff" x="322" y="306" width="16" height="16" />
		<rect fill="#000000ff" x="322" y="322" width="16" height="16" />
		<rect fill="#000000ff" x="322" y="338" width="16" height="16" />
		<rect fill="#000000ff" x="322" y="402" width="16" height="16" />
		<rect fill="#000000ff" x="322" y="434" width="16" height="16" />
		<rect fill="#000000ff" x="322" y="450" width="16" height="16" />
		<rect fill="#000000ff" x="322" y="466" width="16" height="16" />
		<rect fill="#000000ff" x="338" y="34" width="16" height="16" />
		<rect fill="#000000ff" x="338" y="66" width="16" height="16" />
		<rect fill="#000000ff" x="338" y="98" width="16" height="16" />
		<rect fill="#000000ff" x="338" y="114" width="16" height="16" />
		<rect fill="#000000ff" x="338" y="130" width="16" height="16" />
		<rect fill="#000000ff" x="338" y="194" width="16" height="16" />
		<rect fill="#000000ff" x="338" y="226" width="16" height="16" />
		<rect fill="#000000ff" x="338" y="258" width="16" height="16" />
		<rect fill="#000000ff" x="338" y="274" width="16" height="16" />
		<rect fill="#000000ff" x="338" y="338" width="16" height="16" />
		<rect fill="#000000ff" x="338" y="354" width="16" height="16" />
		<rect fill="#000000ff" x="338" y="370" width="16" height="16" />
		<rect fill="#000000ff" x="338" y="386" width="16" height="16" />
		<rect fill="#000000ff" x="338" y="402" width="16" height="16" />
		<rect fill="#000000ff" x="338" y="466" width="16" height="16" />
		<rect fill="#000000ff" x="354" y="194" width="16" height="16" />
		<rect fill="#000000ff" x="354" y="226" width="16" height="16" />
		<rect fill="#000000ff" x="354" y="258" width="16" height="16" />
		<rect fill="#000000ff" x="354" y="274" width="16" height="16" />
		<rect fill="#000000ff" x="354" y="306" width="16" height="16" />
		<rect fill="#000000ff" x="354" y="322" width="16" height="16" />
		<rect fill="#000000ff" x="354" y="338" width="16" height="16" />
		<rect fill="#000000ff" x="354" y="402" width="16" height="16" />
		<rect fill="#000000ff" x="354" y="418" width="16" height="16" />
		<rect fill="#000000ff" x="354" y="434" width="16" height="16" />
		<rect fill="#000000ff" x="354" y="466" width="16" height="16" />
		<rect fill="#000000ff" x="370" y="18" width="16" height="16" />
		<rect fill="#000000ff" x="370" y="34" width="16" height="16" />
		<rect fill="#000000ff" x="370" y="50" width="16" height="16" />
		<rect fill="#000000ff" x="370" y="66" width="16" height="16" />
		<rect fill="#000000ff" x="370" y="82" width="16" height="16" />
		<rect fill="#000000ff" x="370" y="98" width="16" height="16" />
		<rect fill="#000000ff" x="370" y="114" width="16" height="16" />
		<rect fill="#000000ff" x="370" y="178" width="16" height="16" />
		<rect fill="#000000ff" x="370" y="210" width="16" height="16" />
		<rect fill="#000000ff" x="370" y="242" width="16" height="16" />
		<rect fill="#000000ff" x="370" y="274" width="16" height="16" />
		<rect fill="#000000ff" x="370" y="290" width="16" height="16" />
		<rect fill="#000000ff" x="370" y="306" width="16" height="16" />
		<rect fill="#000000ff" x="370" y="338" width="16" height="16" />
		<rect fill="#000000ff" x="370" y="370" width="16" height="16" />
		<rect fill="#000000ff" x="370" y="402" width="16" height="16" />
		<rect fill="#000000ff" x="370" y="418" width="16" height="16" />
		<rect fill="#000000ff" x="370" y="450" width="16" height="16" />
		<rect fill="#000000ff" x="370" y="466" width="16" height="16" />
		<rect fill="#000000ff" x="386" y="18" width="16" height="16" />
		<rect fill="#000000ff" x="386" y="114" width="16" height="16" />
		<rect fill="#000000ff" x="386" y="146" width="16" height="16" />
		<rect fill="#000000ff" x="386" y="210" width="16" height="16" />
		<rect fill="#000000ff" x="386" y="242" width="16" height="16" />
		<rect fill="#000000ff" x="386" y="274" width="16" height="16" />
		<rect fill="#000000ff" x="386" y="290" width="16" height="16" />
		<rect fill="#000000ff" x="386" y="306" width="16" height="16" />
		<rect fill="#000000ff" x="386" y="338" width="16" height="16" />
		<rect fill="#000000ff" x="386" y="402" width="16" height="16" />
		<rect fill="#000000ff" x="386" y="418" width="16" height="16" />
		<rect fill="#000000ff" x="386" y="466" width="16" height="16" />
		<rect fill="#000000ff" x="402" y="18" width="16" height="16" />
		<rect fill="#000000ff" x="402" y="50" width="16" height="16" />
		<rect fill="#000000ff" x="402" y="66" width="16" height="16" />
		<rect fill="#000000ff" x="402" y="82" width="16" height="16" />
		<rect fill="#000000ff" x="402" y="114" width="16" height="16" />
		<rect fill="#000000ff" x="402" y="178" width="16" height="16" />
		<rect fill="#000000ff" x="402" y="210" width="16" height="16" />
		<rect fill="#000000ff" x="402" y="242" width="16" height="16" />
		<rect fill="#000000ff" x="402" y="274" width="16" height="16" />
		<rect fill="#000000ff" x="402" y="290" width="16" height="16" />
		<rect fill="#000000ff" x="402" y="306" width="16" height="16" />
		<rect fill="#000000ff" x="402" y="338" width="16" height="16" />
		<rect fill="#000000ff" x="402" y="354" width="16" height="16" />
		<rect fill="#000000ff" x="402" y="370" width="16" height="16" />
		<rect fill="#000000ff" x="402" y="386" width="16" height="16" />
		<rect fill="#000000ff" x="402" y="402" width="16" height="16" />
		<rect fill="#000000ff" x="402" y="450" width="16" height="16" />
		<rect fill="#000000ff" x="402" y="466" width="16" height="16" />
		<rect fill="#000000ff" x="418" y="18" width="16" height="16" />
		<rect fill="#000000ff" x="418" y="50" width="16" height="16" />
		<rect fill="#000000ff" x="418" y="66" width="16" height="16" />
		<rect fill="#000000ff" x="418" y="82" width="16" height="16" />
		<rect fill="#000000ff" x="418" y="114" width="16" height="16" />
		<rect fill="#000000ff" x="418" y="146" width="16" height="16" />
		<rect fill="#000000ff" x="418" y="178" width="16" height="16" />
		<rect fill="#000000ff" x="418" y="194" width="16" height="16" />
		<rect fill="#000000ff" x="418" y="210" width="16" height="16" />
		<rect fill="#000000ff" x="418" y="242" width="16" height="16" />
		<rect fill="#000000ff" x="418" y="274" width="16" height="16" />
		<rect fill="#000000ff" x="418" y="290" width="16" height="16" />
		<rect fill="#000000ff" x="418" y="306" width="16" height="16" />
		<rect fill="#000000ff" x="418" y="338" width="16" height="16" />
		<rect fill="#000000ff" x="418" y="354" width="16" height="16" />
		<rect fill="#000000ff" x="418" y="386" width="16" height="16" />
		<rect fill="#000000ff" x="418" y="418" width="16" height="16" />
		<rect fill="#000000ff" x="418" y="450" width="16" height="16" />
		<rect fill="#000000ff" x="434" y="18" width="16" height="16" />
		<rect fill="#000000ff" x="434" y="50" width="16" height="16" />
		<rect fill="#000000ff" x="434" y="66" width="16" height="16" />
		<rect fill="#000000ff" x="434" y="82" width="16" height="16" />
		<rect fill="#000000ff" x="434" y="114" width="16" height="16" />
		<rect fill="#000000ff" x="434" y="146" width="16" height="16" />
		<rect fill="#000000ff" x="434" y="162" width="16" height="16" />
		<rect fill="#000000ff" x="434" y="178" width="16" height="16" />
		<rect fill="#000000ff" x="434" y="210" width="16" height="16" />
		<rect fill="#000000ff" x="434" y="226" width="16" height="16" />
		<rect fill="#000000ff" x="434" y="242" width="16" height="16" />
		<rect fill="#000000ff" x="434" y="274" width="16" height="16" />
		<rect fill="#000000ff" x="434" y="290" width="16" height="16" />
		<rect fill="#000000ff" x="434" y="306" width="16" height="16" />
		<rect fill="#000000ff" x="434" y="322" width="16" height="16" />
		<rect fill="#000000ff" x="434" y="354" width="16" height="16" />
		<rect fill="#000000ff" x="434" y="370" width="16" height="16" />
		<rect fill="#000000ff" x="434" y="386" width="16" height="16" />
		<rect fill="#000000ff" x="434" y="418" width="16" height="16" />
		<rect fill="#000000ff" x="434" y="434" width="16" height="16" />
		<rect fill="#000000ff" x="434" y="450" width="16" height="16" />
		<rect fill="#000000ff" x="450" y="18" width="16" height="16" />
		<rect fill="#000000ff" x="450" y="114" width="16" height="16" />
		<rect fill="#000000ff" x="450" y="146" width="16" height="16" />
		<rect fill="#000000ff" x="450" y="210" width="16" height="16" />
		<rect fill="#000000ff" x="450" y="242" width="16" height="16" />
		<rect fill="#000000ff" x="450" y="258" width="16" height="16" />
		<rect fill="#000000ff" x="450" y="274" width="16" height="16" />
		<rect fill="#000000ff" x="450" y="290" width="16" height="16" />
		<rect fill="#000000ff" x="450" y="306" width="16" height="16" />
		<rect fill="#000000ff" x="450" y="322" width="16" height="16" />
		<rect fill="#000000ff" x="450" y="386" width="16" height="16" />
		<rect fill="#000000ff" x="450" y="418" width="16" height="16" />
		<rect fill="#000000ff" x="450" y="434" width="16" height="16" />
		<rect fill="#000000ff" x="450" y="466" width="16" height="16" />
		<rect fill="#000000ff" x="466" y="18" width="16" height="16" />
		<rect fill="#000000ff" x="466" y="34" width="16" height="16" />
		<rect fill="#000000ff" x="466" y="50" width="16" height="16" />
		<rect fill="#000000ff" x="466" y="66" width="16" height="16" />
		<rect fill="#000000ff" x="466" y="82" width="16" height="16" />
		<rect fill="#000000ff" x="466" y="98" width="16" height="16" />
		<rect fill="#000000ff" x="466" y="114" width="16" height="16" />
		<rect fill="#000000ff" x="466" y="146" width="16" height="16" />
		<rect fill="#000000ff" x="466" y="178" width="16" height="16" />
		<rect fill="#000000ff" x="466" y="290" width="16" height="16" />
		<rect fill="#000000ff" x="466" y="370" width="16" height="16" />
		<rect fill="#000000ff" x="466" y="402" width="16" height="16" />
		<rect fill="#000000ff" x="466" y="434" width="16" height="16" />
		<polygon points="250.0,205.0 220.0,298.99 295.0,239.0 205.0,239.0 280.0,298.99 "  style="fill:#ff0000ff;fill-rule:nonzero;" />

	</g>
</svg>