<?xml version="1.0" encoding="utf-8"?>
<svg xmlns="http://www.w3.org/2000/svg" xmlns:xlink="http://www.w3.org/1999/xlink" width="300" height="300" viewBox="0 0 300 300">

	<g id="qr">
		<rect fill="#ffffffff" x="0" y="0" width="300" height="300" />
		<rect fill="#000000ff" x="21" y="21" width="5" height="5" />
		<rect fill="#000000ff" x="21" y="28" width="5" height="5" />
		<rect fill="#000000ff" x="21" y="35" width="5" height="5" />
		<rect fill="#000000ff" x="21" y="42" width="5" height="5" />
		<rect fill="#000000ff" x="21" y="49" width="5" height="5" />
		<rect fill="#000000ff" x="21" y="56" width="5" height="5" />
		<rect fill="#000000ff" x="21" y="63" width="5" height="5" />
		<rect fill="#000000ff" x="21" y="84" width="5" height="5" />
		<rect fill="#000000ff" x="21" y="105" width="5" height="5" />
		<rect fill="#000000ff" x="21" y="147" width="5" height="5" />
		<rect fill="#000000ff" x="21" y="182" width="5" height="5" />
		<rect fill="#000000ff" x="21" y="196" width="5" height="5" />
		<rect fill="#000000ff" x="21" y="203" width="5" height="5" />
		<rect fill="#000000ff" x="21" y="210" width="5" height="5" />
		<rect fill="#000000ff" x="21" y="217" width="5" height="5" />
		<rect fill="#000000ff" x="21" y="231" width="5" height="5" />
		<rect fill="#000000ff" x="21" y="238" width="5" height="5" />
		<rect fill="#000000ff" x="21" y="245" width="5" height="5" />
		<rect fill="#000000ff" x="21" y="252" width="5" height="5" />
		<rect fill="#000000ff" x="21" y="259" width="5" height="5" />
		<rect fill="#000000ff" x="21" y="266" width="5" height="5" />
		<rect fill="#000000ff" x="21" y="273" width="5" height="5" />
		<rect fill="#000000ff" x="28" y="21" width="5" height="5" />
		<rect fill="#000000ff" x="28" y="63" width="5" height="5" />
		<rect fill="#000000ff" x="28" y="119" width="5" height="5" />
		<rect fill="#000000ff" x="28" y="126" width="5" height="5" />
		<rect fill="#000000ff" x="28" y="147" width="5" height="5" />
		<rect fill="#000000ff" x="28" y="175" width="5" height="5" />
		<rect fill="#000000ff" x="28" y="182" width="5" height="5" />
		<rect fill="#000000ff" x="28" y="196" width="5" height="5" />
		<rect fill="#000000ff" x="28" y="231" width="5" height="5" />
		<rect fill="#000000ff" x="28" y="273" width="5" height="5" />
		<rect fill="#000000ff" x="35" y="21" width="5" height="5" />
		<rect fill="#000000ff" x="35" y="35" width="5" height="5" />
		<rect fill="#000000ff" x="35" y="42" width="5" height="5" />
		<rect fill="#000000ff" x="35" y="49" width="5" height="5" />
		<rect fill="#000000ff" x="35" y="63" width="5" height="5" />
		<rect fill="#000000ff" x="35" y="77" width="5" height="5" />
		<rect fill="#000000ff" x="35" y="91" width="5" height="5" />
		<rect fill="#000000ff" x="35" y="105" width="5" height="5" />
		<rect fill="#000000ff" x="35" y="119" width="5" height="5" />
		<rect fill="#000000ff" x="35" y="140" width="5" height="5" />
		<rect fill="#000000ff" x="35" y="154" width="5" height="5" />
		<rect fill="#000000ff" x="35" y="161" width="5" height="5" />
		<rect fill="#000000ff" x="35" y="168" width="5" height="5" />
		<rect fill="#000000ff" x="35" y="175" width="5" height="5" />
		<rect fill="#000000ff" x="35" y="203" width="5" height="5" />
		<rect fill="#000000ff" x="35" y="210" width="5" height="5" />
		<rect fill="#000000ff" x="35" y="217" width="5" height="5" />
		<rect fill="#000000ff" x="35" y="231" width="5" height="5" />
		<rect fill="#000000ff" x="35" y="245" width="5" height="5" />
		<rect fill="#000000ff" x="35" y="252" width="5" height="5" />
		<rect fill="#000000ff" x="35" y="259" width="5" height="5" />
		<rect fill="#000000ff" x="35" y="273" width="5" height="5" />
		<rect fill="#000000ff" x="42" y="21" width="5" height="5" />
		<rect fill="#000000ff" x="42" y="35" width="5" height="5" />
		<rect fill="#000000ff" x="42" y="42" width="5" height="5" />
		<rect fill="#000000ff" x="42" y="49" width="5" height="5" />
		<rect fill="#000000ff" x="42" y="63" width="5" height="5" />
		<rect fill="#000000ff" x="42" y="77" width="5" height="5" />
		<rect fill="#000000ff" x="42" y="105" width="5" height="5" />
		<rect fill="#000000ff" x="42" y="112" width="5" height="5" />
		<rect fill="#000000ff" x="42" y="119" width="5" height="5" />
		<rect fill="#000000ff" x="42" y="126" width="5" height="5" />
		<rect fill="#000000ff" x="42" y="140" width="5" height="5" />
		<rect fill="#000000ff" x="42" y="147" width="5" height="5" />
		<rect fill="#000000ff" x="42" y="161" width="5" height="5" />
		<rect fill="#000000ff" x="42" y="196" width="5" height="5" />
		<rect fill="#000000ff" x="42" y="210" width="5" height="5" />
		<rect fill="#000000ff" x="42" y="231" width="5" height="5" />
		<rect fill="#000000ff" x="42" y="245" width="5" height="5" />
		<rect fill="#000000ff" x="42" y="252" width="5" height="5" />
		<rect fill="#000000ff" x="42" y="259" width="5" height="5" />
		<rect fill="#000000ff" x="42" y="273" width="5" height="5" />
		<rect fill="#000000ff" x="49" y="21" width="5" height="5" />
		<rect fill="#000000ff" x="49" y="35" width="5" height="5" />
		<rect fill="#000000ff" x="49" y="42" width="5" height="5" />
		<rect fill="#000000ff" x="49" y="49" width="5" height="5" />
		<rect fill="#000000ff" x="49" y="63" width="5" height="5" />
		<rect fill="#000000ff" x="49" y="77" width="5" height="5" />
		<rect fill="#000000ff" x="49" y="84" width="5" height="5" />
		<rect fill="#000000ff" x="49" y="91" width="5" height="5" />
		<rect fill="#000000ff" x="49" y="98" width="5" height="5" />
		<rect fill="#000000ff" x="49" y="105" width="5" height="5" />
		<rect fill="#000000ff" x="49" y="112" width="5" height="5" />
		<rect fill="#000000ff" x="49" y="119" width="5" height="5" />
		<rect fill="#000000ff" x="49" y="126" width="5" height="5" />
		<rect fill="#000000ff" x="49" y="140" width="5" height="5" />
		<rect fill="#000000ff" x="49" y="175" width="5" height="5" />
		<rect fill="#000000ff" x="49" y="196" width="5" height="5" />
		<rect fill="#000000ff" x="49" y="203" width="5" height="5" />
		<rect fill="#000000ff" x="49" y="210" width="5" height="5" />
		<rect fill="#000000ff" x="49" y="217" width="5" height="5" />
		<rect fill="#000000ff" x="49" y="231" width="5" height="5" />
		<rect fill="#000000ff" x="49" y="245" width="5" height="5" />
		<rect fill="#000000ff" x="49" y="252" width="5" height="5" />
		<rect fill="#000000ff" x="49" y="259" width="5" height="5" />
		<rect fill="#000000ff" x="49" y="273" width="5" height="5" />
		<rect fill="#000000ff" x="56" y="21" width="5" height="5" />
		<rect fill="#000000ff" x="56" y="63" width="5" height="5" />
		<rect fill="#000000ff" x="56" y="91" width="5" height="5" />
		<rect fill="#000000ff" x="56" y="98" width="5" height="5" />
		<rect fill="#000000ff" x="56" y="112" width="5" height="5" />
		<rect fill="#000000ff" x="56" y="119" width="5" height="5" />
		<rect fill="#000000ff" x="56" y="126" width="5" height="5" />
		<rect fill="#000000ff" x="56" y="133" width="5" height="5" />
		<rect fill="#000000ff" x="56" y="140" width="5" height="5" />
		<rect fill="#000000ff" x="56" y="168" width="5" height="5" />
		<rect fill="#000000ff" x="56" y="182" width="5" height="5" />
		<rect fill="#000000ff" x="56" y="196" width="5" height="5" />
		<rect fill="#000000ff" x="56" y="231" width="5" height="5" />
		<rect fill="#000000ff" x="56" y="273" width="5" height="5" />
		<rect fill="#000000ff" x="63" y="21" width="5" height="5" />
		<rect fill="#000000ff" x="63" y="28" width="5" height="5" />
		<rect fill="#000000ff" x="63" y="35" width="5" height="5" />
		<rect fill="#000000ff" x="63" y="42" width="5" height="5" />
		<rect fill="#000000ff" x="63" y="49" width="5" height="5" />
		<rect fill="#000000ff" x="63" y="56" width="5" height="5" />
		<rect fill="#000000ff" x="63" y="63" width="5" height="5" />
		<rect fill="#000000ff" x="63" y="77" width="5" height="5" />
		<rect fill="#000000ff" x="63" y="91" width="5" height="5" />
		<rect fill="#000000ff" x="63" y="105" width="5" height="5" />
		<rect fill="#000000ff" x="63" y="119" width="5" height="5" />
		<rect fill="#000000ff" x="63" y="133" width="5" height="5" />
		<rect fill="#000000ff" x="63" y="147" width="5" height="5" />
		<rect fill="#000000ff" x="63" y="161" width="5" height="5" />
		<rect fill="#000000ff" x="63" y="175" width="5" height="5" />
		<rect fill="#000000ff" x="63" y="189" width="5" height="5" />
		<rect fill="#000000ff" x="63" y="203" width="5" height="5" />
		<rect fill="#000000ff" x="63" y="217" width="5" height="5" />
		<rect fill="#000000ff" x="63" y="231" width="5" height="5" />
		<rect fill="#000000ff" x="63" y="238" width="5" height="5" />
		<rect fill="#000000ff" x="63" y="245" width="5" height="5" />
		<rect fill="#000000ff" x="63" y="252" width="5" height="5" />
		<rect fill="#000000ff" x="63" y="259" width="5" height="5" />
		<rect fill="#000000ff" x="63" y="266" width="5" height="5" />
		<rect fill="#000000ff" x="63" y="273" width="5" height="5" />
		<rect fill="#000000ff" x="70" y="91" width="5" height="5" />
		<rect fill="#000000ff" x="70" y="126" width="5" height="5" />
		<rect fill="#000000ff" x="70" y="147" width="5" height="5" />
		<rect fill="#000000ff" x="70" y="161" width="5" height="5" />
		<rect fill="#000000ff" x="70" y="182" width="5" height="5" />
		<rect fill="#000000ff" x="70" y="196" width="5" height="5" />
		<rect fill="#000000ff" x="70" y="210" width="5" height="5" />
		<rect fill="#000000ff" x="70" y="217" width="5" height="5" />
		<rect fill="#000000ff" x="77" y="21" width="5" height="5" />
		<rect fill="#000000ff" x="77" y="28" width="5" height="5" />
		<rect fill="#000000ff" x="77" y="35" width="5" height="5" />
		<rect fill="#000000ff" x="77" y="56" width="5" height="5" />
		<rect fill="#000000ff" x="77" y="63" width="5" height="5" />
		<rect fill="#000000ff" x="77" y="70" width="5" height="5" />
		<rect fill="#000000ff" x="77" y="77" width="5" height="5" />
		<rect fill="#000000ff" x="77" y="91" width="5" height="5" />
		<rect fill="#000000ff" x="77" y="105" width="5" height="5" />
		<rect fill="#000000ff" x="77" y="119" width="5" height="5" />
		<rect fill="#000000ff" x="77" y="126" width="5" height="5" />
		<rect fill="#000000ff" x="77" y="133" width="5" height="5" />
		<rect fill="#000000ff" x="77" y="140" width="5" height="5" />
		<rect fill="#000000ff" x="77" y="147" width="5" height="5" />
		<rect fill="#000000ff" x="77" y="154" width="5" height="5" />
		<rect fill="#000000ff" x="77" y="189" width="5" height="5" />
		<rect fill="#000000ff" x="77" y="196" width="5" height="5" />
		<rect fill="#000000ff" x="77" y="203" width="5" height="5" />
		<rect fill="#000000ff" x="77" y="217" width="5" height="5" />
		<rect fill="#000000ff" x="77" y="224" width="5" height="5" />
		<rect fill="#000000ff" x="77" y="245" width="5" height="5" />
		<rect fill="#000000ff" x="77" y="252" width="5" height="5" />
		<rect fill="#000000ff" x="77" y="259" width="5" height="5" />
		<rect fill="#000000ff" x="84" y="35" width="5" height="5" />
		<rect fill="#000000ff" x="84" y="56" width="5" height="5" />
		<rect fill="#000000ff" x="84" y="70" width="5" height="5" />
		<rect fill="#000000ff" x="84" y="84" width="5" height="5" />
		<rect fill="#000000ff" x="84" y="91" width="5" height="5" />
		<rect fill="#000000ff" x="84" y="98" width="5" height="5" />
		<rect fill="#000000ff" x="84" y="105" width="5" height="5" />
		<rect fill="#000000ff" x="84" y="119" width="5" height="5" />
		<rect fill="#000000ff" x="84" y="126" width="5" height="5" />
		<rect fill="#000000ff" x="84" y="147" width="5" height="5" />
		<rect fill="#000000ff" x="84" y="161" width="5" height="5" />
		<rect fill="#000000ff" x="84" y="168" width="5" height="5" />
		<rect fill="#000000ff" x="84" y="175" width="5" height="5" />
		<rect fill="#000000ff" x="84" y="182" width="5" height="5" />
		<rect fill="#000000ff" x="84" y="189" width="5" height="5" />
		<rect fill="#000000ff" x="84" y="196" width="5" height="5" />
		<rect fill="#000000ff" x="84" y="224" width="5" height="5" />
		<rect fill="#000000ff" x="84" y="245" width="5" height="5" />
		<rect fill="#000000ff" x="91" y="28" width="5" height="5" />
		<rect fill="#000000ff" x="91" y="35" width="5" height="5" />
		<rect fill="#000000ff" x="91" y="42" width="5" height="5" />
		<rect fill="#000000ff" x="91" y="49" width="5" height="5" />
		<rect fill="#000000ff" x="91" y="56" width="5" height="5" />
		<rect fill="#000000ff" x="91" y="63" width="5" height="5" />
		<rect fill="#000000ff" x="91" y="70" width="5" height="5" />
		<rect fill="#000000ff" x="91" y="77" width="5" height="5" />
		<rect fill="#000000ff" x="91" y="91" width="5" height="5" />
		<rect fill="#000000ff" x="91" y="98" width="5" height="5" />
		<rect fill="#000000ff" x="91" y="105" width="5" height="5" />
		<rect fill="#000000ff" x="91" y="112" width="5" height="5" />
		<rect fill="#000000ff" x="91" y="126" width="5" height="5" />
		<rect fill="#000000ff" x="91" y="133" width="5" height="5" />
		<rect fill="#000000ff" x="91" y="147" width="5" height="5" />
		<rect fill="#000000ff" x="91" y="154" width="5" height="5" />
		<rect fill="#000000ff" x="91" y="175" width="5" height="5" />
		<rect fill="#000000ff" x="91" y="189" width="5" height="5" />
		<rect fill="#000000ff" x="91" y="196" width="5" height="5" />
		<rect fill="#000000ff" x="91" y="217" width="5" height="5" />
		<rect fill="#000000ff" x="91" y="224" width="5" height="5" />
		<rect fill="#000000ff" x="91" y="231" width="5" height="5" />
		<rect fill="#000000ff" x="91" y="238" width="5" height="5" />
		<rect fill="#000000ff" x="91" y="252" width="5" height="5" />
		<rect fill="#000000ff" x="91" y="266" width="5" height="5" />
		<rect fill="#000000ff" x="98" y="35" width="5" height="5" />
		<rect fill="#000000ff" x="98" y="42" width="5" height="5" />
		<rect fill="#000000ff" x="98" y="49" width="5" height="5" />
		<rect fill="#000000ff" x="98" y="70" width="5" height="5" />
		<rect fill="#000000ff" x="98" y="77" width="5" height="5" />
		<rect fill="#000000ff" x="98" y="91" width="5" height="5" />
		<rect fill="#000000ff" x="98" y="112" width="5" height="5" />
		<rect fill="#000000ff" x="98" y="119" width="5" height="5" />
		<rect fill="#000000ff" x="98" y="126" width="5" height="5" />
		<rect fill="#000000ff" x="98" y="154" width="5" height="5" />
		<rect fill="#000000ff" x="98" y="168" width="5" height="5" />
		<rect fill="#000000ff" x="98" y="196" width="5" height="5" />
		<rect fill="#000000ff" x="98" y="203" width="5" height="5" />
		<rect fill="#000000ff" x="98" y="217" width="5" height="5" />
		<rect fill="#000000ff" x="98" y="224" width="5" height="5" />
		<rect fill="#000000ff" x="105" y="28" width="5" height="5" />
		<rect fill="#000000ff" x="105" y="35" width="5" height="5" />
		<rect fill="#000000ff" x="105" y="42" width="5" height="5" />
		<rect fill="#000000ff" x="105" y="49" width="5" height="5" />
		<rect fill="#000000ff" x="105" y="63" width="5" height="5" />
		<rect fill="#000000ff" x="105" y="70" width="5" height="5" />
		<rect fill="#000000ff" x="105" y="77" width="5" height="5" />
		<rect fill="#000000ff" x="105" y="84" width="5" height="5" />
		<rect fill="#000000ff" x="105" y="112" width="5" height="5" />
		<rect fill="#000000ff" x="105" y="119" width="5" height="5" />
		<rect fill="#000000ff" x="105" y="126" width="5" height="5" />
		<rect fill="#000000ff" x="105" y="147" width="5" height="5" />
		<rect fill="#000000ff" x="105" y="175" width="5" height="5" />
		<rect fill="#000000ff" x="105" y="182" width="5" height="5" />
		<rect fill="#000000ff" x="105" y="189" width="5" height="5" />
		<rect fill="#000000ff" x="105" y="217" width="5" height="5" />
		<rect fill="#000000ff" x="105" y="231" width="5" height="5" />
		<rect fill="#000000ff" x="105" y="245" width="5" height="5" />
		<rect fill="#000000ff" x="105" y="252" width="5" height="5" />
		<rect fill="#000000ff" x="105" y="259" width="5" height="5" />
		<rect fill="#000000ff" x="105" y="266" width="5" height="5" />
		<rect fill="#000000ff" x="105" y="273" width="5" height="5" />
		<rect fill="#000000ff" x="112" y="49" width="5" height="5" />
		<rect fill="#000000ff" x="112" y="77" width="5" height="5" />
		<rect fill="#000000ff" x="112" y="84" width="5" height="5" />
		<rect fill="#000000ff" x="112" y="98" width="5" height="5" />
		<rect fill="#000000ff" x="112" y="105" width="5" height="5" />
		<rect fill="#000000ff" x="112" y="126" width="5" height="5" />
		<rect fill="#000000ff" x="112" y="133" width="5" height="5" />
		<rect fill="#000000ff" x="112" y="147" width="5" height="5" />
		<rect fill="#000000ff" x="112" y="154" width="5" height="5" />
		<rect fill="#000000ff" x="112" y="161" width="5" height="5" />
		<rect fill="#000000ff" x="112" y="168" width="5" height="5" />
		<rect fill="#000000ff" x="112" y="175" width="5" height="5" />
		<rect fill="#000000ff" x="112" y="182" width="5" height="5" />
		<rect fill="#000000ff" x="112" y="189" width="5" height="5" />
		<rect fill="#000000ff" x="112" y="210" width="5" height="5" />
		<rect fill="#000000ff" x="112" y="238" width="5" height="5" />
		<rect fill="#000000ff" x="112" y="245" width="5" height="5" />
		<rect fill="#000000ff" x="112" y="259" width="5" height="5" />
		<rect fill="#000000ff" x="112" y="273" width="5" height="5" />
		<rect fill="#000000ff" x="119" y="35" width="5" height="5" />
		<rect fill="#000000ff" x="119" y="42" width="5" height="5" />
		<rect fill="#000000ff" x="119" y="56" width="5" height="5" />
		<rect fill="#000000ff" x="119" y="63" width="5" height="5" />
		<rect fill="#000000ff" x="119" y="70" width="5" height="5" />
		<rect fill="#000000ff" x="119" y="84" width="5" height="5" />
		<rect fill="#000000ff" x="119" y="105" width="5" height="5" />
		<rect fill="#000000ff" x="119" y="112" width="5" height="5" />
		<rect fill="#000000ff" x="119" y="119" width="5" height="5" />
		<rect fill="#000000ff" x="119" y="126" width="5" height="5" />
		<rect fill="#000000ff" x="119" y="140" width="5" height="5" />
		<rect fill="#000000ff" x="119" y="175" width="5" height="5" />
		<rect fill="#000000ff" x="119" y="189" width="5" height="5" />
		<rect fill="#000000ff" x="119" y="196" width="5" height="5" />
		<rect fill="#000000ff" x="119" y="203" width="5" height="5" />
		<rect fill="#000000ff" x="119" y="224" width="5" height="5" />
		<rect fill="#000000ff" x="119" y="245" width="5" height="5" />
		<rect fill="#000000ff" x="119" y="252" width="5" height="5" />
		<rect fill="#000000ff" x="119" y="273" width="5" height="5" />
		<rect fill="#000000ff" x="126" y="21" width="5" height="5" />
		<rect fill="#000000ff" x="126" y="35" width="5" height="5" />
		<rect fill="#000000ff" x="126" y="77" width="5" height="5" />
		<rect fill="#000000ff" x="126" y="84" width="5" height="5" />
		<rect fill="#000000ff" x="126" y="91" width="5" height="5" />
		<rect fill="#000000ff" x="126" y="105" width="5" height="5" />
		<rect fill="#000000ff" x="126" y="119" width="5" height="5" />
		<rect fill="#000000ff" x="126" y="126" width="5" height="5" />
		<rect fill="#000000ff" x="126" y="133" width="5" height="5" />
		<rect fill="#000000ff" x="126" y="147" width="5" height="5" />
		<rect fill="#000000ff" x="126" y="161" width="5" height="5" />
		<rect fill="#000000ff" x="126" y="175" width="5" height="5" />
		<rect fill="#000000ff" x="126" y="182" width="5" height="5" />
		<rect fill="#000000ff" x="126" y="203" width="5" height="5" />
		<rect fill="#000000ff" x="126" y="210" width="5" height="5" />
		<rect fill="#000000ff" x="126" y="238" width="5" height="5" />
		<rect fill="#000000ff" x="126" y="259" width="5" height="5" />
		<rect fill="#000000ff" x="133" y="35" width="5" height="5" />
		<rect fill="#000000ff" x="133" y="63" width="5" height="5" />
		<rect fill="#000000ff" x="133" y="77" width="5" height="5" />
		<rect fill="#000000ff" x="133" y="112" width="5" height="5" />
		<rect fill="#000000ff" x="133" y="126" width="5" height="5" />
		<rect fill="#000000ff" x="133" y="133" width="5" height="5" />
		<rect fill="#000000ff" x="133" y="147" width="5" height="5" />
		<rect fill="#000000ff" x="133" y="154" width="5" height="5" />
		<rect fill="#000000ff" x="133" y="161" width="5" height="5" />
		<rect fill="#000000ff" x="133" y="168" width="5" height="5" />
		<rect fill="#000000ff" x="133" y="175" width="5" height="5" />
		<rect fill="#000000ff" x="133" y="196" width="5" height="5" />
		<rect fill="#000000ff" x="133" y="217" width="5" height="5" />
		<rect fill="#000000ff" x="133" y="224" width="5" height="5" />
		<rect fill="#000000ff" x="133" y="231" width="5" height="5" />
		<rect fill="#000000ff" x="133" y="245" width="5" height="5" />
		<rect fill="#000000ff" x="133" y="273" width="5" height="5" />
		<rect fill="#000000ff" x="140" y="28" width="5" height="5" />
		<rect fill="#000000ff" x="140" y="56" width="5" height="5" />
		<rect fill="#000000ff" x="140" y="70" width="5" height="5" />
		<rect fill="#000000ff" x="140" y="105" width="5" height="5" />
		<rect fill="#000000ff" x="140" y="119" width="5" height="5" />
		<rect fill="#000000ff" x="140" y="126" width="5" height="5" />
		<rect fill="#000000ff" x="140" y="133" width="5" height="5" />
		<rect fill="#000000ff" x="140" y="140" width="5" height="5" />
		<rect fill="#000000ff" x="140" y="168" width="5" height="5" />
		<rect fill="#000000ff" x="140" y="175" width="5" height="5" />
		<rect fill="#000000ff" x="140" y="182" width="5" height="5" />
		<rect fill="#000000ff" x="140" y="189" width="5" height="5" />
		<rect fill="#000000ff" x="140" y="203" width="5" height="5" />
		<rect fill="#000000ff" x="140" y="210" width="5" height="5" />
		<rect fill="#000000ff" x="140" y="217" width="5" height="5" />
		<rect fill="#000000ff" x="140" y="224" width="5" height="5" />
		<rect fill="#000000ff" x="140" y="245" width="5" height="5" />
		<rect fill="#000000ff" x="147" y="28" width="5" height="5" />
		<rect fill="#000000ff" x="147" y="42" width="5" height="5" />
		<rect fill="#000000ff" x="147" y="56" width="5" height="5" />
		<rect fill="#000000ff" x="147" y="63" width="5" height="5" />
		<rect fill="#000000ff" x="147" y="77" width="5" height="5" />
		<rect fill="#000000ff" x="147" y="91" width="5" height="5" />
		<rect fill="#000000ff" x="147" y="98" width="5" height="5" />
		<rect fill="#000000ff" x="147" y="126" width="5" height="5" />
		<rect fill="#000000ff" x="147" y="133" width="5" height="5" />
		<rect fill="#000000ff" x="147" y="182" width="5" height="5" />
		<rect fill="#000000ff" x="147" y="203" width="5" height="5" />
		<rect fill="#000000ff" x="147" y="210" width="5" height="5" />
		<rect fill="#000000ff" x="147" y="217" width="5" height="5" />
		<rect fill="#000000ff" x="147" y="224" width="5" height="5" />
		<rect fill="#000000ff" x="147" y="231" width="5" height="5" />
		<rect fill="#000000ff" x="147" y="252" width="5" height="5" />
		<rect fill="#000000ff" x="147" y="259" width="5" height="5" />
		<rect fill="#000000ff" x="147" y="266" width="5" height="5" />
		<rect fill="#000000ff" x="154" y="28" width="5" height="5" />
		<rect fill="#000000ff" x="154" y="42" width="5" height="5" />
		<rect fill="#000000ff" x="154" y="49" width="5" height="5" />
		<rect fill="#000000ff" x="154" y="84" width="5" height="5" />
		<rect fill="#000000ff" x="154" y="91" width="5" height="5" />
		<rect fill="#000000ff" x="154" y="98" width="5" height="5" />
		<rect fill="#000000ff" x="154" y="168" width="5" height="5" />
		<rect fill="#000000ff" x="154" y="175" width="5" height="5" />
		<rect fill="#000000ff" x="154" y="189" width="5" height="5" />
		<rect fill="#000000ff" x="154" y="203" width="5" height="5" />
		<rect fill="#000000ff" x="154" y="210" width="5" height="5" />
		<rect fill="#000000ff" x="154" y="217" width="5" height="5" />
		<rect fill="#000000ff" x="154" y="231" width="5" height="5" />
		<rect fill="#000000ff" x="154" y="238" width="5" height="5" />
		<rect fill="#000000ff" x="154" y="245" width="5" height="5" />
		<rect fill="#000000ff" x="154" y="259" width="5" height="5" />
		<rect fill="#000000ff" x="154" y="273" width="5" height="5" />
		<rect fill="#000000ff" x="161" y="28" width="5" height="5" />
		<rect fill="#000000ff" x="161" y="42" width="5" height="5" />
		<rect fill="#000000ff" x="161" y="56" width="5" height="5" />
		<rect fill="#000000ff" x="161" y="63" width="5" height="5" />
		<rect fill="#000000ff" x="161" y="70" width="5" height="5" />
		<rect fill="#000000ff" x="161" y="105" width="5" height="5" />
		<rect fill="#000000ff" x="161" y="147" width="5" height="5" />
		<rect fill="#000000ff" x="161" y="154" width="5" height="5" />
		<rect fill="#000000ff" x="161" y="161" width="5" height="5" />
		<rect fill="#000000ff" x="161" y="168" width="5" height="5" />
		<rect fill="#000000ff" x="161" y="217" width="5" height="5" />
		<rect fill="#000000ff" x="161" y="266" width="5" height="5" />
		<rect fill="#000000ff" x="168" y="21" width="5" height="5" />
		<rect fill="#000000ff" x="168" y="35" width="5" height="5" />
		<rect fill="#000000ff" x="168" y="49" width="5" height="5" />
		<rect fill="#000000ff" x="168" y="56" width="5" height="5" />
		<rect fill="#000000ff" x="168" y="70" width="5" height="5" />
		<rect fill="#000000ff" x="168" y="77" width="5" height="5" />
		<rect fill="#000000ff" x="168" y="105" width="5" height="5" />
		<rect fill="#000000ff" x="168" y="119" width="5" height="5" />
		<rect fill="#000000ff" x="168" y="133" width="5" height="5" />
		<rect fill="#000000ff" x="168" y="140" width="5" height="5" />
		<rect fill="#000000ff" x="168" y="154" width="5" height="5" />
		<rect fill="#000000ff" x="168" y="161" width="5" height="5" />
		<rect fill="#000000ff" x="168" y="168" width="5" height="5" />
		<rect fill="#000000ff" x="168" y="182" width="5" height="5" />
		<rect fill="#000000ff" x="168" y="189" width="5" height="5" />
		<rect fill="#000000ff" x="168" y="203" width="5" height="5" />
		<rect fill="#000000ff" x="168" y="210" width="5" height="5" />
		<rect fill="#000000ff" x="168" y="217" width="5" height="5" />
		<rect fill="#000000ff" x="168" y="238" width="5" height="5" />
		<rect fill="#000000ff" x="168" y="245" width="5" height="5" />
		<rect fill="#000000ff" x="168" y="259" width="5" height="5" />
		<rect fill="#000000ff" x="168" y="266" width="5" height="5" />
		<rect fill="#000000ff" x="175" y="42" width="5" height="5" />
		<rect fill="#000000ff" x="175" y="49" width="5" height="5" />
		<rect fill="#000000ff" x="175" y="63" width="5" height="5" />
		<rect fill="#000000ff" x="175" y="105" width="5" height="5" />
		<rect fill="#000000ff" x="175" y="112" width="5" height="5" />
		<rect fill="#000000ff" x="175" y="126" width="5" height="5" />
		<rect fill="#000000ff" x="175" y="140" width="5" height="5" />
		<rect fill="#000000ff" x="175" y="182" width="5" height="5" />
		<rect fill="#000000ff" x="175" y="189" width="5" height="5" />
		<rect fill="#000000ff" x="175" y="245" width="5" height="5" />
		<rect fill="#000000ff" x="175" y="266" width="5" height="5" />
		<rect fill="#000000ff" x="175" y="273" width="5" height="5" />
		<rect fill="#000000ff" x="182" y="21" width="5" height="5" />
		<rect fill="#000000ff" x="182" y="28" width="5" height="5" />
		<rect fill="#000000ff" x="182" y="42" width="5" height="5" />
		<rect fill="#000000ff" x="182" y="84" width="5" height="5" />
		<rect fill="#000000ff" x="182" y="98" width="5" height="5" />
		<rect fill="#000000ff" x="182" y="105" width="5" height="5" />
		<rect fill="#000000ff" x="182" y="119" width="5" height="5" />
		<rect fill="#000000ff" x="182" y="126" width="5" height="5" />
		<rect fill="#000000ff" x="182" y="133" width="5" height="5" />
		<rect fill="#000000ff" x="182" y="140" width="5" height="5" />
		<rect fill="#000000ff" x="182" y="168" width="5" height="5" />
		<rect fill="#000000ff" x="182" y="175" width="5" height="5" />
		<rect fill="#000000ff" x="182" y="189" width="5" height="5" />
		<rect fill="#000000ff" x="182" y="203" width="5" height="5" />
		<rect fill="#000000ff" x="182" y="252" width="5" height="5" />
		<rect fill="#000000ff" x="182" y="259" width="5" height="5" />
		<rect fill="#000000ff" x="182" y="266" width="5" height="5" />
		<rect fill="#000000ff" x="189" y="21" width="5" height="5" />
		<rect fill="#000000ff" x="189" y="42" width="5" height="5" />
		<rect fill="#000000ff" x="189" y="49" width="5" height="5" />
		<rect fill="#000000ff" x="189" y="63" width="5" height="5" />
		<rect fill="#000000ff" x="189" y="98" width="5" height="5" />
		<rect fill="#000000ff" x="189" y="119" width="5" height="5" />
		<rect fill="#000000ff" x="189" y="126" width="5" height="5" />
		<rect fill="#000000ff" x="189" y="133" width="5" height="5" />
		<rect fill="#000000ff" x="189" y="140" width="5" height="5" />
		<rect fill="#000000ff" x="189" y="154" width="5" height="5" />
		<rect fill="#000000ff" x="189" y="168" width="5" height="5" />
		<rect fill="#000000ff" x="189" y="182" width="5" height="5" />
		<rect fill="#000000ff" x="189" y="189" width="5" height="5" />
		<rect fill="#000000ff" x="189" y="196" width="5" height="5" />
		<rect fill="#000000ff" x="189" y="203" width="5" height="5" />
		<rect fill="#000000ff" x="189" y="231" width="5" height="5" />
		<rect fill="#000000ff" x="189" y="259" width="5" height="5" />
		<rect fill="#000000ff" x="189" y="273" width="5" height="5" />
		<rect fill="#000000ff" x="196" y="28" width="5" height="5" />
		<rect fill="#000000ff" x="196" y="56" width="5" height="5" />
		<rect fill="#000000ff" x="196" y="70" width="5" height="5" />
		<rect fill="#000000ff" x="196" y="91" width="5" height="5" />
		<rect fill="#000000ff" x="196" y="98" width="5" height="5" />
		<rect fill="#000000ff" x="196" y="105" width="5" height="5" />
		<rect fill="#000000ff" x="196" y="119" width="5" height="5" />
		<rect fill="#000000ff" x="196" y="133" width="5" height="5" />
		<rect fill="#000000ff" x="196" y="175" width="5" height="5" />
		<rect fill="#000000ff" x="196" y="189" width="5" height="5" />
		<rect fill="#000000ff" x="196" y="203" width="5" height="5" />
		<rect fill="#000000ff" x="196" y="217" width="5" height="5" />
		<rect fill="#000000ff" x="196" y="231" width="5" height="5" />
		<rect fill="#000000ff" x="196" y="238" width="5" height="5" />
		<rect fill="#000000ff" x="196" y="245" width="5" height="5" />
		<rect fill="#000000ff" x="203" y="28" width="5" height="5" />
		<rect fill="#000000ff" x="203" y="49" width="5" height="5" />
		<rect fill="#000000ff" x="203" y="63" width="5" height="5" />
		<rect fill="#000000ff" x="203" y="70" width="5" height="5" />
		<rect fill="#000000ff" x="203" y="84" width="5" height="5" />
		<rect fill="#000000ff" x="203" y="105" width="5" height="5" />
		<rect fill="#000000ff" x="203" y="112" width="5" height="5" />
		<rect fill="#000000ff" x="203" y="119" width="5" height="5" />
		<rect fill="#000000ff" x="203" y="140" width="5" height="5" />
		<rect fill="#000000ff" x="203" y="147" width="5" height="5" />
		<rect fill="#000000ff" x="203" y="168" width="5" height="5" />
		<rect fill="#000000ff" x="203" y="182" width="5" height="5" />
		<rect fill="#000000ff" x="203" y="196" width="5" height="5" />
		<rect fill="#000000ff" x="203" y="203" width="5" height="5" />
		<rect fill="#000000ff" x="203" y="210" width="5" height="5" />
		<rect fill="#000000ff" x="203" y="217" width="5" height="5" />
		<rect fill="#000000ff" x="203" y="224" width="5" height="5" />
		<rect fill="#000000ff" x="203" y="231" width="5" height="5" />
		<rect fill="#000000ff" x="203" y="245" width="5" height="5" />
		<rect fill="#000000ff" x="203" y="252" width="5" height="5" />
		<rect fill="#000000ff" x="203" y="259" width="5" height="5" />
		<rect fill="#000000ff" x="203" y="266" width="5" height="5" />
		<rect fill="#000000ff" x="210" y="42" width="5" height="5" />
		<rect fill="#000000ff" x="210" y="77" width="5" height="5" />
		<rect fill="#000000ff" x="210" y="84" width="5" height="5" />
		<rect fill="#000000ff" x="210" y="98" width="5" height="5" />
		<rect fill="#000000ff" x="210" y="105" width="5" height="5" />
		<rect fill="#000000ff" x="210" y="119" width="5" height="5" />
		<rect fill="#000000ff" x="210" y="133" width="5" height="5" />
		<rect fill="#000000ff" x="210" y="140" width="5" height="5" />
		<rect fill="#000000ff" x="210" y="147" width="5" height="5" />
		<rect fill="#000000ff" x="210" y="161" width="5" height="5" />
		<rect fill="#000000ff" x="210" y="189" width="5" height="5" />
		<rect fill="#000000ff" x="210" y="203" width="5" height="5" />
		<rect fill="#000000ff" x="210" y="217" width="5" height="5" />
		<rect fill="#000000ff" x="210" y="231" width="5" height="5" />
		<rect fill="#000000ff" x="210" y="238" width="5" height="5" />
		<rect fill="#000000ff" x="210" y="259" width="5" height="5" />
		<rect fill="#000000ff" x="210" y="273" width="5" height="5" />
		<rect fill="#000000ff" x="217" y="21" width="5" height="5" />
		<rect fill="#000000ff" x="217" y="42" width="5" height="5" />
		<rect fill="#000000ff" x="217" y="49" width="5" height="5" />
		<rect fill="#000000ff" x="217" y="63" width="5" height="5" />
		<rect fill="#000000ff" x="217" y="84" width="5" height="5" />
		<rect fill="#000000ff" x="217" y="98" width="5" height="5" />
		<rect fill="#000000ff" x="217" y="105" width="5" height="5" />
		<rect fill="#000000ff" x="217" y="112" width="5" height="5" />
		<rect fill="#000000ff" x="217" y="119" width="5" height="5" />
		<rect fill="#000000ff" x="217" y="126" width="5" height="5" />
		<rect fill="#000000ff" x="217" y="133" width="5" height="5" />
		<rect fill="#000000ff" x="217" y="147" width="5" height="5" />
		<rect fill="#000000ff" x="217" y="154" width="5" height="5" />
		<rect fill="#000000ff" x="217" y="175" width="5" height="5" />
		<rect fill="#000000ff" x="217" y="189" width="5" height="5" />
		<rect fill="#000000ff" x="217" y="210" width="5" height="5" />
		<rect fill="#000000ff" x="217" y="217" width="5" height="5" />
		<rect fill="#000000ff" x="217" y="224" width="5" height="5" />
		<rect fill="#000000ff" x="217" y="231" width="5" height="5" />
		<rect fill="#000000ff" x="217" y="238" width="5" height="5" />
		<rect fill="#000000ff" x="217" y="245" width="5" height="5" />
		<rect fill="#000000ff" x="217" y="252" width="5" height="5" />
		<rect fill="#000000ff" x="224" y="77" width="5" height="5" />
		<rect fill="#000000ff" x="224" y="91" width="5" height="5" />
		<rect fill="#000000ff" x="224" y="98" width="5" height="5" />
		<rect fill="#000000ff" x="224" y="105" width="5" height="5" />
		<rect fill="#000000ff" x="224" y="133" width="5" height="5" />
		<rect fill="#000000ff" x="224" y="147" width="5" height="5" />
		<rect fill="#000000ff" x="224" y="154" width="5" height="5" />
		<rect fill="#000000ff" x="224" y="168" width="5" height="5" />
		<rect fill="#000000ff" x="224" y="175" width="5" height="5" />
		<rect fill="#000000ff" x="224" y="182" width="5" height="5" />
		<rect fill="#000000ff" x="224" y="189" width="5" height="5" />
		<rect fill="#000000ff" x="224" y="196" width="5" height="5" />
		<rect fill="#000000ff" x="224" y="203" width="5" height="5" />
		<rect fill="#000000ff" x="224" y="210" width="5" height="5" />
		<rect fill="#000000ff" x="224" y="217" width="5" height="5" />
		<rect fill="#000000ff" x="224" y="245" width="5" height="5" />
		<rect fill="#000000ff" x="224" y="266" width="5" height="5" />
		<rect fill="#000000ff" x="224" y="273" width="5" height="5" />
		<rect fill="#000000ff" x="231" y="21" width="5" height="5" />
		<rect fill="#000000ff" x="231" y="28" width="5" height="5" />
		<rect fill="#000000ff" x="231" y="35" width="5" height="5" />
		<rect fill="#000000ff" x="231" y="42" width="5" height="5" />
		<rect fill="#000000ff" x="231" y="49" width="5" height="5" />
		<rect fill="#000000ff" x="231" y="56" width="5" height="5" />
		<rect fill="#000000ff" x="231" y="63" width="5" height="5" />
		<rect fill="#000000ff" x="231" y="77" width="5" height="5" />
		<rect fill="#000000ff" x="231" y="91" width="5" height="5" />
		<rect fill="#000000ff" x="231" y="105" width="5" height="5" />
		<rect fill="#000000ff" x="231" y="112" width="5" height="5" />
		<rect fill="#000000ff" x="231" y="119" width="5" height="5" />
		<rect fill="#000000ff" x="231" y="147" width="5" height="5" />
		<rect fill="#000000ff" x="231" y="154" width="5" height="5" />
		<rect fill="#000000ff" x="231" y="161" width="5" height="5" />
		<rect fill="#000000ff" x="231" y="175" width="5" height="5" />
		<rect fill="#000000ff" x="231" y="182" width="5" height="5" />
		<rect fill="#000000ff" x="231" y="189" width="5" height="5" />
		<rect fill="#000000ff" x="231" y="196" width="5" height="5" />
		<rect fill="#000000ff" x="231" y="203" width="5" height="5" />
		<rect fill="#000000ff" x="231" y="217" width="5" height="5" />
		<rect fill="#000000ff" x="231" y="231" width="5" height="5" />
		<rect fill="#000000ff" x="231" y="245" width="5" height="5" />
		<rect fill="#000000ff" x="231" y="252" width="5" height="5" />
		<rect fill="#000000ff" x="231" y="259" width="5" height="5" />
		<rect fill="#000000ff" x="231" y="266" width="5" height="5" />
		<rect fill="#000000ff" x="238" y="21" width="5" height="5" />
		<rect fill="#000000ff" x="238" y="63" width="5" height="5" />
		<rect fill="#000000ff" x="238" y="77" width="5" height="5" />
		<rect fill="#000000ff" x="238" y="91" width="5" height="5" />
		<rect fill="#000000ff" x="238" y="98" width="5" height="5" />
		<rect fill="#000000ff" x="238" y="112" width="5" height="5" />
		<rect fill="#000000ff" x="238" y="126" width="5" height="5" />
		<rect fill="#000000ff" x="238" y="140" width="5" height="5" />
		<rect fill="#000000ff" x="238" y="154" width="5" height="5" />
		<rect fill="#000000ff" x="238" y="168" width="5" height="5" />
		<rect fill="#000000ff" x="238" y="175" width="5" height="5" />
		<rect fill="#000000ff" x="238" y="182" width="5" height="5" />
		<rect fill="#000000ff" x="238" y="203" width="5" height="5" />
		<rect fill="#000000ff" x="238" y="217" width="5" height="5" />
		<rect fill="#000000ff" x="238" y="245" width="5" height="5" />
		<rect fill="#000000ff" x="238" y="252" width="5" height="5" />
		<rect fill="#000000ff" x="238" y="259" width="5" height="5" />
		<rect fill="#000000ff" x="245" y="21" width="5" height="5" />
		<rect fill="#000000ff" x="245" y="35" width="5" height="5" />
		<rect fill="#000000ff" x="245" y="42" width="5" height="5" />
		<rect fill="#000000ff" x="245" y="49" width="5" height="5" />
		<rect fill="#000000ff" x="245" y="63" width="5" height="5" />
		<rect fill="#000000ff" x="245" y="91" width="5" height="5" />
		<rect fill="#000000ff" x="245" y="105" width="5" height="5" />
		<rect fill="#000000ff" x="245" y="133" width="5" height="5" />
		<rect fill="#000000ff" x="245" y="140" width="5" height="5" />
		<rect fill="#000000ff" x="245" y="147" width="5" height="5" />
		<rect fill="#000000ff" x="245" y="175" width="5" height="5" />
		<rect fill="#000000ff" x="245" y="196" width="5" height="5" />
		<rect fill="#000000ff" x="245" y="203" width="5" height="5" />
		<rect fill="#000000ff" x="245" y="217" width="5" height="5" />
		<rect fill="#000000ff" x="245" y="224" width="5" height="5" />
		<rect fill="#000000ff" x="245" y="231" width="5" height="5" />
		<rect fill="#000000ff" x="245" y="238" width="5" height="5" />
		<rect fill="#000000ff" x="245" y="245" width="5" height="5" />
		<rect fill="#000000ff" x="245" y="252" width="5" height="5" />
		<rect fill="#000000ff" x="245" y="259" width="5" height="5" />
		<rect fill="#000000ff" x="245" y="266" width="5" height="5" />
		<rect fill="#000000ff" x="252" y="21" width="5" height="5" />
		<rect fill="#000000ff" x="252" y="35" width="5" height="5" />
		<rect fill="#000000ff" x="252" y="42" width="5" height="5" />
		<rect fill="#000000ff" x="252" y="49" width="5" height="5" />
		<rect fill="#000000ff" x="252" y="63" width="5" height="5" />
		<rect fill="#000000ff" x="252" y="84" width="5" height="5" />
		<rect fill="#000000ff" x="252" y="98" width="5" height="5" />
		<rect fill="#000000ff" x="252" y="112" width="5" height="5" />
		<rect fill="#000000ff" x="252" y="119" width="5" height="5" />
		<rect fill="#000000ff" x="252" y="126" width="5" height="5" />
		<rect fill="#000000ff" x="252" y="154" width="5" height="5" />
		<rect fill="#000000ff" x="252" y="161" width="5" height="5" />
		<rect fill="#000000ff" x="252" y="182" width="5" height="5" />
		<rect fill="#000000ff" x="252" y="189" width="5" height="5" />
		<rect fill="#000000ff" x="252" y="196" width="5" height="5" />
		<rect fill="#000000ff" x="252" y="231" width="5" height="5" />
		<rect fill="#000000ff" x="252" y="238" width="5" height="5" />
		<rect fill="#000000ff" x="252" y="245" width="5" height="5" />
		<rect fill="#000000ff" x="252" y="259" width="5" height="5" />
		<rect fill="#000000ff" x="252" y="266" width="5" height="5" />
		<rect fill="#000000ff" x="259" y="21" width="5" height="5" />
		<rect fill="#000000ff" x="259" y="35" width="5" height="5" />
		<rect fill="#000000ff" x="259" y="42" width="5" height="5" />
		<rect fill="#000000ff" x="259" y="49" width="5" height="5" />
		<rect fill="#000000ff" x="259" y="63" width="5" height="5" />
		<rect fill="#000000ff" x="259" y="77" width="5" height="5" />
		<rect fill="#000000ff" x="259" y="91" width="5" height="5" />
		<rect fill="#000000ff" x="259" y="119" width="5" height="5" />
		<rect fill="#000000ff" x="259" y="126" width="5" height="5" />
		<rect fill="#000000ff" x="259" y="133" width="5" height="5" />
		<rect fill="#000000ff" x="259" y="147" width="5" height="5" />
		<rect fill="#000000ff" x="259" y="154" width="5" height="5" />
		<rect fill="#000000ff" x="259" y="175" width="5" height="5" />
		<rect fill="#000000ff" x="259" y="189" width="5" height="5" />
		<rect fill="#000000ff" x="259" y="203" width="5" height="5" />
		<rect fill="#000000ff" x="259" y="217" width="5" height="5" />
		<rect fill="#000000ff" x="259" y="231" width="5" height="5" />
		<rect fill="#000000ff" x="259" y="238" width="5" height="5" />
		<rect fill="#000000ff" x="259" y="259" width="5" height="5" />
		<rect fill="#000000ff" x="259" y="266" width="5" height="5" />
		<rect fill="#000000ff" x="266" y="21" width="5" height="5" />
		<rect fill="#000000ff" x="266" y="63" width="5" height="5" />
		<rect fill="#000000ff" x="266" y="77" width="5" height="5" />
		<rect fill="#000000ff" x="266" y="84" width="5" height="5" />
		<rect fill="#000000ff" x="266" y="91" width="5" height="5" />
		<rect fill="#000000ff" x="266" y="112" width="5" height="5" />
		<rect fill="#000000ff" x="266" y="133" width="5" height="5" />
		<rect fill="#000000ff" x="266" y="147" width="5" height="5" />
		<rect fill="#000000ff" x="266" y="168" width="5" height="5" />
		<rect fill="#000000ff" x="266" y="175" width="5" height="5" />
		<rect fill="#000000ff" x="266" y="189" width="5" height="5" />
		<rect fill="#000000ff" x="266" y="196" width="5" height="5" />
		<rect fill="#000000ff" x="266" y="203" width="5" height="5" />
		<rect fill="#000000ff" x="266" y="217" width="5" height="5" />
		<rect fill="#000000ff" x="266" y="224" width="5" height="5" />
		<rect fill="#000000ff" x="266" y="231" width="5" height="5" />
		<rect fill="#000000ff" x="266" y="245" width="5" height="5" />
		<rect fill="#000000ff" x="266" y="252" width="5" height="5" />
		<rect fill="#000000ff" x="266" y="266" width="5" height="5" />
		<rect fill="#000000ff" x="266" y="273" width="5" height="5" />
		<rect fill="#000000ff" x="273" y="21" width="5" height="5" />
		<rect fill="#000000ff" x="273" y="28" width="5" height="5" />
		<rect fill="#000000ff" x="273" y="35" width="5" height="5" />
		<rect fill="#000000ff" x="273" y="42" width="5" height="5" />
		<rect fill="#000000ff" x="273" y="49" width="5" height="5" />
		<rect fill="#000000ff" x="273" y="56" width="5" height="5" />
		<rect fill="#000000ff" x="273" y="63" width="5" height="5" />
		<rect fill="#000000ff" x="273" y="77" width="5" height="5" />
		<rect fill="#000000ff" x="273" y="105" width="5" height="5" />
		<rect fill="#000000ff" x="273" y="112" width="5" height="5" />
		<rect fill="#000000ff" x="273" y="133" width="5" height="5" />
		<rect fill="#000000ff" x="273" y="140" width="5" height="5" />
		<rect fill="#000000ff" x="273" y="147" width="5" height="5" />
		<rect fill="#000000ff" x="273" y="175" width="5" height="5" />
		<rect fill="#000000ff" x="273" y="189" width="5" height="5" />
		<rect fill="#000000ff" x="273" y="196" width="5" height="5" />
		<rect fill="#000000ff" x="273" y="217" width="5" height="5" />
		<rect fill="#000000ff" x="273" y="224" width="5" height="5" />
		<rect fill="#000000ff" x="273" y="231" width="5" height="5" />
		<rect fill="#000000ff" x="273" y="245" width="5" height="5" />
		<rect fill="#000000ff" x="273" y="252" width="5" height="5" />
		<rect fill="#000000ff" x="273" y="259" width="5" height="5" />
		<rect fill="#000000ff" x="273" y="273" width="5" height="5" />

	</g>
</svg>