<?xml version="1.0" encoding="utf-8"?>
<svg xmlns="http://www.w3.org/2000/svg" xmlns:xlink="http://www.w3.org/1999/xlink" width="300" height="300" viewBox="0 0 300 300">

	<g id="qr">
		<rect fill="#ffffffff" x="0" y="0" width="300" height="300" />
		<rect fill="#000000ff" x="20" y="20" width="7" height="7" />
		<rect fill="#000000ff" x="20" y="27" width="7" height="7" />
		<rect fill="#000000ff" x="20" y="34" width="7" height="7" />
		<rect fill="#000000ff" x="20" y="41" width="7" height="7" />
		<rect fill="#000000ff" x="20" y="48" width="7" height="7" />
		<rect fill="#000000ff" x="20" y="55" width="7" height="7" />
		<rect fill="#000000ff" x="20" y="62" width="7" height="7" />
		<rect fill="#000000ff" x="20" y="83" width="7" height="7" />
		<rect fill="#000000ff" x="20" y="104" width="7" height="7" />
		<rect fill="#000000ff" x="20" y="146" width="7" height="7" />
		<rect fill="#000000ff" x="20" y="181" width="7" height="7" />
		<rect fill="#000000ff" x="20" y="195" width="7" height="7" />
		<rect fill="#000000ff" x="20" y="202" width="7" height="7" />
		<rect fill="#000000ff" x="20" y="209" width="7" height="7" />
		<rect fill="#000000ff" x="20" y="216" width="7" height="7" />
		<rect fill="#000000ff" x="20" y="230" width="7" height="7" />
		<rect fill="#000000ff" x="20" y="237" width="7" height="7" />
		<rect fill="#000000ff" x="20" y="244" width="7" height="7" />
		<rect fill="#000000ff" x="20" y="251" width="7" height="7" />
		<rect fill="#000000ff" x="20" y="258" width="7" height="7" />
		<rect fill="#000000ff" x="20" y="265" width="7" height="7" />
		<rect fill="#000000ff" x="20" y="272" width="7" height="7" />
		<rect fill="#000000ff" x="27" y="20" width="7" height="7" />
		<rect fill="#000000ff" x="27" y="62" width="7" height="7" />
		<rect fill="#000000ff" x="27" y="118" width="7" height="7" />
		<rect fill="#000000ff" x="27" y="125" width="7" height="7" />
		<rect fill="#000000ff" x="27" y="146" width="7" height="7" />
		<rect fill="#000000ff" x="27" y="174" width="7" height="7" />
		<rect fill="#000000ff" x="27" y="181" width="7" height="7" />
		<rect fill="#000000ff" x="27" y="195" width="7" height="7" />
		<rect fill="#000000ff" x="27" y="230" width="7" height="7" />
		<rect fill="#000000ff" x="27" y="272" width="7" height="7" />
		<rect fill="#000000ff" x="34" y="20" width="7" height="7" />
		<rect fill="#000000ff" x="34" y="34" width="7" height="7" />
		<rect fill="#000000ff" x="34" y="41" width="7" height="7" />
		<rect fill="#000000ff" x="34" y="48" width="7" height="7" />
		<rect fill="#000000ff" x="34" y="62" width="7" height="7" />
		<rect fill="#000000ff" x="34" y="76" width="7" height="7" />
		<rect fill="#000000ff" x="34" y="90" width="7" height="7" />
		<rect fill="#000000ff" x="34" y="104" width="7" height="7" />
		<rect fill="#000000ff" x="34" y="118" width="7" height="7" />
		<rect fill="#000000ff" x="34" y="139" width="7" height="7" />
		<rect fill="#000000ff" x="34" y="153" width="7" height="7" />
		<rect fill="#000000ff" x="34" y="160" width="7" height="7" />
		<rect fill="#000000ff" x="34" y="167" width="7" height="7" />
		<rect fill="#000000ff" x="34" y="174" width="7" height="7" />
		<rect fill="#000000ff" x="34" y="202" width="7" height="7" />
		<rect fill="#000000ff" x="34" y="209" width="7" height="7" />
		<rect fill="#000000ff" x="34" y="216" width="7" height="7" />
		<rect fill="#000000ff" x="34" y="230" width="7" height="7" />
		<rect fill="#000000ff" x="34" y="244" width="7" height="7" />
		<rect fill="#000000ff" x="34" y="251" width="7" height="7" />
		<rect fill="#000000ff" x="34" y="258" width="7" height="7" />
		<rect fill="#000000ff" x="34" y="272" width="7" height="7" />
		<rect fill="#000000ff" x="41" y="20" width="7" height="7" />
		<rect fill="#000000ff" x="41" y="34" width="7" height="7" />
		<rect fill="#000000ff" x="41" y="41" width="7" height="7" />
		<rect fill="#000000ff" x="41" y="48" width="7" height="7" />
		<rect fill="#000000ff" x="41" y="62" width="7" height="7" />
		<rect fill="#000000ff" x="41" y="76" width="7" height="7" />
		<rect fill="#000000ff" x="41" y="104" width="7" height="7" />
		<rect fill="#000000ff" x="41" y="111" width="7" height="7" />
		<rect fill="#000000ff" x="41" y="118" width="7" height="7" />
		<rect fill="#000000ff" x="41" y="125" width="7" height="7" />
		<rect fill="#000000ff" x="41" y="139" width="7" height="7" />
		<rect fill="#000000ff" x="41" y="146" width="7" height="7" />
		<rect fill="#000000ff" x="41" y="160" width="7" height="7" />
		<rect fill="#000000ff" x="41" y="195" width="7" height="7" />
		<rect fill="#000000ff" x="41" y="209" width="7" height="7" />
		<rect fill="#000000ff" x="41" y="230" width="7" height="7" />
		<rect fill="#000000ff" x="41" y="244" width="7" height="7" />
		<rect fill="#000000ff" x="41" y="251" width="7" height="7" />
		<rect fill="#000000ff" x="41" y="258" width="7" height="7" />
		<rect fill="#000000ff" x="41" y="272" width="7" height="7" />
		<rect fill="#000000ff" x="48" y="20" width="7" height="7" />
		<rect fill="#000000ff" x="48" y="34" width="7" height="7" />
		<rect fill="#000000ff" x="48" y="41" width="7" height="7" />
		<rect fill="#000000ff" x="48" y="48" width="7" height="7" />
		<rect fill="#000000ff" x="48" y="62" width="7" height="7" />
		<rect fill="#000000ff" x="48" y="76" width="7" height="7" />
		<rect fill="#000000ff" x="48" y="83" width="7" height="7" />
		<rect fill="#000000ff" x="48" y="90" width="7" height="7" />
		<rect fill="#000000ff" x="48" y="97" width="7" height="7" />
		<rect fill="#000000ff" x="48" y="104" width="7" height="7" />
		<rect fill="#000000ff" x="48" y="111" width="7" height="7" />
		<rect fill="#000000ff" x="48" y="118" width="7" height="7" />
		<rect fill="#000000ff" x="48" y="125" width="7" height="7" />
		<rect fill="#000000ff" x="48" y="139" width="7" height="7" />
		<rect fill="#000000ff" x="48" y="174" width="7" height="7" />
		<rect fill="#000000ff" x="48" y="195" width="7" height="7" />
		<rect fill="#000000ff" x="48" y="202" width="7" height="7" />
		<rect fill="#000000ff" x="48" y="209" width="7" height="7" />
		<rect fill="#000000ff" x="48" y="216" width="7" height="7" />
		<rect fill="#000000ff" x="48" y="230" width="7" height="7" />
		<rect fill="#000000ff" x="48" y="244" width="7" height="7" />
		<rect fill="#000000ff" x="48" y="251" width="7" height="7" />
		<rect fill="#000000ff" x="48" y="258" width="7" height="7" />
		<rect fill="#000000ff" x="48" y="272" width="7" height="7" />
		<rect fill="#000000ff" x="55" y="20" width="7" height="7" />
		<rect fill="#000000ff" x="55" y="62" width="7" height="7" />
		<rect fill="#000000ff" x="55" y="90" width="7" height="7" />
		<rect fill="#000000ff" x="55" y="97" width="7" height="7" />
		<rect fill="#000000ff" x="55" y="111" width="7" height="7" />
		<rect fill="#000000ff" x="55" y="118" width="7" height="7" />
		<rect fill="#000000ff" x="55" y="125" width="7" height="7" />
		<rect fill="#000000ff" x="55" y="132" width="7" height="7" />
		<rect fill="#000000ff" x="55" y="139" width="7" height="7" />
		<rect fill="#000000ff" x="55" y="167" width="7" height="7" />
		<rect fill="#000000ff" x="55" y="181" width="7" height="7" />
		<rect fill="#000000ff" x="55" y="195" width="7" height="7" />
		<rect fill="#000000ff" x="55" y="230" width="7" height="7" />
		<rect fill="#000000ff" x="55" y="272" width="7" height="7" />
		<rect fill="#000000ff" x="62" y="20" width="7" height="7" />
		<rect fill="#000000ff" x="62" y="27" width="7" height="7" />
		<rect fill="#000000ff" x="62" y="34" width="7" height="7" />
		<rect fill="#000000ff" x="62" y="41" width="7" height="7" />
		<rect fill="#000000ff" x="62" y="48" width="7" height="7" />
		<rect fill="#000000ff" x="62" y="55" width="7" height="7" />
		<rect fill="#000000ff" x="62" y="62" width="7" height="7" />
		<rect fill="#000000ff" x="62" y="76" width="7" height="7" />
		<rect fill="#000000ff" x="62" y="90" width="7" height="7" />
		<rect fill="#000000ff" x="62" y="104" width="7" height="7" />
		<rect fill="#000000ff" x="62" y="118" width="7" height="7" />
		<rect fill="#000000ff" x="62" y="132" width="7" height="7" />
		<rect fill="#000000ff" x="62" y="146" width="7" height="7" />
		<rect fill="#000000ff" x="62" y="160" width="7" height="7" />
		<rect fill="#000000ff" x="62" y="174" width="7" height="7" />
		<rect fill="#000000ff" x="62" y="188" width="7" height="7" />
		<rect fill="#000000ff" x="62" y="202" width="7" height="7" />
		<rect fill="#000000ff" x="62" y="216" width="7" height="7" />
		<rect fill="#000000ff" x="62" y="230" width="7" height="7" />
		<rect fill="#000000ff" x="62" y="237" width="7" height="7" />
		<rect fill="#000000ff" x="62" y="244" width="7" height="7" />
		<rect fill="#000000ff" x="62" y="251" width="7" height="7" />
		<rect fill="#000000ff" x="62" y="258" width="7" height="7" />
		<rect fill="#000000ff" x="62" y="265" width="7" height="7" />
		<rect fill="#000000ff" x="62" y="272" width="7" height="7" />
		<rect fill="#000000ff" x="69" y="90" width="7" height="7" />
		<rect fill="#000000ff" x="69" y="125" width="7" height="7" />
		<rect fill="#000000ff" x="69" y="146" width="7" height="7" />
		<rect fill="#000000ff" x="69" y="160" width="7" height="7" />
		<rect fill="#000000ff" x="69" y="181" width="7" height="7" />
		<rect fill="#000000ff" x="69" y="195" width="7" height="7" />
		<rect fill="#000000ff" x="69" y="209" width="7" height="7" />
		<rect fill="#000000ff" x="69" y="216" width="7" height="7" />
		<rect fill="#000000ff" x="76" y="20" width="7" height="7" />
		<rect fill="#000000ff" x="76" y="27" width="7" height="7" />
		<rect fill="#000000ff" x="76" y="34" width="7" height="7" />
		<rect fill="#000000ff" x="76" y="55" width="7" height="7" />
		<rect fill="#000000ff" x="76" y="62" width="7" height="7" />
		<rect fill="#000000ff" x="76" y="69" width="7" height="7" />
		<rect fill="#000000ff" x="76" y="76" width="7" height="7" />
		<rect fill="#000000ff" x="76" y="90" width="7" height="7" />
		<rect fill="#000000ff" x="76" y="104" width="7" height="7" />
		<rect fill="#000000ff" x="76" y="118" width="7" height="7" />
		<rect fill="#000000ff" x="76" y="125" width="7" height="7" />
		<rect fill="#000000ff" x="76" y="132" width="7" height="7" />
		<rect fill="#000000ff" x="76" y="139" width="7" height="7" />
		<rect fill="#000000ff" x="76" y="146" width="7" height="7" />
		<rect fill="#000000ff" x="76" y="153" width="7" height="7" />
		<rect fill="#000000ff" x="76" y="188" width="7" height="7" />
		<rect fill="#000000ff" x="76" y="195" width="7" height="7" />
		<rect fill="#000000ff" x="76" y="202" width="7" height="7" />
		<rect fill="#000000ff" x="76" y="216" width="7" height="7" />
		<rect fill="#000000ff" x="76" y="223" width="7" height="7" />
		<rect fill="#000000ff" x="76" y="244" width="7" height="7" />
		<rect fill="#000000ff" x="76" y="251" width="7" height="7" />
		<rect fill="#000000ff" x="76" y="258" width="7" height="7" />
		<rect fill="#000000ff" x="83" y="34" width="7" height="7" />
		<rect fill="#000000ff" x="83" y="55" width="7" height="7" />
		<rect fill="#000000ff" x="83" y="69" width="7" height="7" />
		<rect fill="#000000ff" x="83" y="83" width="7" height="7" />
		<rect fill="#000000ff" x="83" y="90" width="7" height="7" />
		<rect fill="#000000ff" x="83" y="97" width="7" height="7" />
		<rect fill="#000000ff" x="83" y="104" width="7" height="7" />
		<rect fill="#000000ff" x="83" y="118" width="7" height="7" />
		<rect fill="#000000ff" x="83" y="125" width="7" height="7" />
		<rect fill="#000000ff" x="83" y="146" width="7" height="7" />
		<rect fill="#000000ff" x="83" y="160" width="7" height="7" />
		<rect fill="#000000ff" x="83" y="167" width="7" height="7" />
		<rect fill="#000000ff" x="83" y="174" width="7" height="7" />
		<rect fill="#000000ff" x="83" y="181" width="7" height="7" />
		<rect fill="#000000ff" x="83" y="188" width="7" height="7" />
		<rect fill="#000000ff" x="83" y="195" width="7" height="7" />
		<rect fill="#000000ff" x="83" y="223" width="7" height="7" />
		<rect fill="#000000ff" x="83" y="244" width="7" height="7" />
		<rect fill="#000000ff" x="90" y="27" width="7" height="7" />
		<rect fill="#000000ff" x="90" y="34" width="7" height="7" />
		<rect fill="#000000ff" x="90" y="41" width="7" height="7" />
		<rect fill="#000000ff" x="90" y="48" width="7" height="7" />
		<rect fill="#000000ff" x="90" y="55" width="7" height="7" />
		<rect fill="#000000ff" x="90" y="62" width="7" height="7" />
		<rect fill="#000000ff" x="90" y="69" width="7" height="7" />
		<rect fill="#000000ff" x="90" y="76" width="7" height="7" />
		<rect fill="#000000ff" x="90" y="90" width="7" height="7" />
		<rect fill="#000000ff" x="90" y="97" width="7" height="7" />
		<rect fill="#000000ff" x="90" y="104" width="7" height="7" />
		<rect fill="#000000ff" x="90" y="111" width="7" height="7" />
		<rect fill="#000000ff" x="90" y="125" width="7" height="7" />
		<rect fill="#000000ff" x="90" y="132" width="7" height="7" />
		<rect fill="#000000ff" x="90" y="146" width="7" height="7" />
		<rect fill="#000000ff" x="90" y="153" width="7" height="7" />
		<rect fill="#000000ff" x="90" y="174" width="7" height="7" />
		<rect fill="#000000ff" x="90" y="188" width="7" height="7" />
		<rect fill="#000000ff" x="90" y="195" width="7" height="7" />
		<rect fill="#000000ff" x="90" y="216" width="7" height="7" />
		<rect fill="#000000ff" x="90" y="223" width="7" height="7" />
		<rect fill="#000000ff" x="90" y="230" width="7" height="7" />
		<rect fill="#000000ff" x="90" y="237" width="7" height="7" />
		<rect fill="#000000ff" x="90" y="251" width="7" height="7" />
		<rect fill="#000000ff" x="90" y="265" width="7" height="7" />
		<rect fill="#000000ff" x="97" y="34" width="7" height="7" />
		<rect fill="#000000ff" x="97" y="41" width="7" height="7" />
		<rect fill="#000000ff" x="97" y="48" width="7" height="7" />
		<rect fill="#000000ff" x="97" y="69" width="7" height="7" />
		<rect fill="#000000ff" x="97" y="76" width="7" height="7" />
		<rect fill="#000000ff" x="97" y="90" width="7" height="7" />
		<rect fill="#000000ff" x="97" y="111" width="7" height="7" />
		<rect fill="#000000ff" x="97" y="118" width="7" height="7" />
		<rect fill="#000000ff" x="97" y="125" width="7" height="7" />
		<rect fill="#000000ff" x="97" y="153" width="7" height="7" />
		<rect fill="#000000ff" x="97" y="167" width="7" height="7" />
		<rect fill="#000000ff" x="97" y="195" width="7" height="7" />
		<rect fill="#000000ff" x="97" y="202" width="7" height="7" />
		<rect fill="#000000ff" x="97" y="216" width="7" height="7" />
		<rect fill="#000000ff" x="97" y="223" width="7" height="7" />
		<rect fill="#000000ff" x="104" y="27" width="7" height="7" />
		<rect fill="#000000ff" x="104" y="34" width="7" height="7" />
		<rect fill="#000000ff" x="104" y="41" width="7" height="7" />
		<rect fill="#000000ff" x="104" y="48" width="7" height="7" />
		<rect fill="#000000ff" x="104" y="62" width="7" height="7" />
		<rect fill="#000000ff" x="104" y="69" width="7" height="7" />
		<rect fill="#000000ff" x="104" y="76" width="7" height="7" />
		<rect fill="#000000ff" x="104" y="83" width="7" height="7" />
		<rect fill="#000000ff" x="104" y="111" width="7" height="7" />
		<rect fill="#000000ff" x="104" y="118" width="7" height="7" />
		<rect fill="#000000ff" x="104" y="125" width="7" height="7" />
		<rect fill="#000000ff" x="104" y="146" width="7" height="7" />
		<rect fill="#000000ff" x="104" y="174" width="7" height="7" />
		<rect fill="#000000ff" x="104" y="181" width="7" height="7" />
		<rect fill="#000000ff" x="104" y="188" width="7" height="7" />
		<rect fill="#000000ff" x="104" y="216" width="7" height="7" />
		<rect fill="#000000ff" x="104" y="230" width="7" height="7" />
		<rect fill="#000000ff" x="104" y="244" width="7" height="7" />
		<rect fill="#000000ff" x="104" y="251" width="7" height="7" />
		<rect fill="#000000ff" x="104" y="258" width="7" height="7" />
		<rect fill="#000000ff" x="104" y="265" width="7" height="7" />
		<rect fill="#000000ff" x="104" y="272" width="7" height="7" />
		<rect fill="#000000ff" x="111" y="48" width="7" height="7" />
		<rect fill="#000000ff" x="111" y="76" width="7" height="7" />
		<rect fill="#000000ff" x="111" y="83" width="7" height="7" />
		<rect fill="#000000ff" x="111" y="97" width="7" height="7" />
		<rect fill="#000000ff" x="111" y="104" width="7" height="7" />
		<rect fill="#000000ff" x="111" y="125" width="7" height="7" />
		<rect fill="#000000ff" x="111" y="132" width="7" height="7" />
		<rect fill="#000000ff" x="111" y="146" width="7" height="7" />
		<rect fill="#000000ff" x="111" y="153" width="7" height="7" />
		<rect fill="#000000ff" x="111" y="160" width="7" height="7" />
		<rect fill="#000000ff" x="111" y="167" width="7" height="7" />
		<rect fill="#000000ff" x="111" y="174" width="7" height="7" />
		<rect fill="#000000ff" x="111" y="181" width="7" height="7" />
		<rect fill="#000000ff" x="111" y="188" width="7" height="7" />
		<rect fill="#000000ff" x="111" y="209" width="7" height="7" />
		<rect fill="#000000ff" x="111" y="237" width="7" height="7" />
		<rect fill="#000000ff" x="111" y="244" width="7" height="7" />
		<rect fill="#000000ff" x="111" y="258" width="7" height="7" />
		<rect fill="#000000ff" x="111" y="272" width="7" height="7" />
		<rect fill="#000000ff" x="118" y="34" width="7" height="7" />
		<rect fill="#000000ff" x="118" y="41" width="7" height="7" />
		<rect fill="#000000ff" x="118" y="55" width="7" height="7" />
		<rect fill="#000000ff" x="118" y="62" width="7" height="7" />
		<rect fill="#000000ff" x="118" y="69" width="7" height="7" />
		<rect fill="#000000ff" x="118" y="83" width="7" height="7" />
		<rect fill="#000000ff" x="118" y="104" width="7" height="7" />
		<rect fill="#000000ff" x="118" y="111" width="7" height="7" />
		<rect fill="#000000ff" x="118" y="118" width="7" height="7" />
		<rect fill="#000000ff" x="118" y="125" width="7" height="7" />
		<rect fill="#000000ff" x="118" y="139" width="7" height="7" />
		<rect fill="#000000ff" x="118" y="174" width="7" height="7" />
		<rect fill="#000000ff" x="118" y="188" width="7" height="7" />
		<rect fill="#000000ff" x="118" y="195" width="7" height="7" />
		<rect fill="#000000ff" x="118" y="202" width="7" height="7" />
		<rect fill="#000000ff" x="118" y="223" width="7" height="7" />
		<rect fill="#000000ff" x="118" y="244" width="7" height="7" />
		<rect fill="#000000ff" x="118" y="251" width="7" height="7" />
		<rect fill="#000000ff" x="118" y="272" width="7" height="7" />
		<rect fill="#000000ff" x="125" y="20" width="7" height="7" />
		<rect fill="#000000ff" x="125" y="34" width="7" height="7" />
		<rect fill="#000000ff" x="125" y="76" width="7" height="7" />
		<rect fill="#000000ff" x="125" y="83" width="7" height="7" />
		<rect fill="#000000ff" x="125" y="90" width="7" height="7" />
		<rect fill="#000000ff" x="125" y="104" width="7" height="7" />
		<rect fill="#000000ff" x="125" y="118" width="7" height="7" />
		<rect fill="#000000ff" x="125" y="125" width="7" height="7" />
		<rect fill="#000000ff" x="125" y="132" width="7" height="7" />
		<rect fill="#000000ff" x="125" y="146" width="7" height="7" />
		<rect fill="#000000ff" x="125" y="160" width="7" height="7" />
		<rect fill="#000000ff" x="125" y="174" width="7" height="7" />
		<rect fill="#000000ff" x="125" y="181" width="7" height="7" />
		<rect fill="#000000ff" x="125" y="202" width="7" height="7" />
		<rect fill="#000000ff" x="125" y="209" width="7" height="7" />
		<rect fill="#000000ff" x="125" y="237" width="7" height="7" />
		<rect fill="#000000ff" x="125" y="258" width="7" height="7" />
		<rect fill="#000000ff" x="132" y="34" width="7" height="7" />
		<rect fill="#000000ff" x="132" y="62" width="7" height="7" />
		<rect fill="#000000ff" x="132" y="76" width="7" height="7" />
		<rect fill="#000000ff" x="132" y="111" width="7" height="7" />
		<rect fill="#000000ff" x="132" y="125" width="7" height="7" />
		<rect fill="#000000ff" x="132" y="132" width="7" height="7" />
		<rect fill="#000000ff" x="132" y="146" width="7" height="7" />
		<rect fill="#000000ff" x="132" y="153" width="7" height="7" />
		<rect fill="#000000ff" x="132" y="160" width="7" height="7" />
		<rect fill="#000000ff" x="132" y="167" width="7" height="7" />
		<rect fill="#000000ff" x="132" y="174" width="7" height="7" />
		<rect fill="#000000ff" x="132" y="195" width="7" height="7" />
		<rect fill="#000000ff" x="132" y="216" width="7" height="7" />
		<rect fill="#000000ff" x="132" y="223" width="7" height="7" />
		<rect fill="#000000ff" x="132" y="230" width="7" height="7" />
		<rect fill="#000000ff" x="132" y="244" width="7" height="7" />
		<rect fill="#000000ff" x="132" y="272" width="7" height="7" />
		<rect fill="#000000ff" x="139" y="27" width="7" height="7" />
		<rect fill="#000000ff" x="139" y="55" width="7" height="7" />
		<rect fill="#000000ff" x="139" y="69" width="7" height="7" />
		<rect fill="#000000ff" x="139" y="104" width="7" height="7" />
		<rect fill="#000000ff" x="139" y="118" width="7" height="7" />
		<rect fill="#000000ff" x="139" y="125" width="7" height="7" />
		<rect fill="#000000ff" x="139" y="132" width="7" height="7" />
		<rect fill="#000000ff" x="139" y="139" width="7" height="7" />
		<rect fill="#000000ff" x="139" y="167" width="7" height="7" />
		<rect fill="#000000ff" x="139" y="174" width="7" height="7" />
		<rect fill="#000000ff" x="139" y="181" width="7" height="7" />
		<rect fill="#000000ff" x="139" y="188" width="7" height="7" />
		<rect fill="#000000ff" x="139" y="202" width="7" height="7" />
		<rect fill="#000000ff" x="139" y="209" width="7" height="7" />
		<rect fill="#000000ff" x="139" y="216" width="7" height="7" />
		<rect fill="#000000ff" x="139" y="223" width="7" height="7" />
		<rect fill="#000000ff" x="139" y="244" width="7" height="7" />
		<rect fill="#000000ff" x="146" y="27" width="7" height="7" />
		<rect fill="#000000ff" x="146" y="41" width="7" height="7" />
		<rect fill="#000000ff" x="146" y="55" width="7" height="7" />
		<rect fill="#000000ff" x="146" y="62" width="7" height="7" />
		<rect fill="#000000ff" x="146" y="76" width="7" height="7" />
		<rect fill="#000000ff" x="146" y="90" width="7" height="7" />
		<rect fill="#000000ff" x="146" y="97" width="7" height="7" />
		<rect fill="#000000ff" x="146" y="125" width="7" height="7" />
		<rect fill="#000000ff" x="146" y="132" width="7" height="7" />
		<rect fill="#000000ff" x="146" y="181" width="7" height="7" />
		<rect fill="#000000ff" x="146" y="202" width="7" height="7" />
		<rect fill="#000000ff" x="146" y="209" width="7" height="7" />
		<rect fill="#000000ff" x="146" y="216" width="7" height="7" />
		<rect fill="#000000ff" x="146" y="223" width="7" height="7" />
		<rect fill="#000000ff" x="146" y="230" width="7" height="7" />
		<rect fill="#000000ff" x="146" y="251" width="7" height="7" />
		<rect fill="#000000ff" x="146" y="258" width="7" height="7" />
		<rect fill="#000000ff" x="146" y="265" width="7" height="7" />
		<rect fill="#000000ff" x="153" y="27" width="7" height="7" />
		<rect fill="#000000ff" x="153" y="41" width="7" height="7" />
		<rect fill="#000000ff" x="153" y="48" width="7" height="7" />
		<rect fill="#000000ff" x="153" y="83" width="7" height="7" />
		<rect fill="#000000ff" x="153" y="90" width="7" height="7" />
		<rect fill="#000000ff" x="153" y="97" width="7" height="7" />
		<rect fill="#000000ff" x="153" y="167" width="7" height="7" />
		<rect fill="#000000ff" x="153" y="174" width="7" height="7" />
		<rect fill="#000000ff" x="153" y="188" width="7" height="7" />
		<rect fill="#000000ff" x="153" y="202" width="7" height="7" />
		<rect fill="#000000ff" x="153" y="209" width="7" height="7" />
		<rect fill="#000000ff" x="153" y="216" width="7" height="7" />
		<rect fill="#000000ff" x="153" y="230" width="7" height="7" />
		<rect fill="#000000ff" x="153" y="237" width="7" height="7" />
		<rect fill="#000000ff" x="153" y="244" width="7" height="7" />
		<rect fill="#000000ff" x="153" y="258" width="7" height="7" />
		<rect fill="#000000ff" x="153" y="272" width="7" height="7" />
		<rect fill="#000000ff" x="160" y="27" width="7" height="7" />
		<rect fill="#000000ff" x="160" y="41" width="7" height="7" />
		<rect fill="#000000ff" x="160" y="55" width="7" height="7" />
		<rect fill="#000000ff" x="160" y="62" width="7" height="7" />
		<rect fill="#000000ff" x="160" y="69" width="7" height="7" />
		<rect fill="#000000ff" x="160" y="104" width="7" height="7" />
		<rect fill="#000000ff" x="160" y="146" width="7" height="7" />
		<rect fill="#000000ff" x="160" y="153" width="7" height="7" />
		<rect fill="#000000ff" x="160" y="160" width="7" height="7" />
		<rect fill="#000000ff" x="160" y="167" width="7" height="7" />
		<rect fill="#000000ff" x="160" y="216" width="7" height="7" />
		<rect fill="#000000ff" x="160" y="265" width="7" height="7" />
		<rect fill="#000000ff" x="167" y="20" width="7" height="7" />
		<rect fill="#000000ff" x="167" y="34" width="7" height="7" />
		<rect fill="#000000ff" x="167" y="48" width="7" height="7" />
		<rect fill="#000000ff" x="167" y="55" width="7" height="7" />
		<rect fill="#000000ff" x="167" y="69" width="7" height="7" />
		<rect fill="#000000ff" x="167" y="76" width="7" height="7" />
		<rect fill="#000000ff" x="167" y="104" width="7" height="7" />
		<rect fill="#000000ff" x="167" y="118" width="7" height="7" />
		<rect fill="#000000ff" x="167" y="132" width="7" height="7" />
		<rect fill="#000000ff" x="167" y="139" width="7" height="7" />
		<rect fill="#000000ff" x="167" y="153" width="7" height="7" />
		<rect fill="#000000ff" x="167" y="160" width="7" height="7" />
		<rect fill="#000000ff" x="167" y="167" width="7" height="7" />
		<rect fill="#000000ff" x="167" y="181" width="7" height="7" />
		<rect fill="#000000ff" x="167" y="188" width="7" height="7" />
		<rect fill="#000000ff" x="167" y="202" width="7" height="7" />
		<rect fill="#000000ff" x="167" y="209" width="7" height="7" />
		<rect fill="#000000ff" x="167" y="216" width="7" height="7" />
		<rect fill="#000000ff" x="167" y="237" width="7" height="7" />
		<rect fill="#000000ff" x="167" y="244" width="7" height="7" />
		<rect fill="#000000ff" x="167" y="258" width="7" height="7" />
		<rect fill="#000000ff" x="167" y="265" width="7" height="7" />
		<rect fill="#000000ff" x="174" y="41" width="7" height="7" />
		<rect fill="#000000ff" x="174" y="48" width="7" height="7" />
		<rect fill="#000000ff" x="174" y="62" width="7" height="7" />
		<rect fill="#000000ff" x="174" y="104" width="7" height="7" />
		<rect fill="#000000ff" x="174" y="111" width="7" height="7" />
		<rect fill="#000000ff" x="174" y="125" width="7" height="7" />
		<rect fill="#000000ff" x="174" y="139" width="7" height="7" />
		<rect fill="#000000ff" x="174" y="181" width="7" height="7" />
		<rect fill="#000000ff" x="174" y="188" width="7" height="7" />
		<rect fill="#000000ff" x="174" y="244" width="7" height="7" />
		<rect fill="#000000ff" x="174" y="265" width="7" height="7" />
		<rect fill="#000000ff" x="174" y="272" width="7" height="7" />
		<rect fill="#000000ff" x="181" y="20" width="7" height="7" />
		<rect fill="#000000ff" x="181" y="27" width="7" height="7" />
		<rect fill="#000000ff" x="181" y="41" width="7" height="7" />
		<rect fill="#000000ff" x="181" y="83" width="7" height="7" />
		<rect fill="#000000ff" x="181" y="97" width="7" height="7" />
		<rect fill="#000000ff" x="181" y="104" width="7" height="7" />
		<rect fill="#000000ff" x="181" y="118" width="7" height="7" />
		<rect fill="#000000ff" x="181" y="125" width="7" height="7" />
		<rect fill="#000000ff" x="181" y="132" width="7" height="7" />
		<rect fill="#000000ff" x="181" y="139" width="7" height="7" />
		<rect fill="#000000ff" x="181" y="167" width="7" height="7" />
		<rect fill="#000000ff" x="181" y="174" width="7" height="7" />
		<rect fill="#000000ff" x="181" y="188" width="7" height="7" />
		<rect fill="#000000ff" x="181" y="202" width="7" height="7" />
		<rect fill="#000000ff" x="181" y="251" width="7" height="7" />
		<rect fill="#000000ff" x="181" y="258" width="7" height="7" />
		<rect fill="#000000ff" x="181" y="265" width="7" height="7" />
		<rect fill="#000000ff" x="188" y="20" width="7" height="7" />
		<rect fill="#000000ff" x="188" y="41" width="7" height="7" />
		<rect fill="#000000ff" x="188" y="48" width="7" height="7" />
		<rect fill="#000000ff" x="188" y="62" width="7" height="7" />
		<rect fill="#000000ff" x="188" y="97" width="7" height="7" />
		<rect fill="#000000ff" x="188" y="118" width="7" height="7" />
		<rect fill="#000000ff" x="188" y="125" width="7" height="7" />
		<rect fill="#000000ff" x="188" y="132" width="7" height="7" />
		<rect fill="#000000ff" x="188" y="139" width="7" height="7" />
		<rect fill="#000000ff" x="188" y="153" width="7" height="7" />
		<rect fill="#000000ff" x="188" y="167" width="7" height="7" />
		<rect fill="#000000ff" x="188" y="181" width="7" height="7" />
		<rect fill="#000000ff" x="188" y="188" width="7" height="7" />
		<rect fill="#000000ff" x="188" y="195" width="7" height="7" />
		<rect fill="#000000ff" x="188" y="202" width="7" height="7" />
		<rect fill="#000000ff" x="188" y="230" width="7" height="7" />
		<rect fill="#000000ff" x="188" y="258" width="7" height="7" />
		<rect fill="#000000ff" x="188" y="272" width="7" height="7" />
		<rect fill="#000000ff" x="195" y="27" width="7" height="7" />
		<rect fill="#000000ff" x="195" y="55" width="7" height="7" />
		<rect fill="#000000ff" x="195" y="69" width="7" height="7" />
		<rect fill="#000000ff" x="195" y="90" width="7" height="7" />
		<rect fill="#000000ff" x="195" y="97" width="7" height="7" />
		<rect fill="#000000ff" x="195" y="104" width="7" height="7" />
		<rect fill="#000000ff" x="195" y="118" width="7" height="7" />
		<rect fill="#000000ff" x="195" y="132" width="7" height="7" />
		<rect fill="#000000ff" x="195" y="174" width="7" height="7" />
		<rect fill="#000000ff" x="195" y="188" width="7" height="7" />
		<rect fill="#000000ff" x="195" y="202" width="7" height="7" />
		<rect fill="#000000ff" x="195" y="216" width="7" height="7" />
		<rect fill="#000000ff" x="195" y="230" width="7" height="7" />
		<rect fill="#000000ff" x="195" y="237" width="7" height="7" />
		<rect fill="#000000ff" x="195" y="244" width="7" height="7" />
		<rect fill="#000000ff" x="202" y="27" width="7" height="7" />
		<rect fill="#000000ff" x="202" y="48" width="7" height="7" />
		<rect fill="#000000ff" x="202" y="62" width="7" height="7" />
		<rect fill="#000000ff" x="202" y="69" width="7" height="7" />
		<rect fill="#000000ff" x="202" y="83" width="7" height="7" />
		<rect fill="#000000ff" x="202" y="104" width="7" height="7" />
		<rect fill="#000000ff" x="202" y="111" width="7" height="7" />
		<rect fill="#000000ff" x="202" y="118" width="7" height="7" />
		<rect fill="#000000ff" x="202" y="139" width="7" height="7" />
		<rect fill="#000000ff" x="202" y="146" width="7" height="7" />
		<rect fill="#000000ff" x="202" y="167" width="7" height="7" />
		<rect fill="#000000ff" x="202" y="181" width="7" height="7" />
		<rect fill="#000000ff" x="202" y="195" width="7" height="7" />
		<rect fill="#000000ff" x="202" y="202" width="7" height="7" />
		<rect fill="#000000ff" x="202" y="209" width="7" height="7" />
		<rect fill="#000000ff" x="202" y="216" width="7" height="7" />
		<rect fill="#000000ff" x="202" y="223" width="7" height="7" />
		<rect fill="#000000ff" x="202" y="230" width="7" height="7" />
		<rect fill="#000000ff" x="202" y="244" width="7" height="7" />
		<rect fill="#000000ff" x="202" y="251" width="7" height="7" />
		<rect fill="#000000ff" x="202" y="258" width="7" height="7" />
		<rect fill="#000000ff" x="202" y="265" width="7" height="7" />
		<rect fill="#000000ff" x="209" y="41" width="7" height="7" />
		<rect fill="#000000ff" x="209" y="76" width="7" height="7" />
		<rect fill="#000000ff" x="209" y="83" width="7" height="7" />
		<rect fill="#000000ff" x="209" y="97" width="7" height="7" />
		<rect fill="#000000ff" x="209" y="104" width="7" height="7" />
		<rect fill="#000000ff" x="209" y="118" width="7" height="7" />
		<rect fill="#000000ff" x="209" y="132" width="7" height="7" />
		<rect fill="#000000ff" x="209" y="139" width="7" height="7" />
		<rect fill="#000000ff" x="209" y="146" width="7" height="7" />
		<rect fill="#000000ff" x="209" y="160" width="7" height="7" />
		<rect fill="#000000ff" x="209" y="188" width="7" height="7" />
		<rect fill="#000000ff" x="209" y="202" width="7" height="7" />
		<rect fill="#000000ff" x="209" y="216" width="7" height="7" />
		<rect fill="#000000ff" x="209" y="230" width="7" height="7" />
		<rect fill="#000000ff" x="209" y="237" width="7" height="7" />
		<rect fill="#000000ff" x="209" y="258" width="7" height="7" />
		<rect fill="#000000ff" x="209" y="272" width="7" height="7" />
		<rect fill="#000000ff" x="216" y="20" width="7" height="7" />
		<rect fill="#000000ff" x="216" y="41" width="7" height="7" />
		<rect fill="#000000ff" x="216" y="48" width="7" height="7" />
		<rect fill="#000000ff" x="216" y="62" width="7" height="7" />
		<rect fill="#000000ff" x="216" y="83" width="7" height="7" />
		<rect fill="#000000ff" x="216" y="97" width="7" height="7" />
		<rect fill="#000000ff" x="216" y="104" width="7" height="7" />
		<rect fill="#000000ff" x="216" y="111" width="7" height="7" />
		<rect fill="#000000ff" x="216" y="118" width="7" height="7" />
		<rect fill="#000000ff" x="216" y="125" width="7" height="7" />
		<rect fill="#000000ff" x="216" y="132" width="7" height="7" />
		<rect fill="#000000ff" x="216" y="146" width="7" height="7" />
		<rect fill="#000000ff" x="216" y="153" width="7" height="7" />
		<rect fill="#000000ff" x="216" y="174" width="7" height="7" />
		<rect fill="#000000ff" x="216" y="188" width="7" height="7" />
		<rect fill="#000000ff" x="216" y="209" width="7" height="7" />
		<rect fill="#000000ff" x="216" y="216" width="7" height="7" />
		<rect fill="#000000ff" x="216" y="223" width="7" height="7" />
		<rect fill="#000000ff" x="216" y="230" width="7" height="7" />
		<rect fill="#000000ff" x="216" y="237" width="7" height="7" />
		<rect fill="#000000ff" x="216" y="244" width="7" height="7" />
		<rect fill="#000000ff" x="216" y="251" width="7" height="7" />
		<rect fill="#000000ff" x="223" y="76" width="7" height="7" />
		<rect fill="#000000ff" x="223" y="90" width="7" height="7" />
		<rect fill="#000000ff" x="223" y="97" width="7" height="7" />
		<rect fill="#000000ff" x="223" y="104" width="7" height="7" />
		<rect fill="#000000ff" x="223" y="132" width="7" height="7" />
		<rect fill="#000000ff" x="223" y="146" width="7" height="7" />
		<rect fill="#000000ff" x="223" y="153" width="7" height="7" />
		<rect fill="#000000ff" x="223" y="167" width="7" height="7" />
		<rect fill="#000000ff" x="223" y="174" width="7" height="7" />
		<rect fill="#000000ff" x="223" y="181" width="7" height="7" />
		<rect fill="#000000ff" x="223" y="188" width="7" height="7" />
		<rect fill="#000000ff" x="223" y="195" width="7" height="7" />
		<rect fill="#000000ff" x="223" y="202" width="7" height="7" />
		<rect fill="#000000ff" x="223" y="209" width="7" height="7" />
		<rect fill="#000000ff" x="223" y="216" width="7" height="7" />
		<rect fill="#000000ff" x="223" y="244" width="7" height="7" />
		<rect fill="#000000ff" x="223" y="265" width="7" height="7" />
		<rect fill="#000000ff" x="223" y="272" width="7" height="7" />
		<rect fill="#000000ff" x="230" y="20" width="7" height="7" />
		<rect fill="#000000ff" x="230" y="27" width="7" height="7" />
		<rect fill="#000000ff" x="230" y="34" width="7" height="7" />
		<rect fill="#000000ff" x="230" y="41" width="7" height="7" />
		<rect fill="#000000ff" x="230" y="48" width="7" height="7" />
		<rect fill="#000000ff" x="230" y="55" width="7" height="7" />
		<rect fill="#000000ff" x="230" y="62" width="7" height="7" />
		<rect fill="#000000ff" x="230" y="76" width="7" height="7" />
		<rect fill="#000000ff" x="230" y="90" width="7" height="7" />
		<rect fill="#000000ff" x="230" y="104" width="7" height="7" />
		<rect fill="#000000ff" x="230" y="111" width="7" height="7" />
		<rect fill="#000000ff" x="230" y="118" width="7" height="7" />
		<rect fill="#000000ff" x="230" y="146" width="7" height="7" />
		<rect fill="#000000ff" x="230" y="153" width="7" height="7" />
		<rect fill="#000000ff" x="230" y="160" width="7" height="7" />
		<rect fill="#000000ff" x="230" y="174" width="7" height="7" />
		<rect fill="#000000ff" x="230" y="181" width="7" height="7" />
		<rect fill="#000000ff" x="230" y="188" width="7" height="7" />
		<rect fill="#000000ff" x="230" y="195" width="7" height="7" />
		<rect fill="#000000ff" x="230" y="202" width="7" height="7" />
		<rect fill="#000000ff" x="230" y="216" width="7" height="7" />
		<rect fill="#000000ff" x="230" y="230" width="7" height="7" />
		<rect fill="#000000ff" x="230" y="244" width="7" height="7" />
		<rect fill="#000000ff" x="230" y="251" width="7" height="7" />
		<rect fill="#000000ff" x="230" y="258" width="7" height="7" />
		<rect fill="#000000ff" x="230" y="265" width="7" height="7" />
		<rect fill="#000000ff" x="237" y="20" width="7" height="7" />
		<rect fill="#000000ff" x="237" y="62" width="7" height="7" />
		<rect fill="#000000ff" x="237" y="76" width="7" height="7" />
		<rect fill="#000000ff" x="237" y="90" width="7" height="7" />
		<rect fill="#000000ff" x="237" y="97" width="7" height="7" />
		<rect fill="#000000ff" x="237" y="111" width="7" height="7" />
		<rect fill="#000000ff" x="237" y="125" width="7" height="7" />
		<rect fill="#000000ff" x="237" y="139" width="7" height="7" />
		<rect fill="#000000ff" x="237" y="153" width="7" height="7" />
		<rect fill="#000000ff" x="237" y="167" width="7" height="7" />
		<rect fill="#000000ff" x="237" y="174" width="7" height="7" />
		<rect fill="#000000ff" x="237" y="181" width="7" height="7" />
		<rect fill="#000000ff" x="237" y="202" width="7" height="7" />
		<rect fill="#000000ff" x="237" y="216" width="7" height="7" />
		<rect fill="#000000ff" x="237" y="244" width="7" height="7" />
		<rect fill="#000000ff" x="237" y="251" width="7" height="7" />
		<rect fill="#000000ff" x="237" y="258" width="7" height="7" />
		<rect fill="#000000ff" x="244" y="20" width="7" height="7" />
		<rect fill="#000000ff" x="244" y="34" width="7" height="7" />
		<rect fill="#000000ff" x="244" y="41" width="7" height="7" />
		<rect fill="#000000ff" x="244" y="48" width="7" height="7" />
		<rect fill="#000000ff" x="244" y="62" width="7" height="7" />
		<rect fill="#000000ff" x="244" y="90" width="7" height="7" />
		<rect fill="#000000ff" x="244" y="104" width="7" height="7" />
		<rect fill="#000000ff" x="244" y="132" width="7" height="7" />
		<rect fill="#000000ff" x="244" y="139" width="7" height="7" />
		<rect fill="#000000ff" x="244" y="146" width="7" height="7" />
		<rect fill="#000000ff" x="244" y="174" width="7" height="7" />
		<rect fill="#000000ff" x="244" y="195" width="7" height="7" />
		<rect fill="#000000ff" x="244" y="202" width="7" height="7" />
		<rect fill="#000000ff" x="244" y="216" width="7" height="7" />
		<rect fill="#000000ff" x="244" y="223" width="7" height="7" />
		<rect fill="#000000ff" x="244" y="230" width="7" height="7" />
		<rect fill="#000000ff" x="244" y="237" width="7" height="7" />
		<rect fill="#000000ff" x="244" y="244" width="7" height="7" />
		<rect fill="#000000ff" x="244" y="251" width="7" height="7" />
		<rect fill="#000000ff" x="244" y="258" width="7" height="7" />
		<rect fill="#000000ff" x="244" y="265" width="7" height="7" />
		<rect fill="#000000ff" x="251" y="20" width="7" height="7" />
		<rect fill="#000000ff" x="251" y="34" width="7" height="7" />
		<rect fill="#000000ff" x="251" y="41" width="7" height="7" />
		<rect fill="#000000ff" x="251" y="48" width="7" height="7" />
		<rect fill="#000000ff" x="251" y="62" width="7" height="7" />
		<rect fill="#000000ff" x="251" y="83" width="7" height="7" />
		<rect fill="#000000ff" x="251" y="97" width="7" height="7" />
		<rect fill="#000000ff" x="251" y="111" width="7" height="7" />
		<rect fill="#000000ff" x="251" y="118" width="7" height="7" />
		<rect fill="#000000ff" x="251" y="125" width="7" height="7" />
		<rect fill="#000000ff" x="251" y="153" width="7" height="7" />
		<rect fill="#000000ff" x="251" y="160" width="7" height="7" />
		<rect fill="#000000ff" x="251" y="181" width="7" height="7" />
		<rect fill="#000000ff" x="251" y="188" width="7" height="7" />
		<rect fill="#000000ff" x="251" y="195" width="7" height="7" />
		<rect fill="#000000ff" x="251" y="230" width="7" height="7" />
		<rect fill="#000000ff" x="251" y="237" width="7" height="7" />
		<rect fill="#000000ff" x="251" y="244" width="7" height="7" />
		<rect fill="#000000ff" x="251" y="258" width="7" height="7" />
		<rect fill="#000000ff" x="251" y="265" width="7" height="7" />
		<rect fill="#000000ff" x="258" y="20" width="7" height="7" />
		<rect fill="#000000ff" x="258" y="34" width="7" height="7" />
		<rect fill="#000000ff" x="258" y="41" width="7" height="7" />
		<rect fill="#000000ff" x="258" y="48" width="7" height="7" />
		<rect fill="#000000ff" x="258" y="62" width="7" height="7" />
		<rect fill="#000000ff" x="258" y="76" width="7" height="7" />
		<rect fill="#000000ff" x="258" y="90" width="7" height="7" />
		<rect fill="#000000ff" x="258" y="118" width="7" height="7" />
		<rect fill="#000000ff" x="258" y="125" width="7" height="7" />
		<rect fill="#000000ff" x="258" y="132" width="7" height="7" />
		<rect fill="#000000ff" x="258" y="146" width="7" height="7" />
		<rect fill="#000000ff" x="258" y="153" width="7" height="7" />
		<rect fill="#000000ff" x="258" y="174" width="7" height="7" />
		<rect fill="#000000ff" x="258" y="188" width="7" height="7" />
		<rect fill="#000000ff" x="258" y="202" width="7" height="7" />
		<rect fill="#000000ff" x="258" y="216" width="7" height="7" />
		<rect fill="#000000ff" x="258" y="230" width="7" height="7" />
		<rect fill="#000000ff" x="258" y="237" width="7" height="7" />
		<rect fill="#000000ff" x="258" y="258" width="7" height="7" />
		<rect fill="#000000ff" x="258" y="265" width="7" height="7" />
		<rect fill="#000000ff" x="265" y="20" width="7" height="7" />
		<rect fill="#000000ff" x="265" y="62" width="7" height="7" />
		<rect fill="#000000ff" x="265" y="76" width="7" height="7" />
		<rect fill="#000000ff" x="265" y="83" width="7" height="7" />
		<rect fill="#000000ff" x="265" y="90" width="7" height="7" />
		<rect fill="#000000ff" x="265" y="111" width="7" height="7" />
		<rect fill="#000000ff" x="265" y="132" width="7" height="7" />
		<rect fill="#000000ff" x="265" y="146" width="7" height="7" />
		<rect fill="#000000ff" x="265" y="167" width="7" height="7" />
		<rect fill="#000000ff" x="265" y="174" width="7" height="7" />
		<rect fill="#000000ff" x="265" y="188" width="7" height="7" />
		<rect fill="#000000ff" x="265" y="195" width="7" height="7" />
		<rect fill="#000000ff" x="265" y="202" width="7" height="7" />
		<rect fill="#000000ff" x="265" y="216" width="7" height="7" />
		<rect fill="#000000ff" x="265" y="223" width="7" height="7" />
		<rect fill="#000000ff" x="265" y="230" width="7" height="7" />
		<rect fill="#000000ff" x="265" y="244" width="7" height="7" />
		<rect fill="#000000ff" x="265" y="251" width="7" height="7" />
		<rect fill="#000000ff" x="265" y="265" width="7" height="7" />
		<rect fill="#000000ff" x="265" y="272" width="7" height="7" />
		<rect fill="#000000ff" x="272" y="20" width="7" height="7" />
		<rect fill="#000000ff" x="272" y="27" width="7" height="7" />
		<rect fill="#000000ff" x="272" y="34" width="7" height="7" />
		<rect fill="#000000ff" x="272" y="41" width="7" height="7" />
		<rect fill="#000000ff" x="272" y="48" width="7" height="7" />
		<rect fill="#000000ff" x="272" y="55" width="7" height="7" />
		<rect fill="#000000ff" x="272" y="62" width="7" height="7" />
		<rect fill="#000000ff" x="272" y="76" width="7" height="7" />
		<rect fill="#000000ff" x="272" y="104" width="7" height="7" />
		<rect fill="#000000ff" x="272" y="111" width="7" height="7" />
		<rect fill="#000000ff" x="272" y="132" width="7" height="7" />
		<rect fill="#000000ff" x="272" y="139" width="7" height="7" />
		<rect fill="#000000ff" x="272" y="146" width="7" height="7" />
		<rect fill="#000000ff" x="272" y="174" width="7" height="7" />
		<rect fill="#000000ff" x="272" y="188" width="7" height="7" />
		<rect fill="#000000ff" x="272" y="195" width="7" height="7" />
		<rect fill="#000000ff" x="272" y="216" width="7" height="7" />
		<rect fill="#000000ff" x="272" y="223" width="7" height="7" />
		<rect fill="#000000ff" x="272" y="230" width="7" height="7" />
		<rect fill="#000000ff" x="272" y="244" width="7" height="7" />
		<rect fill="#000000ff" x="272" y="251" width="7" height="7" />
		<rect fill="#000000ff" x="272" y="258" width="7" height="7" />
		<rect fill="#000000ff" x="272" y="272" width="7" height="7" />

	</g>
</svg>