<?xml version="1.0" encoding="utf-8"?>
<svg xmlns="http://www.w3.org/2000/svg" xmlns:xlink="http://www.w3.org/1999/xlink" width="500" height="500" viewBox="0 0 500 500">

	<symbol id="txt" viewBox="0 0 3050 1024"><path d="M3047.733168 222.899918c4.052938 25.329568 1.01326 57.751347-2.026418 86.120391-9.119034 137.792686-15.19839 265.453484-28.37026 412.364697-11.145452 118.542169-7.092616 132.726691-30.396678 150.963948-27.357 22.289992-100.309171 16.21094-119.560397 13.171363 15.19839-177.306675 35.462876-343.468404 46.608328-528.880549 3.039678-65.856817 11.145452-121.581746-54.714102-126.647639-61.806617-3.039577-56.740521-2.026317-191.499308-2.026317-128.679431 0-132.732267-1.013158-189.472788-1.013158-32.423198 0-65.859555-7.092312-72.952069-24.316309-4.052938-11.144945-1.01326-34.448197 4.052938-54.71177 3.039678-12.158205 6.079356-24.316309 10.132192-36.474514l143.877766 0c-3.039678 16.21094-5.066096 20.263574-8.105774 31.40862-1.01326 5.065893 0 7.092312 3.039678 7.092312l398.196915 0C3000.111682 149.950891 3042.667072 175.280459 3047.733168 222.899918L3047.733168 222.899918zM2849.141346 328.270826c-3.039678 21.276833-5.066096 47.61956-8.105774 70.92271l-149.957108 0c-4.052938 39.51409-10.132192 80.041339-14.18513 123.608063 51.674424 0 110.441363-1.013158 166.168725-1.013158l-6.079356 69.909451-165.155463 0c-5.066096 48.632719-10.132192 104.357648-17.224808 154.003525l52.687632 0c4.052938-20.263574 7.092616-46.6063 10.132192-70.92271l109.42816 0c-4.052938 36.474514-7.092616 88.146809-20.264486 125.634481-16.211548 49.645877-143.87772 42.553565-227.975342 42.553565-72.952069 0-174.274499 3.039577-213.790212-28.369044-35.462876-27.355885-18.238068-97.265437-10.132192-139.819003l113.481055 0c-3.039678 25.329568-4.052938 53.698612-7.092616 70.92271l61.806646 0c5.066096-47.61956 13.17187-104.357648 18.238068-154.003525l-184.406714 0c3.039678-23.30315 4.052938-45.593142 7.092616-68.896292 60.793458 0 120.573657-1.013158 181.367014-1.013158 5.066096-35.461355 10.132192-82.067656 15.19839-122.594904-25.330582 0-30.396678-1.013158-31.409938 0-7.092616 3.039577-14.18513 11.144945-43.56865 24.316309-39.515712 19.250415-71.93891 23.30315-120.573657 32.421779 4.052938-25.329568 7.092616-51.672194 10.132192-77.001762 45.595068-21.276833 80.044685-52.685454 105.375267-95.239019l101.32237 0c-5.066096 13.171363-10.132192 28.369044-17.224808 44.579984L2849.141266 328.270826zM2231.074875 113.476377c60.793458-8.10547 135.771945 21.276833 127.666171 89.159967-12.158712 102.331331-246.21341 94.225861-218.856308-24.316309C2149.003772 140.832263 2181.426868 120.568588 2231.074875 113.476377L2231.074875 113.476377zM2308.079881 462.010675c3.039678 73.962186-15.19839 150.963948-34.449616 222.899817-19.251226 72.949027-37.489294 139.819003-56.740521 200.609825l-143.877766 0c20.264486-64.843557 39.515712-135.766268 62.819877-208.715295 21.277746-69.909451 49.648006-139.819003 64.846295-204.66256 13.17187-59.777664-22.290904-103.344489-74.978588-111.449959 4.052938-27.355885 5.066096-53.698612 12.158712-74.975445C2228.035197 310.033467 2303.013785 356.639869 2308.079881 462.010675L2308.079881 462.010675zM1880.499458 273.558954l188.459608 0-8.105774 81.054497-901.769094 0c4.052938-24.316309 7.092616-56.738189 10.132192-81.054497l185.419937 0c-4.052938-11.144945-12.158712-34.448197-17.224808-46.6063l137.798423 0 14.18513 46.6063 273.570399 0 34.449616-46.6063 111.454607 0C1903.803622 238.0977 1888.605232 258.361273 1880.499458 273.558954L1880.499458 273.558954zM1703.18528 143.871839l358.68119 0c-3.039678 20.263574-4.052938 41.540407-7.092616 64.843557l-854.14758 0c2.026418-21.276833 5.066096-43.566825 8.105774-64.843557l346.522506 0c3.039678-12.158205 4.052938-23.30315 7.092616-34.448197l146.917437 0C1706.224958 120.568588 1706.224958 131.713634 1703.18528 143.871839L1703.18528 143.871839zM2015.258245 715.305954c9.119034 11.144945 2.026418 51.672194-3.039678 84.094074l-145.904213 0c3.039678-21.276833 4.052938-45.593142 7.092616-68.896292-15.19839 8.10547-15.19839 8.10547-68.899232 32.421779-49.648006 22.289992-54.714102 27.355885-70.925651 32.421779-21.277746 5.065893-27.357 5.065893-77.005007 5.065893-55.727261 0-65.859555-1.013158-73.965329-7.092312-12.158712-9.118628-26.343842-58.764505-34.449616-80.041339l147.93066 0c4.052938 16.21094 6.079356 33.434937 14.18513 50.659035 3.039678 3.039577 4.052938 5.065893 11.145452 4.052735 57.75378-27.355885 98.282651-45.593142 138.811623-62.81724 3.039678-1.013158 39.515712-1.013158 91.190137-1.013158C1986.887984 704.161009 2004.112792 704.161009 2015.258245 715.305954L2015.258245 715.305954zM1712.304314 825.742755l299.914216 0c-3.039678 21.276833-4.052938 37.487672-7.092616 60.790822l-469.122574 0c-65.859555 0-209.737274 8.10547-220.882726-46.6063-8.105774-39.51409 2.026418-94.225861 5.066096-129.687216l138.811647 0c-4.052938 35.461355-9.119034 72.949027-9.119034 102.331331 0 7.092312 4.052938 8.10547 9.119034 11.144945 3.039678 1.013158 6.079356 2.026317 9.119034 2.026317L1712.304273 825.742653zM1961.557402 437.694366c12.158712 35.461355 4.052938 73.962186 0 113.476276s-9.119034 72.949027-14.18513 112.463118l-709.256591 0c16.211548-174.2672-2.026418-279.638006 101.322329-279.638006l284.71586 0 243.173688 0C1908.869718 383.995754 1950.411848 406.285746 1961.557402 437.694366L1961.557402 437.694366zM1821.732519 592.711049c4.052938-37.487672 8.105774-84.094074 13.17187-124.621323-16.211548-7.092312-27.357-13.171363-50.661165-13.171363l-166.168687 0-223.922438 0-4.052938 41.540407 341.456387 0-8.105774 60.790822-338.416716 0c-1.01326 12.158205-1.01326 23.30315-4.052938 35.461355L1821.732433 592.710948zM1156.044561 709.226902l135.771976 0c-3.039678 25.329568-4.052938 51.672194-7.092616 79.02818s-2.026418 58.764505-13.17187 74.975445c-23.304164 31.40862-132.732267 18.237257-135.771945 18.237257C1142.872589 821.69002 1147.938685 761.912356 1156.044561 709.226902L1156.044561 709.226902zM1103.356877 435.667948c20.264486 47.61956 42.55539 94.225861 38.502453 160.082576-11.145452 152.990366-147.930657 263.427066-314.099383 255.321697-144.890979-8.10547-230.00176-88.146809-271.543992-208.715295 30.396678-28.369044 106.388527-22.289992 133.745527 2.026317 11.145452 11.144945 13.17187 23.30315 22.290904 34.448197 27.357 32.421779 67.885973 57.751347 121.586815 60.790822 152.996754 8.10547 227.975342-173.25394 129.692589-271.532536-88.150459-88.146809-281.676185-44.579984-285.729122 97.265437-23.304164 32.421779-73.965329 53.698612-127.666171 40.527249-8.105774-154.003525 75.991747-234.044863 184.406692-279.638006-22.290904-22.289992-38.502453-34.448197-81.057944-66.869975-32.423198-24.316309-49.648006-34.448197-85.110781-66.869975-48.634746-45.593142-55.727261-136.779426-4.052938-186.425303 91.190137 102.331331 212.776952 176.293516 320.178739 265.453484-31.409938-44.579984-86.124041-90.173126-133.745527-133.739951-13.17187-12.158205-39.515712-31.40862-42.55539-44.579984-8.105774-35.461355 38.502453-80.041339 58.766939-93.212702 67.885973 126.647639 168.195143 222.899817 249.252987 336.376194 0 1.013158 1.01326 2.026317 2.026418 3.039577l2.026418 3.039577-2.026418-3.039577c-36.476034-67.883134-82.071103-140.832161-123.613335-209.728453 16.211548-24.316309 40.528972-40.527249 68.899232-52.685454C995.955191 205.67582 1051.682452 317.125779 1103.356877 435.667948L1103.356877 435.667948zM563.308671 246.203068c46.608328 16.21094 24.317323 78.014921 11.145452 121.581746-59.780199 59.777664-96.256233 191.491197-58.766939 299.901579-27.357 35.461355-65.859555 55.724929-101.322329 81.054497 39.515712 48.632719 78.018266 92.199443 117.533979 139.819003l-149.957108 0-72.952069-77.001762c-90.176877 48.632719-189.472788 86.120391-308.020027 109.423541l14.18513-58.764505c85.110781-31.40862 158.06285-73.962186 226.962082-121.581746-35.462876-40.527249-68.899232-78.014921-105.375267-121.581746 19.251226-96.252178 35.462876-191.491197 54.714102-285.717057-85.110781 0-150.970335 14.184522-154.010013-87.133549l169.208358 0 3.039678-15.19768c3.039678-9.118628 4.052938-20.263574 7.092616-32.421779 3.039678-13.171363 6.079356-29.382303 11.145452-47.61956l135.771976 0c-7.092616 31.40862-13.17187 62.81724-21.277746 94.225861C414.364754 245.18991 490.356501 245.18991 563.308671 246.203068L563.308671 246.203068zM444.761433 333.336719l-121.586844 0c-12.158712 55.724929-50.661165 247.216227-50.661165 251.268962 0 0 53.700843 65.856817 64.846295 77.001762 23.304164-21.276833 52.687583-54.71177 54.714102-56.738189C392.07385 601.829678 432.602822 394.127541 444.761433 333.336719z"></path></symbol>
	<g id="qr">
		<rect fill="#ffffffff" x="0" y="0" width="500" height="500" />
		<rect fill="#000000ff" x="28" y="28" width="12" height="12" />
		<rect fill="#000000ff" x="28" y="40" width="12" height="12" />
		<rect fill="#000000ff" x="28" y="52" width="12" height="12" />
		<rect fill="#000000ff" x="28" y="64" width="12" height="12" />
		<rect fill="#000000ff" x="28" y="76" width="12" height="12" />
		<rect fill="#000000ff" x="28" y="88" width="12" height="12" />
		<rect fill="#000000ff" x="28" y="100" width="12" height="12" />
		<rect fill="#000000ff" x="28" y="388" width="12" height="12" />
		<rect fill="#000000ff" x="28" y="400" width="12" height="12" />
		<rect fill="#000000ff" x="28" y="412" width="12" height="12" />
		<rect fill="#000000ff" x="28" y="424" width="12" height="12" />
		<rect fill="#000000ff" x="28" y="436" width="12" height="12" />
		<rect fill="#000000ff" x="28" y="448" width="12" height="12" />
		<rect fill="#000000ff" x="28" y="460" width="12" height="12" />
		<rect fill="#000000ff" x="40" y="28" width="12" height="12" />
		<rect fill="#000000ff" x="40" y="100" width="12" height="12" />
		<rect fill="#000000ff" x="40" y="388" width="12" height="12" />
		<rect fill="#000000ff" x="40" y="460" width="12" height="12" />
		<rect fill="#000000ff" x="52" y="28" width="12" height="12" />
		<rect fill="#000000ff" x="52" y="52" width="12" height="12" />
		<rect fill="#000000ff" x="52" y="64" width="12" height="12" />
		<rect fill="#000000ff" x="52" y="76" width="12" height="12" />
		<rect fill="#000000ff" x="52" y="100" width="12" height="12" />
		<rect fill="#000000ff" x="52" y="388" width="12" height="12" />
		<rect fill="#000000ff" x="52" y="412" width="12" height="12" />
		<rect fill="#000000ff" x="52" y="424" width="12" height="12" />
		<rect fill="#000000ff" x="52" y="436" width="12" height="12" />
		<rect fill="#000000ff" x="52" y="460" width="12" height="12" />
		<rect fill="#000000ff" x="64" y="28" width="12" height="12" />
		<rect fill="#000000ff" x="64" y="52" width="12" height="12" />
		<rect fill="#000000ff" x="64" y="64" width="12" height="12" />
		<rect fill="#000000ff" x="64" y="76" width="12" height="12" />
		<rect fill="#000000ff" x="64" y="100" width="12" height="12" />
		<rect fill="#000000ff" x="64" y="388" width="12" height="12" />
		<rect fill="#000000ff" x="64" y="412" width="12" height="12" />
		<rect fill="#000000ff" x="64" y="424" width="12" height="12" />
		<rect fill="#000000ff" x="64" y="436" width="12" height="12" />
		<rect fill="#000000ff" x="64" y="460" width="12" height="12" />
		<rect fill="#000000ff" x="76" y="28" width="12" height="12" />
		<rect fill="#000000ff" x="76" y="52" width="12" height="12" />
		<rect fill="#000000ff" x="76" y="64" width="12" height="12" />
		<rect fill="#000000ff" x="76" y="76" width="12" height="12" />
		<rect fill="#000000ff" x="76" y="100" width="12" height="12" />
		<rect fill="#000000ff" x="76" y="388" width="12" height="12" />
		<rect fill="#000000ff" x="76" y="412" width="12" height="12" />
		<rect fill="#000000ff" x="76" y="424" width="12" height="12" />
		<rect fill="#000000ff" x="76" y="436" width="12" height="12" />
		<rect fill="#000000ff" x="76" y="460" width="12" height="12" />
		<rect fill="#000000ff" x="88" y="28" width="12" height="12" />
		<rect fill="#000000ff" x="88" y="100" width="12" height="12" />
		<rect fill="#000000ff" x="88" y="388" width="12" height="12" />
		<rect fill="#000000ff" x="88" y="460" width="12" height="12" />
		<rect fill="#000000ff" x="100" y="28" width="12" height="12" />
		<rect fill="#000000ff" x="100" y="40" width="12" height="12" />
		<rect fill="#000000ff" x="100" y="52" width="12" height="12" />
		<rect fill="#000000ff" x="100" y="64" width="12" height="12" />
		<rect fill="#000000ff" x="100" y="76" width="12" height="12" />
		<rect fill="#000000ff" x="100" y="88" width="12" height="12" />
		<rect fill="#000000ff" x="100" y="100" width="12" height="12" />
		<rect fill="#000000ff" x="100" y="388" width="12" height="12" />
		<rect fill="#000000ff" x="100" y="400" width="12" height="12" />
		<rect fill="#000000ff" x="100" y="412" width="12" height="12" />
		<rect fill="#000000ff" x="100" y="424" width="12" height="12" />
		<rect fill="#000000ff" x="100" y="436" width="12" height="12" />
		<rect fill="#000000ff" x="100" y="448" width="12" height="12" />
		<rect fill="#000000ff" x="100" y="460" width="12" height="12" />
		<rect fill="#000000ff" x="364" y="364" width="12" height="12" />
		<rect fill="#000000ff" x="364" y="376" width="12" height="12" />
		<rect fill="#000000ff" x="364" y="388" width="12" height="12" />
		<rect fill="#000000ff" x="364" y="400" width="12" height="12" />
		<rect fill="#000000ff" x="364" y="412" width="12" height="12" />
		<rect fill="#000000ff" x="376" y="364" width="12" height="12" />
		<rect fill="#000000ff" x="376" y="412" width="12" height="12" />
		<rect fill="#000000ff" x="388" y="28" width="12" height="12" />
		<rect fill="#000000ff" x="388" y="40" width="12" height="12" />
		<rect fill="#000000ff" x="388" y="52" width="12" height="12" />
		<rect fill="#000000ff" x="388" y="64" width="12" height="12" />
		<rect fill="#000000ff" x="388" y="76" width="12" height="12" />
		<rect fill="#000000ff" x="388" y="88" width="12" height="12" />
		<rect fill="#000000ff" x="388" y="100" width="12" height="12" />
		<rect fill="#000000ff" x="388" y="364" width="12" height="12" />
		<rect fill="#000000ff" x="388" y="388" width="12" height="12" />
		<rect fill="#000000ff" x="388" y="412" width="12" height="12" />
		<rect fill="#000000ff" x="400" y="28" width="12" height="12" />
		<rect fill="#000000ff" x="400" y="100" width="12" height="12" />
		<rect fill="#000000ff" x="400" y="364" width="12" height="12" />
		<rect fill="#000000ff" x="400" y="412" width="12" height="12" />
		<rect fill="#000000ff" x="412" y="28" width="12" height="12" />
		<rect fill="#000000ff" x="412" y="52" width="12" height="12" />
		<rect fill="#000000ff" x="412" y="64" width="12" height="12" />
		<rect fill="#000000ff" x="412" y="76" width="12" height="12" />
		<rect fill="#000000ff" x="412" y="100" width="12" height="12" />
		<rect fill="#000000ff" x="412" y="364" width="12" height="12" />
		<rect fill="#000000ff" x="412" y="376" width="12" height="12" />
		<rect fill="#000000ff" x="412" y="388" width="12" height="12" />
		<rect fill="#000000ff" x="412" y="400" width="12" height="12" />
		<rect fill="#000000ff" x="412" y="412" width="12" height="12" />
		<rect fill="#000000ff" x="424" y="28" width="12" height="12" />
		<rect fill="#000000ff" x="424" y="52" width="12" height="12" />
		<rect fill="#000000ff" x="424" y="64" width="12" height="12" />
		<rect fill="#000000ff" x="424" y="76" width="12" height="12" />
		<rect fill="#000000ff" x="424" y="100" width="12" height="12" />
		<rect fill="#000000ff" x="436" y="28" width="12" height="12" />
		<rect fill="#000000ff" x="436" y="52" width="12" height="12" />
		<rect fill="#000000ff" x="436" y="64" width="12" height="12" />
		<rect fill="#000000ff" x="436" y="76" width="12" height="12" />
		<rect fill="#000000ff" x="436" y="100" width="12" height="12" />
		<rect fill="#000000ff" x="448" y="28" width="12" height="12" />
		<rect fill="#000000ff" x="448" y="100" width="12" height="12" />
		<rect fill="#000000ff" x="460" y="28" width="12" height="12" />
		<rect fill="#000000ff" x="460" y="40" width="12" height="12" />
		<rect fill="#000000ff" x="460" y="52" width="12" height="12" />
		<rect fill="#000000ff" x="460" y="64" width="12" height="12" />
		<rect fill="#000000ff" x="460" y="76" width="12" height="12" />
		<rect fill="#000000ff" x="460" y="88" width="12" height="12" />
		<rect fill="#000000ff" x="460" y="100" width="12" height="12" />
		<use xlink:href="#txt" x="124" y="52" width="36" height="12" />
		<use xlink:href="#txt" x="124" y="172" width="36" height="12" />
		<use xlink:href="#txt" x="124" y="376" width="36" height="12" />
		<use xlink:href="#txt" x="328" y="172" width="36" height="12" />
		<use xlink:href="#txt" x="436" y="364" width="36" height="12" />
		<polygon points="34.0,136.6 30.4,147.88 39.4,140.68 28.6,140.68 37.6,147.88 "  style="fill:#000000ff;fill-rule:nonzero;" />
		<polygon points="34.0,172.6 30.4,183.88 39.4,176.68 28.6,176.68 37.6,183.88 "  style="fill:#000000ff;fill-rule:nonzero;" />
		<polygon points="34.0,244 28,256.0 40.0,256.0 "  style="fill:#000000ff;fill-rule:nonzero;" />
		<polygon points="34.0,304 28,316.0 40.0,316.0 "  style="fill:#000000ff;fill-rule:nonzero;" />
		<polygon points="34.0,328.6 30.4,339.88 39.4,332.68 28.6,332.68 37.6,339.88 "  style="fill:#000000ff;fill-rule:nonzero;" />
		<polygon points="34.0,340.6 30.4,351.88 39.4,344.68 28.6,344.68 37.6,351.88 "  style="fill:#000000ff;fill-rule:nonzero;" />
		<polygon points="34.0,352 28,364.0 40.0,364.0 "  style="fill:#000000ff;fill-rule:nonzero;" />
		<polygon points="34.0,364 28,376.0 40.0,376.0 "  style="fill:#000000ff;fill-rule:nonzero;" />
		<polygon points="46.0,196 40,208.0 52.0,208.0 "  style="fill:#000000ff;fill-rule:nonzero;" />
		<polygon points="46.0,208 40,220.0 52.0,220.0 "  style="fill:#000000ff;fill-rule:nonzero;" />
		<polygon points="46.0,244.6 42.4,255.88 51.4,248.68 40.6,248.68 49.6,255.88 "  style="fill:#000000ff;fill-rule:nonzero;" />
		<polygon points="46.0,292 40,304.0 52.0,304.0 "  style="fill:#000000ff;fill-rule:nonzero;" />
		<text fill="#000000ff" font-size="12" y="316" x="40">小</text>
		<polygon points="46.0,328 40,340.0 52.0,340.0 "  style="fill:#000000ff;fill-rule:nonzero;" />
		<polygon points="58.0,124.6 54.4,135.88 63.4,128.68 52.6,128.68 61.6,135.88 "  style="fill:#000000ff;fill-rule:nonzero;" />
		<polygon points="58.0,148.6 54.4,159.88 63.4,152.68 52.6,152.68 61.6,159.88 "  style="fill:#000000ff;fill-rule:nonzero;" />
		<polygon points="58.0,172 52,184.0 64.0,184.0 "  style="fill:#000000ff;fill-rule:nonzero;" />
		<polygon points="58.0,196 52,208.0 64.0,208.0 "  style="fill:#000000ff;fill-rule:nonzero;" />
		<polygon points="58.0,232.6 54.4,243.88 63.4,236.68 52.6,236.68 61.6,243.88 "  style="fill:#000000ff;fill-rule:nonzero;" />
		<polygon points="58.0,256.6 54.4,267.88 63.4,260.68 52.6,260.68 61.6,267.88 "  style="fill:#000000ff;fill-rule:nonzero;" />
		<polygon points="58.0,268.6 54.4,279.88 63.4,272.68 52.6,272.68 61.6,279.88 "  style="fill:#000000ff;fill-rule:nonzero;" />
		<polygon points="58.0,280 52,292.0 64.0,292.0 "  style="fill:#000000ff;fill-rule:nonzero;" />
		<polygon points="58.0,292 52,304.0 64.0,304.0 "  style="fill:#000000ff;fill-rule:nonzero;" />
		<polygon points="58.0,340 52,352.0 64.0,352.0 "  style="fill:#000000ff;fill-rule:nonzero;" />
		<polygon points="58.0,352 52,364.0 64.0,364.0 "  style="fill:#000000ff;fill-rule:nonzero;" />
		<polygon points="58.0,364.6 54.4,375.88 63.4,368.68 52.6,368.68 61.6,375.88 "  style="fill:#000000ff;fill-rule:nonzero;" />
		<polygon points="70.0,124.6 66.4,135.88 75.4,128.68 64.6,128.68 73.6,135.88 "  style="fill:#000000ff;fill-rule:nonzero;" />
		<polygon points="70.0,172 64,184.0 76.0,184.0 "  style="fill:#000000ff;fill-rule:nonzero;" />
		<polygon points="70.0,184.6 66.4,195.88 75.4,188.68 64.6,188.68 73.6,195.88 "  style="fill:#000000ff;fill-rule:nonzero;" />
		<polygon points="70.0,196.6 66.4,207.88 75.4,200.68 64.6,200.68 73.6,207.88 "  style="fill:#000000ff;fill-rule:nonzero;" />
		<polygon points="70.0,208.6 66.4,219.88 75.4,212.68 64.6,212.68 73.6,219.88 "  style="fill:#000000ff;fill-rule:nonzero;" />
		<polygon points="70.0,232 64,244.0 76.0,244.0 "  style="fill:#000000ff;fill-rule:nonzero;" />
		<polygon points="70.0,244.6 66.4,255.88 75.4,248.68 64.6,248.68 73.6,255.88 "  style="fill:#000000ff;fill-rule:nonzero;" />
		<polygon points="70.0,268.6 66.4,279.88 75.4,272.68 64.6,272.68 73.6,279.88 "  style="fill:#000000ff;fill-rule:nonzero;" />
		<polygon points="70.0,328 64,340.0 76.0,340.0 "  style="fill:#000000ff;fill-rule:nonzero;" />
		<polygon points="70.0,352 64,364.0 76.0,364.0 "  style="fill:#000000ff;fill-rule:nonzero;" />
		<polygon points="82.0,124.6 78.4,135.88 87.4,128.68 76.6,128.68 85.6,135.88 "  style="fill:#000000ff;fill-rule:nonzero;" />
		<polygon points="82.0,136 76,148.0 88.0,148.0 "  style="fill:#000000ff;fill-rule:nonzero;" />
		<polygon points="82.0,148.6 78.4,159.88 87.4,152.68 76.6,152.68 85.6,159.88 "  style="fill:#000000ff;fill-rule:nonzero;" />
		<polygon points="82.0,160 76,172.0 88.0,172.0 "  style="fill:#000000ff;fill-rule:nonzero;" />
		<polygon points="82.0,172.6 78.4,183.88 87.4,176.68 76.6,176.68 85.6,183.88 "  style="fill:#000000ff;fill-rule:nonzero;" />
		<polygon points="82.0,184 76,196.0 88.0,196.0 "  style="fill:#000000ff;fill-rule:nonzero;" />
		<polygon points="82.0,196 76,208.0 88.0,208.0 "  style="fill:#000000ff;fill-rule:nonzero;" />
		<polygon points="82.0,208 76,220.0 88.0,220.0 "  style="fill:#000000ff;fill-rule:nonzero;" />
		<polygon points="82.0,232 76,244.0 88.0,244.0 "  style="fill:#000000ff;fill-rule:nonzero;" />
		<polygon points="82.0,292.6 78.4,303.88 87.4,296.68 76.6,296.68 85.6,303.88 "  style="fill:#000000ff;fill-rule:nonzero;" />
		<polygon points="82.0,328.6 78.4,339.88 87.4,332.68 76.6,332.68 85.6,339.88 "  style="fill:#000000ff;fill-rule:nonzero;" />
		<polygon points="82.0,340 76,352.0 88.0,352.0 "  style="fill:#000000ff;fill-rule:nonzero;" />
		<polygon points="82.0,352.6 78.4,363.88 87.4,356.68 76.6,356.68 85.6,363.88 "  style="fill:#000000ff;fill-rule:nonzero;" />
		<polygon points="82.0,364.6 78.4,375.88 87.4,368.68 76.6,368.68 85.6,375.88 "  style="fill:#000000ff;fill-rule:nonzero;" />
		<polygon points="94.0,148 88,160.0 100.0,160.0 "  style="fill:#000000ff;fill-rule:nonzero;" />
		<polygon points="94.0,160.6 90.4,171.88 99.4,164.68 88.6,164.68 97.6,171.88 "  style="fill:#000000ff;fill-rule:nonzero;" />
		<polygon points="94.0,184 88,196.0 100.0,196.0 "  style="fill:#000000ff;fill-rule:nonzero;" />
		<polygon points="94.0,196.6 90.4,207.88 99.4,200.68 88.6,200.68 97.6,207.88 "  style="fill:#000000ff;fill-rule:nonzero;" />
		<polygon points="94.0,208.6 90.4,219.88 99.4,212.68 88.6,212.68 97.6,219.88 "  style="fill:#000000ff;fill-rule:nonzero;" />
		<polygon points="94.0,220.6 90.4,231.88 99.4,224.68 88.6,224.68 97.6,231.88 "  style="fill:#000000ff;fill-rule:nonzero;" />
		<polygon points="94.0,232 88,244.0 100.0,244.0 "  style="fill:#000000ff;fill-rule:nonzero;" />
		<polygon points="94.0,280.6 90.4,291.88 99.4,284.68 88.6,284.68 97.6,291.88 "  style="fill:#000000ff;fill-rule:nonzero;" />
		<polygon points="94.0,304.6 90.4,315.88 99.4,308.68 88.6,308.68 97.6,315.88 "  style="fill:#000000ff;fill-rule:nonzero;" />
		<polygon points="94.0,328 88,340.0 100.0,340.0 "  style="fill:#000000ff;fill-rule:nonzero;" />
		<polygon points="106.0,124.6 102.4,135.88 111.4,128.68 100.6,128.68 109.6,135.88 "  style="fill:#000000ff;fill-rule:nonzero;" />
		<polygon points="106.0,148.6 102.4,159.88 111.4,152.68 100.6,152.68 109.6,159.88 "  style="fill:#000000ff;fill-rule:nonzero;" />
		<polygon points="106.0,172.6 102.4,183.88 111.4,176.68 100.6,176.68 109.6,183.88 "  style="fill:#000000ff;fill-rule:nonzero;" />
		<polygon points="106.0,196 100,208.0 112.0,208.0 "  style="fill:#000000ff;fill-rule:nonzero;" />
		<polygon points="106.0,220.6 102.4,231.88 111.4,224.68 100.6,224.68 109.6,231.88 "  style="fill:#000000ff;fill-rule:nonzero;" />
		<polygon points="106.0,244.6 102.4,255.88 111.4,248.68 100.6,248.68 109.6,255.88 "  style="fill:#000000ff;fill-rule:nonzero;" />
		<polygon points="106.0,268 100,280.0 112.0,280.0 "  style="fill:#000000ff;fill-rule:nonzero;" />
		<polygon points="106.0,292.6 102.4,303.88 111.4,296.68 100.6,296.68 109.6,303.88 "  style="fill:#000000ff;fill-rule:nonzero;" />
		<polygon points="106.0,316 100,328.0 112.0,328.0 "  style="fill:#000000ff;fill-rule:nonzero;" />
		<polygon points="106.0,340.6 102.4,351.88 111.4,344.68 100.6,344.68 109.6,351.88 "  style="fill:#000000ff;fill-rule:nonzero;" />
		<polygon points="106.0,364.6 102.4,375.88 111.4,368.68 100.6,368.68 109.6,375.88 "  style="fill:#000000ff;fill-rule:nonzero;" />
		<polygon points="118.0,148.6 114.4,159.88 123.4,152.68 112.6,152.68 121.6,159.88 "  style="fill:#000000ff;fill-rule:nonzero;" />
		<polygon points="118.0,208 112,220.0 124.0,220.0 "  style="fill:#000000ff;fill-rule:nonzero;" />
		<polygon points="118.0,244.6 114.4,255.88 123.4,248.68 112.6,248.68 121.6,255.88 "  style="fill:#000000ff;fill-rule:nonzero;" />
		<polygon points="118.0,268.6 114.4,279.88 123.4,272.68 112.6,272.68 121.6,279.88 "  style="fill:#000000ff;fill-rule:nonzero;" />
		<polygon points="118.0,304.6 114.4,315.88 123.4,308.68 112.6,308.68 121.6,315.88 "  style="fill:#000000ff;fill-rule:nonzero;" />
		<polygon points="118.0,328.6 114.4,339.88 123.4,332.68 112.6,332.68 121.6,339.88 "  style="fill:#000000ff;fill-rule:nonzero;" />
		<polygon points="118.0,352 112,364.0 124.0,364.0 "  style="fill:#000000ff;fill-rule:nonzero;" />
		<polygon points="118.0,364 112,376.0 124.0,376.0 "  style="fill:#000000ff;fill-rule:nonzero;" />
		<polygon points="130.0,28.6 126.4,39.88 135.4,32.68 124.6,32.68 133.6,39.88 "  style="fill:#000000ff;fill-rule:nonzero;" />
		<polygon points="130.0,40 124,52.0 136.0,52.0 "  style="fill:#000000ff;fill-rule:nonzero;" />
		<polygon points="130.0,88.6 126.4,99.88 135.4,92.68 124.6,92.68 133.6,99.88 "  style="fill:#000000ff;fill-rule:nonzero;" />
		<polygon points="130.0,100.6 126.4,111.88 135.4,104.68 124.6,104.68 133.6,111.88 "  style="fill:#000000ff;fill-rule:nonzero;" />
		<polygon points="130.0,112.6 126.4,123.88 135.4,116.68 124.6,116.68 133.6,123.88 "  style="fill:#000000ff;fill-rule:nonzero;" />
		<polygon points="130.0,124 124,136.0 136.0,136.0 "  style="fill:#000000ff;fill-rule:nonzero;" />
		<polygon points="130.0,148.6 126.4,159.88 135.4,152.68 124.6,152.68 133.6,159.88 "  style="fill:#000000ff;fill-rule:nonzero;" />
		<polygon points="130.0,196 124,208.0 136.0,208.0 "  style="fill:#000000ff;fill-rule:nonzero;" />
		<polygon points="130.0,208.6 126.4,219.88 135.4,212.68 124.6,212.68 133.6,219.88 "  style="fill:#000000ff;fill-rule:nonzero;" />
		<polygon points="130.0,220 124,232.0 136.0,232.0 "  style="fill:#000000ff;fill-rule:nonzero;" />
		<polygon points="130.0,232.6 126.4,243.88 135.4,236.68 124.6,236.68 133.6,243.88 "  style="fill:#000000ff;fill-rule:nonzero;" />
		<polygon points="130.0,244 124,256.0 136.0,256.0 "  style="fill:#000000ff;fill-rule:nonzero;" />
		<polygon points="130.0,256 124,268.0 136.0,268.0 "  style="fill:#000000ff;fill-rule:nonzero;" />
		<polygon points="130.0,316 124,328.0 136.0,328.0 "  style="fill:#000000ff;fill-rule:nonzero;" />
		<polygon points="130.0,328 124,340.0 136.0,340.0 "  style="fill:#000000ff;fill-rule:nonzero;" />
		<polygon points="130.0,340 124,352.0 136.0,352.0 "  style="fill:#000000ff;fill-rule:nonzero;" />
		<polygon points="130.0,364.6 126.4,375.88 135.4,368.68 124.6,368.68 133.6,375.88 "  style="fill:#000000ff;fill-rule:nonzero;" />
		<polygon points="130.0,412.6 126.4,423.88 135.4,416.68 124.6,416.68 133.6,423.88 "  style="fill:#000000ff;fill-rule:nonzero;" />
		<polygon points="130.0,424.6 126.4,435.88 135.4,428.68 124.6,428.68 133.6,435.88 "  style="fill:#000000ff;fill-rule:nonzero;" />
		<polygon points="130.0,436 124,448.0 136.0,448.0 "  style="fill:#000000ff;fill-rule:nonzero;" />
		<polygon points="142.0,88.6 138.4,99.88 147.4,92.68 136.6,92.68 145.6,99.88 "  style="fill:#000000ff;fill-rule:nonzero;" />
		<polygon points="142.0,112.6 138.4,123.88 147.4,116.68 136.6,116.68 145.6,123.88 "  style="fill:#000000ff;fill-rule:nonzero;" />
		<polygon points="142.0,136 136,148.0 148.0,148.0 "  style="fill:#000000ff;fill-rule:nonzero;" />
		<polygon points="142.0,148.6 138.4,159.88 147.4,152.68 136.6,152.68 145.6,159.88 "  style="fill:#000000ff;fill-rule:nonzero;" />
		<polygon points="142.0,160 136,172.0 148.0,172.0 "  style="fill:#000000ff;fill-rule:nonzero;" />
		<polygon points="142.0,196 136,208.0 148.0,208.0 "  style="fill:#000000ff;fill-rule:nonzero;" />
		<polygon points="142.0,208 136,220.0 148.0,220.0 "  style="fill:#000000ff;fill-rule:nonzero;" />
		<polygon points="142.0,244.6 138.4,255.88 147.4,248.68 136.6,248.68 145.6,255.88 "  style="fill:#000000ff;fill-rule:nonzero;" />
		<polygon points="142.0,268.6 138.4,279.88 147.4,272.68 136.6,272.68 145.6,279.88 "  style="fill:#000000ff;fill-rule:nonzero;" />
		<polygon points="142.0,280.6 138.4,291.88 147.4,284.68 136.6,284.68 145.6,291.88 "  style="fill:#000000ff;fill-rule:nonzero;" />
		<polygon points="142.0,292 136,304.0 148.0,304.0 "  style="fill:#000000ff;fill-rule:nonzero;" />
		<polygon points="142.0,304 136,316.0 148.0,316.0 "  style="fill:#000000ff;fill-rule:nonzero;" />
		<polygon points="142.0,316.6 138.4,327.88 147.4,320.68 136.6,320.68 145.6,327.88 "  style="fill:#000000ff;fill-rule:nonzero;" />
		<polygon points="142.0,328.6 138.4,339.88 147.4,332.68 136.6,332.68 145.6,339.88 "  style="fill:#000000ff;fill-rule:nonzero;" />
		<polygon points="142.0,412.6 138.4,423.88 147.4,416.68 136.6,416.68 145.6,423.88 "  style="fill:#000000ff;fill-rule:nonzero;" />
		<polygon points="154.0,40 148,52.0 160.0,52.0 "  style="fill:#000000ff;fill-rule:nonzero;" />
		<polygon points="154.0,64.6 150.4,75.88 159.4,68.68 148.6,68.68 157.6,75.88 "  style="fill:#000000ff;fill-rule:nonzero;" />
		<polygon points="154.0,76 148,88.0 160.0,88.0 "  style="fill:#000000ff;fill-rule:nonzero;" />
		<polygon points="154.0,88.6 150.4,99.88 159.4,92.68 148.6,92.68 157.6,99.88 "  style="fill:#000000ff;fill-rule:nonzero;" />
		<polygon points="154.0,100.6 150.4,111.88 159.4,104.68 148.6,104.68 157.6,111.88 "  style="fill:#000000ff;fill-rule:nonzero;" />
		<polygon points="154.0,112.6 150.4,123.88 159.4,116.68 148.6,116.68 157.6,123.88 "  style="fill:#000000ff;fill-rule:nonzero;" />
		<polygon points="154.0,124.6 150.4,135.88 159.4,128.68 148.6,128.68 157.6,135.88 "  style="fill:#000000ff;fill-rule:nonzero;" />
		<polygon points="154.0,148 148,160.0 160.0,160.0 "  style="fill:#000000ff;fill-rule:nonzero;" />
		<polygon points="154.0,160.6 150.4,171.88 159.4,164.68 148.6,164.68 157.6,171.88 "  style="fill:#000000ff;fill-rule:nonzero;" />
		<polygon points="154.0,184 148,196.0 160.0,196.0 "  style="fill:#000000ff;fill-rule:nonzero;" />
		<polygon points="154.0,208 148,220.0 160.0,220.0 "  style="fill:#000000ff;fill-rule:nonzero;" />
		<polygon points="154.0,220.6 150.4,231.88 159.4,224.68 148.6,224.68 157.6,231.88 "  style="fill:#000000ff;fill-rule:nonzero;" />
		<polygon points="154.0,244 148,256.0 160.0,256.0 "  style="fill:#000000ff;fill-rule:nonzero;" />
		<polygon points="154.0,256 148,268.0 160.0,268.0 "  style="fill:#000000ff;fill-rule:nonzero;" />
		<polygon points="154.0,292 148,304.0 160.0,304.0 "  style="fill:#000000ff;fill-rule:nonzero;" />
		<polygon points="154.0,316 148,328.0 160.0,328.0 "  style="fill:#000000ff;fill-rule:nonzero;" />
		<polygon points="154.0,328.6 150.4,339.88 159.4,332.68 148.6,332.68 157.6,339.88 "  style="fill:#000000ff;fill-rule:nonzero;" />
		<polygon points="154.0,364 148,376.0 160.0,376.0 "  style="fill:#000000ff;fill-rule:nonzero;" />
		<polygon points="154.0,388.6 150.4,399.88 159.4,392.68 148.6,392.68 157.6,399.88 "  style="fill:#000000ff;fill-rule:nonzero;" />
		<polygon points="154.0,400 148,412.0 160.0,412.0 "  style="fill:#000000ff;fill-rule:nonzero;" />
		<polygon points="154.0,424.6 150.4,435.88 159.4,428.68 148.6,428.68 157.6,435.88 "  style="fill:#000000ff;fill-rule:nonzero;" />
		<polygon points="154.0,448.6 150.4,459.88 159.4,452.68 148.6,452.68 157.6,459.88 "  style="fill:#000000ff;fill-rule:nonzero;" />
		<polygon points="166.0,52 160,64.0 172.0,64.0 "  style="fill:#000000ff;fill-rule:nonzero;" />
		<polygon points="166.0,64.6 162.4,75.88 171.4,68.68 160.6,68.68 169.6,75.88 "  style="fill:#000000ff;fill-rule:nonzero;" />
		<polygon points="166.0,76.6 162.4,87.88 171.4,80.68 160.6,80.68 169.6,87.88 "  style="fill:#000000ff;fill-rule:nonzero;" />
		<polygon points="166.0,112.6 162.4,123.88 171.4,116.68 160.6,116.68 169.6,123.88 "  style="fill:#000000ff;fill-rule:nonzero;" />
		<polygon points="166.0,124.6 162.4,135.88 171.4,128.68 160.6,128.68 169.6,135.88 "  style="fill:#000000ff;fill-rule:nonzero;" />
		<polygon points="166.0,148 160,160.0 172.0,160.0 "  style="fill:#000000ff;fill-rule:nonzero;" />
		<polygon points="166.0,184 160,196.0 172.0,196.0 "  style="fill:#000000ff;fill-rule:nonzero;" />
		<polygon points="166.0,196 160,208.0 172.0,208.0 "  style="fill:#000000ff;fill-rule:nonzero;" />
		<polygon points="166.0,208.6 162.4,219.88 171.4,212.68 160.6,212.68 169.6,219.88 "  style="fill:#000000ff;fill-rule:nonzero;" />
		<polygon points="166.0,256 160,268.0 172.0,268.0 "  style="fill:#000000ff;fill-rule:nonzero;" />
		<polygon points="166.0,280 160,292.0 172.0,292.0 "  style="fill:#000000ff;fill-rule:nonzero;" />
		<polygon points="166.0,328.6 162.4,339.88 171.4,332.68 160.6,332.68 169.6,339.88 "  style="fill:#000000ff;fill-rule:nonzero;" />
		<polygon points="166.0,340 160,352.0 172.0,352.0 "  style="fill:#000000ff;fill-rule:nonzero;" />
		<polygon points="166.0,364 160,376.0 172.0,376.0 "  style="fill:#000000ff;fill-rule:nonzero;" />
		<polygon points="166.0,376.6 162.4,387.88 171.4,380.68 160.6,380.68 169.6,387.88 "  style="fill:#000000ff;fill-rule:nonzero;" />
		<polygon points="178.0,40.6 174.4,51.88 183.4,44.68 172.6,44.68 181.6,51.88 "  style="fill:#000000ff;fill-rule:nonzero;" />
		<polygon points="178.0,52 172,64.0 184.0,64.0 "  style="fill:#000000ff;fill-rule:nonzero;" />
		<polygon points="178.0,64 172,76.0 184.0,76.0 "  style="fill:#000000ff;fill-rule:nonzero;" />
		<polygon points="178.0,76 172,88.0 184.0,88.0 "  style="fill:#000000ff;fill-rule:nonzero;" />
		<polygon points="178.0,100.6 174.4,111.88 183.4,104.68 172.6,104.68 181.6,111.88 "  style="fill:#000000ff;fill-rule:nonzero;" />
		<polygon points="178.0,112.6 174.4,123.88 183.4,116.68 172.6,116.68 181.6,123.88 "  style="fill:#000000ff;fill-rule:nonzero;" />
		<polygon points="178.0,124 172,136.0 184.0,136.0 "  style="fill:#000000ff;fill-rule:nonzero;" />
		<polygon points="178.0,136 172,148.0 184.0,148.0 "  style="fill:#000000ff;fill-rule:nonzero;" />
		<polygon points="178.0,184 172,196.0 184.0,196.0 "  style="fill:#000000ff;fill-rule:nonzero;" />
		<polygon points="178.0,196 172,208.0 184.0,208.0 "  style="fill:#000000ff;fill-rule:nonzero;" />
		<text fill="#000000ff" font-size="12" y="220" x="172">灰</text>
		<polygon points="178.0,244.6 174.4,255.88 183.4,248.68 172.6,248.68 181.6,255.88 "  style="fill:#000000ff;fill-rule:nonzero;" />
		<polygon points="178.0,292 172,304.0 184.0,304.0 "  style="fill:#000000ff;fill-rule:nonzero;" />
		<polygon points="178.0,304.6 174.4,315.88 183.4,308.68 172.6,308.68 181.6,315.88 "  style="fill:#000000ff;fill-rule:nonzero;" />
		<polygon points="178.0,316.6 174.4,327.88 183.4,320.68 172.6,320.68 181.6,327.88 "  style="fill:#000000ff;fill-rule:nonzero;" />
		<polygon points="178.0,364.6 174.4,375.88 183.4,368.68 172.6,368.68 181.6,375.88 "  style="fill:#000000ff;fill-rule:nonzero;" />
		<polygon points="178.0,388.6 174.4,399.88 183.4,392.68 172.6,392.68 181.6,399.88 "  style="fill:#000000ff;fill-rule:nonzero;" />
		<polygon points="178.0,412 172,424.0 184.0,424.0 "  style="fill:#000000ff;fill-rule:nonzero;" />
		<polygon points="178.0,424 172,436.0 184.0,436.0 "  style="fill:#000000ff;fill-rule:nonzero;" />
		<polygon points="178.0,436.6 174.4,447.88 183.4,440.68 172.6,440.68 181.6,447.88 "  style="fill:#000000ff;fill-rule:nonzero;" />
		<polygon points="178.0,448 172,460.0 184.0,460.0 "  style="fill:#000000ff;fill-rule:nonzero;" />
		<polygon points="178.0,460 172,472.0 184.0,472.0 "  style="fill:#000000ff;fill-rule:nonzero;" />
		<polygon points="190.0,76 184,88.0 196.0,88.0 "  style="fill:#000000ff;fill-rule:nonzero;" />
		<polygon points="190.0,124 184,136.0 196.0,136.0 "  style="fill:#000000ff;fill-rule:nonzero;" />
		<polygon points="190.0,136 184,148.0 196.0,148.0 "  style="fill:#000000ff;fill-rule:nonzero;" />
		<polygon points="190.0,160.6 186.4,171.88 195.4,164.68 184.6,164.68 193.6,171.88 "  style="fill:#000000ff;fill-rule:nonzero;" />
		<polygon points="190.0,172 184,184.0 196.0,184.0 "  style="fill:#000000ff;fill-rule:nonzero;" />
		<text fill="#000000ff" font-size="12" y="220" x="184">小</text>
		<polygon points="190.0,220 184,232.0 196.0,232.0 "  style="fill:#000000ff;fill-rule:nonzero;" />
		<polygon points="190.0,244 184,256.0 196.0,256.0 "  style="fill:#000000ff;fill-rule:nonzero;" />
		<polygon points="190.0,256 184,268.0 196.0,268.0 "  style="fill:#000000ff;fill-rule:nonzero;" />
		<polygon points="190.0,268.6 186.4,279.88 195.4,272.68 184.6,272.68 193.6,279.88 "  style="fill:#000000ff;fill-rule:nonzero;" />
		<polygon points="190.0,280.6 186.4,291.88 195.4,284.68 184.6,284.68 193.6,291.88 "  style="fill:#000000ff;fill-rule:nonzero;" />
		<polygon points="190.0,292 184,304.0 196.0,304.0 "  style="fill:#000000ff;fill-rule:nonzero;" />
		<polygon points="190.0,304.6 186.4,315.88 195.4,308.68 184.6,308.68 193.6,315.88 "  style="fill:#000000ff;fill-rule:nonzero;" />
		<polygon points="190.0,316 184,328.0 196.0,328.0 "  style="fill:#000000ff;fill-rule:nonzero;" />
		<polygon points="190.0,352.6 186.4,363.88 195.4,356.68 184.6,356.68 193.6,363.88 "  style="fill:#000000ff;fill-rule:nonzero;" />
		<polygon points="190.0,400.6 186.4,411.88 195.4,404.68 184.6,404.68 193.6,411.88 "  style="fill:#000000ff;fill-rule:nonzero;" />
		<polygon points="190.0,412 184,424.0 196.0,424.0 "  style="fill:#000000ff;fill-rule:nonzero;" />
		<polygon points="190.0,436.6 186.4,447.88 195.4,440.68 184.6,440.68 193.6,447.88 "  style="fill:#000000ff;fill-rule:nonzero;" />
		<polygon points="190.0,460 184,472.0 196.0,472.0 "  style="fill:#000000ff;fill-rule:nonzero;" />
		<polygon points="202.0,52 196,64.0 208.0,64.0 "  style="fill:#000000ff;fill-rule:nonzero;" />
		<polygon points="202.0,64 196,76.0 208.0,76.0 "  style="fill:#000000ff;fill-rule:nonzero;" />
		<polygon points="202.0,88 196,100.0 208.0,100.0 "  style="fill:#000000ff;fill-rule:nonzero;" />
		<polygon points="202.0,100.6 198.4,111.88 207.4,104.68 196.6,104.68 205.6,111.88 "  style="fill:#000000ff;fill-rule:nonzero;" />
		<polygon points="202.0,112 196,124.0 208.0,124.0 "  style="fill:#000000ff;fill-rule:nonzero;" />
		<polygon points="202.0,136 196,148.0 208.0,148.0 "  style="fill:#000000ff;fill-rule:nonzero;" />
		<polygon points="202.0,172.6 198.4,183.88 207.4,176.68 196.6,176.68 205.6,183.88 "  style="fill:#000000ff;fill-rule:nonzero;" />
		<polygon points="202.0,184.6 198.4,195.88 207.4,188.68 196.6,188.68 205.6,195.88 "  style="fill:#000000ff;fill-rule:nonzero;" />
		<polygon points="202.0,196 196,208.0 208.0,208.0 "  style="fill:#000000ff;fill-rule:nonzero;" />
		<polygon points="202.0,208 196,220.0 208.0,220.0 "  style="fill:#000000ff;fill-rule:nonzero;" />
		<polygon points="202.0,232 196,244.0 208.0,244.0 "  style="fill:#000000ff;fill-rule:nonzero;" />
		<polygon points="202.0,292.6 198.4,303.88 207.4,296.68 196.6,296.68 205.6,303.88 "  style="fill:#000000ff;fill-rule:nonzero;" />
		<polygon points="202.0,316 196,328.0 208.0,328.0 "  style="fill:#000000ff;fill-rule:nonzero;" />
		<polygon points="202.0,328.6 198.4,339.88 207.4,332.68 196.6,332.68 205.6,339.88 "  style="fill:#000000ff;fill-rule:nonzero;" />
		<polygon points="202.0,340.6 198.4,351.88 207.4,344.68 196.6,344.68 205.6,351.88 "  style="fill:#000000ff;fill-rule:nonzero;" />
		<polygon points="202.0,376 196,388.0 208.0,388.0 "  style="fill:#000000ff;fill-rule:nonzero;" />
		<polygon points="202.0,412.6 198.4,423.88 207.4,416.68 196.6,416.68 205.6,423.88 "  style="fill:#000000ff;fill-rule:nonzero;" />
		<polygon points="202.0,424.6 198.4,435.88 207.4,428.68 196.6,428.68 205.6,435.88 "  style="fill:#000000ff;fill-rule:nonzero;" />
		<polygon points="202.0,460.6 198.4,471.88 207.4,464.68 196.6,464.68 205.6,471.88 "  style="fill:#000000ff;fill-rule:nonzero;" />
		<polygon points="214.0,28 208,40.0 220.0,40.0 "  style="fill:#000000ff;fill-rule:nonzero;" />
		<polygon points="214.0,52.6 210.4,63.88 219.4,56.68 208.6,56.68 217.6,63.88 "  style="fill:#000000ff;fill-rule:nonzero;" />
		<polygon points="214.0,124 208,136.0 220.0,136.0 "  style="fill:#000000ff;fill-rule:nonzero;" />
		<polygon points="214.0,136.6 210.4,147.88 219.4,140.68 208.6,140.68 217.6,147.88 "  style="fill:#000000ff;fill-rule:nonzero;" />
		<polygon points="214.0,148 208,160.0 220.0,160.0 "  style="fill:#000000ff;fill-rule:nonzero;" />
		<polygon points="214.0,172 208,184.0 220.0,184.0 "  style="fill:#000000ff;fill-rule:nonzero;" />
		<polygon points="214.0,196 208,208.0 220.0,208.0 "  style="fill:#000000ff;fill-rule:nonzero;" />
		<polygon points="214.0,208 208,220.0 220.0,220.0 "  style="fill:#000000ff;fill-rule:nonzero;" />
		<polygon points="214.0,220.6 210.4,231.88 219.4,224.68 208.6,224.68 217.6,231.88 "  style="fill:#000000ff;fill-rule:nonzero;" />
		<polygon points="214.0,244 208,256.0 220.0,256.0 "  style="fill:#000000ff;fill-rule:nonzero;" />
		<polygon points="214.0,268 208,280.0 220.0,280.0 "  style="fill:#000000ff;fill-rule:nonzero;" />
		<polygon points="214.0,292.6 210.4,303.88 219.4,296.68 208.6,296.68 217.6,303.88 "  style="fill:#000000ff;fill-rule:nonzero;" />
		<polygon points="214.0,304 208,316.0 220.0,316.0 "  style="fill:#000000ff;fill-rule:nonzero;" />
		<polygon points="214.0,340 208,352.0 220.0,352.0 "  style="fill:#000000ff;fill-rule:nonzero;" />
		<polygon points="214.0,352.6 210.4,363.88 219.4,356.68 208.6,356.68 217.6,363.88 "  style="fill:#000000ff;fill-rule:nonzero;" />
		<polygon points="214.0,400.6 210.4,411.88 219.4,404.68 208.6,404.68 217.6,411.88 "  style="fill:#000000ff;fill-rule:nonzero;" />
		<polygon points="214.0,436 208,448.0 220.0,448.0 "  style="fill:#000000ff;fill-rule:nonzero;" />
		<polygon points="226.0,52.6 222.4,63.88 231.4,56.68 220.6,56.68 229.6,63.88 "  style="fill:#000000ff;fill-rule:nonzero;" />
		<polygon points="226.0,100 220,112.0 232.0,112.0 "  style="fill:#000000ff;fill-rule:nonzero;" />
		<polygon points="226.0,124.6 222.4,135.88 231.4,128.68 220.6,128.68 229.6,135.88 "  style="fill:#000000ff;fill-rule:nonzero;" />
		<polygon points="226.0,184 220,196.0 232.0,196.0 "  style="fill:#000000ff;fill-rule:nonzero;" />
		<polygon points="226.0,208.6 222.4,219.88 231.4,212.68 220.6,212.68 229.6,219.88 "  style="fill:#000000ff;fill-rule:nonzero;" />
		<polygon points="226.0,220.6 222.4,231.88 231.4,224.68 220.6,224.68 229.6,231.88 "  style="fill:#000000ff;fill-rule:nonzero;" />
		<polygon points="226.0,244 220,256.0 232.0,256.0 "  style="fill:#000000ff;fill-rule:nonzero;" />
		<polygon points="226.0,256 220,268.0 232.0,268.0 "  style="fill:#000000ff;fill-rule:nonzero;" />
		<polygon points="226.0,268 220,280.0 232.0,280.0 "  style="fill:#000000ff;fill-rule:nonzero;" />
		<polygon points="226.0,280.6 222.4,291.88 231.4,284.68 220.6,284.68 229.6,291.88 "  style="fill:#000000ff;fill-rule:nonzero;" />
		<polygon points="226.0,292 220,304.0 232.0,304.0 "  style="fill:#000000ff;fill-rule:nonzero;" />
		<polygon points="226.0,328 220,340.0 232.0,340.0 "  style="fill:#000000ff;fill-rule:nonzero;" />
		<polygon points="226.0,364 220,376.0 232.0,376.0 "  style="fill:#000000ff;fill-rule:nonzero;" />
		<polygon points="226.0,376.6 222.4,387.88 231.4,380.68 220.6,380.68 229.6,387.88 "  style="fill:#000000ff;fill-rule:nonzero;" />
		<polygon points="226.0,388.6 222.4,399.88 231.4,392.68 220.6,392.68 229.6,399.88 "  style="fill:#000000ff;fill-rule:nonzero;" />
		<polygon points="226.0,412 220,424.0 232.0,424.0 "  style="fill:#000000ff;fill-rule:nonzero;" />
		<polygon points="226.0,460 220,472.0 232.0,472.0 "  style="fill:#000000ff;fill-rule:nonzero;" />
		<polygon points="238.0,40.6 234.4,51.88 243.4,44.68 232.6,44.68 241.6,51.88 "  style="fill:#000000ff;fill-rule:nonzero;" />
		<polygon points="238.0,88 232,100.0 244.0,100.0 "  style="fill:#000000ff;fill-rule:nonzero;" />
		<polygon points="238.0,112.6 234.4,123.88 243.4,116.68 232.6,116.68 241.6,123.88 "  style="fill:#000000ff;fill-rule:nonzero;" />
		<polygon points="238.0,172.6 234.4,183.88 243.4,176.68 232.6,176.68 241.6,183.88 "  style="fill:#000000ff;fill-rule:nonzero;" />
		<polygon points="238.0,196 232,208.0 244.0,208.0 "  style="fill:#000000ff;fill-rule:nonzero;" />
		<polygon points="238.0,208 232,220.0 244.0,220.0 "  style="fill:#000000ff;fill-rule:nonzero;" />
		<polygon points="238.0,220 232,232.0 244.0,232.0 "  style="fill:#000000ff;fill-rule:nonzero;" />
		<polygon points="238.0,232 232,244.0 244.0,244.0 "  style="fill:#000000ff;fill-rule:nonzero;" />
		<polygon points="238.0,280 232,292.0 244.0,292.0 "  style="fill:#000000ff;fill-rule:nonzero;" />
		<polygon points="238.0,292 232,304.0 244.0,304.0 "  style="fill:#000000ff;fill-rule:nonzero;" />
		<polygon points="238.0,304 232,316.0 244.0,316.0 "  style="fill:#000000ff;fill-rule:nonzero;" />
		<polygon points="238.0,316 232,328.0 244.0,328.0 "  style="fill:#000000ff;fill-rule:nonzero;" />
		<polygon points="238.0,340.6 234.4,351.88 243.4,344.68 232.6,344.68 241.6,351.88 "  style="fill:#000000ff;fill-rule:nonzero;" />
		<polygon points="238.0,352 232,364.0 244.0,364.0 "  style="fill:#000000ff;fill-rule:nonzero;" />
		<polygon points="238.0,364.6 234.4,375.88 243.4,368.68 232.6,368.68 241.6,375.88 "  style="fill:#000000ff;fill-rule:nonzero;" />
		<polygon points="238.0,376.6 234.4,387.88 243.4,380.68 232.6,380.68 241.6,387.88 "  style="fill:#000000ff;fill-rule:nonzero;" />
		<polygon points="238.0,412.6 234.4,423.88 243.4,416.68 232.6,416.68 241.6,423.88 "  style="fill:#000000ff;fill-rule:nonzero;" />
		<polygon points="250.0,40.6 246.4,51.88 255.4,44.68 244.6,44.68 253.6,51.88 "  style="fill:#000000ff;fill-rule:nonzero;" />
		<polygon points="250.0,64 244,76.0 256.0,76.0 "  style="fill:#000000ff;fill-rule:nonzero;" />
		<polygon points="250.0,88.6 246.4,99.88 255.4,92.68 244.6,92.68 253.6,99.88 "  style="fill:#000000ff;fill-rule:nonzero;" />
		<polygon points="250.0,100.6 246.4,111.88 255.4,104.68 244.6,104.68 253.6,111.88 "  style="fill:#000000ff;fill-rule:nonzero;" />
		<polygon points="250.0,124.6 246.4,135.88 255.4,128.68 244.6,128.68 253.6,135.88 "  style="fill:#000000ff;fill-rule:nonzero;" />
		<polygon points="250.0,148.6 246.4,159.88 255.4,152.68 244.6,152.68 253.6,159.88 "  style="fill:#000000ff;fill-rule:nonzero;" />
		<polygon points="250.0,160.6 246.4,171.88 255.4,164.68 244.6,164.68 253.6,171.88 "  style="fill:#000000ff;fill-rule:nonzero;" />
		<polygon points="250.0,208.6 246.4,219.88 255.4,212.68 244.6,212.68 253.6,219.88 "  style="fill:#000000ff;fill-rule:nonzero;" />
		<polygon points="250.0,220 244,232.0 256.0,232.0 "  style="fill:#000000ff;fill-rule:nonzero;" />
		<polygon points="250.0,304 244,316.0 256.0,316.0 "  style="fill:#000000ff;fill-rule:nonzero;" />
		<polygon points="250.0,340.6 246.4,351.88 255.4,344.68 244.6,344.68 253.6,351.88 "  style="fill:#000000ff;fill-rule:nonzero;" />
		<polygon points="250.0,352 244,364.0 256.0,364.0 "  style="fill:#000000ff;fill-rule:nonzero;" />
		<polygon points="250.0,364 244,376.0 256.0,376.0 "  style="fill:#000000ff;fill-rule:nonzero;" />
		<polygon points="250.0,376.6 246.4,387.88 255.4,380.68 244.6,380.68 253.6,387.88 "  style="fill:#000000ff;fill-rule:nonzero;" />
		<polygon points="250.0,388 244,400.0 256.0,400.0 "  style="fill:#000000ff;fill-rule:nonzero;" />
		<polygon points="250.0,424 244,436.0 256.0,436.0 "  style="fill:#000000ff;fill-rule:nonzero;" />
		<polygon points="250.0,436 244,448.0 256.0,448.0 "  style="fill:#000000ff;fill-rule:nonzero;" />
		<polygon points="250.0,448 244,460.0 256.0,460.0 "  style="fill:#000000ff;fill-rule:nonzero;" />
		<polygon points="262.0,40.6 258.4,51.88 267.4,44.68 256.6,44.68 265.6,51.88 "  style="fill:#000000ff;fill-rule:nonzero;" />
		<polygon points="262.0,64.6 258.4,75.88 267.4,68.68 256.6,68.68 265.6,75.88 "  style="fill:#000000ff;fill-rule:nonzero;" />
		<polygon points="262.0,76 256,88.0 268.0,88.0 "  style="fill:#000000ff;fill-rule:nonzero;" />
		<polygon points="262.0,136 256,148.0 268.0,148.0 "  style="fill:#000000ff;fill-rule:nonzero;" />
		<polygon points="262.0,148.6 258.4,159.88 267.4,152.68 256.6,152.68 265.6,159.88 "  style="fill:#000000ff;fill-rule:nonzero;" />
		<polygon points="262.0,160 256,172.0 268.0,172.0 "  style="fill:#000000ff;fill-rule:nonzero;" />
		<polygon points="262.0,280.6 258.4,291.88 267.4,284.68 256.6,284.68 265.6,291.88 "  style="fill:#000000ff;fill-rule:nonzero;" />
		<polygon points="262.0,292.6 258.4,303.88 267.4,296.68 256.6,296.68 265.6,303.88 "  style="fill:#000000ff;fill-rule:nonzero;" />
		<polygon points="262.0,316 256,328.0 268.0,328.0 "  style="fill:#000000ff;fill-rule:nonzero;" />
		<polygon points="262.0,340 256,352.0 268.0,352.0 "  style="fill:#000000ff;fill-rule:nonzero;" />
		<polygon points="262.0,352.6 258.4,363.88 267.4,356.68 256.6,356.68 265.6,363.88 "  style="fill:#000000ff;fill-rule:nonzero;" />
		<polygon points="262.0,364.6 258.4,375.88 267.4,368.68 256.6,368.68 265.6,375.88 "  style="fill:#000000ff;fill-rule:nonzero;" />
		<polygon points="262.0,388 256,400.0 268.0,400.0 "  style="fill:#000000ff;fill-rule:nonzero;" />
		<polygon points="262.0,400 256,412.0 268.0,412.0 "  style="fill:#000000ff;fill-rule:nonzero;" />
		<polygon points="262.0,412 256,424.0 268.0,424.0 "  style="fill:#000000ff;fill-rule:nonzero;" />
		<polygon points="262.0,436 256,448.0 268.0,448.0 "  style="fill:#000000ff;fill-rule:nonzero;" />
		<polygon points="262.0,460.6 258.4,471.88 267.4,464.68 256.6,464.68 265.6,471.88 "  style="fill:#000000ff;fill-rule:nonzero;" />
		<polygon points="274.0,40 268,52.0 280.0,52.0 "  style="fill:#000000ff;fill-rule:nonzero;" />
		<polygon points="274.0,64 268,76.0 280.0,76.0 "  style="fill:#000000ff;fill-rule:nonzero;" />
		<polygon points="274.0,88.6 270.4,99.88 279.4,92.68 268.6,92.68 277.6,99.88 "  style="fill:#000000ff;fill-rule:nonzero;" />
		<polygon points="274.0,100 268,112.0 280.0,112.0 "  style="fill:#000000ff;fill-rule:nonzero;" />
		<polygon points="274.0,112 268,124.0 280.0,124.0 "  style="fill:#000000ff;fill-rule:nonzero;" />
		<polygon points="274.0,172.6 270.4,183.88 279.4,176.68 268.6,176.68 277.6,183.88 "  style="fill:#000000ff;fill-rule:nonzero;" />
		<polygon points="274.0,244 268,256.0 280.0,256.0 "  style="fill:#000000ff;fill-rule:nonzero;" />
		<polygon points="274.0,256 268,268.0 280.0,268.0 "  style="fill:#000000ff;fill-rule:nonzero;" />
		<polygon points="274.0,268 268,280.0 280.0,280.0 "  style="fill:#000000ff;fill-rule:nonzero;" />
		<polygon points="274.0,280 268,292.0 280.0,292.0 "  style="fill:#000000ff;fill-rule:nonzero;" />
		<polygon points="274.0,364.6 270.4,375.88 279.4,368.68 268.6,368.68 277.6,375.88 "  style="fill:#000000ff;fill-rule:nonzero;" />
		<polygon points="274.0,448.6 270.4,459.88 279.4,452.68 268.6,452.68 277.6,459.88 "  style="fill:#000000ff;fill-rule:nonzero;" />
		<polygon points="286.0,28.6 282.4,39.88 291.4,32.68 280.6,32.68 289.6,39.88 "  style="fill:#000000ff;fill-rule:nonzero;" />
		<polygon points="286.0,52 280,64.0 292.0,64.0 "  style="fill:#000000ff;fill-rule:nonzero;" />
		<polygon points="286.0,76 280,88.0 292.0,88.0 "  style="fill:#000000ff;fill-rule:nonzero;" />
		<polygon points="286.0,88 280,100.0 292.0,100.0 "  style="fill:#000000ff;fill-rule:nonzero;" />
		<polygon points="286.0,112.6 282.4,123.88 291.4,116.68 280.6,116.68 289.6,123.88 "  style="fill:#000000ff;fill-rule:nonzero;" />
		<polygon points="286.0,124 280,136.0 292.0,136.0 "  style="fill:#000000ff;fill-rule:nonzero;" />
		<polygon points="286.0,172.6 282.4,183.88 291.4,176.68 280.6,176.68 289.6,183.88 "  style="fill:#000000ff;fill-rule:nonzero;" />
		<polygon points="286.0,196 280,208.0 292.0,208.0 "  style="fill:#000000ff;fill-rule:nonzero;" />
		<polygon points="286.0,220 280,232.0 292.0,232.0 "  style="fill:#000000ff;fill-rule:nonzero;" />
		<polygon points="286.0,232 280,244.0 292.0,244.0 "  style="fill:#000000ff;fill-rule:nonzero;" />
		<polygon points="286.0,256 280,268.0 292.0,268.0 "  style="fill:#000000ff;fill-rule:nonzero;" />
		<polygon points="286.0,268.6 282.4,279.88 291.4,272.68 280.6,272.68 289.6,279.88 "  style="fill:#000000ff;fill-rule:nonzero;" />
		<polygon points="286.0,280 280,292.0 292.0,292.0 "  style="fill:#000000ff;fill-rule:nonzero;" />
		<polygon points="286.0,304 280,316.0 292.0,316.0 "  style="fill:#000000ff;fill-rule:nonzero;" />
		<polygon points="286.0,316.6 282.4,327.88 291.4,320.68 280.6,320.68 289.6,327.88 "  style="fill:#000000ff;fill-rule:nonzero;" />
		<polygon points="286.0,340 280,352.0 292.0,352.0 "  style="fill:#000000ff;fill-rule:nonzero;" />
		<polygon points="286.0,352 280,364.0 292.0,364.0 "  style="fill:#000000ff;fill-rule:nonzero;" />
		<polygon points="286.0,364.6 282.4,375.88 291.4,368.68 280.6,368.68 289.6,375.88 "  style="fill:#000000ff;fill-rule:nonzero;" />
		<polygon points="286.0,400.6 282.4,411.88 291.4,404.68 280.6,404.68 289.6,411.88 "  style="fill:#000000ff;fill-rule:nonzero;" />
		<polygon points="286.0,412.6 282.4,423.88 291.4,416.68 280.6,416.68 289.6,423.88 "  style="fill:#000000ff;fill-rule:nonzero;" />
		<polygon points="286.0,436.6 282.4,447.88 291.4,440.68 280.6,440.68 289.6,447.88 "  style="fill:#000000ff;fill-rule:nonzero;" />
		<polygon points="286.0,448.6 282.4,459.88 291.4,452.68 280.6,452.68 289.6,459.88 "  style="fill:#000000ff;fill-rule:nonzero;" />
		<polygon points="298.0,64 292,76.0 304.0,76.0 "  style="fill:#000000ff;fill-rule:nonzero;" />
		<polygon points="298.0,76.6 294.4,87.88 303.4,80.68 292.6,80.68 301.6,87.88 "  style="fill:#000000ff;fill-rule:nonzero;" />
		<polygon points="298.0,100.6 294.4,111.88 303.4,104.68 292.6,104.68 301.6,111.88 "  style="fill:#000000ff;fill-rule:nonzero;" />
		<polygon points="298.0,172 292,184.0 304.0,184.0 "  style="fill:#000000ff;fill-rule:nonzero;" />
		<polygon points="298.0,184 292,196.0 304.0,196.0 "  style="fill:#000000ff;fill-rule:nonzero;" />
		<polygon points="298.0,208.6 294.4,219.88 303.4,212.68 292.6,212.68 301.6,219.88 "  style="fill:#000000ff;fill-rule:nonzero;" />
		<polygon points="298.0,232.6 294.4,243.88 303.4,236.68 292.6,236.68 301.6,243.88 "  style="fill:#000000ff;fill-rule:nonzero;" />
		<polygon points="298.0,304.6 294.4,315.88 303.4,308.68 292.6,308.68 301.6,315.88 "  style="fill:#000000ff;fill-rule:nonzero;" />
		<polygon points="298.0,316 292,328.0 304.0,328.0 "  style="fill:#000000ff;fill-rule:nonzero;" />
		<polygon points="298.0,412.6 294.4,423.88 303.4,416.68 292.6,416.68 301.6,423.88 "  style="fill:#000000ff;fill-rule:nonzero;" />
		<polygon points="298.0,448 292,460.0 304.0,460.0 "  style="fill:#000000ff;fill-rule:nonzero;" />
		<text fill="#000000ff" font-size="12" y="472" x="292">灰</text>
		<polygon points="310.0,28 304,40.0 316.0,40.0 "  style="fill:#000000ff;fill-rule:nonzero;" />
		<polygon points="310.0,40 304,52.0 316.0,52.0 "  style="fill:#000000ff;fill-rule:nonzero;" />
		<polygon points="310.0,64.6 306.4,75.88 315.4,68.68 304.6,68.68 313.6,75.88 "  style="fill:#000000ff;fill-rule:nonzero;" />
		<polygon points="310.0,136 304,148.0 316.0,148.0 "  style="fill:#000000ff;fill-rule:nonzero;" />
		<polygon points="310.0,160 304,172.0 316.0,172.0 "  style="fill:#000000ff;fill-rule:nonzero;" />
		<polygon points="310.0,172.6 306.4,183.88 315.4,176.68 304.6,176.68 313.6,183.88 "  style="fill:#000000ff;fill-rule:nonzero;" />
		<polygon points="310.0,196.6 306.4,207.88 315.4,200.68 304.6,200.68 313.6,207.88 "  style="fill:#000000ff;fill-rule:nonzero;" />
		<polygon points="310.0,208 304,220.0 316.0,220.0 "  style="fill:#000000ff;fill-rule:nonzero;" />
		<text fill="#000000ff" font-size="12" y="232" x="304">小</text>
		<polygon points="310.0,232.6 306.4,243.88 315.4,236.68 304.6,236.68 313.6,243.88 "  style="fill:#000000ff;fill-rule:nonzero;" />
		<polygon points="310.0,280.6 306.4,291.88 315.4,284.68 304.6,284.68 313.6,291.88 "  style="fill:#000000ff;fill-rule:nonzero;" />
		<polygon points="310.0,292 304,304.0 316.0,304.0 "  style="fill:#000000ff;fill-rule:nonzero;" />
		<polygon points="310.0,316 304,328.0 316.0,328.0 "  style="fill:#000000ff;fill-rule:nonzero;" />
		<polygon points="310.0,340 304,352.0 316.0,352.0 "  style="fill:#000000ff;fill-rule:nonzero;" />
		<polygon points="310.0,424 304,436.0 316.0,436.0 "  style="fill:#000000ff;fill-rule:nonzero;" />
		<polygon points="310.0,436.6 306.4,447.88 315.4,440.68 304.6,440.68 313.6,447.88 "  style="fill:#000000ff;fill-rule:nonzero;" />
		<polygon points="310.0,448.6 306.4,459.88 315.4,452.68 304.6,452.68 313.6,459.88 "  style="fill:#000000ff;fill-rule:nonzero;" />
		<polygon points="322.0,28 316,40.0 328.0,40.0 "  style="fill:#000000ff;fill-rule:nonzero;" />
		<polygon points="322.0,64 316,76.0 328.0,76.0 "  style="fill:#000000ff;fill-rule:nonzero;" />
		<polygon points="322.0,76.6 318.4,87.88 327.4,80.68 316.6,80.68 325.6,87.88 "  style="fill:#000000ff;fill-rule:nonzero;" />
		<polygon points="322.0,100 316,112.0 328.0,112.0 "  style="fill:#000000ff;fill-rule:nonzero;" />
		<polygon points="322.0,160.6 318.4,171.88 327.4,164.68 316.6,164.68 325.6,171.88 "  style="fill:#000000ff;fill-rule:nonzero;" />
		<polygon points="322.0,196.6 318.4,207.88 327.4,200.68 316.6,200.68 325.6,207.88 "  style="fill:#000000ff;fill-rule:nonzero;" />
		<polygon points="322.0,208 316,220.0 328.0,220.0 "  style="fill:#000000ff;fill-rule:nonzero;" />
		<polygon points="322.0,220.6 318.4,231.88 327.4,224.68 316.6,224.68 325.6,231.88 "  style="fill:#000000ff;fill-rule:nonzero;" />
		<polygon points="322.0,232.6 318.4,243.88 327.4,236.68 316.6,236.68 325.6,243.88 "  style="fill:#000000ff;fill-rule:nonzero;" />
		<polygon points="322.0,256.6 318.4,267.88 327.4,260.68 316.6,260.68 325.6,267.88 "  style="fill:#000000ff;fill-rule:nonzero;" />
		<polygon points="322.0,280 316,292.0 328.0,292.0 "  style="fill:#000000ff;fill-rule:nonzero;" />
		<polygon points="322.0,304.6 318.4,315.88 327.4,308.68 316.6,308.68 325.6,315.88 "  style="fill:#000000ff;fill-rule:nonzero;" />
		<polygon points="322.0,316 316,328.0 328.0,328.0 "  style="fill:#000000ff;fill-rule:nonzero;" />
		<polygon points="322.0,328.6 318.4,339.88 327.4,332.68 316.6,332.68 325.6,339.88 "  style="fill:#000000ff;fill-rule:nonzero;" />
		<polygon points="322.0,340.6 318.4,351.88 327.4,344.68 316.6,344.68 325.6,351.88 "  style="fill:#000000ff;fill-rule:nonzero;" />
		<polygon points="322.0,388 316,400.0 328.0,400.0 "  style="fill:#000000ff;fill-rule:nonzero;" />
		<polygon points="322.0,436.6 318.4,447.88 327.4,440.68 316.6,440.68 325.6,447.88 "  style="fill:#000000ff;fill-rule:nonzero;" />
		<polygon points="322.0,460.6 318.4,471.88 327.4,464.68 316.6,464.68 325.6,471.88 "  style="fill:#000000ff;fill-rule:nonzero;" />
		<polygon points="334.0,40.6 330.4,51.88 339.4,44.68 328.6,44.68 337.6,51.88 "  style="fill:#000000ff;fill-rule:nonzero;" />
		<polygon points="334.0,88 328,100.0 340.0,100.0 "  style="fill:#000000ff;fill-rule:nonzero;" />
		<polygon points="334.0,112 328,124.0 340.0,124.0 "  style="fill:#000000ff;fill-rule:nonzero;" />
		<polygon points="334.0,148.6 330.4,159.88 339.4,152.68 328.6,152.68 337.6,159.88 "  style="fill:#000000ff;fill-rule:nonzero;" />
		<polygon points="334.0,160 328,172.0 340.0,172.0 "  style="fill:#000000ff;fill-rule:nonzero;" />
		<polygon points="334.0,196 328,208.0 340.0,208.0 "  style="fill:#000000ff;fill-rule:nonzero;" />
		<polygon points="334.0,220.6 330.4,231.88 339.4,224.68 328.6,224.68 337.6,231.88 "  style="fill:#000000ff;fill-rule:nonzero;" />
		<polygon points="334.0,292.6 330.4,303.88 339.4,296.68 328.6,296.68 337.6,303.88 "  style="fill:#000000ff;fill-rule:nonzero;" />
		<polygon points="334.0,316 328,328.0 340.0,328.0 "  style="fill:#000000ff;fill-rule:nonzero;" />
		<polygon points="334.0,340 328,352.0 340.0,352.0 "  style="fill:#000000ff;fill-rule:nonzero;" />
		<polygon points="334.0,364.6 330.4,375.88 339.4,368.68 328.6,368.68 337.6,375.88 "  style="fill:#000000ff;fill-rule:nonzero;" />
		<polygon points="334.0,388 328,400.0 340.0,400.0 "  style="fill:#000000ff;fill-rule:nonzero;" />
		<polygon points="334.0,400 328,412.0 340.0,412.0 "  style="fill:#000000ff;fill-rule:nonzero;" />
		<polygon points="334.0,412.6 330.4,423.88 339.4,416.68 328.6,416.68 337.6,423.88 "  style="fill:#000000ff;fill-rule:nonzero;" />
		<polygon points="346.0,40 340,52.0 352.0,52.0 "  style="fill:#000000ff;fill-rule:nonzero;" />
		<polygon points="346.0,76 340,88.0 352.0,88.0 "  style="fill:#000000ff;fill-rule:nonzero;" />
		<polygon points="346.0,100 340,112.0 352.0,112.0 "  style="fill:#000000ff;fill-rule:nonzero;" />
		<polygon points="346.0,112 340,124.0 352.0,124.0 "  style="fill:#000000ff;fill-rule:nonzero;" />
		<polygon points="346.0,136.6 342.4,147.88 351.4,140.68 340.6,140.68 349.6,147.88 "  style="fill:#000000ff;fill-rule:nonzero;" />
		<polygon points="346.0,184 340,196.0 352.0,196.0 "  style="fill:#000000ff;fill-rule:nonzero;" />
		<polygon points="346.0,196 340,208.0 352.0,208.0 "  style="fill:#000000ff;fill-rule:nonzero;" />
		<polygon points="346.0,232.6 342.4,243.88 351.4,236.68 340.6,236.68 349.6,243.88 "  style="fill:#000000ff;fill-rule:nonzero;" />
		<polygon points="346.0,244 340,256.0 352.0,256.0 "  style="fill:#000000ff;fill-rule:nonzero;" />
		<polygon points="346.0,280 340,292.0 352.0,292.0 "  style="fill:#000000ff;fill-rule:nonzero;" />
		<polygon points="346.0,304.6 342.4,315.88 351.4,308.68 340.6,308.68 349.6,315.88 "  style="fill:#000000ff;fill-rule:nonzero;" />
		<polygon points="346.0,328.6 342.4,339.88 351.4,332.68 340.6,332.68 349.6,339.88 "  style="fill:#000000ff;fill-rule:nonzero;" />
		<polygon points="346.0,340.6 342.4,351.88 351.4,344.68 340.6,344.68 349.6,351.88 "  style="fill:#000000ff;fill-rule:nonzero;" />
		<polygon points="346.0,352.6 342.4,363.88 351.4,356.68 340.6,356.68 349.6,363.88 "  style="fill:#000000ff;fill-rule:nonzero;" />
		<polygon points="346.0,364 340,376.0 352.0,376.0 "  style="fill:#000000ff;fill-rule:nonzero;" />
		<polygon points="346.0,376.6 342.4,387.88 351.4,380.68 340.6,380.68 349.6,387.88 "  style="fill:#000000ff;fill-rule:nonzero;" />
		<polygon points="346.0,388 340,400.0 352.0,400.0 "  style="fill:#000000ff;fill-rule:nonzero;" />
		<polygon points="346.0,412 340,424.0 352.0,424.0 "  style="fill:#000000ff;fill-rule:nonzero;" />
		<polygon points="346.0,424.6 342.4,435.88 351.4,428.68 340.6,428.68 349.6,435.88 "  style="fill:#000000ff;fill-rule:nonzero;" />
		<polygon points="346.0,436 340,448.0 352.0,448.0 "  style="fill:#000000ff;fill-rule:nonzero;" />
		<polygon points="346.0,448 340,460.0 352.0,460.0 "  style="fill:#000000ff;fill-rule:nonzero;" />
		<polygon points="358.0,64 352,76.0 364.0,76.0 "  style="fill:#000000ff;fill-rule:nonzero;" />
		<polygon points="358.0,124 352,136.0 364.0,136.0 "  style="fill:#000000ff;fill-rule:nonzero;" />
		<polygon points="358.0,136.6 354.4,147.88 363.4,140.68 352.6,140.68 361.6,147.88 "  style="fill:#000000ff;fill-rule:nonzero;" />
		<polygon points="358.0,160.6 354.4,171.88 363.4,164.68 352.6,164.68 361.6,171.88 "  style="fill:#000000ff;fill-rule:nonzero;" />
		<polygon points="358.0,196 352,208.0 364.0,208.0 "  style="fill:#000000ff;fill-rule:nonzero;" />
		<polygon points="358.0,220 352,232.0 364.0,232.0 "  style="fill:#000000ff;fill-rule:nonzero;" />
		<polygon points="358.0,232 352,244.0 364.0,244.0 "  style="fill:#000000ff;fill-rule:nonzero;" />
		<polygon points="358.0,244 352,256.0 364.0,256.0 "  style="fill:#000000ff;fill-rule:nonzero;" />
		<polygon points="358.0,268 352,280.0 364.0,280.0 "  style="fill:#000000ff;fill-rule:nonzero;" />
		<polygon points="358.0,316 352,328.0 364.0,328.0 "  style="fill:#000000ff;fill-rule:nonzero;" />
		<polygon points="358.0,340.6 354.4,351.88 363.4,344.68 352.6,344.68 361.6,351.88 "  style="fill:#000000ff;fill-rule:nonzero;" />
		<polygon points="358.0,364.6 354.4,375.88 363.4,368.68 352.6,368.68 361.6,375.88 "  style="fill:#000000ff;fill-rule:nonzero;" />
		<polygon points="358.0,388 352,400.0 364.0,400.0 "  style="fill:#000000ff;fill-rule:nonzero;" />
		<polygon points="358.0,400.6 354.4,411.88 363.4,404.68 352.6,404.68 361.6,411.88 "  style="fill:#000000ff;fill-rule:nonzero;" />
		<polygon points="358.0,436.6 354.4,447.88 363.4,440.68 352.6,440.68 361.6,447.88 "  style="fill:#000000ff;fill-rule:nonzero;" />
		<polygon points="358.0,460 352,472.0 364.0,472.0 "  style="fill:#000000ff;fill-rule:nonzero;" />
		<polygon points="370.0,28 364,40.0 376.0,40.0 "  style="fill:#000000ff;fill-rule:nonzero;" />
		<polygon points="370.0,64.6 366.4,75.88 375.4,68.68 364.6,68.68 373.6,75.88 "  style="fill:#000000ff;fill-rule:nonzero;" />
		<polygon points="370.0,76 364,88.0 376.0,88.0 "  style="fill:#000000ff;fill-rule:nonzero;" />
		<polygon points="370.0,100 364,112.0 376.0,112.0 "  style="fill:#000000ff;fill-rule:nonzero;" />
		<polygon points="370.0,136 364,148.0 376.0,148.0 "  style="fill:#000000ff;fill-rule:nonzero;" />
		<polygon points="370.0,160.6 366.4,171.88 375.4,164.68 364.6,164.68 373.6,171.88 "  style="fill:#000000ff;fill-rule:nonzero;" />
		<polygon points="370.0,172 364,184.0 376.0,184.0 "  style="fill:#000000ff;fill-rule:nonzero;" />
		<polygon points="370.0,184.6 366.4,195.88 375.4,188.68 364.6,188.68 373.6,195.88 "  style="fill:#000000ff;fill-rule:nonzero;" />
		<polygon points="370.0,196 364,208.0 376.0,208.0 "  style="fill:#000000ff;fill-rule:nonzero;" />
		<polygon points="370.0,208 364,220.0 376.0,220.0 "  style="fill:#000000ff;fill-rule:nonzero;" />
		<polygon points="370.0,220.6 366.4,231.88 375.4,224.68 364.6,224.68 373.6,231.88 "  style="fill:#000000ff;fill-rule:nonzero;" />
		<polygon points="370.0,244 364,256.0 376.0,256.0 "  style="fill:#000000ff;fill-rule:nonzero;" />
		<polygon points="370.0,256.6 366.4,267.88 375.4,260.68 364.6,260.68 373.6,267.88 "  style="fill:#000000ff;fill-rule:nonzero;" />
		<polygon points="370.0,292 364,304.0 376.0,304.0 "  style="fill:#000000ff;fill-rule:nonzero;" />
		<polygon points="370.0,316 364,328.0 376.0,328.0 "  style="fill:#000000ff;fill-rule:nonzero;" />
		<text fill="#000000ff" font-size="12" y="364" x="364">灰</text>
		<polygon points="370.0,424 364,436.0 376.0,436.0 "  style="fill:#000000ff;fill-rule:nonzero;" />
		<polygon points="382.0,124.6 378.4,135.88 387.4,128.68 376.6,128.68 385.6,135.88 "  style="fill:#000000ff;fill-rule:nonzero;" />
		<polygon points="382.0,148 376,160.0 388.0,160.0 "  style="fill:#000000ff;fill-rule:nonzero;" />
		<polygon points="382.0,160 376,172.0 388.0,172.0 "  style="fill:#000000ff;fill-rule:nonzero;" />
		<polygon points="382.0,172.6 378.4,183.88 387.4,176.68 376.6,176.68 385.6,183.88 "  style="fill:#000000ff;fill-rule:nonzero;" />
		<polygon points="382.0,220.6 378.4,231.88 387.4,224.68 376.6,224.68 385.6,231.88 "  style="fill:#000000ff;fill-rule:nonzero;" />
		<polygon points="382.0,244.6 378.4,255.88 387.4,248.68 376.6,248.68 385.6,255.88 "  style="fill:#000000ff;fill-rule:nonzero;" />
		<polygon points="382.0,256.6 378.4,267.88 387.4,260.68 376.6,260.68 385.6,267.88 "  style="fill:#000000ff;fill-rule:nonzero;" />
		<polygon points="382.0,280.6 378.4,291.88 387.4,284.68 376.6,284.68 385.6,291.88 "  style="fill:#000000ff;fill-rule:nonzero;" />
		<polygon points="382.0,292 376,304.0 388.0,304.0 "  style="fill:#000000ff;fill-rule:nonzero;" />
		<polygon points="382.0,304.6 378.4,315.88 387.4,308.68 376.6,308.68 385.6,315.88 "  style="fill:#000000ff;fill-rule:nonzero;" />
		<polygon points="382.0,316 376,328.0 388.0,328.0 "  style="fill:#000000ff;fill-rule:nonzero;" />
		<polygon points="382.0,328 376,340.0 388.0,340.0 "  style="fill:#000000ff;fill-rule:nonzero;" />
		<polygon points="382.0,340.6 378.4,351.88 387.4,344.68 376.6,344.68 385.6,351.88 "  style="fill:#000000ff;fill-rule:nonzero;" />
		<polygon points="382.0,352 376,364.0 388.0,364.0 "  style="fill:#000000ff;fill-rule:nonzero;" />
		<polygon points="382.0,448 376,460.0 388.0,460.0 "  style="fill:#000000ff;fill-rule:nonzero;" />
		<polygon points="382.0,460 376,472.0 388.0,472.0 "  style="fill:#000000ff;fill-rule:nonzero;" />
		<polygon points="394.0,124 388,136.0 400.0,136.0 "  style="fill:#000000ff;fill-rule:nonzero;" />
		<polygon points="394.0,148 388,160.0 400.0,160.0 "  style="fill:#000000ff;fill-rule:nonzero;" />
		<polygon points="394.0,172 388,184.0 400.0,184.0 "  style="fill:#000000ff;fill-rule:nonzero;" />
		<polygon points="394.0,184 388,196.0 400.0,196.0 "  style="fill:#000000ff;fill-rule:nonzero;" />
		<polygon points="394.0,196 388,208.0 400.0,208.0 "  style="fill:#000000ff;fill-rule:nonzero;" />
		<polygon points="394.0,244 388,256.0 400.0,256.0 "  style="fill:#000000ff;fill-rule:nonzero;" />
		<polygon points="394.0,256 388,268.0 400.0,268.0 "  style="fill:#000000ff;fill-rule:nonzero;" />
		<polygon points="394.0,268.6 390.4,279.88 399.4,272.68 388.6,272.68 397.6,279.88 "  style="fill:#000000ff;fill-rule:nonzero;" />
		<polygon points="394.0,292.6 390.4,303.88 399.4,296.68 388.6,296.68 397.6,303.88 "  style="fill:#000000ff;fill-rule:nonzero;" />
		<polygon points="394.0,304.6 390.4,315.88 399.4,308.68 388.6,308.68 397.6,315.88 "  style="fill:#000000ff;fill-rule:nonzero;" />
		<polygon points="394.0,316.6 390.4,327.88 399.4,320.68 388.6,320.68 397.6,327.88 "  style="fill:#000000ff;fill-rule:nonzero;" />
		<polygon points="394.0,328.6 390.4,339.88 399.4,332.68 388.6,332.68 397.6,339.88 "  style="fill:#000000ff;fill-rule:nonzero;" />
		<polygon points="394.0,340.6 390.4,351.88 399.4,344.68 388.6,344.68 397.6,351.88 "  style="fill:#000000ff;fill-rule:nonzero;" />
		<polygon points="394.0,424.6 390.4,435.88 399.4,428.68 388.6,428.68 397.6,435.88 "  style="fill:#000000ff;fill-rule:nonzero;" />
		<polygon points="394.0,436.6 390.4,447.88 399.4,440.68 388.6,440.68 397.6,447.88 "  style="fill:#000000ff;fill-rule:nonzero;" />
		<polygon points="394.0,448.6 390.4,459.88 399.4,452.68 388.6,452.68 397.6,459.88 "  style="fill:#000000ff;fill-rule:nonzero;" />
		<polygon points="406.0,124 400,136.0 412.0,136.0 "  style="fill:#000000ff;fill-rule:nonzero;" />
		<polygon points="406.0,148 400,160.0 412.0,160.0 "  style="fill:#000000ff;fill-rule:nonzero;" />
		<polygon points="406.0,160 400,172.0 412.0,172.0 "  style="fill:#000000ff;fill-rule:nonzero;" />
		<polygon points="406.0,184 400,196.0 412.0,196.0 "  style="fill:#000000ff;fill-rule:nonzero;" />
		<polygon points="406.0,208 400,220.0 412.0,220.0 "  style="fill:#000000ff;fill-rule:nonzero;" />
		<polygon points="406.0,232.6 402.4,243.88 411.4,236.68 400.6,236.68 409.6,243.88 "  style="fill:#000000ff;fill-rule:nonzero;" />
		<polygon points="406.0,256 400,268.0 412.0,268.0 "  style="fill:#000000ff;fill-rule:nonzero;" />
		<polygon points="406.0,280 400,292.0 412.0,292.0 "  style="fill:#000000ff;fill-rule:nonzero;" />
		<polygon points="406.0,292.6 402.4,303.88 411.4,296.68 400.6,296.68 409.6,303.88 "  style="fill:#000000ff;fill-rule:nonzero;" />
		<polygon points="406.0,304.6 402.4,315.88 411.4,308.68 400.6,308.68 409.6,315.88 "  style="fill:#000000ff;fill-rule:nonzero;" />
		<polygon points="406.0,340 400,352.0 412.0,352.0 "  style="fill:#000000ff;fill-rule:nonzero;" />
		<polygon points="406.0,424.6 402.4,435.88 411.4,428.68 400.6,428.68 409.6,435.88 "  style="fill:#000000ff;fill-rule:nonzero;" />
		<polygon points="406.0,436 400,448.0 412.0,448.0 "  style="fill:#000000ff;fill-rule:nonzero;" />
		<polygon points="418.0,148.6 414.4,159.88 423.4,152.68 412.6,152.68 421.6,159.88 "  style="fill:#000000ff;fill-rule:nonzero;" />
		<polygon points="418.0,172.6 414.4,183.88 423.4,176.68 412.6,176.68 421.6,183.88 "  style="fill:#000000ff;fill-rule:nonzero;" />
		<polygon points="418.0,220 412,232.0 424.0,232.0 "  style="fill:#000000ff;fill-rule:nonzero;" />
		<polygon points="418.0,232.6 414.4,243.88 423.4,236.68 412.6,236.68 421.6,243.88 "  style="fill:#000000ff;fill-rule:nonzero;" />
		<polygon points="418.0,244 412,256.0 424.0,256.0 "  style="fill:#000000ff;fill-rule:nonzero;" />
		<polygon points="418.0,292 412,304.0 424.0,304.0 "  style="fill:#000000ff;fill-rule:nonzero;" />
		<polygon points="418.0,328.6 414.4,339.88 423.4,332.68 412.6,332.68 421.6,339.88 "  style="fill:#000000ff;fill-rule:nonzero;" />
		<polygon points="418.0,340 412,352.0 424.0,352.0 "  style="fill:#000000ff;fill-rule:nonzero;" />
		<polygon points="418.0,424 412,436.0 424.0,436.0 "  style="fill:#000000ff;fill-rule:nonzero;" />
		<polygon points="418.0,436 412,448.0 424.0,448.0 "  style="fill:#000000ff;fill-rule:nonzero;" />
		<polygon points="418.0,448 412,460.0 424.0,460.0 "  style="fill:#000000ff;fill-rule:nonzero;" />
		<polygon points="430.0,136.6 426.4,147.88 435.4,140.68 424.6,140.68 433.6,147.88 "  style="fill:#000000ff;fill-rule:nonzero;" />
		<polygon points="430.0,160 424,172.0 436.0,172.0 "  style="fill:#000000ff;fill-rule:nonzero;" />
		<polygon points="430.0,184.6 426.4,195.88 435.4,188.68 424.6,188.68 433.6,195.88 "  style="fill:#000000ff;fill-rule:nonzero;" />
		<polygon points="430.0,196 424,208.0 436.0,208.0 "  style="fill:#000000ff;fill-rule:nonzero;" />
		<polygon points="430.0,208 424,220.0 436.0,220.0 "  style="fill:#000000ff;fill-rule:nonzero;" />
		<polygon points="430.0,256 424,268.0 436.0,268.0 "  style="fill:#000000ff;fill-rule:nonzero;" />
		<polygon points="430.0,268 424,280.0 436.0,280.0 "  style="fill:#000000ff;fill-rule:nonzero;" />
		<polygon points="430.0,304.6 426.4,315.88 435.4,308.68 424.6,308.68 433.6,315.88 "  style="fill:#000000ff;fill-rule:nonzero;" />
		<polygon points="430.0,316.6 426.4,327.88 435.4,320.68 424.6,320.68 433.6,327.88 "  style="fill:#000000ff;fill-rule:nonzero;" />
		<polygon points="430.0,328 424,340.0 436.0,340.0 "  style="fill:#000000ff;fill-rule:nonzero;" />
		<polygon points="430.0,388.6 426.4,399.88 435.4,392.68 424.6,392.68 433.6,399.88 "  style="fill:#000000ff;fill-rule:nonzero;" />
		<polygon points="430.0,400 424,412.0 436.0,412.0 "  style="fill:#000000ff;fill-rule:nonzero;" />
		<polygon points="430.0,412 424,424.0 436.0,424.0 "  style="fill:#000000ff;fill-rule:nonzero;" />
		<polygon points="430.0,436.6 426.4,447.88 435.4,440.68 424.6,440.68 433.6,447.88 "  style="fill:#000000ff;fill-rule:nonzero;" />
		<polygon points="430.0,448.6 426.4,459.88 435.4,452.68 424.6,452.68 433.6,459.88 "  style="fill:#000000ff;fill-rule:nonzero;" />
		<polygon points="442.0,124.6 438.4,135.88 447.4,128.68 436.6,128.68 445.6,135.88 "  style="fill:#000000ff;fill-rule:nonzero;" />
		<polygon points="442.0,148 436,160.0 448.0,160.0 "  style="fill:#000000ff;fill-rule:nonzero;" />
		<polygon points="442.0,196 436,208.0 448.0,208.0 "  style="fill:#000000ff;fill-rule:nonzero;" />
		<polygon points="442.0,208 436,220.0 448.0,220.0 "  style="fill:#000000ff;fill-rule:nonzero;" />
		<polygon points="442.0,220.6 438.4,231.88 447.4,224.68 436.6,224.68 445.6,231.88 "  style="fill:#000000ff;fill-rule:nonzero;" />
		<polygon points="442.0,244 436,256.0 448.0,256.0 "  style="fill:#000000ff;fill-rule:nonzero;" />
		<polygon points="442.0,256 436,268.0 448.0,268.0 "  style="fill:#000000ff;fill-rule:nonzero;" />
		<polygon points="442.0,292.6 438.4,303.88 447.4,296.68 436.6,296.68 445.6,303.88 "  style="fill:#000000ff;fill-rule:nonzero;" />
		<polygon points="442.0,316.6 438.4,327.88 447.4,320.68 436.6,320.68 445.6,327.88 "  style="fill:#000000ff;fill-rule:nonzero;" />
		<polygon points="442.0,340.6 438.4,351.88 447.4,344.68 436.6,344.68 445.6,351.88 "  style="fill:#000000ff;fill-rule:nonzero;" />
		<polygon points="442.0,388 436,400.0 448.0,400.0 "  style="fill:#000000ff;fill-rule:nonzero;" />
		<polygon points="442.0,400.6 438.4,411.88 447.4,404.68 436.6,404.68 445.6,411.88 "  style="fill:#000000ff;fill-rule:nonzero;" />
		<polygon points="442.0,436.6 438.4,447.88 447.4,440.68 436.6,440.68 445.6,447.88 "  style="fill:#000000ff;fill-rule:nonzero;" />
		<polygon points="442.0,448.6 438.4,459.88 447.4,452.68 436.6,452.68 445.6,459.88 "  style="fill:#000000ff;fill-rule:nonzero;" />
		<polygon points="454.0,124.6 450.4,135.88 459.4,128.68 448.6,128.68 457.6,135.88 "  style="fill:#000000ff;fill-rule:nonzero;" />
		<polygon points="454.0,136 448,148.0 460.0,148.0 "  style="fill:#000000ff;fill-rule:nonzero;" />
		<polygon points="454.0,148 448,160.0 460.0,160.0 "  style="fill:#000000ff;fill-rule:nonzero;" />
		<polygon points="454.0,184.6 450.4,195.88 459.4,188.68 448.6,188.68 457.6,195.88 "  style="fill:#000000ff;fill-rule:nonzero;" />
		<polygon points="454.0,220 448,232.0 460.0,232.0 "  style="fill:#000000ff;fill-rule:nonzero;" />
		<polygon points="454.0,244.6 450.4,255.88 459.4,248.68 448.6,248.68 457.6,255.88 "  style="fill:#000000ff;fill-rule:nonzero;" />
		<polygon points="454.0,280 448,292.0 460.0,292.0 "  style="fill:#000000ff;fill-rule:nonzero;" />
		<polygon points="454.0,292 448,304.0 460.0,304.0 "  style="fill:#000000ff;fill-rule:nonzero;" />
		<polygon points="454.0,316 448,328.0 460.0,328.0 "  style="fill:#000000ff;fill-rule:nonzero;" />
		<polygon points="454.0,328 448,340.0 460.0,340.0 "  style="fill:#000000ff;fill-rule:nonzero;" />
		<polygon points="454.0,340 448,352.0 460.0,352.0 "  style="fill:#000000ff;fill-rule:nonzero;" />
		<polygon points="454.0,376 448,388.0 460.0,388.0 "  style="fill:#000000ff;fill-rule:nonzero;" />
		<polygon points="454.0,388 448,400.0 460.0,400.0 "  style="fill:#000000ff;fill-rule:nonzero;" />
		<polygon points="454.0,412.6 450.4,423.88 459.4,416.68 448.6,416.68 457.6,423.88 "  style="fill:#000000ff;fill-rule:nonzero;" />
		<polygon points="454.0,424.6 450.4,435.88 459.4,428.68 448.6,428.68 457.6,435.88 "  style="fill:#000000ff;fill-rule:nonzero;" />
		<polygon points="454.0,448.6 450.4,459.88 459.4,452.68 448.6,452.68 457.6,459.88 "  style="fill:#000000ff;fill-rule:nonzero;" />
		<polygon points="454.0,460.6 450.4,471.88 459.4,464.68 448.6,464.68 457.6,471.88 "  style="fill:#000000ff;fill-rule:nonzero;" />
		<polygon points="466.0,124 460,136.0 472.0,136.0 "  style="fill:#000000ff;fill-rule:nonzero;" />
		<polygon points="466.0,172.6 462.4,183.88 471.4,176.68 460.6,176.68 469.6,183.88 "  style="fill:#000000ff;fill-rule:nonzero;" />
		<polygon points="466.0,184 460,196.0 472.0,196.0 "  style="fill:#000000ff;fill-rule:nonzero;" />
		<polygon points="466.0,220.6 462.4,231.88 471.4,224.68 460.6,224.68 469.6,231.88 "  style="fill:#000000ff;fill-rule:nonzero;" />
		<polygon points="466.0,232.6 462.4,243.88 471.4,236.68 460.6,236.68 469.6,243.88 "  style="fill:#000000ff;fill-rule:nonzero;" />
		<polygon points="466.0,244 460,256.0 472.0,256.0 "  style="fill:#000000ff;fill-rule:nonzero;" />
		<polygon points="466.0,292 460,304.0 472.0,304.0 "  style="fill:#000000ff;fill-rule:nonzero;" />
		<polygon points="466.0,316 460,328.0 472.0,328.0 "  style="fill:#000000ff;fill-rule:nonzero;" />
		<polygon points="466.0,328 460,340.0 472.0,340.0 "  style="fill:#000000ff;fill-rule:nonzero;" />
		<polygon points="466.0,376.6 462.4,387.88 471.4,380.68 460.6,380.68 469.6,387.88 "  style="fill:#000000ff;fill-rule:nonzero;" />
		<polygon points="466.0,388.6 462.4,399.88 471.4,392.68 460.6,392.68 469.6,399.88 "  style="fill:#000000ff;fill-rule:nonzero;" />
		<polygon points="466.0,412.6 462.4,423.88 471.4,416.68 460.6,416.68 469.6,423.88 "  style="fill:#000000ff;fill-rule:nonzero;" />
		<polygon points="466.0,424.6 462.4,435.88 471.4,428.68 460.6,428.68 469.6,435.88 "  style="fill:#000000ff;fill-rule:nonzero;" />
		<polygon points="466.0,436.6 462.4,447.88 471.4,440.68 460.6,440.68 469.6,447.88 "  style="fill:#000000ff;fill-rule:nonzero;" />
		<polygon points="466.0,460 460,472.0 472.0,472.0 "  style="fill:#000000ff;fill-rule:nonzero;" />

	</g>
</svg>