<svg xmlns="http://www.w3.org/2000/svg" xmlns:xlink="http://www.w3.org/1999/xlink" version="1.1" width="600px" height="600px" style="shape-rendering:geometricPrecision; text-rendering:geometricPrecision; image-rendering:optimizeQuality; fill-rule:evenodd; clip-rule:evenodd">


<g><path style="opacity:1" fill="#ecedec" d="M 277.5,31.5 C 294.314,31.5976 310.981,31.5976 327.5,31.5C 369.229,36.4708 408.229,48.8041 444.5,68.5C 467.458,83.5829 488.958,100.916 509,120.5C 514.963,127.611 520.796,134.777 526.5,142C 526.167,142.333 525.833,142.667 525.5,143C 526.653,144.883 528.319,145.716 530.5,145.5C 531.195,149.547 533.195,152.881 536.5,155.5C 537.154,157.115 537.654,158.782 538,160.5C 539.667,161.5 541,162.833 542,164.5C 544.667,169.167 547.333,173.833 550,178.5C 551.615,183.14 553.281,187.807 555,192.5C 556.755,193.67 557.755,195.337 558,197.5C 558.903,198.701 560.069,199.535 561.5,200C 561.043,200.414 560.709,200.914 560.5,201.5C 564.314,213.135 568.314,224.301 572.5,235C 571.978,235.561 571.645,236.228 571.5,237C 575.555,249.489 578.055,262.322 579,275.5C 580.02,276.891 580.853,278.391 581.5,280C 581.472,295.75 581.305,311.583 581,327.5C 576.293,385.627 555.293,437.961 518,484.5C 515.609,486.766 513.109,488.933 510.5,491C 510.957,491.414 511.291,491.914 511.5,492.5C 509.82,493.769 508.653,495.436 508,497.5C 497.965,505.597 488.465,514.264 479.5,523.5C 474.743,524.74 471.076,527.406 468.5,531.5C 461.135,536.546 453.801,541.546 446.5,546.5C 439.664,549.503 433.164,553.17 427,557.5C 424.21,556.218 422.043,557.052 420.5,560C 347.274,591.564 273.941,593.23 200.5,565C 196.667,562.108 192.001,560.108 186.5,559C 178.824,553.638 170.491,549.305 161.5,546C 161.833,545.667 162.167,545.333 162.5,545C 157.627,542.064 152.627,539.397 147.5,537C 143.849,534.349 140.516,531.349 137.5,528C 122.808,517.602 109.641,506.102 98,493.5C 97.5291,491.754 96.8624,490.087 96,488.5C 95.3333,489.833 94.6667,489.833 94,488.5C 92.0757,485.66 89.909,482.994 87.5,480.5C 87.7093,479.914 88.0426,479.414 88.5,479C 84.1127,475.432 80.2793,471.266 77,466.5C 69.2783,453.465 61.6117,440.465 54,427.5C 53.3333,424.833 52.6667,422.167 52,419.5C 48.0804,412.07 44.747,404.403 42,396.5C 38.0033,382.178 34.17,367.844 30.5,353.5C 31.2154,350.781 31.5487,348.114 31.5,345.5C 30.2389,333.054 28.5722,320.554 26.5,308C 27.0581,301.374 28.0581,294.541 29.5,287.5C 28.9198,283.471 28.5865,279.471 28.5,275.5C 29.3128,274.186 30.3128,273.019 31.5,272C 30.8922,270.769 30.5589,269.436 30.5,268C 34.3507,246.766 39.8507,225.932 47,205.5C 54.4671,190.12 62.1337,174.787 70,159.5C 73.765,155.828 76.4317,151.828 78,147.5C 79.0113,146.663 80.1779,146.33 81.5,146.5C 82.7267,143.418 84.2267,140.418 86,137.5C 89.0918,136.077 91.0918,133.743 92,130.5C 95.7524,126.283 99.7524,122.283 104,118.5C 104.625,115.388 106.458,113.555 109.5,113C 110.211,111.745 111.044,110.579 112,109.5C 112.667,110.833 113.333,110.833 114,109.5C 113.771,106.19 115.271,104.356 118.5,104C 122.407,99.3816 126.741,95.215 131.5,91.5C 151.585,76.3252 173.918,63.1585 198.5,52C 206.989,48.7558 215.655,46.0891 224.5,44C 226.333,42.8333 228.167,41.6667 230,40.5C 232.676,41.5721 235.009,40.9055 237,38.5C 250.564,37.1622 264.064,34.8289 277.5,31.5 Z"/></g>
<g><path style="opacity:1" fill="#e6e7e6" d="M 294.5,33.5 C 369.915,32.242 435.082,56.5753 490,106.5C 536.041,149.214 564.707,202.214 576,265.5C 576.546,272.37 577.38,279.203 578.5,286C 578.415,287.107 578.081,288.107 577.5,289C 579.305,300.464 579.972,311.964 579.5,323.5C 576.109,357.724 567.609,391.057 554,423.5C 545.832,439.191 536.832,453.858 527,467.5C 522.047,474.917 516.047,482.25 509,489.5C 508.667,490.5 508.333,491.5 508,492.5C 497.088,503.168 485.922,513.668 474.5,524C 461.955,532.289 449.288,540.622 436.5,549C 424.002,554.417 411.669,560.084 399.5,566C 388.239,568.892 377.239,572.226 366.5,576C 275.86,593.946 195.194,573.612 124.5,515C 119.081,509.65 113.748,504.316 108.5,499C 107.5,498.667 106.5,498.333 105.5,498C 105.411,495.522 103.911,493.688 101,492.5C 93.1223,481.536 84.4556,470.536 75,459.5C 69.2102,450.141 63.8769,440.475 59,430.5C 55.1254,421.08 50.9587,411.747 46.5,402.5C 45.4519,400.59 45.4519,398.756 46.5,397C 43.2236,389.78 40.2236,382.447 37.5,375C 37.8333,374.667 38.1667,374.333 38.5,374C 36.6845,366.735 35.0179,359.402 33.5,352C 33.8562,348.828 33.1896,345.662 31.5,342.5C 32.0219,341.393 32.3552,340.226 32.5,339C 31.9158,330.406 30.9158,321.74 29.5,313C 31.8491,216.157 71.1824,139.49 147.5,83C 152.957,80.1619 158.124,76.9953 163,73.5C 166.675,72.3756 170.175,70.2089 173.5,67C 182.305,62.8491 190.971,58.5158 199.5,54C 204.406,52.3481 209.406,51.0148 214.5,50C 216.09,48.9542 217.59,47.7875 219,46.5C 219.414,46.9574 219.914,47.2907 220.5,47.5C 225.886,45.9821 231.22,44.1488 236.5,42C 256.39,38.0594 275.723,35.2261 294.5,33.5 Z"/></g>

<g><path style="opacity:1" fill="#d4d4d4" d="M 541.5,181.5 C 540.611,178.771 538.777,176.771 536,175.5C 535.747,172.21 534.747,169.21 533,166.5C 530.318,163.473 527.985,160.139 526,156.5C 524.846,155.257 523.512,154.257 522,153.5C 521.751,150.823 520.751,148.49 519,146.5C 516.023,143.869 513.523,140.869 511.5,137.5C 510.675,136.614 509.675,136.281 508.5,136.5C 508.046,133.86 506.879,131.527 505,129.5C 490.805,115.975 475.972,103.142 460.5,91C 445.85,81.4333 430.683,72.6 415,64.5C 413.612,65.5536 412.112,65.7203 410.5,65C 407.908,61.1799 404.242,59.5133 399.5,60C 380.033,52.5841 359.7,46.7508 338.5,42.5C 336.007,43.7736 333.674,43.4403 331.5,41.5C 314.167,41.5741 296.667,41.5741 279,41.5C 277.759,43.6395 276.093,43.9729 274,42.5C 260.386,43.8482 247.22,46.8482 234.5,51.5C 235.689,52.4287 237.022,52.762 238.5,52.5C 183.221,66.9667 137.555,96.3001 101.5,140.5C 102.815,137.45 101.815,136.783 98.5,138.5C 96.0811,140.754 94.2477,143.421 93,146.5C 91.7365,148.607 89.9032,149.607 87.5,149.5C 87.2993,153.902 85.466,157.568 82,160.5C 80.4167,163.316 78.2501,166.483 75.5,170C 75.8333,170.333 76.1667,170.667 76.5,171C 73.0237,174.116 70.6904,177.949 69.5,182.5C 68.675,183.386 67.675,183.719 66.5,183.5C 64.0795,189.919 61.4128,196.252 58.5,202.5C 59.4756,204.123 58.9756,205.457 57,206.5C 52.9157,221.644 48.2491,236.644 43,251.5C 37.8296,277.46 36.3296,303.627 38.5,330C 41.4008,348.73 45.2342,367.23 50,385.5C 56.1521,402.456 62.8188,419.123 70,435.5C 74.2838,441.827 78.6171,448.16 83,454.5C 84.9549,460.738 88.6216,465.738 94,469.5C 96.7226,472.557 99.056,475.89 101,479.5C 101.671,480.252 102.504,480.586 103.5,480.5C 108.621,484.79 113.288,489.623 117.5,495C 122.801,499.765 128.135,504.265 133.5,508.5C 143.382,516.56 153.048,524.726 162.5,533C 215.406,564.812 272.406,578.479 333.5,574C 343.296,573.077 352.963,571.41 362.5,569C 378.026,564.458 393.359,560.291 408.5,556.5C 406.058,558.226 403.391,559.726 400.5,561C 311.848,591.995 228.514,581.662 150.5,530C 131.506,514.345 113.672,497.178 97,478.5C 90.1312,468.741 82.7978,459.408 75,450.5C 71.4168,442.324 68.0834,433.99 65,425.5C 57.027,413.607 51.3603,400.607 48,386.5C 43.2153,377.81 40.2153,368.477 39,358.5C 24.1,259.777 52.2666,176.11 123.5,107.5C 129.015,103.575 134.348,99.4081 139.5,95C 140.448,94.5172 141.448,94.3505 142.5,94.5C 142.117,91.538 143.117,90.538 145.5,91.5C 149.167,88.3333 152.833,85.1667 156.5,82C 168.492,76.3352 179.992,69.8352 191,62.5C 194.833,62.4251 198.333,60.9251 201.5,58C 216.645,52.5055 231.979,47.8388 247.5,44C 257.422,42.4151 267.255,40.5818 277,38.5C 296.122,38.5808 315.289,38.5808 334.5,38.5C 354.39,42.0442 374.057,46.8775 393.5,53C 457.497,76.6425 506.663,118.143 541,177.5C 541.49,178.793 541.657,180.127 541.5,181.5 Z"/></g>
<g><path style="opacity:1" fill="#dadada" d="M 373.5,62.5 C 380.546,65.8441 387.879,69.0108 395.5,72C 397.754,73.3767 399.92,74.8767 402,76.5C 402.333,76.1667 402.667,75.8333 403,75.5C 404.019,76.6872 405.186,77.6872 406.5,78.5C 407.583,79.365 407.749,80.365 407,81.5C 405.391,80.8534 403.891,80.02 402.5,79C 385.689,75.2532 368.689,72.2532 351.5,70C 331.788,69.896 312.121,69.0627 292.5,67.5C 286.334,68.1699 280.168,67.8366 274,66.5C 270.667,67.1667 267.333,67.8333 264,68.5C 261.165,67.1546 258.998,67.988 257.5,71C 253.955,71.7171 250.455,71.5504 247,70.5C 245.174,71.0104 245.007,71.8438 246.5,73C 245.101,73.5946 243.768,73.4279 242.5,72.5C 240.184,75.4265 238.684,75.0932 238,71.5C 236.513,72.2529 236.346,73.0862 237.5,74C 234.567,74.446 231.567,75.1127 228.5,76C 226.431,76.3242 226.098,77.1575 227.5,78.5C 225.993,79.7388 224.826,79.4054 224,77.5C 222.488,78.2567 221.154,79.2567 220,80.5C 219.667,80.1667 219.333,79.8333 219,79.5C 218.355,80.646 217.522,81.646 216.5,82.5C 212.439,84.925 208.106,86.7583 203.5,88C 206.167,88.6667 206.167,89.3333 203.5,90C 201.892,90.658 200.725,90.158 200,88.5C 197.201,93.292 193.034,96.1253 187.5,97C 188.993,98.1562 188.826,98.9896 187,99.5C 184.57,101.234 182.07,101.9 179.5,101.5C 177.754,105.414 174.754,107.58 170.5,108C 165.93,111.185 161.263,114.185 156.5,117C 148.81,125.37 140.476,133.037 131.5,140C 132.167,140.333 132.833,140.667 133.5,141C 130.844,142.003 129.844,143.67 130.5,146C 127.369,147.459 124.203,149.626 121,152.5C 120.544,153.744 121.044,154.577 122.5,155C 120.671,155.273 119.171,156.107 118,157.5C 117.72,162.341 115.553,166.007 111.5,168.5C 104.58,182.093 98.2471,195.593 92.5,209C 90.6125,210.394 89.2791,212.227 88.5,214.5C 88.7093,215.086 89.0426,215.586 89.5,216C 86.6769,219.408 84.5102,223.242 83,227.5C 79.3836,239.018 75.3836,250.352 71,261.5C 67.6019,275.763 64.1019,290.263 60.5,305C 61.5287,311.218 61.5287,317.551 60.5,324C 60.0949,328.648 58.4282,332.814 55.5,336.5C 53.4602,332.974 53.1268,329.308 54.5,325.5C 52.6187,316.955 51.2853,308.288 50.5,299.5C 50.1232,292.009 50.7899,284.675 52.5,277.5C 52.2414,288.869 52.7414,300.203 54,311.5C 54.5,312 55,312.5 55.5,313C 54.5939,314.699 54.2606,316.533 54.5,318.5C 55.5,318.5 56.5,318.5 57.5,318.5C 60.2279,292.289 65.7279,266.956 74,242.5C 84.6149,218.514 94.2815,194.514 103,170.5C 104.458,168.04 106.291,165.873 108.5,164C 108.167,163.667 107.833,163.333 107.5,163C 108.868,161.66 110.201,160.326 111.5,159C 114.354,154.778 116.854,150.278 119,145.5C 124.671,140.456 130.005,134.456 135,127.5C 135.333,127.833 135.667,128.167 136,128.5C 138.599,125.777 141.099,122.943 143.5,120C 144.449,119.383 145.282,119.549 146,120.5C 148.937,116.229 152.604,112.563 157,109.5C 157.984,111.795 158.817,111.461 159.5,108.5C 163.408,107.422 166.241,105.088 168,101.5C 168.333,101.833 168.667,102.167 169,102.5C 170.242,101.128 171.742,100.128 173.5,99.5C 174.711,98.7261 174.711,97.8928 173.5,97C 175.715,95.9562 178.048,95.2895 180.5,95C 187.93,90.2336 195.597,85.9003 203.5,82C 215.834,76.6476 228.334,71.8143 241,67.5C 246.541,67.8927 251.874,66.5594 257,63.5C 257.333,63.8333 257.667,64.1667 258,64.5C 260.124,63.7728 262.291,63.1062 264.5,62.5C 265.086,62.7093 265.586,63.0426 266,63.5C 271.068,62.4361 276.234,61.7694 281.5,61.5C 292.207,60.8364 302.874,61.5031 313.5,63.5C 315.429,63.4604 317.262,63.1271 319,62.5C 319.368,63.91 320.201,64.91 321.5,65.5C 326.558,64.5477 331.725,64.2144 337,64.5C 348.751,66.4047 360.584,68.238 372.5,70C 376.211,70.8253 379.878,70.6586 383.5,69.5C 379.105,66.9906 374.605,64.9906 370,63.5C 369.667,63.8333 369.333,64.1667 369,64.5C 366.041,63.2661 363.374,61.5994 361,59.5C 350.173,55.8766 339.34,54.8766 328.5,56.5C 322.224,55.1161 315.891,54.1161 309.5,53.5C 300.298,53.3594 290.798,54.0261 281,55.5C 279.769,54.8922 278.436,54.5589 277,54.5C 255.26,57.2132 234.093,62.0465 213.5,69C 200.713,73.9176 188.38,79.5842 176.5,86C 169.465,91.5195 161.799,96.0195 153.5,99.5C 160.47,94.3425 167.47,89.1759 174.5,84C 183.898,80.134 192.898,75.4674 201.5,70C 211.504,66.7744 221.504,63.7744 231.5,61C 244.269,58.462 256.936,55.6286 269.5,52.5C 299.442,48.8905 329.109,50.3905 358.5,57C 363.897,58.0866 368.897,59.9199 373.5,62.5 Z"/></g>
<g><path style="opacity:1" fill="#e1e1e1" d="M 373.5,62.5 C 378.25,63.1307 382.916,64.1307 387.5,65.5C 387.47,66.4972 387.97,67.1639 389,67.5C 401.312,72.4985 412.479,78.3318 422.5,85C 421.549,85.7175 421.383,86.5509 422,87.5C 423.871,86.3322 425.371,86.8322 426.5,89C 425.07,90.4404 423.403,90.7737 421.5,90C 410.946,86.1641 400.613,82.6641 390.5,79.5C 389.914,79.7093 389.414,80.0426 389,80.5C 384.235,79.4475 379.569,78.1142 375,76.5C 374.275,77.0585 373.442,77.3918 372.5,77.5C 364.741,76.9169 357.241,75.5836 350,73.5C 349,73.8333 348,74.1667 347,74.5C 346.196,73.1955 345.029,72.5288 343.5,72.5C 329.066,73.3837 314.566,73.3837 300,72.5C 297.648,72.3049 295.648,72.9716 294,74.5C 293.439,73.9781 292.772,73.6448 292,73.5C 281.896,74.9269 271.729,75.7603 261.5,76C 257.232,77.183 252.899,78.183 248.5,79C 249.833,79.3333 251.167,79.6667 252.5,80C 248.931,80.3899 245.597,81.3899 242.5,83C 239.167,83.3333 235.833,83.6667 232.5,84C 231.02,86.6679 229.52,86.8345 228,84.5C 227.424,87.1242 226.09,87.7908 224,86.5C 221.369,89.833 217.869,91.6663 213.5,92C 213.002,93.1581 212.169,93.9915 211,94.5C 209.535,93.6705 208.035,93.5038 206.5,94C 204.833,95.6667 203.167,97.3333 201.5,99C 191.731,104.659 182.064,110.326 172.5,116C 171.365,119.207 169.365,120.541 166.5,120C 163.084,124.087 159.084,127.42 154.5,130C 154.833,130.333 155.167,130.667 155.5,131C 151.216,133.491 147.216,136.491 143.5,140C 142.07,142.483 139.903,144.983 137,147.5C 136.383,148.449 136.549,149.282 137.5,150C 130.544,154.626 125.377,160.793 122,168.5C 120.488,169.257 119.154,170.257 118,171.5C 116.148,176.023 113.482,180.023 110,183.5C 102.295,197.927 94.9616,212.594 88,227.5C 85.7899,228.632 85.2899,230.132 86.5,232C 70.1917,268.986 62.1917,307.819 62.5,348.5C 61.9181,352.155 61.4181,355.822 61,359.5C 59.6667,358.167 58.3333,356.833 57,355.5C 50.6007,329.748 48.2673,303.748 50,277.5C 51.0192,275.498 51.8525,273.498 52.5,271.5C 52.5,273.5 52.5,275.5 52.5,277.5C 50.7899,284.675 50.1232,292.009 50.5,299.5C 51.2853,308.288 52.6187,316.955 54.5,325.5C 53.1268,329.308 53.4602,332.974 55.5,336.5C 58.4282,332.814 60.0949,328.648 60.5,324C 61.5287,317.551 61.5287,311.218 60.5,305C 64.1019,290.263 67.6019,275.763 71,261.5C 75.3836,250.352 79.3836,239.018 83,227.5C 84.5102,223.242 86.6769,219.408 89.5,216C 89.0426,215.586 88.7093,215.086 88.5,214.5C 89.2791,212.227 90.6125,210.394 92.5,209C 98.2471,195.593 104.58,182.093 111.5,168.5C 115.553,166.007 117.72,162.341 118,157.5C 119.171,156.107 120.671,155.273 122.5,155C 121.044,154.577 120.544,153.744 121,152.5C 124.203,149.626 127.369,147.459 130.5,146C 129.844,143.67 130.844,142.003 133.5,141C 132.833,140.667 132.167,140.333 131.5,140C 140.476,133.037 148.81,125.37 156.5,117C 161.263,114.185 165.93,111.185 170.5,108C 174.754,107.58 177.754,105.414 179.5,101.5C 182.07,101.9 184.57,101.234 187,99.5C 188.826,98.9896 188.993,98.1562 187.5,97C 193.034,96.1253 197.201,93.292 200,88.5C 200.725,90.158 201.892,90.658 203.5,90C 206.167,89.3333 206.167,88.6667 203.5,88C 208.106,86.7583 212.439,84.925 216.5,82.5C 217.522,81.646 218.355,80.646 219,79.5C 219.333,79.8333 219.667,80.1667 220,80.5C 221.154,79.2567 222.488,78.2567 224,77.5C 224.826,79.4054 225.993,79.7388 227.5,78.5C 226.098,77.1575 226.431,76.3242 228.5,76C 231.567,75.1127 234.567,74.446 237.5,74C 236.346,73.0862 236.513,72.2529 238,71.5C 238.684,75.0932 240.184,75.4265 242.5,72.5C 243.768,73.4279 245.101,73.5946 246.5,73C 245.007,71.8438 245.174,71.0104 247,70.5C 250.455,71.5504 253.955,71.7171 257.5,71C 258.998,67.988 261.165,67.1546 264,68.5C 267.333,67.8333 270.667,67.1667 274,66.5C 280.168,67.8366 286.334,68.1699 292.5,67.5C 312.121,69.0627 331.788,69.896 351.5,70C 368.689,72.2532 385.689,75.2532 402.5,79C 403.891,80.02 405.391,80.8534 407,81.5C 407.749,80.365 407.583,79.365 406.5,78.5C 405.186,77.6872 404.019,76.6872 403,75.5C 402.667,75.8333 402.333,76.1667 402,76.5C 399.92,74.8767 397.754,73.3767 395.5,72C 387.879,69.0108 380.546,65.8441 373.5,62.5 Z"/></g>
<g><path style="opacity:1" fill="#e7e7e7" d="M 387.5,65.5 C 395.459,68.0566 403.126,71.0566 410.5,74.5C 413.67,78.1081 417.67,80.7748 422.5,82.5C 423.251,83.376 423.751,84.376 424,85.5C 424.414,85.0426 424.914,84.7093 425.5,84.5C 427.487,86.3274 429.821,87.3274 432.5,87.5C 432.351,88.552 432.517,89.552 433,90.5C 436.289,92.8884 439.456,95.3884 442.5,98C 442.37,99.0588 441.87,99.8921 441,100.5C 439.082,99.4582 437.249,98.2915 435.5,97C 430.599,96.7844 426.099,94.951 422,91.5C 416.226,91.9227 410.726,90.4227 405.5,87C 392.766,84.0626 380.266,81.2293 368,78.5C 332.113,74.7219 296.279,76.2219 260.5,83C 250.225,86.2537 239.892,89.2537 229.5,92C 221.588,96.1134 213.255,99.4467 204.5,102C 205.624,102.249 206.624,102.749 207.5,103.5C 196.024,107.96 185.857,113.626 177,120.5C 176.626,121.416 176.126,122.25 175.5,123C 169.466,127.012 163.466,131.012 157.5,135C 149.059,144.031 140.726,153.198 132.5,162.5C 129.445,163.305 127.778,165.305 127.5,168.5C 123.363,170.988 120.696,174.655 119.5,179.5C 118.092,180.243 116.759,181.077 115.5,182C 115.833,182.333 116.167,182.667 116.5,183C 109.294,191.587 103.794,201.087 100,211.5C 97.1468,215.738 94.4802,220.072 92,224.5C 91.6667,226.5 91.3333,228.5 91,230.5C 89.6152,231.551 88.6152,232.884 88,234.5C 79.0327,256.857 72.5327,279.857 68.5,303.5C 69.3473,305.061 69.0139,306.561 67.5,308C 68.4948,311.725 68.1615,315.392 66.5,319C 69,319.833 69.1667,321 67,322.5C 66.8071,327.75 66.3071,332.917 65.5,338C 66.6818,342.902 66.6818,348.068 65.5,353.5C 67.408,361.342 68.408,369.176 68.5,377C 68.0788,379.185 67.5788,381.351 67,383.5C 66.7811,382.062 66.2811,380.729 65.5,379.5C 64.4104,380.391 64.4104,381.391 65.5,382.5C 63.2692,385.034 63.2692,387.701 65.5,390.5C 64.7997,390.787 64.1331,391.12 63.5,391.5C 60.2132,384.834 57.3799,377.834 55,370.5C 51.2271,353.636 48.2271,336.636 46,319.5C 45.173,305.994 45.3396,292.66 46.5,279.5C 46.3334,292.504 46.5001,305.504 47,318.5C 47.032,301.433 48.032,284.433 50,267.5C 54.2985,247.597 59.6318,227.93 66,208.5C 67.4048,207.269 68.5714,205.936 69.5,204.5C 68.0821,209.649 66.4154,214.649 64.5,219.5C 64.3067,222.308 63.64,224.975 62.5,227.5C 58.9865,236.851 56.1532,246.518 54,256.5C 53.7814,261.582 53.2814,266.582 52.5,271.5C 51.8525,273.498 51.0192,275.498 50,277.5C 48.2673,303.748 50.6007,329.748 57,355.5C 58.3333,356.833 59.6667,358.167 61,359.5C 61.4181,355.822 61.9181,352.155 62.5,348.5C 62.1917,307.819 70.1917,268.986 86.5,232C 85.2899,230.132 85.7899,228.632 88,227.5C 94.9616,212.594 102.295,197.927 110,183.5C 113.482,180.023 116.148,176.023 118,171.5C 119.154,170.257 120.488,169.257 122,168.5C 125.377,160.793 130.544,154.626 137.5,150C 136.549,149.282 136.383,148.449 137,147.5C 139.903,144.983 142.07,142.483 143.5,140C 147.216,136.491 151.216,133.491 155.5,131C 155.167,130.667 154.833,130.333 154.5,130C 159.084,127.42 163.084,124.087 166.5,120C 169.365,120.541 171.365,119.207 172.5,116C 182.064,110.326 191.731,104.659 201.5,99C 203.167,97.3333 204.833,95.6667 206.5,94C 208.035,93.5038 209.535,93.6705 211,94.5C 212.169,93.9915 213.002,93.1581 213.5,92C 217.869,91.6663 221.369,89.833 224,86.5C 226.09,87.7908 227.424,87.1242 228,84.5C 229.52,86.8345 231.02,86.6679 232.5,84C 235.833,83.6667 239.167,83.3333 242.5,83C 245.597,81.3899 248.931,80.3899 252.5,80C 251.167,79.6667 249.833,79.3333 248.5,79C 252.899,78.183 257.232,77.183 261.5,76C 271.729,75.7603 281.896,74.9269 292,73.5C 292.772,73.6448 293.439,73.9781 294,74.5C 295.648,72.9716 297.648,72.3049 300,72.5C 314.566,73.3837 329.066,73.3837 343.5,72.5C 345.029,72.5288 346.196,73.1955 347,74.5C 348,74.1667 349,73.8333 350,73.5C 357.241,75.5836 364.741,76.9169 372.5,77.5C 373.442,77.3918 374.275,77.0585 375,76.5C 379.569,78.1142 384.235,79.4475 389,80.5C 389.414,80.0426 389.914,79.7093 390.5,79.5C 400.613,82.6641 410.946,86.1641 421.5,90C 423.403,90.7737 425.07,90.4404 426.5,89C 425.371,86.8322 423.871,86.3322 422,87.5C 421.383,86.5509 421.549,85.7175 422.5,85C 412.479,78.3318 401.312,72.4985 389,67.5C 387.97,67.1639 387.47,66.4972 387.5,65.5 Z"/></g>
<g><path style="opacity:1" fill="#ececec" d="M 410.5,74.5 C 415.272,75.2564 419.439,77.2564 423,80.5C 424.557,79.7948 425.723,80.4615 426.5,82.5C 428.5,83.3333 430.5,84.1667 432.5,85C 434.638,88.3055 437.305,91.1388 440.5,93.5C 441.086,93.2907 441.586,92.9574 442,92.5C 443.333,94.5 444.667,96.5 446,98.5C 446.333,98.1667 446.667,97.8333 447,97.5C 448.5,99 450,100.5 451.5,102C 452.449,102.617 453.282,102.451 454,101.5C 455.119,102.552 455.619,103.719 455.5,105C 456.448,105.483 457.448,105.649 458.5,105.5C 458.351,106.552 458.517,107.552 459,108.5C 466.399,113.836 465.232,115.669 455.5,114C 447.833,109.667 440.167,105.333 432.5,101C 422.067,97.691 411.9,93.8577 402,89.5C 398.794,91.1244 396.128,90.4578 394,87.5C 391.925,90.0281 391.092,89.8614 391.5,87C 378.626,85.1131 365.793,82.9464 353,80.5C 351.486,80.7695 349.986,81.1029 348.5,81.5C 340.677,80.6872 332.843,79.6872 325,78.5C 318.914,80.5566 312.748,81.2233 306.5,80.5C 295.943,82.7355 285.276,84.2355 274.5,85C 256.812,88.02 240.312,93.52 225,101.5C 222.456,100.881 219.956,101.381 217.5,103C 212.788,105.349 208.455,108.183 204.5,111.5C 197.459,112.431 191.959,115.764 188,121.5C 187.667,120.833 187.333,120.167 187,119.5C 186.751,120.624 186.251,121.624 185.5,122.5C 181.76,125.148 177.76,127.315 173.5,129C 172.167,129.667 172.167,130.333 173.5,131C 169.803,131.738 167.47,133.905 166.5,137.5C 165.808,136.975 165.308,136.308 165,135.5C 162.788,139.205 159.622,141.871 155.5,143.5C 153.117,146.94 150.283,149.94 147,152.5C 146.517,153.448 146.351,154.448 146.5,155.5C 145.448,155.351 144.448,155.517 143.5,156C 132.339,168.146 122.506,181.312 114,195.5C 109.731,199.7 106.731,204.7 105,210.5C 103.287,211.878 101.953,213.545 101,215.5C 93.8006,233.221 86.634,250.888 79.5,268.5C 79.6082,269.442 79.9415,270.275 80.5,271C 77.4538,276.761 76.1204,282.761 76.5,289C 75.1068,290.171 74.2735,291.671 74,293.5C 71.5337,312.562 70.0337,331.729 69.5,351C 70.6645,358.146 71.6645,365.313 72.5,372.5C 72.1667,373.833 71.8333,375.167 71.5,376.5C 73.444,380.935 74.7774,385.602 75.5,390.5C 74.4414,395.856 74.4414,401.023 75.5,406C 79.153,405.799 79.4863,407.299 76.5,410.5C 77.2624,410.911 78.2624,411.077 79.5,411C 78.5939,412.699 78.2606,414.533 78.5,416.5C 81.9983,416.565 82.4983,417.899 80,420.5C 79.6667,420.167 79.3333,419.833 79,419.5C 78.5065,421.134 78.3398,422.801 78.5,424.5C 73.3061,415.446 68.6394,406.112 64.5,396.5C 63.962,394.883 63.6287,393.216 63.5,391.5C 64.1331,391.12 64.7997,390.787 65.5,390.5C 63.2692,387.701 63.2692,385.034 65.5,382.5C 64.4104,381.391 64.4104,380.391 65.5,379.5C 66.2811,380.729 66.7811,382.062 67,383.5C 67.5788,381.351 68.0788,379.185 68.5,377C 68.408,369.176 67.408,361.342 65.5,353.5C 66.6818,348.068 66.6818,342.902 65.5,338C 66.3071,332.917 66.8071,327.75 67,322.5C 69.1667,321 69,319.833 66.5,319C 68.1615,315.392 68.4948,311.725 67.5,308C 69.0139,306.561 69.3473,305.061 68.5,303.5C 72.5327,279.857 79.0327,256.857 88,234.5C 88.6152,232.884 89.6152,231.551 91,230.5C 91.3333,228.5 91.6667,226.5 92,224.5C 94.4802,220.072 97.1468,215.738 100,211.5C 103.794,201.087 109.294,191.587 116.5,183C 116.167,182.667 115.833,182.333 115.5,182C 116.759,181.077 118.092,180.243 119.5,179.5C 120.696,174.655 123.363,170.988 127.5,168.5C 127.778,165.305 129.445,163.305 132.5,162.5C 140.726,153.198 149.059,144.031 157.5,135C 163.466,131.012 169.466,127.012 175.5,123C 176.126,122.25 176.626,121.416 177,120.5C 185.857,113.626 196.024,107.96 207.5,103.5C 206.624,102.749 205.624,102.249 204.5,102C 213.255,99.4467 221.588,96.1134 229.5,92C 239.892,89.2537 250.225,86.2537 260.5,83C 296.279,76.2219 332.113,74.7219 368,78.5C 380.266,81.2293 392.766,84.0626 405.5,87C 410.726,90.4227 416.226,91.9227 422,91.5C 426.099,94.951 430.599,96.7844 435.5,97C 437.249,98.2915 439.082,99.4582 441,100.5C 441.87,99.8921 442.37,99.0588 442.5,98C 439.456,95.3884 436.289,92.8884 433,90.5C 432.517,89.552 432.351,88.552 432.5,87.5C 429.821,87.3274 427.487,86.3274 425.5,84.5C 424.914,84.7093 424.414,85.0426 424,85.5C 423.751,84.376 423.251,83.376 422.5,82.5C 417.67,80.7748 413.67,78.1081 410.5,74.5 Z"/></g>
<g><path style="opacity:1" fill="#f3f3f3" d="M 366.5,53.5 C 413.223,67.6961 453.557,92.3628 487.5,127.5C 492.905,133.565 497.905,139.898 502.5,146.5C 501.196,147.987 500.03,149.654 499,151.5C 498.626,150.584 498.126,149.75 497.5,149C 498.308,148.692 498.975,148.192 499.5,147.5C 497.803,146.636 496.637,145.303 496,143.5C 495.667,144.5 495.333,145.5 495,146.5C 492.766,144.3 490.266,142.467 487.5,141C 486.089,138.622 484.923,136.122 484,133.5C 481.81,136.249 480.143,135.915 479,132.5C 478.586,132.957 478.086,133.291 477.5,133.5C 476.194,130.934 474.361,129.934 472,130.5C 471.385,128.884 470.385,127.551 469,126.5C 467.506,127.747 466.006,127.747 464.5,126.5C 465.397,126.331 466.397,125.998 467.5,125.5C 465.994,124.253 464.494,124.253 463,125.5C 458.875,120.703 454.042,117.703 448.5,116.5C 447.5,115.833 446.5,115.167 445.5,114.5C 444.808,115.025 444.308,115.692 444,116.5C 443.348,114.277 441.848,113.11 439.5,113C 440.167,112.667 440.833,112.333 441.5,112C 430.688,106.622 419.354,102.456 407.5,99.5C 406.395,98.1076 405.061,96.941 403.5,96C 397.16,95.3993 390.826,94.7326 384.5,94C 385.833,93.6667 387.167,93.3333 388.5,93C 382.198,91.6395 375.864,90.4728 369.5,89.5C 369.709,88.914 370.043,88.414 370.5,88C 365.936,87.9507 361.603,87.1173 357.5,85.5C 354.685,86.2455 351.851,86.9121 349,87.5C 339.013,86.5739 331.846,85.9072 327.5,85.5C 327.649,86.552 327.483,87.552 327,88.5C 322.95,87.4259 318.45,86.7593 313.5,86.5C 304.139,86.7978 294.805,87.4645 285.5,88.5C 277.405,91.2187 269.071,92.7187 260.5,93C 262.5,93.3333 264.5,93.6667 266.5,94C 256.506,93.5495 247.339,96.3828 239,102.5C 237.644,101.62 236.144,101.286 234.5,101.5C 234.808,104.713 233.641,105.713 231,104.5C 228.865,105.127 226.698,105.627 224.5,106C 223.167,106.667 223.167,107.333 224.5,108C 220.146,108.418 216.146,109.752 212.5,112C 213.5,112.333 214.5,112.667 215.5,113C 213.888,113.72 212.388,113.554 211,112.5C 209.642,115.788 207.142,117.288 203.5,117C 201.167,118.243 200.5,119.909 201.5,122C 199.167,122.333 196.833,122.667 194.5,123C 193.965,125.109 192.965,125.609 191.5,124.5C 190.5,125 189.5,125.5 188.5,126C 188.201,127.32 188.034,128.82 188,130.5C 187.692,129.692 187.192,129.025 186.5,128.5C 183.691,132.071 180.025,133.738 175.5,133.5C 175.649,134.552 175.483,135.552 175,136.5C 171.5,140 168,143.5 164.5,147C 162.172,149.111 159.672,149.945 157,149.5C 156.86,152.043 156.194,154.377 155,156.5C 154.667,156.167 154.333,155.833 154,155.5C 151.929,156.525 149.762,157.358 147.5,158C 149.847,159.191 150.68,161.024 150,163.5C 149.667,162.5 149.333,161.5 149,160.5C 146.466,163.031 143.633,165.198 140.5,167C 142.125,167.853 142.458,168.853 141.5,170C 139.783,171.559 137.783,172.392 135.5,172.5C 135.392,174.783 134.559,176.783 133,178.5C 128.742,182.419 124.909,186.585 121.5,191C 122.591,193.064 122.758,195.231 122,197.5C 121.667,196.167 121.333,194.833 121,193.5C 118.052,195.043 117.218,197.21 118.5,200C 116.363,202.972 114.03,205.806 111.5,208.5C 111.085,211.079 109.752,212.913 107.5,214C 109.436,218.155 108.102,221.488 103.5,224C 104.609,225.813 103.942,226.646 101.5,226.5C 101.643,231.678 99.9761,236.511 96.5,241C 96.8333,241.333 97.1667,241.667 97.5,242C 96.1667,242.333 94.8333,242.667 93.5,243C 94.9079,246.383 94.0746,249.217 91,251.5C 90.5483,254.877 89.8816,258.211 89,261.5C 88.1072,260.289 87.2739,260.289 86.5,261.5C 86.9867,262.446 87.3201,263.446 87.5,264.5C 84.8797,268.925 84.213,273.592 85.5,278.5C 82.2381,283.282 80.7381,288.616 81,294.5C 80.5,295 80,295.5 79.5,296C 78.9394,297.566 79.6061,298.899 81.5,300C 78.3016,303.062 76.6349,306.895 76.5,311.5C 76.6587,327.803 76.8254,344.137 77,360.5C 80.1249,373.287 81.7916,386.287 82,399.5C 83.7476,403.115 85.4143,406.782 87,410.5C 87.711,412.899 87.5443,415.232 86.5,417.5C 88.3888,420.59 90.0555,423.757 91.5,427C 90.5243,429.147 90.691,431.314 92,433.5C 94.2329,438.135 96.8996,442.468 100,446.5C 100.232,448.507 99.8982,449.84 99,450.5C 101.009,452.543 103.009,454.543 105,456.5C 105.333,455.833 105.667,455.167 106,454.5C 106.333,456.167 106.667,457.833 107,459.5C 109.43,462.728 111.597,466.061 113.5,469.5C 114.651,470.731 115.817,470.731 117,469.5C 117.617,470.449 117.451,471.282 116.5,472C 119.049,472.751 120.716,474.418 121.5,477C 123.087,477.862 124.754,478.529 126.5,479C 125.549,479.718 125.383,480.551 126,481.5C 136.395,491.469 147.228,500.136 158.5,507.5C 157.757,508.182 157.091,508.849 156.5,509.5C 155.078,509.291 153.745,508.791 152.5,508C 125.426,487.766 102.759,463.599 84.5,435.5C 82.754,431.673 80.754,428.007 78.5,424.5C 78.3398,422.801 78.5065,421.134 79,419.5C 79.3333,419.833 79.6667,420.167 80,420.5C 82.4983,417.899 81.9983,416.565 78.5,416.5C 78.2606,414.533 78.5939,412.699 79.5,411C 78.2624,411.077 77.2624,410.911 76.5,410.5C 79.4863,407.299 79.153,405.799 75.5,406C 74.4414,401.023 74.4414,395.856 75.5,390.5C 74.7774,385.602 73.444,380.935 71.5,376.5C 71.8333,375.167 72.1667,373.833 72.5,372.5C 71.6645,365.313 70.6645,358.146 69.5,351C 70.0337,331.729 71.5337,312.562 74,293.5C 74.2735,291.671 75.1068,290.171 76.5,289C 76.1204,282.761 77.4538,276.761 80.5,271C 79.9415,270.275 79.6082,269.442 79.5,268.5C 86.634,250.888 93.8006,233.221 101,215.5C 101.953,213.545 103.287,211.878 105,210.5C 106.731,204.7 109.731,199.7 114,195.5C 122.506,181.312 132.339,168.146 143.5,156C 144.448,155.517 145.448,155.351 146.5,155.5C 146.351,154.448 146.517,153.448 147,152.5C 150.283,149.94 153.117,146.94 155.5,143.5C 159.622,141.871 162.788,139.205 165,135.5C 165.308,136.308 165.808,136.975 166.5,137.5C 167.47,133.905 169.803,131.738 173.5,131C 172.167,130.333 172.167,129.667 173.5,129C 177.76,127.315 181.76,125.148 185.5,122.5C 186.251,121.624 186.751,120.624 187,119.5C 187.333,120.167 187.667,120.833 188,121.5C 191.959,115.764 197.459,112.431 204.5,111.5C 208.455,108.183 212.788,105.349 217.5,103C 219.956,101.381 222.456,100.881 225,101.5C 240.312,93.52 256.812,88.02 274.5,85C 285.276,84.2355 295.943,82.7355 306.5,80.5C 312.748,81.2233 318.914,80.5566 325,78.5C 332.843,79.6872 340.677,80.6872 348.5,81.5C 349.986,81.1029 351.486,80.7695 353,80.5C 365.793,82.9464 378.626,85.1131 391.5,87C 391.092,89.8614 391.925,90.0281 394,87.5C 396.128,90.4578 398.794,91.1244 402,89.5C 411.9,93.8577 422.067,97.691 432.5,101C 440.167,105.333 447.833,109.667 455.5,114C 465.232,115.669 466.399,113.836 459,108.5C 458.517,107.552 458.351,106.552 458.5,105.5C 457.448,105.649 456.448,105.483 455.5,105C 455.619,103.719 455.119,102.552 454,101.5C 453.282,102.451 452.449,102.617 451.5,102C 450,100.5 448.5,99 447,97.5C 446.667,97.8333 446.333,98.1667 446,98.5C 444.667,96.5 443.333,94.5 442,92.5C 441.586,92.9574 441.086,93.2907 440.5,93.5C 437.305,91.1388 434.638,88.3055 432.5,85C 430.5,84.1667 428.5,83.3333 426.5,82.5C 425.723,80.4615 424.557,79.7948 423,80.5C 419.439,77.2564 415.272,75.2564 410.5,74.5C 403.126,71.0566 395.459,68.0566 387.5,65.5C 382.916,64.1307 378.25,63.1307 373.5,62.5C 368.897,59.9199 363.897,58.0866 358.5,57C 329.109,50.3905 299.442,48.8905 269.5,52.5C 256.936,55.6286 244.269,58.462 231.5,61C 221.504,63.7744 211.504,66.7744 201.5,70C 192.898,75.4674 183.898,80.134 174.5,84C 167.47,89.1759 160.47,94.3425 153.5,99.5C 115.973,126.713 87.973,161.713 69.5,204.5C 68.5714,205.936 67.4048,207.269 66,208.5C 59.6318,227.93 54.2985,247.597 50,267.5C 48.032,284.433 47.032,301.433 47,318.5C 46.5001,305.504 46.3334,292.504 46.5,279.5C 48.134,258.643 52.134,238.309 58.5,218.5C 68.1162,189.937 82.4495,163.937 101.5,140.5C 137.555,96.3001 183.221,66.9667 238.5,52.5C 281.257,42.9261 323.924,43.2594 366.5,53.5 Z"/></g>
<g><path style="opacity:1" fill="#d2d2d2" d="M 52.5,277.5 C 52.5,275.5 52.5,273.5 52.5,271.5C 53.2814,266.582 53.7814,261.582 54,256.5C 56.1532,246.518 58.9865,236.851 62.5,227.5C 60.8952,233.813 59.3952,240.147 58,246.5C 57.2114,250.091 57.3781,253.591 58.5,257C 57.0751,262.06 56.0751,267.227 55.5,272.5C 55.9186,273.672 56.5853,274.672 57.5,275.5C 57.8333,275.167 58.1667,274.833 58.5,274.5C 63.2599,252.085 70.7599,230.751 81,210.5C 81.859,204.116 83.859,198.116 87,192.5C 87.4577,189.442 87.1244,186.442 86,183.5C 82.0059,186.789 79.3392,190.789 78,195.5C 74.2641,203.976 69.7641,211.976 64.5,219.5C 66.4154,214.649 68.0821,209.649 69.5,204.5C 87.973,161.713 115.973,126.713 153.5,99.5C 161.799,96.0195 169.465,91.5195 176.5,86C 188.38,79.5842 200.713,73.9176 213.5,69C 234.093,62.0465 255.26,57.2132 277,54.5C 278.436,54.5589 279.769,54.8922 281,55.5C 290.798,54.0261 300.298,53.3594 309.5,53.5C 315.891,54.1161 322.224,55.1161 328.5,56.5C 339.34,54.8766 350.173,55.8766 361,59.5C 363.374,61.5994 366.041,63.2661 369,64.5C 369.333,64.1667 369.667,63.8333 370,63.5C 374.605,64.9906 379.105,66.9906 383.5,69.5C 379.878,70.6586 376.211,70.8253 372.5,70C 360.584,68.238 348.751,66.4047 337,64.5C 331.725,64.2144 326.558,64.5477 321.5,65.5C 320.201,64.91 319.368,63.91 319,62.5C 317.262,63.1271 315.429,63.4604 313.5,63.5C 302.874,61.5031 292.207,60.8364 281.5,61.5C 276.234,61.7694 271.068,62.4361 266,63.5C 265.586,63.0426 265.086,62.7093 264.5,62.5C 262.291,63.1062 260.124,63.7728 258,64.5C 257.667,64.1667 257.333,63.8333 257,63.5C 251.874,66.5594 246.541,67.8927 241,67.5C 228.334,71.8143 215.834,76.6476 203.5,82C 195.597,85.9003 187.93,90.2336 180.5,95C 178.048,95.2895 175.715,95.9562 173.5,97C 174.711,97.8928 174.711,98.7261 173.5,99.5C 171.742,100.128 170.242,101.128 169,102.5C 168.667,102.167 168.333,101.833 168,101.5C 166.241,105.088 163.408,107.422 159.5,108.5C 158.817,111.461 157.984,111.795 157,109.5C 152.604,112.563 148.937,116.229 146,120.5C 145.282,119.549 144.449,119.383 143.5,120C 141.099,122.943 138.599,125.777 136,128.5C 135.667,128.167 135.333,127.833 135,127.5C 130.005,134.456 124.671,140.456 119,145.5C 116.854,150.278 114.354,154.778 111.5,159C 110.201,160.326 108.868,161.66 107.5,163C 107.833,163.333 108.167,163.667 108.5,164C 106.291,165.873 104.458,168.04 103,170.5C 94.2815,194.514 84.6149,218.514 74,242.5C 65.7279,266.956 60.2279,292.289 57.5,318.5C 56.5,318.5 55.5,318.5 54.5,318.5C 54.2606,316.533 54.5939,314.699 55.5,313C 55,312.5 54.5,312 54,311.5C 52.7414,300.203 52.2414,288.869 52.5,277.5 Z"/></g>
<g><path style="opacity:1" fill="#f9f9f9" d="M 502.5,146.5 C 509.333,154.007 514.999,162.34 519.5,171.5C 518.897,173.679 518.23,175.846 517.5,178C 519.968,180.228 521.135,183.062 521,186.5C 521.333,185.5 521.667,184.5 522,183.5C 522.333,183.833 522.667,184.167 523,184.5C 522.667,186.5 522.333,188.5 522,190.5C 522.388,189.572 523.055,188.905 524,188.5C 526.5,189.502 527.333,191.002 526.5,193C 527.101,194.605 528.101,195.938 529.5,197C 529.937,202.562 531.437,208.062 534,213.5C 537.498,221.883 540.331,231.217 542.5,241.5C 545.646,245.136 546.313,249.303 544.5,254C 546.383,262.361 548.05,270.694 549.5,279C 548.283,287.374 548.283,295.874 549.5,304.5C 549.4,311.771 548.733,318.938 547.5,326C 547.833,326.333 548.167,326.667 548.5,327C 547.566,330.49 546.566,333.99 545.5,337.5C 545.931,338.293 546.265,339.127 546.5,340C 544.123,349.384 542.456,358.884 541.5,368.5C 539.289,372.454 538.956,376.62 540.5,381C 536.577,385.11 533.744,389.944 532,395.5C 531.322,397.598 531.489,399.598 532.5,401.5C 531.325,401.281 530.325,401.614 529.5,402.5C 526.902,409.381 523.069,415.381 518,420.5C 514.093,427.353 510.76,434.353 508,441.5C 499.513,452.847 490.346,463.513 480.5,473.5C 478.052,478.449 474.386,482.282 469.5,485C 467.578,486.42 466.245,488.253 465.5,490.5C 453.212,499.631 440.546,508.131 427.5,516C 426.167,517.333 424.833,518.667 423.5,520C 424.056,520.383 424.389,520.883 424.5,521.5C 423.504,521.586 422.671,521.252 422,520.5C 412.416,524.539 402.916,529.039 393.5,534C 390.833,534.667 388.167,535.333 385.5,536C 382.79,538.857 379.457,540.69 375.5,541.5C 374.702,541.957 374.369,542.624 374.5,543.5C 373.5,543.5 372.5,543.5 371.5,543.5C 367.358,543.903 363.358,544.903 359.5,546.5C 358.006,546.291 356.839,545.624 356,544.5C 346.932,546.406 337.765,547.906 328.5,549C 327.328,549.419 326.328,550.085 325.5,551C 310.5,551.667 295.5,551.667 280.5,551C 274.201,550.797 268.035,549.964 262,548.5C 260.17,548.333 258.17,548.666 256,549.5C 244.671,546.279 233.504,542.445 222.5,538C 218.022,537.175 213.689,537.009 209.5,537.5C 198.31,533.902 187.644,529.236 177.5,523.5C 170.017,519.59 163.017,514.923 156.5,509.5C 157.091,508.849 157.757,508.182 158.5,507.5C 147.228,500.136 136.395,491.469 126,481.5C 125.383,480.551 125.549,479.718 126.5,479C 124.754,478.529 123.087,477.862 121.5,477C 120.716,474.418 119.049,472.751 116.5,472C 117.451,471.282 117.617,470.449 117,469.5C 115.817,470.731 114.651,470.731 113.5,469.5C 111.597,466.061 109.43,462.728 107,459.5C 106.667,457.833 106.333,456.167 106,454.5C 105.667,455.167 105.333,455.833 105,456.5C 103.009,454.543 101.009,452.543 99,450.5C 99.8982,449.84 100.232,448.507 100,446.5C 96.8996,442.468 94.2329,438.135 92,433.5C 90.691,431.314 90.5243,429.147 91.5,427C 90.0555,423.757 88.3888,420.59 86.5,417.5C 87.5443,415.232 87.711,412.899 87,410.5C 85.4143,406.782 83.7476,403.115 82,399.5C 81.7916,386.287 80.1249,373.287 77,360.5C 76.8254,344.137 76.6587,327.803 76.5,311.5C 76.6349,306.895 78.3016,303.062 81.5,300C 79.6061,298.899 78.9394,297.566 79.5,296C 80,295.5 80.5,295 81,294.5C 80.7381,288.616 82.2381,283.282 85.5,278.5C 84.213,273.592 84.8797,268.925 87.5,264.5C 87.3201,263.446 86.9867,262.446 86.5,261.5C 87.2739,260.289 88.1072,260.289 89,261.5C 89.8816,258.211 90.5483,254.877 91,251.5C 94.0746,249.217 94.9079,246.383 93.5,243C 94.8333,242.667 96.1667,242.333 97.5,242C 97.1667,241.667 96.8333,241.333 96.5,241C 99.9761,236.511 101.643,231.678 101.5,226.5C 103.942,226.646 104.609,225.813 103.5,224C 108.102,221.488 109.436,218.155 107.5,214C 109.752,212.913 111.085,211.079 111.5,208.5C 114.03,205.806 116.363,202.972 118.5,200C 117.218,197.21 118.052,195.043 121,193.5C 121.333,194.833 121.667,196.167 122,197.5C 122.758,195.231 122.591,193.064 121.5,191C 124.909,186.585 128.742,182.419 133,178.5C 134.559,176.783 135.392,174.783 135.5,172.5C 137.783,172.392 139.783,171.559 141.5,170C 142.458,168.853 142.125,167.853 140.5,167C 143.633,165.198 146.466,163.031 149,160.5C 149.333,161.5 149.667,162.5 150,163.5C 150.68,161.024 149.847,159.191 147.5,158C 149.762,157.358 151.929,156.525 154,155.5C 154.333,155.833 154.667,156.167 155,156.5C 156.194,154.377 156.86,152.043 157,149.5C 159.672,149.945 162.172,149.111 164.5,147C 168,143.5 171.5,140 175,136.5C 175.483,135.552 175.649,134.552 175.5,133.5C 180.025,133.738 183.691,132.071 186.5,128.5C 187.192,129.025 187.692,129.692 188,130.5C 188.034,128.82 188.201,127.32 188.5,126C 189.5,125.5 190.5,125 191.5,124.5C 192.965,125.609 193.965,125.109 194.5,123C 196.833,122.667 199.167,122.333 201.5,122C 200.5,119.909 201.167,118.243 203.5,117C 207.142,117.288 209.642,115.788 211,112.5C 212.388,113.554 213.888,113.72 215.5,113C 214.5,112.667 213.5,112.333 212.5,112C 216.146,109.752 220.146,108.418 224.5,108C 223.167,107.333 223.167,106.667 224.5,106C 226.698,105.627 228.865,105.127 231,104.5C 233.641,105.713 234.808,104.713 234.5,101.5C 236.144,101.286 237.644,101.62 239,102.5C 247.339,96.3828 256.506,93.5495 266.5,94C 264.5,93.6667 262.5,93.3333 260.5,93C 269.071,92.7187 277.405,91.2187 285.5,88.5C 294.805,87.4645 304.139,86.7978 313.5,86.5C 318.45,86.7593 322.95,87.4259 327,88.5C 327.483,87.552 327.649,86.552 327.5,85.5C 331.846,85.9072 339.013,86.5739 349,87.5C 351.851,86.9121 354.685,86.2455 357.5,85.5C 361.603,87.1173 365.936,87.9507 370.5,88C 370.043,88.414 369.709,88.914 369.5,89.5C 375.864,90.4728 382.198,91.6395 388.5,93C 387.167,93.3333 385.833,93.6667 384.5,94C 390.826,94.7326 397.16,95.3993 403.5,96C 405.061,96.941 406.395,98.1076 407.5,99.5C 419.354,102.456 430.688,106.622 441.5,112C 440.833,112.333 440.167,112.667 439.5,113C 441.848,113.11 443.348,114.277 444,116.5C 444.308,115.692 444.808,115.025 445.5,114.5C 446.5,115.167 447.5,115.833 448.5,116.5C 454.042,117.703 458.875,120.703 463,125.5C 464.494,124.253 465.994,124.253 467.5,125.5C 466.397,125.998 465.397,126.331 464.5,126.5C 466.006,127.747 467.506,127.747 469,126.5C 470.385,127.551 471.385,128.884 472,130.5C 474.361,129.934 476.194,130.934 477.5,133.5C 478.086,133.291 478.586,132.957 479,132.5C 480.143,135.915 481.81,136.249 484,133.5C 484.923,136.122 486.089,138.622 487.5,141C 490.266,142.467 492.766,144.3 495,146.5C 495.333,145.5 495.667,144.5 496,143.5C 496.637,145.303 497.803,146.636 499.5,147.5C 498.975,148.192 498.308,148.692 497.5,149C 498.126,149.75 498.626,150.584 499,151.5C 500.03,149.654 501.196,147.987 502.5,146.5 Z"/></g>
<g><path style="opacity:1" fill="#c7c7c7" d="M 62.5,227.5 C 63.64,224.975 64.3067,222.308 64.5,219.5C 69.7641,211.976 74.2641,203.976 78,195.5C 79.3392,190.789 82.0059,186.789 86,183.5C 87.1244,186.442 87.4577,189.442 87,192.5C 83.859,198.116 81.859,204.116 81,210.5C 70.7599,230.751 63.2599,252.085 58.5,274.5C 58.1667,274.833 57.8333,275.167 57.5,275.5C 56.5853,274.672 55.9186,273.672 55.5,272.5C 56.0751,267.227 57.0751,262.06 58.5,257C 57.3781,253.591 57.2114,250.091 58,246.5C 59.3952,240.147 60.8952,233.813 62.5,227.5 Z"/></g>
<g><path style="opacity:1" fill="#bab9b5" d="M 169.5,182.5 C 168.658,187.787 168.324,193.12 168.5,198.5C 167.352,194.019 167.185,189.352 168,184.5C 168.278,183.584 168.778,182.918 169.5,182.5 Z"/></g>
<g><path style="opacity:1" fill="#ededed" d="M 519.5,171.5 C 524.582,179.066 528.915,187.066 532.5,195.5C 542.385,216.688 548.718,239.021 551.5,262.5C 551.309,267.372 551.642,272.205 552.5,277C 552.245,278.326 551.578,279.326 550.5,280C 551.628,295.155 551.628,310.155 550.5,325C 548.97,336.29 546.97,347.456 544.5,358.5C 544.608,359.442 544.941,360.275 545.5,361C 544.232,363.627 542.899,366.127 541.5,368.5C 542.456,358.884 544.123,349.384 546.5,340C 546.265,339.127 545.931,338.293 545.5,337.5C 546.566,333.99 547.566,330.49 548.5,327C 548.167,326.667 547.833,326.333 547.5,326C 548.733,318.938 549.4,311.771 549.5,304.5C 548.283,295.874 548.283,287.374 549.5,279C 548.05,270.694 546.383,262.361 544.5,254C 546.313,249.303 545.646,245.136 542.5,241.5C 540.331,231.217 537.498,221.883 534,213.5C 531.437,208.062 529.937,202.562 529.5,197C 528.101,195.938 527.101,194.605 526.5,193C 527.333,191.002 526.5,189.502 524,188.5C 523.055,188.905 522.388,189.572 522,190.5C 522.333,188.5 522.667,186.5 523,184.5C 522.667,184.167 522.333,183.833 522,183.5C 521.667,184.5 521.333,185.5 521,186.5C 521.135,183.062 519.968,180.228 517.5,178C 518.23,175.846 518.897,173.679 519.5,171.5 Z"/></g>
<g><path style="opacity:1" fill="#cdcdcd" d="M 541.5,181.5 C 577.183,251.186 582.683,323.186 558,397.5C 552.263,410.72 546.929,424.053 542,437.5C 535.402,448.431 528.402,459.098 521,469.5C 513.978,475.356 507.811,482.023 502.5,489.5C 499.217,493.073 495.717,496.406 492,499.5C 489.96,503.612 487.46,507.279 484.5,510.5C 479.783,513.037 475.449,516.204 471.5,520C 470.167,520.333 468.833,520.667 467.5,521C 465.874,523.628 463.874,525.961 461.5,528C 448.204,535.995 434.87,543.995 421.5,552C 417.347,554.079 413.014,555.579 408.5,556.5C 393.359,560.291 378.026,564.458 362.5,569C 352.963,571.41 343.296,573.077 333.5,574C 272.406,578.479 215.406,564.812 162.5,533C 153.048,524.726 143.382,516.56 133.5,508.5C 135.677,508.586 137.677,509.253 139.5,510.5C 143.446,515.451 148.446,518.785 154.5,520.5C 156.521,523.377 158.854,526.21 161.5,529C 168.423,532.593 175.09,536.593 181.5,541C 187.237,543.649 193.237,545.482 199.5,546.5C 199.33,547.822 199.663,548.989 200.5,550C 210.173,553.832 219.839,557.332 229.5,560.5C 236.107,563.533 243.107,565.7 250.5,567C 297.436,576.782 343.769,573.782 389.5,558C 392.5,557.667 395.5,557.333 398.5,557C 405.354,553.742 412.354,550.742 419.5,548C 421.091,545.867 423.091,544.201 425.5,543C 501.522,501.874 548.022,438.707 565,353.5C 569.199,328.211 569.866,302.877 567,277.5C 561.965,254.656 556.299,231.989 550,209.5C 512.913,126.425 451.746,73.7584 366.5,51.5C 365.833,51.6667 365.167,51.8333 364.5,52C 365.416,52.2784 366.082,52.7784 366.5,53.5C 323.924,43.2594 281.257,42.9261 238.5,52.5C 237.022,52.762 235.689,52.4287 234.5,51.5C 247.22,46.8482 260.386,43.8482 274,42.5C 276.093,43.9729 277.759,43.6395 279,41.5C 296.667,41.5741 314.167,41.5741 331.5,41.5C 333.674,43.4403 336.007,43.7736 338.5,42.5C 359.7,46.7508 380.033,52.5841 399.5,60C 404.242,59.5133 407.908,61.1799 410.5,65C 412.112,65.7203 413.612,65.5536 415,64.5C 430.683,72.6 445.85,81.4333 460.5,91C 475.972,103.142 490.805,115.975 505,129.5C 506.879,131.527 508.046,133.86 508.5,136.5C 509.675,136.281 510.675,136.614 511.5,137.5C 513.523,140.869 516.023,143.869 519,146.5C 520.751,148.49 521.751,150.823 522,153.5C 523.512,154.257 524.846,155.257 526,156.5C 527.985,160.139 530.318,163.473 533,166.5C 534.747,169.21 535.747,172.21 536,175.5C 538.777,176.771 540.611,178.771 541.5,181.5 Z"/></g>
<g><path style="opacity:1" fill="#6b6f74" d="M 237.5,218.5 C 256.358,223.13 275.358,227.297 294.5,231C 318.241,234.077 340.575,229.911 361.5,218.5C 362.861,220.527 364.527,222.194 366.5,223.5C 357.27,228.972 347.27,232.805 336.5,235C 317.1,237.313 297.767,236.98 278.5,234C 263.854,230.669 249.187,227.336 234.5,224C 233.944,223.617 233.611,223.117 233.5,222.5C 235.341,221.598 236.674,220.264 237.5,218.5 Z"/></g>
<g><path style="opacity:1" fill="#cacaca" d="M 101.5,140.5 C 82.4495,163.937 68.1162,189.937 58.5,218.5C 58.6495,217.448 58.4828,216.448 58,215.5C 56.3124,218.226 54.8124,221.059 53.5,224C 54.0222,226.289 53.3555,228.456 51.5,230.5C 51.7093,231.086 52.0426,231.586 52.5,232C 51.0798,233.53 50.0798,235.363 49.5,237.5C 39.1265,277.553 37.6265,318.22 45,359.5C 49.8474,371.793 53.514,384.46 56,397.5C 63.9817,419.131 74.315,439.465 87,458.5C 90.1804,463.255 94.0137,467.255 98.5,470.5C 100.722,473.61 102.388,476.943 103.5,480.5C 102.504,480.586 101.671,480.252 101,479.5C 99.056,475.89 96.7226,472.557 94,469.5C 88.6216,465.738 84.9549,460.738 83,454.5C 78.6171,448.16 74.2838,441.827 70,435.5C 62.8188,419.123 56.1521,402.456 50,385.5C 45.2342,367.23 41.4008,348.73 38.5,330C 36.3296,303.627 37.8296,277.46 43,251.5C 48.2491,236.644 52.9157,221.644 57,206.5C 58.9756,205.457 59.4756,204.123 58.5,202.5C 61.4128,196.252 64.0795,189.919 66.5,183.5C 67.675,183.719 68.675,183.386 69.5,182.5C 70.6904,177.949 73.0237,174.116 76.5,171C 76.1667,170.667 75.8333,170.333 75.5,170C 78.2501,166.483 80.4167,163.316 82,160.5C 85.466,157.568 87.2993,153.902 87.5,149.5C 89.9032,149.607 91.7365,148.607 93,146.5C 94.2477,143.421 96.0811,140.754 98.5,138.5C 101.815,136.783 102.815,137.45 101.5,140.5 Z"/></g>
<g><path style="opacity:1" fill="#899094" d="M 233.5,222.5 C 233.611,223.117 233.944,223.617 234.5,224C 249.187,227.336 263.854,230.669 278.5,234C 297.767,236.98 317.1,237.313 336.5,235C 347.27,232.805 357.27,228.972 366.5,223.5C 366.351,224.552 366.517,225.552 367,226.5C 374.799,235.762 380.799,246.095 385,257.5C 385.483,256.552 385.649,255.552 385.5,254.5C 387.288,258.953 388.788,263.62 390,268.5C 394.662,271.244 398.829,274.577 402.5,278.5C 400.345,281.818 398.012,284.985 395.5,288C 396.775,290.071 398.609,291.571 401,292.5C 401.667,293.833 401.667,295.167 401,296.5C 398.302,300.025 395.469,303.358 392.5,306.5C 396.611,292.385 391.611,283.385 377.5,279.5C 377.44,268.699 375.273,258.365 371,248.5C 356.129,230.624 342.129,231.29 329,250.5C 324.406,259.587 322.239,269.253 322.5,279.5C 316.729,278.009 311.063,278.342 305.5,280.5C 303.555,269.817 299.388,260.151 293,251.5C 281.268,239.803 267.768,237.303 252.5,244C 238.664,255.346 234.664,269.513 240.5,286.5C 231.855,288.651 225.188,293.485 220.5,301C 221.737,301.232 222.737,301.732 223.5,302.5C 219.586,302.111 215.92,302.778 212.5,304.5C 210.283,303.773 207.95,303.94 205.5,305C 205.957,305.414 206.291,305.914 206.5,306.5C 204.65,307.242 203.984,308.242 204.5,309.5C 199.867,307.75 199.201,304.917 202.5,301C 202.361,299.699 201.695,298.866 200.5,298.5C 200.167,297.833 199.833,297.167 199.5,296.5C 198.54,294.539 197.207,292.873 195.5,291.5C 200.47,287.766 204.303,283.099 207,277.5C 209.876,266.111 212.876,254.778 216,243.5C 216.333,237.167 216.667,230.833 217,224.5C 218.699,223.594 220.533,223.261 222.5,223.5C 222.298,225.989 222.798,228.323 224,230.5C 226.335,228.6 228.502,226.6 230.5,224.5C 231.5,223.833 232.5,223.167 233.5,222.5 Z"/></g>
<g><path style="opacity:1" fill="#a8aeb0" d="M 366.5,223.5 C 367.939,225.36 369.605,227.027 371.5,228.5C 371.833,229.5 372.5,230.167 373.5,230.5C 378.539,237.911 382.539,245.911 385.5,254.5C 385.649,255.552 385.483,256.552 385,257.5C 380.799,246.095 374.799,235.762 367,226.5C 366.517,225.552 366.351,224.552 366.5,223.5 Z"/></g>
<g><path style="opacity:1" fill="#101111" d="M 378.5,228.5 C 378.196,229.15 377.863,229.817 377.5,230.5C 384.881,241.129 390.048,252.796 393,265.5C 397.634,268.14 401.634,271.473 405,275.5C 405.667,277.5 405.667,279.5 405,281.5C 403.818,283.344 402.651,285.177 401.5,287C 402.27,288.775 403.437,290.275 405,291.5C 405.323,296.532 403.657,300.865 400,304.5C 384.259,321.28 365.759,333.947 344.5,342.5C 357.025,350.851 368.525,360.517 379,371.5C 383.141,376.114 385.974,381.448 387.5,387.5C 390.103,386.438 392.77,386.272 395.5,387C 408.631,391.928 421.464,397.428 434,403.5C 434.828,407.871 434.661,412.205 433.5,416.5C 408.947,425.629 384.281,434.462 359.5,443C 355.095,443.559 350.929,442.725 347,440.5C 343.679,443.463 343.679,446.463 347,449.5C 348.379,453.475 347.213,456.309 343.5,458C 334.153,459.97 324.82,459.97 315.5,458C 314.667,457.167 313.833,456.333 313,455.5C 311.562,448.808 310.062,442.142 308.5,435.5C 302.833,434.167 297.167,434.167 291.5,435.5C 288.306,442.131 286.806,449.131 287,456.5C 285.833,457.667 284.667,458.833 283.5,460C 274.82,461.966 266.153,461.966 257.5,460C 256.299,459.097 255.465,457.931 255,456.5C 251.702,445.714 249.369,434.714 248,423.5C 247.586,423.043 247.086,422.709 246.5,422.5C 224.612,431.039 208.112,425.039 197,404.5C 196.374,402.287 196.541,400.12 197.5,398C 191.829,384.915 192.329,372.081 199,359.5C 199.804,358.196 200.971,357.529 202.5,357.5C 205.965,361.797 209.965,365.63 214.5,369C 217.055,370.444 219.721,371.611 222.5,372.5C 224.473,371.669 226.473,371.502 228.5,372C 233.96,377.295 239.293,382.795 244.5,388.5C 245.167,384.687 245.834,381.021 246.5,377.5C 246.335,380.85 246.502,384.183 247,387.5C 247.671,388.252 248.504,388.586 249.5,388.5C 249.196,411.34 252.362,433.673 259,455.5C 259.816,456.823 260.983,457.489 262.5,457.5C 268.176,457.666 273.843,457.499 279.5,457C 280.416,456.626 281.25,456.126 282,455.5C 283.009,448.469 284.842,441.636 287.5,435C 286.293,433.7 285.626,432.2 285.5,430.5C 294.173,430.666 302.84,430.5 311.5,430C 313.5,429.333 315.5,428.667 317.5,428C 316.069,427.535 314.903,426.701 314,425.5C 313.501,421.848 313.335,418.182 313.5,414.5C 314.29,413.206 315.29,412.039 316.5,411C 322.725,409.138 328.725,406.971 334.5,404.5C 338.5,403.5 342.5,402.5 346.5,401.5C 348.502,386.065 347.169,370.898 342.5,356C 344.164,354.233 345.331,354.733 346,357.5C 347.817,363.435 349.317,369.435 350.5,375.5C 349.352,380.439 351.019,383.939 355.5,386C 361.795,390.656 368.795,392.656 376.5,392C 377.737,391.768 378.737,391.268 379.5,390.5C 381.478,389.683 382.478,388.183 382.5,386C 381.673,382.512 380.173,379.346 378,376.5C 368.352,365.51 357.518,356.01 345.5,348C 342.439,345.965 339.105,344.799 335.5,344.5C 333.626,343.715 331.626,343.048 329.5,342.5C 353.626,335.938 374.626,323.938 392.5,306.5C 395.469,303.358 398.302,300.025 401,296.5C 401.667,295.167 401.667,293.833 401,292.5C 398.609,291.571 396.775,290.071 395.5,288C 398.012,284.985 400.345,281.818 402.5,278.5C 398.829,274.577 394.662,271.244 390,268.5C 388.788,263.62 387.288,258.953 385.5,254.5C 382.539,245.911 378.539,237.911 373.5,230.5C 373.721,227.903 374.221,227.903 375,230.5C 375.816,229.177 376.983,228.511 378.5,228.5 Z"/></g>
<g><path style="opacity:1" fill="#6c7176" d="M 222.5,217.5 C 222.5,219.5 222.5,221.5 222.5,223.5C 220.533,223.261 218.699,223.594 217,224.5C 216.667,230.833 216.333,237.167 216,243.5C 212.876,254.778 209.876,266.111 207,277.5C 204.303,283.099 200.47,287.766 195.5,291.5C 197.207,292.873 198.54,294.539 199.5,296.5C 195.413,295.744 192.08,293.744 189.5,290.5C 193.151,286.348 196.984,282.348 201,278.5C 203.895,266.588 207.561,254.921 212,243.5C 212.5,234.84 212.666,226.173 212.5,217.5C 215.833,217.5 219.167,217.5 222.5,217.5 Z"/></g>
<g><path style="opacity:1" fill="#eeeade" d="M 392.5,306.5 C 374.626,323.938 353.626,335.938 329.5,342.5C 323.227,343.687 316.894,344.354 310.5,344.5C 292.01,344.307 274.01,341.307 256.5,335.5C 248.488,326.982 240.988,317.982 234,308.5C 231.015,305.591 227.515,303.591 223.5,302.5C 222.737,301.732 221.737,301.232 220.5,301C 225.188,293.485 231.855,288.651 240.5,286.5C 234.664,269.513 238.664,255.346 252.5,244C 267.768,237.303 281.268,239.803 293,251.5C 299.388,260.151 303.555,269.817 305.5,280.5C 311.063,278.342 316.729,278.009 322.5,279.5C 322.239,269.253 324.406,259.587 329,250.5C 342.129,231.29 356.129,230.624 371,248.5C 375.273,258.365 377.44,268.699 377.5,279.5C 391.611,283.385 396.611,292.385 392.5,306.5 Z"/></g>
<g><path style="opacity:1" fill="#f2f2f0" d="M 359.5,289.5 C 358.306,290.272 357.306,291.272 356.5,292.5C 354.265,292.795 352.265,292.461 350.5,291.5C 361.256,282.457 363.089,271.791 356,259.5C 353.536,256.353 350.37,254.353 346.5,253.5C 343.772,252.795 340.939,252.128 338,251.5C 337.667,251.833 337.333,252.167 337,252.5C 336.517,251.552 336.351,250.552 336.5,249.5C 339.203,249.045 341.87,248.378 344.5,247.5C 348.013,248.932 351.68,249.765 355.5,250C 362.674,255.496 366.007,262.83 365.5,272C 364.556,274.719 364.223,277.552 364.5,280.5C 363.325,280.281 362.325,280.614 361.5,281.5C 362.326,282.451 362.492,283.451 362,284.5C 360.581,285.46 359.081,286.293 357.5,287C 358.381,287.708 359.047,288.542 359.5,289.5 Z"/></g>
<g><path style="opacity:1" fill="#ededeb" d="M 281.5,259.5 C 271.191,256.239 264.024,259.573 260,269.5C 258.304,278.211 260.137,286.045 265.5,293C 267.577,294.705 269.91,295.872 272.5,296.5C 272.918,297.222 273.584,297.722 274.5,298C 271.1,298.153 267.767,297.653 264.5,296.5C 262.589,295.925 260.922,294.925 259.5,293.5C 255.549,290.096 254.549,285.93 256.5,281C 254.058,276.275 253.891,271.441 256,266.5C 258.02,260.883 261.52,256.717 266.5,254C 272.271,253.585 277.937,254.252 283.5,256C 282.167,257 282.167,258 283.5,259C 282.906,259.464 282.239,259.631 281.5,259.5 Z"/></g>
<g><path style="opacity:1" fill="#0c0a0a" d="M 281.5,259.5 C 293.054,270.588 293.387,282.088 282.5,294C 279.464,296.006 276.131,296.84 272.5,296.5C 269.91,295.872 267.577,294.705 265.5,293C 260.137,286.045 258.304,278.211 260,269.5C 264.024,259.573 271.191,256.239 281.5,259.5 Z"/></g>
<g><path style="opacity:1" fill="#f0f0f0" d="M 266.5,265.5 C 273.628,265.706 275.294,268.873 271.5,275C 265.498,275.993 263.332,273.493 265,267.5C 265.717,266.956 266.217,266.289 266.5,265.5 Z"/></g>
<g><path style="opacity:1" fill="#080707" d="M 346.5,253.5 C 350.37,254.353 353.536,256.353 356,259.5C 363.089,271.791 361.256,282.457 350.5,291.5C 340.921,293.131 334.421,289.464 331,280.5C 328.755,273.219 329.421,266.219 333,259.5C 336.231,254.634 340.731,252.634 346.5,253.5 Z"/></g>
<g><path style="opacity:1" fill="#e3e3e3" d="M 336.5,260.5 C 341.795,259.963 344.295,262.297 344,267.5C 341.523,272.368 338.523,272.701 335,268.5C 334.109,265.502 334.609,262.836 336.5,260.5 Z"/></g>
<g><path style="opacity:1" fill="#d96d28" d="M 347.5,277.5 C 353.75,277.882 355.417,280.715 352.5,286C 344.208,286.89 342.542,284.057 347.5,277.5 Z"/></g>
<g><path style="opacity:1" fill="#e67225" d="M 276.5,283.5 C 281.5,282.5 283.5,284.5 282.5,289.5C 276.167,291.833 274.167,289.833 276.5,283.5 Z"/></g>
<g><path style="opacity:1" fill="#b2653a" d="M 282.5,289.5 C 283.5,284.5 281.5,282.5 276.5,283.5C 280.352,280.477 283.019,281.477 284.5,286.5C 284.547,288.038 283.88,289.038 282.5,289.5 Z"/></g>
<g><path style="opacity:1" fill="#f1b19e" d="M 356.5,292.5 C 357.306,291.272 358.306,290.272 359.5,289.5C 366.736,284.264 373.903,284.264 381,289.5C 381.716,296.467 378.55,300.634 371.5,302C 366.175,303.257 361.508,302.09 357.5,298.5C 356.652,296.591 356.318,294.591 356.5,292.5 Z"/></g>
<g><path style="opacity:1" fill="#f1b29d" d="M 259.5,293.5 C 260.922,294.925 262.589,295.925 264.5,296.5C 267.563,300.957 266.896,304.79 262.5,308C 254.912,310.763 248.078,309.597 242,304.5C 240.798,300.207 241.965,296.707 245.5,294C 250.155,293.501 254.821,293.334 259.5,293.5 Z"/></g>
<g><path style="opacity:1" fill="#0e0b0a" d="M 311.5,282.5 C 317.176,282.051 322.509,283.051 327.5,285.5C 329.239,293.138 326.239,298.138 318.5,300.5C 317.417,301.365 317.251,302.365 318,303.5C 322.89,310.083 327.723,310.083 332.5,303.5C 332.833,304.167 333.167,304.833 333.5,305.5C 332.589,308.082 330.923,310.082 328.5,311.5C 324.996,322.75 317.663,326.25 306.5,322C 303.466,316.106 299.8,310.606 295.5,305.5C 296.365,304.417 297.365,304.251 298.5,305C 303.653,310.858 308.82,310.691 314,304.5C 314.781,303.056 314.614,301.723 313.5,300.5C 305.914,298.153 302.914,293.319 304.5,286C 306.713,284.384 309.047,283.217 311.5,282.5 Z"/></g>
<g><path style="opacity:1" fill="#dfe0dd" d="M 318.5,286.5 C 320.604,286.201 322.604,286.534 324.5,287.5C 322.977,289.283 320.977,289.949 318.5,289.5C 318.5,288.5 318.5,287.5 318.5,286.5 Z"/></g>
<g><path style="opacity:1" fill="#757a7e" d="M 200.5,298.5 C 201.695,298.866 202.361,299.699 202.5,301C 199.201,304.917 199.867,307.75 204.5,309.5C 203.984,308.242 204.65,307.242 206.5,306.5C 206.291,305.914 205.957,305.414 205.5,305C 207.95,303.94 210.283,303.773 212.5,304.5C 210.236,308.19 208.569,312.19 207.5,316.5C 202.587,314.463 198.087,311.796 194,308.5C 193.333,307.5 193.333,306.5 194,305.5C 196.466,303.242 198.633,300.909 200.5,298.5 Z"/></g>
<g><path style="opacity:1" fill="#0e0c0b" d="M 378.5,228.5 C 376.983,228.511 375.816,229.177 375,230.5C 374.221,227.903 373.721,227.903 373.5,230.5C 372.5,230.167 371.833,229.5 371.5,228.5C 371.563,223.797 371.229,219.13 370.5,214.5C 367.088,215.042 364.088,216.375 361.5,218.5C 340.575,229.911 318.241,234.077 294.5,231C 275.358,227.297 256.358,223.13 237.5,218.5C 232.562,217.608 227.562,217.274 222.5,217.5C 219.167,217.5 215.833,217.5 212.5,217.5C 212.666,226.173 212.5,234.84 212,243.5C 207.561,254.921 203.895,266.588 201,278.5C 196.984,282.348 193.151,286.348 189.5,290.5C 192.08,293.744 195.413,295.744 199.5,296.5C 199.833,297.167 200.167,297.833 200.5,298.5C 198.633,300.909 196.466,303.242 194,305.5C 193.333,306.5 193.333,307.5 194,308.5C 198.087,311.796 202.587,314.463 207.5,316.5C 208.569,312.19 210.236,308.19 212.5,304.5C 215.92,302.778 219.586,302.111 223.5,302.5C 227.515,303.591 231.015,305.591 234,308.5C 240.988,317.982 248.488,326.982 256.5,335.5C 259.139,339.488 262.806,341.988 267.5,343C 281.929,345.402 296.262,345.902 310.5,344.5C 316.894,344.354 323.227,343.687 329.5,342.5C 331.626,343.048 333.626,343.715 335.5,344.5C 332.273,344.676 329.273,345.343 326.5,346.5C 320.204,347.494 313.87,348.16 307.5,348.5C 294.585,348.975 281.752,348.309 269,346.5C 267.923,347.429 266.756,348.096 265.5,348.5C 257.876,342.378 250.709,335.711 244,328.5C 239.194,321.727 234.028,315.227 228.5,309C 224.849,305.773 220.849,305.106 216.5,307C 214.859,308.129 213.859,309.629 213.5,311.5C 212.318,322.175 214.818,332.175 221,341.5C 229.256,353.091 238.922,363.425 250,372.5C 249.728,377.788 249.561,383.122 249.5,388.5C 248.504,388.586 247.671,388.252 247,387.5C 246.502,384.183 246.335,380.85 246.5,377.5C 246.657,376.127 246.49,374.793 246,373.5C 228.209,361.382 216.209,345.049 210,324.5C 205.439,320.134 200.272,316.634 194.5,314C 188.331,309.514 187.998,304.681 193.5,299.5C 189.94,297.105 187.273,293.938 185.5,290C 188.272,284.893 192.105,280.726 197,277.5C 200.397,266.474 203.897,255.474 207.5,244.5C 197.11,238.312 187.61,230.645 179,221.5C 173.827,214.494 170.327,206.827 168.5,198.5C 168.324,193.12 168.658,187.787 169.5,182.5C 174.415,167.041 184.748,161.541 200.5,166C 205.214,167.774 209.714,169.941 214,172.5C 216.707,169.632 219.54,166.799 222.5,164C 227.604,163.538 232.271,164.872 236.5,168C 238.321,169.743 240.321,171.243 242.5,172.5C 246.338,161.825 251.504,151.825 258,142.5C 262.431,136.533 268.265,134.367 275.5,136C 279.668,138.25 283.668,140.75 287.5,143.5C 293.269,140.903 298.936,138.07 304.5,135C 311.796,132.763 317.962,134.596 323,140.5C 328.268,149.64 332.768,159.14 336.5,169C 337.167,169.667 337.833,169.667 338.5,169C 341.203,165.962 344.203,163.295 347.5,161C 354.273,159.705 359.106,162.205 362,168.5C 364.172,173.249 366.339,177.916 368.5,182.5C 373.47,177.237 377.97,171.57 382,165.5C 389.358,156.606 397.024,156.272 405,164.5C 409.495,175.11 409.495,185.776 405,196.5C 399.207,209.795 390.373,220.461 378.5,228.5 Z"/></g>
<g><path style="opacity:1" fill="#a27f4a" d="M 208.5,215.5 C 207.571,216.315 206.571,217.148 205.5,218C 206.448,218.483 207.448,218.649 208.5,218.5C 208.5,225.167 208.5,231.833 208.5,238.5C 207.209,238.737 206.209,238.404 205.5,237.5C 207.453,231.926 208.12,225.926 207.5,219.5C 201.943,217.011 202.276,215.678 208.5,215.5 Z"/></g>
<g><path style="opacity:1" fill="#d3ad67" d="M 277.5,220.5 C 283.5,221.833 289.5,223.167 295.5,224.5C 300.975,225.489 306.642,225.822 312.5,225.5C 313.964,226.16 315.631,226.493 317.5,226.5C 324.985,225.816 332.318,224.816 339.5,223.5C 329.951,227.092 319.951,228.758 309.5,228.5C 294.662,228.327 280.329,225.994 266.5,221.5C 269.884,221.34 273.217,221.673 276.5,222.5C 278.721,222.561 279.054,221.895 277.5,220.5 Z"/></g>
<g><path style="opacity:1" fill="#927b52" d="M 311.5,223.5 C 312.338,223.842 312.672,224.508 312.5,225.5C 306.642,225.822 300.975,225.489 295.5,224.5C 301.026,224.821 306.36,224.488 311.5,223.5 Z"/></g>
<g><path style="opacity:1" fill="#e2e2d9" d="M 222.5,223.5 C 225.385,223.194 228.052,223.527 230.5,224.5C 228.502,226.6 226.335,228.6 224,230.5C 222.798,228.323 222.298,225.989 222.5,223.5 Z"/></g>
<g><path style="opacity:1" fill="#d8b66e" d="M 328.5,215.5 C 327.653,216.966 326.32,217.8 324.5,218C 314.614,219.995 304.614,220.995 294.5,221C 295.737,221.232 296.737,221.732 297.5,222.5C 294.402,222.244 291.402,221.578 288.5,220.5C 295.167,219.833 301.833,219.167 308.5,218.5C 315.201,217.716 321.868,216.716 328.5,215.5 Z"/></g>
<g><path style="opacity:1" fill="#b7b3ac" d="M 222.5,217.5 C 227.562,217.274 232.562,217.608 237.5,218.5C 236.674,220.264 235.341,221.598 233.5,222.5C 232.5,223.167 231.5,223.833 230.5,224.5C 228.052,223.527 225.385,223.194 222.5,223.5C 222.5,221.5 222.5,219.5 222.5,217.5 Z"/></g>
<g><path style="opacity:1" fill="#4f402d" d="M 308.5,218.5 C 301.833,219.167 295.167,219.833 288.5,220.5C 287.624,220.631 286.957,220.298 286.5,219.5C 293.803,218.503 301.137,218.169 308.5,218.5 Z"/></g>
<g><path style="opacity:1" fill="#bb8d4f" d="M 256.5,216.5 C 260.429,217.131 263.763,218.798 266.5,221.5C 254.279,218.529 241.945,216.029 229.5,214C 223.13,213.294 216.797,213.461 210.5,214.5C 210.611,213.883 210.944,213.383 211.5,213C 226.647,212.436 241.647,213.602 256.5,216.5 Z"/></g>
<g><path style="opacity:1" fill="#8c8f8f" d="M 371.5,228.5 C 369.605,227.027 367.939,225.36 366.5,223.5C 364.527,222.194 362.861,220.527 361.5,218.5C 364.088,216.375 367.088,215.042 370.5,214.5C 371.229,219.13 371.563,223.797 371.5,228.5 Z"/></g>
<g><path style="opacity:1" fill="#7a4620" d="M 332.5,209.5 C 326.7,212.755 320.367,214.421 313.5,214.5C 318.442,212.881 323.442,210.881 328.5,208.5C 329.736,209.246 331.07,209.579 332.5,209.5 Z"/></g>
<g><path style="opacity:1" fill="#d09548" d="M 393.5,208.5 C 389.411,216.257 383.411,221.924 375.5,225.5C 375.038,220.972 374.371,216.472 373.5,212C 375.519,209.649 377.852,207.649 380.5,206C 379.552,205.517 378.552,205.351 377.5,205.5C 381.118,202.021 385.451,200.854 390.5,202C 391.926,204.045 392.926,206.212 393.5,208.5 Z"/></g>
<g><path style="opacity:1" fill="#d79a4b" d="M 172.5,184.5 C 172.334,188.514 172.501,192.514 173,196.5C 176.912,201.083 181.412,204.917 186.5,208C 190.58,209.058 194.747,209.558 199,209.5C 216.1,207.257 232.934,208.424 249.5,213C 251.97,214.021 254.304,215.188 256.5,216.5C 241.647,213.602 226.647,212.436 211.5,213C 210.944,213.383 210.611,213.883 210.5,214.5C 210.158,215.338 209.492,215.672 208.5,215.5C 202.276,215.678 201.943,217.011 207.5,219.5C 208.12,225.926 207.453,231.926 205.5,237.5C 193.664,231.832 184.164,223.498 177,212.5C 172.178,203.578 170.678,194.245 172.5,184.5 Z"/></g>
<g><path style="opacity:1" fill="#8f4815" d="M 332.5,209.5 C 331.07,209.579 329.736,209.246 328.5,208.5C 323.442,210.881 318.442,212.881 313.5,214.5C 299.874,215.857 286.207,215.69 272.5,214C 270.121,213.284 268.121,212.117 266.5,210.5C 265.1,208.984 263.767,207.317 262.5,205.5C 260.955,204.548 259.288,204.215 257.5,204.5C 257.5,203.5 257.5,202.5 257.5,201.5C 260.833,201.5 264.167,201.5 267.5,201.5C 270.764,202.324 274.098,202.658 277.5,202.5C 288.993,203.659 300.659,203.826 312.5,203C 316.133,202.851 319.466,202.018 322.5,200.5C 329.218,198.706 335.884,196.706 342.5,194.5C 343.376,197.799 343.543,201.132 343,204.5C 339.949,207.109 336.449,208.775 332.5,209.5 Z"/></g>
<g><path style="opacity:1" fill="#582e14" d="M 322.5,200.5 C 319.466,202.018 316.133,202.851 312.5,203C 300.659,203.826 288.993,203.659 277.5,202.5C 292.57,202.949 307.57,202.283 322.5,200.5 Z"/></g>
<g><path style="opacity:1" fill="#733d19" d="M 267.5,201.5 C 264.167,201.5 260.833,201.5 257.5,201.5C 257.5,202.5 257.5,203.5 257.5,204.5C 259.288,204.215 260.955,204.548 262.5,205.5C 263.767,207.317 265.1,208.984 266.5,210.5C 258.969,206.636 251.969,201.97 245.5,196.5C 245.667,196.167 245.833,195.833 246,195.5C 252.927,198.712 260.093,200.712 267.5,201.5 Z"/></g>
<g><path style="opacity:1" fill="#c5a265" d="M 266.5,197.5 C 283.5,198.833 300.5,198.833 317.5,197.5C 309.225,199.042 300.725,199.709 292,199.5C 283.275,199.709 274.775,199.042 266.5,197.5 Z"/></g>
<g><path style="opacity:1" fill="#ab895a" d="M 243.5,191.5 C 248.17,191.859 252.503,193.192 256.5,195.5C 251.835,194.943 247.502,193.61 243.5,191.5 Z"/></g>
<g><path style="opacity:1" fill="#878d90" d="M 359.5,191.5 C 359.395,187.681 358.562,184.014 357,180.5C 354.845,174.992 351.845,174.325 348,178.5C 345.962,181.243 344.462,184.243 343.5,187.5C 341.762,183.473 340.096,179.306 338.5,175C 341.87,168.84 346.87,165.506 353.5,165C 354.931,165.465 356.097,166.299 357,167.5C 360.331,173.161 362.831,179.161 364.5,185.5C 363.566,188.102 361.899,190.102 359.5,191.5 Z"/></g>
<g><path style="opacity:1" fill="#e6d4ab" d="M 327.5,157.5 C 332.296,168.034 336.629,178.868 340.5,190C 339.644,191.595 338.311,192.428 336.5,192.5C 335.26,187.588 334.427,182.588 334,177.5C 330.044,171.496 327.877,164.83 327.5,157.5 Z"/></g>
<g><path style="opacity:1" fill="#d7d4cd" d="M 238.5,190.5 C 234.104,187.975 230.104,184.975 226.5,181.5C 226.791,180.351 227.624,179.684 229,179.5C 234.914,180.907 238.081,184.573 238.5,190.5 Z"/></g>
<g><path style="opacity:1" fill="#e8e1d8" d="M 359.5,191.5 C 356.474,195.517 352.808,198.85 348.5,201.5C 346.282,197.057 344.615,192.39 343.5,187.5C 344.462,184.243 345.962,181.243 348,178.5C 351.845,174.325 354.845,174.992 357,180.5C 358.562,184.014 359.395,187.681 359.5,191.5 Z"/></g>
<g><path style="opacity:1" fill="#ebd4a5" d="M 238.5,196.5 C 225.579,186.87 211.579,179.036 196.5,173C 191.5,172.333 186.5,172.333 181.5,173C 179.922,174.094 178.255,174.928 176.5,175.5C 182.422,167.624 190.089,165.457 199.5,169C 213.935,176.21 226.935,185.377 238.5,196.5 Z"/></g>
<g><path style="opacity:1" fill="#f2bf64" d="M 238.5,196.5 C 250.737,205.783 263.737,213.783 277.5,220.5C 279.054,221.895 278.721,222.561 276.5,222.5C 273.217,221.673 269.884,221.34 266.5,221.5C 263.763,218.798 260.429,217.131 256.5,216.5C 254.304,215.188 251.97,214.021 249.5,213C 232.934,208.424 216.1,207.257 199,209.5C 194.747,209.558 190.58,209.058 186.5,208C 181.412,204.917 176.912,201.083 173,196.5C 172.501,192.514 172.334,188.514 172.5,184.5C 173.042,181.088 174.375,178.088 176.5,175.5C 178.255,174.928 179.922,174.094 181.5,173C 186.5,172.333 191.5,172.333 196.5,173C 211.579,179.036 225.579,186.87 238.5,196.5 Z"/></g>
<g><path style="opacity:1" fill="#838b8f" d="M 238.5,190.5 C 238.081,184.573 234.914,180.907 229,179.5C 227.624,179.684 226.791,180.351 226.5,181.5C 217.347,176.951 217.18,172.284 226,167.5C 232.575,169.355 237.741,173.021 241.5,178.5C 240.735,182.69 239.735,186.69 238.5,190.5 Z"/></g>
<g><path style="opacity:1" fill="#f1c064" d="M 402.5,168.5 C 406.778,183.339 403.778,196.672 393.5,208.5C 392.926,206.212 391.926,204.045 390.5,202C 385.451,200.854 381.118,202.021 377.5,205.5C 368.554,210.308 359.554,215.142 350.5,220C 346.979,221.674 343.313,222.84 339.5,223.5C 332.318,224.816 324.985,225.816 317.5,226.5C 315.631,226.493 313.964,226.16 312.5,225.5C 312.672,224.508 312.338,223.842 311.5,223.5C 306.77,223.717 302.103,223.383 297.5,222.5C 296.737,221.732 295.737,221.232 294.5,221C 304.614,220.995 314.614,219.995 324.5,218C 326.32,217.8 327.653,216.966 328.5,215.5C 340.148,210.859 350.815,204.525 360.5,196.5C 368.994,189.839 376.661,182.339 383.5,174C 386.218,172.934 388.551,171.267 390.5,169C 394.424,165.848 398.424,165.681 402.5,168.5 Z"/></g>
<g><path style="opacity:1" fill="#e8d2a3" d="M 402.5,168.5 C 398.424,165.681 394.424,165.848 390.5,169C 388.551,171.267 386.218,172.934 383.5,174C 376.661,182.339 368.994,189.839 360.5,196.5C 370.704,185.796 380.371,174.629 389.5,163C 395.942,159.955 400.275,161.788 402.5,168.5 Z"/></g>
<g><path style="opacity:1" fill="#c99148" d="M 263.5,142.5 C 264.919,143.451 266.585,143.784 268.5,143.5C 268.821,148.695 268.487,153.695 267.5,158.5C 267.329,147.854 266.829,147.854 266,158.5C 265.063,166.463 260.896,171.463 253.5,173.5C 252.167,172.067 250.667,170.733 249,169.5C 246.52,176.698 244.687,184.031 243.5,191.5C 244.407,176.604 248.907,162.604 257,149.5C 259.183,147.093 261.35,144.76 263.5,142.5 Z"/></g>
<g><path style="opacity:1" fill="#0e0904" d="M 267.5,158.5 C 267.51,168.15 262.844,173.15 253.5,173.5C 260.896,171.463 265.063,166.463 266,158.5C 266.829,147.854 267.329,147.854 267.5,158.5 Z"/></g>
<g><path style="opacity:1" fill="#e0cca1" d="M 327.5,157.5 C 326.624,157.631 325.957,157.298 325.5,156.5C 322.589,149.786 318.255,144.62 312.5,141C 308.848,140.501 305.182,140.335 301.5,140.5C 309.935,135.277 316.768,136.944 322,145.5C 324.119,149.402 325.952,153.402 327.5,157.5 Z"/></g>
<g><path style="opacity:1" fill="#f2c064" d="M 301.5,140.5 C 305.182,140.335 308.848,140.501 312.5,141C 318.255,144.62 322.589,149.786 325.5,156.5C 325.957,157.298 326.624,157.631 327.5,157.5C 327.877,164.83 330.044,171.496 334,177.5C 334.427,182.588 335.26,187.588 336.5,192.5C 330.571,195.547 324.238,197.214 317.5,197.5C 300.5,198.833 283.5,198.833 266.5,197.5C 262.922,197.451 259.589,196.785 256.5,195.5C 252.503,193.192 248.17,191.859 243.5,191.5C 244.687,184.031 246.52,176.698 249,169.5C 250.667,170.733 252.167,172.067 253.5,173.5C 262.844,173.15 267.51,168.15 267.5,158.5C 268.487,153.695 268.821,148.695 268.5,143.5C 266.585,143.784 264.919,143.451 263.5,142.5C 271.697,139.896 278.697,141.729 284.5,148C 286.025,149.009 287.692,149.509 289.5,149.5C 295.293,152.167 300.96,152.001 306.5,149C 302.833,148.667 299.167,148.333 295.5,148C 293.096,147.492 292.429,146.325 293.5,144.5C 296.22,143.14 298.886,141.807 301.5,140.5 Z"/></g>
<g><path style="opacity:1" fill="#e0c89c" d="M 289.5,149.5 C 287.692,149.509 286.025,149.009 284.5,148C 278.697,141.729 271.697,139.896 263.5,142.5C 266.249,138.829 269.916,137.663 274.5,139C 279.403,142.752 284.403,146.252 289.5,149.5 Z"/></g>
<g><path style="opacity:1" fill="#dc674f" d="M 304.5,313.5 C 308.182,313.335 311.848,313.501 315.5,314C 317.717,315.268 319.717,316.768 321.5,318.5C 316.379,322.464 311.213,322.464 306,318.5C 304.991,316.975 304.491,315.308 304.5,313.5 Z"/></g>
<g><path style="opacity:1" fill="#dbdbdb" d="M 551.5,262.5 C 558.599,310.478 552.599,356.811 533.5,401.5C 533.167,401.5 532.833,401.5 532.5,401.5C 531.489,399.598 531.322,397.598 532,395.5C 533.744,389.944 536.577,385.11 540.5,381C 538.956,376.62 539.289,372.454 541.5,368.5C 542.899,366.127 544.232,363.627 545.5,361C 544.941,360.275 544.608,359.442 544.5,358.5C 546.97,347.456 548.97,336.29 550.5,325C 551.628,310.155 551.628,295.155 550.5,280C 551.578,279.326 552.245,278.326 552.5,277C 551.642,272.205 551.309,267.372 551.5,262.5 Z"/></g>
<g><path style="opacity:1" fill="#b3aea7" d="M 256.5,335.5 C 274.01,341.307 292.01,344.307 310.5,344.5C 296.262,345.902 281.929,345.402 267.5,343C 262.806,341.988 259.139,339.488 256.5,335.5 Z"/></g>
<g><path style="opacity:1" fill="#878e91" d="M 265.5,348.5 C 270.753,351.234 276.42,352.901 282.5,353.5C 282.5,353.833 282.5,354.167 282.5,354.5C 275.824,367.281 273.657,380.947 276,395.5C 277.183,405.373 282.349,412.207 291.5,416C 298.411,417.384 305.411,417.884 312.5,417.5C 312.263,416.209 312.596,415.209 313.5,414.5C 313.335,418.182 313.501,421.848 314,425.5C 314.903,426.701 316.069,427.535 317.5,428C 315.5,428.667 313.5,429.333 311.5,430C 302.84,430.5 294.173,430.666 285.5,430.5C 285.626,432.2 286.293,433.7 287.5,435C 284.842,441.636 283.009,448.469 282,455.5C 281.25,456.126 280.416,456.626 279.5,457C 273.843,457.499 268.176,457.666 262.5,457.5C 260.657,444.462 258.49,431.462 256,418.5C 254.901,401.853 254.235,385.187 254,368.5C 242.667,359.833 232.667,349.833 224,338.5C 218.52,330.227 215.02,321.227 213.5,311.5C 213.859,309.629 214.859,308.129 216.5,307C 220.849,305.106 224.849,305.773 228.5,309C 234.028,315.227 239.194,321.727 244,328.5C 250.709,335.711 257.876,342.378 265.5,348.5 Z"/></g>
<g><path style="opacity:1" fill="#6b6d6e" d="M 307.5,348.5 C 300.011,349.329 292.344,349.829 284.5,350C 283.695,351.113 283.028,352.279 282.5,353.5C 276.42,352.901 270.753,351.234 265.5,348.5C 266.756,348.096 267.923,347.429 269,346.5C 281.752,348.309 294.585,348.975 307.5,348.5 Z"/></g>
<g><path style="opacity:1" fill="#cac1b7" d="M 326.5,346.5 C 328.997,347.129 330.33,348.796 330.5,351.5C 327.417,351.916 324.417,352.583 321.5,353.5C 313.262,355.119 304.928,355.786 296.5,355.5C 291.807,355.46 287.141,355.127 282.5,354.5C 282.5,354.167 282.5,353.833 282.5,353.5C 283.028,352.279 283.695,351.113 284.5,350C 292.344,349.829 300.011,349.329 307.5,348.5C 313.87,348.16 320.204,347.494 326.5,346.5 Z"/></g>
<g><path style="opacity:1" fill="#f3e6d5" d="M 321.5,353.5 C 321.351,354.552 321.517,355.552 322,356.5C 323.78,357.594 325.614,358.594 327.5,359.5C 327.291,360.086 326.957,360.586 326.5,361C 329.396,364.112 332.063,367.445 334.5,371C 332.98,375.671 332.146,380.505 332,385.5C 331,387.833 330,390.167 329,392.5C 328.107,391.289 327.274,391.289 326.5,392.5C 327.376,393.251 328.376,393.751 329.5,394C 322.924,398.749 315.59,401.249 307.5,401.5C 305.167,401.333 302.833,401.167 300.5,401C 299.874,400.25 299.374,399.416 299,398.5C 296.557,399.285 294.057,399.119 291.5,398C 291.833,397.667 292.167,397.333 292.5,397C 291.195,394.852 289.362,393.352 287,392.5C 286.667,390.5 286.333,388.5 286,386.5C 285.237,389.063 284.737,389.063 284.5,386.5C 284.556,385.263 285.056,384.263 286,383.5C 287.327,386.131 288.66,388.798 290,391.5C 290.77,392.598 291.603,392.598 292.5,391.5C 293.348,393.093 294.681,394.26 296.5,395C 295.167,395.667 295.167,396.333 296.5,397C 300.5,397.5 304.5,398 308.5,398.5C 311.206,398.519 313.706,397.852 316,396.5C 316.414,396.957 316.914,397.291 317.5,397.5C 320.191,395.974 322.857,394.64 325.5,393.5C 326.707,387.176 326.707,380.843 325.5,374.5C 324.808,375.025 324.308,375.692 324,376.5C 322.798,373.226 321.798,369.893 321,366.5C 318.591,363.959 315.924,362.626 313,362.5C 308.45,359.678 304.283,360.178 300.5,364C 297.883,364.822 295.216,365.322 292.5,365.5C 292.237,370.053 291.571,374.553 290.5,379C 291.163,382.473 291.496,385.973 291.5,389.5C 289.59,388.025 288.424,386.025 288,383.5C 287.333,379.833 287.333,376.167 288,372.5C 291.765,368.697 292.598,364.531 290.5,360C 292.949,359.275 295.283,358.275 297.5,357C 296.944,356.617 296.611,356.117 296.5,355.5C 304.928,355.786 313.262,355.119 321.5,353.5 Z"/></g>
<g><path style="opacity:1" fill="#e97c34" d="M 389.5,351.5 C 392.68,351.176 393.847,352.51 393,355.5C 390.71,358.58 388.543,361.747 386.5,365C 385.207,365.49 383.873,365.657 382.5,365.5C 382.343,364.127 382.51,362.793 383,361.5C 385.437,358.28 387.603,354.947 389.5,351.5 Z"/></g>
<g><path style="opacity:1" fill="#ef7a2e" d="M 401.5,366.5 C 403.167,366.5 404.833,366.5 406.5,366.5C 406.67,367.822 406.337,368.989 405.5,370C 401.09,371.551 396.757,373.051 392.5,374.5C 392.286,372.856 392.62,371.356 393.5,370C 396.122,368.525 398.788,367.359 401.5,366.5 Z"/></g>
<g><path style="opacity:1" fill="#e8e7dd" d="M 224.5,378.5 C 225.234,379.708 225.567,381.041 225.5,382.5C 222.223,382.216 219.057,382.549 216,383.5C 216.16,387.837 216.66,392.17 217.5,396.5C 214.223,396.216 211.057,396.549 208,397.5C 208.129,400.873 208.462,404.206 209,407.5C 206.289,405.951 204.123,403.951 202.5,401.5C 202.804,400.85 203.137,400.183 203.5,399.5C 196.437,388.063 195.604,376.063 201,363.5C 201.414,363.043 201.914,362.709 202.5,362.5C 208.404,369.728 215.737,375.061 224.5,378.5 Z"/></g>
<g><path style="opacity:1" fill="#848c91" d="M 335.5,344.5 C 339.105,344.799 342.439,345.965 345.5,348C 357.518,356.01 368.352,365.51 378,376.5C 380.173,379.346 381.673,382.512 382.5,386C 382.478,388.183 381.478,389.683 379.5,390.5C 374.452,390.873 369.785,389.706 365.5,387C 360.296,383.279 355.296,379.446 350.5,375.5C 349.317,369.435 347.817,363.435 346,357.5C 345.331,354.733 344.164,354.233 342.5,356C 347.169,370.898 348.502,386.065 346.5,401.5C 342.5,402.5 338.5,403.5 334.5,404.5C 339.611,390.015 339.777,375.348 335,360.5C 333.96,357.177 332.46,354.177 330.5,351.5C 330.33,348.796 328.997,347.129 326.5,346.5C 329.273,345.343 332.273,344.676 335.5,344.5 Z"/></g>
<g><path style="opacity:1" fill="#696e74" d="M 213.5,311.5 C 215.02,321.227 218.52,330.227 224,338.5C 232.667,349.833 242.667,359.833 254,368.5C 254.235,385.187 254.901,401.853 256,418.5C 258.49,431.462 260.657,444.462 262.5,457.5C 260.983,457.489 259.816,456.823 259,455.5C 252.362,433.673 249.196,411.34 249.5,388.5C 249.561,383.122 249.728,377.788 250,372.5C 238.922,363.425 229.256,353.091 221,341.5C 214.818,332.175 212.318,322.175 213.5,311.5 Z"/></g>
<g><path style="opacity:1" fill="#888f94" d="M 245.5,410.5 C 240.804,412.86 235.804,413.86 230.5,413.5C 221.806,412.157 213.139,410.824 204.5,409.5C 202.8,407.79 201.467,405.79 200.5,403.5C 200.855,402.478 201.522,401.811 202.5,401.5C 204.123,403.951 206.289,405.951 209,407.5C 208.462,404.206 208.129,400.873 208,397.5C 211.057,396.549 214.223,396.216 217.5,396.5C 216.66,392.17 216.16,387.837 216,383.5C 219.057,382.549 222.223,382.216 225.5,382.5C 225.567,381.041 225.234,379.708 224.5,378.5C 226.017,378.489 227.184,377.823 228,376.5C 233.721,382.221 239.387,387.887 245,393.5C 245.499,399.157 245.666,404.824 245.5,410.5 Z"/></g>
<g><path style="opacity:1" fill="#f0ecdf" d="M 330.5,351.5 C 332.46,354.177 333.96,357.177 335,360.5C 339.777,375.348 339.611,390.015 334.5,404.5C 328.725,406.971 322.725,409.138 316.5,411C 315.29,412.039 314.29,413.206 313.5,414.5C 312.596,415.209 312.263,416.209 312.5,417.5C 305.411,417.884 298.411,417.384 291.5,416C 282.349,412.207 277.183,405.373 276,395.5C 273.657,380.947 275.824,367.281 282.5,354.5C 287.141,355.127 291.807,355.46 296.5,355.5C 296.611,356.117 296.944,356.617 297.5,357C 295.283,358.275 292.949,359.275 290.5,360C 292.598,364.531 291.765,368.697 288,372.5C 287.333,376.167 287.333,379.833 288,383.5C 288.424,386.025 289.59,388.025 291.5,389.5C 291.833,390.167 292.167,390.833 292.5,391.5C 291.603,392.598 290.77,392.598 290,391.5C 288.66,388.798 287.327,386.131 286,383.5C 285.056,384.263 284.556,385.263 284.5,386.5C 284.737,389.063 285.237,389.063 286,386.5C 286.333,388.5 286.667,390.5 287,392.5C 289.362,393.352 291.195,394.852 292.5,397C 292.167,397.333 291.833,397.667 291.5,398C 294.057,399.119 296.557,399.285 299,398.5C 299.374,399.416 299.874,400.25 300.5,401C 302.833,401.167 305.167,401.333 307.5,401.5C 315.59,401.249 322.924,398.749 329.5,394C 328.376,393.751 327.376,393.251 326.5,392.5C 327.274,391.289 328.107,391.289 329,392.5C 330,390.167 331,387.833 332,385.5C 332.146,380.505 332.98,375.671 334.5,371C 332.063,367.445 329.396,364.112 326.5,361C 326.957,360.586 327.291,360.086 327.5,359.5C 325.614,358.594 323.78,357.594 322,356.5C 321.517,355.552 321.351,354.552 321.5,353.5C 324.417,352.583 327.417,351.916 330.5,351.5 Z"/></g>
<g><path style="opacity:1" fill="#666b70" d="M 350.5,375.5 C 355.296,379.446 360.296,383.279 365.5,387C 369.785,389.706 374.452,390.873 379.5,390.5C 378.737,391.268 377.737,391.768 376.5,392C 368.795,392.656 361.795,390.656 355.5,386C 351.019,383.939 349.352,380.439 350.5,375.5 Z"/></g>
<g><path style="opacity:1" fill="#dbdcdc" d="M 350.5,388.5 C 354.94,390.219 359.273,392.219 363.5,394.5C 359.847,396.942 355.847,398.608 351.5,399.5C 350.511,395.893 350.177,392.226 350.5,388.5 Z"/></g>
<g><path style="opacity:1" fill="#f7dcc1" d="M 292.5,391.5 C 292.167,390.833 291.833,390.167 291.5,389.5C 291.496,385.973 291.163,382.473 290.5,379C 291.571,374.553 292.237,370.053 292.5,365.5C 295.216,365.322 297.883,364.822 300.5,364C 304.283,360.178 308.45,359.678 313,362.5C 315.924,362.626 318.591,363.959 321,366.5C 321.798,369.893 322.798,373.226 324,376.5C 324.308,375.692 324.808,375.025 325.5,374.5C 326.707,380.843 326.707,387.176 325.5,393.5C 322.857,394.64 320.191,395.974 317.5,397.5C 316.914,397.291 316.414,396.957 316,396.5C 313.706,397.852 311.206,398.519 308.5,398.5C 304.5,398 300.5,397.5 296.5,397C 295.167,396.333 295.167,395.667 296.5,395C 294.681,394.26 293.348,393.093 292.5,391.5 Z"/></g>
<g><path style="opacity:1" fill="#ed7c2c" d="M 303.5,365.5 C 317.228,364.068 323.394,370.068 322,383.5C 317.164,391.521 310.331,393.687 301.5,390C 293.107,381.048 293.773,372.882 303.5,365.5 Z"/></g>
<g><path style="opacity:1" fill="#f5dbbe" d="M 305.5,370.5 C 313.545,370.048 317.378,373.714 317,381.5C 311.581,389.41 306.248,389.41 301,381.5C 300.333,379.167 300.333,376.833 301,374.5C 302.667,373.267 304.167,371.933 305.5,370.5 Z"/></g>
<g><path style="opacity:1" fill="#d9d9d7" d="M 384.5,392.5 C 392.08,393.875 392.246,395.541 385,397.5C 382.979,397.327 381.146,396.66 379.5,395.5C 381.36,394.675 383.026,393.675 384.5,392.5 Z"/></g>
<g><path style="opacity:1" fill="#9e9e9e" d="M 404.5,548.5 C 392.203,552.307 379.87,556.141 367.5,560C 337.853,567.289 307.853,569.289 277.5,566C 265.67,563.503 253.67,561.503 241.5,560C 230.594,556.586 219.594,553.586 208.5,551C 199.978,545.947 191.311,541.281 182.5,537C 180.048,536.71 177.715,536.044 175.5,535C 168.19,530.435 161.19,525.601 154.5,520.5C 147.726,513.895 140.226,508.229 132,503.5C 131.667,502.5 131.333,501.5 131,500.5C 119.755,489.608 108.755,478.608 98,467.5C 97.1773,464.173 95.6773,461.173 93.5,458.5C 89.8422,456.21 86.8422,453.21 84.5,449.5C 82.9258,445.764 80.7592,442.43 78,439.5C 78.0392,433.996 76.3725,429.663 73,426.5C 68.6993,417.592 65.1993,408.425 62.5,399C 62.6667,397.833 62.8333,396.667 63,395.5C 63.3826,396.056 63.8826,396.389 64.5,396.5C 68.6394,406.112 73.3061,415.446 78.5,424.5C 80.754,428.007 82.754,431.673 84.5,435.5C 83.5416,435.047 82.7083,434.381 82,433.5C 81.8333,433.833 81.6667,434.167 81.5,434.5C 85.0704,439.646 87.5704,445.312 89,451.5C 94.5934,456.825 99.7601,462.492 104.5,468.5C 105.004,472.744 107.337,475.244 111.5,476C 174.777,544.107 253.111,572.107 346.5,560C 354.068,558.592 361.402,556.759 368.5,554.5C 387.351,549.996 405.351,543.329 422.5,534.5C 441.955,524.878 459.622,512.545 475.5,497.5C 476.325,496.614 477.325,496.281 478.5,496.5C 481.075,492.901 483.742,489.234 486.5,485.5C 493.641,479.508 500.141,472.842 506,465.5C 512.779,455.581 519.779,445.914 527,436.5C 532.653,423.858 538.32,411.191 544,398.5C 558.564,356.849 562.731,313.849 556.5,269.5C 556.629,258.761 554.629,248.261 550.5,238C 549.929,235.145 549.929,232.145 550.5,229C 544.86,222.96 541.193,215.793 539.5,207.5C 539.709,206.914 540.043,206.414 540.5,206C 537.408,202.87 535.575,199.037 535,194.5C 534.667,194.833 534.333,195.167 534,195.5C 533.193,191.551 532.693,191.551 532.5,195.5C 528.915,187.066 524.582,179.066 519.5,171.5C 514.999,162.34 509.333,154.007 502.5,146.5C 497.905,139.898 492.905,133.565 487.5,127.5C 487.369,126.624 487.702,125.957 488.5,125.5C 491.659,129.492 495.326,132.992 499.5,136C 499.167,136.333 498.833,136.667 498.5,137C 500.281,139.237 502.281,141.237 504.5,143C 504.167,143.333 503.833,143.667 503.5,144C 504.448,144.483 505.448,144.649 506.5,144.5C 519.58,161.787 530.913,180.287 540.5,200C 540.355,200.772 540.022,201.439 539.5,202C 547.084,214.234 552.417,227.567 555.5,242C 558.12,246.059 559.62,250.559 560,255.5C 561.614,271.518 563.114,287.518 564.5,303.5C 562.889,308.752 562.556,314.252 563.5,320C 563.153,327.51 562.653,335.01 562,342.5C 558.426,363.042 554.092,383.375 549,403.5C 547.333,407.167 545.667,410.833 544,414.5C 542.989,415.337 541.822,415.67 540.5,415.5C 539.6,420.646 538.1,425.646 536,430.5C 532.823,434.991 529.823,439.658 527,444.5C 524.447,446.597 522.114,448.93 520,451.5C 517.95,456.545 514.784,460.712 510.5,464C 510.833,464.333 511.167,464.667 511.5,465C 501.416,477.402 491.083,489.402 480.5,501C 476.174,500.989 473.174,502.989 471.5,507C 454.982,520.615 436.982,532.282 417.5,542C 412.277,542.611 407.943,544.778 404.5,548.5 Z"/></g>
<g><path style="opacity:1" fill="#d6d5d2" d="M 394.5,396.5 C 402.983,397.911 403.317,399.911 395.5,402.5C 388.137,400.899 387.804,398.899 394.5,396.5 Z"/></g>
<g><path style="opacity:1" fill="#d4d4d0" d="M 371.5,396.5 C 374.564,396.144 377.231,396.977 379.5,399C 375.426,402.226 371.426,402.226 367.5,399C 368.858,398.066 370.192,397.232 371.5,396.5 Z"/></g>
<g><path style="opacity:1" fill="#d6d5d3" d="M 382.5,400.5 C 385.588,400.377 388.255,401.377 390.5,403.5C 386.047,407.126 381.713,407.126 377.5,403.5C 379.145,402.304 380.811,401.304 382.5,400.5 Z"/></g>
<g><path style="opacity:1" fill="#e2e1e0" d="M 359.5,400.5 C 369.406,401.035 369.739,402.702 360.5,405.5C 354.482,404.24 354.148,402.573 359.5,400.5 Z"/></g>
<g><path style="opacity:1" fill="#d6d6d0" d="M 403.5,401.5 C 406.734,401.205 409.734,401.871 412.5,403.5C 408.452,407.305 404.452,407.305 400.5,403.5C 401.602,402.824 402.602,402.158 403.5,401.5 Z"/></g>
<g><path style="opacity:1" fill="#d3d3d2" d="M 394.5,404.5 C 397.179,404.673 399.513,405.673 401.5,407.5C 399.036,409.245 396.37,410.079 393.5,410C 391.779,409.261 390.113,408.427 388.5,407.5C 390.594,406.482 392.594,405.482 394.5,404.5 Z"/></g>
<g><path style="opacity:1" fill="#d8d8d6" d="M 348.5,404.5 C 351.471,404.435 354.138,405.269 356.5,407C 352.129,410.184 347.795,410.184 343.5,407C 345.175,406.015 346.842,405.181 348.5,404.5 Z"/></g>
<g><path style="opacity:1" fill="#dbdbd7" d="M 370.5,404.5 C 373.588,404.377 376.255,405.377 378.5,407.5C 374.047,411.126 369.713,411.126 365.5,407.5C 367.145,406.304 368.811,405.304 370.5,404.5 Z"/></g>
<g><path style="opacity:1" fill="#b7b7b7" d="M 58.5,218.5 C 52.134,238.309 48.134,258.643 46.5,279.5C 45.3396,292.66 45.173,305.994 46,319.5C 48.2271,336.636 51.2271,353.636 55,370.5C 57.3799,377.834 60.2132,384.834 63.5,391.5C 63.6287,393.216 63.962,394.883 64.5,396.5C 63.8826,396.389 63.3826,396.056 63,395.5C 62.8333,396.667 62.6667,397.833 62.5,399C 65.1993,408.425 68.6993,417.592 73,426.5C 76.3725,429.663 78.0392,433.996 78,439.5C 80.7592,442.43 82.9258,445.764 84.5,449.5C 86.8422,453.21 89.8422,456.21 93.5,458.5C 95.6773,461.173 97.1773,464.173 98,467.5C 108.755,478.608 119.755,489.608 131,500.5C 131.333,501.5 131.667,502.5 132,503.5C 140.226,508.229 147.726,513.895 154.5,520.5C 148.446,518.785 143.446,515.451 139.5,510.5C 137.677,509.253 135.677,508.586 133.5,508.5C 128.135,504.265 122.801,499.765 117.5,495C 113.288,489.623 108.621,484.79 103.5,480.5C 102.388,476.943 100.722,473.61 98.5,470.5C 94.0137,467.255 90.1804,463.255 87,458.5C 74.315,439.465 63.9817,419.131 56,397.5C 53.514,384.46 49.8474,371.793 45,359.5C 37.6265,318.22 39.1265,277.553 49.5,237.5C 50.0798,235.363 51.0798,233.53 52.5,232C 52.0426,231.586 51.7093,231.086 51.5,230.5C 53.3555,228.456 54.0222,226.289 53.5,224C 54.8124,221.059 56.3124,218.226 58,215.5C 58.4828,216.448 58.6495,217.448 58.5,218.5 Z"/></g>
<g><path style="opacity:1" fill="#e5e3e2" d="M 336.5,408.5 C 339.564,408.144 342.231,408.977 344.5,411C 340.682,412.944 336.682,413.611 332.5,413C 331.692,412.692 331.025,412.192 330.5,411.5C 332.594,410.482 334.594,409.482 336.5,408.5 Z"/></g>
<g><path style="opacity:1" fill="#6e737a" d="M 204.5,409.5 C 213.139,410.824 221.806,412.157 230.5,413.5C 235.804,413.86 240.804,412.86 245.5,410.5C 246.614,413.177 246.614,415.844 245.5,418.5C 229.466,426.04 215.799,423.04 204.5,409.5 Z"/></g>
<g><path style="opacity:1" fill="#dad8d4" d="M 358.5,408.5 C 369.141,410.661 369.141,412.495 358.5,414C 353.381,412.087 353.381,410.254 358.5,408.5 Z"/></g>
<g><path style="opacity:1" fill="#d8d7d6" d="M 382.5,408.5 C 392.661,410.129 392.827,412.129 383,414.5C 375.97,412.806 375.803,410.806 382.5,408.5 Z"/></g>
<g><path style="opacity:1" fill="#bebebd" d="M 316.5,416.5 C 329.145,421.821 341.812,427.154 354.5,432.5C 355.833,434.833 355.833,437.167 354.5,439.5C 342.05,434.442 329.717,429.109 317.5,423.5C 316.526,421.257 316.192,418.924 316.5,416.5 Z"/></g>
<g><path style="opacity:1" fill="#e1e1e0" d="M 389.5,390.5 C 391.527,390.338 393.527,390.505 395.5,391C 406.432,395.59 417.432,400.09 428.5,404.5C 404.975,414.063 381.142,422.73 357,430.5C 344.111,426.038 331.611,420.705 319.5,414.5C 321.742,413.308 324.075,412.308 326.5,411.5C 336.297,417.148 346.464,422.148 357,426.5C 376.939,418.798 397.106,411.798 417.5,405.5C 417.5,404.5 417.5,403.5 417.5,402.5C 407.581,399.431 398.247,395.431 389.5,390.5 Z"/></g>
<g><path style="opacity:1" fill="#e3e2e1" d="M 358.5,416.5 C 361.588,416.377 364.255,417.377 366.5,419.5C 363.396,421.385 360.062,422.718 356.5,423.5C 354.226,423.03 352.226,422.03 350.5,420.5C 353.348,419.341 356.015,418.008 358.5,416.5 Z"/></g>
<g><path style="opacity:1" fill="#dededc" d="M 370.5,412.5 C 380.914,415.116 380.58,416.95 369.5,418C 367.998,417.417 366.665,416.584 365.5,415.5C 367.145,414.304 368.811,413.304 370.5,412.5 Z"/></g>
<g><path style="opacity:1" fill="#e5e4e2" d="M 346.5,412.5 C 349.798,412.016 352.464,413.016 354.5,415.5C 351.165,417.75 347.498,418.584 343.5,418C 342.09,417.632 341.09,416.799 340.5,415.5C 342.594,414.482 344.594,413.482 346.5,412.5 Z"/></g>
<g><path style="opacity:1" fill="#e7e7e7" d="M 427.5,407.5 C 428.833,407.5 430.167,407.5 431.5,407.5C 431.662,409.527 431.495,411.527 431,413.5C 406.779,422.852 382.279,431.519 357.5,439.5C 357.042,436.606 357.709,434.106 359.5,432C 382.368,424.102 405.035,415.935 427.5,407.5 Z"/></g>
<g><path style="opacity:1" fill="#62686e" d="M 328.5,432.5 C 325.339,433.47 322.506,435.137 320,437.5C 318.858,443.833 319.691,449.833 322.5,455.5C 320.533,455.739 318.699,455.406 317,454.5C 315.695,448.146 314.195,441.812 312.5,435.5C 312.818,434.353 313.484,433.519 314.5,433C 317.633,432.607 320.633,431.774 323.5,430.5C 325.422,430.801 327.088,431.467 328.5,432.5 Z"/></g>
<g><path style="opacity:1" fill="#848d93" d="M 328.5,432.5 C 332.474,434.152 336.474,435.818 340.5,437.5C 340.91,441.104 341.077,444.771 341,448.5C 343.704,450.65 343.871,452.816 341.5,455C 335.175,455.5 328.842,455.666 322.5,455.5C 319.691,449.833 318.858,443.833 320,437.5C 322.506,435.137 325.339,433.47 328.5,432.5 Z"/></g>
<g><path style="opacity:1" fill="#b9b9b9" d="M 229.5,560.5 C 239.532,562.006 249.532,563.839 259.5,566C 282.4,570.184 305.4,571.184 328.5,569C 339.349,566.402 350.349,564.736 361.5,564C 366.254,561.842 371.254,560.508 376.5,560C 385.781,555.857 395.114,552.023 404.5,548.5C 407.943,544.778 412.277,542.611 417.5,542C 436.982,532.282 454.982,520.615 471.5,507C 473.174,502.989 476.174,500.989 480.5,501C 491.083,489.402 501.416,477.402 511.5,465C 511.167,464.667 510.833,464.333 510.5,464C 514.784,460.712 517.95,456.545 520,451.5C 522.114,448.93 524.447,446.597 527,444.5C 529.823,439.658 532.823,434.991 536,430.5C 538.1,425.646 539.6,420.646 540.5,415.5C 541.822,415.67 542.989,415.337 544,414.5C 545.667,410.833 547.333,407.167 549,403.5C 554.092,383.375 558.426,363.042 562,342.5C 562.653,335.01 563.153,327.51 563.5,320C 562.556,314.252 562.889,308.752 564.5,303.5C 563.114,287.518 561.614,271.518 560,255.5C 559.62,250.559 558.12,246.059 555.5,242C 552.417,227.567 547.084,214.234 539.5,202C 540.022,201.439 540.355,200.772 540.5,200C 530.913,180.287 519.58,161.787 506.5,144.5C 505.448,144.649 504.448,144.483 503.5,144C 503.833,143.667 504.167,143.333 504.5,143C 502.281,141.237 500.281,139.237 498.5,137C 498.833,136.667 499.167,136.333 499.5,136C 495.326,132.992 491.659,129.492 488.5,125.5C 487.702,125.957 487.369,126.624 487.5,127.5C 453.557,92.3628 413.223,67.6961 366.5,53.5C 366.082,52.7784 365.416,52.2784 364.5,52C 365.167,51.8333 365.833,51.6667 366.5,51.5C 451.746,73.7584 512.913,126.425 550,209.5C 556.299,231.989 561.965,254.656 567,277.5C 569.866,302.877 569.199,328.211 565,353.5C 548.022,438.707 501.522,501.874 425.5,543C 423.091,544.201 421.091,545.867 419.5,548C 412.354,550.742 405.354,553.742 398.5,557C 395.5,557.333 392.5,557.667 389.5,558C 343.769,573.782 297.436,576.782 250.5,567C 243.107,565.7 236.107,563.533 229.5,560.5 Z"/></g>
<g><path style="opacity:1" fill="#dadada" d="M 532.5,401.5 C 510.318,453.695 474.318,493.695 424.5,521.5C 424.389,520.883 424.056,520.383 423.5,520C 424.833,518.667 426.167,517.333 427.5,516C 440.546,508.131 453.212,499.631 465.5,490.5C 466.245,488.253 467.578,486.42 469.5,485C 474.386,482.282 478.052,478.449 480.5,473.5C 490.346,463.513 499.513,452.847 508,441.5C 510.76,434.353 514.093,427.353 518,420.5C 523.069,415.381 526.902,409.381 529.5,402.5C 530.325,401.614 531.325,401.281 532.5,401.5 Z"/></g>
<g><path style="opacity:1" fill="#828282" d="M 368.5,554.5 C 359.097,555.456 349.764,556.956 340.5,559C 320.31,560.131 299.976,560.465 279.5,560C 252.771,555.858 226.771,549.192 201.5,540C 194.628,536.312 187.795,532.479 181,528.5C 180.667,528.833 180.333,529.167 180,529.5C 178.478,527.978 176.978,526.478 175.5,525C 175.836,523.97 176.503,523.47 177.5,523.5C 187.644,529.236 198.31,533.902 209.5,537.5C 214.631,539.89 219.964,542.057 225.5,544C 234.655,546.04 243.655,548.207 252.5,550.5C 251.325,550.281 250.325,550.614 249.5,551.5C 256.629,555.16 264.129,556.493 272,555.5C 272.317,557.301 272.984,557.634 274,556.5C 289.568,559.985 305.235,560.318 321,557.5C 324.38,558.2 327.713,558.533 331,558.5C 342.242,556.304 353.909,553.637 366,550.5C 366.414,550.957 366.914,551.291 367.5,551.5C 389.602,544.645 411.268,535.479 432.5,524C 435.025,521.804 437.525,519.638 440,517.5C 440.333,517.833 440.667,518.167 441,518.5C 464.512,503.408 484.846,484.742 502,462.5C 502.49,461.207 502.657,459.873 502.5,458.5C 505.346,458.41 507.679,457.244 509.5,455C 508.72,453.927 508.887,452.76 510,451.5C 520.7,436.106 529.867,419.773 537.5,402.5C 536.282,402.891 535.448,402.224 535,400.5C 534.617,401.056 534.117,401.389 533.5,401.5C 552.599,356.811 558.599,310.478 551.5,262.5C 548.718,239.021 542.385,216.688 532.5,195.5C 532.693,191.551 533.193,191.551 534,195.5C 534.333,195.167 534.667,194.833 535,194.5C 535.575,199.037 537.408,202.87 540.5,206C 540.043,206.414 539.709,206.914 539.5,207.5C 541.193,215.793 544.86,222.96 550.5,229C 549.929,232.145 549.929,235.145 550.5,238C 554.629,248.261 556.629,258.761 556.5,269.5C 562.731,313.849 558.564,356.849 544,398.5C 538.32,411.191 532.653,423.858 527,436.5C 519.779,445.914 512.779,455.581 506,465.5C 500.141,472.842 493.641,479.508 486.5,485.5C 483.742,489.234 481.075,492.901 478.5,496.5C 477.325,496.281 476.325,496.614 475.5,497.5C 459.622,512.545 441.955,524.878 422.5,534.5C 405.351,543.329 387.351,549.996 368.5,554.5 Z"/></g>
<g><path style="opacity:1" fill="#707070" d="M 252.5,550.5 C 289.724,556.696 326.724,555.529 363.5,547C 366.401,546.125 369.068,544.958 371.5,543.5C 372.5,543.5 373.5,543.5 374.5,543.5C 391.848,537.829 408.515,530.495 424.5,521.5C 474.318,493.695 510.318,453.695 532.5,401.5C 532.833,401.5 533.167,401.5 533.5,401.5C 534.117,401.389 534.617,401.056 535,400.5C 535.448,402.224 536.282,402.891 537.5,402.5C 529.867,419.773 520.7,436.106 510,451.5C 508.887,452.76 508.72,453.927 509.5,455C 507.679,457.244 505.346,458.41 502.5,458.5C 502.657,459.873 502.49,461.207 502,462.5C 484.846,484.742 464.512,503.408 441,518.5C 440.667,518.167 440.333,517.833 440,517.5C 437.525,519.638 435.025,521.804 432.5,524C 411.268,535.479 389.602,544.645 367.5,551.5C 366.914,551.291 366.414,550.957 366,550.5C 353.909,553.637 342.242,556.304 331,558.5C 327.713,558.533 324.38,558.2 321,557.5C 305.235,560.318 289.568,559.985 274,556.5C 272.984,557.634 272.317,557.301 272,555.5C 264.129,556.493 256.629,555.16 249.5,551.5C 250.325,550.614 251.325,550.281 252.5,550.5 Z"/></g>
<g><path style="opacity:1" fill="#d7d7d7" d="M 424.5,521.5 C 408.515,530.495 391.848,537.829 374.5,543.5C 374.369,542.624 374.702,541.957 375.5,541.5C 379.457,540.69 382.79,538.857 385.5,536C 388.167,535.333 390.833,534.667 393.5,534C 402.916,529.039 412.416,524.539 422,520.5C 422.671,521.252 423.504,521.586 424.5,521.5 Z"/></g>
<g><path style="opacity:1" fill="#8c8c8c" d="M 84.5,435.5 C 102.759,463.599 125.426,487.766 152.5,508C 153.745,508.791 155.078,509.291 156.5,509.5C 163.017,514.923 170.017,519.59 177.5,523.5C 176.503,523.47 175.836,523.97 175.5,525C 176.978,526.478 178.478,527.978 180,529.5C 180.333,529.167 180.667,528.833 181,528.5C 187.795,532.479 194.628,536.312 201.5,540C 226.771,549.192 252.771,555.858 279.5,560C 299.976,560.465 320.31,560.131 340.5,559C 349.764,556.956 359.097,555.456 368.5,554.5C 361.402,556.759 354.068,558.592 346.5,560C 253.111,572.107 174.777,544.107 111.5,476C 107.337,475.244 105.004,472.744 104.5,468.5C 99.7601,462.492 94.5934,456.825 89,451.5C 87.5704,445.312 85.0704,439.646 81.5,434.5C 81.6667,434.167 81.8333,433.833 82,433.5C 82.7083,434.381 83.5416,435.047 84.5,435.5 Z"/></g>
<g><path style="opacity:1" fill="#dddddd" d="M 371.5,543.5 C 369.068,544.958 366.401,546.125 363.5,547C 326.724,555.529 289.724,556.696 252.5,550.5C 243.655,548.207 234.655,546.04 225.5,544C 219.964,542.057 214.631,539.89 209.5,537.5C 213.689,537.009 218.022,537.175 222.5,538C 233.504,542.445 244.671,546.279 256,549.5C 258.17,548.666 260.17,548.333 262,548.5C 268.035,549.964 274.201,550.797 280.5,551C 295.5,551.667 310.5,551.667 325.5,551C 326.328,550.085 327.328,549.419 328.5,549C 337.765,547.906 346.932,546.406 356,544.5C 356.839,545.624 358.006,546.291 359.5,546.5C 363.358,544.903 367.358,543.903 371.5,543.5 Z"/></g>
<g><path style="opacity:1" fill="#b1b1b1" d="M 154.5,520.5 C 161.19,525.601 168.19,530.435 175.5,535C 177.715,536.044 180.048,536.71 182.5,537C 191.311,541.281 199.978,545.947 208.5,551C 219.594,553.586 230.594,556.586 241.5,560C 253.67,561.503 265.67,563.503 277.5,566C 307.853,569.289 337.853,567.289 367.5,560C 379.87,556.141 392.203,552.307 404.5,548.5C 395.114,552.023 385.781,555.857 376.5,560C 371.254,560.508 366.254,561.842 361.5,564C 350.349,564.736 339.349,566.402 328.5,569C 305.4,571.184 282.4,570.184 259.5,566C 249.532,563.839 239.532,562.006 229.5,560.5C 219.839,557.332 210.173,553.832 200.5,550C 199.663,548.989 199.33,547.822 199.5,546.5C 193.237,545.482 187.237,543.649 181.5,541C 175.09,536.593 168.423,532.593 161.5,529C 158.854,526.21 156.521,523.377 154.5,520.5 Z"/></g>
</svg>