<?xml version="1.0" encoding="utf-8"?>
<svg xmlns="http://www.w3.org/2000/svg" xmlns:xlink="http://www.w3.org/1999/xlink" width="500" height="500" viewBox="0 0 500 500">

	<use xlink:href="#bg" x="0" y="0" width="500" height="500" />
	<symbol viewBox="0 0 1024 1024" id="bg">
<path d="M118.839458 226.7853q-32.680851-119.829787-102.003868-226.7853l92.10058 0q68.332689 95.071567 102.003868 226.7853l-92.10058 0zM113.887814 277.29207q74.274662 105.965184 110.916828 227.775629l-92.10058 0q-40.603482-128.742747-106.955513-227.775629l88.139265 0zM725.911025 314.924565l346.615087 0 0 64.371373-346.615087 0 0 204.007737 268.37911 0 0 287.195358q3.961315 148.549323-153.500967 143.597679l-481.299807 0 0-430.793037 268.37911 0 0-204.007737-333.740812 0 0-64.371373 333.740812 0 0-200.046422-296.108317 0 0-59.419729 467.435203 0q110.916828 0 222.823985-32.680851l0 69.323017q-49.516441 11.883946-102.003868 17.330754t-110.916828 5.446809l-83.187621 0 0 200.046422zM451.589942 648.665377l0 301.059961 361.470019 0q88.139265 3.961315 88.139265-74.274662l0-226.7853-449.609284 0zM2.970986 1024q53.477756-109.926499 89.129594-224.804642t54.468085-238.669246l78.235977 0q-32.680851 260.45648-119.829787 463.473888l-102.003868 0z" p-id="9625" fill="#1296db"></path></symbol>
	<g id="qr">
		<rect fill="#000000ff" x="28" y="28" width="12" height="12" />
		<rect fill="#000000ff" x="28" y="40" width="12" height="12" />
		<rect fill="#000000ff" x="28" y="52" width="12" height="12" />
		<rect fill="#000000ff" x="28" y="64" width="12" height="12" />
		<rect fill="#000000ff" x="28" y="76" width="12" height="12" />
		<rect fill="#000000ff" x="28" y="88" width="12" height="12" />
		<rect fill="#000000ff" x="28" y="100" width="12" height="12" />
		<rect fill="#000000ff" x="28" y="136" width="12" height="12" />
		<rect fill="#000000ff" x="28" y="172" width="12" height="12" />
		<rect fill="#000000ff" x="28" y="244" width="12" height="12" />
		<rect fill="#000000ff" x="28" y="304" width="12" height="12" />
		<rect fill="#000000ff" x="28" y="328" width="12" height="12" />
		<rect fill="#000000ff" x="28" y="340" width="12" height="12" />
		<rect fill="#000000ff" x="28" y="352" width="12" height="12" />
		<rect fill="#000000ff" x="28" y="364" width="12" height="12" />
		<rect fill="#000000ff" x="28" y="388" width="12" height="12" />
		<rect fill="#000000ff" x="28" y="400" width="12" height="12" />
		<rect fill="#000000ff" x="28" y="412" width="12" height="12" />
		<rect fill="#000000ff" x="28" y="424" width="12" height="12" />
		<rect fill="#000000ff" x="28" y="436" width="12" height="12" />
		<rect fill="#000000ff" x="28" y="448" width="12" height="12" />
		<rect fill="#000000ff" x="28" y="460" width="12" height="12" />
		<rect fill="#000000ff" x="40" y="28" width="12" height="12" />
		<rect fill="#000000ff" x="40" y="100" width="12" height="12" />
		<rect fill="#000000ff" x="40" y="196" width="12" height="12" />
		<rect fill="#000000ff" x="40" y="208" width="12" height="12" />
		<rect fill="#000000ff" x="40" y="244" width="12" height="12" />
		<rect fill="#000000ff" x="40" y="292" width="12" height="12" />
		<rect fill="#000000ff" x="40" y="304" width="12" height="12" />
		<rect fill="#000000ff" x="40" y="328" width="12" height="12" />
		<rect fill="#000000ff" x="40" y="388" width="12" height="12" />
		<rect fill="#000000ff" x="40" y="460" width="12" height="12" />
		<rect fill="#000000ff" x="52" y="28" width="12" height="12" />
		<rect fill="#000000ff" x="52" y="52" width="12" height="12" />
		<rect fill="#000000ff" x="52" y="64" width="12" height="12" />
		<rect fill="#000000ff" x="52" y="76" width="12" height="12" />
		<rect fill="#000000ff" x="52" y="100" width="12" height="12" />
		<rect fill="#000000ff" x="52" y="124" width="12" height="12" />
		<rect fill="#000000ff" x="52" y="148" width="12" height="12" />
		<rect fill="#000000ff" x="52" y="172" width="12" height="12" />
		<rect fill="#000000ff" x="52" y="196" width="12" height="12" />
		<rect fill="#000000ff" x="52" y="232" width="12" height="12" />
		<rect fill="#000000ff" x="52" y="256" width="12" height="12" />
		<rect fill="#000000ff" x="52" y="268" width="12" height="12" />
		<rect fill="#000000ff" x="52" y="280" width="12" height="12" />
		<rect fill="#000000ff" x="52" y="292" width="12" height="12" />
		<rect fill="#000000ff" x="52" y="340" width="12" height="12" />
		<rect fill="#000000ff" x="52" y="352" width="12" height="12" />
		<rect fill="#000000ff" x="52" y="364" width="12" height="12" />
		<rect fill="#000000ff" x="52" y="388" width="12" height="12" />
		<rect fill="#000000ff" x="52" y="412" width="12" height="12" />
		<rect fill="#000000ff" x="52" y="424" width="12" height="12" />
		<rect fill="#000000ff" x="52" y="436" width="12" height="12" />
		<rect fill="#000000ff" x="52" y="460" width="12" height="12" />
		<rect fill="#000000ff" x="64" y="28" width="12" height="12" />
		<rect fill="#000000ff" x="64" y="52" width="12" height="12" />
		<rect fill="#000000ff" x="64" y="64" width="12" height="12" />
		<rect fill="#000000ff" x="64" y="76" width="12" height="12" />
		<rect fill="#000000ff" x="64" y="100" width="12" height="12" />
		<rect fill="#000000ff" x="64" y="124" width="12" height="12" />
		<rect fill="#000000ff" x="64" y="172" width="12" height="12" />
		<rect fill="#000000ff" x="64" y="184" width="12" height="12" />
		<rect fill="#000000ff" x="64" y="196" width="12" height="12" />
		<rect fill="#000000ff" x="64" y="208" width="12" height="12" />
		<rect fill="#000000ff" x="64" y="232" width="12" height="12" />
		<rect fill="#000000ff" x="64" y="244" width="12" height="12" />
		<rect fill="#000000ff" x="64" y="268" width="12" height="12" />
		<rect fill="#000000ff" x="64" y="328" width="12" height="12" />
		<rect fill="#000000ff" x="64" y="352" width="12" height="12" />
		<rect fill="#000000ff" x="64" y="388" width="12" height="12" />
		<rect fill="#000000ff" x="64" y="412" width="12" height="12" />
		<rect fill="#000000ff" x="64" y="424" width="12" height="12" />
		<rect fill="#000000ff" x="64" y="436" width="12" height="12" />
		<rect fill="#000000ff" x="64" y="460" width="12" height="12" />
		<rect fill="#000000ff" x="76" y="28" width="12" height="12" />
		<rect fill="#000000ff" x="76" y="52" width="12" height="12" />
		<rect fill="#000000ff" x="76" y="64" width="12" height="12" />
		<rect fill="#000000ff" x="76" y="76" width="12" height="12" />
		<rect fill="#000000ff" x="76" y="100" width="12" height="12" />
		<rect fill="#000000ff" x="76" y="124" width="12" height="12" />
		<rect fill="#000000ff" x="76" y="136" width="12" height="12" />
		<rect fill="#000000ff" x="76" y="148" width="12" height="12" />
		<rect fill="#000000ff" x="76" y="160" width="12" height="12" />
		<rect fill="#000000ff" x="76" y="172" width="12" height="12" />
		<rect fill="#000000ff" x="76" y="184" width="12" height="12" />
		<rect fill="#000000ff" x="76" y="196" width="12" height="12" />
		<rect fill="#000000ff" x="76" y="208" width="12" height="12" />
		<rect fill="#000000ff" x="76" y="232" width="12" height="12" />
		<rect fill="#000000ff" x="76" y="292" width="12" height="12" />
		<rect fill="#000000ff" x="76" y="328" width="12" height="12" />
		<rect fill="#000000ff" x="76" y="340" width="12" height="12" />
		<rect fill="#000000ff" x="76" y="352" width="12" height="12" />
		<rect fill="#000000ff" x="76" y="364" width="12" height="12" />
		<rect fill="#000000ff" x="76" y="388" width="12" height="12" />
		<rect fill="#000000ff" x="76" y="412" width="12" height="12" />
		<rect fill="#000000ff" x="76" y="424" width="12" height="12" />
		<rect fill="#000000ff" x="76" y="436" width="12" height="12" />
		<rect fill="#000000ff" x="76" y="460" width="12" height="12" />
		<rect fill="#000000ff" x="88" y="28" width="12" height="12" />
		<rect fill="#000000ff" x="88" y="100" width="12" height="12" />
		<rect fill="#000000ff" x="88" y="148" width="12" height="12" />
		<rect fill="#000000ff" x="88" y="160" width="12" height="12" />
		<rect fill="#000000ff" x="88" y="184" width="12" height="12" />
		<rect fill="#000000ff" x="88" y="196" width="12" height="12" />
		<rect fill="#000000ff" x="88" y="208" width="12" height="12" />
		<rect fill="#000000ff" x="88" y="220" width="12" height="12" />
		<rect fill="#000000ff" x="88" y="232" width="12" height="12" />
		<rect fill="#000000ff" x="88" y="280" width="12" height="12" />
		<rect fill="#000000ff" x="88" y="304" width="12" height="12" />
		<rect fill="#000000ff" x="88" y="328" width="12" height="12" />
		<rect fill="#000000ff" x="88" y="388" width="12" height="12" />
		<rect fill="#000000ff" x="88" y="460" width="12" height="12" />
		<rect fill="#000000ff" x="100" y="28" width="12" height="12" />
		<rect fill="#000000ff" x="100" y="40" width="12" height="12" />
		<rect fill="#000000ff" x="100" y="52" width="12" height="12" />
		<rect fill="#000000ff" x="100" y="64" width="12" height="12" />
		<rect fill="#000000ff" x="100" y="76" width="12" height="12" />
		<rect fill="#000000ff" x="100" y="88" width="12" height="12" />
		<rect fill="#000000ff" x="100" y="100" width="12" height="12" />
		<rect fill="#000000ff" x="100" y="124" width="12" height="12" />
		<rect fill="#000000ff" x="100" y="148" width="12" height="12" />
		<rect fill="#000000ff" x="100" y="172" width="12" height="12" />
		<rect fill="#000000ff" x="100" y="196" width="12" height="12" />
		<rect fill="#000000ff" x="100" y="220" width="12" height="12" />
		<rect fill="#000000ff" x="100" y="244" width="12" height="12" />
		<rect fill="#000000ff" x="100" y="268" width="12" height="12" />
		<rect fill="#000000ff" x="100" y="292" width="12" height="12" />
		<rect fill="#000000ff" x="100" y="316" width="12" height="12" />
		<rect fill="#000000ff" x="100" y="340" width="12" height="12" />
		<rect fill="#000000ff" x="100" y="364" width="12" height="12" />
		<rect fill="#000000ff" x="100" y="388" width="12" height="12" />
		<rect fill="#000000ff" x="100" y="400" width="12" height="12" />
		<rect fill="#000000ff" x="100" y="412" width="12" height="12" />
		<rect fill="#000000ff" x="100" y="424" width="12" height="12" />
		<rect fill="#000000ff" x="100" y="436" width="12" height="12" />
		<rect fill="#000000ff" x="100" y="448" width="12" height="12" />
		<rect fill="#000000ff" x="100" y="460" width="12" height="12" />
		<rect fill="#000000ff" x="112" y="148" width="12" height="12" />
		<rect fill="#000000ff" x="112" y="208" width="12" height="12" />
		<rect fill="#000000ff" x="112" y="244" width="12" height="12" />
		<rect fill="#000000ff" x="112" y="268" width="12" height="12" />
		<rect fill="#000000ff" x="112" y="304" width="12" height="12" />
		<rect fill="#000000ff" x="112" y="328" width="12" height="12" />
		<rect fill="#000000ff" x="112" y="352" width="12" height="12" />
		<rect fill="#000000ff" x="112" y="364" width="12" height="12" />
		<rect fill="#000000ff" x="124" y="28" width="12" height="12" />
		<rect fill="#000000ff" x="124" y="40" width="12" height="12" />
		<rect fill="#000000ff" x="124" y="52" width="12" height="12" />
		<rect fill="#000000ff" x="124" y="88" width="12" height="12" />
		<rect fill="#000000ff" x="124" y="100" width="12" height="12" />
		<rect fill="#000000ff" x="124" y="112" width="12" height="12" />
		<rect fill="#000000ff" x="124" y="124" width="12" height="12" />
		<rect fill="#000000ff" x="124" y="148" width="12" height="12" />
		<rect fill="#000000ff" x="124" y="172" width="12" height="12" />
		<rect fill="#000000ff" x="124" y="196" width="12" height="12" />
		<rect fill="#000000ff" x="124" y="208" width="12" height="12" />
		<rect fill="#000000ff" x="124" y="220" width="12" height="12" />
		<rect fill="#000000ff" x="124" y="232" width="12" height="12" />
		<rect fill="#000000ff" x="124" y="244" width="12" height="12" />
		<rect fill="#000000ff" x="124" y="256" width="12" height="12" />
		<rect fill="#000000ff" x="124" y="316" width="12" height="12" />
		<rect fill="#000000ff" x="124" y="328" width="12" height="12" />
		<rect fill="#000000ff" x="124" y="340" width="12" height="12" />
		<rect fill="#000000ff" x="124" y="364" width="12" height="12" />
		<rect fill="#000000ff" x="124" y="376" width="12" height="12" />
		<rect fill="#000000ff" x="124" y="412" width="12" height="12" />
		<rect fill="#000000ff" x="124" y="424" width="12" height="12" />
		<rect fill="#000000ff" x="124" y="436" width="12" height="12" />
		<rect fill="#000000ff" x="136" y="52" width="12" height="12" />
		<rect fill="#000000ff" x="136" y="88" width="12" height="12" />
		<rect fill="#000000ff" x="136" y="112" width="12" height="12" />
		<rect fill="#000000ff" x="136" y="136" width="12" height="12" />
		<rect fill="#000000ff" x="136" y="148" width="12" height="12" />
		<rect fill="#000000ff" x="136" y="160" width="12" height="12" />
		<rect fill="#000000ff" x="136" y="172" width="12" height="12" />
		<rect fill="#000000ff" x="136" y="196" width="12" height="12" />
		<rect fill="#000000ff" x="136" y="208" width="12" height="12" />
		<rect fill="#000000ff" x="136" y="244" width="12" height="12" />
		<rect fill="#000000ff" x="136" y="268" width="12" height="12" />
		<rect fill="#000000ff" x="136" y="280" width="12" height="12" />
		<rect fill="#000000ff" x="136" y="292" width="12" height="12" />
		<rect fill="#000000ff" x="136" y="304" width="12" height="12" />
		<rect fill="#000000ff" x="136" y="316" width="12" height="12" />
		<rect fill="#000000ff" x="136" y="328" width="12" height="12" />
		<rect fill="#000000ff" x="136" y="376" width="12" height="12" />
		<rect fill="#000000ff" x="136" y="412" width="12" height="12" />
		<rect fill="#000000ff" x="148" y="40" width="12" height="12" />
		<rect fill="#000000ff" x="148" y="52" width="12" height="12" />
		<rect fill="#000000ff" x="148" y="64" width="12" height="12" />
		<rect fill="#000000ff" x="148" y="76" width="12" height="12" />
		<rect fill="#000000ff" x="148" y="88" width="12" height="12" />
		<rect fill="#000000ff" x="148" y="100" width="12" height="12" />
		<rect fill="#000000ff" x="148" y="112" width="12" height="12" />
		<rect fill="#000000ff" x="148" y="124" width="12" height="12" />
		<rect fill="#000000ff" x="148" y="148" width="12" height="12" />
		<rect fill="#000000ff" x="148" y="160" width="12" height="12" />
		<rect fill="#000000ff" x="148" y="172" width="12" height="12" />
		<rect fill="#000000ff" x="148" y="184" width="12" height="12" />
		<rect fill="#000000ff" x="148" y="208" width="12" height="12" />
		<rect fill="#000000ff" x="148" y="220" width="12" height="12" />
		<rect fill="#000000ff" x="148" y="244" width="12" height="12" />
		<rect fill="#000000ff" x="148" y="256" width="12" height="12" />
		<rect fill="#000000ff" x="148" y="292" width="12" height="12" />
		<rect fill="#000000ff" x="148" y="316" width="12" height="12" />
		<rect fill="#000000ff" x="148" y="328" width="12" height="12" />
		<rect fill="#000000ff" x="148" y="364" width="12" height="12" />
		<rect fill="#000000ff" x="148" y="376" width="12" height="12" />
		<rect fill="#000000ff" x="148" y="388" width="12" height="12" />
		<rect fill="#000000ff" x="148" y="400" width="12" height="12" />
		<rect fill="#000000ff" x="148" y="424" width="12" height="12" />
		<rect fill="#000000ff" x="148" y="448" width="12" height="12" />
		<rect fill="#000000ff" x="160" y="52" width="12" height="12" />
		<rect fill="#000000ff" x="160" y="64" width="12" height="12" />
		<rect fill="#000000ff" x="160" y="76" width="12" height="12" />
		<rect fill="#000000ff" x="160" y="112" width="12" height="12" />
		<rect fill="#000000ff" x="160" y="124" width="12" height="12" />
		<rect fill="#000000ff" x="160" y="148" width="12" height="12" />
		<rect fill="#000000ff" x="160" y="184" width="12" height="12" />
		<rect fill="#000000ff" x="160" y="196" width="12" height="12" />
		<rect fill="#000000ff" x="160" y="208" width="12" height="12" />
		<rect fill="#000000ff" x="160" y="256" width="12" height="12" />
		<rect fill="#000000ff" x="160" y="280" width="12" height="12" />
		<rect fill="#000000ff" x="160" y="328" width="12" height="12" />
		<rect fill="#000000ff" x="160" y="340" width="12" height="12" />
		<rect fill="#000000ff" x="160" y="364" width="12" height="12" />
		<rect fill="#000000ff" x="160" y="376" width="12" height="12" />
		<rect fill="#000000ff" x="172" y="40" width="12" height="12" />
		<rect fill="#000000ff" x="172" y="52" width="12" height="12" />
		<rect fill="#000000ff" x="172" y="64" width="12" height="12" />
		<rect fill="#000000ff" x="172" y="76" width="12" height="12" />
		<rect fill="#000000ff" x="172" y="100" width="12" height="12" />
		<rect fill="#000000ff" x="172" y="112" width="12" height="12" />
		<rect fill="#000000ff" x="172" y="124" width="12" height="12" />
		<rect fill="#000000ff" x="172" y="136" width="12" height="12" />
		<rect fill="#000000ff" x="172" y="184" width="12" height="12" />
		<rect fill="#000000ff" x="172" y="196" width="12" height="12" />
		<rect fill="#000000ff" x="172" y="208" width="12" height="12" />
		<rect fill="#000000ff" x="172" y="244" width="12" height="12" />
		<rect fill="#000000ff" x="172" y="292" width="12" height="12" />
		<rect fill="#000000ff" x="172" y="304" width="12" height="12" />
		<rect fill="#000000ff" x="172" y="316" width="12" height="12" />
		<rect fill="#000000ff" x="172" y="364" width="12" height="12" />
		<rect fill="#000000ff" x="172" y="388" width="12" height="12" />
		<rect fill="#000000ff" x="172" y="412" width="12" height="12" />
		<rect fill="#000000ff" x="172" y="424" width="12" height="12" />
		<rect fill="#000000ff" x="172" y="436" width="12" height="12" />
		<rect fill="#000000ff" x="172" y="448" width="12" height="12" />
		<rect fill="#000000ff" x="172" y="460" width="12" height="12" />
		<rect fill="#000000ff" x="184" y="76" width="12" height="12" />
		<rect fill="#000000ff" x="184" y="124" width="12" height="12" />
		<rect fill="#000000ff" x="184" y="136" width="12" height="12" />
		<rect fill="#000000ff" x="184" y="160" width="12" height="12" />
		<rect fill="#000000ff" x="184" y="172" width="12" height="12" />
		<rect fill="#000000ff" x="184" y="208" width="12" height="12" />
		<rect fill="#000000ff" x="184" y="220" width="12" height="12" />
		<rect fill="#000000ff" x="184" y="244" width="12" height="12" />
		<rect fill="#000000ff" x="184" y="256" width="12" height="12" />
		<rect fill="#000000ff" x="184" y="268" width="12" height="12" />
		<rect fill="#000000ff" x="184" y="280" width="12" height="12" />
		<rect fill="#000000ff" x="184" y="292" width="12" height="12" />
		<rect fill="#000000ff" x="184" y="304" width="12" height="12" />
		<rect fill="#000000ff" x="184" y="316" width="12" height="12" />
		<rect fill="#000000ff" x="184" y="352" width="12" height="12" />
		<rect fill="#000000ff" x="184" y="400" width="12" height="12" />
		<rect fill="#000000ff" x="184" y="412" width="12" height="12" />
		<rect fill="#000000ff" x="184" y="436" width="12" height="12" />
		<rect fill="#000000ff" x="184" y="460" width="12" height="12" />
		<rect fill="#000000ff" x="196" y="52" width="12" height="12" />
		<rect fill="#000000ff" x="196" y="64" width="12" height="12" />
		<rect fill="#000000ff" x="196" y="88" width="12" height="12" />
		<rect fill="#000000ff" x="196" y="100" width="12" height="12" />
		<rect fill="#000000ff" x="196" y="112" width="12" height="12" />
		<rect fill="#000000ff" x="196" y="136" width="12" height="12" />
		<rect fill="#000000ff" x="196" y="172" width="12" height="12" />
		<rect fill="#000000ff" x="196" y="184" width="12" height="12" />
		<rect fill="#000000ff" x="196" y="196" width="12" height="12" />
		<rect fill="#000000ff" x="196" y="208" width="12" height="12" />
		<rect fill="#000000ff" x="196" y="232" width="12" height="12" />
		<rect fill="#000000ff" x="196" y="292" width="12" height="12" />
		<rect fill="#000000ff" x="196" y="316" width="12" height="12" />
		<rect fill="#000000ff" x="196" y="328" width="12" height="12" />
		<rect fill="#000000ff" x="196" y="340" width="12" height="12" />
		<rect fill="#000000ff" x="196" y="376" width="12" height="12" />
		<rect fill="#000000ff" x="196" y="412" width="12" height="12" />
		<rect fill="#000000ff" x="196" y="424" width="12" height="12" />
		<rect fill="#000000ff" x="196" y="460" width="12" height="12" />
		<rect fill="#000000ff" x="208" y="28" width="12" height="12" />
		<rect fill="#000000ff" x="208" y="52" width="12" height="12" />
		<rect fill="#000000ff" x="208" y="124" width="12" height="12" />
		<rect fill="#000000ff" x="208" y="136" width="12" height="12" />
		<rect fill="#000000ff" x="208" y="148" width="12" height="12" />
		<rect fill="#000000ff" x="208" y="172" width="12" height="12" />
		<rect fill="#000000ff" x="208" y="196" width="12" height="12" />
		<rect fill="#000000ff" x="208" y="208" width="12" height="12" />
		<rect fill="#000000ff" x="208" y="220" width="12" height="12" />
		<rect fill="#000000ff" x="208" y="244" width="12" height="12" />
		<rect fill="#000000ff" x="208" y="268" width="12" height="12" />
		<rect fill="#000000ff" x="208" y="292" width="12" height="12" />
		<rect fill="#000000ff" x="208" y="304" width="12" height="12" />
		<rect fill="#000000ff" x="208" y="340" width="12" height="12" />
		<rect fill="#000000ff" x="208" y="352" width="12" height="12" />
		<rect fill="#000000ff" x="208" y="400" width="12" height="12" />
		<rect fill="#000000ff" x="208" y="436" width="12" height="12" />
		<rect fill="#000000ff" x="220" y="52" width="12" height="12" />
		<rect fill="#000000ff" x="220" y="100" width="12" height="12" />
		<rect fill="#000000ff" x="220" y="124" width="12" height="12" />
		<rect fill="#000000ff" x="220" y="184" width="12" height="12" />
		<rect fill="#000000ff" x="220" y="208" width="12" height="12" />
		<rect fill="#000000ff" x="220" y="220" width="12" height="12" />
		<rect fill="#000000ff" x="220" y="244" width="12" height="12" />
		<rect fill="#000000ff" x="220" y="256" width="12" height="12" />
		<rect fill="#000000ff" x="220" y="268" width="12" height="12" />
		<rect fill="#000000ff" x="220" y="280" width="12" height="12" />
		<rect fill="#000000ff" x="220" y="292" width="12" height="12" />
		<rect fill="#000000ff" x="220" y="328" width="12" height="12" />
		<rect fill="#000000ff" x="220" y="364" width="12" height="12" />
		<rect fill="#000000ff" x="220" y="376" width="12" height="12" />
		<rect fill="#000000ff" x="220" y="388" width="12" height="12" />
		<rect fill="#000000ff" x="220" y="412" width="12" height="12" />
		<rect fill="#000000ff" x="220" y="460" width="12" height="12" />
		<rect fill="#000000ff" x="232" y="40" width="12" height="12" />
		<rect fill="#000000ff" x="232" y="88" width="12" height="12" />
		<rect fill="#000000ff" x="232" y="112" width="12" height="12" />
		<rect fill="#000000ff" x="232" y="172" width="12" height="12" />
		<rect fill="#000000ff" x="232" y="196" width="12" height="12" />
		<rect fill="#000000ff" x="232" y="208" width="12" height="12" />
		<rect fill="#000000ff" x="232" y="220" width="12" height="12" />
		<rect fill="#000000ff" x="232" y="232" width="12" height="12" />
		<rect fill="#000000ff" x="232" y="280" width="12" height="12" />
		<rect fill="#000000ff" x="232" y="292" width="12" height="12" />
		<rect fill="#000000ff" x="232" y="304" width="12" height="12" />
		<rect fill="#000000ff" x="232" y="316" width="12" height="12" />
		<rect fill="#000000ff" x="232" y="340" width="12" height="12" />
		<rect fill="#000000ff" x="232" y="352" width="12" height="12" />
		<rect fill="#000000ff" x="232" y="364" width="12" height="12" />
		<rect fill="#000000ff" x="232" y="376" width="12" height="12" />
		<rect fill="#000000ff" x="232" y="412" width="12" height="12" />
		<rect fill="#000000ff" x="244" y="40" width="12" height="12" />
		<rect fill="#000000ff" x="244" y="64" width="12" height="12" />
		<rect fill="#000000ff" x="244" y="88" width="12" height="12" />
		<rect fill="#000000ff" x="244" y="100" width="12" height="12" />
		<rect fill="#000000ff" x="244" y="124" width="12" height="12" />
		<rect fill="#000000ff" x="244" y="148" width="12" height="12" />
		<rect fill="#000000ff" x="244" y="160" width="12" height="12" />
		<rect fill="#000000ff" x="244" y="208" width="12" height="12" />
		<rect fill="#000000ff" x="244" y="220" width="12" height="12" />
		<rect fill="#000000ff" x="244" y="304" width="12" height="12" />
		<rect fill="#000000ff" x="244" y="340" width="12" height="12" />
		<rect fill="#000000ff" x="244" y="352" width="12" height="12" />
		<rect fill="#000000ff" x="244" y="364" width="12" height="12" />
		<rect fill="#000000ff" x="244" y="376" width="12" height="12" />
		<rect fill="#000000ff" x="244" y="388" width="12" height="12" />
		<rect fill="#000000ff" x="244" y="424" width="12" height="12" />
		<rect fill="#000000ff" x="244" y="436" width="12" height="12" />
		<rect fill="#000000ff" x="244" y="448" width="12" height="12" />
		<rect fill="#000000ff" x="256" y="40" width="12" height="12" />
		<rect fill="#000000ff" x="256" y="64" width="12" height="12" />
		<rect fill="#000000ff" x="256" y="76" width="12" height="12" />
		<rect fill="#000000ff" x="256" y="136" width="12" height="12" />
		<rect fill="#000000ff" x="256" y="148" width="12" height="12" />
		<rect fill="#000000ff" x="256" y="160" width="12" height="12" />
		<rect fill="#000000ff" x="256" y="280" width="12" height="12" />
		<rect fill="#000000ff" x="256" y="292" width="12" height="12" />
		<rect fill="#000000ff" x="256" y="316" width="12" height="12" />
		<rect fill="#000000ff" x="256" y="340" width="12" height="12" />
		<rect fill="#000000ff" x="256" y="352" width="12" height="12" />
		<rect fill="#000000ff" x="256" y="364" width="12" height="12" />
		<rect fill="#000000ff" x="256" y="388" width="12" height="12" />
		<rect fill="#000000ff" x="256" y="400" width="12" height="12" />
		<rect fill="#000000ff" x="256" y="412" width="12" height="12" />
		<rect fill="#000000ff" x="256" y="436" width="12" height="12" />
		<rect fill="#000000ff" x="256" y="460" width="12" height="12" />
		<rect fill="#000000ff" x="268" y="40" width="12" height="12" />
		<rect fill="#000000ff" x="268" y="64" width="12" height="12" />
		<rect fill="#000000ff" x="268" y="88" width="12" height="12" />
		<rect fill="#000000ff" x="268" y="100" width="12" height="12" />
		<rect fill="#000000ff" x="268" y="112" width="12" height="12" />
		<rect fill="#000000ff" x="268" y="172" width="12" height="12" />
		<rect fill="#000000ff" x="268" y="244" width="12" height="12" />
		<rect fill="#000000ff" x="268" y="256" width="12" height="12" />
		<rect fill="#000000ff" x="268" y="268" width="12" height="12" />
		<rect fill="#000000ff" x="268" y="280" width="12" height="12" />
		<rect fill="#000000ff" x="268" y="364" width="12" height="12" />
		<rect fill="#000000ff" x="268" y="448" width="12" height="12" />
		<rect fill="#000000ff" x="280" y="28" width="12" height="12" />
		<rect fill="#000000ff" x="280" y="52" width="12" height="12" />
		<rect fill="#000000ff" x="280" y="76" width="12" height="12" />
		<rect fill="#000000ff" x="280" y="88" width="12" height="12" />
		<rect fill="#000000ff" x="280" y="112" width="12" height="12" />
		<rect fill="#000000ff" x="280" y="124" width="12" height="12" />
		<rect fill="#000000ff" x="280" y="172" width="12" height="12" />
		<rect fill="#000000ff" x="280" y="196" width="12" height="12" />
		<rect fill="#000000ff" x="280" y="220" width="12" height="12" />
		<rect fill="#000000ff" x="280" y="232" width="12" height="12" />
		<rect fill="#000000ff" x="280" y="256" width="12" height="12" />
		<rect fill="#000000ff" x="280" y="268" width="12" height="12" />
		<rect fill="#000000ff" x="280" y="280" width="12" height="12" />
		<rect fill="#000000ff" x="280" y="304" width="12" height="12" />
		<rect fill="#000000ff" x="280" y="316" width="12" height="12" />
		<rect fill="#000000ff" x="280" y="340" width="12" height="12" />
		<rect fill="#000000ff" x="280" y="352" width="12" height="12" />
		<rect fill="#000000ff" x="280" y="364" width="12" height="12" />
		<rect fill="#000000ff" x="280" y="400" width="12" height="12" />
		<rect fill="#000000ff" x="280" y="412" width="12" height="12" />
		<rect fill="#000000ff" x="280" y="436" width="12" height="12" />
		<rect fill="#000000ff" x="280" y="448" width="12" height="12" />
		<rect fill="#000000ff" x="292" y="64" width="12" height="12" />
		<rect fill="#000000ff" x="292" y="76" width="12" height="12" />
		<rect fill="#000000ff" x="292" y="100" width="12" height="12" />
		<rect fill="#000000ff" x="292" y="172" width="12" height="12" />
		<rect fill="#000000ff" x="292" y="184" width="12" height="12" />
		<rect fill="#000000ff" x="292" y="208" width="12" height="12" />
		<rect fill="#000000ff" x="292" y="232" width="12" height="12" />
		<rect fill="#000000ff" x="292" y="304" width="12" height="12" />
		<rect fill="#000000ff" x="292" y="316" width="12" height="12" />
		<rect fill="#000000ff" x="292" y="412" width="12" height="12" />
		<rect fill="#000000ff" x="292" y="448" width="12" height="12" />
		<rect fill="#000000ff" x="292" y="460" width="12" height="12" />
		<rect fill="#000000ff" x="304" y="28" width="12" height="12" />
		<rect fill="#000000ff" x="304" y="40" width="12" height="12" />
		<rect fill="#000000ff" x="304" y="64" width="12" height="12" />
		<rect fill="#000000ff" x="304" y="136" width="12" height="12" />
		<rect fill="#000000ff" x="304" y="160" width="12" height="12" />
		<rect fill="#000000ff" x="304" y="172" width="12" height="12" />
		<rect fill="#000000ff" x="304" y="196" width="12" height="12" />
		<rect fill="#000000ff" x="304" y="208" width="12" height="12" />
		<rect fill="#000000ff" x="304" y="220" width="12" height="12" />
		<rect fill="#000000ff" x="304" y="232" width="12" height="12" />
		<rect fill="#000000ff" x="304" y="280" width="12" height="12" />
		<rect fill="#000000ff" x="304" y="292" width="12" height="12" />
		<rect fill="#000000ff" x="304" y="316" width="12" height="12" />
		<rect fill="#000000ff" x="304" y="340" width="12" height="12" />
		<rect fill="#000000ff" x="304" y="424" width="12" height="12" />
		<rect fill="#000000ff" x="304" y="436" width="12" height="12" />
		<rect fill="#000000ff" x="304" y="448" width="12" height="12" />
		<rect fill="#000000ff" x="316" y="28" width="12" height="12" />
		<rect fill="#000000ff" x="316" y="64" width="12" height="12" />
		<rect fill="#000000ff" x="316" y="76" width="12" height="12" />
		<rect fill="#000000ff" x="316" y="100" width="12" height="12" />
		<rect fill="#000000ff" x="316" y="160" width="12" height="12" />
		<rect fill="#000000ff" x="316" y="196" width="12" height="12" />
		<rect fill="#000000ff" x="316" y="208" width="12" height="12" />
		<rect fill="#000000ff" x="316" y="220" width="12" height="12" />
		<rect fill="#000000ff" x="316" y="232" width="12" height="12" />
		<rect fill="#000000ff" x="316" y="256" width="12" height="12" />
		<rect fill="#000000ff" x="316" y="280" width="12" height="12" />
		<rect fill="#000000ff" x="316" y="304" width="12" height="12" />
		<rect fill="#000000ff" x="316" y="316" width="12" height="12" />
		<rect fill="#000000ff" x="316" y="328" width="12" height="12" />
		<rect fill="#000000ff" x="316" y="340" width="12" height="12" />
		<rect fill="#000000ff" x="316" y="388" width="12" height="12" />
		<rect fill="#000000ff" x="316" y="436" width="12" height="12" />
		<rect fill="#000000ff" x="316" y="460" width="12" height="12" />
		<rect fill="#000000ff" x="328" y="40" width="12" height="12" />
		<rect fill="#000000ff" x="328" y="88" width="12" height="12" />
		<rect fill="#000000ff" x="328" y="112" width="12" height="12" />
		<rect fill="#000000ff" x="328" y="148" width="12" height="12" />
		<rect fill="#000000ff" x="328" y="160" width="12" height="12" />
		<rect fill="#000000ff" x="328" y="172" width="12" height="12" />
		<rect fill="#000000ff" x="328" y="196" width="12" height="12" />
		<rect fill="#000000ff" x="328" y="220" width="12" height="12" />
		<rect fill="#000000ff" x="328" y="292" width="12" height="12" />
		<rect fill="#000000ff" x="328" y="316" width="12" height="12" />
		<rect fill="#000000ff" x="328" y="340" width="12" height="12" />
		<rect fill="#000000ff" x="328" y="364" width="12" height="12" />
		<rect fill="#000000ff" x="328" y="388" width="12" height="12" />
		<rect fill="#000000ff" x="328" y="400" width="12" height="12" />
		<rect fill="#000000ff" x="328" y="412" width="12" height="12" />
		<rect fill="#000000ff" x="340" y="40" width="12" height="12" />
		<rect fill="#000000ff" x="340" y="76" width="12" height="12" />
		<rect fill="#000000ff" x="340" y="100" width="12" height="12" />
		<rect fill="#000000ff" x="340" y="112" width="12" height="12" />
		<rect fill="#000000ff" x="340" y="136" width="12" height="12" />
		<rect fill="#000000ff" x="340" y="172" width="12" height="12" />
		<rect fill="#000000ff" x="340" y="184" width="12" height="12" />
		<rect fill="#000000ff" x="340" y="196" width="12" height="12" />
		<rect fill="#000000ff" x="340" y="232" width="12" height="12" />
		<rect fill="#000000ff" x="340" y="244" width="12" height="12" />
		<rect fill="#000000ff" x="340" y="280" width="12" height="12" />
		<rect fill="#000000ff" x="340" y="304" width="12" height="12" />
		<rect fill="#000000ff" x="340" y="328" width="12" height="12" />
		<rect fill="#000000ff" x="340" y="340" width="12" height="12" />
		<rect fill="#000000ff" x="340" y="352" width="12" height="12" />
		<rect fill="#000000ff" x="340" y="364" width="12" height="12" />
		<rect fill="#000000ff" x="340" y="376" width="12" height="12" />
		<rect fill="#000000ff" x="340" y="388" width="12" height="12" />
		<rect fill="#000000ff" x="340" y="412" width="12" height="12" />
		<rect fill="#000000ff" x="340" y="424" width="12" height="12" />
		<rect fill="#000000ff" x="340" y="436" width="12" height="12" />
		<rect fill="#000000ff" x="340" y="448" width="12" height="12" />
		<rect fill="#000000ff" x="352" y="64" width="12" height="12" />
		<rect fill="#000000ff" x="352" y="124" width="12" height="12" />
		<rect fill="#000000ff" x="352" y="136" width="12" height="12" />
		<rect fill="#000000ff" x="352" y="160" width="12" height="12" />
		<rect fill="#000000ff" x="352" y="172" width="12" height="12" />
		<rect fill="#000000ff" x="352" y="196" width="12" height="12" />
		<rect fill="#000000ff" x="352" y="220" width="12" height="12" />
		<rect fill="#000000ff" x="352" y="232" width="12" height="12" />
		<rect fill="#000000ff" x="352" y="244" width="12" height="12" />
		<rect fill="#000000ff" x="352" y="268" width="12" height="12" />
		<rect fill="#000000ff" x="352" y="316" width="12" height="12" />
		<rect fill="#000000ff" x="352" y="340" width="12" height="12" />
		<rect fill="#000000ff" x="352" y="364" width="12" height="12" />
		<rect fill="#000000ff" x="352" y="388" width="12" height="12" />
		<rect fill="#000000ff" x="352" y="400" width="12" height="12" />
		<rect fill="#000000ff" x="352" y="436" width="12" height="12" />
		<rect fill="#000000ff" x="352" y="460" width="12" height="12" />
		<rect fill="#000000ff" x="364" y="28" width="12" height="12" />
		<rect fill="#000000ff" x="364" y="64" width="12" height="12" />
		<rect fill="#000000ff" x="364" y="76" width="12" height="12" />
		<rect fill="#000000ff" x="364" y="100" width="12" height="12" />
		<rect fill="#000000ff" x="364" y="136" width="12" height="12" />
		<rect fill="#000000ff" x="364" y="160" width="12" height="12" />
		<rect fill="#000000ff" x="364" y="172" width="12" height="12" />
		<rect fill="#000000ff" x="364" y="184" width="12" height="12" />
		<rect fill="#000000ff" x="364" y="196" width="12" height="12" />
		<rect fill="#000000ff" x="364" y="208" width="12" height="12" />
		<rect fill="#000000ff" x="364" y="220" width="12" height="12" />
		<rect fill="#000000ff" x="364" y="244" width="12" height="12" />
		<rect fill="#000000ff" x="364" y="256" width="12" height="12" />
		<rect fill="#000000ff" x="364" y="292" width="12" height="12" />
		<rect fill="#000000ff" x="364" y="316" width="12" height="12" />
		<rect fill="#000000ff" x="364" y="352" width="12" height="12" />
		<rect fill="#000000ff" x="364" y="364" width="12" height="12" />
		<rect fill="#000000ff" x="364" y="376" width="12" height="12" />
		<rect fill="#000000ff" x="364" y="388" width="12" height="12" />
		<rect fill="#000000ff" x="364" y="400" width="12" height="12" />
		<rect fill="#000000ff" x="364" y="412" width="12" height="12" />
		<rect fill="#000000ff" x="364" y="424" width="12" height="12" />
		<rect fill="#000000ff" x="376" y="124" width="12" height="12" />
		<rect fill="#000000ff" x="376" y="148" width="12" height="12" />
		<rect fill="#000000ff" x="376" y="160" width="12" height="12" />
		<rect fill="#000000ff" x="376" y="172" width="12" height="12" />
		<rect fill="#000000ff" x="376" y="220" width="12" height="12" />
		<rect fill="#000000ff" x="376" y="244" width="12" height="12" />
		<rect fill="#000000ff" x="376" y="256" width="12" height="12" />
		<rect fill="#000000ff" x="376" y="280" width="12" height="12" />
		<rect fill="#000000ff" x="376" y="292" width="12" height="12" />
		<rect fill="#000000ff" x="376" y="304" width="12" height="12" />
		<rect fill="#000000ff" x="376" y="316" width="12" height="12" />
		<rect fill="#000000ff" x="376" y="328" width="12" height="12" />
		<rect fill="#000000ff" x="376" y="340" width="12" height="12" />
		<rect fill="#000000ff" x="376" y="352" width="12" height="12" />
		<rect fill="#000000ff" x="376" y="364" width="12" height="12" />
		<rect fill="#000000ff" x="376" y="412" width="12" height="12" />
		<rect fill="#000000ff" x="376" y="448" width="12" height="12" />
		<rect fill="#000000ff" x="376" y="460" width="12" height="12" />
		<rect fill="#000000ff" x="388" y="28" width="12" height="12" />
		<rect fill="#000000ff" x="388" y="40" width="12" height="12" />
		<rect fill="#000000ff" x="388" y="52" width="12" height="12" />
		<rect fill="#000000ff" x="388" y="64" width="12" height="12" />
		<rect fill="#000000ff" x="388" y="76" width="12" height="12" />
		<rect fill="#000000ff" x="388" y="88" width="12" height="12" />
		<rect fill="#000000ff" x="388" y="100" width="12" height="12" />
		<rect fill="#000000ff" x="388" y="124" width="12" height="12" />
		<rect fill="#000000ff" x="388" y="148" width="12" height="12" />
		<rect fill="#000000ff" x="388" y="172" width="12" height="12" />
		<rect fill="#000000ff" x="388" y="184" width="12" height="12" />
		<rect fill="#000000ff" x="388" y="196" width="12" height="12" />
		<rect fill="#000000ff" x="388" y="244" width="12" height="12" />
		<rect fill="#000000ff" x="388" y="256" width="12" height="12" />
		<rect fill="#000000ff" x="388" y="268" width="12" height="12" />
		<rect fill="#000000ff" x="388" y="292" width="12" height="12" />
		<rect fill="#000000ff" x="388" y="304" width="12" height="12" />
		<rect fill="#000000ff" x="388" y="316" width="12" height="12" />
		<rect fill="#000000ff" x="388" y="328" width="12" height="12" />
		<rect fill="#000000ff" x="388" y="340" width="12" height="12" />
		<rect fill="#000000ff" x="388" y="364" width="12" height="12" />
		<rect fill="#000000ff" x="388" y="388" width="12" height="12" />
		<rect fill="#000000ff" x="388" y="412" width="12" height="12" />
		<rect fill="#000000ff" x="388" y="424" width="12" height="12" />
		<rect fill="#000000ff" x="388" y="436" width="12" height="12" />
		<rect fill="#000000ff" x="388" y="448" width="12" height="12" />
		<rect fill="#000000ff" x="400" y="28" width="12" height="12" />
		<rect fill="#000000ff" x="400" y="100" width="12" height="12" />
		<rect fill="#000000ff" x="400" y="124" width="12" height="12" />
		<rect fill="#000000ff" x="400" y="148" width="12" height="12" />
		<rect fill="#000000ff" x="400" y="160" width="12" height="12" />
		<rect fill="#000000ff" x="400" y="184" width="12" height="12" />
		<rect fill="#000000ff" x="400" y="208" width="12" height="12" />
		<rect fill="#000000ff" x="400" y="232" width="12" height="12" />
		<rect fill="#000000ff" x="400" y="256" width="12" height="12" />
		<rect fill="#000000ff" x="400" y="280" width="12" height="12" />
		<rect fill="#000000ff" x="400" y="292" width="12" height="12" />
		<rect fill="#000000ff" x="400" y="304" width="12" height="12" />
		<rect fill="#000000ff" x="400" y="340" width="12" height="12" />
		<rect fill="#000000ff" x="400" y="364" width="12" height="12" />
		<rect fill="#000000ff" x="400" y="412" width="12" height="12" />
		<rect fill="#000000ff" x="400" y="424" width="12" height="12" />
		<rect fill="#000000ff" x="400" y="436" width="12" height="12" />
		<rect fill="#000000ff" x="412" y="28" width="12" height="12" />
		<rect fill="#000000ff" x="412" y="52" width="12" height="12" />
		<rect fill="#000000ff" x="412" y="64" width="12" height="12" />
		<rect fill="#000000ff" x="412" y="76" width="12" height="12" />
		<rect fill="#000000ff" x="412" y="100" width="12" height="12" />
		<rect fill="#000000ff" x="412" y="148" width="12" height="12" />
		<rect fill="#000000ff" x="412" y="172" width="12" height="12" />
		<rect fill="#000000ff" x="412" y="220" width="12" height="12" />
		<rect fill="#000000ff" x="412" y="232" width="12" height="12" />
		<rect fill="#000000ff" x="412" y="244" width="12" height="12" />
		<rect fill="#000000ff" x="412" y="292" width="12" height="12" />
		<rect fill="#000000ff" x="412" y="328" width="12" height="12" />
		<rect fill="#000000ff" x="412" y="340" width="12" height="12" />
		<rect fill="#000000ff" x="412" y="364" width="12" height="12" />
		<rect fill="#000000ff" x="412" y="376" width="12" height="12" />
		<rect fill="#000000ff" x="412" y="388" width="12" height="12" />
		<rect fill="#000000ff" x="412" y="400" width="12" height="12" />
		<rect fill="#000000ff" x="412" y="412" width="12" height="12" />
		<rect fill="#000000ff" x="412" y="424" width="12" height="12" />
		<rect fill="#000000ff" x="412" y="436" width="12" height="12" />
		<rect fill="#000000ff" x="412" y="448" width="12" height="12" />
		<rect fill="#000000ff" x="424" y="28" width="12" height="12" />
		<rect fill="#000000ff" x="424" y="52" width="12" height="12" />
		<rect fill="#000000ff" x="424" y="64" width="12" height="12" />
		<rect fill="#000000ff" x="424" y="76" width="12" height="12" />
		<rect fill="#000000ff" x="424" y="100" width="12" height="12" />
		<rect fill="#000000ff" x="424" y="136" width="12" height="12" />
		<rect fill="#000000ff" x="424" y="160" width="12" height="12" />
		<rect fill="#000000ff" x="424" y="184" width="12" height="12" />
		<rect fill="#000000ff" x="424" y="196" width="12" height="12" />
		<rect fill="#000000ff" x="424" y="208" width="12" height="12" />
		<rect fill="#000000ff" x="424" y="256" width="12" height="12" />
		<rect fill="#000000ff" x="424" y="268" width="12" height="12" />
		<rect fill="#000000ff" x="424" y="304" width="12" height="12" />
		<rect fill="#000000ff" x="424" y="316" width="12" height="12" />
		<rect fill="#000000ff" x="424" y="328" width="12" height="12" />
		<rect fill="#000000ff" x="424" y="388" width="12" height="12" />
		<rect fill="#000000ff" x="424" y="400" width="12" height="12" />
		<rect fill="#000000ff" x="424" y="412" width="12" height="12" />
		<rect fill="#000000ff" x="424" y="436" width="12" height="12" />
		<rect fill="#000000ff" x="424" y="448" width="12" height="12" />
		<rect fill="#000000ff" x="436" y="28" width="12" height="12" />
		<rect fill="#000000ff" x="436" y="52" width="12" height="12" />
		<rect fill="#000000ff" x="436" y="64" width="12" height="12" />
		<rect fill="#000000ff" x="436" y="76" width="12" height="12" />
		<rect fill="#000000ff" x="436" y="100" width="12" height="12" />
		<rect fill="#000000ff" x="436" y="124" width="12" height="12" />
		<rect fill="#000000ff" x="436" y="148" width="12" height="12" />
		<rect fill="#000000ff" x="436" y="196" width="12" height="12" />
		<rect fill="#000000ff" x="436" y="208" width="12" height="12" />
		<rect fill="#000000ff" x="436" y="220" width="12" height="12" />
		<rect fill="#000000ff" x="436" y="244" width="12" height="12" />
		<rect fill="#000000ff" x="436" y="256" width="12" height="12" />
		<rect fill="#000000ff" x="436" y="292" width="12" height="12" />
		<rect fill="#000000ff" x="436" y="316" width="12" height="12" />
		<rect fill="#000000ff" x="436" y="340" width="12" height="12" />
		<rect fill="#000000ff" x="436" y="364" width="12" height="12" />
		<rect fill="#000000ff" x="436" y="388" width="12" height="12" />
		<rect fill="#000000ff" x="436" y="400" width="12" height="12" />
		<rect fill="#000000ff" x="436" y="436" width="12" height="12" />
		<rect fill="#000000ff" x="436" y="448" width="12" height="12" />
		<rect fill="#000000ff" x="448" y="28" width="12" height="12" />
		<rect fill="#000000ff" x="448" y="100" width="12" height="12" />
		<rect fill="#000000ff" x="448" y="124" width="12" height="12" />
		<rect fill="#000000ff" x="448" y="136" width="12" height="12" />
		<rect fill="#000000ff" x="448" y="148" width="12" height="12" />
		<rect fill="#000000ff" x="448" y="184" width="12" height="12" />
		<rect fill="#000000ff" x="448" y="220" width="12" height="12" />
		<rect fill="#000000ff" x="448" y="244" width="12" height="12" />
		<rect fill="#000000ff" x="448" y="280" width="12" height="12" />
		<rect fill="#000000ff" x="448" y="292" width="12" height="12" />
		<rect fill="#000000ff" x="448" y="316" width="12" height="12" />
		<rect fill="#000000ff" x="448" y="328" width="12" height="12" />
		<rect fill="#000000ff" x="448" y="340" width="12" height="12" />
		<rect fill="#000000ff" x="448" y="364" width="12" height="12" />
		<rect fill="#000000ff" x="448" y="376" width="12" height="12" />
		<rect fill="#000000ff" x="448" y="388" width="12" height="12" />
		<rect fill="#000000ff" x="448" y="412" width="12" height="12" />
		<rect fill="#000000ff" x="448" y="424" width="12" height="12" />
		<rect fill="#000000ff" x="448" y="448" width="12" height="12" />
		<rect fill="#000000ff" x="448" y="460" width="12" height="12" />
		<rect fill="#000000ff" x="460" y="28" width="12" height="12" />
		<rect fill="#000000ff" x="460" y="40" width="12" height="12" />
		<rect fill="#000000ff" x="460" y="52" width="12" height="12" />
		<rect fill="#000000ff" x="460" y="64" width="12" height="12" />
		<rect fill="#000000ff" x="460" y="76" width="12" height="12" />
		<rect fill="#000000ff" x="460" y="88" width="12" height="12" />
		<rect fill="#000000ff" x="460" y="100" width="12" height="12" />
		<rect fill="#000000ff" x="460" y="124" width="12" height="12" />
		<rect fill="#000000ff" x="460" y="172" width="12" height="12" />
		<rect fill="#000000ff" x="460" y="184" width="12" height="12" />
		<rect fill="#000000ff" x="460" y="220" width="12" height="12" />
		<rect fill="#000000ff" x="460" y="232" width="12" height="12" />
		<rect fill="#000000ff" x="460" y="244" width="12" height="12" />
		<rect fill="#000000ff" x="460" y="292" width="12" height="12" />
		<rect fill="#000000ff" x="460" y="316" width="12" height="12" />
		<rect fill="#000000ff" x="460" y="328" width="12" height="12" />
		<rect fill="#000000ff" x="460" y="364" width="12" height="12" />
		<rect fill="#000000ff" x="460" y="376" width="12" height="12" />
		<rect fill="#000000ff" x="460" y="388" width="12" height="12" />
		<rect fill="#000000ff" x="460" y="412" width="12" height="12" />
		<rect fill="#000000ff" x="460" y="424" width="12" height="12" />
		<rect fill="#000000ff" x="460" y="436" width="12" height="12" />
		<rect fill="#000000ff" x="460" y="460" width="12" height="12" />

	</g>
</svg>