<?xml version="1.0" encoding="utf-8"?>
<svg xmlns="http://www.w3.org/2000/svg" xmlns:xlink="http://www.w3.org/1999/xlink" width="300" height="300" viewBox="0 0 300 300">

	<g id="qr">
		<rect fill="#ffffffff" x="0" y="0" width="300" height="300" />
		<polygon points="23.49,20.35 21.39,26.92 26.64,22.73 20.35,22.73 25.59,26.92 "  style="fill:#ff0000ff;fill-rule:nonzero;" />
		<polygon points="23.49,27.35 21.39,33.92 26.64,29.73 20.35,29.73 25.59,33.92 "  style="fill:#ff0000ff;fill-rule:nonzero;" />
		<polygon points="23.49,34.35 21.39,40.92 26.64,36.73 20.35,36.73 25.59,40.92 "  style="fill:#ff0000ff;fill-rule:nonzero;" />
		<polygon points="23.49,41.35 21.39,47.92 26.64,43.73 20.35,43.73 25.59,47.92 "  style="fill:#ff0000ff;fill-rule:nonzero;" />
		<polygon points="23.49,48.35 21.39,54.92 26.64,50.73 20.35,50.73 25.59,54.92 "  style="fill:#ff0000ff;fill-rule:nonzero;" />
		<polygon points="23.49,55.35 21.39,61.92 26.64,57.73 20.35,57.73 25.59,61.92 "  style="fill:#ff0000ff;fill-rule:nonzero;" />
		<polygon points="23.49,62.35 21.39,68.92 26.64,64.73 20.35,64.73 25.59,68.92 "  style="fill:#ff0000ff;fill-rule:nonzero;" />
		<polygon points="23.49,83.35 21.39,89.92 26.64,85.73 20.35,85.73 25.59,89.92 "  style="fill:#ff0000ff;fill-rule:nonzero;" />
		<polygon points="23.49,104.35 21.39,110.92 26.64,106.73 20.35,106.73 25.59,110.92 "  style="fill:#ff0000ff;fill-rule:nonzero;" />
		<polygon points="23.49,146.35 21.39,152.92 26.64,148.73 20.35,148.73 25.59,152.92 "  style="fill:#ff0000ff;fill-rule:nonzero;" />
		<polygon points="23.49,181.35 21.39,187.92 26.64,183.73 20.35,183.73 25.59,187.92 "  style="fill:#ff0000ff;fill-rule:nonzero;" />
		<polygon points="23.49,195.35 21.39,201.92 26.64,197.73 20.35,197.73 25.59,201.92 "  style="fill:#ff0000ff;fill-rule:nonzero;" />
		<polygon points="23.49,202.35 21.39,208.92 26.64,204.73 20.35,204.73 25.59,208.92 "  style="fill:#ff0000ff;fill-rule:nonzero;" />
		<polygon points="23.49,209.35 21.39,215.92 26.64,211.73 20.35,211.73 25.59,215.92 "  style="fill:#ff0000ff;fill-rule:nonzero;" />
		<polygon points="23.49,216.35 21.39,222.92 26.64,218.73 20.35,218.73 25.59,222.92 "  style="fill:#ff0000ff;fill-rule:nonzero;" />
		<polygon points="23.49,230.35 21.39,236.92 26.64,232.73 20.35,232.73 25.59,236.92 "  style="fill:#ff0000ff;fill-rule:nonzero;" />
		<polygon points="23.49,237.35 21.39,243.92 26.64,239.73 20.35,239.73 25.59,243.92 "  style="fill:#ff0000ff;fill-rule:nonzero;" />
		<polygon points="23.49,244.35 21.39,250.92 26.64,246.73 20.35,246.73 25.59,250.92 "  style="fill:#ff0000ff;fill-rule:nonzero;" />
		<polygon points="23.49,251.35 21.39,257.92 26.64,253.73 20.35,253.73 25.59,257.92 "  style="fill:#ff0000ff;fill-rule:nonzero;" />
		<polygon points="23.49,258.35 21.39,264.92 26.64,260.73 20.35,260.73 25.59,264.92 "  style="fill:#ff0000ff;fill-rule:nonzero;" />
		<polygon points="23.49,265.35 21.39,271.92 26.64,267.73 20.35,267.73 25.59,271.92 "  style="fill:#ff0000ff;fill-rule:nonzero;" />
		<polygon points="23.49,272.35 21.39,278.92 26.64,274.73 20.35,274.73 25.59,278.92 "  style="fill:#ff0000ff;fill-rule:nonzero;" />
		<polygon points="30.49,20.35 28.39,26.92 33.64,22.73 27.35,22.73 32.59,26.92 "  style="fill:#ff0000ff;fill-rule:nonzero;" />
		<polygon points="30.49,62.35 28.39,68.92 33.64,64.73 27.35,64.73 32.59,68.92 "  style="fill:#ff0000ff;fill-rule:nonzero;" />
		<polygon points="30.49,118.35 28.39,124.92 33.64,120.73 27.35,120.73 32.59,124.92 "  style="fill:#ff0000ff;fill-rule:nonzero;" />
		<polygon points="30.49,125.35 28.39,131.92 33.64,127.73 27.35,127.73 32.59,131.92 "  style="fill:#ff0000ff;fill-rule:nonzero;" />
		<polygon points="30.49,146.35 28.39,152.92 33.64,148.73 27.35,148.73 32.59,152.92 "  style="fill:#ff0000ff;fill-rule:nonzero;" />
		<polygon points="30.49,174.35 28.39,180.92 33.64,176.73 27.35,176.73 32.59,180.92 "  style="fill:#ff0000ff;fill-rule:nonzero;" />
		<polygon points="30.49,181.35 28.39,187.92 33.64,183.73 27.35,183.73 32.59,187.92 "  style="fill:#ff0000ff;fill-rule:nonzero;" />
		<polygon points="30.49,195.35 28.39,201.92 33.64,197.73 27.35,197.73 32.59,201.92 "  style="fill:#ff0000ff;fill-rule:nonzero;" />
		<polygon points="30.49,230.35 28.39,236.92 33.64,232.73 27.35,232.73 32.59,236.92 "  style="fill:#ff0000ff;fill-rule:nonzero;" />
		<polygon points="30.49,272.35 28.39,278.92 33.64,274.73 27.35,274.73 32.59,278.92 "  style="fill:#ff0000ff;fill-rule:nonzero;" />
		<polygon points="37.49,20.35 35.39,26.92 40.64,22.73 34.35,22.73 39.59,26.92 "  style="fill:#ff0000ff;fill-rule:nonzero;" />
		<polygon points="37.49,34.35 35.39,40.92 40.64,36.73 34.35,36.73 39.59,40.92 "  style="fill:#ff0000ff;fill-rule:nonzero;" />
		<polygon points="37.49,41.35 35.39,47.92 40.64,43.73 34.35,43.73 39.59,47.92 "  style="fill:#ff0000ff;fill-rule:nonzero;" />
		<polygon points="37.49,48.35 35.39,54.92 40.64,50.73 34.35,50.73 39.59,54.92 "  style="fill:#ff0000ff;fill-rule:nonzero;" />
		<polygon points="37.49,62.35 35.39,68.92 40.64,64.73 34.35,64.73 39.59,68.92 "  style="fill:#ff0000ff;fill-rule:nonzero;" />
		<polygon points="37.49,76.35 35.39,82.92 40.64,78.73 34.35,78.73 39.59,82.92 "  style="fill:#ff0000ff;fill-rule:nonzero;" />
		<polygon points="37.49,90.35 35.39,96.92 40.64,92.73 34.35,92.73 39.59,96.92 "  style="fill:#ff0000ff;fill-rule:nonzero;" />
		<polygon points="37.49,104.35 35.39,110.92 40.64,106.73 34.35,106.73 39.59,110.92 "  style="fill:#ff0000ff;fill-rule:nonzero;" />
		<polygon points="37.49,118.35 35.39,124.92 40.64,120.73 34.35,120.73 39.59,124.92 "  style="fill:#ff0000ff;fill-rule:nonzero;" />
		<polygon points="37.49,139.35 35.39,145.92 40.64,141.73 34.35,141.73 39.59,145.92 "  style="fill:#ff0000ff;fill-rule:nonzero;" />
		<polygon points="37.49,153.35 35.39,159.92 40.64,155.73 34.35,155.73 39.59,159.92 "  style="fill:#ff0000ff;fill-rule:nonzero;" />
		<polygon points="37.49,160.35 35.39,166.92 40.64,162.73 34.35,162.73 39.59,166.92 "  style="fill:#ff0000ff;fill-rule:nonzero;" />
		<polygon points="37.49,167.35 35.39,173.92 40.64,169.73 34.35,169.73 39.59,173.92 "  style="fill:#ff0000ff;fill-rule:nonzero;" />
		<polygon points="37.49,174.35 35.39,180.92 40.64,176.73 34.35,176.73 39.59,180.92 "  style="fill:#ff0000ff;fill-rule:nonzero;" />
		<polygon points="37.49,202.35 35.39,208.92 40.64,204.73 34.35,204.73 39.59,208.92 "  style="fill:#ff0000ff;fill-rule:nonzero;" />
		<polygon points="37.49,209.35 35.39,215.92 40.64,211.73 34.35,211.73 39.59,215.92 "  style="fill:#ff0000ff;fill-rule:nonzero;" />
		<polygon points="37.49,216.35 35.39,222.92 40.64,218.73 34.35,218.73 39.59,222.92 "  style="fill:#ff0000ff;fill-rule:nonzero;" />
		<polygon points="37.49,230.35 35.39,236.92 40.64,232.73 34.35,232.73 39.59,236.92 "  style="fill:#ff0000ff;fill-rule:nonzero;" />
		<polygon points="37.49,244.35 35.39,250.92 40.64,246.73 34.35,246.73 39.59,250.92 "  style="fill:#ff0000ff;fill-rule:nonzero;" />
		<polygon points="37.49,251.35 35.39,257.92 40.64,253.73 34.35,253.73 39.59,257.92 "  style="fill:#ff0000ff;fill-rule:nonzero;" />
		<polygon points="37.49,258.35 35.39,264.92 40.64,260.73 34.35,260.73 39.59,264.92 "  style="fill:#ff0000ff;fill-rule:nonzero;" />
		<polygon points="37.49,272.35 35.39,278.92 40.64,274.73 34.35,274.73 39.59,278.92 "  style="fill:#ff0000ff;fill-rule:nonzero;" />
		<polygon points="44.49,20.35 42.39,26.92 47.64,22.73 41.35,22.73 46.59,26.92 "  style="fill:#ff0000ff;fill-rule:nonzero;" />
		<polygon points="44.49,34.35 42.39,40.92 47.64,36.73 41.35,36.73 46.59,40.92 "  style="fill:#ff0000ff;fill-rule:nonzero;" />
		<polygon points="44.49,41.35 42.39,47.92 47.64,43.73 41.35,43.73 46.59,47.92 "  style="fill:#ff0000ff;fill-rule:nonzero;" />
		<polygon points="44.49,48.35 42.39,54.92 47.64,50.73 41.35,50.73 46.59,54.92 "  style="fill:#ff0000ff;fill-rule:nonzero;" />
		<polygon points="44.49,62.35 42.39,68.92 47.64,64.73 41.35,64.73 46.59,68.92 "  style="fill:#ff0000ff;fill-rule:nonzero;" />
		<polygon points="44.49,76.35 42.39,82.92 47.64,78.73 41.35,78.73 46.59,82.92 "  style="fill:#ff0000ff;fill-rule:nonzero;" />
		<polygon points="44.49,104.35 42.39,110.92 47.64,106.73 41.35,106.73 46.59,110.92 "  style="fill:#ff0000ff;fill-rule:nonzero;" />
		<polygon points="44.49,111.35 42.39,117.92 47.64,113.73 41.35,113.73 46.59,117.92 "  style="fill:#ff0000ff;fill-rule:nonzero;" />
		<polygon points="44.49,118.35 42.39,124.92 47.64,120.73 41.35,120.73 46.59,124.92 "  style="fill:#ff0000ff;fill-rule:nonzero;" />
		<polygon points="44.49,125.35 42.39,131.92 47.64,127.73 41.35,127.73 46.59,131.92 "  style="fill:#ff0000ff;fill-rule:nonzero;" />
		<polygon points="44.49,139.35 42.39,145.92 47.64,141.73 41.35,141.73 46.59,145.92 "  style="fill:#ff0000ff;fill-rule:nonzero;" />
		<polygon points="44.49,146.35 42.39,152.92 47.64,148.73 41.35,148.73 46.59,152.92 "  style="fill:#ff0000ff;fill-rule:nonzero;" />
		<polygon points="44.49,160.35 42.39,166.92 47.64,162.73 41.35,162.73 46.59,166.92 "  style="fill:#ff0000ff;fill-rule:nonzero;" />
		<polygon points="44.49,195.35 42.39,201.92 47.64,197.73 41.35,197.73 46.59,201.92 "  style="fill:#ff0000ff;fill-rule:nonzero;" />
		<polygon points="44.49,209.35 42.39,215.92 47.64,211.73 41.35,211.73 46.59,215.92 "  style="fill:#ff0000ff;fill-rule:nonzero;" />
		<polygon points="44.49,230.35 42.39,236.92 47.64,232.73 41.35,232.73 46.59,236.92 "  style="fill:#ff0000ff;fill-rule:nonzero;" />
		<polygon points="44.49,244.35 42.39,250.92 47.64,246.73 41.35,246.73 46.59,250.92 "  style="fill:#ff0000ff;fill-rule:nonzero;" />
		<polygon points="44.49,251.35 42.39,257.92 47.64,253.73 41.35,253.73 46.59,257.92 "  style="fill:#ff0000ff;fill-rule:nonzero;" />
		<polygon points="44.49,258.35 42.39,264.92 47.64,260.73 41.35,260.73 46.59,264.92 "  style="fill:#ff0000ff;fill-rule:nonzero;" />
		<polygon points="44.49,272.35 42.39,278.92 47.64,274.73 41.35,274.73 46.59,278.92 "  style="fill:#ff0000ff;fill-rule:nonzero;" />
		<polygon points="51.49,20.35 49.39,26.92 54.64,22.73 48.35,22.73 53.59,26.92 "  style="fill:#ff0000ff;fill-rule:nonzero;" />
		<polygon points="51.49,34.35 49.39,40.92 54.64,36.73 48.35,36.73 53.59,40.92 "  style="fill:#ff0000ff;fill-rule:nonzero;" />
		<polygon points="51.49,41.35 49.39,47.92 54.64,43.73 48.35,43.73 53.59,47.92 "  style="fill:#ff0000ff;fill-rule:nonzero;" />
		<polygon points="51.49,48.35 49.39,54.92 54.64,50.73 48.35,50.73 53.59,54.92 "  style="fill:#ff0000ff;fill-rule:nonzero;" />
		<polygon points="51.49,62.35 49.39,68.92 54.64,64.73 48.35,64.73 53.59,68.92 "  style="fill:#ff0000ff;fill-rule:nonzero;" />
		<polygon points="51.49,76.35 49.39,82.92 54.64,78.73 48.35,78.73 53.59,82.92 "  style="fill:#ff0000ff;fill-rule:nonzero;" />
		<polygon points="51.49,83.35 49.39,89.92 54.64,85.73 48.35,85.73 53.59,89.92 "  style="fill:#ff0000ff;fill-rule:nonzero;" />
		<polygon points="51.49,90.35 49.39,96.92 54.64,92.73 48.35,92.73 53.59,96.92 "  style="fill:#ff0000ff;fill-rule:nonzero;" />
		<polygon points="51.49,97.35 49.39,103.92 54.64,99.73 48.35,99.73 53.59,103.92 "  style="fill:#ff0000ff;fill-rule:nonzero;" />
		<polygon points="51.49,104.35 49.39,110.92 54.64,106.73 48.35,106.73 53.59,110.92 "  style="fill:#ff0000ff;fill-rule:nonzero;" />
		<polygon points="51.49,111.35 49.39,117.92 54.64,113.73 48.35,113.73 53.59,117.92 "  style="fill:#ff0000ff;fill-rule:nonzero;" />
		<polygon points="51.49,118.35 49.39,124.92 54.64,120.73 48.35,120.73 53.59,124.92 "  style="fill:#ff0000ff;fill-rule:nonzero;" />
		<polygon points="51.49,125.35 49.39,131.92 54.64,127.73 48.35,127.73 53.59,131.92 "  style="fill:#ff0000ff;fill-rule:nonzero;" />
		<polygon points="51.49,139.35 49.39,145.92 54.64,141.73 48.35,141.73 53.59,145.92 "  style="fill:#ff0000ff;fill-rule:nonzero;" />
		<polygon points="51.49,174.35 49.39,180.92 54.64,176.73 48.35,176.73 53.59,180.92 "  style="fill:#ff0000ff;fill-rule:nonzero;" />
		<polygon points="51.49,195.35 49.39,201.92 54.64,197.73 48.35,197.73 53.59,201.92 "  style="fill:#ff0000ff;fill-rule:nonzero;" />
		<polygon points="51.49,202.35 49.39,208.92 54.64,204.73 48.35,204.73 53.59,208.92 "  style="fill:#ff0000ff;fill-rule:nonzero;" />
		<polygon points="51.49,209.35 49.39,215.92 54.64,211.73 48.35,211.73 53.59,215.92 "  style="fill:#ff0000ff;fill-rule:nonzero;" />
		<polygon points="51.49,216.35 49.39,222.92 54.64,218.73 48.35,218.73 53.59,222.92 "  style="fill:#ff0000ff;fill-rule:nonzero;" />
		<polygon points="51.49,230.35 49.39,236.92 54.64,232.73 48.35,232.73 53.59,236.92 "  style="fill:#ff0000ff;fill-rule:nonzero;" />
		<polygon points="51.49,244.35 49.39,250.92 54.64,246.73 48.35,246.73 53.59,250.92 "  style="fill:#ff0000ff;fill-rule:nonzero;" />
		<polygon points="51.49,251.35 49.39,257.92 54.64,253.73 48.35,253.73 53.59,257.92 "  style="fill:#ff0000ff;fill-rule:nonzero;" />
		<polygon points="51.49,258.35 49.39,264.92 54.64,260.73 48.35,260.73 53.59,264.92 "  style="fill:#ff0000ff;fill-rule:nonzero;" />
		<polygon points="51.49,272.35 49.39,278.92 54.64,274.73 48.35,274.73 53.59,278.92 "  style="fill:#ff0000ff;fill-rule:nonzero;" />
		<polygon points="58.49,20.35 56.39,26.92 61.64,22.73 55.35,22.73 60.59,26.92 "  style="fill:#ff0000ff;fill-rule:nonzero;" />
		<polygon points="58.49,62.35 56.39,68.92 61.64,64.73 55.35,64.73 60.59,68.92 "  style="fill:#ff0000ff;fill-rule:nonzero;" />
		<polygon points="58.49,90.35 56.39,96.92 61.64,92.73 55.35,92.73 60.59,96.92 "  style="fill:#ff0000ff;fill-rule:nonzero;" />
		<polygon points="58.49,97.35 56.39,103.92 61.64,99.73 55.35,99.73 60.59,103.92 "  style="fill:#ff0000ff;fill-rule:nonzero;" />
		<polygon points="58.49,111.35 56.39,117.92 61.64,113.73 55.35,113.73 60.59,117.92 "  style="fill:#ff0000ff;fill-rule:nonzero;" />
		<polygon points="58.49,118.35 56.39,124.92 61.64,120.73 55.35,120.73 60.59,124.92 "  style="fill:#ff0000ff;fill-rule:nonzero;" />
		<polygon points="58.49,125.35 56.39,131.92 61.64,127.73 55.35,127.73 60.59,131.92 "  style="fill:#ff0000ff;fill-rule:nonzero;" />
		<polygon points="58.49,132.35 56.39,138.92 61.64,134.73 55.35,134.73 60.59,138.92 "  style="fill:#ff0000ff;fill-rule:nonzero;" />
		<polygon points="58.49,139.35 56.39,145.92 61.64,141.73 55.35,141.73 60.59,145.92 "  style="fill:#ff0000ff;fill-rule:nonzero;" />
		<polygon points="58.49,167.35 56.39,173.92 61.64,169.73 55.35,169.73 60.59,173.92 "  style="fill:#ff0000ff;fill-rule:nonzero;" />
		<polygon points="58.49,181.35 56.39,187.92 61.64,183.73 55.35,183.73 60.59,187.92 "  style="fill:#ff0000ff;fill-rule:nonzero;" />
		<polygon points="58.49,195.35 56.39,201.92 61.64,197.73 55.35,197.73 60.59,201.92 "  style="fill:#ff0000ff;fill-rule:nonzero;" />
		<polygon points="58.49,230.35 56.39,236.92 61.64,232.73 55.35,232.73 60.59,236.92 "  style="fill:#ff0000ff;fill-rule:nonzero;" />
		<polygon points="58.49,272.35 56.39,278.92 61.64,274.73 55.35,274.73 60.59,278.92 "  style="fill:#ff0000ff;fill-rule:nonzero;" />
		<polygon points="65.49,20.35 63.39,26.92 68.64,22.73 62.35,22.73 67.59,26.92 "  style="fill:#ff0000ff;fill-rule:nonzero;" />
		<polygon points="65.49,27.35 63.39,33.92 68.64,29.73 62.35,29.73 67.59,33.92 "  style="fill:#ff0000ff;fill-rule:nonzero;" />
		<polygon points="65.49,34.35 63.39,40.92 68.64,36.73 62.35,36.73 67.59,40.92 "  style="fill:#ff0000ff;fill-rule:nonzero;" />
		<polygon points="65.49,41.35 63.39,47.92 68.64,43.73 62.35,43.73 67.59,47.92 "  style="fill:#ff0000ff;fill-rule:nonzero;" />
		<polygon points="65.49,48.35 63.39,54.92 68.64,50.73 62.35,50.73 67.59,54.92 "  style="fill:#ff0000ff;fill-rule:nonzero;" />
		<polygon points="65.49,55.35 63.39,61.92 68.64,57.73 62.35,57.73 67.59,61.92 "  style="fill:#ff0000ff;fill-rule:nonzero;" />
		<polygon points="65.49,62.35 63.39,68.92 68.64,64.73 62.35,64.73 67.59,68.92 "  style="fill:#ff0000ff;fill-rule:nonzero;" />
		<polygon points="65.49,76.35 63.39,82.92 68.64,78.73 62.35,78.73 67.59,82.92 "  style="fill:#ff0000ff;fill-rule:nonzero;" />
		<polygon points="65.49,90.35 63.39,96.92 68.64,92.73 62.35,92.73 67.59,96.92 "  style="fill:#ff0000ff;fill-rule:nonzero;" />
		<polygon points="65.49,104.35 63.39,110.92 68.64,106.73 62.35,106.73 67.59,110.92 "  style="fill:#ff0000ff;fill-rule:nonzero;" />
		<polygon points="65.49,118.35 63.39,124.92 68.64,120.73 62.35,120.73 67.59,124.92 "  style="fill:#ff0000ff;fill-rule:nonzero;" />
		<polygon points="65.49,132.35 63.39,138.92 68.64,134.73 62.35,134.73 67.59,138.92 "  style="fill:#ff0000ff;fill-rule:nonzero;" />
		<polygon points="65.49,146.35 63.39,152.92 68.64,148.73 62.35,148.73 67.59,152.92 "  style="fill:#ff0000ff;fill-rule:nonzero;" />
		<polygon points="65.49,160.35 63.39,166.92 68.64,162.73 62.35,162.73 67.59,166.92 "  style="fill:#ff0000ff;fill-rule:nonzero;" />
		<polygon points="65.49,174.35 63.39,180.92 68.64,176.73 62.35,176.73 67.59,180.92 "  style="fill:#ff0000ff;fill-rule:nonzero;" />
		<polygon points="65.49,188.35 63.39,194.92 68.64,190.73 62.35,190.73 67.59,194.92 "  style="fill:#ff0000ff;fill-rule:nonzero;" />
		<polygon points="65.49,202.35 63.39,208.92 68.64,204.73 62.35,204.73 67.59,208.92 "  style="fill:#ff0000ff;fill-rule:nonzero;" />
		<polygon points="65.49,216.35 63.39,222.92 68.64,218.73 62.35,218.73 67.59,222.92 "  style="fill:#ff0000ff;fill-rule:nonzero;" />
		<polygon points="65.49,230.35 63.39,236.92 68.64,232.73 62.35,232.73 67.59,236.92 "  style="fill:#ff0000ff;fill-rule:nonzero;" />
		<polygon points="65.49,237.35 63.39,243.92 68.64,239.73 62.35,239.73 67.59,243.92 "  style="fill:#ff0000ff;fill-rule:nonzero;" />
		<polygon points="65.49,244.35 63.39,250.92 68.64,246.73 62.35,246.73 67.59,250.92 "  style="fill:#ff0000ff;fill-rule:nonzero;" />
		<polygon points="65.49,251.35 63.39,257.92 68.64,253.73 62.35,253.73 67.59,257.92 "  style="fill:#ff0000ff;fill-rule:nonzero;" />
		<polygon points="65.49,258.35 63.39,264.92 68.64,260.73 62.35,260.73 67.59,264.92 "  style="fill:#ff0000ff;fill-rule:nonzero;" />
		<polygon points="65.49,265.35 63.39,271.92 68.64,267.73 62.35,267.73 67.59,271.92 "  style="fill:#ff0000ff;fill-rule:nonzero;" />
		<polygon points="65.49,272.35 63.39,278.92 68.64,274.73 62.35,274.73 67.59,278.92 "  style="fill:#ff0000ff;fill-rule:nonzero;" />
		<polygon points="72.49,90.35 70.39,96.92 75.64,92.73 69.35,92.73 74.59,96.92 "  style="fill:#ff0000ff;fill-rule:nonzero;" />
		<polygon points="72.49,125.35 70.39,131.92 75.64,127.73 69.35,127.73 74.59,131.92 "  style="fill:#ff0000ff;fill-rule:nonzero;" />
		<polygon points="72.49,146.35 70.39,152.92 75.64,148.73 69.35,148.73 74.59,152.92 "  style="fill:#ff0000ff;fill-rule:nonzero;" />
		<polygon points="72.49,160.35 70.39,166.92 75.64,162.73 69.35,162.73 74.59,166.92 "  style="fill:#ff0000ff;fill-rule:nonzero;" />
		<polygon points="72.49,181.35 70.39,187.92 75.64,183.73 69.35,183.73 74.59,187.92 "  style="fill:#ff0000ff;fill-rule:nonzero;" />
		<polygon points="72.49,195.35 70.39,201.92 75.64,197.73 69.35,197.73 74.59,201.92 "  style="fill:#ff0000ff;fill-rule:nonzero;" />
		<polygon points="72.49,209.35 70.39,215.92 75.64,211.73 69.35,211.73 74.59,215.92 "  style="fill:#ff0000ff;fill-rule:nonzero;" />
		<polygon points="72.49,216.35 70.39,222.92 75.64,218.73 69.35,218.73 74.59,222.92 "  style="fill:#ff0000ff;fill-rule:nonzero;" />
		<polygon points="79.49,20.35 77.39,26.92 82.64,22.73 76.35,22.73 81.59,26.92 "  style="fill:#ff0000ff;fill-rule:nonzero;" />
		<polygon points="79.49,27.35 77.39,33.92 82.64,29.73 76.35,29.73 81.59,33.92 "  style="fill:#ff0000ff;fill-rule:nonzero;" />
		<polygon points="79.49,34.35 77.39,40.92 82.64,36.73 76.35,36.73 81.59,40.92 "  style="fill:#ff0000ff;fill-rule:nonzero;" />
		<polygon points="79.49,55.35 77.39,61.92 82.64,57.73 76.35,57.73 81.59,61.92 "  style="fill:#ff0000ff;fill-rule:nonzero;" />
		<polygon points="79.49,62.35 77.39,68.92 82.64,64.73 76.35,64.73 81.59,68.92 "  style="fill:#ff0000ff;fill-rule:nonzero;" />
		<polygon points="79.49,69.35 77.39,75.92 82.64,71.73 76.35,71.73 81.59,75.92 "  style="fill:#ff0000ff;fill-rule:nonzero;" />
		<polygon points="79.49,76.35 77.39,82.92 82.64,78.73 76.35,78.73 81.59,82.92 "  style="fill:#ff0000ff;fill-rule:nonzero;" />
		<polygon points="79.49,90.35 77.39,96.92 82.64,92.73 76.35,92.73 81.59,96.92 "  style="fill:#ff0000ff;fill-rule:nonzero;" />
		<polygon points="79.49,104.35 77.39,110.92 82.64,106.73 76.35,106.73 81.59,110.92 "  style="fill:#ff0000ff;fill-rule:nonzero;" />
		<polygon points="79.49,118.35 77.39,124.92 82.64,120.73 76.35,120.73 81.59,124.92 "  style="fill:#ff0000ff;fill-rule:nonzero;" />
		<polygon points="79.49,125.35 77.39,131.92 82.64,127.73 76.35,127.73 81.59,131.92 "  style="fill:#ff0000ff;fill-rule:nonzero;" />
		<polygon points="79.49,132.35 77.39,138.92 82.64,134.73 76.35,134.73 81.59,138.92 "  style="fill:#ff0000ff;fill-rule:nonzero;" />
		<polygon points="79.49,139.35 77.39,145.92 82.64,141.73 76.35,141.73 81.59,145.92 "  style="fill:#ff0000ff;fill-rule:nonzero;" />
		<polygon points="79.49,146.35 77.39,152.92 82.64,148.73 76.35,148.73 81.59,152.92 "  style="fill:#ff0000ff;fill-rule:nonzero;" />
		<polygon points="79.49,153.35 77.39,159.92 82.64,155.73 76.35,155.73 81.59,159.92 "  style="fill:#ff0000ff;fill-rule:nonzero;" />
		<polygon points="79.49,188.35 77.39,194.92 82.64,190.73 76.35,190.73 81.59,194.92 "  style="fill:#ff0000ff;fill-rule:nonzero;" />
		<polygon points="79.49,195.35 77.39,201.92 82.64,197.73 76.35,197.73 81.59,201.92 "  style="fill:#ff0000ff;fill-rule:nonzero;" />
		<polygon points="79.49,202.35 77.39,208.92 82.64,204.73 76.35,204.73 81.59,208.92 "  style="fill:#ff0000ff;fill-rule:nonzero;" />
		<polygon points="79.49,216.35 77.39,222.92 82.64,218.73 76.35,218.73 81.59,222.92 "  style="fill:#ff0000ff;fill-rule:nonzero;" />
		<polygon points="79.49,223.35 77.39,229.92 82.64,225.73 76.35,225.73 81.59,229.92 "  style="fill:#ff0000ff;fill-rule:nonzero;" />
		<polygon points="79.49,244.35 77.39,250.92 82.64,246.73 76.35,246.73 81.59,250.92 "  style="fill:#ff0000ff;fill-rule:nonzero;" />
		<polygon points="79.49,251.35 77.39,257.92 82.64,253.73 76.35,253.73 81.59,257.92 "  style="fill:#ff0000ff;fill-rule:nonzero;" />
		<polygon points="79.49,258.35 77.39,264.92 82.64,260.73 76.35,260.73 81.59,264.92 "  style="fill:#ff0000ff;fill-rule:nonzero;" />
		<polygon points="86.49,34.35 84.39,40.92 89.64,36.73 83.35,36.73 88.59,40.92 "  style="fill:#ff0000ff;fill-rule:nonzero;" />
		<polygon points="86.49,55.35 84.39,61.92 89.64,57.73 83.35,57.73 88.59,61.92 "  style="fill:#ff0000ff;fill-rule:nonzero;" />
		<polygon points="86.49,69.35 84.39,75.92 89.64,71.73 83.35,71.73 88.59,75.92 "  style="fill:#ff0000ff;fill-rule:nonzero;" />
		<polygon points="86.49,83.35 84.39,89.92 89.64,85.73 83.35,85.73 88.59,89.92 "  style="fill:#ff0000ff;fill-rule:nonzero;" />
		<polygon points="86.49,90.35 84.39,96.92 89.64,92.73 83.35,92.73 88.59,96.92 "  style="fill:#ff0000ff;fill-rule:nonzero;" />
		<polygon points="86.49,97.35 84.39,103.92 89.64,99.73 83.35,99.73 88.59,103.92 "  style="fill:#ff0000ff;fill-rule:nonzero;" />
		<polygon points="86.49,104.35 84.39,110.92 89.64,106.73 83.35,106.73 88.59,110.92 "  style="fill:#ff0000ff;fill-rule:nonzero;" />
		<polygon points="86.49,118.35 84.39,124.92 89.64,120.73 83.35,120.73 88.59,124.92 "  style="fill:#ff0000ff;fill-rule:nonzero;" />
		<polygon points="86.49,125.35 84.39,131.92 89.64,127.73 83.35,127.73 88.59,131.92 "  style="fill:#ff0000ff;fill-rule:nonzero;" />
		<polygon points="86.49,146.35 84.39,152.92 89.64,148.73 83.35,148.73 88.59,152.92 "  style="fill:#ff0000ff;fill-rule:nonzero;" />
		<polygon points="86.49,160.35 84.39,166.92 89.64,162.73 83.35,162.73 88.59,166.92 "  style="fill:#ff0000ff;fill-rule:nonzero;" />
		<polygon points="86.49,167.35 84.39,173.92 89.64,169.73 83.35,169.73 88.59,173.92 "  style="fill:#ff0000ff;fill-rule:nonzero;" />
		<polygon points="86.49,174.35 84.39,180.92 89.64,176.73 83.35,176.73 88.59,180.92 "  style="fill:#ff0000ff;fill-rule:nonzero;" />
		<polygon points="86.49,181.35 84.39,187.92 89.64,183.73 83.35,183.73 88.59,187.92 "  style="fill:#ff0000ff;fill-rule:nonzero;" />
		<polygon points="86.49,188.35 84.39,194.92 89.64,190.73 83.35,190.73 88.59,194.92 "  style="fill:#ff0000ff;fill-rule:nonzero;" />
		<polygon points="86.49,195.35 84.39,201.92 89.64,197.73 83.35,197.73 88.59,201.92 "  style="fill:#ff0000ff;fill-rule:nonzero;" />
		<polygon points="86.49,223.35 84.39,229.92 89.64,225.73 83.35,225.73 88.59,229.92 "  style="fill:#ff0000ff;fill-rule:nonzero;" />
		<polygon points="86.49,244.35 84.39,250.92 89.64,246.73 83.35,246.73 88.59,250.92 "  style="fill:#ff0000ff;fill-rule:nonzero;" />
		<polygon points="93.49,27.35 91.39,33.92 96.64,29.73 90.35,29.73 95.59,33.92 "  style="fill:#ff0000ff;fill-rule:nonzero;" />
		<polygon points="93.49,34.35 91.39,40.92 96.64,36.73 90.35,36.73 95.59,40.92 "  style="fill:#ff0000ff;fill-rule:nonzero;" />
		<polygon points="93.49,41.35 91.39,47.92 96.64,43.73 90.35,43.73 95.59,47.92 "  style="fill:#ff0000ff;fill-rule:nonzero;" />
		<polygon points="93.49,48.35 91.39,54.92 96.64,50.73 90.35,50.73 95.59,54.92 "  style="fill:#ff0000ff;fill-rule:nonzero;" />
		<polygon points="93.49,55.35 91.39,61.92 96.64,57.73 90.35,57.73 95.59,61.92 "  style="fill:#ff0000ff;fill-rule:nonzero;" />
		<polygon points="93.49,62.35 91.39,68.92 96.64,64.73 90.35,64.73 95.59,68.92 "  style="fill:#ff0000ff;fill-rule:nonzero;" />
		<polygon points="93.49,69.35 91.39,75.92 96.64,71.73 90.35,71.73 95.59,75.92 "  style="fill:#ff0000ff;fill-rule:nonzero;" />
		<polygon points="93.49,76.35 91.39,82.92 96.64,78.73 90.35,78.73 95.59,82.92 "  style="fill:#ff0000ff;fill-rule:nonzero;" />
		<polygon points="93.49,90.35 91.39,96.92 96.64,92.73 90.35,92.73 95.59,96.92 "  style="fill:#ff0000ff;fill-rule:nonzero;" />
		<polygon points="93.49,97.35 91.39,103.92 96.64,99.73 90.35,99.73 95.59,103.92 "  style="fill:#ff0000ff;fill-rule:nonzero;" />
		<polygon points="93.49,104.35 91.39,110.92 96.64,106.73 90.35,106.73 95.59,110.92 "  style="fill:#ff0000ff;fill-rule:nonzero;" />
		<polygon points="93.49,111.35 91.39,117.92 96.64,113.73 90.35,113.73 95.59,117.92 "  style="fill:#ff0000ff;fill-rule:nonzero;" />
		<polygon points="93.49,125.35 91.39,131.92 96.64,127.73 90.35,127.73 95.59,131.92 "  style="fill:#ff0000ff;fill-rule:nonzero;" />
		<polygon points="93.49,132.35 91.39,138.92 96.64,134.73 90.35,134.73 95.59,138.92 "  style="fill:#ff0000ff;fill-rule:nonzero;" />
		<polygon points="93.49,146.35 91.39,152.92 96.64,148.73 90.35,148.73 95.59,152.92 "  style="fill:#ff0000ff;fill-rule:nonzero;" />
		<polygon points="93.49,153.35 91.39,159.92 96.64,155.73 90.35,155.73 95.59,159.92 "  style="fill:#ff0000ff;fill-rule:nonzero;" />
		<polygon points="93.49,174.35 91.39,180.92 96.64,176.73 90.35,176.73 95.59,180.92 "  style="fill:#ff0000ff;fill-rule:nonzero;" />
		<polygon points="93.49,188.35 91.39,194.92 96.64,190.73 90.35,190.73 95.59,194.92 "  style="fill:#ff0000ff;fill-rule:nonzero;" />
		<polygon points="93.49,195.35 91.39,201.92 96.64,197.73 90.35,197.73 95.59,201.92 "  style="fill:#ff0000ff;fill-rule:nonzero;" />
		<polygon points="93.49,216.35 91.39,222.92 96.64,218.73 90.35,218.73 95.59,222.92 "  style="fill:#ff0000ff;fill-rule:nonzero;" />
		<polygon points="93.49,223.35 91.39,229.92 96.64,225.73 90.35,225.73 95.59,229.92 "  style="fill:#ff0000ff;fill-rule:nonzero;" />
		<polygon points="93.49,230.35 91.39,236.92 96.64,232.73 90.35,232.73 95.59,236.92 "  style="fill:#ff0000ff;fill-rule:nonzero;" />
		<polygon points="93.49,237.35 91.39,243.92 96.64,239.73 90.35,239.73 95.59,243.92 "  style="fill:#ff0000ff;fill-rule:nonzero;" />
		<polygon points="93.49,251.35 91.39,257.92 96.64,253.73 90.35,253.73 95.59,257.92 "  style="fill:#ff0000ff;fill-rule:nonzero;" />
		<polygon points="93.49,265.35 91.39,271.92 96.64,267.73 90.35,267.73 95.59,271.92 "  style="fill:#ff0000ff;fill-rule:nonzero;" />
		<polygon points="100.49,34.35 98.39,40.92 103.64,36.73 97.35,36.73 102.59,40.92 "  style="fill:#ff0000ff;fill-rule:nonzero;" />
		<polygon points="100.49,41.35 98.39,47.92 103.64,43.73 97.35,43.73 102.59,47.92 "  style="fill:#ff0000ff;fill-rule:nonzero;" />
		<polygon points="100.49,48.35 98.39,54.92 103.64,50.73 97.35,50.73 102.59,54.92 "  style="fill:#ff0000ff;fill-rule:nonzero;" />
		<polygon points="100.49,69.35 98.39,75.92 103.64,71.73 97.35,71.73 102.59,75.92 "  style="fill:#ff0000ff;fill-rule:nonzero;" />
		<polygon points="100.49,76.35 98.39,82.92 103.64,78.73 97.35,78.73 102.59,82.92 "  style="fill:#ff0000ff;fill-rule:nonzero;" />
		<polygon points="100.49,90.35 98.39,96.92 103.64,92.73 97.35,92.73 102.59,96.92 "  style="fill:#ff0000ff;fill-rule:nonzero;" />
		<polygon points="100.49,111.35 98.39,117.92 103.64,113.73 97.35,113.73 102.59,117.92 "  style="fill:#ff0000ff;fill-rule:nonzero;" />
		<polygon points="100.49,118.35 98.39,124.92 103.64,120.73 97.35,120.73 102.59,124.92 "  style="fill:#ff0000ff;fill-rule:nonzero;" />
		<polygon points="100.49,125.35 98.39,131.92 103.64,127.73 97.35,127.73 102.59,131.92 "  style="fill:#ff0000ff;fill-rule:nonzero;" />
		<polygon points="100.49,153.35 98.39,159.92 103.64,155.73 97.35,155.73 102.59,159.92 "  style="fill:#ff0000ff;fill-rule:nonzero;" />
		<polygon points="100.49,167.35 98.39,173.92 103.64,169.73 97.35,169.73 102.59,173.92 "  style="fill:#ff0000ff;fill-rule:nonzero;" />
		<polygon points="100.49,195.35 98.39,201.92 103.64,197.73 97.35,197.73 102.59,201.92 "  style="fill:#ff0000ff;fill-rule:nonzero;" />
		<polygon points="100.49,202.35 98.39,208.92 103.64,204.73 97.35,204.73 102.59,208.92 "  style="fill:#ff0000ff;fill-rule:nonzero;" />
		<polygon points="100.49,216.35 98.39,222.92 103.64,218.73 97.35,218.73 102.59,222.92 "  style="fill:#ff0000ff;fill-rule:nonzero;" />
		<polygon points="100.49,223.35 98.39,229.92 103.64,225.73 97.35,225.73 102.59,229.92 "  style="fill:#ff0000ff;fill-rule:nonzero;" />
		<polygon points="107.49,27.35 105.39,33.92 110.64,29.73 104.35,29.73 109.59,33.92 "  style="fill:#ff0000ff;fill-rule:nonzero;" />
		<polygon points="107.49,34.35 105.39,40.92 110.64,36.73 104.35,36.73 109.59,40.92 "  style="fill:#ff0000ff;fill-rule:nonzero;" />
		<polygon points="107.49,41.35 105.39,47.92 110.64,43.73 104.35,43.73 109.59,47.92 "  style="fill:#ff0000ff;fill-rule:nonzero;" />
		<polygon points="107.49,48.35 105.39,54.92 110.64,50.73 104.35,50.73 109.59,54.92 "  style="fill:#ff0000ff;fill-rule:nonzero;" />
		<polygon points="107.49,62.35 105.39,68.92 110.64,64.73 104.35,64.73 109.59,68.92 "  style="fill:#ff0000ff;fill-rule:nonzero;" />
		<polygon points="107.49,69.35 105.39,75.92 110.64,71.73 104.35,71.73 109.59,75.92 "  style="fill:#ff0000ff;fill-rule:nonzero;" />
		<polygon points="107.49,76.35 105.39,82.92 110.64,78.73 104.35,78.73 109.59,82.92 "  style="fill:#ff0000ff;fill-rule:nonzero;" />
		<polygon points="107.49,83.35 105.39,89.92 110.64,85.73 104.35,85.73 109.59,89.92 "  style="fill:#ff0000ff;fill-rule:nonzero;" />
		<polygon points="107.49,111.35 105.39,117.92 110.64,113.73 104.35,113.73 109.59,117.92 "  style="fill:#ff0000ff;fill-rule:nonzero;" />
		<polygon points="107.49,118.35 105.39,124.92 110.64,120.73 104.35,120.73 109.59,124.92 "  style="fill:#ff0000ff;fill-rule:nonzero;" />
		<polygon points="107.49,125.35 105.39,131.92 110.64,127.73 104.35,127.73 109.59,131.92 "  style="fill:#ff0000ff;fill-rule:nonzero;" />
		<polygon points="107.49,146.35 105.39,152.92 110.64,148.73 104.35,148.73 109.59,152.92 "  style="fill:#ff0000ff;fill-rule:nonzero;" />
		<polygon points="107.49,174.35 105.39,180.92 110.64,176.73 104.35,176.73 109.59,180.92 "  style="fill:#ff0000ff;fill-rule:nonzero;" />
		<polygon points="107.49,181.35 105.39,187.92 110.64,183.73 104.35,183.73 109.59,187.92 "  style="fill:#ff0000ff;fill-rule:nonzero;" />
		<polygon points="107.49,188.35 105.39,194.92 110.64,190.73 104.35,190.73 109.59,194.92 "  style="fill:#ff0000ff;fill-rule:nonzero;" />
		<polygon points="107.49,216.35 105.39,222.92 110.64,218.73 104.35,218.73 109.59,222.92 "  style="fill:#ff0000ff;fill-rule:nonzero;" />
		<polygon points="107.49,230.35 105.39,236.92 110.64,232.73 104.35,232.73 109.59,236.92 "  style="fill:#ff0000ff;fill-rule:nonzero;" />
		<polygon points="107.49,244.35 105.39,250.92 110.64,246.73 104.35,246.73 109.59,250.92 "  style="fill:#ff0000ff;fill-rule:nonzero;" />
		<polygon points="107.49,251.35 105.39,257.92 110.64,253.73 104.35,253.73 109.59,257.92 "  style="fill:#ff0000ff;fill-rule:nonzero;" />
		<polygon points="107.49,258.35 105.39,264.92 110.64,260.73 104.35,260.73 109.59,264.92 "  style="fill:#ff0000ff;fill-rule:nonzero;" />
		<polygon points="107.49,265.35 105.39,271.92 110.64,267.73 104.35,267.73 109.59,271.92 "  style="fill:#ff0000ff;fill-rule:nonzero;" />
		<polygon points="107.49,272.35 105.39,278.92 110.64,274.73 104.35,274.73 109.59,278.92 "  style="fill:#ff0000ff;fill-rule:nonzero;" />
		<polygon points="114.49,48.35 112.39,54.92 117.64,50.73 111.35,50.73 116.59,54.92 "  style="fill:#ff0000ff;fill-rule:nonzero;" />
		<polygon points="114.49,76.35 112.39,82.92 117.64,78.73 111.35,78.73 116.59,82.92 "  style="fill:#ff0000ff;fill-rule:nonzero;" />
		<polygon points="114.49,83.35 112.39,89.92 117.64,85.73 111.35,85.73 116.59,89.92 "  style="fill:#ff0000ff;fill-rule:nonzero;" />
		<polygon points="114.49,97.35 112.39,103.92 117.64,99.73 111.35,99.73 116.59,103.92 "  style="fill:#ff0000ff;fill-rule:nonzero;" />
		<polygon points="114.49,104.35 112.39,110.92 117.64,106.73 111.35,106.73 116.59,110.92 "  style="fill:#ff0000ff;fill-rule:nonzero;" />
		<polygon points="114.49,125.35 112.39,131.92 117.64,127.73 111.35,127.73 116.59,131.92 "  style="fill:#ff0000ff;fill-rule:nonzero;" />
		<polygon points="114.49,132.35 112.39,138.92 117.64,134.73 111.35,134.73 116.59,138.92 "  style="fill:#ff0000ff;fill-rule:nonzero;" />
		<polygon points="114.49,146.35 112.39,152.92 117.64,148.73 111.35,148.73 116.59,152.92 "  style="fill:#ff0000ff;fill-rule:nonzero;" />
		<polygon points="114.49,153.35 112.39,159.92 117.64,155.73 111.35,155.73 116.59,159.92 "  style="fill:#ff0000ff;fill-rule:nonzero;" />
		<polygon points="114.49,160.35 112.39,166.92 117.64,162.73 111.35,162.73 116.59,166.92 "  style="fill:#ff0000ff;fill-rule:nonzero;" />
		<polygon points="114.49,167.35 112.39,173.92 117.64,169.73 111.35,169.73 116.59,173.92 "  style="fill:#ff0000ff;fill-rule:nonzero;" />
		<polygon points="114.49,174.35 112.39,180.92 117.64,176.73 111.35,176.73 116.59,180.92 "  style="fill:#ff0000ff;fill-rule:nonzero;" />
		<polygon points="114.49,181.35 112.39,187.92 117.64,183.73 111.35,183.73 116.59,187.92 "  style="fill:#ff0000ff;fill-rule:nonzero;" />
		<polygon points="114.49,188.35 112.39,194.92 117.64,190.73 111.35,190.73 116.59,194.92 "  style="fill:#ff0000ff;fill-rule:nonzero;" />
		<polygon points="114.49,209.35 112.39,215.92 117.64,211.73 111.35,211.73 116.59,215.92 "  style="fill:#ff0000ff;fill-rule:nonzero;" />
		<polygon points="114.49,237.35 112.39,243.92 117.64,239.73 111.35,239.73 116.59,243.92 "  style="fill:#ff0000ff;fill-rule:nonzero;" />
		<polygon points="114.49,244.35 112.39,250.92 117.64,246.73 111.35,246.73 116.59,250.92 "  style="fill:#ff0000ff;fill-rule:nonzero;" />
		<polygon points="114.49,258.35 112.39,264.92 117.64,260.73 111.35,260.73 116.59,264.92 "  style="fill:#ff0000ff;fill-rule:nonzero;" />
		<polygon points="114.49,272.35 112.39,278.92 117.64,274.73 111.35,274.73 116.59,278.92 "  style="fill:#ff0000ff;fill-rule:nonzero;" />
		<polygon points="121.49,34.35 119.39,40.92 124.64,36.73 118.35,36.73 123.59,40.92 "  style="fill:#ff0000ff;fill-rule:nonzero;" />
		<polygon points="121.49,41.35 119.39,47.92 124.64,43.73 118.35,43.73 123.59,47.92 "  style="fill:#ff0000ff;fill-rule:nonzero;" />
		<polygon points="121.49,55.35 119.39,61.92 124.64,57.73 118.35,57.73 123.59,61.92 "  style="fill:#ff0000ff;fill-rule:nonzero;" />
		<polygon points="121.49,62.35 119.39,68.92 124.64,64.73 118.35,64.73 123.59,68.92 "  style="fill:#ff0000ff;fill-rule:nonzero;" />
		<polygon points="121.49,69.35 119.39,75.92 124.64,71.73 118.35,71.73 123.59,75.92 "  style="fill:#ff0000ff;fill-rule:nonzero;" />
		<polygon points="121.49,83.35 119.39,89.92 124.64,85.73 118.35,85.73 123.59,89.92 "  style="fill:#ff0000ff;fill-rule:nonzero;" />
		<polygon points="121.49,104.35 119.39,110.92 124.64,106.73 118.35,106.73 123.59,110.92 "  style="fill:#ff0000ff;fill-rule:nonzero;" />
		<polygon points="121.49,111.35 119.39,117.92 124.64,113.73 118.35,113.73 123.59,117.92 "  style="fill:#ff0000ff;fill-rule:nonzero;" />
		<polygon points="121.49,118.35 119.39,124.92 124.64,120.73 118.35,120.73 123.59,124.92 "  style="fill:#ff0000ff;fill-rule:nonzero;" />
		<polygon points="121.49,125.35 119.39,131.92 124.64,127.73 118.35,127.73 123.59,131.92 "  style="fill:#ff0000ff;fill-rule:nonzero;" />
		<polygon points="121.49,139.35 119.39,145.92 124.64,141.73 118.35,141.73 123.59,145.92 "  style="fill:#ff0000ff;fill-rule:nonzero;" />
		<polygon points="121.49,174.35 119.39,180.92 124.64,176.73 118.35,176.73 123.59,180.92 "  style="fill:#ff0000ff;fill-rule:nonzero;" />
		<polygon points="121.49,188.35 119.39,194.92 124.64,190.73 118.35,190.73 123.59,194.92 "  style="fill:#ff0000ff;fill-rule:nonzero;" />
		<polygon points="121.49,195.35 119.39,201.92 124.64,197.73 118.35,197.73 123.59,201.92 "  style="fill:#ff0000ff;fill-rule:nonzero;" />
		<polygon points="121.49,202.35 119.39,208.92 124.64,204.73 118.35,204.73 123.59,208.92 "  style="fill:#ff0000ff;fill-rule:nonzero;" />
		<polygon points="121.49,223.35 119.39,229.92 124.64,225.73 118.35,225.73 123.59,229.92 "  style="fill:#ff0000ff;fill-rule:nonzero;" />
		<polygon points="121.49,244.35 119.39,250.92 124.64,246.73 118.35,246.73 123.59,250.92 "  style="fill:#ff0000ff;fill-rule:nonzero;" />
		<polygon points="121.49,251.35 119.39,257.92 124.64,253.73 118.35,253.73 123.59,257.92 "  style="fill:#ff0000ff;fill-rule:nonzero;" />
		<polygon points="121.49,272.35 119.39,278.92 124.64,274.73 118.35,274.73 123.59,278.92 "  style="fill:#ff0000ff;fill-rule:nonzero;" />
		<polygon points="128.49,20.35 126.39,26.92 131.64,22.73 125.35,22.73 130.59,26.92 "  style="fill:#ff0000ff;fill-rule:nonzero;" />
		<polygon points="128.49,34.35 126.39,40.92 131.64,36.73 125.35,36.73 130.59,40.92 "  style="fill:#ff0000ff;fill-rule:nonzero;" />
		<polygon points="128.49,76.35 126.39,82.92 131.64,78.73 125.35,78.73 130.59,82.92 "  style="fill:#ff0000ff;fill-rule:nonzero;" />
		<polygon points="128.49,83.35 126.39,89.92 131.64,85.73 125.35,85.73 130.59,89.92 "  style="fill:#ff0000ff;fill-rule:nonzero;" />
		<polygon points="128.49,90.35 126.39,96.92 131.64,92.73 125.35,92.73 130.59,96.92 "  style="fill:#ff0000ff;fill-rule:nonzero;" />
		<polygon points="128.49,104.35 126.39,110.92 131.64,106.73 125.35,106.73 130.59,110.92 "  style="fill:#ff0000ff;fill-rule:nonzero;" />
		<polygon points="128.49,118.35 126.39,124.92 131.64,120.73 125.35,120.73 130.59,124.92 "  style="fill:#ff0000ff;fill-rule:nonzero;" />
		<polygon points="128.49,125.35 126.39,131.92 131.64,127.73 125.35,127.73 130.59,131.92 "  style="fill:#ff0000ff;fill-rule:nonzero;" />
		<polygon points="128.49,132.35 126.39,138.92 131.64,134.73 125.35,134.73 130.59,138.92 "  style="fill:#ff0000ff;fill-rule:nonzero;" />
		<polygon points="128.49,146.35 126.39,152.92 131.64,148.73 125.35,148.73 130.59,152.92 "  style="fill:#ff0000ff;fill-rule:nonzero;" />
		<polygon points="128.49,160.35 126.39,166.92 131.64,162.73 125.35,162.73 130.59,166.92 "  style="fill:#ff0000ff;fill-rule:nonzero;" />
		<polygon points="128.49,174.35 126.39,180.92 131.64,176.73 125.35,176.73 130.59,180.92 "  style="fill:#ff0000ff;fill-rule:nonzero;" />
		<polygon points="128.49,181.35 126.39,187.92 131.64,183.73 125.35,183.73 130.59,187.92 "  style="fill:#ff0000ff;fill-rule:nonzero;" />
		<polygon points="128.49,202.35 126.39,208.92 131.64,204.73 125.35,204.73 130.59,208.92 "  style="fill:#ff0000ff;fill-rule:nonzero;" />
		<polygon points="128.49,209.35 126.39,215.92 131.64,211.73 125.35,211.73 130.59,215.92 "  style="fill:#ff0000ff;fill-rule:nonzero;" />
		<polygon points="128.49,237.35 126.39,243.92 131.64,239.73 125.35,239.73 130.59,243.92 "  style="fill:#ff0000ff;fill-rule:nonzero;" />
		<polygon points="128.49,258.35 126.39,264.92 131.64,260.73 125.35,260.73 130.59,264.92 "  style="fill:#ff0000ff;fill-rule:nonzero;" />
		<polygon points="135.49,34.35 133.39,40.92 138.64,36.73 132.35,36.73 137.59,40.92 "  style="fill:#ff0000ff;fill-rule:nonzero;" />
		<polygon points="135.49,62.35 133.39,68.92 138.64,64.73 132.35,64.73 137.59,68.92 "  style="fill:#ff0000ff;fill-rule:nonzero;" />
		<polygon points="135.49,76.35 133.39,82.92 138.64,78.73 132.35,78.73 137.59,82.92 "  style="fill:#ff0000ff;fill-rule:nonzero;" />
		<polygon points="135.49,111.35 133.39,117.92 138.64,113.73 132.35,113.73 137.59,117.92 "  style="fill:#ff0000ff;fill-rule:nonzero;" />
		<polygon points="135.49,125.35 133.39,131.92 138.64,127.73 132.35,127.73 137.59,131.92 "  style="fill:#ff0000ff;fill-rule:nonzero;" />
		<polygon points="135.49,132.35 133.39,138.92 138.64,134.73 132.35,134.73 137.59,138.92 "  style="fill:#ff0000ff;fill-rule:nonzero;" />
		<polygon points="135.49,146.35 133.39,152.92 138.64,148.73 132.35,148.73 137.59,152.92 "  style="fill:#ff0000ff;fill-rule:nonzero;" />
		<polygon points="135.49,153.35 133.39,159.92 138.64,155.73 132.35,155.73 137.59,159.92 "  style="fill:#ff0000ff;fill-rule:nonzero;" />
		<polygon points="135.49,160.35 133.39,166.92 138.64,162.73 132.35,162.73 137.59,166.92 "  style="fill:#ff0000ff;fill-rule:nonzero;" />
		<polygon points="135.49,167.35 133.39,173.92 138.64,169.73 132.35,169.73 137.59,173.92 "  style="fill:#ff0000ff;fill-rule:nonzero;" />
		<polygon points="135.49,174.35 133.39,180.92 138.64,176.73 132.35,176.73 137.59,180.92 "  style="fill:#ff0000ff;fill-rule:nonzero;" />
		<polygon points="135.49,195.35 133.39,201.92 138.64,197.73 132.35,197.73 137.59,201.92 "  style="fill:#ff0000ff;fill-rule:nonzero;" />
		<polygon points="135.49,216.35 133.39,222.92 138.64,218.73 132.35,218.73 137.59,222.92 "  style="fill:#ff0000ff;fill-rule:nonzero;" />
		<polygon points="135.49,223.35 133.39,229.92 138.64,225.73 132.35,225.73 137.59,229.92 "  style="fill:#ff0000ff;fill-rule:nonzero;" />
		<polygon points="135.49,230.35 133.39,236.92 138.64,232.73 132.35,232.73 137.59,236.92 "  style="fill:#ff0000ff;fill-rule:nonzero;" />
		<polygon points="135.49,244.35 133.39,250.92 138.64,246.73 132.35,246.73 137.59,250.92 "  style="fill:#ff0000ff;fill-rule:nonzero;" />
		<polygon points="135.49,272.35 133.39,278.92 138.64,274.73 132.35,274.73 137.59,278.92 "  style="fill:#ff0000ff;fill-rule:nonzero;" />
		<polygon points="142.49,27.35 140.39,33.92 145.64,29.73 139.35,29.73 144.59,33.92 "  style="fill:#ff0000ff;fill-rule:nonzero;" />
		<polygon points="142.49,55.35 140.39,61.92 145.64,57.73 139.35,57.73 144.59,61.92 "  style="fill:#ff0000ff;fill-rule:nonzero;" />
		<polygon points="142.49,69.35 140.39,75.92 145.64,71.73 139.35,71.73 144.59,75.92 "  style="fill:#ff0000ff;fill-rule:nonzero;" />
		<polygon points="142.49,104.35 140.39,110.92 145.64,106.73 139.35,106.73 144.59,110.92 "  style="fill:#ff0000ff;fill-rule:nonzero;" />
		<polygon points="142.49,118.35 140.39,124.92 145.64,120.73 139.35,120.73 144.59,124.92 "  style="fill:#ff0000ff;fill-rule:nonzero;" />
		<polygon points="142.49,125.35 140.39,131.92 145.64,127.73 139.35,127.73 144.59,131.92 "  style="fill:#ff0000ff;fill-rule:nonzero;" />
		<polygon points="142.49,132.35 140.39,138.92 145.64,134.73 139.35,134.73 144.59,138.92 "  style="fill:#ff0000ff;fill-rule:nonzero;" />
		<polygon points="142.49,139.35 140.39,145.92 145.64,141.73 139.35,141.73 144.59,145.92 "  style="fill:#ff0000ff;fill-rule:nonzero;" />
		<polygon points="142.49,167.35 140.39,173.92 145.64,169.73 139.35,169.73 144.59,173.92 "  style="fill:#ff0000ff;fill-rule:nonzero;" />
		<polygon points="142.49,174.35 140.39,180.92 145.64,176.73 139.35,176.73 144.59,180.92 "  style="fill:#ff0000ff;fill-rule:nonzero;" />
		<polygon points="142.49,181.35 140.39,187.92 145.64,183.73 139.35,183.73 144.59,187.92 "  style="fill:#ff0000ff;fill-rule:nonzero;" />
		<polygon points="142.49,188.35 140.39,194.92 145.64,190.73 139.35,190.73 144.59,194.92 "  style="fill:#ff0000ff;fill-rule:nonzero;" />
		<polygon points="142.49,202.35 140.39,208.92 145.64,204.73 139.35,204.73 144.59,208.92 "  style="fill:#ff0000ff;fill-rule:nonzero;" />
		<polygon points="142.49,209.35 140.39,215.92 145.64,211.73 139.35,211.73 144.59,215.92 "  style="fill:#ff0000ff;fill-rule:nonzero;" />
		<polygon points="142.49,216.35 140.39,222.92 145.64,218.73 139.35,218.73 144.59,222.92 "  style="fill:#ff0000ff;fill-rule:nonzero;" />
		<polygon points="142.49,223.35 140.39,229.92 145.64,225.73 139.35,225.73 144.59,229.92 "  style="fill:#ff0000ff;fill-rule:nonzero;" />
		<polygon points="142.49,244.35 140.39,250.92 145.64,246.73 139.35,246.73 144.59,250.92 "  style="fill:#ff0000ff;fill-rule:nonzero;" />
		<polygon points="149.49,27.35 147.39,33.92 152.64,29.73 146.35,29.73 151.59,33.92 "  style="fill:#ff0000ff;fill-rule:nonzero;" />
		<polygon points="149.49,41.35 147.39,47.92 152.64,43.73 146.35,43.73 151.59,47.92 "  style="fill:#ff0000ff;fill-rule:nonzero;" />
		<polygon points="149.49,55.35 147.39,61.92 152.64,57.73 146.35,57.73 151.59,61.92 "  style="fill:#ff0000ff;fill-rule:nonzero;" />
		<polygon points="149.49,62.35 147.39,68.92 152.64,64.73 146.35,64.73 151.59,68.92 "  style="fill:#ff0000ff;fill-rule:nonzero;" />
		<polygon points="149.49,76.35 147.39,82.92 152.64,78.73 146.35,78.73 151.59,82.92 "  style="fill:#ff0000ff;fill-rule:nonzero;" />
		<polygon points="149.49,90.35 147.39,96.92 152.64,92.73 146.35,92.73 151.59,96.92 "  style="fill:#ff0000ff;fill-rule:nonzero;" />
		<polygon points="149.49,97.35 147.39,103.92 152.64,99.73 146.35,99.73 151.59,103.92 "  style="fill:#ff0000ff;fill-rule:nonzero;" />
		<polygon points="149.49,125.35 147.39,131.92 152.64,127.73 146.35,127.73 151.59,131.92 "  style="fill:#ff0000ff;fill-rule:nonzero;" />
		<polygon points="149.49,132.35 147.39,138.92 152.64,134.73 146.35,134.73 151.59,138.92 "  style="fill:#ff0000ff;fill-rule:nonzero;" />
		<polygon points="149.49,181.35 147.39,187.92 152.64,183.73 146.35,183.73 151.59,187.92 "  style="fill:#ff0000ff;fill-rule:nonzero;" />
		<polygon points="149.49,202.35 147.39,208.92 152.64,204.73 146.35,204.73 151.59,208.92 "  style="fill:#ff0000ff;fill-rule:nonzero;" />
		<polygon points="149.49,209.35 147.39,215.92 152.64,211.73 146.35,211.73 151.59,215.92 "  style="fill:#ff0000ff;fill-rule:nonzero;" />
		<polygon points="149.49,216.35 147.39,222.92 152.64,218.73 146.35,218.73 151.59,222.92 "  style="fill:#ff0000ff;fill-rule:nonzero;" />
		<polygon points="149.49,223.35 147.39,229.92 152.64,225.73 146.35,225.73 151.59,229.92 "  style="fill:#ff0000ff;fill-rule:nonzero;" />
		<polygon points="149.49,230.35 147.39,236.92 152.64,232.73 146.35,232.73 151.59,236.92 "  style="fill:#ff0000ff;fill-rule:nonzero;" />
		<polygon points="149.49,251.35 147.39,257.92 152.64,253.73 146.35,253.73 151.59,257.92 "  style="fill:#ff0000ff;fill-rule:nonzero;" />
		<polygon points="149.49,258.35 147.39,264.92 152.64,260.73 146.35,260.73 151.59,264.92 "  style="fill:#ff0000ff;fill-rule:nonzero;" />
		<polygon points="149.49,265.35 147.39,271.92 152.64,267.73 146.35,267.73 151.59,271.92 "  style="fill:#ff0000ff;fill-rule:nonzero;" />
		<polygon points="156.49,27.35 154.39,33.92 159.64,29.73 153.35,29.73 158.59,33.92 "  style="fill:#ff0000ff;fill-rule:nonzero;" />
		<polygon points="156.49,41.35 154.39,47.92 159.64,43.73 153.35,43.73 158.59,47.92 "  style="fill:#ff0000ff;fill-rule:nonzero;" />
		<polygon points="156.49,48.35 154.39,54.92 159.64,50.73 153.35,50.73 158.59,54.92 "  style="fill:#ff0000ff;fill-rule:nonzero;" />
		<polygon points="156.49,83.35 154.39,89.92 159.64,85.73 153.35,85.73 158.59,89.92 "  style="fill:#ff0000ff;fill-rule:nonzero;" />
		<polygon points="156.49,90.35 154.39,96.92 159.64,92.73 153.35,92.73 158.59,96.92 "  style="fill:#ff0000ff;fill-rule:nonzero;" />
		<polygon points="156.49,97.35 154.39,103.92 159.64,99.73 153.35,99.73 158.59,103.92 "  style="fill:#ff0000ff;fill-rule:nonzero;" />
		<polygon points="156.49,167.35 154.39,173.92 159.64,169.73 153.35,169.73 158.59,173.92 "  style="fill:#ff0000ff;fill-rule:nonzero;" />
		<polygon points="156.49,174.35 154.39,180.92 159.64,176.73 153.35,176.73 158.59,180.92 "  style="fill:#ff0000ff;fill-rule:nonzero;" />
		<polygon points="156.49,188.35 154.39,194.92 159.64,190.73 153.35,190.73 158.59,194.92 "  style="fill:#ff0000ff;fill-rule:nonzero;" />
		<polygon points="156.49,202.35 154.39,208.92 159.64,204.73 153.35,204.73 158.59,208.92 "  style="fill:#ff0000ff;fill-rule:nonzero;" />
		<polygon points="156.49,209.35 154.39,215.92 159.64,211.73 153.35,211.73 158.59,215.92 "  style="fill:#ff0000ff;fill-rule:nonzero;" />
		<polygon points="156.49,216.35 154.39,222.92 159.64,218.73 153.35,218.73 158.59,222.92 "  style="fill:#ff0000ff;fill-rule:nonzero;" />
		<polygon points="156.49,230.35 154.39,236.92 159.64,232.73 153.35,232.73 158.59,236.92 "  style="fill:#ff0000ff;fill-rule:nonzero;" />
		<polygon points="156.49,237.35 154.39,243.92 159.64,239.73 153.35,239.73 158.59,243.92 "  style="fill:#ff0000ff;fill-rule:nonzero;" />
		<polygon points="156.49,244.35 154.39,250.92 159.64,246.73 153.35,246.73 158.59,250.92 "  style="fill:#ff0000ff;fill-rule:nonzero;" />
		<polygon points="156.49,258.35 154.39,264.92 159.64,260.73 153.35,260.73 158.59,264.92 "  style="fill:#ff0000ff;fill-rule:nonzero;" />
		<polygon points="156.49,272.35 154.39,278.92 159.64,274.73 153.35,274.73 158.59,278.92 "  style="fill:#ff0000ff;fill-rule:nonzero;" />
		<polygon points="163.49,27.35 161.39,33.92 166.64,29.73 160.35,29.73 165.59,33.92 "  style="fill:#ff0000ff;fill-rule:nonzero;" />
		<polygon points="163.49,41.35 161.39,47.92 166.64,43.73 160.35,43.73 165.59,47.92 "  style="fill:#ff0000ff;fill-rule:nonzero;" />
		<polygon points="163.49,55.35 161.39,61.92 166.64,57.73 160.35,57.73 165.59,61.92 "  style="fill:#ff0000ff;fill-rule:nonzero;" />
		<polygon points="163.49,62.35 161.39,68.92 166.64,64.73 160.35,64.73 165.59,68.92 "  style="fill:#ff0000ff;fill-rule:nonzero;" />
		<polygon points="163.49,69.35 161.39,75.92 166.64,71.73 160.35,71.73 165.59,75.92 "  style="fill:#ff0000ff;fill-rule:nonzero;" />
		<polygon points="163.49,104.35 161.39,110.92 166.64,106.73 160.35,106.73 165.59,110.92 "  style="fill:#ff0000ff;fill-rule:nonzero;" />
		<polygon points="163.49,146.35 161.39,152.92 166.64,148.73 160.35,148.73 165.59,152.92 "  style="fill:#ff0000ff;fill-rule:nonzero;" />
		<polygon points="163.49,153.35 161.39,159.92 166.64,155.73 160.35,155.73 165.59,159.92 "  style="fill:#ff0000ff;fill-rule:nonzero;" />
		<polygon points="163.49,160.35 161.39,166.92 166.64,162.73 160.35,162.73 165.59,166.92 "  style="fill:#ff0000ff;fill-rule:nonzero;" />
		<polygon points="163.49,167.35 161.39,173.92 166.64,169.73 160.35,169.73 165.59,173.92 "  style="fill:#ff0000ff;fill-rule:nonzero;" />
		<polygon points="163.49,216.35 161.39,222.92 166.64,218.73 160.35,218.73 165.59,222.92 "  style="fill:#ff0000ff;fill-rule:nonzero;" />
		<polygon points="163.49,265.35 161.39,271.92 166.64,267.73 160.35,267.73 165.59,271.92 "  style="fill:#ff0000ff;fill-rule:nonzero;" />
		<polygon points="170.49,20.35 168.39,26.92 173.64,22.73 167.35,22.73 172.59,26.92 "  style="fill:#ff0000ff;fill-rule:nonzero;" />
		<polygon points="170.49,34.35 168.39,40.92 173.64,36.73 167.35,36.73 172.59,40.92 "  style="fill:#ff0000ff;fill-rule:nonzero;" />
		<polygon points="170.49,48.35 168.39,54.92 173.64,50.73 167.35,50.73 172.59,54.92 "  style="fill:#ff0000ff;fill-rule:nonzero;" />
		<polygon points="170.49,55.35 168.39,61.92 173.64,57.73 167.35,57.73 172.59,61.92 "  style="fill:#ff0000ff;fill-rule:nonzero;" />
		<polygon points="170.49,69.35 168.39,75.92 173.64,71.73 167.35,71.73 172.59,75.92 "  style="fill:#ff0000ff;fill-rule:nonzero;" />
		<polygon points="170.49,76.35 168.39,82.92 173.64,78.73 167.35,78.73 172.59,82.92 "  style="fill:#ff0000ff;fill-rule:nonzero;" />
		<polygon points="170.49,104.35 168.39,110.92 173.64,106.73 167.35,106.73 172.59,110.92 "  style="fill:#ff0000ff;fill-rule:nonzero;" />
		<polygon points="170.49,118.35 168.39,124.92 173.64,120.73 167.35,120.73 172.59,124.92 "  style="fill:#ff0000ff;fill-rule:nonzero;" />
		<polygon points="170.49,132.35 168.39,138.92 173.64,134.73 167.35,134.73 172.59,138.92 "  style="fill:#ff0000ff;fill-rule:nonzero;" />
		<polygon points="170.49,139.35 168.39,145.92 173.64,141.73 167.35,141.73 172.59,145.92 "  style="fill:#ff0000ff;fill-rule:nonzero;" />
		<polygon points="170.49,153.35 168.39,159.92 173.64,155.73 167.35,155.73 172.59,159.92 "  style="fill:#ff0000ff;fill-rule:nonzero;" />
		<polygon points="170.49,160.35 168.39,166.92 173.64,162.73 167.35,162.73 172.59,166.92 "  style="fill:#ff0000ff;fill-rule:nonzero;" />
		<polygon points="170.49,167.35 168.39,173.92 173.64,169.73 167.35,169.73 172.59,173.92 "  style="fill:#ff0000ff;fill-rule:nonzero;" />
		<polygon points="170.49,181.35 168.39,187.92 173.64,183.73 167.35,183.73 172.59,187.92 "  style="fill:#ff0000ff;fill-rule:nonzero;" />
		<polygon points="170.49,188.35 168.39,194.92 173.64,190.73 167.35,190.73 172.59,194.92 "  style="fill:#ff0000ff;fill-rule:nonzero;" />
		<polygon points="170.49,202.35 168.39,208.92 173.64,204.73 167.35,204.73 172.59,208.92 "  style="fill:#ff0000ff;fill-rule:nonzero;" />
		<polygon points="170.49,209.35 168.39,215.92 173.64,211.73 167.35,211.73 172.59,215.92 "  style="fill:#ff0000ff;fill-rule:nonzero;" />
		<polygon points="170.49,216.35 168.39,222.92 173.64,218.73 167.35,218.73 172.59,222.92 "  style="fill:#ff0000ff;fill-rule:nonzero;" />
		<polygon points="170.49,237.35 168.39,243.92 173.64,239.73 167.35,239.73 172.59,243.92 "  style="fill:#ff0000ff;fill-rule:nonzero;" />
		<polygon points="170.49,244.35 168.39,250.92 173.64,246.73 167.35,246.73 172.59,250.92 "  style="fill:#ff0000ff;fill-rule:nonzero;" />
		<polygon points="170.49,258.35 168.39,264.92 173.64,260.73 167.35,260.73 172.59,264.92 "  style="fill:#ff0000ff;fill-rule:nonzero;" />
		<polygon points="170.49,265.35 168.39,271.92 173.64,267.73 167.35,267.73 172.59,271.92 "  style="fill:#ff0000ff;fill-rule:nonzero;" />
		<polygon points="177.49,41.35 175.39,47.92 180.64,43.73 174.35,43.73 179.59,47.92 "  style="fill:#ff0000ff;fill-rule:nonzero;" />
		<polygon points="177.49,48.35 175.39,54.92 180.64,50.73 174.35,50.73 179.59,54.92 "  style="fill:#ff0000ff;fill-rule:nonzero;" />
		<polygon points="177.49,62.35 175.39,68.92 180.64,64.73 174.35,64.73 179.59,68.92 "  style="fill:#ff0000ff;fill-rule:nonzero;" />
		<polygon points="177.49,104.35 175.39,110.92 180.64,106.73 174.35,106.73 179.59,110.92 "  style="fill:#ff0000ff;fill-rule:nonzero;" />
		<polygon points="177.49,111.35 175.39,117.92 180.64,113.73 174.35,113.73 179.59,117.92 "  style="fill:#ff0000ff;fill-rule:nonzero;" />
		<polygon points="177.49,125.35 175.39,131.92 180.64,127.73 174.35,127.73 179.59,131.92 "  style="fill:#ff0000ff;fill-rule:nonzero;" />
		<polygon points="177.49,139.35 175.39,145.92 180.64,141.73 174.35,141.73 179.59,145.92 "  style="fill:#ff0000ff;fill-rule:nonzero;" />
		<polygon points="177.49,181.35 175.39,187.92 180.64,183.73 174.35,183.73 179.59,187.92 "  style="fill:#ff0000ff;fill-rule:nonzero;" />
		<polygon points="177.49,188.35 175.39,194.92 180.64,190.73 174.35,190.73 179.59,194.92 "  style="fill:#ff0000ff;fill-rule:nonzero;" />
		<polygon points="177.49,244.35 175.39,250.92 180.64,246.73 174.35,246.73 179.59,250.92 "  style="fill:#ff0000ff;fill-rule:nonzero;" />
		<polygon points="177.49,265.35 175.39,271.92 180.64,267.73 174.35,267.73 179.59,271.92 "  style="fill:#ff0000ff;fill-rule:nonzero;" />
		<polygon points="177.49,272.35 175.39,278.92 180.64,274.73 174.35,274.73 179.59,278.92 "  style="fill:#ff0000ff;fill-rule:nonzero;" />
		<polygon points="184.49,20.35 182.39,26.92 187.64,22.73 181.35,22.73 186.59,26.92 "  style="fill:#ff0000ff;fill-rule:nonzero;" />
		<polygon points="184.49,27.35 182.39,33.92 187.64,29.73 181.35,29.73 186.59,33.92 "  style="fill:#ff0000ff;fill-rule:nonzero;" />
		<polygon points="184.49,41.35 182.39,47.92 187.64,43.73 181.35,43.73 186.59,47.92 "  style="fill:#ff0000ff;fill-rule:nonzero;" />
		<polygon points="184.49,83.35 182.39,89.92 187.64,85.73 181.35,85.73 186.59,89.92 "  style="fill:#ff0000ff;fill-rule:nonzero;" />
		<polygon points="184.49,97.35 182.39,103.92 187.64,99.73 181.35,99.73 186.59,103.92 "  style="fill:#ff0000ff;fill-rule:nonzero;" />
		<polygon points="184.49,104.35 182.39,110.92 187.64,106.73 181.35,106.73 186.59,110.92 "  style="fill:#ff0000ff;fill-rule:nonzero;" />
		<polygon points="184.49,118.35 182.39,124.92 187.64,120.73 181.35,120.73 186.59,124.92 "  style="fill:#ff0000ff;fill-rule:nonzero;" />
		<polygon points="184.49,125.35 182.39,131.92 187.64,127.73 181.35,127.73 186.59,131.92 "  style="fill:#ff0000ff;fill-rule:nonzero;" />
		<polygon points="184.49,132.35 182.39,138.92 187.64,134.73 181.35,134.73 186.59,138.92 "  style="fill:#ff0000ff;fill-rule:nonzero;" />
		<polygon points="184.49,139.35 182.39,145.92 187.64,141.73 181.35,141.73 186.59,145.92 "  style="fill:#ff0000ff;fill-rule:nonzero;" />
		<polygon points="184.49,167.35 182.39,173.92 187.64,169.73 181.35,169.73 186.59,173.92 "  style="fill:#ff0000ff;fill-rule:nonzero;" />
		<polygon points="184.49,174.35 182.39,180.92 187.64,176.73 181.35,176.73 186.59,180.92 "  style="fill:#ff0000ff;fill-rule:nonzero;" />
		<polygon points="184.49,188.35 182.39,194.92 187.64,190.73 181.35,190.73 186.59,194.92 "  style="fill:#ff0000ff;fill-rule:nonzero;" />
		<polygon points="184.49,202.35 182.39,208.92 187.64,204.73 181.35,204.73 186.59,208.92 "  style="fill:#ff0000ff;fill-rule:nonzero;" />
		<polygon points="184.49,251.35 182.39,257.92 187.64,253.73 181.35,253.73 186.59,257.92 "  style="fill:#ff0000ff;fill-rule:nonzero;" />
		<polygon points="184.49,258.35 182.39,264.92 187.64,260.73 181.35,260.73 186.59,264.92 "  style="fill:#ff0000ff;fill-rule:nonzero;" />
		<polygon points="184.49,265.35 182.39,271.92 187.64,267.73 181.35,267.73 186.59,271.92 "  style="fill:#ff0000ff;fill-rule:nonzero;" />
		<polygon points="191.49,20.35 189.39,26.92 194.64,22.73 188.35,22.73 193.59,26.92 "  style="fill:#ff0000ff;fill-rule:nonzero;" />
		<polygon points="191.49,41.35 189.39,47.92 194.64,43.73 188.35,43.73 193.59,47.92 "  style="fill:#ff0000ff;fill-rule:nonzero;" />
		<polygon points="191.49,48.35 189.39,54.92 194.64,50.73 188.35,50.73 193.59,54.92 "  style="fill:#ff0000ff;fill-rule:nonzero;" />
		<polygon points="191.49,62.35 189.39,68.92 194.64,64.73 188.35,64.73 193.59,68.92 "  style="fill:#ff0000ff;fill-rule:nonzero;" />
		<polygon points="191.49,97.35 189.39,103.92 194.64,99.73 188.35,99.73 193.59,103.92 "  style="fill:#ff0000ff;fill-rule:nonzero;" />
		<polygon points="191.49,118.35 189.39,124.92 194.64,120.73 188.35,120.73 193.59,124.92 "  style="fill:#ff0000ff;fill-rule:nonzero;" />
		<polygon points="191.49,125.35 189.39,131.92 194.64,127.73 188.35,127.73 193.59,131.92 "  style="fill:#ff0000ff;fill-rule:nonzero;" />
		<polygon points="191.49,132.35 189.39,138.92 194.64,134.73 188.35,134.73 193.59,138.92 "  style="fill:#ff0000ff;fill-rule:nonzero;" />
		<polygon points="191.49,139.35 189.39,145.92 194.64,141.73 188.35,141.73 193.59,145.92 "  style="fill:#ff0000ff;fill-rule:nonzero;" />
		<polygon points="191.49,153.35 189.39,159.92 194.64,155.73 188.35,155.73 193.59,159.92 "  style="fill:#ff0000ff;fill-rule:nonzero;" />
		<polygon points="191.49,167.35 189.39,173.92 194.64,169.73 188.35,169.73 193.59,173.92 "  style="fill:#ff0000ff;fill-rule:nonzero;" />
		<polygon points="191.49,181.35 189.39,187.92 194.64,183.73 188.35,183.73 193.59,187.92 "  style="fill:#ff0000ff;fill-rule:nonzero;" />
		<polygon points="191.49,188.35 189.39,194.92 194.64,190.73 188.35,190.73 193.59,194.92 "  style="fill:#ff0000ff;fill-rule:nonzero;" />
		<polygon points="191.49,195.35 189.39,201.92 194.64,197.73 188.35,197.73 193.59,201.92 "  style="fill:#ff0000ff;fill-rule:nonzero;" />
		<polygon points="191.49,202.35 189.39,208.92 194.64,204.73 188.35,204.73 193.59,208.92 "  style="fill:#ff0000ff;fill-rule:nonzero;" />
		<polygon points="191.49,230.35 189.39,236.92 194.64,232.73 188.35,232.73 193.59,236.92 "  style="fill:#ff0000ff;fill-rule:nonzero;" />
		<polygon points="191.49,258.35 189.39,264.92 194.64,260.73 188.35,260.73 193.59,264.92 "  style="fill:#ff0000ff;fill-rule:nonzero;" />
		<polygon points="191.49,272.35 189.39,278.92 194.64,274.73 188.35,274.73 193.59,278.92 "  style="fill:#ff0000ff;fill-rule:nonzero;" />
		<polygon points="198.49,27.35 196.39,33.92 201.64,29.73 195.35,29.73 200.59,33.92 "  style="fill:#ff0000ff;fill-rule:nonzero;" />
		<polygon points="198.49,55.35 196.39,61.92 201.64,57.73 195.35,57.73 200.59,61.92 "  style="fill:#ff0000ff;fill-rule:nonzero;" />
		<polygon points="198.49,69.35 196.39,75.92 201.64,71.73 195.35,71.73 200.59,75.92 "  style="fill:#ff0000ff;fill-rule:nonzero;" />
		<polygon points="198.49,90.35 196.39,96.92 201.64,92.73 195.35,92.73 200.59,96.92 "  style="fill:#ff0000ff;fill-rule:nonzero;" />
		<polygon points="198.49,97.35 196.39,103.92 201.64,99.73 195.35,99.73 200.59,103.92 "  style="fill:#ff0000ff;fill-rule:nonzero;" />
		<polygon points="198.49,104.35 196.39,110.92 201.64,106.73 195.35,106.73 200.59,110.92 "  style="fill:#ff0000ff;fill-rule:nonzero;" />
		<polygon points="198.49,118.35 196.39,124.92 201.64,120.73 195.35,120.73 200.59,124.92 "  style="fill:#ff0000ff;fill-rule:nonzero;" />
		<polygon points="198.49,132.35 196.39,138.92 201.64,134.73 195.35,134.73 200.59,138.92 "  style="fill:#ff0000ff;fill-rule:nonzero;" />
		<polygon points="198.49,174.35 196.39,180.92 201.64,176.73 195.35,176.73 200.59,180.92 "  style="fill:#ff0000ff;fill-rule:nonzero;" />
		<polygon points="198.49,188.35 196.39,194.92 201.64,190.73 195.35,190.73 200.59,194.92 "  style="fill:#ff0000ff;fill-rule:nonzero;" />
		<polygon points="198.49,202.35 196.39,208.92 201.64,204.73 195.35,204.73 200.59,208.92 "  style="fill:#ff0000ff;fill-rule:nonzero;" />
		<polygon points="198.49,216.35 196.39,222.92 201.64,218.73 195.35,218.73 200.59,222.92 "  style="fill:#ff0000ff;fill-rule:nonzero;" />
		<polygon points="198.49,230.35 196.39,236.92 201.64,232.73 195.35,232.73 200.59,236.92 "  style="fill:#ff0000ff;fill-rule:nonzero;" />
		<polygon points="198.49,237.35 196.39,243.92 201.64,239.73 195.35,239.73 200.59,243.92 "  style="fill:#ff0000ff;fill-rule:nonzero;" />
		<polygon points="198.49,244.35 196.39,250.92 201.64,246.73 195.35,246.73 200.59,250.92 "  style="fill:#ff0000ff;fill-rule:nonzero;" />
		<polygon points="205.49,27.35 203.39,33.92 208.64,29.73 202.35,29.73 207.59,33.92 "  style="fill:#ff0000ff;fill-rule:nonzero;" />
		<polygon points="205.49,48.35 203.39,54.92 208.64,50.73 202.35,50.73 207.59,54.92 "  style="fill:#ff0000ff;fill-rule:nonzero;" />
		<polygon points="205.49,62.35 203.39,68.92 208.64,64.73 202.35,64.73 207.59,68.92 "  style="fill:#ff0000ff;fill-rule:nonzero;" />
		<polygon points="205.49,69.35 203.39,75.92 208.64,71.73 202.35,71.73 207.59,75.92 "  style="fill:#ff0000ff;fill-rule:nonzero;" />
		<polygon points="205.49,83.35 203.39,89.92 208.64,85.73 202.35,85.73 207.59,89.92 "  style="fill:#ff0000ff;fill-rule:nonzero;" />
		<polygon points="205.49,104.35 203.39,110.92 208.64,106.73 202.35,106.73 207.59,110.92 "  style="fill:#ff0000ff;fill-rule:nonzero;" />
		<polygon points="205.49,111.35 203.39,117.92 208.64,113.73 202.35,113.73 207.59,117.92 "  style="fill:#ff0000ff;fill-rule:nonzero;" />
		<polygon points="205.49,118.35 203.39,124.92 208.64,120.73 202.35,120.73 207.59,124.92 "  style="fill:#ff0000ff;fill-rule:nonzero;" />
		<polygon points="205.49,139.35 203.39,145.92 208.64,141.73 202.35,141.73 207.59,145.92 "  style="fill:#ff0000ff;fill-rule:nonzero;" />
		<polygon points="205.49,146.35 203.39,152.92 208.64,148.73 202.35,148.73 207.59,152.92 "  style="fill:#ff0000ff;fill-rule:nonzero;" />
		<polygon points="205.49,167.35 203.39,173.92 208.64,169.73 202.35,169.73 207.59,173.92 "  style="fill:#ff0000ff;fill-rule:nonzero;" />
		<polygon points="205.49,181.35 203.39,187.92 208.64,183.73 202.35,183.73 207.59,187.92 "  style="fill:#ff0000ff;fill-rule:nonzero;" />
		<polygon points="205.49,195.35 203.39,201.92 208.64,197.73 202.35,197.73 207.59,201.92 "  style="fill:#ff0000ff;fill-rule:nonzero;" />
		<polygon points="205.49,202.35 203.39,208.92 208.64,204.73 202.35,204.73 207.59,208.92 "  style="fill:#ff0000ff;fill-rule:nonzero;" />
		<polygon points="205.49,209.35 203.39,215.92 208.64,211.73 202.35,211.73 207.59,215.92 "  style="fill:#ff0000ff;fill-rule:nonzero;" />
		<polygon points="205.49,216.35 203.39,222.92 208.64,218.73 202.35,218.73 207.59,222.92 "  style="fill:#ff0000ff;fill-rule:nonzero;" />
		<polygon points="205.49,223.35 203.39,229.92 208.64,225.73 202.35,225.73 207.59,229.92 "  style="fill:#ff0000ff;fill-rule:nonzero;" />
		<polygon points="205.49,230.35 203.39,236.92 208.64,232.73 202.35,232.73 207.59,236.92 "  style="fill:#ff0000ff;fill-rule:nonzero;" />
		<polygon points="205.49,244.35 203.39,250.92 208.64,246.73 202.35,246.73 207.59,250.92 "  style="fill:#ff0000ff;fill-rule:nonzero;" />
		<polygon points="205.49,251.35 203.39,257.92 208.64,253.73 202.35,253.73 207.59,257.92 "  style="fill:#ff0000ff;fill-rule:nonzero;" />
		<polygon points="205.49,258.35 203.39,264.92 208.64,260.73 202.35,260.73 207.59,264.92 "  style="fill:#ff0000ff;fill-rule:nonzero;" />
		<polygon points="205.49,265.35 203.39,271.92 208.64,267.73 202.35,267.73 207.59,271.92 "  style="fill:#ff0000ff;fill-rule:nonzero;" />
		<polygon points="212.49,41.35 210.39,47.92 215.64,43.73 209.35,43.73 214.59,47.92 "  style="fill:#ff0000ff;fill-rule:nonzero;" />
		<polygon points="212.49,76.35 210.39,82.92 215.64,78.73 209.35,78.73 214.59,82.92 "  style="fill:#ff0000ff;fill-rule:nonzero;" />
		<polygon points="212.49,83.35 210.39,89.92 215.64,85.73 209.35,85.73 214.59,89.92 "  style="fill:#ff0000ff;fill-rule:nonzero;" />
		<polygon points="212.49,97.35 210.39,103.92 215.64,99.73 209.35,99.73 214.59,103.92 "  style="fill:#ff0000ff;fill-rule:nonzero;" />
		<polygon points="212.49,104.35 210.39,110.92 215.64,106.73 209.35,106.73 214.59,110.92 "  style="fill:#ff0000ff;fill-rule:nonzero;" />
		<polygon points="212.49,118.35 210.39,124.92 215.64,120.73 209.35,120.73 214.59,124.92 "  style="fill:#ff0000ff;fill-rule:nonzero;" />
		<polygon points="212.49,132.35 210.39,138.92 215.64,134.73 209.35,134.73 214.59,138.92 "  style="fill:#ff0000ff;fill-rule:nonzero;" />
		<polygon points="212.49,139.35 210.39,145.92 215.64,141.73 209.35,141.73 214.59,145.92 "  style="fill:#ff0000ff;fill-rule:nonzero;" />
		<polygon points="212.49,146.35 210.39,152.92 215.64,148.73 209.35,148.73 214.59,152.92 "  style="fill:#ff0000ff;fill-rule:nonzero;" />
		<polygon points="212.49,160.35 210.39,166.92 215.64,162.73 209.35,162.73 214.59,166.92 "  style="fill:#ff0000ff;fill-rule:nonzero;" />
		<polygon points="212.49,188.35 210.39,194.92 215.64,190.73 209.35,190.73 214.59,194.92 "  style="fill:#ff0000ff;fill-rule:nonzero;" />
		<polygon points="212.49,202.35 210.39,208.92 215.64,204.73 209.35,204.73 214.59,208.92 "  style="fill:#ff0000ff;fill-rule:nonzero;" />
		<polygon points="212.49,216.35 210.39,222.92 215.64,218.73 209.35,218.73 214.59,222.92 "  style="fill:#ff0000ff;fill-rule:nonzero;" />
		<polygon points="212.49,230.35 210.39,236.92 215.64,232.73 209.35,232.73 214.59,236.92 "  style="fill:#ff0000ff;fill-rule:nonzero;" />
		<polygon points="212.49,237.35 210.39,243.92 215.64,239.73 209.35,239.73 214.59,243.92 "  style="fill:#ff0000ff;fill-rule:nonzero;" />
		<polygon points="212.49,258.35 210.39,264.92 215.64,260.73 209.35,260.73 214.59,264.92 "  style="fill:#ff0000ff;fill-rule:nonzero;" />
		<polygon points="212.49,272.35 210.39,278.92 215.64,274.73 209.35,274.73 214.59,278.92 "  style="fill:#ff0000ff;fill-rule:nonzero;" />
		<polygon points="219.49,20.35 217.39,26.92 222.64,22.73 216.35,22.73 221.59,26.92 "  style="fill:#ff0000ff;fill-rule:nonzero;" />
		<polygon points="219.49,41.35 217.39,47.92 222.64,43.73 216.35,43.73 221.59,47.92 "  style="fill:#ff0000ff;fill-rule:nonzero;" />
		<polygon points="219.49,48.35 217.39,54.92 222.64,50.73 216.35,50.73 221.59,54.92 "  style="fill:#ff0000ff;fill-rule:nonzero;" />
		<polygon points="219.49,62.35 217.39,68.92 222.64,64.73 216.35,64.73 221.59,68.92 "  style="fill:#ff0000ff;fill-rule:nonzero;" />
		<polygon points="219.49,83.35 217.39,89.92 222.64,85.73 216.35,85.73 221.59,89.92 "  style="fill:#ff0000ff;fill-rule:nonzero;" />
		<polygon points="219.49,97.35 217.39,103.92 222.64,99.73 216.35,99.73 221.59,103.92 "  style="fill:#ff0000ff;fill-rule:nonzero;" />
		<polygon points="219.49,104.35 217.39,110.92 222.64,106.73 216.35,106.73 221.59,110.92 "  style="fill:#ff0000ff;fill-rule:nonzero;" />
		<polygon points="219.49,111.35 217.39,117.92 222.64,113.73 216.35,113.73 221.59,117.92 "  style="fill:#ff0000ff;fill-rule:nonzero;" />
		<polygon points="219.49,118.35 217.39,124.92 222.64,120.73 216.35,120.73 221.59,124.92 "  style="fill:#ff0000ff;fill-rule:nonzero;" />
		<polygon points="219.49,125.35 217.39,131.92 222.64,127.73 216.35,127.73 221.59,131.92 "  style="fill:#ff0000ff;fill-rule:nonzero;" />
		<polygon points="219.49,132.35 217.39,138.92 222.64,134.73 216.35,134.73 221.59,138.92 "  style="fill:#ff0000ff;fill-rule:nonzero;" />
		<polygon points="219.49,146.35 217.39,152.92 222.64,148.73 216.35,148.73 221.59,152.92 "  style="fill:#ff0000ff;fill-rule:nonzero;" />
		<polygon points="219.49,153.35 217.39,159.92 222.64,155.73 216.35,155.73 221.59,159.92 "  style="fill:#ff0000ff;fill-rule:nonzero;" />
		<polygon points="219.49,174.35 217.39,180.92 222.64,176.73 216.35,176.73 221.59,180.92 "  style="fill:#ff0000ff;fill-rule:nonzero;" />
		<polygon points="219.49,188.35 217.39,194.92 222.64,190.73 216.35,190.73 221.59,194.92 "  style="fill:#ff0000ff;fill-rule:nonzero;" />
		<polygon points="219.49,209.35 217.39,215.92 222.64,211.73 216.35,211.73 221.59,215.92 "  style="fill:#ff0000ff;fill-rule:nonzero;" />
		<polygon points="219.49,216.35 217.39,222.92 222.64,218.73 216.35,218.73 221.59,222.92 "  style="fill:#ff0000ff;fill-rule:nonzero;" />
		<polygon points="219.49,223.35 217.39,229.92 222.64,225.73 216.35,225.73 221.59,229.92 "  style="fill:#ff0000ff;fill-rule:nonzero;" />
		<polygon points="219.49,230.35 217.39,236.92 222.64,232.73 216.35,232.73 221.59,236.92 "  style="fill:#ff0000ff;fill-rule:nonzero;" />
		<polygon points="219.49,237.35 217.39,243.92 222.64,239.73 216.35,239.73 221.59,243.92 "  style="fill:#ff0000ff;fill-rule:nonzero;" />
		<polygon points="219.49,244.35 217.39,250.92 222.64,246.73 216.35,246.73 221.59,250.92 "  style="fill:#ff0000ff;fill-rule:nonzero;" />
		<polygon points="219.49,251.35 217.39,257.92 222.64,253.73 216.35,253.73 221.59,257.92 "  style="fill:#ff0000ff;fill-rule:nonzero;" />
		<polygon points="226.49,76.35 224.39,82.92 229.64,78.73 223.35,78.73 228.59,82.92 "  style="fill:#ff0000ff;fill-rule:nonzero;" />
		<polygon points="226.49,90.35 224.39,96.92 229.64,92.73 223.35,92.73 228.59,96.92 "  style="fill:#ff0000ff;fill-rule:nonzero;" />
		<polygon points="226.49,97.35 224.39,103.92 229.64,99.73 223.35,99.73 228.59,103.92 "  style="fill:#ff0000ff;fill-rule:nonzero;" />
		<polygon points="226.49,104.35 224.39,110.92 229.64,106.73 223.35,106.73 228.59,110.92 "  style="fill:#ff0000ff;fill-rule:nonzero;" />
		<polygon points="226.49,132.35 224.39,138.92 229.64,134.73 223.35,134.73 228.59,138.92 "  style="fill:#ff0000ff;fill-rule:nonzero;" />
		<polygon points="226.49,146.35 224.39,152.92 229.64,148.73 223.35,148.73 228.59,152.92 "  style="fill:#ff0000ff;fill-rule:nonzero;" />
		<polygon points="226.49,153.35 224.39,159.92 229.64,155.73 223.35,155.73 228.59,159.92 "  style="fill:#ff0000ff;fill-rule:nonzero;" />
		<polygon points="226.49,167.35 224.39,173.92 229.64,169.73 223.35,169.73 228.59,173.92 "  style="fill:#ff0000ff;fill-rule:nonzero;" />
		<polygon points="226.49,174.35 224.39,180.92 229.64,176.73 223.35,176.73 228.59,180.92 "  style="fill:#ff0000ff;fill-rule:nonzero;" />
		<polygon points="226.49,181.35 224.39,187.92 229.64,183.73 223.35,183.73 228.59,187.92 "  style="fill:#ff0000ff;fill-rule:nonzero;" />
		<polygon points="226.49,188.35 224.39,194.92 229.64,190.73 223.35,190.73 228.59,194.92 "  style="fill:#ff0000ff;fill-rule:nonzero;" />
		<polygon points="226.49,195.35 224.39,201.92 229.64,197.73 223.35,197.73 228.59,201.92 "  style="fill:#ff0000ff;fill-rule:nonzero;" />
		<polygon points="226.49,202.35 224.39,208.92 229.64,204.73 223.35,204.73 228.59,208.92 "  style="fill:#ff0000ff;fill-rule:nonzero;" />
		<polygon points="226.49,209.35 224.39,215.92 229.64,211.73 223.35,211.73 228.59,215.92 "  style="fill:#ff0000ff;fill-rule:nonzero;" />
		<polygon points="226.49,216.35 224.39,222.92 229.64,218.73 223.35,218.73 228.59,222.92 "  style="fill:#ff0000ff;fill-rule:nonzero;" />
		<polygon points="226.49,244.35 224.39,250.92 229.64,246.73 223.35,246.73 228.59,250.92 "  style="fill:#ff0000ff;fill-rule:nonzero;" />
		<polygon points="226.49,265.35 224.39,271.92 229.64,267.73 223.35,267.73 228.59,271.92 "  style="fill:#ff0000ff;fill-rule:nonzero;" />
		<polygon points="226.49,272.35 224.39,278.92 229.64,274.73 223.35,274.73 228.59,278.92 "  style="fill:#ff0000ff;fill-rule:nonzero;" />
		<polygon points="233.49,20.35 231.39,26.92 236.64,22.73 230.35,22.73 235.59,26.92 "  style="fill:#ff0000ff;fill-rule:nonzero;" />
		<polygon points="233.49,27.35 231.39,33.92 236.64,29.73 230.35,29.73 235.59,33.92 "  style="fill:#ff0000ff;fill-rule:nonzero;" />
		<polygon points="233.49,34.35 231.39,40.92 236.64,36.73 230.35,36.73 235.59,40.92 "  style="fill:#ff0000ff;fill-rule:nonzero;" />
		<polygon points="233.49,41.35 231.39,47.92 236.64,43.73 230.35,43.73 235.59,47.92 "  style="fill:#ff0000ff;fill-rule:nonzero;" />
		<polygon points="233.49,48.35 231.39,54.92 236.64,50.73 230.35,50.73 235.59,54.92 "  style="fill:#ff0000ff;fill-rule:nonzero;" />
		<polygon points="233.49,55.35 231.39,61.92 236.64,57.73 230.35,57.73 235.59,61.92 "  style="fill:#ff0000ff;fill-rule:nonzero;" />
		<polygon points="233.49,62.35 231.39,68.92 236.64,64.73 230.35,64.73 235.59,68.92 "  style="fill:#ff0000ff;fill-rule:nonzero;" />
		<polygon points="233.49,76.35 231.39,82.92 236.64,78.73 230.35,78.73 235.59,82.92 "  style="fill:#ff0000ff;fill-rule:nonzero;" />
		<polygon points="233.49,90.35 231.39,96.92 236.64,92.73 230.35,92.73 235.59,96.92 "  style="fill:#ff0000ff;fill-rule:nonzero;" />
		<polygon points="233.49,104.35 231.39,110.92 236.64,106.73 230.35,106.73 235.59,110.92 "  style="fill:#ff0000ff;fill-rule:nonzero;" />
		<polygon points="233.49,111.35 231.39,117.92 236.64,113.73 230.35,113.73 235.59,117.92 "  style="fill:#ff0000ff;fill-rule:nonzero;" />
		<polygon points="233.49,118.35 231.39,124.92 236.64,120.73 230.35,120.73 235.59,124.92 "  style="fill:#ff0000ff;fill-rule:nonzero;" />
		<polygon points="233.49,146.35 231.39,152.92 236.64,148.73 230.35,148.73 235.59,152.92 "  style="fill:#ff0000ff;fill-rule:nonzero;" />
		<polygon points="233.49,153.35 231.39,159.92 236.64,155.73 230.35,155.73 235.59,159.92 "  style="fill:#ff0000ff;fill-rule:nonzero;" />
		<polygon points="233.49,160.35 231.39,166.92 236.64,162.73 230.35,162.73 235.59,166.92 "  style="fill:#ff0000ff;fill-rule:nonzero;" />
		<polygon points="233.49,174.35 231.39,180.92 236.64,176.73 230.35,176.73 235.59,180.92 "  style="fill:#ff0000ff;fill-rule:nonzero;" />
		<polygon points="233.49,181.35 231.39,187.92 236.64,183.73 230.35,183.73 235.59,187.92 "  style="fill:#ff0000ff;fill-rule:nonzero;" />
		<polygon points="233.49,188.35 231.39,194.92 236.64,190.73 230.35,190.73 235.59,194.92 "  style="fill:#ff0000ff;fill-rule:nonzero;" />
		<polygon points="233.49,195.35 231.39,201.92 236.64,197.73 230.35,197.73 235.59,201.92 "  style="fill:#ff0000ff;fill-rule:nonzero;" />
		<polygon points="233.49,202.35 231.39,208.92 236.64,204.73 230.35,204.73 235.59,208.92 "  style="fill:#ff0000ff;fill-rule:nonzero;" />
		<polygon points="233.49,216.35 231.39,222.92 236.64,218.73 230.35,218.73 235.59,222.92 "  style="fill:#ff0000ff;fill-rule:nonzero;" />
		<polygon points="233.49,230.35 231.39,236.92 236.64,232.73 230.35,232.73 235.59,236.92 "  style="fill:#ff0000ff;fill-rule:nonzero;" />
		<polygon points="233.49,244.35 231.39,250.92 236.64,246.73 230.35,246.73 235.59,250.92 "  style="fill:#ff0000ff;fill-rule:nonzero;" />
		<polygon points="233.49,251.35 231.39,257.92 236.64,253.73 230.35,253.73 235.59,257.92 "  style="fill:#ff0000ff;fill-rule:nonzero;" />
		<polygon points="233.49,258.35 231.39,264.92 236.64,260.73 230.35,260.73 235.59,264.92 "  style="fill:#ff0000ff;fill-rule:nonzero;" />
		<polygon points="233.49,265.35 231.39,271.92 236.64,267.73 230.35,267.73 235.59,271.92 "  style="fill:#ff0000ff;fill-rule:nonzero;" />
		<polygon points="240.49,20.35 238.39,26.92 243.64,22.73 237.35,22.73 242.59,26.92 "  style="fill:#ff0000ff;fill-rule:nonzero;" />
		<polygon points="240.49,62.35 238.39,68.92 243.64,64.73 237.35,64.73 242.59,68.92 "  style="fill:#ff0000ff;fill-rule:nonzero;" />
		<polygon points="240.49,76.35 238.39,82.92 243.64,78.73 237.35,78.73 242.59,82.92 "  style="fill:#ff0000ff;fill-rule:nonzero;" />
		<polygon points="240.49,90.35 238.39,96.92 243.64,92.73 237.35,92.73 242.59,96.92 "  style="fill:#ff0000ff;fill-rule:nonzero;" />
		<polygon points="240.49,97.35 238.39,103.92 243.64,99.73 237.35,99.73 242.59,103.92 "  style="fill:#ff0000ff;fill-rule:nonzero;" />
		<polygon points="240.49,111.35 238.39,117.92 243.64,113.73 237.35,113.73 242.59,117.92 "  style="fill:#ff0000ff;fill-rule:nonzero;" />
		<polygon points="240.49,125.35 238.39,131.92 243.64,127.73 237.35,127.73 242.59,131.92 "  style="fill:#ff0000ff;fill-rule:nonzero;" />
		<polygon points="240.49,139.35 238.39,145.92 243.64,141.73 237.35,141.73 242.59,145.92 "  style="fill:#ff0000ff;fill-rule:nonzero;" />
		<polygon points="240.49,153.35 238.39,159.92 243.64,155.73 237.35,155.73 242.59,159.92 "  style="fill:#ff0000ff;fill-rule:nonzero;" />
		<polygon points="240.49,167.35 238.39,173.92 243.64,169.73 237.35,169.73 242.59,173.92 "  style="fill:#ff0000ff;fill-rule:nonzero;" />
		<polygon points="240.49,174.35 238.39,180.92 243.64,176.73 237.35,176.73 242.59,180.92 "  style="fill:#ff0000ff;fill-rule:nonzero;" />
		<polygon points="240.49,181.35 238.39,187.92 243.64,183.73 237.35,183.73 242.59,187.92 "  style="fill:#ff0000ff;fill-rule:nonzero;" />
		<polygon points="240.49,202.35 238.39,208.92 243.64,204.73 237.35,204.73 242.59,208.92 "  style="fill:#ff0000ff;fill-rule:nonzero;" />
		<polygon points="240.49,216.35 238.39,222.92 243.64,218.73 237.35,218.73 242.59,222.92 "  style="fill:#ff0000ff;fill-rule:nonzero;" />
		<polygon points="240.49,244.35 238.39,250.92 243.64,246.73 237.35,246.73 242.59,250.92 "  style="fill:#ff0000ff;fill-rule:nonzero;" />
		<polygon points="240.49,251.35 238.39,257.92 243.64,253.73 237.35,253.73 242.59,257.92 "  style="fill:#ff0000ff;fill-rule:nonzero;" />
		<polygon points="240.49,258.35 238.39,264.92 243.64,260.73 237.35,260.73 242.59,264.92 "  style="fill:#ff0000ff;fill-rule:nonzero;" />
		<polygon points="247.49,20.35 245.39,26.92 250.64,22.73 244.35,22.73 249.59,26.92 "  style="fill:#ff0000ff;fill-rule:nonzero;" />
		<polygon points="247.49,34.35 245.39,40.92 250.64,36.73 244.35,36.73 249.59,40.92 "  style="fill:#ff0000ff;fill-rule:nonzero;" />
		<polygon points="247.49,41.35 245.39,47.92 250.64,43.73 244.35,43.73 249.59,47.92 "  style="fill:#ff0000ff;fill-rule:nonzero;" />
		<polygon points="247.49,48.35 245.39,54.92 250.64,50.73 244.35,50.73 249.59,54.92 "  style="fill:#ff0000ff;fill-rule:nonzero;" />
		<polygon points="247.49,62.35 245.39,68.92 250.64,64.73 244.35,64.73 249.59,68.92 "  style="fill:#ff0000ff;fill-rule:nonzero;" />
		<polygon points="247.49,90.35 245.39,96.92 250.64,92.73 244.35,92.73 249.59,96.92 "  style="fill:#ff0000ff;fill-rule:nonzero;" />
		<polygon points="247.49,104.35 245.39,110.92 250.64,106.73 244.35,106.73 249.59,110.92 "  style="fill:#ff0000ff;fill-rule:nonzero;" />
		<polygon points="247.49,132.35 245.39,138.92 250.64,134.73 244.35,134.73 249.59,138.92 "  style="fill:#ff0000ff;fill-rule:nonzero;" />
		<polygon points="247.49,139.35 245.39,145.92 250.64,141.73 244.35,141.73 249.59,145.92 "  style="fill:#ff0000ff;fill-rule:nonzero;" />
		<polygon points="247.49,146.35 245.39,152.92 250.64,148.73 244.35,148.73 249.59,152.92 "  style="fill:#ff0000ff;fill-rule:nonzero;" />
		<polygon points="247.49,174.35 245.39,180.92 250.64,176.73 244.35,176.73 249.59,180.92 "  style="fill:#ff0000ff;fill-rule:nonzero;" />
		<polygon points="247.49,195.35 245.39,201.92 250.64,197.73 244.35,197.73 249.59,201.92 "  style="fill:#ff0000ff;fill-rule:nonzero;" />
		<polygon points="247.49,202.35 245.39,208.92 250.64,204.73 244.35,204.73 249.59,208.92 "  style="fill:#ff0000ff;fill-rule:nonzero;" />
		<polygon points="247.49,216.35 245.39,222.92 250.64,218.73 244.35,218.73 249.59,222.92 "  style="fill:#ff0000ff;fill-rule:nonzero;" />
		<polygon points="247.49,223.35 245.39,229.92 250.64,225.73 244.35,225.73 249.59,229.92 "  style="fill:#ff0000ff;fill-rule:nonzero;" />
		<polygon points="247.49,230.35 245.39,236.92 250.64,232.73 244.35,232.73 249.59,236.92 "  style="fill:#ff0000ff;fill-rule:nonzero;" />
		<polygon points="247.49,237.35 245.39,243.92 250.64,239.73 244.35,239.73 249.59,243.92 "  style="fill:#ff0000ff;fill-rule:nonzero;" />
		<polygon points="247.49,244.35 245.39,250.92 250.64,246.73 244.35,246.73 249.59,250.92 "  style="fill:#ff0000ff;fill-rule:nonzero;" />
		<polygon points="247.49,251.35 245.39,257.92 250.64,253.73 244.35,253.73 249.59,257.92 "  style="fill:#ff0000ff;fill-rule:nonzero;" />
		<polygon points="247.49,258.35 245.39,264.92 250.64,260.73 244.35,260.73 249.59,264.92 "  style="fill:#ff0000ff;fill-rule:nonzero;" />
		<polygon points="247.49,265.35 245.39,271.92 250.64,267.73 244.35,267.73 249.59,271.92 "  style="fill:#ff0000ff;fill-rule:nonzero;" />
		<polygon points="254.49,20.35 252.39,26.92 257.64,22.73 251.35,22.73 256.59,26.92 "  style="fill:#ff0000ff;fill-rule:nonzero;" />
		<polygon points="254.49,34.35 252.39,40.92 257.64,36.73 251.35,36.73 256.59,40.92 "  style="fill:#ff0000ff;fill-rule:nonzero;" />
		<polygon points="254.49,41.35 252.39,47.92 257.64,43.73 251.35,43.73 256.59,47.92 "  style="fill:#ff0000ff;fill-rule:nonzero;" />
		<polygon points="254.49,48.35 252.39,54.92 257.64,50.73 251.35,50.73 256.59,54.92 "  style="fill:#ff0000ff;fill-rule:nonzero;" />
		<polygon points="254.49,62.35 252.39,68.92 257.64,64.73 251.35,64.73 256.59,68.92 "  style="fill:#ff0000ff;fill-rule:nonzero;" />
		<polygon points="254.49,83.35 252.39,89.92 257.64,85.73 251.35,85.73 256.59,89.92 "  style="fill:#ff0000ff;fill-rule:nonzero;" />
		<polygon points="254.49,97.35 252.39,103.92 257.64,99.73 251.35,99.73 256.59,103.92 "  style="fill:#ff0000ff;fill-rule:nonzero;" />
		<polygon points="254.49,111.35 252.39,117.92 257.64,113.73 251.35,113.73 256.59,117.92 "  style="fill:#ff0000ff;fill-rule:nonzero;" />
		<polygon points="254.49,118.35 252.39,124.92 257.64,120.73 251.35,120.73 256.59,124.92 "  style="fill:#ff0000ff;fill-rule:nonzero;" />
		<polygon points="254.49,125.35 252.39,131.92 257.64,127.73 251.35,127.73 256.59,131.92 "  style="fill:#ff0000ff;fill-rule:nonzero;" />
		<polygon points="254.49,153.35 252.39,159.92 257.64,155.73 251.35,155.73 256.59,159.92 "  style="fill:#ff0000ff;fill-rule:nonzero;" />
		<polygon points="254.49,160.35 252.39,166.92 257.64,162.73 251.35,162.73 256.59,166.92 "  style="fill:#ff0000ff;fill-rule:nonzero;" />
		<polygon points="254.49,181.35 252.39,187.92 257.64,183.73 251.35,183.73 256.59,187.92 "  style="fill:#ff0000ff;fill-rule:nonzero;" />
		<polygon points="254.49,188.35 252.39,194.92 257.64,190.73 251.35,190.73 256.59,194.92 "  style="fill:#ff0000ff;fill-rule:nonzero;" />
		<polygon points="254.49,195.35 252.39,201.92 257.64,197.73 251.35,197.73 256.59,201.92 "  style="fill:#ff0000ff;fill-rule:nonzero;" />
		<polygon points="254.49,230.35 252.39,236.92 257.64,232.73 251.35,232.73 256.59,236.92 "  style="fill:#ff0000ff;fill-rule:nonzero;" />
		<polygon points="254.49,237.35 252.39,243.92 257.64,239.73 251.35,239.73 256.59,243.92 "  style="fill:#ff0000ff;fill-rule:nonzero;" />
		<polygon points="254.49,244.35 252.39,250.92 257.64,246.73 251.35,246.73 256.59,250.92 "  style="fill:#ff0000ff;fill-rule:nonzero;" />
		<polygon points="254.49,258.35 252.39,264.92 257.64,260.73 251.35,260.73 256.59,264.92 "  style="fill:#ff0000ff;fill-rule:nonzero;" />
		<polygon points="254.49,265.35 252.39,271.92 257.64,267.73 251.35,267.73 256.59,271.92 "  style="fill:#ff0000ff;fill-rule:nonzero;" />
		<polygon points="261.49,20.35 259.39,26.92 264.64,22.73 258.35,22.73 263.59,26.92 "  style="fill:#ff0000ff;fill-rule:nonzero;" />
		<polygon points="261.49,34.35 259.39,40.92 264.64,36.73 258.35,36.73 263.59,40.92 "  style="fill:#ff0000ff;fill-rule:nonzero;" />
		<polygon points="261.49,41.35 259.39,47.92 264.64,43.73 258.35,43.73 263.59,47.92 "  style="fill:#ff0000ff;fill-rule:nonzero;" />
		<polygon points="261.49,48.35 259.39,54.92 264.64,50.73 258.35,50.73 263.59,54.92 "  style="fill:#ff0000ff;fill-rule:nonzero;" />
		<polygon points="261.49,62.35 259.39,68.92 264.64,64.73 258.35,64.73 263.59,68.92 "  style="fill:#ff0000ff;fill-rule:nonzero;" />
		<polygon points="261.49,76.35 259.39,82.92 264.64,78.73 258.35,78.73 263.59,82.92 "  style="fill:#ff0000ff;fill-rule:nonzero;" />
		<polygon points="261.49,90.35 259.39,96.92 264.64,92.73 258.35,92.73 263.59,96.92 "  style="fill:#ff0000ff;fill-rule:nonzero;" />
		<polygon points="261.49,118.35 259.39,124.92 264.64,120.73 258.35,120.73 263.59,124.92 "  style="fill:#ff0000ff;fill-rule:nonzero;" />
		<polygon points="261.49,125.35 259.39,131.92 264.64,127.73 258.35,127.73 263.59,131.92 "  style="fill:#ff0000ff;fill-rule:nonzero;" />
		<polygon points="261.49,132.35 259.39,138.92 264.64,134.73 258.35,134.73 263.59,138.92 "  style="fill:#ff0000ff;fill-rule:nonzero;" />
		<polygon points="261.49,146.35 259.39,152.92 264.64,148.73 258.35,148.73 263.59,152.92 "  style="fill:#ff0000ff;fill-rule:nonzero;" />
		<polygon points="261.49,153.35 259.39,159.92 264.64,155.73 258.35,155.73 263.59,159.92 "  style="fill:#ff0000ff;fill-rule:nonzero;" />
		<polygon points="261.49,174.35 259.39,180.92 264.64,176.73 258.35,176.73 263.59,180.92 "  style="fill:#ff0000ff;fill-rule:nonzero;" />
		<polygon points="261.49,188.35 259.39,194.92 264.64,190.73 258.35,190.73 263.59,194.92 "  style="fill:#ff0000ff;fill-rule:nonzero;" />
		<polygon points="261.49,202.35 259.39,208.92 264.64,204.73 258.35,204.73 263.59,208.92 "  style="fill:#ff0000ff;fill-rule:nonzero;" />
		<polygon points="261.49,216.35 259.39,222.92 264.64,218.73 258.35,218.73 263.59,222.92 "  style="fill:#ff0000ff;fill-rule:nonzero;" />
		<polygon points="261.49,230.35 259.39,236.92 264.64,232.73 258.35,232.73 263.59,236.92 "  style="fill:#ff0000ff;fill-rule:nonzero;" />
		<polygon points="261.49,237.35 259.39,243.92 264.64,239.73 258.35,239.73 263.59,243.92 "  style="fill:#ff0000ff;fill-rule:nonzero;" />
		<polygon points="261.49,258.35 259.39,264.92 264.64,260.73 258.35,260.73 263.59,264.92 "  style="fill:#ff0000ff;fill-rule:nonzero;" />
		<polygon points="261.49,265.35 259.39,271.92 264.64,267.73 258.35,267.73 263.59,271.92 "  style="fill:#ff0000ff;fill-rule:nonzero;" />
		<polygon points="268.49,20.35 266.39,26.92 271.64,22.73 265.35,22.73 270.59,26.92 "  style="fill:#ff0000ff;fill-rule:nonzero;" />
		<polygon points="268.49,62.35 266.39,68.92 271.64,64.73 265.35,64.73 270.59,68.92 "  style="fill:#ff0000ff;fill-rule:nonzero;" />
		<polygon points="268.49,76.35 266.39,82.92 271.64,78.73 265.35,78.73 270.59,82.92 "  style="fill:#ff0000ff;fill-rule:nonzero;" />
		<polygon points="268.49,83.35 266.39,89.92 271.64,85.73 265.35,85.73 270.59,89.92 "  style="fill:#ff0000ff;fill-rule:nonzero;" />
		<polygon points="268.49,90.35 266.39,96.92 271.64,92.73 265.35,92.73 270.59,96.92 "  style="fill:#ff0000ff;fill-rule:nonzero;" />
		<polygon points="268.49,111.35 266.39,117.92 271.64,113.73 265.35,113.73 270.59,117.92 "  style="fill:#ff0000ff;fill-rule:nonzero;" />
		<polygon points="268.49,132.35 266.39,138.92 271.64,134.73 265.35,134.73 270.59,138.92 "  style="fill:#ff0000ff;fill-rule:nonzero;" />
		<polygon points="268.49,146.35 266.39,152.92 271.64,148.73 265.35,148.73 270.59,152.92 "  style="fill:#ff0000ff;fill-rule:nonzero;" />
		<polygon points="268.49,167.35 266.39,173.92 271.64,169.73 265.35,169.73 270.59,173.92 "  style="fill:#ff0000ff;fill-rule:nonzero;" />
		<polygon points="268.49,174.35 266.39,180.92 271.64,176.73 265.35,176.73 270.59,180.92 "  style="fill:#ff0000ff;fill-rule:nonzero;" />
		<polygon points="268.49,188.35 266.39,194.92 271.64,190.73 265.35,190.73 270.59,194.92 "  style="fill:#ff0000ff;fill-rule:nonzero;" />
		<polygon points="268.49,195.35 266.39,201.92 271.64,197.73 265.35,197.73 270.59,201.92 "  style="fill:#ff0000ff;fill-rule:nonzero;" />
		<polygon points="268.49,202.35 266.39,208.92 271.64,204.73 265.35,204.73 270.59,208.92 "  style="fill:#ff0000ff;fill-rule:nonzero;" />
		<polygon points="268.49,216.35 266.39,222.92 271.64,218.73 265.35,218.73 270.59,222.92 "  style="fill:#ff0000ff;fill-rule:nonzero;" />
		<polygon points="268.49,223.35 266.39,229.92 271.64,225.73 265.35,225.73 270.59,229.92 "  style="fill:#ff0000ff;fill-rule:nonzero;" />
		<polygon points="268.49,230.35 266.39,236.92 271.64,232.73 265.35,232.73 270.59,236.92 "  style="fill:#ff0000ff;fill-rule:nonzero;" />
		<polygon points="268.49,244.35 266.39,250.92 271.64,246.73 265.35,246.73 270.59,250.92 "  style="fill:#ff0000ff;fill-rule:nonzero;" />
		<polygon points="268.49,251.35 266.39,257.92 271.64,253.73 265.35,253.73 270.59,257.92 "  style="fill:#ff0000ff;fill-rule:nonzero;" />
		<polygon points="268.49,265.35 266.39,271.92 271.64,267.73 265.35,267.73 270.59,271.92 "  style="fill:#ff0000ff;fill-rule:nonzero;" />
		<polygon points="268.49,272.35 266.39,278.92 271.64,274.73 265.35,274.73 270.59,278.92 "  style="fill:#ff0000ff;fill-rule:nonzero;" />
		<polygon points="275.49,20.35 273.39,26.92 278.64,22.73 272.35,22.73 277.59,26.92 "  style="fill:#ff0000ff;fill-rule:nonzero;" />
		<polygon points="275.49,27.35 273.39,33.92 278.64,29.73 272.35,29.73 277.59,33.92 "  style="fill:#ff0000ff;fill-rule:nonzero;" />
		<polygon points="275.49,34.35 273.39,40.92 278.64,36.73 272.35,36.73 277.59,40.92 "  style="fill:#ff0000ff;fill-rule:nonzero;" />
		<polygon points="275.49,41.35 273.39,47.92 278.64,43.73 272.35,43.73 277.59,47.92 "  style="fill:#ff0000ff;fill-rule:nonzero;" />
		<polygon points="275.49,48.35 273.39,54.92 278.64,50.73 272.35,50.73 277.59,54.92 "  style="fill:#ff0000ff;fill-rule:nonzero;" />
		<polygon points="275.49,55.35 273.39,61.92 278.64,57.73 272.35,57.73 277.59,61.92 "  style="fill:#ff0000ff;fill-rule:nonzero;" />
		<polygon points="275.49,62.35 273.39,68.92 278.64,64.73 272.35,64.73 277.59,68.92 "  style="fill:#ff0000ff;fill-rule:nonzero;" />
		<polygon points="275.49,76.35 273.39,82.92 278.64,78.73 272.35,78.73 277.59,82.92 "  style="fill:#ff0000ff;fill-rule:nonzero;" />
		<polygon points="275.49,104.35 273.39,110.92 278.64,106.73 272.35,106.73 277.59,110.92 "  style="fill:#ff0000ff;fill-rule:nonzero;" />
		<polygon points="275.49,111.35 273.39,117.92 278.64,113.73 272.35,113.73 277.59,117.92 "  style="fill:#ff0000ff;fill-rule:nonzero;" />
		<polygon points="275.49,132.35 273.39,138.92 278.64,134.73 272.35,134.73 277.59,138.92 "  style="fill:#ff0000ff;fill-rule:nonzero;" />
		<polygon points="275.49,139.35 273.39,145.92 278.64,141.73 272.35,141.73 277.59,145.92 "  style="fill:#ff0000ff;fill-rule:nonzero;" />
		<polygon points="275.49,146.35 273.39,152.92 278.64,148.73 272.35,148.73 277.59,152.92 "  style="fill:#ff0000ff;fill-rule:nonzero;" />
		<polygon points="275.49,174.35 273.39,180.92 278.64,176.73 272.35,176.73 277.59,180.92 "  style="fill:#ff0000ff;fill-rule:nonzero;" />
		<polygon points="275.49,188.35 273.39,194.92 278.64,190.73 272.35,190.73 277.59,194.92 "  style="fill:#ff0000ff;fill-rule:nonzero;" />
		<polygon points="275.49,195.35 273.39,201.92 278.64,197.73 272.35,197.73 277.59,201.92 "  style="fill:#ff0000ff;fill-rule:nonzero;" />
		<polygon points="275.49,216.35 273.39,222.92 278.64,218.73 272.35,218.73 277.59,222.92 "  style="fill:#ff0000ff;fill-rule:nonzero;" />
		<polygon points="275.49,223.35 273.39,229.92 278.64,225.73 272.35,225.73 277.59,229.92 "  style="fill:#ff0000ff;fill-rule:nonzero;" />
		<polygon points="275.49,230.35 273.39,236.92 278.64,232.73 272.35,232.73 277.59,236.92 "  style="fill:#ff0000ff;fill-rule:nonzero;" />
		<polygon points="275.49,244.35 273.39,250.92 278.64,246.73 272.35,246.73 277.59,250.92 "  style="fill:#ff0000ff;fill-rule:nonzero;" />
		<polygon points="275.49,251.35 273.39,257.92 278.64,253.73 272.35,253.73 277.59,257.92 "  style="fill:#ff0000ff;fill-rule:nonzero;" />
		<polygon points="275.49,258.35 273.39,264.92 278.64,260.73 272.35,260.73 277.59,264.92 "  style="fill:#ff0000ff;fill-rule:nonzero;" />
		<polygon points="275.49,272.35 273.39,278.92 278.64,274.73 272.35,274.73 277.59,278.92 "  style="fill:#ff0000ff;fill-rule:nonzero;" />

	</g>
</svg>