<?xml version="1.0" encoding="utf-8"?>
<svg xmlns="http://www.w3.org/2000/svg" xmlns:xlink="http://www.w3.org/1999/xlink" width="500" height="500" viewBox="0 0 500 500">

	<g id="qr">
		<rect fill="#ffffffff" x="0" y="0" width="500" height="500" />
		<text fill="#000000ff" font-size="12" y="40" x="28">天</text>
		<text fill="#000000ff" font-size="12" y="52" x="28">地</text>
		<text fill="#000000ff" font-size="12" y="64" x="28">玄</text>
		<text fill="#000000ff" font-size="12" y="76" x="28">黄</text>
		<text fill="#000000ff" font-size="12" y="88" x="28">宇</text>
		<text fill="#000000ff" font-size="12" y="100" x="28">宙</text>
		<text fill="#000000ff" font-size="12" y="112" x="28">洪</text>
		<text fill="#000000ff" font-size="12" y="148" x="28">荒</text>
		<text fill="#000000ff" font-size="12" y="184" x="28">日</text>
		<text fill="#000000ff" font-size="12" y="256" x="28">月</text>
		<text fill="#000000ff" font-size="12" y="316" x="28">盈</text>
		<text fill="#000000ff" font-size="12" y="340" x="28">昃</text>
		<text fill="#000000ff" font-size="12" y="352" x="28">辰</text>
		<text fill="#000000ff" font-size="12" y="364" x="28">宿</text>
		<text fill="#000000ff" font-size="12" y="376" x="28">列</text>
		<text fill="#000000ff" font-size="12" y="400" x="28">张</text>
		<text fill="#000000ff" font-size="12" y="412" x="28">寒</text>
		<text fill="#000000ff" font-size="12" y="424" x="28">来</text>
		<text fill="#000000ff" font-size="12" y="436" x="28">暑</text>
		<text fill="#000000ff" font-size="12" y="448" x="28">往</text>
		<text fill="#000000ff" font-size="12" y="460" x="28">秋</text>
		<text fill="#000000ff" font-size="12" y="472" x="28">收</text>
		<text fill="#000000ff" font-size="12" y="40" x="40">冬</text>
		<text fill="#000000ff" font-size="12" y="112" x="40">藏</text>
		<text fill="#000000ff" font-size="12" y="208" x="40">闰</text>
		<text fill="#000000ff" font-size="12" y="220" x="40">余</text>
		<text fill="#000000ff" font-size="12" y="256" x="40">成</text>
		<text fill="#000000ff" font-size="12" y="304" x="40">岁</text>
		<text fill="#000000ff" font-size="12" y="316" x="40">律</text>
		<text fill="#000000ff" font-size="12" y="340" x="40">吕</text>
		<text fill="#000000ff" font-size="12" y="400" x="40">调</text>
		<text fill="#000000ff" font-size="12" y="472" x="40">阳</text>
		<text fill="#000000ff" font-size="12" y="40" x="52">云</text>
		<text fill="#000000ff" font-size="12" y="64" x="52">腾</text>
		<text fill="#000000ff" font-size="12" y="76" x="52">致</text>
		<text fill="#000000ff" font-size="12" y="88" x="52">雨</text>
		<text fill="#000000ff" font-size="12" y="112" x="52">露</text>
		<text fill="#000000ff" font-size="12" y="136" x="52">结</text>
		<text fill="#000000ff" font-size="12" y="160" x="52">为</text>
		<text fill="#000000ff" font-size="12" y="184" x="52">霜</text>
		<text fill="#000000ff" font-size="12" y="208" x="52">金</text>
		<text fill="#000000ff" font-size="12" y="244" x="52">生</text>
		<text fill="#000000ff" font-size="12" y="268" x="52">丽</text>
		<text fill="#000000ff" font-size="12" y="280" x="52">水</text>
		<text fill="#000000ff" font-size="12" y="292" x="52">玉</text>
		<text fill="#000000ff" font-size="12" y="304" x="52">出</text>
		<text fill="#000000ff" font-size="12" y="352" x="52">昆</text>
		<text fill="#000000ff" font-size="12" y="364" x="52">冈</text>
		<text fill="#000000ff" font-size="12" y="376" x="52">剑</text>
		<text fill="#000000ff" font-size="12" y="400" x="52">号</text>
		<text fill="#000000ff" font-size="12" y="424" x="52">巨</text>
		<text fill="#000000ff" font-size="12" y="436" x="52">阙</text>
		<text fill="#000000ff" font-size="12" y="448" x="52">珠</text>
		<text fill="#000000ff" font-size="12" y="472" x="52">称</text>
		<text fill="#000000ff" font-size="12" y="40" x="64">夜</text>
		<text fill="#000000ff" font-size="12" y="64" x="64">光</text>
		<text fill="#000000ff" font-size="12" y="76" x="64">果</text>
		<text fill="#000000ff" font-size="12" y="88" x="64">珍</text>
		<text fill="#000000ff" font-size="12" y="112" x="64">李</text>
		<text fill="#000000ff" font-size="12" y="136" x="64">柰</text>
		<text fill="#000000ff" font-size="12" y="184" x="64">菜</text>
		<text fill="#000000ff" font-size="12" y="196" x="64">重</text>
		<text fill="#000000ff" font-size="12" y="208" x="64">芥</text>
		<text fill="#000000ff" font-size="12" y="220" x="64">姜</text>
		<text fill="#000000ff" font-size="12" y="244" x="64">海</text>
		<text fill="#000000ff" font-size="12" y="256" x="64">咸</text>
		<text fill="#000000ff" font-size="12" y="280" x="64">河</text>
		<text fill="#000000ff" font-size="12" y="340" x="64">淡</text>
		<text fill="#000000ff" font-size="12" y="364" x="64">鳞</text>
		<text fill="#000000ff" font-size="12" y="400" x="64">潜</text>
		<text fill="#000000ff" font-size="12" y="424" x="64">羽</text>
		<text fill="#000000ff" font-size="12" y="436" x="64">翔</text>
		<text fill="#000000ff" font-size="12" y="448" x="64">龙</text>
		<text fill="#000000ff" font-size="12" y="472" x="64">师</text>
		<text fill="#000000ff" font-size="12" y="40" x="76">火</text>
		<text fill="#000000ff" font-size="12" y="64" x="76">帝</text>
		<text fill="#000000ff" font-size="12" y="76" x="76">鸟</text>
		<text fill="#000000ff" font-size="12" y="88" x="76">官</text>
		<text fill="#000000ff" font-size="12" y="112" x="76">人</text>
		<text fill="#000000ff" font-size="12" y="136" x="76">皇</text>
		<text fill="#000000ff" font-size="12" y="148" x="76">始</text>
		<text fill="#000000ff" font-size="12" y="160" x="76">制</text>
		<text fill="#000000ff" font-size="12" y="172" x="76">文</text>
		<text fill="#000000ff" font-size="12" y="184" x="76">字</text>
		<text fill="#000000ff" font-size="12" y="196" x="76">乃</text>
		<text fill="#000000ff" font-size="12" y="208" x="76">服</text>
		<text fill="#000000ff" font-size="12" y="220" x="76">衣</text>
		<text fill="#000000ff" font-size="12" y="244" x="76">裳</text>
		<text fill="#000000ff" font-size="12" y="304" x="76">推</text>
		<text fill="#000000ff" font-size="12" y="340" x="76">位</text>
		<text fill="#000000ff" font-size="12" y="352" x="76">让</text>
		<text fill="#000000ff" font-size="12" y="364" x="76">国</text>
		<text fill="#000000ff" font-size="12" y="376" x="76">有</text>
		<text fill="#000000ff" font-size="12" y="400" x="76">虞</text>
		<text fill="#000000ff" font-size="12" y="424" x="76">陶</text>
		<text fill="#000000ff" font-size="12" y="436" x="76">唐</text>
		<text fill="#000000ff" font-size="12" y="448" x="76">吊</text>
		<text fill="#000000ff" font-size="12" y="472" x="76">民</text>
		<text fill="#000000ff" font-size="12" y="40" x="88">伐</text>
		<text fill="#000000ff" font-size="12" y="112" x="88">罪</text>
		<text fill="#000000ff" font-size="12" y="160" x="88">周</text>
		<text fill="#000000ff" font-size="12" y="172" x="88">发</text>
		<text fill="#000000ff" font-size="12" y="196" x="88">殷</text>
		<text fill="#000000ff" font-size="12" y="208" x="88">汤</text>
		<text fill="#000000ff" font-size="12" y="220" x="88">坐</text>
		<text fill="#000000ff" font-size="12" y="232" x="88">朝</text>
		<text fill="#000000ff" font-size="12" y="244" x="88">问</text>
		<text fill="#000000ff" font-size="12" y="292" x="88">道</text>
		<text fill="#000000ff" font-size="12" y="316" x="88">垂</text>
		<text fill="#000000ff" font-size="12" y="340" x="88">拱</text>
		<text fill="#000000ff" font-size="12" y="400" x="88">平</text>
		<text fill="#000000ff" font-size="12" y="472" x="88">章</text>
		<text fill="#000000ff" font-size="12" y="40" x="100">爱</text>
		<text fill="#000000ff" font-size="12" y="52" x="100">育</text>
		<text fill="#000000ff" font-size="12" y="64" x="100">黎</text>
		<text fill="#000000ff" font-size="12" y="76" x="100">首</text>
		<text fill="#000000ff" font-size="12" y="88" x="100">臣</text>
		<text fill="#000000ff" font-size="12" y="100" x="100">伏</text>
		<text fill="#000000ff" font-size="12" y="112" x="100">戎</text>
		<text fill="#000000ff" font-size="12" y="136" x="100">羌</text>
		<text fill="#000000ff" font-size="12" y="160" x="100">遐</text>
		<text fill="#000000ff" font-size="12" y="184" x="100">迩</text>
		<text fill="#000000ff" font-size="12" y="208" x="100">一</text>
		<text fill="#000000ff" font-size="12" y="232" x="100">体</text>
		<text fill="#000000ff" font-size="12" y="256" x="100">率</text>
		<text fill="#000000ff" font-size="12" y="280" x="100">宾</text>
		<text fill="#000000ff" font-size="12" y="304" x="100">归</text>
		<text fill="#000000ff" font-size="12" y="328" x="100">王</text>
		<text fill="#000000ff" font-size="12" y="352" x="100">鸣</text>
		<text fill="#000000ff" font-size="12" y="376" x="100">凤</text>
		<text fill="#000000ff" font-size="12" y="400" x="100">在</text>
		<text fill="#000000ff" font-size="12" y="412" x="100">竹</text>
		<text fill="#000000ff" font-size="12" y="424" x="100">白</text>
		<text fill="#000000ff" font-size="12" y="436" x="100">驹</text>
		<text fill="#000000ff" font-size="12" y="448" x="100">食</text>
		<text fill="#000000ff" font-size="12" y="460" x="100">
</text>
		<text fill="#000000ff" font-size="12" y="472" x="100">场</text>
		<text fill="#000000ff" font-size="12" y="160" x="112">化</text>
		<text fill="#000000ff" font-size="12" y="220" x="112">被</text>
		<text fill="#000000ff" font-size="12" y="256" x="112">草</text>
		<text fill="#000000ff" font-size="12" y="280" x="112">木</text>
		<text fill="#000000ff" font-size="12" y="316" x="112">赖</text>
		<text fill="#000000ff" font-size="12" y="340" x="112">及</text>
		<text fill="#000000ff" font-size="12" y="364" x="112">万</text>
		<text fill="#000000ff" font-size="12" y="376" x="112">方</text>
		<text fill="#000000ff" font-size="12" y="40" x="124">盖</text>
		<text fill="#000000ff" font-size="12" y="52" x="124">此</text>
		<text fill="#000000ff" font-size="12" y="64" x="124">身</text>
		<text fill="#000000ff" font-size="12" y="100" x="124">发</text>
		<text fill="#000000ff" font-size="12" y="112" x="124">四</text>
		<text fill="#000000ff" font-size="12" y="124" x="124">大</text>
		<text fill="#000000ff" font-size="12" y="136" x="124">五</text>
		<text fill="#000000ff" font-size="12" y="160" x="124">常</text>
		<text fill="#000000ff" font-size="12" y="184" x="124">恭</text>
		<text fill="#000000ff" font-size="12" y="208" x="124">惟</text>
		<text fill="#000000ff" font-size="12" y="220" x="124">鞠</text>
		<text fill="#000000ff" font-size="12" y="232" x="124">养</text>
		<text fill="#000000ff" font-size="12" y="244" x="124">岂</text>
		<text fill="#000000ff" font-size="12" y="256" x="124">敢</text>
		<text fill="#000000ff" font-size="12" y="268" x="124">毁</text>
		<text fill="#000000ff" font-size="12" y="328" x="124">伤</text>
		<text fill="#000000ff" font-size="12" y="340" x="124">女</text>
		<text fill="#000000ff" font-size="12" y="352" x="124">慕</text>
		<text fill="#000000ff" font-size="12" y="376" x="124">贞</text>
		<text fill="#000000ff" font-size="12" y="388" x="124">洁</text>
		<text fill="#000000ff" font-size="12" y="424" x="124">男</text>
		<text fill="#000000ff" font-size="12" y="436" x="124">效</text>
		<text fill="#000000ff" font-size="12" y="448" x="124">才</text>
		<text fill="#000000ff" font-size="12" y="64" x="136">良</text>
		<text fill="#000000ff" font-size="12" y="100" x="136">知</text>
		<text fill="#000000ff" font-size="12" y="124" x="136">过</text>
		<text fill="#000000ff" font-size="12" y="148" x="136">必</text>
		<text fill="#000000ff" font-size="12" y="160" x="136">改</text>
		<text fill="#000000ff" font-size="12" y="172" x="136">得</text>
		<text fill="#000000ff" font-size="12" y="184" x="136">能</text>
		<text fill="#000000ff" font-size="12" y="208" x="136">莫</text>
		<text fill="#000000ff" font-size="12" y="220" x="136">忘</text>
		<text fill="#000000ff" font-size="12" y="256" x="136">罔</text>
		<text fill="#000000ff" font-size="12" y="280" x="136">谈</text>
		<text fill="#000000ff" font-size="12" y="292" x="136">彼</text>
		<text fill="#000000ff" font-size="12" y="304" x="136">短</text>
		<text fill="#000000ff" font-size="12" y="316" x="136">靡</text>
		<text fill="#000000ff" font-size="12" y="328" x="136">恃</text>
		<text fill="#000000ff" font-size="12" y="340" x="136">己</text>
		<text fill="#000000ff" font-size="12" y="388" x="136">长</text>
		<text fill="#000000ff" font-size="12" y="424" x="136">信</text>
		<text fill="#000000ff" font-size="12" y="52" x="148">使</text>
		<text fill="#000000ff" font-size="12" y="64" x="148">可</text>
		<text fill="#000000ff" font-size="12" y="76" x="148">覆</text>
		<text fill="#000000ff" font-size="12" y="88" x="148">器</text>
		<text fill="#000000ff" font-size="12" y="100" x="148">欲</text>
		<text fill="#000000ff" font-size="12" y="112" x="148">难</text>
		<text fill="#000000ff" font-size="12" y="124" x="148">量</text>
		<text fill="#000000ff" font-size="12" y="136" x="148">墨</text>
		<text fill="#000000ff" font-size="12" y="160" x="148">悲</text>
		<text fill="#000000ff" font-size="12" y="172" x="148">丝</text>
		<text fill="#000000ff" font-size="12" y="184" x="148">染</text>
		<text fill="#000000ff" font-size="12" y="196" x="148">诗</text>
		<text fill="#000000ff" font-size="12" y="220" x="148">赞</text>
		<text fill="#000000ff" font-size="12" y="232" x="148">羔</text>
		<text fill="#000000ff" font-size="12" y="256" x="148">羊</text>
		<text fill="#000000ff" font-size="12" y="268" x="148">景</text>
		<text fill="#000000ff" font-size="12" y="304" x="148">行</text>
		<text fill="#000000ff" font-size="12" y="328" x="148">维</text>
		<text fill="#000000ff" font-size="12" y="340" x="148">贤</text>
		<text fill="#000000ff" font-size="12" y="376" x="148">克</text>
		<text fill="#000000ff" font-size="12" y="388" x="148">念</text>
		<text fill="#000000ff" font-size="12" y="400" x="148">作</text>
		<text fill="#000000ff" font-size="12" y="412" x="148">圣</text>
		<text fill="#000000ff" font-size="12" y="436" x="148">德</text>
		<text fill="#000000ff" font-size="12" y="460" x="148">建</text>
		<text fill="#000000ff" font-size="12" y="64" x="160">名</text>
		<text fill="#000000ff" font-size="12" y="76" x="160">立</text>
		<text fill="#000000ff" font-size="12" y="88" x="160">形</text>
		<text fill="#000000ff" font-size="12" y="124" x="160">端</text>
		<text fill="#000000ff" font-size="12" y="136" x="160">表</text>
		<text fill="#000000ff" font-size="12" y="160" x="160">正</text>
		<text fill="#000000ff" font-size="12" y="196" x="160">空</text>
		<text fill="#000000ff" font-size="12" y="208" x="160">谷</text>
		<text fill="#000000ff" font-size="12" y="220" x="160">传</text>
		<text fill="#000000ff" font-size="12" y="268" x="160">声</text>
		<text fill="#000000ff" font-size="12" y="292" x="160">虚</text>
		<text fill="#000000ff" font-size="12" y="340" x="160">堂</text>
		<text fill="#000000ff" font-size="12" y="352" x="160">习</text>
		<text fill="#000000ff" font-size="12" y="376" x="160">听</text>
		<text fill="#000000ff" font-size="12" y="388" x="160">祸</text>
		<text fill="#000000ff" font-size="12" y="52" x="172">因</text>
		<text fill="#000000ff" font-size="12" y="64" x="172">恶</text>
		<text fill="#000000ff" font-size="12" y="76" x="172">积</text>
		<text fill="#000000ff" font-size="12" y="88" x="172">福</text>
		<text fill="#000000ff" font-size="12" y="112" x="172">缘</text>
		<text fill="#000000ff" font-size="12" y="124" x="172">善</text>
		<text fill="#000000ff" font-size="12" y="136" x="172">庆</text>
		<text fill="#000000ff" font-size="12" y="148" x="172">尺</text>
		<text fill="#000000ff" font-size="12" y="196" x="172">璧</text>
		<text fill="#000000ff" font-size="12" y="208" x="172">非</text>
		<text fill="#000000ff" font-size="12" y="220" x="172">宝</text>
		<text fill="#000000ff" font-size="12" y="256" x="172">寸</text>
		<text fill="#000000ff" font-size="12" y="304" x="172">阴</text>
		<text fill="#000000ff" font-size="12" y="316" x="172">是</text>
		<text fill="#000000ff" font-size="12" y="328" x="172">竞</text>
		<text fill="#000000ff" font-size="12" y="376" x="172">资</text>
		<text fill="#000000ff" font-size="12" y="400" x="172">父</text>
		<text fill="#000000ff" font-size="12" y="424" x="172">事</text>
		<text fill="#000000ff" font-size="12" y="436" x="172">君</text>
		<text fill="#000000ff" font-size="12" y="448" x="172">曰</text>
		<text fill="#000000ff" font-size="12" y="460" x="172">严</text>
		<text fill="#000000ff" font-size="12" y="472" x="172">与</text>
		<text fill="#000000ff" font-size="12" y="88" x="184">敬</text>
		<text fill="#000000ff" font-size="12" y="136" x="184">孝</text>
		<text fill="#000000ff" font-size="12" y="148" x="184">当</text>
		<text fill="#000000ff" font-size="12" y="172" x="184">竭</text>
		<text fill="#000000ff" font-size="12" y="184" x="184">力</text>
		<text fill="#000000ff" font-size="12" y="220" x="184">忠</text>
		<text fill="#000000ff" font-size="12" y="232" x="184">则</text>
		<text fill="#000000ff" font-size="12" y="256" x="184">尽</text>
		<text fill="#000000ff" font-size="12" y="268" x="184">命</text>
		<text fill="#000000ff" font-size="12" y="280" x="184">临</text>
		<text fill="#000000ff" font-size="12" y="292" x="184">深</text>
		<text fill="#000000ff" font-size="12" y="304" x="184">履</text>
		<text fill="#000000ff" font-size="12" y="316" x="184">薄</text>
		<text fill="#000000ff" font-size="12" y="328" x="184">夙</text>
		<text fill="#000000ff" font-size="12" y="364" x="184">兴</text>
		<text fill="#000000ff" font-size="12" y="412" x="184">温</text>
		<text fill="#000000ff" font-size="12" y="424" x="184">凊</text>
		<text fill="#000000ff" font-size="12" y="448" x="184">似</text>
		<text fill="#000000ff" font-size="12" y="472" x="184">兰</text>
		<text fill="#000000ff" font-size="12" y="64" x="196">斯</text>
		<text fill="#000000ff" font-size="12" y="76" x="196">馨</text>
		<text fill="#000000ff" font-size="12" y="100" x="196">如</text>
		<text fill="#000000ff" font-size="12" y="112" x="196">松</text>
		<text fill="#000000ff" font-size="12" y="124" x="196">
</text>
		<text fill="#000000ff" font-size="12" y="148" x="196">之</text>
		<text fill="#000000ff" font-size="12" y="184" x="196">盛</text>
		<text fill="#000000ff" font-size="12" y="196" x="196">川</text>
		<text fill="#000000ff" font-size="12" y="208" x="196">流</text>
		<text fill="#000000ff" font-size="12" y="220" x="196">不</text>
		<text fill="#000000ff" font-size="12" y="244" x="196">息</text>
		<text fill="#000000ff" font-size="12" y="304" x="196">渊</text>
		<text fill="#000000ff" font-size="12" y="328" x="196">澄</text>
		<text fill="#000000ff" font-size="12" y="340" x="196">取</text>
		<text fill="#000000ff" font-size="12" y="352" x="196">映</text>
		<text fill="#000000ff" font-size="12" y="388" x="196">容</text>
		<text fill="#000000ff" font-size="12" y="424" x="196">止</text>
		<text fill="#000000ff" font-size="12" y="436" x="196">若</text>
		<text fill="#000000ff" font-size="12" y="472" x="196">思</text>
		<text fill="#000000ff" font-size="12" y="40" x="208">言</text>
		<text fill="#000000ff" font-size="12" y="64" x="208">辞</text>
		<text fill="#000000ff" font-size="12" y="136" x="208">安</text>
		<text fill="#000000ff" font-size="12" y="148" x="208">定</text>
		<text fill="#000000ff" font-size="12" y="160" x="208">笃</text>
		<text fill="#000000ff" font-size="12" y="184" x="208">初</text>
		<text fill="#000000ff" font-size="12" y="208" x="208">诚</text>
		<text fill="#000000ff" font-size="12" y="220" x="208">美</text>
		<text fill="#000000ff" font-size="12" y="232" x="208">慎</text>
		<text fill="#000000ff" font-size="12" y="256" x="208">终</text>
		<text fill="#000000ff" font-size="12" y="280" x="208">宜</text>
		<text fill="#000000ff" font-size="12" y="304" x="208">令</text>
		<text fill="#000000ff" font-size="12" y="316" x="208">荣</text>
		<text fill="#000000ff" font-size="12" y="352" x="208">业</text>
		<text fill="#000000ff" font-size="12" y="364" x="208">所</text>
		<text fill="#000000ff" font-size="12" y="412" x="208">基</text>
		<text fill="#000000ff" font-size="12" y="448" x="208">籍</text>
		<text fill="#000000ff" font-size="12" y="64" x="220">甚</text>
		<text fill="#000000ff" font-size="12" y="112" x="220">无</text>
		<text fill="#000000ff" font-size="12" y="136" x="220">竟</text>
		<text fill="#000000ff" font-size="12" y="196" x="220">学</text>
		<text fill="#000000ff" font-size="12" y="220" x="220">优</text>
		<text fill="#000000ff" font-size="12" y="232" x="220">登</text>
		<text fill="#000000ff" font-size="12" y="256" x="220">仕</text>
		<text fill="#000000ff" font-size="12" y="268" x="220">摄</text>
		<text fill="#000000ff" font-size="12" y="280" x="220">职</text>
		<text fill="#000000ff" font-size="12" y="292" x="220">从</text>
		<text fill="#000000ff" font-size="12" y="304" x="220">政</text>
		<text fill="#000000ff" font-size="12" y="340" x="220">存</text>
		<text fill="#000000ff" font-size="12" y="376" x="220">以</text>
		<text fill="#000000ff" font-size="12" y="388" x="220">甘</text>
		<text fill="#000000ff" font-size="12" y="400" x="220">棠</text>
		<text fill="#000000ff" font-size="12" y="424" x="220">去</text>
		<text fill="#000000ff" font-size="12" y="472" x="220">而</text>
		<text fill="#000000ff" font-size="12" y="52" x="232">益</text>
		<text fill="#000000ff" font-size="12" y="100" x="232">咏</text>
		<text fill="#000000ff" font-size="12" y="124" x="232">乐</text>
		<text fill="#000000ff" font-size="12" y="184" x="232">殊</text>
		<text fill="#000000ff" font-size="12" y="208" x="232">贵</text>
		<text fill="#000000ff" font-size="12" y="220" x="232">贱</text>
		<text fill="#000000ff" font-size="12" y="232" x="232">礼</text>
		<text fill="#000000ff" font-size="12" y="244" x="232">别</text>
		<text fill="#000000ff" font-size="12" y="292" x="232">尊</text>
		<text fill="#000000ff" font-size="12" y="304" x="232">卑</text>
		<text fill="#000000ff" font-size="12" y="316" x="232">上</text>
		<text fill="#000000ff" font-size="12" y="328" x="232">和</text>
		<text fill="#000000ff" font-size="12" y="352" x="232">下</text>
		<text fill="#000000ff" font-size="12" y="364" x="232">睦</text>
		<text fill="#000000ff" font-size="12" y="376" x="232">夫</text>
		<text fill="#000000ff" font-size="12" y="388" x="232">唱</text>
		<text fill="#000000ff" font-size="12" y="424" x="232">妇</text>
		<text fill="#000000ff" font-size="12" y="52" x="244">随</text>
		<text fill="#000000ff" font-size="12" y="76" x="244">外</text>
		<text fill="#000000ff" font-size="12" y="100" x="244">受</text>
		<text fill="#000000ff" font-size="12" y="112" x="244">傅</text>
		<text fill="#000000ff" font-size="12" y="136" x="244">训</text>
		<text fill="#000000ff" font-size="12" y="160" x="244">入</text>
		<text fill="#000000ff" font-size="12" y="172" x="244">奉</text>
		<text fill="#000000ff" font-size="12" y="220" x="244">母</text>
		<text fill="#000000ff" font-size="12" y="232" x="244">仪</text>
		<text fill="#000000ff" font-size="12" y="316" x="244">诸</text>
		<text fill="#000000ff" font-size="12" y="352" x="244">姑</text>
		<text fill="#000000ff" font-size="12" y="364" x="244">伯</text>
		<text fill="#000000ff" font-size="12" y="376" x="244">叔</text>
		<text fill="#000000ff" font-size="12" y="388" x="244">犹</text>
		<text fill="#000000ff" font-size="12" y="400" x="244">子</text>
		<text fill="#000000ff" font-size="12" y="436" x="244">比</text>
		<text fill="#000000ff" font-size="12" y="448" x="244">儿</text>
		<text fill="#000000ff" font-size="12" y="460" x="244">孔</text>
		<text fill="#000000ff" font-size="12" y="52" x="256">怀</text>
		<text fill="#000000ff" font-size="12" y="76" x="256">兄</text>
		<text fill="#000000ff" font-size="12" y="88" x="256">弟</text>
		<text fill="#000000ff" font-size="12" y="148" x="256">同</text>
		<text fill="#000000ff" font-size="12" y="160" x="256">气</text>
		<text fill="#000000ff" font-size="12" y="172" x="256">连</text>
		<text fill="#000000ff" font-size="12" y="292" x="256">枝</text>
		<text fill="#000000ff" font-size="12" y="304" x="256">交</text>
		<text fill="#000000ff" font-size="12" y="328" x="256">友</text>
		<text fill="#000000ff" font-size="12" y="352" x="256">投</text>
		<text fill="#000000ff" font-size="12" y="364" x="256">分</text>
		<text fill="#000000ff" font-size="12" y="376" x="256">切</text>
		<text fill="#000000ff" font-size="12" y="400" x="256">磨</text>
		<text fill="#000000ff" font-size="12" y="412" x="256">箴</text>
		<text fill="#000000ff" font-size="12" y="424" x="256">规</text>
		<text fill="#000000ff" font-size="12" y="448" x="256">仁</text>
		<text fill="#000000ff" font-size="12" y="472" x="256">慈</text>
		<text fill="#000000ff" font-size="12" y="52" x="268">隐</text>
		<text fill="#000000ff" font-size="12" y="76" x="268">恻</text>
		<text fill="#000000ff" font-size="12" y="100" x="268">造</text>
		<text fill="#000000ff" font-size="12" y="112" x="268">次</text>
		<text fill="#000000ff" font-size="12" y="124" x="268">弗</text>
		<text fill="#000000ff" font-size="12" y="184" x="268">离</text>
		<text fill="#000000ff" font-size="12" y="256" x="268">节</text>
		<text fill="#000000ff" font-size="12" y="268" x="268">义</text>
		<text fill="#000000ff" font-size="12" y="280" x="268">廉</text>
		<text fill="#000000ff" font-size="12" y="292" x="268">退</text>
		<text fill="#000000ff" font-size="12" y="376" x="268">颠</text>
		<text fill="#000000ff" font-size="12" y="460" x="268">沛</text>
		<text fill="#000000ff" font-size="12" y="40" x="280">匪</text>
		<text fill="#000000ff" font-size="12" y="64" x="280">亏</text>
		<text fill="#000000ff" font-size="12" y="88" x="280">性</text>
		<text fill="#000000ff" font-size="12" y="100" x="280">静</text>
		<text fill="#000000ff" font-size="12" y="124" x="280">情</text>
		<text fill="#000000ff" font-size="12" y="136" x="280">逸</text>
		<text fill="#000000ff" font-size="12" y="184" x="280">心</text>
		<text fill="#000000ff" font-size="12" y="208" x="280">动</text>
		<text fill="#000000ff" font-size="12" y="232" x="280">神</text>
		<text fill="#000000ff" font-size="12" y="244" x="280">疲</text>
		<text fill="#000000ff" font-size="12" y="268" x="280">守</text>
		<text fill="#000000ff" font-size="12" y="280" x="280">真</text>
		<text fill="#000000ff" font-size="12" y="292" x="280">志</text>
		<text fill="#000000ff" font-size="12" y="316" x="280">满</text>
		<text fill="#000000ff" font-size="12" y="328" x="280">逐</text>
		<text fill="#000000ff" font-size="12" y="352" x="280">物</text>
		<text fill="#000000ff" font-size="12" y="364" x="280">意</text>
		<text fill="#000000ff" font-size="12" y="376" x="280">移</text>
		<text fill="#000000ff" font-size="12" y="412" x="280">坚</text>
		<text fill="#000000ff" font-size="12" y="424" x="280">持</text>
		<text fill="#000000ff" font-size="12" y="448" x="280">雅</text>
		<text fill="#000000ff" font-size="12" y="460" x="280">操</text>
		<text fill="#000000ff" font-size="12" y="76" x="292">好</text>
		<text fill="#000000ff" font-size="12" y="88" x="292">
</text>
		<text fill="#000000ff" font-size="12" y="112" x="292">爵</text>
		<text fill="#000000ff" font-size="12" y="184" x="292">自</text>
		<text fill="#000000ff" font-size="12" y="196" x="292">縻</text>
		<text fill="#000000ff" font-size="12" y="220" x="292">都</text>
		<text fill="#000000ff" font-size="12" y="244" x="292">邑</text>
		<text fill="#000000ff" font-size="12" y="316" x="292">华</text>
		<text fill="#000000ff" font-size="12" y="328" x="292">夏</text>
		<text fill="#000000ff" font-size="12" y="424" x="292">东</text>
		<text fill="#000000ff" font-size="12" y="460" x="292">西</text>
		<text fill="#000000ff" font-size="12" y="472" x="292">二</text>
		<text fill="#000000ff" font-size="12" y="40" x="304">京</text>
		<text fill="#000000ff" font-size="12" y="52" x="304">背</text>
		<text fill="#000000ff" font-size="12" y="76" x="304">邙</text>
		<text fill="#000000ff" font-size="12" y="148" x="304">面</text>
		<text fill="#000000ff" font-size="12" y="172" x="304">洛</text>
		<text fill="#000000ff" font-size="12" y="184" x="304">浮</text>
		<text fill="#000000ff" font-size="12" y="208" x="304">渭</text>
		<text fill="#000000ff" font-size="12" y="220" x="304">据</text>
		<text fill="#000000ff" font-size="12" y="232" x="304">泾</text>
		<text fill="#000000ff" font-size="12" y="244" x="304">宫</text>
		<text fill="#000000ff" font-size="12" y="292" x="304">殿</text>
		<text fill="#000000ff" font-size="12" y="304" x="304">盘</text>
		<text fill="#000000ff" font-size="12" y="328" x="304">郁</text>
		<text fill="#000000ff" font-size="12" y="352" x="304">楼</text>
		<text fill="#000000ff" font-size="12" y="436" x="304">观</text>
		<text fill="#000000ff" font-size="12" y="448" x="304">飞</text>
		<text fill="#000000ff" font-size="12" y="460" x="304">惊</text>
		<text fill="#000000ff" font-size="12" y="40" x="316">图</text>
		<text fill="#000000ff" font-size="12" y="76" x="316">写</text>
		<text fill="#000000ff" font-size="12" y="88" x="316">禽</text>
		<text fill="#000000ff" font-size="12" y="112" x="316">兽</text>
		<text fill="#000000ff" font-size="12" y="172" x="316">画</text>
		<text fill="#000000ff" font-size="12" y="208" x="316">彩</text>
		<text fill="#000000ff" font-size="12" y="220" x="316">仙</text>
		<text fill="#000000ff" font-size="12" y="232" x="316">灵</text>
		<text fill="#000000ff" font-size="12" y="244" x="316">丙</text>
		<text fill="#000000ff" font-size="12" y="268" x="316">舍</text>
		<text fill="#000000ff" font-size="12" y="292" x="316">旁</text>
		<text fill="#000000ff" font-size="12" y="316" x="316">启</text>
		<text fill="#000000ff" font-size="12" y="328" x="316">甲</text>
		<text fill="#000000ff" font-size="12" y="340" x="316">帐</text>
		<text fill="#000000ff" font-size="12" y="352" x="316">对</text>
		<text fill="#000000ff" font-size="12" y="400" x="316">楹</text>
		<text fill="#000000ff" font-size="12" y="448" x="316">肆</text>
		<text fill="#000000ff" font-size="12" y="472" x="316">筵</text>
		<text fill="#000000ff" font-size="12" y="52" x="328">设</text>
		<text fill="#000000ff" font-size="12" y="100" x="328">席</text>
		<text fill="#000000ff" font-size="12" y="124" x="328">鼓</text>
		<text fill="#000000ff" font-size="12" y="160" x="328">瑟</text>
		<text fill="#000000ff" font-size="12" y="172" x="328">吹</text>
		<text fill="#000000ff" font-size="12" y="184" x="328">笙</text>
		<text fill="#000000ff" font-size="12" y="208" x="328">升</text>
		<text fill="#000000ff" font-size="12" y="232" x="328">阶</text>
		<text fill="#000000ff" font-size="12" y="304" x="328">纳</text>
		<text fill="#000000ff" font-size="12" y="328" x="328">陛</text>
		<text fill="#000000ff" font-size="12" y="352" x="328">弁</text>
		<text fill="#000000ff" font-size="12" y="376" x="328">转</text>
		<text fill="#000000ff" font-size="12" y="400" x="328">疑</text>
		<text fill="#000000ff" font-size="12" y="412" x="328">星</text>
		<text fill="#000000ff" font-size="12" y="424" x="328">右</text>
		<text fill="#000000ff" font-size="12" y="52" x="340">通</text>
		<text fill="#000000ff" font-size="12" y="88" x="340">广</text>
		<text fill="#000000ff" font-size="12" y="112" x="340">内</text>
		<text fill="#000000ff" font-size="12" y="124" x="340">左</text>
		<text fill="#000000ff" font-size="12" y="148" x="340">达</text>
		<text fill="#000000ff" font-size="12" y="184" x="340">承</text>
		<text fill="#000000ff" font-size="12" y="196" x="340">明</text>
		<text fill="#000000ff" font-size="12" y="208" x="340">既</text>
		<text fill="#000000ff" font-size="12" y="244" x="340">集</text>
		<text fill="#000000ff" font-size="12" y="256" x="340">坟</text>
		<text fill="#000000ff" font-size="12" y="292" x="340">典</text>
		<text fill="#000000ff" font-size="12" y="316" x="340">亦</text>
		<text fill="#000000ff" font-size="12" y="340" x="340">聚</text>
		<text fill="#000000ff" font-size="12" y="352" x="340">群</text>
		<text fill="#000000ff" font-size="12" y="364" x="340">英</text>
		<text fill="#000000ff" font-size="12" y="376" x="340">杜</text>
		<text fill="#000000ff" font-size="12" y="388" x="340">稿</text>
		<text fill="#000000ff" font-size="12" y="400" x="340">钟</text>
		<text fill="#000000ff" font-size="12" y="424" x="340">隶</text>
		<text fill="#000000ff" font-size="12" y="436" x="340">漆</text>
		<text fill="#000000ff" font-size="12" y="448" x="340">书</text>
		<text fill="#000000ff" font-size="12" y="460" x="340">壁</text>
		<text fill="#000000ff" font-size="12" y="76" x="352">经</text>
		<text fill="#000000ff" font-size="12" y="136" x="352">府</text>
		<text fill="#000000ff" font-size="12" y="148" x="352">罗</text>
		<text fill="#000000ff" font-size="12" y="172" x="352">将</text>
		<text fill="#000000ff" font-size="12" y="184" x="352">相</text>
		<text fill="#000000ff" font-size="12" y="208" x="352">路</text>
		<text fill="#000000ff" font-size="12" y="232" x="352">侠</text>
		<text fill="#000000ff" font-size="12" y="244" x="352">槐</text>
		<text fill="#000000ff" font-size="12" y="256" x="352">卿</text>
		<text fill="#000000ff" font-size="12" y="280" x="352">户</text>
		<text fill="#000000ff" font-size="12" y="328" x="352">封</text>
		<text fill="#000000ff" font-size="12" y="352" x="352">八</text>
		<text fill="#000000ff" font-size="12" y="376" x="352">县</text>
		<text fill="#000000ff" font-size="12" y="400" x="352">家</text>
		<text fill="#000000ff" font-size="12" y="412" x="352">给</text>
		<text fill="#000000ff" font-size="12" y="448" x="352">千</text>
		<text fill="#000000ff" font-size="12" y="472" x="352">兵</text>
		<text fill="#000000ff" font-size="12" y="40" x="364">高</text>
		<text fill="#000000ff" font-size="12" y="76" x="364">冠</text>
		<text fill="#000000ff" font-size="12" y="88" x="364">陪</text>
		<text fill="#000000ff" font-size="12" y="112" x="364">辇</text>
		<text fill="#000000ff" font-size="12" y="148" x="364">驱</text>
		<text fill="#000000ff" font-size="12" y="172" x="364">毂</text>
		<text fill="#000000ff" font-size="12" y="184" x="364">振</text>
		<text fill="#000000ff" font-size="12" y="196" x="364">缨</text>
		<text fill="#000000ff" font-size="12" y="208" x="364">世</text>
		<text fill="#000000ff" font-size="12" y="220" x="364">禄</text>
		<text fill="#000000ff" font-size="12" y="232" x="364">侈</text>
		<text fill="#000000ff" font-size="12" y="256" x="364">富</text>
		<text fill="#000000ff" font-size="12" y="268" x="364">车</text>
		<text fill="#000000ff" font-size="12" y="304" x="364">驾</text>
		<text fill="#000000ff" font-size="12" y="328" x="364">肥</text>
		<text fill="#000000ff" font-size="12" y="364" x="364">轻</text>
		<text fill="#000000ff" font-size="12" y="376" x="364">策</text>
		<text fill="#000000ff" font-size="12" y="388" x="364">功</text>
		<text fill="#000000ff" font-size="12" y="400" x="364">茂</text>
		<text fill="#000000ff" font-size="12" y="412" x="364">实</text>
		<text fill="#000000ff" font-size="12" y="424" x="364">勒</text>
		<text fill="#000000ff" font-size="12" y="436" x="364">碑</text>
		<text fill="#000000ff" font-size="12" y="136" x="376">刻</text>
		<text fill="#000000ff" font-size="12" y="160" x="376">铭</text>
		<text fill="#000000ff" font-size="12" y="172" x="376">盘</text>
		<text fill="#000000ff" font-size="12" y="184" x="376">溪</text>
		<text fill="#000000ff" font-size="12" y="232" x="376">伊</text>
		<text fill="#000000ff" font-size="12" y="256" x="376">尹</text>
		<text fill="#000000ff" font-size="12" y="268" x="376">佐</text>
		<text fill="#000000ff" font-size="12" y="292" x="376">时</text>
		<text fill="#000000ff" font-size="12" y="304" x="376">阿</text>
		<text fill="#000000ff" font-size="12" y="316" x="376">衡</text>
		<text fill="#000000ff" font-size="12" y="328" x="376">奄</text>
		<text fill="#000000ff" font-size="12" y="340" x="376">宅</text>
		<text fill="#000000ff" font-size="12" y="352" x="376">曲</text>
		<text fill="#000000ff" font-size="12" y="364" x="376">阜</text>
		<text fill="#000000ff" font-size="12" y="376" x="376">
</text>
		<text fill="#000000ff" font-size="12" y="424" x="376">微</text>
		<text fill="#000000ff" font-size="12" y="460" x="376">旦</text>
		<text fill="#000000ff" font-size="12" y="472" x="376">孰</text>
		<text fill="#000000ff" font-size="12" y="40" x="388">营</text>
		<text fill="#000000ff" font-size="12" y="52" x="388">桓</text>
		<text fill="#000000ff" font-size="12" y="64" x="388">公</text>
		<text fill="#000000ff" font-size="12" y="76" x="388">匡</text>
		<text fill="#000000ff" font-size="12" y="88" x="388">合</text>
		<text fill="#000000ff" font-size="12" y="100" x="388">济</text>
		<text fill="#000000ff" font-size="12" y="112" x="388">弱</text>
		<text fill="#000000ff" font-size="12" y="136" x="388">扶</text>
		<text fill="#000000ff" font-size="12" y="160" x="388">倾</text>
		<text fill="#000000ff" font-size="12" y="184" x="388">绮</text>
		<text fill="#000000ff" font-size="12" y="196" x="388">回</text>
		<text fill="#000000ff" font-size="12" y="208" x="388">汉</text>
		<text fill="#000000ff" font-size="12" y="256" x="388">惠</text>
		<text fill="#000000ff" font-size="12" y="268" x="388">说</text>
		<text fill="#000000ff" font-size="12" y="280" x="388">感</text>
		<text fill="#000000ff" font-size="12" y="304" x="388">武</text>
		<text fill="#000000ff" font-size="12" y="316" x="388">丁</text>
		<text fill="#000000ff" font-size="12" y="328" x="388">俊</text>
		<text fill="#000000ff" font-size="12" y="340" x="388">义</text>
		<text fill="#000000ff" font-size="12" y="352" x="388">密</text>
		<text fill="#000000ff" font-size="12" y="376" x="388">勿</text>
		<text fill="#000000ff" font-size="12" y="400" x="388">多</text>
		<text fill="#000000ff" font-size="12" y="424" x="388">士</text>
		<text fill="#000000ff" font-size="12" y="436" x="388">实</text>
		<text fill="#000000ff" font-size="12" y="448" x="388">宁</text>
		<text fill="#000000ff" font-size="12" y="460" x="388">晋</text>
		<text fill="#000000ff" font-size="12" y="40" x="400">楚</text>
		<text fill="#000000ff" font-size="12" y="112" x="400">更</text>
		<text fill="#000000ff" font-size="12" y="136" x="400">霸</text>
		<text fill="#000000ff" font-size="12" y="160" x="400">赵</text>
		<text fill="#000000ff" font-size="12" y="172" x="400">魏</text>
		<text fill="#000000ff" font-size="12" y="196" x="400">困</text>
		<text fill="#000000ff" font-size="12" y="220" x="400">横</text>
		<text fill="#000000ff" font-size="12" y="244" x="400">假</text>
		<text fill="#000000ff" font-size="12" y="268" x="400">途</text>
		<text fill="#000000ff" font-size="12" y="292" x="400">灭</text>
		<text fill="#000000ff" font-size="12" y="304" x="400">虢</text>
		<text fill="#000000ff" font-size="12" y="316" x="400">践</text>
		<text fill="#000000ff" font-size="12" y="352" x="400">土</text>
		<text fill="#000000ff" font-size="12" y="376" x="400">会</text>
		<text fill="#000000ff" font-size="12" y="424" x="400">盟</text>
		<text fill="#000000ff" font-size="12" y="436" x="400">何</text>
		<text fill="#000000ff" font-size="12" y="448" x="400">遵</text>
		<text fill="#000000ff" font-size="12" y="40" x="412">约</text>
		<text fill="#000000ff" font-size="12" y="64" x="412">法</text>
		<text fill="#000000ff" font-size="12" y="76" x="412">韩</text>
		<text fill="#000000ff" font-size="12" y="88" x="412">弊</text>
		<text fill="#000000ff" font-size="12" y="112" x="412">烦</text>
		<text fill="#000000ff" font-size="12" y="160" x="412">刑</text>
		<text fill="#000000ff" font-size="12" y="184" x="412">起</text>
		<text fill="#000000ff" font-size="12" y="232" x="412">翦</text>
		<text fill="#000000ff" font-size="12" y="244" x="412">颇</text>
		<text fill="#000000ff" font-size="12" y="256" x="412">牧</text>
		<text fill="#000000ff" font-size="12" y="304" x="412">用</text>
		<text fill="#000000ff" font-size="12" y="340" x="412">军</text>
		<text fill="#000000ff" font-size="12" y="352" x="412">最</text>
		<text fill="#000000ff" font-size="12" y="376" x="412">精</text>
		<text fill="#000000ff" font-size="12" y="388" x="412">宣</text>
		<text fill="#000000ff" font-size="12" y="400" x="412">威</text>
		<text fill="#000000ff" font-size="12" y="412" x="412">沙</text>
		<text fill="#000000ff" font-size="12" y="424" x="412">漠</text>
		<text fill="#000000ff" font-size="12" y="436" x="412">驰</text>
		<text fill="#000000ff" font-size="12" y="448" x="412">誉</text>
		<text fill="#000000ff" font-size="12" y="460" x="412">丹</text>
		<text fill="#000000ff" font-size="12" y="40" x="424">青</text>
		<text fill="#000000ff" font-size="12" y="64" x="424">九</text>
		<text fill="#000000ff" font-size="12" y="76" x="424">州</text>
		<text fill="#000000ff" font-size="12" y="88" x="424">禹</text>
		<text fill="#000000ff" font-size="12" y="112" x="424">迹</text>
		<text fill="#000000ff" font-size="12" y="148" x="424">百</text>
		<text fill="#000000ff" font-size="12" y="172" x="424">郡</text>
		<text fill="#000000ff" font-size="12" y="196" x="424">秦</text>
		<text fill="#000000ff" font-size="12" y="208" x="424">并</text>
		<text fill="#000000ff" font-size="12" y="220" x="424">岳</text>
		<text fill="#000000ff" font-size="12" y="268" x="424">宗</text>
		<text fill="#000000ff" font-size="12" y="280" x="424">泰</text>
		<text fill="#000000ff" font-size="12" y="316" x="424">岱</text>
		<text fill="#000000ff" font-size="12" y="328" x="424">禅</text>
		<text fill="#000000ff" font-size="12" y="340" x="424">主</text>
		<text fill="#000000ff" font-size="12" y="400" x="424">云</text>
		<text fill="#000000ff" font-size="12" y="412" x="424">亭</text>
		<text fill="#000000ff" font-size="12" y="424" x="424">雁</text>
		<text fill="#000000ff" font-size="12" y="448" x="424">门</text>
		<text fill="#000000ff" font-size="12" y="460" x="424">紫</text>
		<text fill="#000000ff" font-size="12" y="40" x="436">塞</text>
		<text fill="#000000ff" font-size="12" y="64" x="436">鸡</text>
		<text fill="#000000ff" font-size="12" y="76" x="436">田</text>
		<text fill="#000000ff" font-size="12" y="88" x="436">赤</text>
		<text fill="#000000ff" font-size="12" y="112" x="436">诚</text>
		<text fill="#000000ff" font-size="12" y="136" x="436">昆</text>
		<text fill="#000000ff" font-size="12" y="160" x="436">池</text>
		<text fill="#000000ff" font-size="12" y="208" x="436">碣</text>
		<text fill="#000000ff" font-size="12" y="220" x="436">石</text>
		<text fill="#000000ff" font-size="12" y="232" x="436">钜</text>
		<text fill="#000000ff" font-size="12" y="256" x="436">野</text>
		<text fill="#000000ff" font-size="12" y="268" x="436">洞</text>
		<text fill="#000000ff" font-size="12" y="304" x="436">庭</text>
		<text fill="#000000ff" font-size="12" y="328" x="436">旷</text>
		<text fill="#000000ff" font-size="12" y="352" x="436">远</text>
		<text fill="#000000ff" font-size="12" y="376" x="436">绵</text>
		<text fill="#000000ff" font-size="12" y="400" x="436">邈</text>
		<text fill="#000000ff" font-size="12" y="412" x="436">岩</text>
		<text fill="#000000ff" font-size="12" y="448" x="436">岫</text>
		<text fill="#000000ff" font-size="12" y="460" x="436">杳</text>
		<text fill="#000000ff" font-size="12" y="40" x="448">冥</text>
		<text fill="#000000ff" font-size="12" y="112" x="448">治</text>
		<text fill="#000000ff" font-size="12" y="136" x="448">本</text>
		<text fill="#000000ff" font-size="12" y="148" x="448">于</text>
		<text fill="#000000ff" font-size="12" y="160" x="448">农</text>
		<text fill="#000000ff" font-size="12" y="196" x="448">务</text>
		<text fill="#000000ff" font-size="12" y="232" x="448">兹</text>
		<text fill="#000000ff" font-size="12" y="256" x="448">稼</text>
		<text fill="#000000ff" font-size="12" y="292" x="448">穑</text>
		<text fill="#000000ff" font-size="12" y="304" x="448">俶</text>
		<text fill="#000000ff" font-size="12" y="328" x="448">载</text>
		<text fill="#000000ff" font-size="12" y="340" x="448">南</text>
		<text fill="#000000ff" font-size="12" y="352" x="448">亩</text>
		<text fill="#000000ff" font-size="12" y="376" x="448">我</text>
		<text fill="#000000ff" font-size="12" y="388" x="448">艺</text>
		<text fill="#000000ff" font-size="12" y="400" x="448">黍</text>
		<text fill="#000000ff" font-size="12" y="424" x="448">稷</text>
		<text fill="#000000ff" font-size="12" y="436" x="448">税</text>
		<text fill="#000000ff" font-size="12" y="460" x="448">熟</text>
		<text fill="#000000ff" font-size="12" y="472" x="448">贡</text>
		<text fill="#000000ff" font-size="12" y="40" x="460">新</text>
		<text fill="#000000ff" font-size="12" y="52" x="460">劝</text>
		<text fill="#000000ff" font-size="12" y="64" x="460">赏</text>
		<text fill="#000000ff" font-size="12" y="76" x="460">黜</text>
		<text fill="#000000ff" font-size="12" y="88" x="460">陟</text>
		<text fill="#000000ff" font-size="12" y="100" x="460">孟</text>
		<text fill="#000000ff" font-size="12" y="112" x="460">轲</text>
		<text fill="#000000ff" font-size="12" y="136" x="460">敦</text>
		<text fill="#000000ff" font-size="12" y="184" x="460">
</text>
		<text fill="#000000ff" font-size="12" y="196" x="460">素</text>
		<text fill="#000000ff" font-size="12" y="232" x="460">史</text>
		<text fill="#000000ff" font-size="12" y="244" x="460">鱼</text>
		<text fill="#000000ff" font-size="12" y="256" x="460">秉</text>
		<text fill="#000000ff" font-size="12" y="304" x="460">直</text>
		<text fill="#000000ff" font-size="12" y="328" x="460">庶</text>
		<text fill="#000000ff" font-size="12" y="340" x="460">几</text>
		<text fill="#000000ff" font-size="12" y="376" x="460">中</text>
		<text fill="#000000ff" font-size="12" y="388" x="460">庸</text>
		<text fill="#000000ff" font-size="12" y="400" x="460">劳</text>
		<text fill="#000000ff" font-size="12" y="424" x="460">谦</text>
		<text fill="#000000ff" font-size="12" y="436" x="460">谨</text>
		<text fill="#000000ff" font-size="12" y="448" x="460">敕</text>
		<text fill="#000000ff" font-size="12" y="472" x="460">聆</text>

	</g>
</svg>