<?xml version="1.0" encoding="utf-8"?>
<svg xmlns="http://www.w3.org/2000/svg" xmlns:xlink="http://www.w3.org/1999/xlink" width="300" height="300" viewBox="0 0 300 300">

	<g id="qr">
		<rect fill="#ffffffff" height="300" width="300" y="0" x="0"/>
		<rect fill="#000000ff" height="10" width="10" y="5" x="5"/>
		<rect fill="#000000ff" height="10" width="10" y="15" x="5"/>
		<rect fill="#000000ff" height="10" width="10" y="25" x="5"/>
		<rect fill="#000000ff" height="10" width="10" y="35" x="5"/>
		<rect fill="#000000ff" height="10" width="10" y="45" x="5"/>
		<rect fill="#000000ff" height="10" width="10" y="55" x="5"/>
		<rect fill="#000000ff" height="10" width="10" y="65" x="5"/>
		<rect fill="#000000ff" height="10" width="10" y="225" x="5"/>
		<rect fill="#000000ff" height="10" width="10" y="235" x="5"/>
		<rect fill="#000000ff" height="10" width="10" y="245" x="5"/>
		<rect fill="#000000ff" height="10" width="10" y="255" x="5"/>
		<rect fill="#000000ff" height="10" width="10" y="265" x="5"/>
		<rect fill="#000000ff" height="10" width="10" y="275" x="5"/>
		<rect fill="#000000ff" height="10" width="10" y="285" x="5"/>
		<rect fill="#000000ff" height="10" width="10" y="5" x="15"/>
		<rect fill="#000000ff" height="10" width="10" y="65" x="15"/>
		<rect fill="#000000ff" height="10" width="10" y="225" x="15"/>
		<rect fill="#000000ff" height="10" width="10" y="285" x="15"/>
		<rect fill="#000000ff" height="10" width="10" y="5" x="25"/>
		<rect fill="#000000ff" height="10" width="10" y="25" x="25"/>
		<rect fill="#000000ff" height="10" width="10" y="35" x="25"/>
		<rect fill="#000000ff" height="10" width="10" y="45" x="25"/>
		<rect fill="#000000ff" height="10" width="10" y="65" x="25"/>
		<rect fill="#000000ff" height="10" width="10" y="225" x="25"/>
		<rect fill="#000000ff" height="10" width="10" y="245" x="25"/>
		<rect fill="#000000ff" height="10" width="10" y="255" x="25"/>
		<rect fill="#000000ff" height="10" width="10" y="265" x="25"/>
		<rect fill="#000000ff" height="10" width="10" y="285" x="25"/>
		<rect fill="#000000ff" height="10" width="10" y="5" x="35"/>
		<rect fill="#000000ff" height="10" width="10" y="25" x="35"/>
		<rect fill="#000000ff" height="10" width="10" y="35" x="35"/>
		<rect fill="#000000ff" height="10" width="10" y="45" x="35"/>
		<rect fill="#000000ff" height="10" width="10" y="65" x="35"/>
		<rect fill="#000000ff" height="10" width="10" y="225" x="35"/>
		<rect fill="#000000ff" height="10" width="10" y="245" x="35"/>
		<rect fill="#000000ff" height="10" width="10" y="255" x="35"/>
		<rect fill="#000000ff" height="10" width="10" y="265" x="35"/>
		<rect fill="#000000ff" height="10" width="10" y="285" x="35"/>
		<rect fill="#000000ff" height="10" width="10" y="5" x="45"/>
		<rect fill="#000000ff" height="10" width="10" y="25" x="45"/>
		<rect fill="#000000ff" height="10" width="10" y="35" x="45"/>
		<rect fill="#000000ff" height="10" width="10" y="45" x="45"/>
		<rect fill="#000000ff" height="10" width="10" y="65" x="45"/>
		<rect fill="#000000ff" height="10" width="10" y="225" x="45"/>
		<rect fill="#000000ff" height="10" width="10" y="245" x="45"/>
		<rect fill="#000000ff" height="10" width="10" y="255" x="45"/>
		<rect fill="#000000ff" height="10" width="10" y="265" x="45"/>
		<rect fill="#000000ff" height="10" width="10" y="285" x="45"/>
		<rect fill="#000000ff" height="10" width="10" y="5" x="55"/>
		<rect fill="#000000ff" height="10" width="10" y="65" x="55"/>
		<rect fill="#000000ff" height="10" width="10" y="225" x="55"/>
		<rect fill="#000000ff" height="10" width="10" y="285" x="55"/>
		<rect fill="#000000ff" height="10" width="10" y="5" x="65"/>
		<rect fill="#000000ff" height="10" width="10" y="15" x="65"/>
		<rect fill="#000000ff" height="10" width="10" y="25" x="65"/>
		<rect fill="#000000ff" height="10" width="10" y="35" x="65"/>
		<rect fill="#000000ff" height="10" width="10" y="45" x="65"/>
		<rect fill="#000000ff" height="10" width="10" y="55" x="65"/>
		<rect fill="#000000ff" height="10" width="10" y="65" x="65"/>
		<rect fill="#000000ff" height="10" width="10" y="225" x="65"/>
		<rect fill="#000000ff" height="10" width="10" y="235" x="65"/>
		<rect fill="#000000ff" height="10" width="10" y="245" x="65"/>
		<rect fill="#000000ff" height="10" width="10" y="255" x="65"/>
		<rect fill="#000000ff" height="10" width="10" y="265" x="65"/>
		<rect fill="#000000ff" height="10" width="10" y="275" x="65"/>
		<rect fill="#000000ff" height="10" width="10" y="285" x="65"/>
		<rect fill="#000000ff" height="10" width="10" y="5" x="225"/>
		<rect fill="#000000ff" height="10" width="10" y="15" x="225"/>
		<rect fill="#000000ff" height="10" width="10" y="25" x="225"/>
		<rect fill="#000000ff" height="10" width="10" y="35" x="225"/>
		<rect fill="#000000ff" height="10" width="10" y="45" x="225"/>
		<rect fill="#000000ff" height="10" width="10" y="55" x="225"/>
		<rect fill="#000000ff" height="10" width="10" y="65" x="225"/>
		<rect fill="#000000ff" height="10" width="10" y="5" x="235"/>
		<rect fill="#000000ff" height="10" width="10" y="65" x="235"/>
		<rect fill="#000000ff" height="10" width="10" y="5" x="245"/>
		<rect fill="#000000ff" height="10" width="10" y="25" x="245"/>
		<rect fill="#000000ff" height="10" width="10" y="35" x="245"/>
		<rect fill="#000000ff" height="10" width="10" y="45" x="245"/>
		<rect fill="#000000ff" height="10" width="10" y="65" x="245"/>
		<rect fill="#000000ff" height="10" width="10" y="5" x="255"/>
		<rect fill="#000000ff" height="10" width="10" y="25" x="255"/>
		<rect fill="#000000ff" height="10" width="10" y="35" x="255"/>
		<rect fill="#000000ff" height="10" width="10" y="45" x="255"/>
		<rect fill="#000000ff" height="10" width="10" y="65" x="255"/>
		<rect fill="#000000ff" height="10" width="10" y="5" x="265"/>
		<rect fill="#000000ff" height="10" width="10" y="25" x="265"/>
		<rect fill="#000000ff" height="10" width="10" y="35" x="265"/>
		<rect fill="#000000ff" height="10" width="10" y="45" x="265"/>
		<rect fill="#000000ff" height="10" width="10" y="65" x="265"/>
		<rect fill="#000000ff" height="10" width="10" y="5" x="275"/>
		<rect fill="#000000ff" height="10" width="10" y="65" x="275"/>
		<rect fill="#000000ff" height="10" width="10" y="5" x="285"/>
		<rect fill="#000000ff" height="10" width="10" y="15" x="285"/>
		<rect fill="#000000ff" height="10" width="10" y="25" x="285"/>
		<rect fill="#000000ff" height="10" width="10" y="35" x="285"/>
		<rect fill="#000000ff" height="10" width="10" y="45" x="285"/>
		<rect fill="#000000ff" height="10" width="10" y="55" x="285"/>
		<rect fill="#000000ff" height="10" width="10" y="65" x="285"/>
		<rect fill="#000000ff" height="10" width="10" y="85" x="5"/>
		<rect fill="#000000ff" height="10" width="10" y="95" x="5"/>
		<rect fill="#000000ff" height="10" width="10" y="105" x="5"/>
		<rect fill="#000000ff" height="10" width="10" y="125" x="5"/>
		<rect fill="#000000ff" height="10" width="10" y="135" x="5"/>
		<rect fill="#000000ff" height="10" width="10" y="175" x="5"/>
		<rect fill="#000000ff" height="10" width="10" y="205" x="5"/>
		<rect fill="#000000ff" height="10" width="10" y="85" x="15"/>
		<rect fill="#000000ff" height="10" width="10" y="105" x="15"/>
		<rect fill="#000000ff" height="10" width="10" y="115" x="15"/>
		<rect fill="#000000ff" height="10" width="10" y="125" x="15"/>
		<rect fill="#000000ff" height="10" width="10" y="135" x="15"/>
		<rect fill="#000000ff" height="10" width="10" y="145" x="15"/>
		<rect fill="#000000ff" height="10" width="10" y="165" x="15"/>
		<rect fill="#000000ff" height="10" width="10" y="205" x="15"/>
		<rect fill="#000000ff" height="10" width="10" y="95" x="25"/>
		<rect fill="#000000ff" height="10" width="10" y="105" x="25"/>
		<rect fill="#000000ff" height="10" width="10" y="115" x="25"/>
		<rect fill="#000000ff" height="10" width="10" y="125" x="25"/>
		<rect fill="#000000ff" height="10" width="10" y="145" x="25"/>
		<rect fill="#000000ff" height="10" width="10" y="155" x="25"/>
		<rect fill="#000000ff" height="10" width="10" y="165" x="25"/>
		<rect fill="#000000ff" height="10" width="10" y="195" x="25"/>
		<rect fill="#000000ff" height="10" width="10" y="95" x="35"/>
		<rect fill="#000000ff" height="10" width="10" y="115" x="35"/>
		<rect fill="#000000ff" height="10" width="10" y="135" x="35"/>
		<rect fill="#000000ff" height="10" width="10" y="155" x="35"/>
		<rect fill="#000000ff" height="10" width="10" y="205" x="35"/>
		<rect fill="#000000ff" height="10" width="10" y="85" x="45"/>
		<rect fill="#000000ff" height="10" width="10" y="105" x="45"/>
		<rect fill="#000000ff" height="10" width="10" y="115" x="45"/>
		<rect fill="#000000ff" height="10" width="10" y="165" x="45"/>
		<rect fill="#000000ff" height="10" width="10" y="195" x="45"/>
		<rect fill="#000000ff" height="10" width="10" y="205" x="45"/>
		<rect fill="#000000ff" height="10" width="10" y="85" x="55"/>
		<rect fill="#000000ff" height="10" width="10" y="95" x="55"/>
		<rect fill="#000000ff" height="10" width="10" y="105" x="55"/>
		<rect fill="#000000ff" height="10" width="10" y="135" x="55"/>
		<rect fill="#000000ff" height="10" width="10" y="155" x="55"/>
		<rect fill="#000000ff" height="10" width="10" y="185" x="55"/>
		<rect fill="#000000ff" height="10" width="10" y="195" x="55"/>
		<rect fill="#000000ff" height="10" width="10" y="85" x="65"/>
		<rect fill="#000000ff" height="10" width="10" y="105" x="65"/>
		<rect fill="#000000ff" height="10" width="10" y="125" x="65"/>
		<rect fill="#000000ff" height="10" width="10" y="145" x="65"/>
		<rect fill="#000000ff" height="10" width="10" y="165" x="65"/>
		<rect fill="#000000ff" height="10" width="10" y="185" x="65"/>
		<rect fill="#000000ff" height="10" width="10" y="205" x="65"/>
		<rect fill="#000000ff" height="10" width="10" y="145" x="75"/>
		<rect fill="#000000ff" height="10" width="10" y="175" x="75"/>
		<rect fill="#000000ff" height="10" width="10" y="195" x="75"/>
		<rect fill="#000000ff" height="10" width="10" y="205" x="75"/>
		<rect fill="#000000ff" height="10" width="10" y="5" x="85"/>
		<rect fill="#000000ff" height="10" width="10" y="15" x="85"/>
		<rect fill="#000000ff" height="10" width="10" y="25" x="85"/>
		<rect fill="#000000ff" height="10" width="10" y="35" x="85"/>
		<rect fill="#000000ff" height="10" width="10" y="55" x="85"/>
		<rect fill="#000000ff" height="10" width="10" y="65" x="85"/>
		<rect fill="#000000ff" height="10" width="10" y="95" x="85"/>
		<rect fill="#000000ff" height="10" width="10" y="105" x="85"/>
		<rect fill="#000000ff" height="10" width="10" y="115" x="85"/>
		<rect fill="#000000ff" height="10" width="10" y="135" x="85"/>
		<rect fill="#000000ff" height="10" width="10" y="175" x="85"/>
		<rect fill="#000000ff" height="10" width="10" y="195" x="85"/>
		<rect fill="#000000ff" height="10" width="10" y="205" x="85"/>
		<rect fill="#000000ff" height="10" width="10" y="215" x="85"/>
		<rect fill="#000000ff" height="10" width="10" y="235" x="85"/>
		<rect fill="#000000ff" height="10" width="10" y="245" x="85"/>
		<rect fill="#000000ff" height="10" width="10" y="275" x="85"/>
		<rect fill="#000000ff" height="10" width="10" y="285" x="85"/>
		<rect fill="#000000ff" height="10" width="10" y="25" x="95"/>
		<rect fill="#000000ff" height="10" width="10" y="35" x="95"/>
		<rect fill="#000000ff" height="10" width="10" y="45" x="95"/>
		<rect fill="#000000ff" height="10" width="10" y="55" x="95"/>
		<rect fill="#000000ff" height="10" width="10" y="105" x="95"/>
		<rect fill="#000000ff" height="10" width="10" y="115" x="95"/>
		<rect fill="#000000ff" height="10" width="10" y="145" x="95"/>
		<rect fill="#000000ff" height="10" width="10" y="155" x="95"/>
		<rect fill="#000000ff" height="10" width="10" y="195" x="95"/>
		<rect fill="#000000ff" height="10" width="10" y="205" x="95"/>
		<rect fill="#000000ff" height="10" width="10" y="215" x="95"/>
		<rect fill="#000000ff" height="10" width="10" y="235" x="95"/>
		<rect fill="#000000ff" height="10" width="10" y="255" x="95"/>
		<rect fill="#000000ff" height="10" width="10" y="35" x="105"/>
		<rect fill="#000000ff" height="10" width="10" y="45" x="105"/>
		<rect fill="#000000ff" height="10" width="10" y="55" x="105"/>
		<rect fill="#000000ff" height="10" width="10" y="65" x="105"/>
		<rect fill="#000000ff" height="10" width="10" y="75" x="105"/>
		<rect fill="#000000ff" height="10" width="10" y="85" x="105"/>
		<rect fill="#000000ff" height="10" width="10" y="105" x="105"/>
		<rect fill="#000000ff" height="10" width="10" y="135" x="105"/>
		<rect fill="#000000ff" height="10" width="10" y="145" x="105"/>
		<rect fill="#000000ff" height="10" width="10" y="175" x="105"/>
		<rect fill="#000000ff" height="10" width="10" y="195" x="105"/>
		<rect fill="#000000ff" height="10" width="10" y="225" x="105"/>
		<rect fill="#000000ff" height="10" width="10" y="245" x="105"/>
		<rect fill="#000000ff" height="10" width="10" y="255" x="105"/>
		<rect fill="#000000ff" height="10" width="10" y="265" x="105"/>
		<rect fill="#000000ff" height="10" width="10" y="285" x="105"/>
		<rect fill="#000000ff" height="10" width="10" y="15" x="115"/>
		<rect fill="#000000ff" height="10" width="10" y="75" x="115"/>
		<rect fill="#000000ff" height="10" width="10" y="125" x="115"/>
		<rect fill="#000000ff" height="10" width="10" y="145" x="115"/>
		<rect fill="#000000ff" height="10" width="10" y="155" x="115"/>
		<rect fill="#000000ff" height="10" width="10" y="205" x="115"/>
		<rect fill="#000000ff" height="10" width="10" y="225" x="115"/>
		<rect fill="#000000ff" height="10" width="10" y="235" x="115"/>
		<rect fill="#000000ff" height="10" width="10" y="275" x="115"/>
		<rect fill="#000000ff" height="10" width="10" y="15" x="125"/>
		<rect fill="#000000ff" height="10" width="10" y="25" x="125"/>
		<rect fill="#000000ff" height="10" width="10" y="35" x="125"/>
		<rect fill="#000000ff" height="10" width="10" y="45" x="125"/>
		<rect fill="#000000ff" height="10" width="10" y="65" x="125"/>
		<rect fill="#000000ff" height="10" width="10" y="85" x="125"/>
		<rect fill="#000000ff" height="10" width="10" y="115" x="125"/>
		<rect fill="#000000ff" height="10" width="10" y="135" x="125"/>
		<rect fill="#000000ff" height="10" width="10" y="145" x="125"/>
		<rect fill="#000000ff" height="10" width="10" y="165" x="125"/>
		<rect fill="#000000ff" height="10" width="10" y="195" x="125"/>
		<rect fill="#000000ff" height="10" width="10" y="205" x="125"/>
		<rect fill="#000000ff" height="10" width="10" y="215" x="125"/>
		<rect fill="#000000ff" height="10" width="10" y="245" x="125"/>
		<rect fill="#000000ff" height="10" width="10" y="255" x="125"/>
		<rect fill="#000000ff" height="10" width="10" y="275" x="125"/>
		<rect fill="#000000ff" height="10" width="10" y="5" x="135"/>
		<rect fill="#000000ff" height="10" width="10" y="35" x="135"/>
		<rect fill="#000000ff" height="10" width="10" y="45" x="135"/>
		<rect fill="#000000ff" height="10" width="10" y="55" x="135"/>
		<rect fill="#000000ff" height="10" width="10" y="85" x="135"/>
		<rect fill="#000000ff" height="10" width="10" y="95" x="135"/>
		<rect fill="#000000ff" height="10" width="10" y="105" x="135"/>
		<rect fill="#000000ff" height="10" width="10" y="135" x="135"/>
		<rect fill="#000000ff" height="10" width="10" y="155" x="135"/>
		<rect fill="#000000ff" height="10" width="10" y="165" x="135"/>
		<rect fill="#000000ff" height="10" width="10" y="175" x="135"/>
		<rect fill="#000000ff" height="10" width="10" y="185" x="135"/>
		<rect fill="#000000ff" height="10" width="10" y="195" x="135"/>
		<rect fill="#000000ff" height="10" width="10" y="205" x="135"/>
		<rect fill="#000000ff" height="10" width="10" y="215" x="135"/>
		<rect fill="#000000ff" height="10" width="10" y="225" x="135"/>
		<rect fill="#000000ff" height="10" width="10" y="255" x="135"/>
		<rect fill="#000000ff" height="10" width="10" y="265" x="135"/>
		<rect fill="#000000ff" height="10" width="10" y="275" x="135"/>
		<rect fill="#000000ff" height="10" width="10" y="5" x="145"/>
		<rect fill="#000000ff" height="10" width="10" y="25" x="145"/>
		<rect fill="#000000ff" height="10" width="10" y="45" x="145"/>
		<rect fill="#000000ff" height="10" width="10" y="65" x="145"/>
		<rect fill="#000000ff" height="10" width="10" y="75" x="145"/>
		<rect fill="#000000ff" height="10" width="10" y="105" x="145"/>
		<rect fill="#000000ff" height="10" width="10" y="125" x="145"/>
		<rect fill="#000000ff" height="10" width="10" y="145" x="145"/>
		<rect fill="#000000ff" height="10" width="10" y="175" x="145"/>
		<rect fill="#000000ff" height="10" width="10" y="195" x="145"/>
		<rect fill="#000000ff" height="10" width="10" y="205" x="145"/>
		<rect fill="#000000ff" height="10" width="10" y="235" x="145"/>
		<rect fill="#000000ff" height="10" width="10" y="245" x="145"/>
		<rect fill="#000000ff" height="10" width="10" y="265" x="145"/>
		<rect fill="#000000ff" height="10" width="10" y="15" x="155"/>
		<rect fill="#000000ff" height="10" width="10" y="35" x="155"/>
		<rect fill="#000000ff" height="10" width="10" y="45" x="155"/>
		<rect fill="#000000ff" height="10" width="10" y="105" x="155"/>
		<rect fill="#000000ff" height="10" width="10" y="135" x="155"/>
		<rect fill="#000000ff" height="10" width="10" y="145" x="155"/>
		<rect fill="#000000ff" height="10" width="10" y="185" x="155"/>
		<rect fill="#000000ff" height="10" width="10" y="195" x="155"/>
		<rect fill="#000000ff" height="10" width="10" y="225" x="155"/>
		<rect fill="#000000ff" height="10" width="10" y="235" x="155"/>
		<rect fill="#000000ff" height="10" width="10" y="265" x="155"/>
		<rect fill="#000000ff" height="10" width="10" y="275" x="155"/>
		<rect fill="#000000ff" height="10" width="10" y="15" x="165"/>
		<rect fill="#000000ff" height="10" width="10" y="25" x="165"/>
		<rect fill="#000000ff" height="10" width="10" y="45" x="165"/>
		<rect fill="#000000ff" height="10" width="10" y="55" x="165"/>
		<rect fill="#000000ff" height="10" width="10" y="65" x="165"/>
		<rect fill="#000000ff" height="10" width="10" y="75" x="165"/>
		<rect fill="#000000ff" height="10" width="10" y="85" x="165"/>
		<rect fill="#000000ff" height="10" width="10" y="115" x="165"/>
		<rect fill="#000000ff" height="10" width="10" y="125" x="165"/>
		<rect fill="#000000ff" height="10" width="10" y="135" x="165"/>
		<rect fill="#000000ff" height="10" width="10" y="145" x="165"/>
		<rect fill="#000000ff" height="10" width="10" y="165" x="165"/>
		<rect fill="#000000ff" height="10" width="10" y="175" x="165"/>
		<rect fill="#000000ff" height="10" width="10" y="185" x="165"/>
		<rect fill="#000000ff" height="10" width="10" y="245" x="165"/>
		<rect fill="#000000ff" height="10" width="10" y="265" x="165"/>
		<rect fill="#000000ff" height="10" width="10" y="285" x="165"/>
		<rect fill="#000000ff" height="10" width="10" y="15" x="175"/>
		<rect fill="#000000ff" height="10" width="10" y="25" x="175"/>
		<rect fill="#000000ff" height="10" width="10" y="55" x="175"/>
		<rect fill="#000000ff" height="10" width="10" y="85" x="175"/>
		<rect fill="#000000ff" height="10" width="10" y="105" x="175"/>
		<rect fill="#000000ff" height="10" width="10" y="115" x="175"/>
		<rect fill="#000000ff" height="10" width="10" y="125" x="175"/>
		<rect fill="#000000ff" height="10" width="10" y="145" x="175"/>
		<rect fill="#000000ff" height="10" width="10" y="155" x="175"/>
		<rect fill="#000000ff" height="10" width="10" y="165" x="175"/>
		<rect fill="#000000ff" height="10" width="10" y="235" x="175"/>
		<rect fill="#000000ff" height="10" width="10" y="245" x="175"/>
		<rect fill="#000000ff" height="10" width="10" y="275" x="175"/>
		<rect fill="#000000ff" height="10" width="10" y="25" x="185"/>
		<rect fill="#000000ff" height="10" width="10" y="45" x="185"/>
		<rect fill="#000000ff" height="10" width="10" y="55" x="185"/>
		<rect fill="#000000ff" height="10" width="10" y="65" x="185"/>
		<rect fill="#000000ff" height="10" width="10" y="105" x="185"/>
		<rect fill="#000000ff" height="10" width="10" y="135" x="185"/>
		<rect fill="#000000ff" height="10" width="10" y="145" x="185"/>
		<rect fill="#000000ff" height="10" width="10" y="155" x="185"/>
		<rect fill="#000000ff" height="10" width="10" y="165" x="185"/>
		<rect fill="#000000ff" height="10" width="10" y="195" x="185"/>
		<rect fill="#000000ff" height="10" width="10" y="205" x="185"/>
		<rect fill="#000000ff" height="10" width="10" y="225" x="185"/>
		<rect fill="#000000ff" height="10" width="10" y="235" x="185"/>
		<rect fill="#000000ff" height="10" width="10" y="265" x="185"/>
		<rect fill="#000000ff" height="10" width="10" y="285" x="185"/>
		<rect fill="#000000ff" height="10" width="10" y="25" x="195"/>
		<rect fill="#000000ff" height="10" width="10" y="45" x="195"/>
		<rect fill="#000000ff" height="10" width="10" y="75" x="195"/>
		<rect fill="#000000ff" height="10" width="10" y="85" x="195"/>
		<rect fill="#000000ff" height="10" width="10" y="105" x="195"/>
		<rect fill="#000000ff" height="10" width="10" y="115" x="195"/>
		<rect fill="#000000ff" height="10" width="10" y="125" x="195"/>
		<rect fill="#000000ff" height="10" width="10" y="155" x="195"/>
		<rect fill="#000000ff" height="10" width="10" y="165" x="195"/>
		<rect fill="#000000ff" height="10" width="10" y="185" x="195"/>
		<rect fill="#000000ff" height="10" width="10" y="195" x="195"/>
		<rect fill="#000000ff" height="10" width="10" y="205" x="195"/>
		<rect fill="#000000ff" height="10" width="10" y="245" x="195"/>
		<rect fill="#000000ff" height="10" width="10" y="265" x="195"/>
		<rect fill="#000000ff" height="10" width="10" y="275" x="195"/>
		<rect fill="#000000ff" height="10" width="10" y="285" x="195"/>
		<rect fill="#000000ff" height="10" width="10" y="15" x="205"/>
		<rect fill="#000000ff" height="10" width="10" y="35" x="205"/>
		<rect fill="#000000ff" height="10" width="10" y="55" x="205"/>
		<rect fill="#000000ff" height="10" width="10" y="65" x="205"/>
		<rect fill="#000000ff" height="10" width="10" y="75" x="205"/>
		<rect fill="#000000ff" height="10" width="10" y="115" x="205"/>
		<rect fill="#000000ff" height="10" width="10" y="135" x="205"/>
		<rect fill="#000000ff" height="10" width="10" y="155" x="205"/>
		<rect fill="#000000ff" height="10" width="10" y="165" x="205"/>
		<rect fill="#000000ff" height="10" width="10" y="205" x="205"/>
		<rect fill="#000000ff" height="10" width="10" y="215" x="205"/>
		<rect fill="#000000ff" height="10" width="10" y="225" x="205"/>
		<rect fill="#000000ff" height="10" width="10" y="235" x="205"/>
		<rect fill="#000000ff" height="10" width="10" y="245" x="205"/>
		<rect fill="#000000ff" height="10" width="10" y="285" x="205"/>
		<rect fill="#000000ff" height="10" width="10" y="115" x="215"/>
		<rect fill="#000000ff" height="10" width="10" y="135" x="215"/>
		<rect fill="#000000ff" height="10" width="10" y="155" x="215"/>
		<rect fill="#000000ff" height="10" width="10" y="165" x="215"/>
		<rect fill="#000000ff" height="10" width="10" y="185" x="215"/>
		<rect fill="#000000ff" height="10" width="10" y="195" x="215"/>
		<rect fill="#000000ff" height="10" width="10" y="205" x="215"/>
		<rect fill="#000000ff" height="10" width="10" y="245" x="215"/>
		<rect fill="#000000ff" height="10" width="10" y="255" x="215"/>
		<rect fill="#000000ff" height="10" width="10" y="265" x="215"/>
		<rect fill="#000000ff" height="10" width="10" y="285" x="215"/>
		<rect fill="#000000ff" height="10" width="10" y="105" x="225"/>
		<rect fill="#000000ff" height="10" width="10" y="125" x="225"/>
		<rect fill="#000000ff" height="10" width="10" y="145" x="225"/>
		<rect fill="#000000ff" height="10" width="10" y="165" x="225"/>
		<rect fill="#000000ff" height="10" width="10" y="175" x="225"/>
		<rect fill="#000000ff" height="10" width="10" y="185" x="225"/>
		<rect fill="#000000ff" height="10" width="10" y="205" x="225"/>
		<rect fill="#000000ff" height="10" width="10" y="225" x="225"/>
		<rect fill="#000000ff" height="10" width="10" y="245" x="225"/>
		<rect fill="#000000ff" height="10" width="10" y="255" x="225"/>
		<rect fill="#000000ff" height="10" width="10" y="275" x="225"/>
		<rect fill="#000000ff" height="10" width="10" y="285" x="225"/>
		<rect fill="#000000ff" height="10" width="10" y="85" x="235"/>
		<rect fill="#000000ff" height="10" width="10" y="125" x="235"/>
		<rect fill="#000000ff" height="10" width="10" y="145" x="235"/>
		<rect fill="#000000ff" height="10" width="10" y="165" x="235"/>
		<rect fill="#000000ff" height="10" width="10" y="175" x="235"/>
		<rect fill="#000000ff" height="10" width="10" y="185" x="235"/>
		<rect fill="#000000ff" height="10" width="10" y="205" x="235"/>
		<rect fill="#000000ff" height="10" width="10" y="245" x="235"/>
		<rect fill="#000000ff" height="10" width="10" y="255" x="235"/>
		<rect fill="#000000ff" height="10" width="10" y="285" x="235"/>
		<rect fill="#000000ff" height="10" width="10" y="105" x="245"/>
		<rect fill="#000000ff" height="10" width="10" y="125" x="245"/>
		<rect fill="#000000ff" height="10" width="10" y="145" x="245"/>
		<rect fill="#000000ff" height="10" width="10" y="165" x="245"/>
		<rect fill="#000000ff" height="10" width="10" y="175" x="245"/>
		<rect fill="#000000ff" height="10" width="10" y="185" x="245"/>
		<rect fill="#000000ff" height="10" width="10" y="205" x="245"/>
		<rect fill="#000000ff" height="10" width="10" y="215" x="245"/>
		<rect fill="#000000ff" height="10" width="10" y="225" x="245"/>
		<rect fill="#000000ff" height="10" width="10" y="235" x="245"/>
		<rect fill="#000000ff" height="10" width="10" y="245" x="245"/>
		<rect fill="#000000ff" height="10" width="10" y="275" x="245"/>
		<rect fill="#000000ff" height="10" width="10" y="285" x="245"/>
		<rect fill="#000000ff" height="10" width="10" y="85" x="255"/>
		<rect fill="#000000ff" height="10" width="10" y="105" x="255"/>
		<rect fill="#000000ff" height="10" width="10" y="115" x="255"/>
		<rect fill="#000000ff" height="10" width="10" y="125" x="255"/>
		<rect fill="#000000ff" height="10" width="10" y="145" x="255"/>
		<rect fill="#000000ff" height="10" width="10" y="165" x="255"/>
		<rect fill="#000000ff" height="10" width="10" y="175" x="255"/>
		<rect fill="#000000ff" height="10" width="10" y="185" x="255"/>
		<rect fill="#000000ff" height="10" width="10" y="205" x="255"/>
		<rect fill="#000000ff" height="10" width="10" y="215" x="255"/>
		<rect fill="#000000ff" height="10" width="10" y="235" x="255"/>
		<rect fill="#000000ff" height="10" width="10" y="255" x="255"/>
		<rect fill="#000000ff" height="10" width="10" y="275" x="255"/>
		<rect fill="#000000ff" height="10" width="10" y="85" x="265"/>
		<rect fill="#000000ff" height="10" width="10" y="95" x="265"/>
		<rect fill="#000000ff" height="10" width="10" y="105" x="265"/>
		<rect fill="#000000ff" height="10" width="10" y="125" x="265"/>
		<rect fill="#000000ff" height="10" width="10" y="135" x="265"/>
		<rect fill="#000000ff" height="10" width="10" y="145" x="265"/>
		<rect fill="#000000ff" height="10" width="10" y="165" x="265"/>
		<rect fill="#000000ff" height="10" width="10" y="175" x="265"/>
		<rect fill="#000000ff" height="10" width="10" y="185" x="265"/>
		<rect fill="#000000ff" height="10" width="10" y="195" x="265"/>
		<rect fill="#000000ff" height="10" width="10" y="215" x="265"/>
		<rect fill="#000000ff" height="10" width="10" y="225" x="265"/>
		<rect fill="#000000ff" height="10" width="10" y="235" x="265"/>
		<rect fill="#000000ff" height="10" width="10" y="255" x="265"/>
		<rect fill="#000000ff" height="10" width="10" y="265" x="265"/>
		<rect fill="#000000ff" height="10" width="10" y="275" x="265"/>
		<rect fill="#000000ff" height="10" width="10" y="85" x="275"/>
		<rect fill="#000000ff" height="10" width="10" y="125" x="275"/>
		<rect fill="#000000ff" height="10" width="10" y="145" x="275"/>
		<rect fill="#000000ff" height="10" width="10" y="155" x="275"/>
		<rect fill="#000000ff" height="10" width="10" y="165" x="275"/>
		<rect fill="#000000ff" height="10" width="10" y="175" x="275"/>
		<rect fill="#000000ff" height="10" width="10" y="185" x="275"/>
		<rect fill="#000000ff" height="10" width="10" y="195" x="275"/>
		<rect fill="#000000ff" height="10" width="10" y="235" x="275"/>
		<rect fill="#000000ff" height="10" width="10" y="255" x="275"/>
		<rect fill="#000000ff" height="10" width="10" y="265" x="275"/>
		<rect fill="#000000ff" height="10" width="10" y="285" x="275"/>
		<rect fill="#000000ff" height="10" width="10" y="85" x="285"/>
		<rect fill="#000000ff" height="10" width="10" y="105" x="285"/>
		<rect fill="#000000ff" height="10" width="10" y="175" x="285"/>
		<rect fill="#000000ff" height="10" width="10" y="225" x="285"/>
		<rect fill="#000000ff" height="10" width="10" y="245" x="285"/>
		<rect fill="#000000ff" height="10" width="10" y="265" x="285"/>

	</g>
</svg>