<svg xmlns="http://www.w3.org/2000/svg" id="svg" style="enable-background:new 0 0 500 500" viewBox="0 0 128 128"><path d="M0 0C.33-.33.66-.66 1-1 7.1879402-.9254465 18-.64792373 18 8c.66.0 1.32.0 2 0 0 8 0 8-5 9-1.04349839 7.2236068-1.04349839 7.2236068 4 9 1.64477784 1.64477784 6.62024371 7 1 7C20 33.99 20 34.98 20 36c-1.65 1.65-3.3 3.3-5 5-2.94280904 4.70710678-2.94280904 4.70710678 1 3-.33 1.32-.66 2.64-1 4C15.99 48.33 16.98 48.66 18 49c-1 3-1 3-8 3C10 52.66 10 53.32 10 54c-1.65.0-3.3.0-5 0 0 1.98.0 3.96.0 6C4.67 60.66 4.34 61.32 4 62c1.98-1.32 3.96-2.64 6-4 2.72832091 2.72832091 2.21033613 8-2 8-.33333333 2.33333333-.33333333 2.33333333 2 2C11.79264592 75.17058367 6.45474303 75.22737152.0 72-.33 70.35-.66 68.7-1 67-8.01594702 64.53884276-8.01594702 64.53884276-9 71-13.81488674 75.81488674-18 74.9571358-18 68-16.02 67.01-16.02 67.01-14 66c1.84327404-3.9486833 1.84327404-3.9486833-5-3C-18.74699685 58.99411676-18.41161891 54.99270347-18 51-19.32 50.67-20.64 50.34-22 50-22 49.34-22 48.68-22 48-23.485 47.505-23.485 47.505-25 47-25 46.34-25 45.68-25 45c-2.31.0-4.62.0-7 0C-32 44.34-32 43.68-32 43-32.99 42.67-33.98 42.34-35 42c0-6 0-6 3-10C-31.95385863 24.60555325-31.95385863 24.60555325-37 24-44.06317662 16.93682338-36.34281148 9.17140574-30 6-29.67 5.34-29.34 4.68-29 4c1.65.33 3.3.66 5 1C-23.56298279 1.67866922-23.23867466-1.65855471-23-5c8.04175196-8.04175196 19.47921711-5.56234868 23 5z" transform="translate(70,32)" style="fill:#52514f"/><path d="M0 0C2.57039063-.01675781 5.14078125-.03351562 7.7890625-.05078125 19.375.58830071 19.375.58830071 19.375 5.3125c2.31.33 4.62.66 7 1 4 2.6875 4 2.6875 8 6 1.85625 1.423125 1.85625 1.423125 3.75 2.875 3.56579777 3.4286517 5.20684666 6.6603316 7.25 11.125.659999999999997.329999999999998 1.32.66 2 1 11.74358845 19.57264741 9.65947886 39.79454933 1 60C47.88 88.7975 47.88 88.7975 47.375 90.3125c-.659999999999997.0-1.32.0-2 0C44.715 92.2925 44.055 94.2725 43.375 96.3125c-17.70541081 17.70541081-40.99930297 28.02734729-65 17-2.31-.659999999999997-4.62-1.31999999999999-7-2-10.82014388-6.10071942-10.82014388-6.10071942-12-12C-42.275 98.9825-43.925 98.6525-45.625 98.3125c-4-5-4-5-5-10-.659999999999997.0-1.32.0-2 0-3.77197403-6.60095455-5.72019098-12.53444736-7-20-.329999999999998.0-.659999999999997.0-1 0C-60.75421393 64.77263944-60.80101427 61.22969947-60.8125 57.6875-60.82667969 55.71523438-60.84085938 53.74296875-60.85546875 51.7109375-60.54411851 44.41795396-58.87184749 37.55934749-53.625 32.3125c2.00298522-3.66503679 4.00285627-7.33177681 6-11 4-5 4-5 6-5 0-.66.0-1.32.0-2C-28.96723412 3.60208272-16.3122882.02459139.0.0zM-24.125 11.3125c-3.5 2-3.5 2-6.5 1-2.36536695 2.63829391-4.6939976 5.30966387-7 8-2.33333333 1.66666667-4.66666667 3.33333333-7 5 0 .989999999999998.0 1.98.0 3-.659999999999997.0-1.32.0-2 0-1.16666667 7.5-1.16666667 7.5 3 7C-44.40875 36.715-45.1925 38.1175-46 39.5625c-3.65323682 6.610619-5.15850228 11.38648257-6.1875 18.875-1.34027778 9.68055556-1.34027778 9.68055556-2.4375 11.875 14.9868484 56.68938307 87.82500942 49.00953139 105-1 4.37698232-21.88491158-4.25551702-59.40478395-32-58-1.65-.33-3.3-.66-5-1C8.07881068 9.42980178 3.34848177 9.14653173-2 9.125-3.61648437 9.11082031-5.23296875 9.09664062-6.8984375 9.08203125c-4.05926019-.371236-4.05926019-.371236-3.7265625 2.23046875-7.28596572-1.84790077-7.28596572-1.84790077-13.5.0z" transform="translate(66.625,7.6875)" style="fill:#dedede"/><path d="M0 0C0 .99.0 1.98.0 3 .66 3 1.32 3 2 3c8.22034933 16.44069866 3.91429357 33.86664834-3 50C-1.33 53.99-1.66 54.98-2 56c-.66.0-1.32.0-2 0-.99 2.97-.99 2.97-2 6-17.70541081 17.70541081-40.99930297 28.02734729-65 17C-73.31 78.34-75.62 77.68-78 77c-10.82014388-6.10071942-10.82014388-6.10071942-12-12C-91.65 64.67-93.3 64.34-95 64c-4-5-4-5-5-10C-100.66 54-101.32 54-102 54c-1.29021026-4.11254521-11.95288971-43-4-43C-105.8624606 13.89444024-105.76689048 16.79088153-105.6875 19.6875-103.59537402 63.62214555-56.56422286 93.21661778-19 64-17.80375 63.0925-16.6075 62.185-15.375 61.25.5190736 45.94459579 5.48810946 22.59230103-2 2-2-2-2-2 0 0z" transform="translate(116,42)" style="fill:#d1d1d1"/><path d="M0 0C.33-.33.66-.66 1-1 12-.25842697 12-.25842697 12 1 10.02 1 8.04 1 6 1c.495.99.495.99 1 2C8.27084765 17.82655596-3.6531799 18.27959921-15.75 18.375-18.21726562 18.41753906-18.21726562 18.41753906-20.734375 18.4609375-28.01173316 17.67455631-32.49922861 10.99845722-29 4c1.65.33 3.3.66 5 1C-23.56298279 1.67866922-23.23867466-1.65855471-23-5c8.04175196-8.04175196 19.47921711-5.56234868 23 5z" transform="translate(70,32)" style="fill:#e6ac68"/><path d="M0 0C-2 3-2 3-6.125 4c-4.35913866.4579469-4.35913866.4579469-3.875 4 1.485-.28875 2.97-.5775 4.5-.875C1.51414897 6.93016253.13347896 10.08971683-1 16c-1.65.0-3.3.0-5 0 0 1.98.0 3.96.0 6-.33.66-.66 1.32-1 2 1.98-1.32 3.96-2.64 6-4 2.72832091 2.72832091 2.21033613 8-2 8-.33333333 2.33333333-.33333333 2.33333333 2 2 1.79264592 7.17058367-3.54525697 7.22737152-10 4-.33-1.65-.66-3.3-1-5-5.295236-1.78989978-5.295236-1.78989978-9 1 0-3 0-3 5-4C-17.32 25.67-18.64 25.34-20 25c-2-3-2-3-2-6C-22.99 18.67-23.98 18.34-25 18c1.53259814-6.13039256 4.36301852-4.64422645 10-4-.33 1.32-.66 2.64-1 4 6.13297194.0 1.81964557-4.62706329-1-6.125-1.32-.61875-2.64-1.2375-4-1.875 1-2 1-2 8-2 1.51465024-5.46084261 1.51465024-5.46084261.0-8C-13-12.48649291.0-12.07922721.0.0z" transform="translate(81,70)" style="fill:#5e5e5e"/><path d="M0 0C0 .99.0 1.98.0 3 .66 3 1.32 3 2 3 3.46323411 8.85293645 7.83550467 45-1 45c-.20625 1.340625-.4125 2.68125-.625 4.0625C-3.34102021 55.22457257-6.0831973 57.08192285-11 61c-.99 1.98-.99 1.98-2 4-.66.0-1.32.0-2 0C-15.495 66.485-15.495 66.485-16 68c-.66.0-1.32.0-2 0C-18 68.66-18 69.32-18 70c-7.29411765 4-7.29411765 4-10 4C-28 74.66-28 75.32-28 76-42.0752658 80.35662989-96 81.43384744-96 56c4 2 4 2 8.3125 5.875C-68.24383878 78.98542187-39.4704894 79.92149176-19 64-17.80375 63.0925-16.6075 62.185-15.375 61.25.5190736 45.94459579 5.48810946 22.59230103-2 2-2-2-2-2 0 0z" transform="translate(116,42)" style="fill:#959595"/><path d="M0 0C1.65.33 3.3.66 5 1 5 5 5 5-2 5 1.27796366 8.27796366 3.21151769 8.20191961 8 9c-.99.33-1.98.66-3 1-.33 1.65-.66 3.3-1 5-3-1-3-1-2-4-8.14702468-2.41864795-8.75714178-.84856664-7 7-1 2-1 2-6 2 1.32-.66 2.64-1.32 4-2-1.15834953-4.64175548-1.15834953-4.64175548-3-9 .66.0 1.32.0 2 0-.33-.99-.66-1.98-1-3 .99-1.65 1.98-3.3 3-5 .66-1.65 1.32-3.3 2-5C.42011297-6.21005649.0-5.39040718.0.0z" transform="translate(63,74)" style="fill:#494949"/><path d="M0 0C-8.0619463 8.0619463-13 1.80310411-13-7-4.27283844-13.54537117.0-9.18631582.0.0z" transform="translate(59,74)" style="fill:#d0d0d0"/><path d="M0 0C-6.19742061 9.29613092-13 2.30741332-13-6-6.13427144-12.86572856.0-8.59694961.0.0z" transform="translate(81,70)" style="fill:#e5e5e6"/><path d="M0 0C1.82503648 15.61420096-11.01859282 13.6818687-23 13c-4.5-9-4.5-9 0-9 0 1.65.0 3.3.0 5 11.44743983 1.34897976 11.44743983 1.34897976 19-3 .66.0 1.32.0 2 0 0-6 0-6 2-6z" transform="translate(71,35)" style="fill:#ba5929"/><path d="M0 0C5.22871699 1.53087334 9.50605012 1.74313879 14.94140625 1.66015625c2.54074219-.02320312 2.54074219-.02320312 5.1328125-.046875 5.13648072-.14168172 5.13648072-.14168172 11.7421875-1.203125-5.48641318 5.48641318-42 5.88501997-42-3-.99-.33-1.98-.66-3-1C-13.18359375-5.43641432-2.07372011-.78805237.0.0z" transform="translate(50.18359375,118.58984375)" style="fill:#bdbdbd"/><path d="M0 0C-.99.66-1.98 1.32-3 2c-.33.99-.66 1.98-1 3-11.17311755-2.79327939-1.77266024-16.54532048 4-5z" transform="translate(79,67)" style="fill:#8b8b8b"/><path d="M0 0C.99.33 1.98.66 3 1 4.38999538 6.55998151-.00125081 10.99874919-6 5-6 0-6 0-4 2c.87968993-3.5187597 1.85255081-6.29489838 4-2z" transform="translate(77,99)" style="fill:#434343"/><path d="M0 0C-12 0-12 0-12-5-6-5-6-5-5-2c2.60633906.32338083 2.60633906.32338083 3-4C4.76067757-7.69016939 3.72366511-3.72366511.0.0z" transform="translate(70,90)" style="fill:#909ca3"/><path d="M0 0C-3 3-3 3-6 0c.99-1.32 1.98-2.64 3-4-1-2.5-1-2.5-5-4 7.01628494-2.33876165 8 1.98875795 8 8z" transform="translate(81,70)" style="fill:#b6b6b5"/><path d="M0 0C5 1 5 1 6 4 5.34 4 4.68 4 4 4c0 .99.0 1.98.0 3-.66.0-1.32.0-2 0 0 .66.0 1.32.0 2-4 0-4 0-5-6 .33.66.66 1.32 1 2 4.66666667.66666667 4.66666667.66666667 4-4C1.34.67.68.34.0.0z" transform="translate(51,66)" style="fill:#313131"/><path d="M0 0C0 4 0 4-7 4-9.12492755-2.37478266-6.50304687-.9290067.0.0z" transform="translate(68,75)" style="fill:#262626"/><path d="M0 0C-.99.33-1.98.66-3 1c-.33 1.65-.66 3.3-1 5-3-1-3-1-2-4-2.31-.33-4.62-.66-7-1C-8.08263942-1.45868029-5.33783649-.78497596.0.0z" transform="translate(71,83)" style="fill:#263039"/><path d="M0 0C-.99.66-1.98 1.32-3 2c-.33.99-.66 1.98-1 3-4-1-4-1-5-5 2.475.495 2.475.495 5 1 .33-.99.66-1.98 1-3 1-1 1-1 3 2z" transform="translate(79,67)" style="fill:#282828"/><path d="M0 0C-.99.495-.99.495-2 1c-.33 1.32-.66 2.64-1 4 0-.99.0-1.98.0-3-1.65.0-3.3.0-5 0 2-5 2-5 8-2z" transform="translate(87,48)" style="fill:#7e7f7e"/><path d="M0 0C1.65.33 3.3.66 5 1c0 1 0 1-5 .875C-5.49984382 1.17890239-5.49984382 1.17890239-5 5-7 5-7 5-7 1-5.35.67-3.7.34-2 0-2-2-2-2 0 0z" transform="translate(65,95)" style="fill:#383837"/><path d="M0 0C0 2 0 2-2 2c-.33 1.65-.66 3.3-1 5-4-4-4-4-2-4 1-4 1-4 5-3z" transform="translate(42,52)" style="fill:#838380"/><path d="M0 0C-3.9375 1.1875-3.9375 1.1875-8 2-6.8799542-3.60022901-2.2799859-6.83995769.0.0z" transform="translate(55,57)" style="fill:#14110f"/><path d="M0 0C0 .66.0 1.32.0 2c.99.33 1.98.66 3 1 2 7 2 7-1 5 0-.99.0-1.98.0-3C.68 4.34-.64 3.68-2 3-3-1-3-1 0 0z" transform="translate(112,30)" style="fill:#e0e0e0"/><path d="M0 0C-6.66666667 6.66666667-6.66666667 6.66666667-5 0-1-4-1-4 0 0z" transform="translate(110,102)" style="fill:#b7b7b7"/><path d="M0 0C-2-1-2-1-2-4c-.66-.33-1.32-.66-2-1C1.69658179-10.69658179.92805376-6.49637635.0.0z" transform="translate(80,98)" style="fill:#767777"/><path d="M0 0C0 1.65.0 3.3.0 5 .66 5 1.32 5 2 5 2 9.06950087-3.14989571 6.4453288-6 6-5 4-5 4-2 3-1 0-1 0 0 0z" transform="translate(58,95)" style="fill:#727272"/><path d="M0 0C-4 0-4 0-5-3-1.28796139-6.71203861.0-4.50824632.0.0z" transform="translate(53,71)" style="fill:#bbb"/><path d="M0 0C0 2 0 2-8 2-7-1-7-1 0 0z" transform="translate(76,52)" style="fill:#08090c"/></svg>